<svg viewBox="0 0 728 391" fill="none" xmlns="http://www.w3.org/2000/svg">
<path d="M695.867 328.261C687.01 280.272 645.478 237.309 596.688 236.364C578.565 236.014 559.444 240.953 542.899 233.548C530.664 228.072 522.169 216.754 511.277 208.941C494.658 197.02 473.027 193.839 452.69 196.001C432.352 198.162 412.896 205.204 393.675 212.19C364.105 177.502 317.846 157.734 272.34 160.338C226.833 162.942 183.132 187.861 157.714 225.698C107.137 225.068 59.117 265.075 50.6053 314.935C46.2381 340.518 52.5629 367.091 66.2117 389.103H690.44C697.304 369.08 699.371 347.246 695.867 328.261Z" fill="#F5F5F5"/>
<path d="M639.327 389.594L638.76 388.611C650.196 382.017 660.675 372.088 669.906 359.101C678.649 346.8 685.926 332.037 690.95 316.407C700.946 285.311 704.469 252.159 707.824 220.062C681.126 228.215 655.995 249.617 638.769 278.909C621.35 308.532 612.237 345.839 613.767 381.267L612.633 381.316C611.094 345.675 620.263 308.14 637.79 278.334C655.336 248.498 681.042 226.773 708.317 218.729L709.13 218.489L709.042 219.332C705.653 251.751 702.15 285.273 692.031 316.754C686.971 332.494 679.641 347.365 670.831 359.759C661.506 372.88 650.906 382.918 639.327 389.594Z" fill="#DDDDDD"/>
<path d="M616.408 383.102L615.278 383.004C616.306 371.066 620.033 359.072 626.673 346.335C633.082 334.043 641.344 322.814 647.826 314.405C649.406 312.355 651.03 310.27 652.6 308.255C666.323 290.636 680.515 272.417 687.159 250.202L688.246 250.527C681.541 272.946 667.283 291.251 653.495 308.953C651.925 310.968 650.302 313.051 648.725 315.098C642.271 323.47 634.047 334.645 627.68 346.86C621.111 359.462 617.424 371.317 616.408 383.102Z" fill="#DDDDDD"/>
<path d="M646.426 324.467C644.864 324.467 643.303 324.364 641.754 324.156L641.906 323.031C648.692 323.943 655.863 322.766 662.642 319.628C669.579 316.365 675.603 311.44 680.179 305.29L681.087 305.97C676.398 312.271 670.226 317.316 663.119 320.657C657.897 323.122 652.201 324.422 646.426 324.467Z" fill="#DDDDDD"/>
<path d="M657.607 302.095C653.891 289.025 656.439 273.315 664.1 262.071L665.038 262.711C657.559 273.688 655.07 289.025 658.699 301.785L657.607 302.095Z" fill="#DDDDDD"/>
<path d="M678.118 389.735L677.717 388.673C690.584 383.813 702.178 373.881 710.362 360.705C717.307 349.524 722.009 335.875 724.341 320.13C710.071 320.77 695.803 326.518 685.094 335.961L684.343 335.11C695.416 325.346 710.228 319.464 724.982 318.969L725.659 318.947L725.563 319.617C723.244 335.804 718.454 349.83 711.326 361.306C703.011 374.691 691.217 384.787 678.118 389.735Z" fill="#DDDDDD"/>
<path d="M643.614 386.73L643.131 385.702C669.005 373.485 692.305 356.435 711.778 335.47L712.612 336.241C693.039 357.313 669.62 374.45 643.614 386.73Z" fill="#DDDDDD"/>
<path d="M544.512 390.429C534.565 386.694 525.502 379.723 518.302 370.27C511.676 361.569 506.731 350.993 504 339.687C498.598 317.315 501.155 293.453 503.977 272.844L504.103 271.922L504.865 272.456C522.987 285.154 541.726 298.284 555.317 316.398C570.453 336.569 575.829 360.282 569.699 379.832L568.616 379.492C574.637 360.291 569.326 336.959 554.409 317.079C541.116 299.363 522.787 286.401 504.976 273.92C502.22 294.214 499.828 317.572 505.104 339.42C507.798 350.575 512.674 361.004 519.206 369.582C526.275 378.865 535.164 385.706 544.911 389.365L544.512 390.429Z" fill="#DDDDDD"/>
<path d="M516.378 293.399L515.36 293.901L559.136 382.509L560.153 382.007L516.378 293.399Z" fill="#DDDDDD"/>
<path d="M539.167 344.383C533.126 344.321 527.2 342.724 521.946 339.742C516.692 336.761 512.282 332.493 509.13 327.339L510.106 326.758C513.219 331.848 517.601 336.042 522.821 338.932C528.042 341.821 533.923 343.305 539.889 343.24L539.916 344.375C539.667 344.38 539.416 344.383 539.167 344.383Z" fill="#DDDDDD"/>
<path d="M113.51 388.81C100.583 386.154 88.4985 379.724 77.5945 369.699C67.7872 360.682 59.3778 349.035 53.2762 336.016C41.4532 310.79 37.8491 282.857 34.3637 255.844L34.2431 254.909L35.1258 255.239C68.7793 267.833 92.2978 282.322 109.141 300.838C130.666 324.502 139.774 355.563 132.912 381.9L131.813 381.614C138.58 355.644 129.57 324.985 108.3 301.602C91.7305 283.386 68.6181 269.084 35.6099 256.634C39.0476 283.269 42.692 310.759 54.3038 335.534C60.3432 348.42 68.6628 359.945 78.3623 368.863C89.1127 378.746 101.014 385.083 113.738 387.697L113.51 388.81Z" fill="#DDDDDD"/>
<path d="M125.29 382.189C115.979 364.017 104.978 346.761 92.4331 330.651C79.8898 314.539 65.8584 299.643 50.5244 286.16L51.2735 285.307C66.6612 298.838 80.7416 313.786 93.3286 329.954C105.917 346.121 116.956 363.437 126.3 381.673L125.29 382.189Z" fill="#DDDDDD"/>
<path d="M85.3101 324.352C74.4166 320.543 63.7527 316.108 53.3717 311.067L53.8689 310.046C64.2099 315.068 74.8328 319.487 85.6843 323.281L85.3101 324.352Z" fill="#DDDDDD"/>
<path d="M105.394 317.841L102.856 343.06L103.986 343.174L106.524 317.954L105.394 317.841Z" fill="#DDDDDD"/>
<path d="M67.5177 388.502C60.8642 388.502 54.0126 386.523 47.5959 382.733C41.231 378.975 35.4515 373.578 30.8821 367.129C27.2353 361.982 23.2821 352.742 19.1326 339.668C16.0489 329.952 14.0036 321.631 13.9843 321.548L13.771 320.677L14.6495 320.857C15.8302 321.099 43.6777 326.886 53.6415 335.825L52.8826 336.67C48.8695 333.07 40.9552 329.388 29.995 326.022C23.3825 323.991 17.4819 322.637 15.3078 322.16C16.6662 327.493 24.048 355.522 31.8076 366.473C36.2855 372.794 41.9444 378.078 48.1726 381.755C54.9415 385.753 62.1967 387.678 69.148 387.325L69.2055 388.459C68.6448 388.487 68.0822 388.502 67.5177 388.502Z" fill="#DDDDDD"/>
<path d="M63.7999 374.248C52.5777 358.645 39.6561 344.338 25.2731 331.589L26.026 330.74C40.4719 343.544 53.4501 357.914 64.7216 373.585L63.7999 374.248Z" fill="#DDDDDD"/>
<path d="M207.107 390.098L206.366 389.238C220.89 376.733 231.063 359.935 235.417 341.27C239.77 322.605 238.079 303.04 230.587 285.399C220.918 287.104 211.537 291.962 203.431 299.466C195.844 306.489 189.564 315.567 185.27 325.719C177.158 344.892 175.608 366.375 174.63 388.541L173.496 388.491C174.479 366.218 176.039 344.623 184.225 325.277C188.583 314.978 194.958 305.765 202.661 298.633C211.053 290.864 220.798 285.875 230.841 284.204L231.28 284.131L231.456 284.539C239.161 302.435 240.954 322.322 236.575 341.307C232.196 360.293 221.873 377.385 207.108 390.098H207.107Z" fill="#DDDDDD"/>
<path d="M189.367 386.085L188.286 385.737C196.271 360.961 207.454 337.332 221.551 315.449L222.505 316.064C208.462 337.864 197.322 361.403 189.367 386.085Z" fill="#DDDDDD"/>
<path d="M206.102 343.618L205.455 342.685C212.662 337.707 220.868 334.362 229.502 332.885L229.692 334.004C221.222 335.453 213.172 338.734 206.102 343.618Z" fill="#DDDDDD"/>
<path d="M469.704 354.478C468.75 354.478 467.817 354.195 467.024 353.665C466.23 353.135 465.612 352.381 465.247 351.5C464.881 350.618 464.786 349.648 464.972 348.712C465.158 347.776 465.618 346.916 466.293 346.242C466.967 345.567 467.827 345.107 468.763 344.921C469.699 344.735 470.669 344.83 471.551 345.196C472.432 345.561 473.186 346.179 473.716 346.973C474.246 347.766 474.529 348.699 474.529 349.653C474.528 350.932 474.019 352.159 473.114 353.063C472.21 353.968 470.983 354.477 469.704 354.478ZM469.704 345.964C468.975 345.964 468.261 346.18 467.654 346.586C467.048 346.991 466.575 347.567 466.295 348.242C466.016 348.916 465.943 349.658 466.085 350.373C466.228 351.089 466.579 351.746 467.095 352.262C467.611 352.779 468.269 353.13 468.984 353.272C469.7 353.415 470.442 353.342 471.116 353.062C471.79 352.783 472.367 352.31 472.772 351.703C473.178 351.097 473.394 350.383 473.394 349.654C473.393 348.675 473.004 347.737 472.312 347.046C471.62 346.354 470.683 345.965 469.704 345.964Z" fill="#DDDDDD"/>
<path d="M659.857 215.979C658.903 215.979 657.97 215.696 657.177 215.166C656.383 214.636 655.765 213.882 655.4 213.001C655.034 212.119 654.939 211.149 655.125 210.213C655.311 209.277 655.771 208.417 656.446 207.743C657.12 207.068 657.98 206.608 658.916 206.422C659.852 206.236 660.822 206.331 661.704 206.697C662.585 207.062 663.339 207.68 663.869 208.474C664.399 209.267 664.682 210.2 664.682 211.154C664.681 212.433 664.172 213.66 663.267 214.564C662.363 215.469 661.136 215.978 659.857 215.979ZM659.857 207.465C659.127 207.465 658.414 207.681 657.807 208.087C657.201 208.492 656.728 209.068 656.448 209.743C656.169 210.417 656.096 211.159 656.238 211.874C656.381 212.59 656.732 213.247 657.248 213.763C657.764 214.28 658.422 214.631 659.137 214.773C659.853 214.916 660.595 214.843 661.269 214.563C661.943 214.284 662.52 213.811 662.925 213.204C663.331 212.598 663.547 211.884 663.547 211.154C663.546 210.176 663.157 209.238 662.465 208.547C661.773 207.855 660.835 207.466 659.857 207.465Z" fill="#DDDDDD"/>
<path d="M723.429 292.323C725.78 292.323 727.686 290.417 727.686 288.066C727.686 285.715 725.78 283.809 723.429 283.809C721.078 283.809 719.172 285.715 719.172 288.066C719.172 290.417 721.078 292.323 723.429 292.323Z" fill="#DDDDDD"/>
<path d="M41.4361 212.857C43.7872 212.857 45.6931 210.951 45.6931 208.6C45.6931 206.249 43.7872 204.343 41.4361 204.343C39.085 204.343 37.1791 206.249 37.1791 208.6C37.1791 210.951 39.085 212.857 41.4361 212.857Z" fill="#DDDDDD"/>
<path d="M4.82488 287.499C3.8706 287.499 2.93775 287.216 2.14429 286.686C1.35084 286.156 0.732424 285.402 0.367249 284.52C0.00207274 283.639 -0.09346 282.669 0.0927301 281.733C0.27892 280.797 0.738471 279.937 1.41327 279.262C2.08807 278.587 2.9478 278.128 3.88375 277.942C4.8197 277.756 5.78983 277.851 6.67146 278.216C7.55308 278.582 8.30661 279.2 8.83674 279.994C9.36688 280.787 9.64981 281.72 9.64975 282.674C9.6483 283.953 9.13949 285.18 8.23496 286.084C7.33042 286.989 6.10404 287.497 4.82488 287.499ZM4.82488 278.985C4.09512 278.985 3.38176 279.201 2.77499 279.606C2.16822 280.012 1.6953 280.588 1.41604 281.262C1.13677 281.936 1.0637 282.678 1.20607 283.394C1.34844 284.11 1.69985 284.767 2.21586 285.283C2.73188 285.799 3.38932 286.151 4.10505 286.293C4.82079 286.435 5.56266 286.362 6.23687 286.083C6.91107 285.804 7.48732 285.331 7.89275 284.724C8.29818 284.117 8.51458 283.404 8.51458 282.674C8.51347 281.696 8.12438 280.758 7.43267 280.066C6.74095 279.375 5.80311 278.986 4.82488 278.985Z" fill="#DDDDDD"/>
<path d="M267.348 343.41C266.394 343.41 265.461 343.127 264.668 342.596C263.874 342.066 263.256 341.313 262.891 340.431C262.526 339.549 262.43 338.579 262.616 337.643C262.802 336.707 263.262 335.848 263.937 335.173C264.611 334.498 265.471 334.039 266.407 333.852C267.343 333.666 268.313 333.762 269.195 334.127C270.076 334.492 270.83 335.111 271.36 335.904C271.89 336.698 272.173 337.63 272.173 338.585C272.172 339.864 271.663 341.09 270.758 341.995C269.854 342.899 268.628 343.408 267.348 343.41ZM267.348 334.895C266.619 334.895 265.905 335.112 265.298 335.517C264.692 335.922 264.219 336.499 263.939 337.173C263.66 337.847 263.587 338.589 263.73 339.305C263.872 340.02 264.223 340.678 264.739 341.194C265.255 341.71 265.913 342.061 266.628 342.204C267.344 342.346 268.086 342.273 268.76 341.994C269.434 341.714 270.011 341.242 270.416 340.635C270.822 340.028 271.038 339.315 271.038 338.585C271.037 337.607 270.648 336.669 269.956 335.977C269.264 335.285 268.327 334.896 267.348 334.895Z" fill="#DDDDDD"/>
<path d="M89.5894 83.3455C89.5894 74.1501 76.8827 66.6956 61.2085 66.6956C45.5344 66.6956 32.8276 74.1498 32.8276 83.3455C32.8276 92.5413 45.5346 99.9955 61.2093 99.9955C64.4827 100.003 67.7477 99.6654 70.9504 98.9886C73.0737 101.544 76.7492 103.826 82.9461 105.142C81.4425 102.279 80.2148 99.2798 79.2797 96.1844C85.5763 93.1306 89.5894 88.513 89.5894 83.3455Z" fill="white"/>
<path d="M84.5774 106.359L82.7684 105.974C77.2792 104.808 73.2001 102.774 70.6335 99.9239C67.5306 100.544 64.3736 100.853 61.2093 100.847C53.4793 100.847 46.1993 99.0731 40.7103 95.8529C35.0784 92.5489 31.9769 88.1071 31.9769 83.3445C31.9769 78.5819 35.0784 74.1407 40.7103 70.8362C46.1993 67.6175 53.4803 65.8425 61.2093 65.8425C68.9383 65.8425 76.2194 67.6162 81.7084 70.8362C87.34 74.1402 90.4417 78.5819 90.4417 83.3445C90.4417 88.4947 86.7573 93.3057 80.3018 96.6249C81.1974 99.4202 82.3323 102.133 83.6938 104.734L84.5774 106.359ZM71.2749 98.0479L71.6043 98.4441C73.6342 100.887 76.911 102.714 81.3603 103.89C80.1981 101.481 79.2288 98.9842 78.4614 96.422L78.2605 95.7317L78.9073 95.4177C85.155 92.3882 88.7382 87.9878 88.7382 83.3453C88.7382 74.634 76.3887 67.5469 61.2093 67.5469C46.03 67.5469 33.6805 74.634 33.6805 83.3453C33.6805 92.0567 46.0303 99.1441 61.2093 99.1441C64.4225 99.1518 67.6274 98.8208 70.7712 98.1565L71.2749 98.0479Z" fill="#93B7FF"/>
<path d="M77.1962 79.1831H44.8419V80.3183H77.1962V79.1831Z" fill="#93B7FF"/>
<path d="M68.6819 85.4265H44.8419V86.5617H68.6819V85.4265Z" fill="#93B7FF"/>
<path d="M629.867 64.0462C629.867 54.8508 642.574 47.3962 658.248 47.3962C673.922 47.3962 686.629 54.8508 686.629 64.0462C686.629 73.2417 673.922 80.6965 658.248 80.6965C654.975 80.7038 651.71 80.3663 648.507 79.6895C646.383 82.2446 642.708 84.5264 636.511 85.8427C638.015 82.98 639.243 79.9807 640.179 76.8853C633.88 73.8315 629.867 69.2147 629.867 64.0462Z" fill="white"/>
<path d="M634.879 87.06L635.763 85.4355C637.125 82.8351 638.26 80.1223 639.156 77.327C632.7 74.0078 629.016 69.1968 629.016 64.0467C629.016 59.2841 632.117 54.8428 637.749 51.5383C643.238 48.3181 650.519 46.5447 658.248 46.5447C665.977 46.5447 673.258 48.3181 678.747 51.5383C684.379 54.8423 687.48 59.2841 687.48 64.0467C687.48 68.8093 684.379 73.2505 678.747 76.555C673.258 79.7753 665.977 81.5487 658.248 81.5487C655.083 81.5551 651.926 81.246 648.823 80.626C646.256 83.4763 642.176 85.5106 636.688 86.6764L634.879 87.06ZM658.247 48.2477C643.067 48.2477 630.718 55.3351 630.718 64.0464C630.718 68.6892 634.301 73.0896 640.549 76.1196L641.195 76.4336L640.995 77.1239C640.227 79.686 639.258 82.1832 638.096 84.5921C642.544 83.4163 645.822 81.5885 647.851 79.146L648.181 78.7495L648.685 78.8578C651.829 79.5221 655.034 79.8533 658.248 79.8457C673.427 79.8457 685.776 72.7586 685.776 64.0469C685.776 55.3353 673.428 48.2477 658.248 48.2477H658.247Z" fill="#93B7FF"/>
<path d="M674.614 59.8838H642.26V61.019H674.614V59.8838Z" fill="#93B7FF"/>
<path d="M666.1 66.1277H642.26V67.2629H666.1V66.1277Z" fill="#93B7FF"/>
<path d="M410.964 277.849H312.198V389.102H410.964V277.849Z" fill="#BDD3FF"/>
<path d="M411.815 389.954H311.347V276.998H411.815V389.954ZM313.05 388.251H410.112V278.701H313.05V388.251Z" fill="#93B7FF"/>
<path opacity="0.2" d="M410.964 277.849H312.198V325.262H410.964V277.849Z" fill="#002878"/>
<path d="M380.178 332.963C390.449 322.692 390.449 306.04 380.178 295.769C369.907 285.499 353.255 285.499 342.985 295.769C332.714 306.04 332.714 322.692 342.985 332.963C353.255 343.233 369.907 343.233 380.178 332.963Z" fill="white"/>
<path d="M565.517 0.851562H157.645C152.827 0.851562 148.921 4.75716 148.921 9.57496V299.471C148.921 304.289 152.827 308.195 157.645 308.195H565.517C570.335 308.195 574.24 304.289 574.24 299.471V9.57496C574.24 4.75716 570.335 0.851562 565.517 0.851562Z" fill="#BDD3FF"/>
<path d="M564.78 309.045H158.383C155.648 309.042 153.027 307.955 151.094 306.022C149.161 304.088 148.073 301.467 148.07 298.733V10.3126C148.073 7.57848 149.161 4.95724 151.094 3.02393C153.027 1.09062 155.648 0.00311667 158.383 0H564.78C567.514 0.0031168 570.135 1.09063 572.068 3.02395C574.001 4.95727 575.089 7.5785 575.092 10.3126V298.734C575.089 301.468 574.001 304.089 572.068 306.022C570.135 307.955 567.514 309.042 564.78 309.045ZM158.383 1.70276C156.1 1.70546 153.912 2.61337 152.298 4.22735C150.684 5.84132 149.776 8.02957 149.773 10.3121V298.734C149.776 301.016 150.684 303.204 152.298 304.818C153.912 306.432 156.1 307.34 158.383 307.343H564.78C567.062 307.34 569.25 306.432 570.864 304.818C572.478 303.204 573.386 301.016 573.389 298.734V10.3126C573.386 8.03009 572.478 5.84185 570.864 4.22787C569.25 2.6139 567.062 1.70598 564.78 1.70328L158.383 1.70276Z" fill="#93B7FF"/>
<path d="M566.519 11.6895H156.643V264.085H566.519V11.6895Z" fill="white"/>
<path d="M567.371 264.936H155.791V10.8381H567.371V264.936ZM157.494 263.233H565.668V12.5409H157.494V263.233Z" fill="#93B7FF"/>
<path d="M404.304 33.7771H311.596V44.6144H404.304V33.7771Z" fill="#BDD3FF"/>
<path d="M478.143 55.1965H237.757V59.2505H478.143V55.1965Z" fill="#BDD3FF"/>
<path d="M524.385 176.489H431.638V180.543H524.385V176.489Z" fill="#93B7FF"/>
<path d="M511.501 186.56H431.638V190.614H511.501V186.56Z" fill="#93B7FF"/>
<path d="M482.011 196.631H431.638V200.685H482.011V196.631Z" fill="#93B7FF"/>
<path d="M513.215 215.379H431.638V219.433H513.215V215.379Z" fill="#BDD3FF"/>
<path d="M501.883 225.45H431.638V229.504H501.883V225.45Z" fill="#BDD3FF"/>
<path d="M231.164 166.548H191.797V228.255H231.164V166.548Z" fill="#BDD3FF"/>
<path d="M285.409 166.452H241.156V186.835H285.409V166.452Z" fill="#93B7FF"/>
<path d="M285.409 196.769H241.156V228.342H285.409V196.769Z" fill="#BDD3FF"/>
<path d="M398.92 228.785H316.98C315.301 228.783 313.692 228.116 312.505 226.929C311.318 225.742 310.651 224.133 310.649 222.455V181.299C310.651 179.62 311.318 178.011 312.505 176.824C313.692 175.638 315.301 174.97 316.98 174.968H398.92C400.599 174.97 402.208 175.638 403.395 176.824C404.582 178.011 405.249 179.62 405.251 181.299V222.455C405.249 224.133 404.581 225.742 403.395 226.929C402.208 228.116 400.599 228.783 398.92 228.785ZM316.98 175.958C315.564 175.96 314.206 176.523 313.205 177.525C312.204 178.526 311.641 179.883 311.64 181.299V222.455C311.641 223.871 312.204 225.228 313.205 226.229C314.207 227.23 315.564 227.793 316.98 227.795H398.92C400.336 227.793 401.693 227.23 402.695 226.229C403.696 225.228 404.259 223.871 404.261 222.455V181.299C404.259 179.883 403.696 178.526 402.695 177.525C401.694 176.523 400.336 175.96 398.92 175.958H316.98Z" fill="#93B7FF"/>
<path d="M320.496 217.375L319.609 216.932L325.208 205.736L332.126 212.984L340.364 195.19L351.411 205.568L363.564 193.413L375.445 200.674L390.688 184.781L391.404 185.467L375.608 201.934L363.713 194.665L351.432 206.946L340.686 196.851L332.413 214.719L325.463 207.438L320.496 217.375Z" fill="#3976EE"/>
<path d="M371.564 215.09H362.153V220.043H371.564V215.09Z" fill="#93B7FF"/>
<path d="M394.1 217.071H377.755V218.062H394.1V217.071Z" fill="#3976EE"/>
<path d="M394.889 108.763C393.245 102.676 390.124 97.0882 385.803 92.4961C381.482 87.904 376.095 84.4491 370.119 82.4377L357.95 118.701L394.889 108.763Z" fill="#BDD3FF"/>
<path d="M357.95 118.703L341.019 153.004C347.616 156.259 355.012 157.543 362.321 156.702C369.629 155.86 376.54 152.93 382.225 148.261C387.91 143.592 392.129 137.383 394.375 130.377C396.621 123.372 396.8 115.867 394.889 108.763L357.95 118.703Z" fill="#93B7FF"/>
<path d="M370.119 82.4394C360.924 79.3547 350.9 79.8781 342.076 83.9035C333.252 87.9289 326.287 95.1558 322.59 104.122C318.892 113.088 318.739 123.124 322.16 132.199C325.582 141.274 332.323 148.711 341.02 153.004L357.95 118.703L370.119 82.4394Z" fill="#3976EE"/>
<path d="M265.543 145.562H211.663V149.615H265.543V145.562Z" fill="#BDD3FF"/>
<path d="M285.904 136.689H191.302V81.9976H285.904V136.689ZM192.292 135.698H284.914V82.9888H192.292V135.698Z" fill="#93B7FF"/>
<path d="M278.973 93.9375C275.833 93.3074 272.723 95.3521 270.737 97.8726C269.82 99.0866 268.991 100.364 268.255 101.696C267.444 103.178 266.54 104.608 265.548 105.977C263.601 108.528 260.58 110.661 257.415 110.179C252.281 109.397 249.473 102.35 244.282 102.441C241.857 102.483 239.78 104.161 238.127 105.943C236.475 107.725 234.967 109.749 232.816 110.874C229.811 112.447 226.1 111.937 222.983 110.598C219.867 109.259 217.134 107.175 214.171 105.522C209.177 102.771 203.592 101.267 197.892 101.139V127.891H279.314V94.0267C279.2 93.9961 279.09 93.961 278.973 93.9375Z" fill="#BDD3FF"/>
<path d="M222.983 110.598C226.1 111.937 229.811 112.447 232.816 110.874C234.967 109.749 236.475 107.725 238.127 105.943C239.78 104.161 241.857 102.483 244.282 102.441C249.473 102.35 252.281 109.397 257.415 110.179C260.581 110.661 263.601 108.528 265.548 105.977C266.54 104.608 267.444 103.178 268.255 101.696C265.1 101.84 261.946 101.997 259.214 100.539C256.496 99.0887 254.713 96.2607 252.003 94.795C247.138 92.1638 241.188 94.6738 236.342 97.3383C233.445 98.9311 230.214 100.641 227.005 99.8562C223.376 98.9665 221.249 95.2702 218.226 93.0655C212.439 88.8444 203.746 90.8936 198.799 96.0812L198.79 96.0911C198.213 96.6926 197.892 97.4937 197.892 98.3269V101.138C203.592 101.266 209.177 102.77 214.171 105.521C217.134 107.175 219.867 109.26 222.983 110.598Z" fill="#93B7FF"/>
<path d="M524.856 158.59H430.109V81.926H524.856V158.59ZM431.244 157.455H523.721V83.0612H431.244V157.455Z" fill="#93B7FF"/>
<path d="M455.689 113.862H445.783V147.213H455.689V113.862Z" fill="#93B7FF"/>
<path d="M455.689 97.0222H445.783V113.862H455.689V97.0222Z" fill="#BDD3FF"/>
<path d="M473.52 97.0222H463.614V122.035H473.52V97.0222Z" fill="#BDD3FF"/>
<path d="M473.52 122.034H463.614V147.212H473.52V122.034Z" fill="#93B7FF"/>
<path d="M491.351 108.042H481.445V147.212H491.351V108.042Z" fill="#93B7FF"/>
<path d="M491.351 97.0222H481.445V108.043H491.351V97.0222Z" fill="#BDD3FF"/>
<path d="M509.181 122.654H499.276V147.213H509.181V122.654Z" fill="#93B7FF"/>
<path d="M509.181 97.0222H499.276V122.654H509.181V97.0222Z" fill="#BDD3FF"/>
<path d="M166.501 389.102L147.959 369.803L147.999 355.563L125.477 356.233L127.335 389.102L166.501 389.102Z" fill="#0D0D0D"/>
<path d="M148.148 302.067L122.606 305.473L123.614 323.29L148.091 322.696L148.148 302.067Z" fill="#FFCEB7"/>
<path d="M148.091 322.696L123.613 323.29L125.477 356.233L147.999 355.563L148.091 322.696Z" fill="#FFCEB7"/>
<path d="M147.476 368.776L137.826 373.317L138.793 375.371L148.442 370.83L147.476 368.776Z" fill="white"/>
<path d="M202.072 296.202L177.474 295.256L174.245 314.077L197.808 317.519L202.072 296.202Z" fill="#FFCEB7"/>
<path d="M207.559 369.992L192.423 344.451L194.38 334.664C187.705 333.134 177.4 330.78 171.602 329.486L166.501 359.208L207.559 369.992Z" fill="#0D0D0D"/>
<path d="M197.809 317.519L174.246 314.077L171.603 329.486C177.402 330.779 187.707 333.134 194.381 334.663L197.809 317.519Z" fill="#FFCEB7"/>
<path d="M192.061 343.373L182.506 346.59L183.23 348.742L192.785 345.525L192.061 343.373Z" fill="white"/>
<path d="M218.533 299.044C218.533 299.044 208.316 311.906 189.392 307.74C170.479 303.585 173.885 314.551 163.281 316.821C152.69 319.092 123.173 300.554 113.331 317.957C113.331 317.957 107.473 252.056 110.141 210.348C110.868 199.086 112.208 189.584 114.466 183.624L159.751 183L169.718 182.864C169.718 182.864 169.752 183.079 169.832 183.511C170.002 184.407 170.342 186.235 170.91 188.846C174.611 206.021 187.598 256.96 218.533 299.044Z" fill="#FF5970"/>
<path d="M170.91 188.846C160.783 195.533 139.668 207.021 110.141 210.348C110.868 199.086 112.208 189.584 114.466 183.624L159.751 183L169.832 183.511C170.002 184.406 170.342 186.235 170.91 188.846Z" fill="#FF5970"/>
<path d="M120.826 245.198L131.738 208.175L82.1926 193.571L71.2799 230.594L120.826 245.198Z" fill="white"/>
<path d="M121.209 245.901L70.5742 230.977L81.8081 192.865L132.443 207.79L121.209 245.901ZM71.9849 230.209L120.441 244.492L131.034 208.56L82.577 194.277L71.9849 230.209Z" fill="#93B7FF"/>
<path d="M122.027 211.008L118.777 222.033L119.866 222.354L123.116 211.329L122.027 211.008Z" fill="#93B7FF"/>
<path d="M115.229 209.008L107.398 235.544L108.487 235.865L116.317 209.329L115.229 209.008Z" fill="#93B7FF"/>
<path d="M108.423 207.002L100.593 233.539L101.681 233.86L109.512 207.323L108.423 207.002Z" fill="#93B7FF"/>
<path d="M101.617 204.995L93.7863 231.532L94.8749 231.853L102.706 205.317L101.617 204.995Z" fill="#93B7FF"/>
<path d="M94.81 202.988L88.8264 223.265L89.915 223.586L95.8986 203.309L94.81 202.988Z" fill="#93B7FF"/>
<path d="M198.358 115.887C198.358 115.887 199.758 102.398 201.017 102.626C202.277 102.855 202.138 106.15 202.138 106.15C202.138 106.15 205.082 98.6274 206.45 98.6355C207.818 98.6436 206.421 101.711 206.421 101.711C206.421 101.711 207.941 98.6352 209.077 98.8723C210.212 99.1094 209.28 101.719 209.28 101.719C209.28 101.719 210.467 99.1971 211.617 99.6448C212.768 100.093 212.045 102.157 212.045 102.157C212.045 102.157 212.673 100.522 213.746 101.612C214.819 102.701 209.316 118.496 209.316 118.496L201.561 120.71L198.358 115.887Z" fill="#FFCEB7"/>
<path d="M209.353 118.541C209.353 118.541 202.587 146.366 185.524 154.494C181.262 156.553 176.458 157.212 171.799 156.378L168.745 150.94L148.72 115.317L155.713 112.865C155.713 112.865 171.424 118.723 179.939 131.778C179.939 131.778 187.885 131.029 198.477 115.135L209.353 118.541Z" fill="#3976EE"/>
<path d="M185.524 154.494C181.262 156.553 176.458 157.212 171.799 156.378L168.745 150.94L169.529 137.647C169.529 137.647 181.108 144.22 185.524 154.494Z" fill="#0D0D0D"/>
<path d="M115.037 208.174C115.037 208.174 113.506 221.274 112.166 221.051C110.826 220.829 110.988 217.532 110.988 217.532C110.988 217.532 107.818 225.071 106.362 225.068C104.905 225.066 106.407 221.991 106.407 221.991C106.407 221.991 104.773 225.075 103.565 224.844C102.357 224.612 103.362 221.997 103.362 221.997C103.362 221.997 102.086 224.525 100.862 224.082C99.6391 223.64 100.418 221.57 100.418 221.57C100.418 221.57 99.7398 223.208 98.6031 222.123C97.4663 221.039 103.4 205.213 103.4 205.213L111.669 202.962L115.037 208.174Z" fill="#FFCEB7"/>
<path d="M142.188 113.145C108.604 117.213 98.7185 163.758 102.55 207.465L115.037 208.221C115.037 208.221 117.119 165.461 134.336 145.025L148.715 115.321L142.188 113.145Z" fill="#3976EE"/>
<path d="M148.716 115.321L171.988 131.025C171.988 131.025 178.421 161.109 178.042 187.787C178.042 187.787 133.012 204.437 110.686 187.03L128.282 129.89L148.716 115.321Z" fill="#3976EE"/>
<path d="M162.075 88.1224C164.231 80.6014 156.663 71.8035 142.188 79.2776C142.188 79.2776 127.809 81.7374 130.363 106.713L145.499 107.28L162.075 88.1224Z" fill="#0D0D0D"/>
<path d="M145.215 78.7571C147.194 70.8101 138.56 69.5383 137.121 74.4132C136.929 75.0632 132.722 72.7431 131.545 76.5328C130.196 80.8767 134.884 83.768 140.179 82.6786L145.215 78.7571Z" fill="#0D0D0D"/>
<path d="M155.713 97.914V112.865L149.187 122.038L142.193 113.149L142.568 97.6309L155.713 97.914Z" fill="#FFCEB7"/>
<path d="M155.713 103.024V112.616C151.036 110.584 149.026 104.443 149.026 104.443L155.713 103.024Z" fill="#0D0D0D"/>
<path d="M162.075 88.1226C162.075 88.1226 166.724 112.672 149.031 104.442L143.22 97.7721L146.836 84.2914L156.135 82.0208L162.075 88.1226Z" fill="#FFCEB7"/>
<path d="M162.075 88.1222C162.075 88.1222 158.365 82.3514 153.73 85.1422C149.095 87.933 149.331 97.7244 144.506 95.2648C139.681 92.8053 142.472 85.2369 142.472 85.2369L149.567 79.8445L157.514 80.7434L162.075 88.1222Z" fill="#0D0D0D"/>
<path d="M145.192 99.4817C146.798 98.5543 147.243 96.3169 146.185 94.4844C145.127 92.6518 142.967 91.918 141.361 92.8455C139.754 93.7729 139.31 96.0102 140.368 97.8428C141.426 99.6753 143.586 100.409 145.192 99.4817Z" fill="#FFCEB7"/>
<path d="M149.284 132.35C150.538 132.35 151.555 131.333 151.555 130.079C151.555 128.825 150.538 127.808 149.284 127.808C148.03 127.808 147.013 128.825 147.013 130.079C147.013 131.333 148.03 132.35 149.284 132.35Z" fill="#0D0D0D"/>
<path d="M116.919 190.828L115.805 190.611C115.821 190.527 117.474 182.103 120.252 172.679C124 159.966 127.905 151.576 131.86 147.741L132.65 148.556C123.518 157.411 116.984 190.495 116.919 190.828Z" fill="#0D0D0D"/>
<path d="M112.71 164.022C110.625 162.458 105.742 162.62 105.693 162.621L105.651 161.487C105.868 161.479 110.989 161.311 113.392 163.113L112.71 164.022Z" fill="#0D0D0D"/>
<path d="M605.27 354.478L604.892 376.047L599.972 389.103H626.65L625.136 353.91L605.27 354.478Z" fill="#0D0D0D"/>
<path d="M566.01 356.748V374.628L545.008 389.102H587.296L584.741 354.761L566.01 356.748Z" fill="#0D0D0D"/>
<path d="M566.698 373.725L565.322 375.531L571.661 380.356L573.036 378.55L566.698 373.725Z" fill="white"/>
<path d="M601.483 181.354L601.369 181.786L597.601 196.646L589.382 229.034C588.199 234.507 587.316 240.04 586.737 245.608C582.729 282.47 587.906 329.582 590.596 349.903C590.762 351.159 590.657 352.436 590.288 353.649C589.92 354.862 589.297 355.982 588.461 356.934C587.625 357.887 586.594 358.649 585.439 359.171C584.285 359.693 583.031 359.962 581.764 359.961H566.813C565.127 359.958 563.476 359.479 562.05 358.579C560.624 357.68 559.482 356.396 558.753 354.875C539.693 314.96 542.791 255.349 546.618 240.761C552.669 217.681 556.835 183.25 556.835 183.25L569.538 182.705L601.483 181.354Z" fill="#3976EE"/>
<path d="M630.102 349.539C630.043 352.006 629.023 354.352 627.258 356.077C625.493 357.801 623.124 358.767 620.656 358.769H607.851C605.561 358.77 603.349 357.937 601.628 356.427C599.907 354.917 598.794 352.832 598.497 350.561C596.056 331.943 590.107 285.036 586.736 245.608C584.976 224.924 583.932 206.307 584.477 194.909C584.669 190.583 585.101 187.303 585.816 185.339L601.369 181.786L617.205 178.174C617.205 178.174 621.133 182.364 624.743 204.671C628.501 227.944 631.895 270.958 630.102 349.539Z" fill="#3976EE"/>
<path d="M585.121 277.12C584.419 262.582 584.866 250.187 586.487 239.226C587.024 235.671 588.897 232.456 591.724 230.236L602.363 221.779L603.07 222.669L592.431 231.126C589.83 233.167 588.106 236.124 587.61 239.393C586 250.279 585.556 262.604 586.255 277.067L585.121 277.12Z" fill="#0D0D0D"/>
<path d="M553.214 281.818L553.074 280.693C560.202 279.808 566.312 279.684 571.752 280.314L571.621 281.441C566.273 280.822 560.252 280.945 553.214 281.818Z" fill="#0D0D0D"/>
<path d="M604.3 279.169L604.16 278.044C611.289 277.159 617.398 277.035 622.837 277.665L622.706 278.793C617.36 278.172 611.338 278.296 604.3 279.169Z" fill="#0D0D0D"/>
<path d="M572.953 346.473C563.244 346.473 556.051 344.744 555.941 344.717L556.212 343.615C556.378 343.655 572.899 347.621 589.601 343.391L589.88 344.492C583.986 345.984 578.113 346.473 572.953 346.473Z" fill="#0D0D0D"/>
<path d="M612.948 346.538C611.414 346.538 609.962 346.492 608.64 346.423C604.915 346.235 601.205 345.814 597.533 345.163L597.75 344.049C597.937 344.085 616.616 347.64 629.047 343.044L629.44 344.108C624.292 346.012 618.153 346.538 612.948 346.538Z" fill="#0D0D0D"/>
<path d="M624.743 204.672C617.512 200.812 607.533 198.292 597.6 196.646C593.138 195.896 588.677 195.34 584.477 194.909C571.183 193.558 560.523 193.558 560.523 193.558L569.537 182.705L601.483 181.354L601.369 181.786L617.205 178.174C617.205 178.174 621.133 182.366 624.743 204.672Z" fill="#002878"/>
<path d="M581.888 95.9167H568.754V117.838H581.888V95.9167Z" fill="#FFCEB7"/>
<path d="M574.906 105.033C573.788 108.315 571.627 111.141 568.754 113.082V103.512L574.906 105.033Z" fill="#0D0D0D"/>
<path d="M561.98 84.73L561.057 93.9571C561.057 93.9571 556.76 99.724 559.443 99.724C562.326 99.724 561.865 100.878 561.865 100.878C561.865 100.878 560.25 112.873 574.898 105.03L578.012 87.0367L561.98 84.73Z" fill="#FFCEB7"/>
<path d="M561.98 84.7299C561.98 84.7299 565.959 84.211 566.997 88.4196C568.036 92.6282 569.42 95.2233 572.938 92.2836L576.801 85.9399L570.169 83.1719L561.98 84.7299Z" fill="#0D0D0D"/>
<path d="M561.98 84.7299C561.98 81.7313 565.536 74.5798 576.743 76.4833C587.455 78.3025 589.142 93.3227 583.606 100.185C583.606 100.185 580.78 104.626 576.974 96.4956L570.458 87.7293L569.074 84.9612L561.98 84.7299Z" fill="#0D0D0D"/>
<path d="M577.564 95.9466C576.505 97.781 574.35 98.5192 572.749 97.5952C571.149 96.6712 570.711 94.4359 571.77 92.6015C572.829 90.7671 574.984 90.0292 576.585 90.9529C578.186 91.8766 578.623 94.1124 577.564 95.9466Z" fill="#FFCEB7"/>
<path d="M602.432 113.051C627.596 121.187 647.463 155.244 624.191 155.812C600.918 156.379 586.728 134.81 586.728 134.81L602.432 113.051Z" fill="#F9D056"/>
<path d="M491.081 139.028C491.081 139.028 478.649 133.611 478.228 134.818C477.807 136.026 480.744 137.528 480.744 137.528C480.744 137.528 472.747 136.389 472.081 137.584C471.415 138.779 474.773 139.072 474.773 139.072C474.773 139.072 471.347 138.883 470.995 139.988C470.642 141.093 473.373 141.566 473.373 141.566C473.373 141.566 470.593 141.358 470.416 142.58C470.239 143.802 472.393 144.189 472.393 144.189C472.393 144.189 470.661 143.932 471.082 145.402C471.503 146.871 487.96 149.852 487.96 149.852L493.703 144.189L491.081 139.028Z" fill="#FFCEB7"/>
<path d="M615.355 189.006L559.172 195.136C558.057 195.258 556.929 195.138 555.864 194.786C554.799 194.434 553.822 193.858 552.998 193.096C552.175 192.334 551.525 191.405 551.092 190.37C550.659 189.335 550.453 188.22 550.488 187.099L551.192 163.917L551.521 153.234L551.532 152.973C551.147 153.412 550.738 153.828 550.306 154.221C550.306 154.233 550.295 154.233 550.283 154.244C549.75 154.733 549.046 155.334 548.172 155.993C540.714 161.623 520.824 171.296 487.959 149.851L491.081 139.032L526.557 140.485C526.557 140.485 542.462 127.634 556.584 118.814C565.813 113.046 576.496 109.857 587.371 110.142C592.287 110.267 597.566 111.05 602.436 113.048C614.413 117.998 620.35 162.181 622.303 180.379C622.413 181.401 622.321 182.436 622.032 183.423C621.742 184.41 621.261 185.33 620.616 186.132C619.971 186.933 619.174 187.599 618.272 188.092C617.369 188.585 616.378 188.896 615.355 189.006Z" fill="#F9D056"/>
<path d="M522.64 150.927C521.612 143.878 526.014 140.198 526.202 140.046L526.92 140.925C526.135 141.643 525.478 142.491 524.98 143.431C523.783 145.617 523.373 148.083 523.764 150.763L522.64 150.927Z" fill="#F9D056"/>
<path d="M556.55 149.002C556.55 149.002 556.198 158.152 551.192 163.918L551.521 153.235C553.394 151.714 555.539 149.931 556.55 149.002Z" fill="#F9D056"/>
<path d="M539.917 161.193L539.694 160.08C547.91 158.437 558.975 144.67 559.086 144.531L559.974 145.239C557.876 147.797 555.633 150.232 553.254 152.531C548.043 157.551 543.556 160.465 539.917 161.193Z" fill="#F9D056"/>
<path d="M720.591 388.251H11.0688V389.953H720.591V388.251Z" fill="#0D0D0D"/>
</svg>
