<?xml version="1.0" encoding="UTF-8"?>
<svg id="Layer_2" data-name="Layer 2" xmlns="http://www.w3.org/2000/svg" viewBox="0 0 2744.51 1830">
  <defs>
    <style>
      .cls-1 {
        fill: #fff;
      }

      .cls-2 {
        fill: #5479f7;
      }

      .cls-3 {
        fill: #e2eaff;
      }
    </style>
  </defs>
  <g id="Illustration">
    <g id="E-commerce_development" data-name="E-commerce development">
      <g>
        <g>
          <g>
            <rect class="cls-1" x="794.49" y="2.2" width="820.43" height="1494.74" rx="78.53" ry="78.53" transform="translate(2409.41 1499.15) rotate(180)"/>
            <path d="m1536.39,1499.15h-663.37c-44.52,0-80.73-36.22-80.73-80.73V80.73c0-44.52,36.22-80.73,80.73-80.73h663.37c44.52,0,80.73,36.22,80.73,80.73v1337.69c0,44.52-36.22,80.73-80.73,80.73ZM873.02,4.41c-42.09,0-76.32,34.24-76.32,76.32v1337.69c0,42.09,34.24,76.32,76.32,76.32h663.37c42.09,0,76.32-34.24,76.32-76.32V80.73c0-42.09-34.24-76.32-76.32-76.32h-663.37Z"/>
          </g>
          <g>
            <rect class="cls-1" x="834.74" y="45.53" width="739.93" height="1403.96" rx="59.51" ry="59.51" transform="translate(2409.41 1495.03) rotate(180)"/>
            <path d="m1515.16,1451.7h-620.92c-34.03,0-61.71-27.68-61.71-61.71V105.04c0-34.03,27.68-61.71,61.71-61.71h620.92c34.03,0,61.71,27.68,61.71,61.71v1284.95c0,34.03-27.68,61.71-61.71,61.71ZM894.25,47.74c-31.6,0-57.3,25.71-57.3,57.3v1284.95c0,31.6,25.71,57.3,57.3,57.3h620.92c31.6,0,57.3-25.71,57.3-57.3V105.04c0-31.6-25.71-57.3-57.3-57.3h-620.92Z"/>
          </g>
          <path d="m1281.59,90.03h-163.05c-1.22,0-2.2-.99-2.2-2.2s.99-2.2,2.2-2.2h163.05c1.22,0,2.2.99,2.2,2.2s-.99,2.2-2.2,2.2Z"/>
        </g>
        <g>
          <g>
            <rect class="cls-3" x="919.14" y="263.1" width="571.13" height="571.13"/>
            <g>
              <g>
                <path class="cls-1" d="m1389.86,453.25c0-60.21-48.81-109.02-109.02-109.02h-19.11c-5.41,29.16-30.95,51.24-61.67,51.24s-56.27-22.09-61.67-51.24h-19.11c-60.21,0-109.02,48.81-109.02,109.02v88.63h67.45v211.22h244.7v-211.22h67.45v-88.63Z"/>
                <path d="m1322.41,755.3h-244.7c-1.22,0-2.2-.99-2.2-2.2v-209.02h-65.25c-1.22,0-2.2-.99-2.2-2.2v-88.63c0-61.33,49.89-111.22,111.22-111.22h19.11c1.06,0,1.97.76,2.17,1.8,5.31,28.65,30.34,49.44,59.51,49.44s54.2-20.79,59.51-49.44c.19-1.05,1.11-1.8,2.17-1.8h19.11c61.33,0,111.22,49.89,111.22,111.22v88.63c0,1.22-.99,2.2-2.2,2.2h-65.25v209.02c0,1.22-.99,2.2-2.2,2.2Zm-242.5-4.41h240.29v-209.02c0-1.22.99-2.2,2.2-2.2h65.25v-86.42c0-58.9-47.92-106.81-106.81-106.81h-17.3c-6.39,29.8-32.8,51.24-63.48,51.24s-57.09-21.44-63.48-51.24h-17.3c-58.9,0-106.81,47.92-106.81,106.81v86.42h65.25c1.22,0,2.2.99,2.2,2.2v209.02Z"/>
              </g>
              <path d="m1077.47,542.75c-1.22,0-2.2-.99-2.2-2.2v-42.49c0-1.22.99-2.2,2.2-2.2s2.2.99,2.2,2.2v42.49c0,1.22-.99,2.2-2.2,2.2Z"/>
              <path d="m1322.44,544.96c-1.22,0-2.2-.99-2.2-2.2v-44.69c0-1.22.99-2.2,2.2-2.2s2.2.99,2.2,2.2v44.69c0,1.22-.99,2.2-2.2,2.2Z"/>
            </g>
          </g>
          <path d="m1251.44,202.23h-332.3c-1.22,0-2.2-.99-2.2-2.2s.99-2.2,2.2-2.2h332.3c1.22,0,2.2.99,2.2,2.2s-.99,2.2-2.2,2.2Z"/>
          <path d="m1485.86,885.92h-131.6c-1.22,0-2.2-.99-2.2-2.2s.99-2.2,2.2-2.2h131.6c1.22,0,2.2.99,2.2,2.2s-.99,2.2-2.2,2.2Z"/>
        </g>
        <g>
          <path class="cls-3" d="m1492.47,1197.15c0-64.51-52.3-116.81-116.81-116.81h-337.5c-64.51,0-116.81,52.3-116.81,116.81s52.3,116.81,116.81,116.81h337.5c64.51,0,116.81-52.3,116.81-116.81Z"/>
          <g>
            <path d="m1124.46,1196.71c5.14-1.48,9.26-4.21,12.27-8.12,3.5-4.55,5.27-10.33,5.27-17.2,0-9.48-3.19-16.81-9.49-21.8-6.26-4.96-15.58-7.47-27.71-7.47h-30.04v113.21h36.66c11.12,0,19.94-2.83,26.2-8.42,6.28-5.6,9.46-13.34,9.46-23.01,0-6.83-2.43-12.98-7.23-18.27-4.19-4.62-9.36-7.62-15.4-8.92Zm9.43,46.45c-5.29,4.59-12.69,6.91-22.01,6.91h-31.86v-50.1h33.47c8.6.15,15.55,2.5,20.67,6.99,5.09,4.46,7.67,10.22,7.67,17.1,0,8.11-2.67,14.54-7.93,19.1Zm-4.78-54.23c-5.06,3.83-12.72,5.78-22.77,5.78h-26.32v-47.33h25.7c20.82.26,30.95,8.01,30.95,23.7,0,8.04-2.54,14.05-7.56,17.85Z"/>
            <path d="m1241.14,1218.36c0,10.22-3.08,18.4-9.15,24.32-6.08,5.93-14.29,8.93-24.41,8.93s-18.35-3-24.45-8.93c-6.1-5.92-9.19-14.08-9.19-24.24v-76.31h-5.26v76.78c.05,11.75,3.6,21.12,10.56,27.84,6.95,6.72,16.48,10.13,28.33,10.13s21.38-3.41,28.33-10.13c6.96-6.72,10.49-16.2,10.49-28.15v-76.47h-5.26v76.24Z"/>
            <polygon points="1345.94 1142.13 1306.99 1207.35 1268.49 1142.13 1261.66 1142.13 1304.36 1212.36 1304.36 1255.33 1309.62 1255.33 1309.62 1212.36 1352.31 1142.13 1345.94 1142.13"/>
          </g>
          <path d="m1251.44,977.1h-332.3c-1.22,0-2.2-.99-2.2-2.2s.99-2.2,2.2-2.2h332.3c1.22,0,2.2.99,2.2,2.2s-.99,2.2-2.2,2.2Z"/>
        </g>
      </g>
      <g>
        <g>
          <rect class="cls-1" x="339.03" y="377.14" width="357.21" height="716.58" transform="translate(1253.07 217.79) rotate(90)"/>
          <path d="m875.93,916.24H159.35c-1.22,0-2.2-.99-2.2-2.2v-357.21c0-1.22.99-2.2,2.2-2.2h716.58c1.22,0,2.2.99,2.2,2.2v357.21c0,1.22-.99,2.2-2.2,2.2Zm-714.37-4.41h712.17v-352.8H161.55v352.8Z"/>
        </g>
        <g>
          <g>
            <path d="m820.57,821.74H214.71c-1.22,0-2.2-.99-2.2-2.2s.99-2.2,2.2-2.2h605.85c1.22,0,2.2.99,2.2,2.2s-.99,2.2-2.2,2.2Z"/>
            <g>
              <circle class="cls-1" cx="729.3" cy="819.54" r="19.85" transform="translate(-306.94 1179.7) rotate(-67.5)"/>
              <path d="m729.3,841.59c-12.16,0-22.05-9.89-22.05-22.05s9.89-22.05,22.05-22.05,22.05,9.89,22.05,22.05-9.89,22.05-22.05,22.05Zm0-39.69c-9.73,0-17.64,7.91-17.64,17.64s7.91,17.64,17.64,17.64,17.64-7.91,17.64-17.64-7.91-17.64-17.64-17.64Z"/>
            </g>
          </g>
          <g>
            <path d="m820.57,736.09H214.71c-1.22,0-2.2-.99-2.2-2.2s.99-2.2,2.2-2.2h605.85c1.22,0,2.2.99,2.2,2.2s-.99,2.2-2.2,2.2Z"/>
            <g>
              <circle class="cls-1" cx="321.95" cy="733.36" r="19.85"/>
              <path d="m321.95,755.41c-12.16,0-22.05-9.89-22.05-22.05s9.89-22.05,22.05-22.05,22.05,9.89,22.05,22.05-9.89,22.05-22.05,22.05Zm0-39.69c-9.73,0-17.64,7.91-17.64,17.64s7.91,17.64,17.64,17.64,17.64-7.91,17.64-17.64-7.91-17.64-17.64-17.64Z"/>
            </g>
          </g>
          <g>
            <path d="m820.57,650.43H214.71c-1.22,0-2.2-.99-2.2-2.2s.99-2.2,2.2-2.2h605.85c1.22,0,2.2.99,2.2,2.2s-.99,2.2-2.2,2.2Z"/>
            <g>
              <circle class="cls-1" cx="567.82" cy="647.7" r="19.85" transform="translate(-162.48 1104.44) rotate(-80.78)"/>
              <path d="m567.82,669.76c-12.16,0-22.05-9.89-22.05-22.05s9.89-22.05,22.05-22.05,22.05,9.89,22.05,22.05-9.89,22.05-22.05,22.05Zm0-39.69c-9.73,0-17.64,7.91-17.64,17.64s7.91,17.64,17.64,17.64,17.64-7.91,17.64-17.64-7.91-17.64-17.64-17.64Z"/>
            </g>
          </g>
        </g>
      </g>
      <g>
        <g>
          <polygon class="cls-1" points="659.02 1651.4 713.17 1828.07 200.07 1828.07 197.37 1770.3 659.02 1651.4"/>
          <path d="m712.13,1830c-.95,0-1.84-.63-2.12-1.59l-46.4-159.23c-.34-1.17.33-2.39,1.5-2.73,1.17-.34,2.39.33,2.73,1.5l46.4,159.23c.34,1.17-.33,2.39-1.5,2.73-.21.06-.41.09-.62.09Z"/>
        </g>
        <g>
          <g>
            <path d="m526.56,876.04c9.33-14.02,17.02-31.35,11.68-47.33-5.64-16.87-26.91-26.49-43.3-19.6,6.9-12.02,12.5-24.79,16.66-38.01-44.86-1.29-91.01,6.63-129.38,29.92-38.37,23.29-67.91,63.46-71.46,108.2-1.48,18.61,1.79,38.26,12.88,53.28,11.65,15.77,30.53,24.71,49.55,29.46,24.77,6.19,52.08,6.01,74.65-5.93,15.23-8.06,27.66-22.11,33.04-38.56,1.37-4.18,2.27-8.52,2.62-12.9.25-3.16-1.35-8.99-.14-11.78,1.45-3.31,7.61-6.6,10.33-9.01,3.87-3.43,7.6-7.02,11.19-10.75,8.01-8.33,15.27-17.37,21.68-27Z"/>
            <path d="m485.14,878.02c-.56,0-1.12-.21-1.55-.64-.86-.86-.87-2.25-.01-3.12,9.36-9.44,16.28-21.17,20.03-33.93.34-1.17,1.57-1.84,2.74-1.49,1.17.34,1.84,1.57,1.49,2.74-3.95,13.45-11.25,25.83-21.12,35.79-.43.43-1,.65-1.57.65Z"/>
          </g>
          <path class="cls-1" d="m481.02,1120.12l-25.1-2.73,6.62-85.69s-20.85-104.43-101.17-26.45l-14.71,116.34-23.62,2.97s9.57,54.26,76.98,54.12c57.26-.13,82-19.45,80.99-58.56Z"/>
          <path d="m332.61,1125.56c-1.09,0-2.04-.81-2.18-1.93-.15-1.21.7-2.31,1.91-2.46l12.35-1.55,14.5-114.64c.06-.5.29-.96.65-1.3,25-24.28,47.08-33.66,65.61-27.9,29.7,9.24,38.88,53.61,39.26,55.5.04.2.05.4.04.6l-6.45,83.56,12.67,1.38c1.21.13,2.08,1.22,1.95,2.43-.13,1.21-1.21,2.07-2.43,1.95l-14.79-1.61c-1.18-.13-2.05-1.17-1.96-2.36l6.59-85.37c-.83-3.79-10.15-43.78-36.19-51.87-16.73-5.2-37.15,3.66-60.66,26.32l-14.61,115.57c-.13,1-.91,1.78-1.91,1.91l-14.04,1.77c-.09.01-.19.02-.28.02Z"/>
          <g>
            <path class="cls-1" d="m398.55,1009.25c12.03,10.32,26.36,18.3,41.93,21.25,15.57,2.95,32.43.55,45.64-8.22,22.1-14.66,30.12-44.41,26.21-70.65s-17.54-49.87-31.1-72.66c0,0-51.74,39.66-99.27,46.06-6.05,15.42-6.75,30.47-3.25,45.23,0,0-10.56-9.59-20.25-3.26-10.48,6.84-14.7,21.59-9.65,33.03,5.05,11.45,18.15,18.48,30.6,17.25,7.03-.69,13.49-2.06,19.15-8.04Z"/>
            <path d="m453.22,1033.91c-4.35,0-8.76-.41-13.15-1.24-14.21-2.69-28.49-9.75-41.41-20.44-6.1,5.54-12.99,6.66-19.04,7.26-13.69,1.35-27.49-6.45-32.83-18.55-5.47-12.39-.77-28.44,10.46-35.77,6.8-4.44,13.77-2.23,18.22.21-2.32-13.9-.83-27.71,4.43-41.13.29-.74.97-1.27,1.76-1.38,46.41-6.25,97.71-45.23,98.22-45.63.5-.38,1.13-.54,1.76-.42.62.12,1.16.5,1.48,1.04,12.15,20.41,27.27,45.81,31.39,73.46,4.51,30.28-6.16,58.86-27.17,72.81-9.67,6.42-21.64,9.79-34.12,9.79Zm-54.67-26.86c.51,0,1.02.18,1.43.53,12.74,10.92,26.88,18.1,40.91,20.76,15.88,3.01,31.92.13,44.01-7.89,22.28-14.79,28.74-45.05,25.25-68.49-3.85-25.86-17.85-50.04-29.56-69.75-9.96,7.32-54.53,38.6-97.04,44.83-5.29,14.11-6.17,28.09-2.7,42.72.22.94-.19,1.92-1.02,2.41-.83.49-1.89.38-2.6-.27-.38-.34-9.43-8.35-17.56-3.05-9.51,6.21-13.47,19.8-8.84,30.3,4.59,10.41,16.52,17.11,28.36,15.94,7.35-.73,12.89-2.21,17.76-7.36.43-.46,1.02-.69,1.6-.69Z"/>
          </g>
          <path d="m388.59,997.48c-.16,0-.33-.02-.5-.06-6.25-1.44-12.2-3.87-17.68-7.19-1.04-.63-1.37-1.99-.74-3.03.63-1.04,1.99-1.37,3.03-.74,5.08,3.08,10.59,5.33,16.38,6.67,1.19.27,1.93,1.46,1.65,2.64-.23,1.02-1.14,1.71-2.15,1.71Z"/>
        </g>
        <g>
          <g>
            <path class="cls-2" d="m640.32,1386.43s265.91,167.31,348.67-125.11c-43.17-24.71-94.41-58.89-108.51-117.7,0,0-37.57,82.5-80,66.21-102.99-39.54-182.55-81.96-319.31-91.13-2.7,8.64-6.57,17-12.3,24.06-11.07,13.61-28.75,21.11-45.71,23.81-16.29,2.59-33.43,1.71-49.33-2.72-14.3-3.99-28.24-11.23-38.82-21.77-4.86-4.85-8.83-10.36-11.83-16.35-98.84,7.86-161.08,19.84-213.29,83.59-67.29,82.15-123.37,236.7-107.03,334.27,16.34,97.57,61.19,127.77,118.44,146.56l-2.5,52.77c-2.78,58.45,55.04,100.76,109.91,80.43l457.1-169.34c22.24-8.24,33.89-32.67,26.3-55.13l-71.78-212.43Z"/>
            <path d="m639.25,1384.41c-.92,0-1.78-.58-2.09-1.51l-12.3-36.81c-.39-1.15.24-2.4,1.39-2.79,1.15-.39,2.4.24,2.79,1.39l12.3,36.81c.39,1.16-.24,2.4-1.39,2.79-.23.08-.47.12-.7.12Z"/>
          </g>
          <g>
            <path class="cls-1" d="m875.93,1155.35c30.52-76.23,53.73-156.3,97.78-225.59,3.88-6.1,8.12-12.31,14.34-15.99,6.22-3.68,14.98-4.08,20.14.99,5.22,5.13,4.99,13.52,3.93,20.76-3.34,22.76-11.74,48.68-23.72,68.31,0,0,30.92-9.49,42.52,18.32,0,0,18.45-5.18,26.57,31.29,0,0,22.01,21,5.99,46.42-11.52,18.28-24.36,19.44-24.36,19.44,0,0-21.83,95.72-46.36,136.75-24.52,41.04-133.27-59.66-116.84-100.7Z"/>
            <path d="m995.43,1254.33c-.28,0-.57-.05-.85-.17-1.12-.47-1.66-1.76-1.19-2.88,18.85-45.24,43.37-131.71,43.61-132.58.25-.88,1.01-1.51,1.92-1.6.1-.01,11.98-1.42,22.69-18.42,14.89-23.62-5.44-43.45-5.65-43.65-.32-.3-.54-.69-.63-1.12-3.95-17.75-10.31-24.86-14.96-27.7-4.82-2.95-8.72-1.98-8.88-1.94-1.06.28-2.19-.27-2.61-1.28-10.71-25.67-38.66-17.43-39.84-17.06-.87.27-1.82-.03-2.39-.75-.56-.72-.62-1.72-.14-2.5,11.15-18.28,19.9-43.51,23.42-67.49.86-5.87,1.46-14.2-3.29-18.87-4.54-4.46-12.39-3.67-17.47-.66-5.77,3.41-9.73,9.17-13.61,15.28-32.66,51.39-56.04,114.27-78.65,175.09-6.49,17.45-12.61,33.93-18.94,50.12-.44,1.13-1.72,1.7-2.86,1.25-1.13-.44-1.69-1.72-1.25-2.86,6.32-16.16,12.44-32.62,18.91-50.05,22.69-61.03,46.15-124.14,79.06-175.92,4.01-6.31,8.48-12.8,15.08-16.71,6.66-3.94,16.63-4.75,22.81,1.31,6.18,6.07,5.56,15.83,4.56,22.65-3.33,22.71-11.27,46.54-21.51,64.85,9.47-1.41,29.84-1.69,39.48,19.05,2.19-.15,6.01.09,10.24,2.62,7.8,4.66,13.51,14.75,17,30,3.27,3.46,21.24,24.26,5.84,48.68-9.76,15.48-20.53,19.28-24.48,20.19-3.18,11.14-25.74,89.37-43.41,131.75-.35.85-1.17,1.36-2.04,1.36Z"/>
            <path d="m1007.55,1109.4c-1.17,0-2.33-.11-3.47-.33-4.7-.92-9.06-4.28-11.4-8.79-2.05-3.95-2.28-8.13-.64-11.78.5-1.11,1.81-1.61,2.91-1.11,1.11.5,1.61,1.8,1.11,2.91-1.07,2.4-.88,5.22.53,7.95,1.73,3.34,4.92,5.82,8.33,6.49,7.11,1.39,14.2-3.17,18.06-8.3,4.41-5.86,6.45-13.46,7.99-20.79,2.03-9.66,4.12-22.36,2.28-34.92-.64-4.37-1.77-8.57-3.35-12.49-.46-1.13.09-2.41,1.22-2.87,1.14-.46,2.41.09,2.87,1.22,1.71,4.25,2.93,8.79,3.62,13.51,1.94,13.25-.22,26.45-2.33,36.47-1.64,7.83-3.85,15.98-8.78,22.54-4.9,6.5-12.05,10.31-18.96,10.31Z"/>
            <path d="m951.35,1119.1c-2.83,0-5.62-.78-8.01-2.6-.97-.74-1.16-2.12-.43-3.09.73-.97,2.11-1.16,3.09-.43,4.71,3.56,12.23,1.09,16.31-3.45,3.82-4.26,5.83-10.05,7.77-15.65.34-.99.69-1.98,1.04-2.97,2.34-6.5,5.94-14.47,13.1-18.48,4.04-2.26,8.57-2.91,12.96-3.54,4.51-.65,8.76-1.26,12.19-3.53,3.28-2.17,5.38-5.85,5.9-10.36.67-5.78-1.29-11.9-5.11-15.96-8.47-8.99-22.12-9.55-29.49-9.08-13.5.85-26.48,5.41-37.55,13.18-1,.7-2.37.46-3.07-.54-.7-1-.46-2.37.54-3.07,11.73-8.23,25.5-13.06,39.8-13.97,8.15-.52,23.28.15,32.98,10.46,4.69,4.98,7.1,12.45,6.28,19.49-.68,5.82-3.46,10.63-7.85,13.53-4.26,2.81-9.21,3.53-14,4.21-4.17.6-8.1,1.16-11.43,3.02-5.89,3.29-9.03,10.35-11.1,16.13-.35.97-.69,1.94-1.03,2.92-2.09,6.01-4.25,12.23-8.66,17.15-3.49,3.89-8.96,6.62-14.24,6.62Z"/>
            <path d="m1023.48,1118.79c-5.85,0-11.35-3.07-13.85-7.8-.57-1.08-.16-2.41.92-2.98,1.07-.57,2.41-.16,2.98.92,1.83,3.45,6.04,5.64,10.49,5.44,4.04-.18,8.24-2.17,11.82-5.6,3.53-3.38,6.13-7.76,8.21-11.59,6.97-12.87,10.42-24.4,10.55-35.26.01-1.22.97-2.23,2.23-2.18,1.22.02,2.19,1.01,2.18,2.23-.14,11.6-3.76,23.8-11.09,37.31-2.24,4.14-5.07,8.88-9.04,12.68-4.36,4.17-9.57,6.59-14.68,6.82-.24.01-.49.02-.73.02Z"/>
            <path d="m1037.83,1120.59c-.24,0-.49-.04-.73-.12-2.36-.82-4.51-2.06-6.39-3.69-.92-.8-1.03-2.19-.23-3.11.8-.92,2.19-1.03,3.11-.23,1.45,1.25,3.16,2.24,4.97,2.87,1.15.4,1.76,1.66,1.36,2.81-.32.91-1.17,1.48-2.08,1.48Z"/>
          </g>
          <path d="m647.29,1227.79h-230.37c-3.29,0-6.19,2.16-7.13,5.32l-87.53,294.89c-1.41,4.77,2.16,9.55,7.13,9.55h230.37c3.29,0,6.19-2.16,7.13-5.32l87.52-294.89c1.42-4.77-2.16-9.55-7.13-9.55Z"/>
          <g>
            <g>
              <path class="cls-1" d="m528.99,1457.45c9.9-9.54,15.94-19.91,9.62-30.06-6.32-10.16-22.21-12.53-31.22-4.65,6.67-5.25,13.53-10.72,17.59-18.18,4.06-7.46,4.61-17.52-.99-23.91-4.92-5.62-13.35-7.02-20.64-5.4-3.6.8-6.99,2.21-10.25,3.93,3.17-4.75,4.03-11.46,1.35-16.66-4.57-8.87-15.75-12.65-25.66-11.54-9.91,1.12-18.9,6.13-27.59,11.04-58.13,32.73-172.99,99.2-172.99,99.2-3.02,16.54,57.5,149.68,80.4,171.92,14.82-4.45,125.86-93.42,167.94-129.51,7.06-6.05,14.32-12.46,17.9-21.04,3.58-8.58,2.26-19.97-5.47-25.14Z"/>
              <path d="m424.92,1425.54c-.74,0-1.46-.37-1.88-1.05-.64-1.04-.32-2.39.72-3.03,21.24-13.07,42.51-26.74,63.21-40.62,1.01-.68,2.38-.41,3.06.6.68,1.01.41,2.38-.6,3.06-20.75,13.92-42.07,27.61-63.35,40.71-.36.22-.76.33-1.15.33Z"/>
              <path d="m451.84,1465.41c-.69,0-1.36-.32-1.8-.92-.71-.99-.48-2.37.51-3.08l54.86-39.23c.99-.71,2.37-.48,3.08.51.71.99.48,2.37-.51,3.08l-54.86,39.23c-.39.28-.84.41-1.28.41Z"/>
              <path d="m477.57,1498.11c-.71,0-1.4-.34-1.83-.97-.68-1.01-.42-2.38.59-3.06,16.65-11.26,32.95-23.44,48.46-36.19.94-.77,2.33-.64,3.1.3.77.94.64,2.33-.3,3.1-15.62,12.83-32.03,25.09-48.79,36.43-.38.26-.81.38-1.23.38Z"/>
            </g>
            <path d="m172.89,1699.28c-15.64,0-31.3-1.24-46.85-3.77-1.2-.19-2.02-1.33-1.82-2.53.19-1.2,1.33-2.03,2.53-1.82,76.67,12.47,156.53-6.78,219.11-52.81.98-.72,2.36-.51,3.08.47.72.98.51,2.36-.47,3.08-50.83,37.4-112.92,57.39-175.58,57.39Z"/>
            <path d="m138.55,1538.72c-.76,0-1.5-.4-1.91-1.1-.61-1.05-.25-2.4.81-3.01l123.27-71.23c1.05-.61,2.4-.25,3.01.81.61,1.05.25,2.4-.81,3.01l-123.27,71.23c-.35.2-.73.3-1.1.3Z"/>
            <path d="m178.03,1507.11c-.15,0-.3-.01-.44-.05-1.19-.24-1.96-1.41-1.72-2.6l33.18-161.86c.24-1.19,1.42-1.96,2.6-1.72,1.19.24,1.96,1.41,1.72,2.6l-33.18,161.86c-.21,1.04-1.13,1.76-2.16,1.76Z"/>
          </g>
        </g>
      </g>
      <g>
        <g>
          <circle class="cls-1" cx="341.68" cy="248.94" r="149.97"/>
          <path d="m341.68,401.11c-83.91,0-152.17-68.26-152.17-152.17s68.26-152.17,152.17-152.17,152.17,68.26,152.17,152.17-68.26,152.17-152.17,152.17Zm0-299.93c-81.48,0-147.76,66.29-147.76,147.76s66.29,147.76,147.76,147.76,147.76-66.29,147.76-147.76-66.29-147.76-147.76-147.76Z"/>
        </g>
        <g>
          <circle class="cls-1" cx="380.74" cy="248.94" r="149.97"/>
          <path d="m380.74,401.11c-83.91,0-152.17-68.26-152.17-152.17s68.26-152.17,152.17-152.17,152.17,68.26,152.17,152.17-68.26,152.17-152.17,152.17Zm0-299.93c-81.48,0-147.76,66.29-147.76,147.76s66.29,147.76,147.76,147.76,147.76-66.29,147.76-147.76-66.29-147.76-147.76-147.76Z"/>
        </g>
        <g>
          <circle class="cls-1" cx="418.47" cy="248.94" r="149.97"/>
          <path d="m418.47,401.11c-83.91,0-152.17-68.26-152.17-152.17s68.26-152.17,152.17-152.17,152.17,68.26,152.17,152.17-68.26,152.17-152.17,152.17Zm0-299.93c-81.48,0-147.76,66.29-147.76,147.76s66.29,147.76,147.76,147.76,147.76-66.29,147.76-147.76-66.29-147.76-147.76-147.76Z"/>
        </g>
        <g>
          <circle class="cls-1" cx="418.47" cy="248.94" r="117.9" transform="translate(-53.46 368.81) rotate(-45)"/>
          <path d="m418.47,369.04c-66.23,0-120.11-53.88-120.11-120.11s53.88-120.11,120.11-120.11,120.11,53.88,120.11,120.11-53.88,120.11-120.11,120.11Zm0-235.81c-63.8,0-115.7,51.9-115.7,115.7s51.9,115.7,115.7,115.7,115.7-51.9,115.7-115.7-51.9-115.7-115.7-115.7Z"/>
        </g>
        <path d="m450.23,262.44c-1.2-3-3.04-5.76-5.47-8.19-2.42-2.42-5.52-4.59-9.21-6.43-3.65-1.82-8.97-3.94-15.81-6.29-6.78-2.33-12.11-4.67-15.84-6.97-3.69-2.27-6.35-4.82-7.93-7.59-1.57-2.76-2.37-6.59-2.37-11.38,0-6.72,2.4-12.28,7.15-16.51,4.76-4.25,11.2-6.4,19.14-6.4s14.7,2.56,19.41,7.61c4.71,5.06,7.11,11.85,7.11,20.18,0,.27.22.5.5.5h4.05c.27,0,.5-.22.5-.5,0-9.78-2.57-17.63-7.63-23.32-4.98-5.61-12.11-8.74-21.18-9.33v-13.56c0-.27-.22-.5-.5-.5h-4.13c-.27,0-.5.22-.5.5v13.55c-8.47.38-15.45,3.06-20.77,7.95-5.43,5-8.19,11.72-8.19,19.98,0,5.06.94,9.43,2.79,12.98,1.85,3.56,4.75,6.71,8.6,9.37,3.82,2.64,9.83,5.38,17.86,8.16,7.96,2.75,14.05,5.4,18.1,7.86,4.01,2.44,6.89,5.14,8.57,8.03,1.67,2.88,2.52,6.59,2.52,11.02,0,6.41-2.52,11.88-7.48,16.26-4.98,4.39-11.41,6.62-19.1,6.62-9.33,0-16.81-2.47-22.21-7.35-5.39-4.87-8.13-11.72-8.13-20.36,0-.27-.22-.5-.5-.5h-4.05c-.27,0-.5.22-.5.5,0,9.95,2.98,17.88,8.85,23.58,5.78,5.6,14,8.68,24.45,9.16v13.55c0,.27.22.5.5.5h4.13c.27,0,.5-.22.5-.5v-13.64c8.57-.58,15.52-3.35,20.66-8.25,5.25-5,7.92-11.62,7.92-19.68,0-4.04-.61-7.61-1.8-10.61Z"/>
      </g>
      <g>
        <path d="m2382.31,1490.33h-723.74c-1.22,0-2.2-.99-2.2-2.2v-222.44c0-1.22.99-2.2,2.2-2.2h723.74c1.22,0,2.2.99,2.2,2.2v222.44c0,1.22-.99,2.2-2.2,2.2Zm-721.54-4.41h719.34v-218.03h-719.34v218.03Z"/>
        <rect class="cls-3" x="1791.67" y="840.7" width="565.11" height="401.24"/>
        <g>
          <path d="m2411.39,1531.93h-814.45c-.93,0-1.76-.58-2.07-1.45l-185.32-511.2c-.42-1.14.18-2.41,1.32-2.82,1.14-.42,2.41.18,2.82,1.32l184.8,509.75h811.23l160.4-573.97c.27-.95,1.13-1.61,2.12-1.61h170.07c1.22,0,2.2.99,2.2,2.2s-.99,2.2-2.2,2.2h-168.4l-160.4,573.97c-.27.95-1.13,1.61-2.12,1.61Z"/>
          <path d="m2551.69,1029.86h-698.87c-1.22,0-2.2-.99-2.2-2.2s.99-2.2,2.2-2.2h698.87c1.22,0,2.2.99,2.2,2.2s-.99,2.2-2.2,2.2Z"/>
          <path d="m2510.36,1177.78h-498.04c-1.22,0-2.2-.99-2.2-2.2s.99-2.2,2.2-2.2h498.04c1.22,0,2.2.99,2.2,2.2s-.99,2.2-2.2,2.2Z"/>
          <path d="m2235.28,1531.93c-1.22,0-2.2-.99-2.2-2.2v-432.42c0-1.22.99-2.2,2.2-2.2s2.2.99,2.2,2.2v432.42c0,1.22-.99,2.2-2.2,2.2Z"/>
          <path d="m1782.49,1782.36c-.33,0-.66-.07-.98-.23-1.09-.54-1.54-1.86-1-2.95,29.51-59.56,64.05-106.12,102.66-138.4,38.78-32.42,79.78-48.86,121.85-48.86h405.98c1.22,0,2.2.99,2.2,2.2v186.04c0,1.22-.99,2.2-2.2,2.2s-2.2-.99-2.2-2.2v-183.83h-403.77c-81.98,0-162.37,67.36-220.57,184.81-.38.78-1.17,1.23-1.98,1.23Z"/>
          <g>
            <circle class="cls-1" cx="2409.49" cy="1756.86" r="52.71"/>
            <path d="m2409.49,1811.77c-30.28,0-54.91-24.64-54.91-54.91s24.64-54.92,54.91-54.92,54.92,24.64,54.92,54.92-24.64,54.91-54.92,54.91Zm0-105.42c-27.85,0-50.51,22.66-50.51,50.51s22.66,50.51,50.51,50.51,50.51-22.66,50.51-50.51-22.66-50.51-50.51-50.51Z"/>
          </g>
          <g>
            <circle class="cls-1" cx="1791.69" cy="1756.86" r="52.71"/>
            <path d="m1791.69,1811.77c-30.28,0-54.91-24.64-54.91-54.91s24.64-54.92,54.91-54.92,54.91,24.64,54.91,54.92-24.64,54.91-54.91,54.91Zm0-105.42c-27.85,0-50.51,22.66-50.51,50.51s22.66,50.51,50.51,50.51,50.51-22.66,50.51-50.51-22.66-50.51-50.51-50.51Z"/>
          </g>
        </g>
      </g>
      <g>
        <g>
          <circle class="cls-3" cx="1856.64" cy="123.22" r="26.63" transform="translate(783.85 1643.56) rotate(-58.59)"/>
          <circle class="cls-3" cx="1778.93" cy="123.22" r="26.63" transform="translate(.17 248.83) rotate(-8)"/>
          <circle class="cls-3" cx="1701.22" cy="123.22" r="26.63" transform="translate(193.59 920.96) rotate(-32.03)"/>
        </g>
        <path d="m1987.26,283.92c-1.22,0-2.2-.99-2.2-2.2V122.13h-62.67c-1.22,0-2.2-.99-2.2-2.2s.99-2.2,2.2-2.2h64.87c1.22,0,2.2.99,2.2,2.2v161.78c0,1.22-.99,2.2-2.2,2.2Z"/>
      </g>
      <g>
        <g>
          <circle class="cls-3" cx="675.23" cy="331.64" r="26.63" transform="translate(38.13 731.67) rotate(-58.28)"/>
          <circle class="cls-3" cx="675.23" cy="253.93" r="26.63" transform="translate(-35.72 131.62) rotate(-10.85)"/>
          <circle class="cls-3" cx="675.23" cy="176.22" r="26.63" transform="translate(11.6 392.07) rotate(-32.64)"/>
        </g>
        <path d="m678.53,515.05c-1.22,0-2.2-.99-2.2-2.2v-115.45c0-1.22.99-2.2,2.2-2.2s2.2.99,2.2,2.2v115.45c0,1.22-.99,2.2-2.2,2.2Z"/>
      </g>
      <g>
        <path d="m2510.14,374.18c-3.73-42.09-31.99-77.6-60.99-108.33-62.89-66.64-134.98-124.19-211.26-174.95-22.24-14.8-45.41-29.28-71.4-35.45-26-6.17-55.67-2.76-75.61,15.02-23.57,21.02-28.15,56.12-26.13,87.63,5.81,90.7,55.73,177.55,131.18,228.23,58.02,38.97,129.68,55.61,199.02,48.51,49.99-5.11,122.32,19.87,115.2-60.67Z"/>
        <g>
          <path class="cls-1" d="m2101.34,603.92l-111.33-52.23-270.15-37.47c-113.91-15.8-195.62,107.03-137.03,205.99l167.82,283.42v-168.58h173.56l-93.29-117.08s304.41,7.24,270.42-114.05Z"/>
          <path class="cls-2" d="m2154.27,626l-164.26-74.31-270.15-37.47c-113.91-15.8-195.62,107.03-137.03,205.99l118.89,200.8v-80.27h227.02l-97.82-122.77s357.33,29.32,323.35-91.97Z"/>
          <path class="cls-1" d="m2128.57,639.98l-229.86-5.79c-110.73-2.79-212.17,61.48-257.02,162.76-73.58,166.14-188.39,409.98-269.65,509.83-9.56,11.74.12,29.11,15.13,27.14l229.69-30.12c37.1-4.87,69.75-26.9,88.13-59.49l211.21-374.28s422.94,20.41,385.51-63.33c-37.44-83.74-173.13-166.72-173.13-166.72Z"/>
          <path d="m1384.84,1336.28c-6.83,0-12.95-3.57-16.37-9.7-3.86-6.92-3.15-15.03,1.86-21.19,15.32-18.82,32.67-43.88,51.59-74.49.64-1.03,2-1.36,3.03-.72,1.04.64,1.36,2,.72,3.03-19.01,30.77-36.48,55.98-51.92,74.95-4.59,5.64-3.75,12.1-1.43,16.25,2.32,4.15,7.36,8.26,14.56,7.31l229.69-30.12c36.21-4.75,68.55-26.57,86.5-58.38l6.91-12.25c.6-1.06,1.94-1.43,3-.84,1.06.6,1.44,1.94.84,3l-6.91,12.25c-18.63,33.01-52.19,55.66-89.77,60.59l-229.69,30.12c-.88.12-1.75.17-2.61.17Z"/>
          <path class="cls-2" d="m1674.87,1226.82c-18.21,1.6-36.42,3.11-54.67,4.12-18.27,1.01-36.5,1.18-54.79,1.1-36.66-.17-73.34-.51-109.97-2.18-9.77-.45-19.53-1-29.28-1.65,72.91-118.92,157.18-299.51,215.53-431.25,44.85-101.28,146.29-165.55,257.02-162.76l229.86,5.79s135.69,82.98,173.13,166.72c37.44,83.74-385.51,63.33-385.51,63.33l-199.22,353.04c-14.05,1.18-28.09,2.52-42.1,3.76Z"/>
          <path d="m1641.68,799.15c-.3,0-.6-.06-.89-.19-1.11-.49-1.62-1.8-1.12-2.91,45.39-102.49,147.08-166.93,259.1-164.07l200.86,5.06c1.22.03,2.18,1.04,2.15,2.26-.03,1.22-.97,2.26-2.26,2.15l-200.86-5.06c-110.17-2.72-210.29,60.6-254.95,161.45-.36.82-1.17,1.31-2.02,1.31Z"/>
          <path d="m1830.92,872.56c-1.21,0-2.2-.98-2.2-2.2,0-1.22.98-2.21,2.2-2.21l73.71-.28h0c1.21,0,2.2.98,2.2,2.2,0,1.22-.98,2.21-2.2,2.21l-73.71.28h0Z"/>
          <path class="cls-2" d="m1990.01,551.69l118.28,86.3s118.54,106.76,127.45,219.14c0,0,230.22-24.46,166.31-278.8l-291.72-8.3-120.32-18.35Z"/>
        </g>
        <g>
          <g>
            <path class="cls-1" d="m2374.08,606.96l-86.01-346.41s-158.87-3.23-214.69,9.38c0,0-6.2,281.37-9.06,337.03h309.76Z"/>
            <g>
              <path class="cls-1" d="m1970.37,547.84s46.73-280.6,103.01-277.9l-9.06,277.9h-93.95Z"/>
              <path d="m2064.32,550.04h-93.95c-.65,0-1.26-.29-1.68-.78-.42-.49-.6-1.15-.49-1.79.12-.7,11.91-71.06,30.44-140.17,25.14-93.79,50.27-140.75,74.84-139.57,1.2.06,2.14,1.07,2.1,2.27l-9.06,277.9c-.04,1.19-1.01,2.13-2.2,2.13Zm-91.33-4.41h89.2l8.92-273.44c-15.35,1.54-39.05,27.53-68.2,136.25-16.48,61.47-27.62,123.92-29.92,137.19Z"/>
            </g>
          </g>
          <g>
            <path d="m1739.92,557.61h430.65v-12.97c0-11.41-9.25-20.66-20.66-20.66h-440.28l3.53,13.13c3.26,12.09,14.22,20.5,26.74,20.5Z"/>
            <path d="m1727.64,542.39h259.82c11.1,0,19.25-10.42,16.58-21.19l-49.1-198.09c-1.89-7.62-8.73-12.97-16.58-12.97h-259.82c-11.1,0-19.25,10.42-16.58,21.19l49.1,198.09c1.89,7.62,8.73,12.97,16.58,12.97Z"/>
            <circle class="cls-2" cx="1815.84" cy="386.58" r="8.58"/>
          </g>
        </g>
        <g>
          <g>
            <path class="cls-1" d="m2082.96,523.98s47.41-81.22,112.17-57.19c64.76,24.03,157.08,81.76,157.08,81.76,0,0-85.23-231.52-64.14-288,0,0,111.64,33.52,163.28,200.42,51.64,166.9-25.39,223.6-80.03,224.58-54.64.98-191.65-143.22-213.26-143.16l-75.1-18.41Z"/>
            <path d="m2370.77,687.76c-34.63,0-98.23-53.39-149.4-96.34-28.69-24.08-55.79-46.83-63.29-46.83h-.02c-.18,0-.35-.02-.53-.06l-75.1-18.41c-.68-.17-1.23-.64-1.51-1.28-.27-.64-.22-1.37.13-1.97.48-.83,49.11-82.54,114.84-58.14,55.27,20.51,131.34,65.97,152.08,78.63-13.47-37.4-81.46-231.4-61.97-283.58.41-1.09,1.59-1.67,2.7-1.34,1.16.35,28.75,8.85,63.07,38.05,31.58,26.87,74.85,77.1,101.68,163.82,31.72,102.51,13.56,158.32-7.25,187.08-17.91,24.75-45.89,39.83-74.85,40.35-.2,0-.4,0-.6,0Zm-212.41-147.57c8.85.36,29.82,17.61,65.85,47.85,48.21,40.47,114.24,95.87,147.08,95.3,27.58-.5,54.26-14.9,71.36-38.53,20.23-27.95,37.79-82.42,6.61-183.19-46.91-151.61-144.56-192.69-159.8-198.26-17.91,58.44,63.99,282.15,64.83,284.43.33.88.05,1.88-.68,2.47-.74.6-1.76.66-2.56.16-.92-.58-92.87-57.88-156.68-81.56-55.85-20.72-99.23,40.33-107.91,53.71l71.91,17.62Z"/>
          </g>
          <path d="m2141.18,532.93c-.24,0-.48-.04-.72-.12-1.15-.4-1.76-1.66-1.36-2.81,4.52-13.02,14.76-24.1,27.37-29.64,1.12-.49,2.42.02,2.91,1.13.49,1.12-.02,2.42-1.13,2.91-11.51,5.06-20.85,15.17-24.98,27.05-.32.91-1.17,1.48-2.08,1.48Z"/>
          <path d="m2117.57,528.19c-.21,0-.42-.03-.63-.09-1.17-.35-1.83-1.58-1.48-2.74,4.7-15.73,16.37-29.29,31.23-36.27,1.1-.52,2.42-.05,2.93,1.06.52,1.1.05,2.41-1.06,2.93-13.74,6.46-24.53,19-28.88,33.54-.29.96-1.16,1.57-2.11,1.57Z"/>
          <path d="m2170.57,557.61v-12.97c0-11.41-9.25-20.66-20.66-20.66h-85.59l106.25,33.63Z"/>
        </g>
        <g>
          <g>
            <path class="cls-1" d="m2188.6,166.47l37.34,94.64s-20.93,27.61-67.88,33.9c-46.95,6.29-7-32.98-7-32.98l-22.68-64.89,60.21-30.66Z"/>
            <path d="m2149.02,297.89c-8.11,0-13.08-2.04-15.1-6.15-4.65-9.5,10.21-25.78,14.6-30.29l-22.22-63.58c-.36-1.04.1-2.19,1.08-2.69l60.21-30.66c.55-.28,1.2-.32,1.78-.1.58.22,1.04.67,1.27,1.25l37.34,94.64c.28.72.17,1.53-.29,2.14-.88,1.16-22.03,28.42-69.34,34.75-3.48.47-6.59.7-9.34.7Zm-17.92-99.67l22.04,63.07c.28.81.07,1.7-.53,2.3-7.19,7.07-17.55,20.45-14.73,26.21,1.68,3.44,8.75,4.51,19.89,3.02,40.55-5.43,61.49-27.32,65.64-32.12l-35.97-91.17-56.34,28.69Z"/>
          </g>
          <g>
            <g>
              <path class="cls-1" d="m2081.71,158.84c1.37,14.38,5.39,28.79,13.73,40.59,8.34,11.8,21.38,20.72,35.77,21.99,12.48,1.11,25.06-3.58,34.86-11.39,9.8-7.8,16.99-18.52,22.09-29.96,13.07.85,26.14-8.18,29.97-20.7,2.21-7.23,1.29-15.74-3.78-21.34-5.07-5.6-14.66-7.09-20.35-2.12-3.24,2.83-4.88,7.2-8.24,9.9-3.74,3.01-9.12,3.38-13.69,1.9-4.56-1.49-8.43-4.6-11.78-8.04-10.55-10.83-16.97-25.59-17.7-40.69.07,1.43-6.47,5.47-7.62,6.25-2.88,1.98-5.94,3.71-9.12,5.17-6.27,2.88-13.02,4.72-19.89,5.45-3.48.37-6.99.45-10.49.22-2.78-.18-6.72-1.63-9.42-.9-5.63,1.53-4.4,12.24-4.63,16.59-.48,9.02-.61,18.08.25,27.09Z"/>
              <path d="m2134.82,223.79c-1.27,0-2.54-.05-3.8-.17-14.15-1.26-28.12-9.82-37.38-22.92-7.79-11.01-12.54-25.03-14.13-41.65-.75-7.9-.84-16.61-.26-27.41.04-.72.03-1.63.03-2.64-.02-5.67-.06-14.25,6.22-15.96,2.24-.61,4.86-.1,7.17.36,1.1.22,2.13.42,2.96.47,3.34.21,6.74.14,10.12-.21,6.67-.7,13.13-2.47,19.2-5.26,3.09-1.42,6.05-3.1,8.79-4.99.17-.12.45-.3.81-.54,4.07-2.67,5.48-3.87,5.91-4.41.22-.93,1.03-1.65,2.04-1.69,1.17-.06,2.25.88,2.31,2.1.7,14.53,6.92,28.84,17.07,39.26,3.84,3.94,7.29,6.32,10.88,7.48,4.27,1.39,8.72.81,11.62-1.52,1.49-1.2,2.65-2.87,3.87-4.64,1.24-1.8,2.53-3.66,4.3-5.2,6.35-5.55,17.3-4.48,23.43,2.3,5.27,5.82,6.9,14.82,4.25,23.47-4.01,13.12-17.13,22.47-30.68,22.32-5.74,12.41-13.17,22.3-22.11,29.42-9.73,7.75-21.43,12.02-32.64,12.02Zm-50.91-65.16c1.51,15.85,6,29.15,13.34,39.53,8.52,12.05,21.29,19.93,34.17,21.07,11.2,1,23.33-2.98,33.3-10.91,8.7-6.93,15.92-16.73,21.45-29.13.37-.84,1.26-1.37,2.15-1.3,12.02.77,24.2-7.63,27.72-19.15,2.16-7.07.87-14.61-3.3-19.22-4.5-4.97-12.73-5.9-17.27-1.94-1.35,1.18-2.43,2.74-3.57,4.39-1.35,1.95-2.74,3.97-4.74,5.57-4.05,3.25-10.08,4.12-15.75,2.27-4.29-1.4-8.32-4.13-12.67-8.6-9.76-10.02-16.14-23.4-17.9-37.29-1.04.76-2.31,1.63-3.86,2.65l-.72.48c-2.95,2.03-6.13,3.84-9.45,5.36-6.5,2.99-13.42,4.88-20.58,5.63-3.63.38-7.28.46-10.86.23-1.11-.07-2.29-.3-3.53-.55-1.84-.36-3.91-.77-5.17-.43-3.02.82-2.99,7.62-2.97,11.68,0,1.11,0,2.1-.04,2.89-.56,10.58-.49,19.08.25,26.76Zm56.51-59.56h0s0,0,0,0Z"/>
            </g>
            <g>
              <path class="cls-1" d="m2201.94,152.25c-6.72,1.55-12.22,7.42-13.33,14.22l13.33-14.22Z"/>
              <path d="m2188.6,168.67c-.12,0-.24,0-.36-.03-1.2-.2-2.02-1.33-1.82-2.53,1.26-7.68,7.43-14.26,15.01-16.01,1.18-.27,2.37.47,2.64,1.65.27,1.19-.47,2.37-1.65,2.64-5.89,1.36-10.68,6.47-11.65,12.43-.18,1.08-1.11,1.85-2.17,1.85Z"/>
            </g>
          </g>
        </g>
      </g>
      <g>
        <g>
          <rect class="cls-1" x="1420.41" y="195.45" width="350.93" height="168.74"/>
          <path d="m1771.33,366.4h-350.93c-1.22,0-2.2-.99-2.2-2.2v-168.74c0-1.22.99-2.2,2.2-2.2h350.93c1.22,0,2.2.99,2.2,2.2v168.74c0,1.22-.99,2.2-2.2,2.2Zm-348.72-4.41h346.52v-164.34h-346.52v164.34Z"/>
        </g>
        <g>
          <path d="m1637.5,328.32c-.56,0-1.13-.22-1.56-.65-.86-.86-.86-2.26,0-3.12l40.56-40.56-40.56-40.56c-.86-.86-.86-2.26,0-3.12.86-.86,2.26-.86,3.12,0l42.12,42.12c.41.41.65.97.65,1.56s-.23,1.15-.65,1.56l-42.12,42.12c-.43.43-.99.65-1.56.65Z"/>
          <path d="m1548.54,328.32c-.56,0-1.13-.22-1.56-.65l-42.12-42.12c-.41-.41-.65-.97-.65-1.56s.23-1.15.65-1.56l42.12-42.12c.86-.86,2.26-.86,3.12,0,.86.86.86,2.26,0,3.12l-40.56,40.56,40.56,40.56c.86.86.86,2.26,0,3.12-.43.43-.99.65-1.56.65Z"/>
          <path d="m1570.04,341.14c-.29,0-.57-.06-.85-.17-1.12-.47-1.65-1.76-1.18-2.89l46.27-109.87c.47-1.12,1.76-1.65,2.89-1.18,1.12.47,1.65,1.76,1.18,2.89l-46.27,109.87c-.35.84-1.17,1.35-2.03,1.35Z"/>
        </g>
      </g>
      <g>
        <path d="m1658.56,1635.34h-432.94c-1.22,0-2.2-.99-2.2-2.2s.99-2.2,2.2-2.2h432.94c1.22,0,2.2.99,2.2,2.2s-.99,2.2-2.2,2.2Z"/>
        <path d="m1442.09,1706.35h-470.3c-1.22,0-2.2-.99-2.2-2.2s.99-2.2,2.2-2.2h470.3c1.22,0,2.2.99,2.2,2.2s-.99,2.2-2.2,2.2Z"/>
      </g>
    </g>
  </g>
</svg>