<svg xmlns="http://www.w3.org/2000/svg" fill="none" viewBox="0 0 737 442">
  <path fill="#FAFAFA" d="M665.45 214.811c-29.65-21.362-65.179-31.698-97.889-47.171-31.46-14.882-53.844-38.791-81.99-58.494-45.991-32.194-99.148-56.333-153.247-71.066-54.704-14.896-121.528-23.148-171.393 9.873-24.525 16.24-44.485 41.43-52.618 69.875-9.678 33.847-.207 68.43 4.435 102.255 3.771 27.486-13.875 42.649-34.666 58.268-48.682 36.569-47.33 102.74-17.249 150.168h626.528c37.204-67.402 53.565-159.326-21.911-213.708Z"/>
  <path fill="#FAFAFA" d="M63.961 241.472c12.826 0 23.222-10.397 23.222-23.222 0-12.825-10.396-23.222-23.222-23.222-12.825 0-23.222 10.397-23.222 23.222 0 12.825 10.397 23.222 23.222 23.222Zm549.882-104.146c18.958 0 34.327-15.369 34.327-34.327s-15.369-34.327-34.327-34.327S579.516 84.041 579.516 103s15.369 34.327 34.327 34.327ZM78.3 158.637c.887-5.613-2.945-10.882-8.558-11.768-5.613-.887-10.882 2.945-11.768 8.558-.886 5.613 2.946 10.882 8.559 11.769 5.613.886 10.882-2.946 11.768-8.559Zm566.078 13.608c5.249-2.174 7.742-8.192 5.567-13.441-2.174-5.248-8.191-7.741-13.44-5.567-5.249 2.174-7.742 8.192-5.567 13.441 2.174 5.249 8.191 7.741 13.44 5.567Z"/>
  <path fill="#DDD" d="M39.96 426.922c-29.794-25.419-30.068-69.897-17.122-102.699 14.414-36.524 48.201-66.589 92.698-82.485a446.82 446.82 0 0 1 3.244-1.141l.401 1.156a476.99 476.99 0 0 0-3.234 1.136c-44.165 15.778-77.688 45.588-91.973 81.784-12.786 32.397-12.556 76.291 16.78 101.32l-.793.929Zm627.098 1.423-1.086-.559c22.004-42.773 35.038-85.908 37.691-124.741 2.615-38.283-4.98-69.861-21.963-91.316-15.413-19.471-46.08-39.627-104.667-25.071l-.294-1.186c59.214-14.711 90.284 5.746 105.919 25.498 17.176 21.697 24.86 53.566 22.224 92.159-2.664 38.998-15.743 82.297-37.824 125.216ZM177.202 86.402l-1.183-.303c.082-.321 2.091-7.981 8.807-18.11 6.187-9.33 17.707-22.54 37.45-32.49 22.61-11.394 51.068-16.228 84.583-14.37 41.941 2.328 91.954 15.206 148.648 38.278l-.46 1.132c-56.57-23.02-106.451-35.87-148.255-38.19-33.304-1.849-61.551 2.944-83.966 14.242-19.505 9.83-30.876 22.867-36.982 32.074-6.604 9.957-8.622 17.66-8.642 17.737Z"/>
  <path fill="#E7EFFF" d="M600.957 87.303H163.915a7.773 7.773 0 0 0-7.773 7.774v307.511a7.773 7.773 0 0 0 7.773 7.773h437.042a7.773 7.773 0 0 0 7.774-7.773V95.077a7.773 7.773 0 0 0-7.774-7.774Z"/>
  <path fill="#fff" d="M594.982 113.005H169.888v257.701h425.094V113.005Z"/>
  <path fill="#E7EFFF" d="M595.593 371.317H169.277V112.394h426.315l.001 258.923Zm-425.094-1.222H594.37V113.616H170.499v256.479Z"/>
  <path fill="#fff" d="M594.982 96.98H169.888v16.025h425.094V96.981Z"/>
  <path fill="#E7EFFF" d="M595.593 113.616H169.277V96.369h426.315l.001 17.247Zm-425.094-1.222H594.37V97.592H170.499v14.802Z"/>
  <path fill="#E7EFFF" d="M189.87 108.695a3.697 3.697 0 0 1-3.42-2.286 3.702 3.702 0 1 1 3.42 2.286Zm0-6.182a2.475 2.475 0 0 0-2.29 1.531 2.48 2.48 0 0 0 1.807 3.381 2.486 2.486 0 0 0 2.964-2.432 2.484 2.484 0 0 0-2.481-2.48Zm12.364 6.182a3.702 3.702 0 1 1 0-7.404 3.702 3.702 0 0 1 0 7.404Zm0-6.182c-.49 0-.97.145-1.378.417a2.475 2.475 0 0 0-.376 3.816 2.483 2.483 0 0 0 3.816-.375 2.483 2.483 0 0 0-2.062-3.858Zm12.362 6.182a3.702 3.702 0 1 1 0-7.404 3.702 3.702 0 0 1 0 7.404Zm0-6.182a2.48 2.48 0 1 0-.001 4.96 2.48 2.48 0 0 0 .001-4.96ZM631.043 405.51H133.826v23.058h497.217V405.51Z"/>
  <path fill="#E7EFFF" d="M631.73 429.255H133.139v-24.431H631.73v24.431Zm-497.219-1.371h495.847v-21.687H134.512l-.001 21.687Z"/>
  <path fill="#fff" d="M404.322 381.656H360.54a4.967 4.967 0 0 0-4.967 4.967v2.966a4.967 4.967 0 0 0 4.967 4.967h43.782a4.967 4.967 0 0 0 4.967-4.967v-2.966a4.967 4.967 0 0 0-4.967-4.967Z"/>
  <path fill="#E7EFFF" d="M403.646 395.167h-42.428a6.262 6.262 0 0 1-6.255-6.255v-1.611a6.263 6.263 0 0 1 6.255-6.256h42.428a6.26 6.26 0 0 1 6.255 6.256v1.611a6.258 6.258 0 0 1-6.255 6.255Zm-42.428-12.9a5.04 5.04 0 0 0-5.033 5.034v1.611a5.038 5.038 0 0 0 5.033 5.033h42.428a5.036 5.036 0 0 0 5.033-5.033v-1.611a5.036 5.036 0 0 0-5.033-5.034h-42.428ZM534.72 226.624H230.149a19.984 19.984 0 0 1-19.961-19.962v-1.333a19.985 19.985 0 0 1 19.961-19.962H534.72a19.984 19.984 0 0 1 19.961 19.961v1.334a19.984 19.984 0 0 1-19.961 19.962ZM230.149 186.59a18.757 18.757 0 0 0-18.739 18.739v1.333a18.757 18.757 0 0 0 18.739 18.739H534.72a18.76 18.76 0 0 0 18.739-18.739v-1.333a18.757 18.757 0 0 0-18.739-18.739H230.149Z"/>
  <path fill="#E7EFFF" d="M266.306 198.538h-36.829a6.143 6.143 0 0 0-6.144 6.144v2.627a6.143 6.143 0 0 0 6.144 6.144h36.829a6.144 6.144 0 0 0 6.144-6.144v-2.627a6.144 6.144 0 0 0-6.144-6.144Zm59.673 0h-32.194a6.225 6.225 0 0 0-6.226 6.225v2.465a6.225 6.225 0 0 0 6.226 6.225h32.194a6.225 6.225 0 0 0 6.226-6.225v-2.465a6.225 6.225 0 0 0-6.226-6.225Zm68.609 0H351.21a6.563 6.563 0 0 0-6.563 6.563v1.789a6.563 6.563 0 0 0 6.563 6.563h43.378a6.563 6.563 0 0 0 6.563-6.563v-1.789a6.563 6.563 0 0 0-6.563-6.563Zm95.199-.081h-64.459a6.562 6.562 0 0 0-6.563 6.562v1.79a6.563 6.563 0 0 0 6.563 6.563h64.459a6.563 6.563 0 0 0 6.563-6.563v-1.79a6.563 6.563 0 0 0-6.563-6.562Zm-56.023-44.067H331.1v10.75h102.664v-10.75Z"/>
  <path fill="#93B7FF" d="M366.236 292.065h-18.191v34.831h18.191v-34.831Z"/>
  <path fill="#E7EFFF" d="M403.755 271.344h-18.192v55.552h18.192v-55.552Z"/>
  <path fill="#93B7FF" d="M441.275 259.146h-18.191v67.75h18.191v-67.75Z"/>
  <path fill="#E7EFFF" d="M478.794 288.626h-18.191v38.27h18.191v-38.27Z"/>
  <path fill="#93B7FF" d="M516.312 266.519h-18.191v60.378h18.191v-60.378Z"/>
  <path fill="#E7EFFF" d="M553.833 243.583h-18.191v83.313h18.191v-83.313Z"/>
  <path fill="#F5F5F5" d="M308.048 241.468H205.384v6.555h102.664v-6.555Zm0 18.403H205.384v67.026h102.664v-67.026Z"/>
  <path fill="#E7EFFF" d="M261.367 284.786c-3.868-1.527-7.842-.327-10.68 2.446-2.586 2.528-2.95 6.1-4.168 9.29 2.515.686 4.775 2.175 7.516 1.747 3.56-.554 3.653-3.876 5.671-6.139 1.729-1.939 3.8-3.187 6.273-3.52-1.062-1.564-2.358-2.935-4.612-3.824Zm29.077-3.477c-3.501.762-7.179 2.006-9.677 4.558-2.147 2.195-2.07 6.014-3.63 8.321 1.762 1.174 3.745 1.721 5.676.677 1.89-1.021 3.038-3.32 5.076-4.321 1.638-.807 3.991-1.315 5.773-1.634.411-.074.831-.121 1.247-.178v-8.147c-1.5.166-2.99.407-4.465.724Z"/>
  <path fill="#93B7FF" d="M293.661 288.91c-1.782.319-4.135.828-5.774 1.634-2.037 1.002-3.185 3.3-5.076 4.322-1.93 1.043-3.913.496-5.675-.677a13.465 13.465 0 0 1-1.963-1.618c-2.41-2.375-3.163-3.717-6.974-4.025a10.24 10.24 0 0 0-2.22.065c-2.474.332-4.544 1.581-6.272 3.52-2.018 2.263-2.112 5.584-5.672 6.139-2.74.427-5.001-1.062-7.516-1.748a7.8 7.8 0 0 0-3.175-.269c-2.652.365-4.329 1.957-6.178 3.164-1.287.84-2.656 1.497-4.498 1.415-4.11-.181-9.411-2.549-14.145-2.701v18.307h76.384v-27.706c-.416.057-.836.104-1.246.178Z"/>
  <path fill="#E7EFFF" d="M237.167 299.416a6.79 6.79 0 0 1-.841-.863c-1.892-2.347-2.044-5.326-4.136-7.527-4.074-4.283-9.638-2.589-13.666 1.055v6.05c4.734.152 10.035 2.52 14.145 2.701 1.842.081 3.211-.575 4.498-1.416Z"/>
  <path fill="#FFCEB7" d="m126.869 255.83-19.518 3.827 4.454-28.704 12.003.245c-.077.506-.153.995-.2 1.5-.444 3.858-.215 7.731.276 11.191a59.955 59.955 0 0 0 2.985 11.941Z"/>
  <path fill="#6D7280" d="M123.884 243.889c-7.502-3.536-10.287-10.961-10.287-10.961l10.012-.23c-.444 3.858-.214 7.731.275 11.191Z"/>
  <path fill="#FFCEB7" d="M128.013 214.619c.765 2.679 5.103 19.646-2.807 21.56-7.909 1.914-16.074-5.358-16.074-5.358l2.679-16.329 11.481-3.445 4.721 3.572Z"/>
  <path fill="#FF5970" d="M117.536 223.852s2.057-13.57 10.477-9.233c-.301-.155-.738-1.51-.925-1.817a12.644 12.644 0 0 0-3.261-3.623c-4.792-3.512-12.87-2.235-16.736 1.804-3.806 3.976-3.922 11.044-1.963 16.182.317.831.719 1.627 1.199 2.376a9.934 9.934 0 0 0 1.538 1.805c.5.482 4.257 3.442 4.296 1.165.097-5.55 5.375-8.659 5.375-8.659Z"/>
  <path fill="#FFCEB7" d="M119.39 226.957c1.432-1.171 1.417-3.559-.034-5.333s-3.789-2.263-5.221-1.091c-1.432 1.171-1.417 3.559.034 5.333s3.789 2.263 5.221 1.091Zm10.215-.762c.984 0 1.782-.867 1.782-1.935 0-1.069-.798-1.936-1.782-1.936-.985 0-1.783.867-1.783 1.936 0 1.068.798 1.935 1.783 1.935Z"/>
  <path fill="#6D7280" d="m104.029 366.559-23.218 9.951s19.136 48.733 24.749 51.794c5.613 3.062 2.807-23.984 6.634-32.148l4.848-19.136-13.013-10.461Z"/>
  <path fill="#fff" d="m102.201 394.235-.17 2.44 10.078.7.17-2.439-10.078-.701Z"/>
  <path fill="#0144C9" d="m98.16 362.987 14.033 33.169s54.602-28.576 68.125-54.601l-21.433-28.067-60.725 49.499Z"/>
  <path fill="#6D7280" d="M171.389 389.777s25.514 1.022 37.251-19.136l-26.025-3.827-11.226 22.963Z"/>
  <path fill="#FFCEB7" d="m211.297 393.26-28.783 10.17-2.323-8.214-4.216-14.874 23.992-11.354 1.687 3.617 9.643 20.655Z"/>
  <path fill="#6D7280" d="m247.677 428.559-31.511-24.877-4.864-10.417-28.786 10.159 7.115 25.135h58.046Z"/>
  <path fill="#fff" d="m215.205 402.928-6.506 8.292 1.923 1.509 6.506-8.292-1.923-1.509Z"/>
  <path fill="#FFCEB7" d="m201.654 372.605-21.463 22.611-4.216-14.875 23.992-11.354 1.687 3.618Z"/>
  <path fill="#0144C9" d="M208.645 370.637c-13.567 3.422-25.985 9.802-37.254 19.14l-19.397-51.028s-39.136 37.303-62.505 31.13c-22.208-5.866-12.516-42.618-12.516-42.618 30.495-21.352 79.005-50.025 100.259-27.316.1.087.194.181.282.281 4.351 4.778 9.264 14.226 13.884 24.688 9.217 20.839 17.247 45.723 17.247 45.723Z"/>
  <path fill="#3E7FFF" d="M191.399 324.914c-21.145 4.974-42.9-18.517-42.9-18.517l21.853-7.174 6.881.721c.1.087.194.181.282.281 4.351 4.779 9.264 14.226 13.884 24.689Zm-20.579 65.08-19.068-50.162c-4.135 3.929-26.635 24.516-50.357 30.769l-.312-1.182c25.821-6.805 50.237-30.861 50.48-31.103l.668-.664 19.731 51.908-1.142.434Z"/>
  <path fill="#FFD966" d="m108.423 245.176-8.568 27.695-11.525 37.253s-8.41 3.019-15.828 2.078c-6.551-.831-12.332-4.767-10.768-16.659 3.447-26.216 46.689-50.367 46.689-50.367Z"/>
  <path fill="#FFD966" d="M99.855 272.871 88.33 310.125s-8.408 3.019-15.827 2.077c6.221-38.243 26.803-54.535 26.803-54.535l.55 15.204Zm92.388-.28-6.38 24.297-21.536-20.313 8.543-14.325 11.551 6.16 7.822 4.181Z"/>
  <path fill="#FFCEB7" d="m172.919 262.275 8.174-13.062 16.512-7.038-5.41 30.464-19.276-10.364Z"/>
  <path fill="#002878" d="M253.145 237.28c-4.339-1.039-8.25-.868-11.782.428a19.692 19.692 0 0 0-6.515 4.045l-7.981-18.504a25.57 25.57 0 0 0 7.59-2.53 21.311 21.311 0 0 0 8.226-7.712l10.462 24.273Z"/>
  <path fill="#002878" d="m234.868 241.738-7.975-18.499-117.498 55.775 4.246 9.851 121.227-47.127-7.975-18.499 7.975 18.499Z"/>
  <path fill="#6D7280" d="M253.146 237.28c-4.339-1.039-8.25-.868-11.783.428l-6.905-16.989a21.308 21.308 0 0 0 8.225-7.712l10.463 24.273Z"/>
  <path fill="#002878" d="M344.657 246.961c24.513-24.513 24.513-64.257 0-88.77-24.513-24.513-64.256-24.513-88.769 0-24.513 24.513-24.513 64.257 0 88.77 24.513 24.513 64.256 24.513 88.769 0Z"/>
  <path fill="#fff" d="M337.251 239.554c20.423-20.422 20.423-53.534 0-73.956-20.422-20.423-53.534-20.423-73.956 0-20.423 20.422-20.423 53.534 0 73.956 20.422 20.423 53.534 20.423 73.956 0Z"/>
  <path fill="#E7EFFF" d="M252.6 181.087h95.332c-.206-.457-.412-.916-.63-1.365h-94.051c-.22.453-.444.905-.651 1.365Zm95.175 43.347h-94.992c.21.457.414.918.635 1.365h93.697c.225-.451.449-.906.66-1.365Zm-86.555-21.143v-1.062a7.821 7.821 0 0 0-7.798-7.797h-4.797a51.987 51.987 0 0 0 .049 16.659h4.748a7.823 7.823 0 0 0 7.798-7.8Zm24.775-8.86h34.06a7.902 7.902 0 0 1 7.902 7.902v.855a7.902 7.902 0 0 1-7.902 7.902h-34.06a7.908 7.908 0 0 1-7.3-4.878 7.904 7.904 0 0 1-.601-3.024v-.856a7.901 7.901 0 0 1 7.901-7.901Zm65.945 0h-1.756a8.328 8.328 0 1 0 0 16.659h1.677a51.988 51.988 0 0 0 .079-16.659Z"/>
  <path fill="#FFCEB7" d="m192.243 272.591-7.821-4.181 4.766-10.352s6.637-11.99 9.949-11.476c3.312.501-6.894 26.009-6.894 26.009Z"/>
  <path fill="#FFD966" d="m164.333 276.573-1.624 2.726c-3.231-4.44-10.349-13.902-19.305-21.417-8.052-6.751-18.978-17.253-28.515-15.798-25.535 3.872-37.91 85.177-37.91 85.177l66.073-23.916 14.801 11.531a16.181 16.181 0 0 0 20.384-.403 16.176 16.176 0 0 0 5.22-8.295l2.411-9.284-21.535-20.321Z"/>
  <path fill="#FFD966" d="m125.53 287.002-.81.914 17.916 15.88.81-.914-17.916-15.88Zm35.896-10.233-.998.705 10.794 15.284.998-.705-10.794-15.284Z"/>
  <path fill="#FFCEB7" d="M498.935 118.78s-3.091 9.675-10.885 13.975c-7.794 4.3-18.141 8.869-14.647 10.347 3.493 1.478 12.833.537 12.833.537s-18.074 13.976-12.967 15.454c5.106 1.478 17.468-8.6 17.468-8.6s-1.679 3.762.874 4.569c2.553.806 7.458-.135 7.458-.135s-.672 2.688 4.434 2.017c5.107-.671 18.41-16.797 18.41-16.797l.941-14.782-23.919-6.585Z"/>
  <path fill="#3E7FFF" d="M483.213 35.734s20.157-5.24 50.391 13.707c27.209 17.05 29.026 33.863 16.126 54.825-12.9 20.963-27.816 35.879-27.816 35.879l-22.979-21.366 20.157-31.444-35.879-51.6Z"/>
  <path fill="#3E7FFF" d="M476.093 38.96s-28.488 15.319-43.001 48.375h99.439l-27.413-43.537-29.025-4.838Z"/>
  <path fill="#FFCEB7" d="M448.04 87.2s9.776 1.714 13.202 0c3.427-1.713-7.458-6.65-16.83-8.969-9.373-2.318-20.358-6.45-29.429 6.45-9.07 12.9-8.163 13.808-5.241 13.606 2.923-.202 9.877-8.87 9.877-8.87s-7.458 9.374-3.93 10.382c3.527 1.008 11.992-11.792 11.992-11.792s-7.256 10.38-3.527 11.589c3.729 1.208 11.791-11.49 11.791-11.49s-8.163 12.8-3.225 12.498c3.213-.197 6.896-5.812 9.077-9.712a7.16 7.16 0 0 1 6.242-3.692h.001Z"/>
  <path fill="#6D7280" d="M483.048 53.033a15.998 15.998 0 0 1-6.987-1.694l.596-1.067c.403.223 9.972 5.394 16.146-4.227l1.029.66c-3.21 5-7.324 6.328-10.784 6.328Zm16.398 66.079-1.024-.667 25.996-39.94-9.97-15.555 1.029-.66 10.398 16.22-26.429 40.602Z"/>
  <path fill="#FFCEB7" d="M488.911 40.23c-1.641 5.847-9.463 7.074-13.066 2.19l-.961-1.295-6.206-8.408 6.393-8.315.614-.8 1.454 1.08 1.055.788 11.171 8.355c.226 2.589.026 4.697-.454 6.406Z"/>
  <path fill="#6D7280" d="m474.884 41.125-6.206-8.408 6.393-8.315 2.068.28.988.135s.027.227.067.654c.16 2.161.374 9.315-3.31 15.654Z"/>
  <path fill="#FFCEB7" d="M450.993 19.482s13.841 24.857 23.801 14.458c7.563-7.896 2.224-18.795 2.224-18.795l-7.34-7.118-16.348 4.894-2.337 6.56Z"/>
  <path fill="#FFD966" d="M472.348 20.705s-4.671-7.423-9.76-3.92c-5.089 3.503-11.066 12.93-18.045 7.48-4.858-3.794-1.557-14.57 4.866-13.653 0 0 7.091-13.596 19.269-10.01 12.178 3.587 7.507 10.844 14.013 11.929 6.507 1.084 27.576 2.597 24.072 24.869 0 0-9.013-2.407-16.538-1.566-9.405 1.05-15.764-14.461-15.764-14.461-.611.166-2.113-.668-2.113-.668Z"/>
  <path fill="#FFCEB7" d="M473.516 24.876c2.027 0 3.67-2.129 3.67-4.754 0-2.626-1.643-4.755-3.67-4.755s-3.67 2.129-3.67 4.755c0 2.625 1.643 4.754 3.67 4.754Z"/>
  <path fill="#6D7280" d="M737 427.602H0v1.834h737v-1.834Z"/>
  <path fill="#002878" d="M616.306 361.556h-50.417v29.333h50.417v-29.333Z"/>
  <path fill="#6D7280" d="m622.171 428.462 26.864 13.495-9.138-34.938-11.816-2.272-12.372 4.42 6.462 19.295Z"/>
  <path fill="#3E7FFF" d="m628.087 404.749-5.916 23.711s-25.508-3.361-50.502-8.91c-11.526-2.542-22.941-5.561-31.692-8.934-4.608-1.772-8.482-3.642-11.245-5.586-19.421-13.689-12.491-45.21 20.448-39.82 12.76 2.09 26.522 7.773 38.94 14.215 5.659 2.921 11.024 6.013 15.889 8.983 14.202 8.653 24.078 16.341 24.078 16.341Z"/>
  <path fill="#6D7280" d="m604.009 388.408-32.34 31.142c-11.525-2.542-22.941-5.561-31.692-8.934l48.143-31.191c5.659 2.921 11.025 6.013 15.889 8.983Z" opacity=".3"/>
  <path fill="#6D7280" d="m537.502 409.033-32.52 18.88 47.857-.199 3.072-18.143-18.409-.538Z"/>
  <path fill="#FFCEB7" d="m565.99 404.868-10.08 4.703-3.072 18.144.653-.003 20.022.269 6.988-8.734-14.511-14.379Z"/>
  <path fill="#3E7FFF" d="M565.99 404.868s38.162-37.357 71.219-46.225c30.648-8.223 39.776 22.575 22.575 37.894-17.2 15.319-86.27 31.444-86.27 31.444l-7.524-23.113Z"/>
  <path fill="#6D7280" d="m573.664 428.573-.298-1.183c23.702-5.986 48.057-12.484 65.63-19.447l.451 1.136c-17.639 6.988-42.04 13.498-65.783 19.494Zm15.386-170.652c-3.432.28-6.671 1.125-9.528 3.158a16.193 16.193 0 0 0-5.388 6.722c-1.82 4.148-1.398 8.78-2.796 13.031-1.344 4.092-4.637 6.203-7.704 8.938-2.952 2.633-5.075 6.989-4.023 10.988a8.214 8.214 0 0 0 1.547 3.034c.548.686 2.221 2.662 3.164 2.667l51.906.23s9.646-9.035-1.455-19.599c-3.081-2.932-6.531-5.946-8.098-10.065-.968-2.544-1.454-5.226-2.183-7.838-.929-3.33-2.979-6.729-5.743-8.844-2.783-2.13-6.272-2.702-9.699-2.422Z"/>
  <path fill="#6D7280" d="M584.686 261.06s-8.651-6.584-.077-9.57c6.558-2.283 12.709.306 8.805 8.804l-8.728.766Z"/>
  <path fill="#FF5970" d="M586.953 294.075s-48.779 8.264-58.455 41.925c-9.677 33.662 49.204 35.843 49.204 35.843s57.827-1.98 68.108-11.252c10.281-9.273 15.521-56.237-53.213-66.114l-5.644-.402Z"/>
  <path fill="#FFD966" d="M590.097 312.485c-.316 0-.632-.013-.945-.039-3.506-.285-6.282-2.097-7.817-5.102l1.088-.556c1.335 2.614 3.76 4.191 6.828 4.44 3.757.316 7.808-1.43 9.859-4.218l.983.723c-2.115 2.878-6.12 4.752-9.996 4.752Zm-44.298 20.485-.768.95 25.514 20.625.768-.95-25.514-20.625Zm87.512.529-23.256 20.117.799.924 23.256-20.117-.799-.924Z"/>
  <path fill="#fff" d="M615.027 332.507h-50.772a3.09 3.09 0 0 0-3.09 3.091v35.408a3.09 3.09 0 0 0 3.09 3.09h50.772a3.09 3.09 0 0 0 3.09-3.09v-35.408a3.09 3.09 0 0 0-3.09-3.091Z"/>
  <path fill="#FFCEB7" d="m584.276 283.649-1.326 12.629a7.264 7.264 0 0 0 2.548 6.34 6.792 6.792 0 0 0 8.654.055l.116-.094a7.254 7.254 0 0 0 2.594-6.578l-1.64-12.575-10.946.223Z"/>
  <path fill="#6D7280" d="M584.035 286.247c3.866 7.579 8.23 7.733 11.56.192l-6.851-.881-4.709.689Z"/>
  <path fill="#FFCEB7" d="M589.916 289.003c5.105 0 9.243-5.415 9.243-12.096 0-6.68-4.138-12.096-9.243-12.096s-9.243 5.416-9.243 12.096c0 6.681 4.138 12.096 9.243 12.096Z"/>
  <path fill="#6D7280" d="M600.685 274.917s-9.263-.153-12.325-7.656c0 0-4.977 1.761-6.278 8.192l-3.523 1.225-.076-10.106 7.81-4.976 6.967.153 6.124 5.129 1.301 8.039Z"/>
  <path fill="#FFCEB7" d="M583.381 275.934c1.031 1.99.498 4.312-1.191 5.188-1.689.875-3.894-.027-4.926-2.017s-.499-4.312 1.19-5.188c1.689-.876 3.895.027 4.927 2.017Zm13.404 0c-1.031 1.99-.498 4.312 1.191 5.188 1.688.875 3.894-.027 4.926-2.017s.499-4.312-1.19-5.188c-1.689-.876-3.895.027-4.927 2.017Z"/>
</svg>
