<svg viewBox="0 0 675 434" fill="none" xmlns="http://www.w3.org/2000/svg">
<path d="M126.124 420.017C86.1876 409.529 65.116 367.441 54.4726 333.979C42.9682 297.816 40.8359 263.672 40.8156 263.33L40.7642 262.466L41.6063 262.672C92.0513 275.032 123.477 312.678 140.955 342.083C159.876 373.911 166.982 403.218 167.052 403.509L165.808 403.806C165.739 403.515 158.667 374.37 139.838 342.705C122.583 313.689 91.659 276.59 42.155 264.126C42.5678 269.674 45.2643 300.813 55.701 333.616C66.2473 366.76 87.0828 408.442 126.45 418.78L126.124 420.017Z" fill="#DDDDDD"/>
<path d="M150.685 409.789C126.006 369.55 93.9843 328.162 55.5076 286.777L56.4447 285.904C94.9788 327.353 127.053 368.808 151.776 409.119L150.685 409.789Z" fill="#DDDDDD"/>
<path d="M312.958 408.275C403.57 408.275 477.025 334.803 477.025 244.172C477.025 153.54 403.57 80.0688 312.958 80.0688C222.346 80.0688 148.891 153.54 148.891 244.172C148.891 334.803 222.346 408.275 312.958 408.275Z" fill="#FAFAFA"/>
<path d="M407.851 339.086C460.259 286.666 460.259 201.678 407.851 149.258C355.443 96.8391 270.473 96.8391 218.065 149.258C165.657 201.678 165.657 286.666 218.065 339.086C270.473 391.505 355.443 391.505 407.851 339.086Z" fill="white"/>
<path d="M312.958 346.266C369.331 346.266 415.03 300.557 415.03 244.172C415.03 187.787 369.331 142.078 312.958 142.078C256.585 142.078 210.886 187.787 210.886 244.172C210.886 300.557 256.585 346.266 312.958 346.266Z" fill="#FAFAFA"/>
<path d="M312.958 307.255C347.79 307.255 376.027 279.012 376.027 244.172C376.027 209.333 347.79 181.09 312.958 181.09C278.126 181.09 249.89 209.333 249.89 244.172C249.89 279.012 278.126 307.255 312.958 307.255Z" fill="white"/>
<path d="M327.625 258.841C335.724 250.74 335.724 237.604 327.625 229.503C319.525 221.401 306.392 221.401 298.292 229.503C290.193 237.604 290.193 250.74 298.292 258.841C306.392 266.943 319.525 266.943 327.625 258.841Z" fill="#FAFAFA"/>
<path d="M472.786 419.919C472.739 419.579 467.992 385.391 473.922 343.423C479.395 304.691 495.338 251.213 540.184 216.315C540.203 216.296 540.223 216.277 540.244 216.258L540.264 216.253C540.28 216.24 540.295 216.229 540.312 216.216L540.328 216.237L540.874 216.104L542.105 216.444L541.3 217.069C541.367 217.788 541.79 219.939 542.308 222.584C544.815 235.376 551.473 269.353 551.334 307.43C551.161 355.261 540.616 393.006 519.994 419.616L518.982 418.831C558.882 367.348 553.006 283.83 541.053 222.83C540.573 220.381 540.284 218.899 540.137 217.978C496.269 252.619 480.603 305.321 475.194 343.567C469.284 385.362 474.005 419.399 474.054 419.738L472.786 419.919Z" fill="#DDDDDD"/>
<path d="M491.423 419.552L490.169 419.299C492.872 405.867 495.344 392.599 497.734 379.768C506.861 330.765 514.742 288.445 531.258 256.082L532.397 256.664C515.966 288.863 508.1 331.098 498.991 380.003C496.601 392.837 494.129 406.11 491.423 419.552Z" fill="#DDDDDD"/>
<path d="M501.856 287.83L500.597 288.05L507.634 328.362L508.893 328.142L501.856 287.83Z" fill="#DDDDDD"/>
<path d="M537.288 328.776L502.102 356.859L502.9 357.859L538.086 329.776L537.288 328.776Z" fill="#DDDDDD"/>
<path d="M448.067 418.374C427.357 407.517 416.199 379.876 415.802 338.441C415.502 307.255 421.413 278.916 421.473 278.634L421.619 277.942L422.293 278.156C465.379 291.85 476.362 336.375 476.467 336.823L475.223 337.118C475.119 336.679 464.402 293.315 422.585 279.596C420.708 289.128 401.594 392.564 448.663 417.242L448.067 418.374Z" fill="#DDDDDD"/>
<path d="M462.278 419.913C462.186 419.206 452.792 348.812 435.251 309.34L436.421 308.82C454.036 348.462 463.453 419.038 463.547 419.746L462.278 419.913Z" fill="#DDDDDD"/>
<path d="M459.068 327.126L451.366 360.265L452.613 360.555L460.315 327.416L459.068 327.126Z" fill="#DDDDDD"/>
<path d="M434.233 361.139L433.401 362.111L455.621 381.119L456.452 380.147L434.233 361.139Z" fill="#DDDDDD"/>
<path d="M548.483 420.393L547.876 419.266C595.944 393.348 587.934 319.556 586.85 311.164C562.778 320.006 550.46 339.138 550.337 339.333L549.255 338.649C549.383 338.449 562.19 318.553 587.165 309.69L587.893 309.431L588.011 310.196C588.136 311.017 600.01 392.61 548.483 420.393Z" fill="#DDDDDD"/>
<path d="M537.05 416.845L535.871 416.347C536.102 415.8 559.117 361.49 573.966 344.631L574.925 345.476C560.214 362.181 537.28 416.3 537.05 416.845Z" fill="#DDDDDD"/>
<path d="M574.602 372.756L549.549 383.268L550.044 384.448L575.097 373.936L574.602 372.756Z" fill="#DDDDDD"/>
<path d="M430.099 315.599H289.991V419.154H430.099V315.599Z" fill="white"/>
<path d="M430.738 419.794H289.351V314.96H430.738V419.794ZM290.631 418.514H429.458V316.239H290.631V418.514Z" fill="#DDDDDD"/>
<path d="M430.098 386.807H351.402V388.087H430.098V386.807Z" fill="#DDDDDD"/>
<path d="M368.688 351.262H289.991V352.542H368.688V351.262Z" fill="#DDDDDD"/>
<path d="M234.215 418.725H165.533C133.941 418.725 110.038 390.148 115.613 359.046L115.704 358.54C117.43 348.912 121.902 339.989 128.582 332.845L170.534 287.976H227.886L270.871 332.943C279.459 341.927 284.451 353.753 284.898 366.175C285.93 394.887 262.94 418.725 234.215 418.725Z" fill="white"/>
<path d="M234.215 419.366H165.533C158.021 419.365 150.601 417.717 143.796 414.536C136.991 411.356 130.966 406.721 126.146 400.959C121.326 395.197 117.828 388.447 115.9 381.186C113.972 373.924 113.659 366.328 114.985 358.933L115.076 358.427C116.818 348.676 121.347 339.638 128.115 332.407L170.257 287.336H228.16L271.334 332.501C278.285 339.773 282.949 348.927 284.745 358.826C286.541 368.726 285.391 378.935 281.438 388.186C277.484 397.438 270.902 405.324 262.507 410.867C254.112 416.41 244.275 419.365 234.216 419.365L234.215 419.366ZM170.811 288.616L129.051 333.282C122.45 340.332 118.033 349.145 116.335 358.653L116.244 359.159C114.952 366.37 115.256 373.777 117.137 380.858C119.017 387.938 122.427 394.52 127.127 400.139C131.827 405.758 137.702 410.277 144.338 413.378C150.974 416.479 158.209 418.086 165.534 418.086H234.215C244.023 418.086 253.615 415.205 261.801 409.8C269.987 404.395 276.406 396.705 280.261 387.684C284.115 378.663 285.237 368.708 283.485 359.055C281.734 349.403 277.186 340.477 270.408 333.386L227.612 288.616H170.811Z" fill="#DDDDDD"/>
<path d="M193.565 397.48V388.339C187.114 388.049 180.859 386.316 177.199 384.2L180.091 372.935C184.136 375.145 189.81 377.169 196.073 377.169C201.559 377.169 205.314 375.052 205.314 371.203C205.314 367.543 202.233 365.229 195.109 362.822C184.81 359.357 177.779 354.544 177.779 345.206C177.779 336.732 183.751 330.092 194.05 328.069V318.92H203.48V327.395C209.931 327.685 214.265 329.033 217.44 330.57L214.65 341.45C212.15 340.391 207.721 338.172 200.785 338.172C194.53 338.172 192.508 340.869 192.508 343.566C192.508 346.741 195.878 348.764 204.06 351.845C215.511 355.89 220.136 361.182 220.136 369.852C220.136 378.421 214.069 385.736 203.002 387.664V397.479L193.565 397.48Z" fill="#DDDDDD"/>
<path d="M219.554 284.283H177.376L166.037 245.618C189.762 251.586 208.216 234.701 226.811 244.253L219.554 284.283Z" fill="white"/>
<path d="M220.089 284.924H176.896L165.109 244.724L166.193 244.997C177.343 247.805 187.231 245.51 196.792 243.294C207.265 240.867 217.156 238.573 227.103 243.684L227.525 243.9L220.089 284.924ZM177.855 283.644H219.02L226.096 244.61C216.705 239.993 207.169 242.204 197.08 244.542C187.677 246.719 177.962 248.97 166.961 246.496L177.855 283.644Z" fill="#DDDDDD"/>
<path d="M236.056 277.64H162.128C158.287 277.64 155.174 280.754 155.174 284.596V290.839C155.174 294.681 158.287 297.795 162.128 297.795H236.056C239.897 297.795 243.01 294.681 243.01 290.839V284.596C243.01 280.754 239.897 277.64 236.056 277.64Z" fill="white"/>
<path d="M233.71 298.434H164.474C161.839 298.431 159.312 297.383 157.449 295.519C155.585 293.655 154.537 291.128 154.534 288.492V286.941C154.537 284.305 155.586 281.778 157.449 279.914C159.313 278.051 161.839 277.002 164.474 276.999H233.71C236.345 277.002 238.872 278.051 240.735 279.914C242.599 281.778 243.647 284.305 243.65 286.941V288.492C243.647 291.128 242.599 293.655 240.735 295.519C238.872 297.383 236.345 298.431 233.71 298.434ZM164.474 278.28C162.178 278.282 159.977 279.196 158.353 280.82C156.73 282.443 155.816 284.645 155.814 286.942V288.492C155.816 290.788 156.73 292.99 158.353 294.614C159.977 296.238 162.178 297.151 164.474 297.154H233.71C236.006 297.151 238.207 296.238 239.831 294.614C241.455 292.99 242.368 290.788 242.371 288.492V286.941C242.368 284.644 241.455 282.443 239.831 280.819C238.207 279.195 236.006 278.282 233.71 278.279L164.474 278.28Z" fill="#DDDDDD"/>
<path d="M496.749 236.111C495.8 236.111 494.872 235.83 494.083 235.302C493.294 234.775 492.679 234.025 492.316 233.149C491.953 232.272 491.858 231.307 492.043 230.376C492.228 229.445 492.685 228.59 493.356 227.919C494.027 227.248 494.882 226.791 495.813 226.605C496.743 226.42 497.708 226.515 498.585 226.878C499.462 227.242 500.211 227.857 500.738 228.646C501.265 229.435 501.547 230.363 501.547 231.312C501.545 232.584 501.039 233.804 500.14 234.704C499.24 235.603 498.021 236.109 496.749 236.111ZM496.749 227.793C496.053 227.793 495.372 227.999 494.794 228.386C494.215 228.772 493.764 229.322 493.498 229.965C493.232 230.608 493.162 231.316 493.298 231.998C493.433 232.681 493.769 233.308 494.261 233.8C494.753 234.293 495.38 234.628 496.062 234.764C496.745 234.899 497.452 234.83 498.095 234.563C498.738 234.297 499.288 233.846 499.674 233.267C500.061 232.688 500.267 232.008 500.267 231.312C500.266 230.379 499.895 229.484 499.235 228.824C498.576 228.165 497.681 227.794 496.749 227.793Z" fill="#DDDDDD"/>
<path d="M356.115 268.531C355.166 268.53 354.238 268.249 353.449 267.722C352.66 267.194 352.045 266.445 351.682 265.568C351.319 264.691 351.224 263.726 351.409 262.795C351.594 261.864 352.051 261.009 352.722 260.338C353.393 259.667 354.248 259.21 355.179 259.025C356.11 258.84 357.074 258.935 357.951 259.298C358.828 259.661 359.577 260.276 360.104 261.065C360.631 261.855 360.913 262.782 360.913 263.732C360.911 265.004 360.405 266.224 359.506 267.123C358.606 268.023 357.387 268.529 356.115 268.531ZM356.115 260.212C355.419 260.212 354.738 260.419 354.16 260.805C353.581 261.192 353.13 261.742 352.864 262.385C352.598 263.028 352.528 263.735 352.664 264.418C352.799 265.101 353.134 265.728 353.627 266.22C354.119 266.712 354.746 267.047 355.428 267.183C356.111 267.319 356.818 267.249 357.461 266.983C358.104 266.717 358.653 266.266 359.04 265.687C359.427 265.108 359.633 264.428 359.633 263.732C359.632 262.798 359.261 261.904 358.601 261.244C357.942 260.584 357.047 260.213 356.115 260.212Z" fill="#DDDDDD"/>
<path d="M83.1644 253.387C82.2154 253.387 81.2879 253.106 80.4989 252.579C79.7099 252.051 79.095 251.302 78.7319 250.425C78.3688 249.548 78.2738 248.583 78.4589 247.652C78.644 246.721 79.101 245.866 79.772 245.195C80.443 244.524 81.2978 244.067 82.2285 243.882C83.1592 243.697 84.1239 243.792 85.0006 244.155C85.8773 244.518 86.6266 245.133 87.1538 245.922C87.681 246.711 87.9625 247.639 87.9625 248.588C87.9611 249.861 87.4551 251.08 86.5555 251.98C85.656 252.88 84.4365 253.386 83.1644 253.387ZM83.1644 245.069C82.4685 245.069 81.7882 245.275 81.2096 245.662C80.6309 246.049 80.18 246.598 79.9137 247.241C79.6473 247.885 79.5777 248.592 79.7134 249.275C79.8492 249.958 80.1843 250.585 80.6764 251.077C81.1685 251.569 81.7954 251.904 82.4779 252.04C83.1605 252.176 83.8679 252.106 84.5108 251.84C85.1538 251.573 85.7033 251.122 86.0899 250.544C86.4765 249.965 86.6829 249.284 86.6829 248.588C86.682 247.655 86.3109 246.761 85.6513 246.101C84.9916 245.441 84.0972 245.07 83.1644 245.069Z" fill="#DDDDDD"/>
<path d="M23.6697 328.251C25.4361 328.251 26.8682 326.819 26.8682 325.052C26.8682 323.285 25.4361 321.853 23.6697 321.853C21.9032 321.853 20.4711 323.285 20.4711 325.052C20.4711 326.819 21.9032 328.251 23.6697 328.251Z" fill="#DDDDDD"/>
<path d="M634.61 300.737C636.376 300.737 637.808 299.305 637.808 297.538C637.808 295.771 636.376 294.339 634.61 294.339C632.843 294.339 631.411 295.771 631.411 297.538C631.411 299.305 632.843 300.737 634.61 300.737Z" fill="#DDDDDD"/>
<path d="M492.567 56.5538H394.186L394.277 55.8333C395.409 46.8861 404.659 40.1379 415.794 40.1379C419.284 40.1235 422.739 40.8211 425.95 42.1881C429.941 31.6976 438.996 24.959 449.195 24.959C459.872 24.959 469.324 32.4318 472.94 43.6383C474.899 42.6233 477.073 42.0951 479.28 42.0981C486.659 42.0981 492.663 47.8987 492.663 55.0285C492.663 55.344 492.653 55.6603 492.623 55.9758L492.567 56.5538ZM395.658 55.2739H491.381C491.382 55.1921 491.383 55.1103 491.383 55.0285C491.383 48.6042 485.954 43.378 479.281 43.378C477.032 43.3735 474.823 43.9798 472.891 45.132L472.183 45.5562L471.949 44.7634C468.684 33.6837 459.541 26.2391 449.196 26.2391C439.337 26.2391 430.592 32.9232 426.917 43.2687L426.681 43.9342L426.042 43.6335C422.83 42.1552 419.332 41.3989 415.796 41.4178C405.607 41.4175 397.106 47.3243 395.658 55.2739Z" fill="#DDDDDD"/>
<path d="M598.502 22.2357H527.904L528.008 21.5054C528.833 15.732 535.512 11.3781 543.546 11.3781C545.989 11.367 548.414 11.7921 550.707 12.6333C552.17 9.32584 554.582 6.52801 557.638 4.59542C560.695 2.66283 564.256 1.68275 567.871 1.77976C571.485 1.87676 574.989 3.04647 577.937 5.14021C580.885 7.23394 583.145 10.1572 584.428 13.5383C585.825 12.9276 587.334 12.6144 588.858 12.6185C594.227 12.6185 598.594 16.3945 598.594 21.0353C598.595 21.2452 598.585 21.4551 598.563 21.664L598.502 22.2357ZM529.417 20.9561H597.315C597.264 17.0566 593.49 13.8988 588.858 13.8988C587.294 13.8916 585.751 14.2666 584.364 14.9911L583.694 15.3462L583.455 14.6285C582.354 11.3373 580.269 8.4634 577.483 6.39484C574.697 4.32629 571.344 3.16273 567.875 3.06129C564.407 2.95984 560.991 3.9254 558.089 5.82758C555.186 7.72976 552.938 10.4769 551.646 13.6981L551.405 14.3005L550.807 14.0505C548.501 13.1163 546.033 12.6435 543.545 12.6589C536.499 12.6577 530.599 16.1765 529.417 20.9561Z" fill="#DDDDDD"/>
<path d="M201.612 55.6684H115.005L114.945 55.0959C114.919 54.8443 114.907 54.5915 114.908 54.3385C114.908 48.7066 120.218 44.1251 126.745 44.1251C128.655 44.1195 130.543 44.5231 132.283 45.3085C133.832 41.139 136.591 37.5279 140.208 34.9393C143.824 32.3508 148.132 30.903 152.577 30.7822C157.023 30.6613 161.403 31.8728 165.154 34.261C168.906 36.6492 171.858 40.1049 173.631 44.1842C176.476 43.1216 179.49 42.5845 182.527 42.5988C192.344 42.5988 200.505 47.904 201.508 54.9387L201.612 55.6684ZM116.187 54.3885H200.107C198.741 48.3468 191.359 43.8777 182.527 43.8777C179.444 43.8584 176.387 44.4441 173.53 45.6016L172.932 45.8516L172.69 45.2492C171.089 41.2557 168.301 37.8499 164.703 35.4917C161.105 33.1334 156.87 31.9364 152.571 32.0622C148.271 32.1881 144.113 33.6307 140.659 36.1953C137.205 38.7599 134.621 42.323 133.256 46.4033L133.017 47.1209L132.349 46.7662C130.62 45.8632 128.697 45.3958 126.746 45.4045C120.924 45.4045 116.188 49.4125 116.188 54.3383L116.187 54.3885Z" fill="#DDDDDD"/>
<path d="M347.772 0C347.772 0 323.802 37.7292 283.487 46.2302V3.42266C283.487 3.42266 313.536 13.6906 347.772 0Z" fill="#FF5970"/>
<path d="M284.126 3.42236H282.847V81.0139H284.126V3.42236Z" fill="#0D0D0D"/>
<path d="M297.034 76.2883H269.928V147.055H297.034V76.2883Z" fill="#699BFF"/>
<path d="M260.189 95.1266V113.699H306.773V95.1266H260.189Z" fill="#699BFF"/>
<path d="M306.351 127.013H260.611V148.769H306.351V127.013Z" fill="#699BFF"/>
<g opacity="0.3">
<path d="M306.351 136.625H260.611V148.769H306.351V136.625Z" fill="#0036A0"/>
<path d="M306.351 136.625H260.611V148.769H306.351V136.625Z" fill="black" fill-opacity="0.2"/>
</g>
<path d="M316.595 197.732H250.367V335.529H316.595V197.732Z" fill="#699BFF"/>
<g opacity="0.3">
<path d="M316.595 197.732H250.367V212.996H316.595V197.732Z" fill="#0036A0"/>
<path d="M316.595 197.732H250.367V212.996H316.595V197.732Z" fill="black" fill-opacity="0.2"/>
</g>
<path d="M347.538 419.523H219.414L241.035 360.885L250.363 335.585H316.601L325.929 360.885L347.538 419.523Z" fill="#699BFF"/>
<g opacity="0.3">
<path d="M325.928 360.885H241.037L250.365 335.585H316.602L325.928 360.885Z" fill="#0036A0"/>
<path d="M325.928 360.885H241.037L250.365 335.585H316.602L325.928 360.885Z" fill="black" fill-opacity="0.2"/>
</g>
<path d="M329.826 144.187H237.137L250.368 197.732H316.596L329.826 144.187Z" fill="#699BFF"/>
<path d="M321.161 192.426H245.801C243.61 192.426 241.834 194.202 241.834 196.394V199.071C241.834 201.262 243.61 203.039 245.801 203.039H321.161C323.352 203.039 325.128 201.262 325.128 199.071V196.394C325.128 194.202 323.352 192.426 321.161 192.426Z" fill="#699BFF"/>
<path d="M322.124 325.94H244.839C240.88 325.94 237.671 329.15 237.671 333.11V337.948C237.671 341.907 240.88 345.117 244.839 345.117H322.124C326.083 345.117 329.292 341.907 329.292 337.948V333.11C329.292 329.15 326.083 325.94 322.124 325.94Z" fill="#699BFF"/>
<path d="M283.399 326.332H247.415C247.245 326.332 247.082 326.265 246.962 326.145C246.842 326.025 246.775 325.862 246.775 325.692C246.775 325.523 246.842 325.36 246.962 325.24C247.082 325.12 247.245 325.052 247.415 325.052H283.399C283.569 325.052 283.732 325.12 283.852 325.24C283.972 325.36 284.039 325.523 284.039 325.692C284.039 325.862 283.972 326.025 283.852 326.145C283.732 326.265 283.569 326.332 283.399 326.332Z" fill="#0036A0"/>
<path d="M283.399 326.332H247.415C247.245 326.332 247.082 326.265 246.962 326.145C246.842 326.025 246.775 325.862 246.775 325.692C246.775 325.523 246.842 325.36 246.962 325.24C247.082 325.12 247.245 325.052 247.415 325.052H283.399C283.569 325.052 283.732 325.12 283.852 325.24C283.972 325.36 284.039 325.523 284.039 325.692C284.039 325.862 283.972 326.025 283.852 326.145C283.732 326.265 283.569 326.332 283.399 326.332Z" fill="black" fill-opacity="0.2"/>
<path d="M319.864 326.332H299.393C299.223 326.332 299.06 326.265 298.941 326.145C298.821 326.025 298.753 325.862 298.753 325.692C298.753 325.523 298.821 325.36 298.941 325.24C299.06 325.12 299.223 325.052 299.393 325.052H319.864C320.034 325.052 320.196 325.12 320.316 325.24C320.436 325.36 320.504 325.523 320.504 325.692C320.504 325.862 320.436 326.025 320.316 326.145C320.196 326.265 320.034 326.332 319.864 326.332Z" fill="#0036A0"/>
<path d="M319.864 326.332H299.393C299.223 326.332 299.06 326.265 298.941 326.145C298.821 326.025 298.753 325.862 298.753 325.692C298.753 325.523 298.821 325.36 298.941 325.24C299.06 325.12 299.223 325.052 299.393 325.052H319.864C320.034 325.052 320.196 325.12 320.316 325.24C320.436 325.36 320.504 325.523 320.504 325.692C320.504 325.862 320.436 326.025 320.316 326.145C320.196 326.265 320.034 326.332 319.864 326.332Z" fill="black" fill-opacity="0.2"/>
<path d="M319.823 193.066H287.558C287.388 193.066 287.225 192.998 287.105 192.878C286.985 192.758 286.918 192.595 286.918 192.426C286.918 192.256 286.985 192.093 287.105 191.973C287.225 191.853 287.388 191.786 287.558 191.786H319.823C319.992 191.786 320.155 191.853 320.275 191.973C320.395 192.093 320.462 192.256 320.462 192.426C320.462 192.595 320.395 192.758 320.275 192.878C320.155 192.998 319.992 193.066 319.823 193.066Z" fill="#0036A0"/>
<path d="M319.823 193.066H287.558C287.388 193.066 287.225 192.998 287.105 192.878C286.985 192.758 286.918 192.595 286.918 192.426C286.918 192.256 286.985 192.093 287.105 191.973C287.225 191.853 287.388 191.786 287.558 191.786H319.823C319.992 191.786 320.155 191.853 320.275 191.973C320.395 192.093 320.462 192.256 320.462 192.426C320.462 192.595 320.395 192.758 320.275 192.878C320.155 192.998 319.992 193.066 319.823 193.066Z" fill="black" fill-opacity="0.2"/>
<path d="M269.326 193.066H248.854C248.685 193.066 248.522 192.998 248.402 192.878C248.282 192.758 248.215 192.595 248.215 192.426C248.215 192.256 248.282 192.093 248.402 191.973C248.522 191.853 248.685 191.786 248.854 191.786H269.326C269.496 191.786 269.658 191.853 269.778 191.973C269.898 192.093 269.966 192.256 269.966 192.426C269.966 192.595 269.898 192.758 269.778 192.878C269.658 192.998 269.496 193.066 269.326 193.066Z" fill="#0036A0"/>
<path d="M269.326 193.066H248.854C248.685 193.066 248.522 192.998 248.402 192.878C248.282 192.758 248.215 192.595 248.215 192.426C248.215 192.256 248.282 192.093 248.402 191.973C248.522 191.853 248.685 191.786 248.854 191.786H269.326C269.496 191.786 269.658 191.853 269.778 191.973C269.898 192.093 269.966 192.256 269.966 192.426C269.966 192.595 269.898 192.758 269.778 192.878C269.658 192.998 269.496 193.066 269.326 193.066Z" fill="black" fill-opacity="0.2"/>
<path opacity="0.15" d="M347.538 419.523H327.131L326.261 419.113L300.672 345.528C309.308 336.57 303.231 326.012 303.231 326.012L294.914 203.159C299.879 198.207 294.914 192.92 294.914 192.92L311.867 144.188H329.831L317.906 192.422H319.825C321.234 192.422 322.584 192.981 323.58 193.977C324.576 194.973 325.135 196.324 325.135 197.733C325.135 199.141 324.576 200.492 323.58 201.488C322.584 202.484 321.234 203.044 319.825 203.044H316.601V325.936H319.711C322.217 325.935 324.625 326.918 326.416 328.672C328.207 330.427 329.239 332.813 329.291 335.32C329.343 337.827 328.41 340.255 326.693 342.082C324.976 343.909 322.612 344.99 320.107 345.093L325.929 360.885L347.538 419.523Z" fill="white"/>
<path d="M442.448 239.802H388.738V351.554H442.448V239.802Z" fill="#93B7FF"/>
<path opacity="0.3" d="M442.448 239.802H388.738V253.191H442.448V239.802Z" fill="#0144C9"/>
<path d="M442.449 239.797H388.737L398.781 224.357L399.881 222.674H429.718L431.536 225.105L442.449 239.797Z" fill="#93B7FF"/>
<path d="M467.551 419.663H363.634L382.16 369.421L388.737 351.594H442.449L449.026 369.421L467.551 419.663Z" fill="#93B7FF"/>
<path opacity="0.3" d="M449.025 369.421H382.161L388.738 351.594H442.45L449.025 369.421Z" fill="#0144C9"/>
<path d="M415.593 232.77C428.116 232.77 438.268 220.345 438.268 205.018C438.268 189.692 428.116 177.267 415.593 177.267C403.07 177.267 392.918 189.692 392.918 205.018C392.918 220.345 403.07 232.77 415.593 232.77Z" fill="#93B7FF"/>
<path d="M413.868 167.042H417.319C417.991 167.042 418.657 167.174 419.278 167.431C419.899 167.688 420.463 168.066 420.938 168.541C421.414 169.016 421.791 169.581 422.048 170.202C422.305 170.823 422.438 171.489 422.438 172.161V182.568H408.749V172.161C408.749 170.803 409.288 169.501 410.248 168.541C411.208 167.581 412.51 167.042 413.868 167.042Z" fill="#93B7FF"/>
<path d="M446.151 235.499H385.035C383.258 235.499 381.818 236.939 381.818 238.717V240.888C381.818 242.665 383.258 244.106 385.035 244.106H446.151C447.928 244.106 449.369 242.665 449.369 240.888V238.717C449.369 236.939 447.928 235.499 446.151 235.499Z" fill="#93B7FF"/>
<path d="M446.932 343.778H384.255C381.044 343.778 378.441 346.381 378.441 349.593V353.516C378.441 356.727 381.044 359.33 384.255 359.33H446.932C450.143 359.33 452.745 356.727 452.745 353.516V349.593C452.745 346.381 450.143 343.778 446.932 343.778Z" fill="#93B7FF"/>
<path d="M439.653 236.111H427.124C427.04 236.111 426.957 236.095 426.88 236.062C426.802 236.03 426.732 235.983 426.672 235.924C426.613 235.864 426.566 235.794 426.533 235.716C426.501 235.639 426.485 235.555 426.485 235.471C426.485 235.387 426.501 235.304 426.533 235.226C426.566 235.149 426.613 235.078 426.672 235.019C426.732 234.959 426.802 234.912 426.88 234.88C426.957 234.848 427.04 234.831 427.124 234.831H439.653C439.737 234.831 439.82 234.848 439.898 234.88C439.975 234.912 440.046 234.959 440.105 235.019C440.165 235.078 440.212 235.149 440.244 235.226C440.276 235.304 440.293 235.387 440.293 235.471C440.293 235.555 440.276 235.639 440.244 235.716C440.212 235.794 440.165 235.864 440.105 235.924C440.046 235.983 439.975 236.03 439.898 236.062C439.82 236.095 439.737 236.111 439.653 236.111Z" fill="#3E7FFF"/>
<path d="M417.529 236.111H390.98C390.896 236.111 390.813 236.095 390.735 236.062C390.658 236.03 390.587 235.983 390.528 235.924C390.468 235.864 390.421 235.794 390.389 235.716C390.357 235.639 390.34 235.555 390.34 235.471C390.34 235.387 390.357 235.304 390.389 235.226C390.421 235.149 390.468 235.078 390.528 235.019C390.587 234.959 390.658 234.912 390.735 234.88C390.813 234.848 390.896 234.831 390.98 234.831H417.529C417.698 234.831 417.861 234.899 417.981 235.019C418.101 235.139 418.169 235.302 418.169 235.471C418.169 235.641 418.101 235.804 417.981 235.924C417.861 236.044 417.698 236.111 417.529 236.111Z" fill="#3E7FFF"/>
<path d="M401.429 344.417H386.216C386.046 344.417 385.883 344.35 385.763 344.23C385.643 344.11 385.576 343.947 385.576 343.778C385.576 343.608 385.643 343.445 385.763 343.325C385.883 343.205 386.046 343.138 386.216 343.138H401.429C401.599 343.138 401.761 343.205 401.881 343.325C402.001 343.445 402.069 343.608 402.069 343.778C402.069 343.947 402.001 344.11 401.881 344.23C401.761 344.35 401.599 344.417 401.429 344.417Z" fill="#3E7FFF"/>
<path d="M443.011 344.417H411.804C411.634 344.417 411.472 344.35 411.352 344.23C411.232 344.11 411.164 343.947 411.164 343.778C411.164 343.608 411.232 343.445 411.352 343.325C411.472 343.205 411.634 343.138 411.804 343.138H443.011C443.18 343.138 443.343 343.205 443.463 343.325C443.583 343.445 443.65 343.608 443.65 343.778C443.65 343.947 443.583 344.11 443.463 344.23C443.343 344.35 443.18 344.417 443.011 344.417H443.011Z" fill="#3E7FFF"/>
<path opacity="0.15" d="M467.551 419.663H445.595L433.415 359.285C439.492 354.486 434.374 344.568 434.374 344.568L432.033 244.212C435.436 237.813 430.215 235.573 430.215 235.573L425.097 224.171C437.891 209.134 422.435 178.625 422.435 178.625C422.495 178.623 422.555 178.627 422.615 178.638C431.699 182.247 438.262 192.69 438.262 205.013C438.262 212.82 435.627 219.871 431.392 224.913L431.533 225.105L439.247 235.496H445.069C446.211 235.496 447.306 235.95 448.113 236.757C448.921 237.565 449.374 238.66 449.374 239.802C449.374 240.944 448.921 242.039 448.113 242.847C447.306 243.655 446.211 244.108 445.069 244.108H442.446V343.774H444.967C447 343.771 448.954 344.566 450.408 345.988C451.862 347.41 452.701 349.345 452.745 351.379C452.788 353.413 452.033 355.382 450.641 356.865C449.249 358.348 447.331 359.226 445.299 359.31L449.023 369.42L467.551 419.663Z" fill="white"/>
<path d="M158.996 379.162C158.996 379.162 160.688 418.341 163.784 419.413C166.881 420.485 211.154 413.085 213.438 411.222C215.722 409.359 209.879 402.021 184.619 400.758L181.111 377.91L158.996 379.162Z" fill="#0D0D0D"/>
<path d="M177.098 397.994C176.44 398.015 175.791 397.839 175.234 397.488C174.678 397.138 174.238 396.629 173.972 396.028C173.706 395.426 173.626 394.758 173.741 394.111C173.857 393.463 174.163 392.865 174.621 392.392C175.079 391.92 175.667 391.595 176.311 391.459C176.954 391.323 177.624 391.382 178.234 391.629C178.843 391.876 179.365 392.3 179.733 392.846C180.1 393.391 180.297 394.034 180.296 394.692C180.309 395.554 179.979 396.386 179.379 397.004C178.78 397.623 177.959 397.979 177.098 397.994ZM177.098 392.348C176.63 392.327 176.167 392.447 175.768 392.691C175.369 392.936 175.052 393.294 174.859 393.72C174.665 394.146 174.604 394.621 174.682 395.082C174.76 395.544 174.975 395.971 175.298 396.31C175.621 396.648 176.038 396.882 176.496 396.981C176.953 397.08 177.429 397.041 177.864 396.867C178.298 396.693 178.671 396.393 178.933 396.005C179.196 395.618 179.336 395.16 179.337 394.692C179.349 394.085 179.121 393.497 178.701 393.058C178.281 392.619 177.705 392.364 177.098 392.349V392.348Z" fill="white"/>
<path d="M184.232 400.521L177.404 406.911L178.278 407.846L185.107 401.456L184.232 400.521Z" fill="white"/>
<path d="M61.4731 362.536C61.4731 362.536 39.3829 383.7 40.3776 387.679C41.3724 391.659 55.6451 415.818 57.7527 417.926C59.0789 419.253 60.2064 419.518 72.939 419.518H78.576C78.4435 415.008 72.3095 408.673 68.6286 408.773L67.0369 392.853L79.1065 379.189L61.4731 362.536Z" fill="#0D0D0D"/>
<path d="M58.2595 391.6L58.1705 392.877L66.9925 393.492L67.0815 392.215L58.2595 391.6Z" fill="white"/>
<path d="M65.3588 387.813C64.7367 387.814 64.1285 387.629 63.6112 387.284C63.0939 386.938 62.6907 386.447 62.4525 385.872C62.2144 385.297 62.152 384.664 62.2732 384.054C62.3945 383.444 62.6939 382.883 63.1337 382.443C63.5735 382.003 64.1339 381.703 64.7441 381.582C65.3542 381.46 65.9866 381.522 66.5614 381.76C67.1362 381.998 67.6275 382.402 67.9733 382.919C68.319 383.436 68.5036 384.044 68.5037 384.667C68.5027 385.501 68.1711 386.3 67.5816 386.89C66.992 387.48 66.1927 387.812 65.3588 387.813ZM65.3588 382.481C64.9264 382.481 64.5036 382.609 64.144 382.849C63.7844 383.089 63.5041 383.431 63.3385 383.83C63.173 384.23 63.1296 384.67 63.214 385.094C63.2983 385.518 63.5065 385.908 63.8123 386.214C64.1181 386.519 64.5076 386.728 64.9318 386.812C65.3559 386.896 65.7955 386.853 66.195 386.687C66.5945 386.522 66.9359 386.241 67.176 385.882C67.4162 385.522 67.5443 385.099 67.5442 384.667C67.5433 384.087 67.3127 383.532 66.9031 383.122C66.4935 382.712 65.9381 382.482 65.3588 382.481Z" fill="white"/>
<path d="M152.984 294.557C152.665 300.456 147.431 310.144 139.947 321.137C119.693 350.955 82.9469 390.46 82.9469 390.46L54.2999 365.39L110.238 278.829C110.814 267.042 111.529 258.506 112.272 252.338C114.562 233.078 117.172 236.841 117.172 236.841C117.172 236.841 121.958 241.473 128.048 248.435C132.488 253.528 137.631 259.863 142.083 266.53C145.231 271.253 148.046 276.141 150.029 280.876C152.05 285.714 153.215 290.385 152.984 294.557Z" fill="#3E7FFF"/>
<path d="M75.7532 383.335L74.8835 382.396C105.23 354.291 123.238 326.898 133.001 308.867C143.581 289.329 147.027 276.269 147.061 276.141L148.299 276.46C148.164 276.982 134.123 329.277 75.7532 383.335Z" fill="#0144C9"/>
<path d="M60.4413 356.902L59.6512 357.909L83.2868 376.458L84.0768 375.451L60.4413 356.902Z" fill="#0144C9"/>
<path d="M152.984 294.557C152.665 300.456 147.431 310.144 139.947 321.137C127.064 298.44 117.464 275.532 112.272 252.338L128.048 248.435L131.579 247.565L142.083 266.531L150.029 280.876C152.05 285.713 153.215 290.384 152.984 294.557Z" fill="#0144C9"/>
<path d="M191.483 387.197L182.655 387.938L159.586 389.883L153.894 390.37L145.603 312.332L144.618 303.079C144.618 303.079 120.871 268.577 118.363 264.7C115.498 260.272 113.54 256.138 112.273 252.338C108.243 240.398 110.982 231.593 113.911 226.372C113.953 226.28 114 226.19 114.052 226.103C116.048 222.634 118.082 220.831 118.082 220.831L133.372 222.712L162.312 226.269C163.515 233.333 164.909 239.489 166.406 244.941C172.445 266.875 180.237 277.6 184.421 291.139C190.69 311.436 191.483 387.197 191.483 387.197Z" fill="#3E7FFF"/>
<path opacity="0.3" d="M166.406 244.941L113.91 226.372L113.449 226.205L114.051 226.102L133.37 222.711L162.311 226.269C163.514 233.334 164.909 239.489 166.406 244.941Z" fill="#0D0D0D"/>
<path d="M182.015 387.942C182.01 387.167 181.375 310.156 169.604 288.243C154.387 259.916 144.902 219.808 144.808 219.407L146.054 219.115C146.147 219.516 155.595 259.462 170.731 287.639C182.652 309.829 183.274 384.756 183.294 387.935L182.015 387.942Z" fill="#0144C9"/>
<path d="M182.422 377.841L153.156 380.567L153.274 381.842L182.541 379.116L182.422 377.841Z" fill="#0144C9"/>
<path d="M159.719 127.493C160.443 140.399 157.853 144.85 150.674 144.127C146.677 143.726 134.891 135.925 134.891 127.279C134.891 118.634 140.919 111.761 148.353 111.625C158.333 111.443 159.197 118.198 159.719 127.493Z" fill="#FFCEB7"/>
<path d="M152.929 135.504L136.35 133.647L136.804 145.313C141.281 146.743 148.987 149.251 153.659 150.775L152.929 135.504Z" fill="#FFCEB7"/>
<path d="M136.645 142.275L137.41 160.844L154.254 163.232L153.499 147.737C148.828 146.212 141.122 143.704 136.645 142.275Z" fill="#BDD3FF"/>
<path d="M137.643 130.696C137.643 130.696 140.586 119.014 145.899 120.746C159.328 125.124 165.771 117.896 162.71 106.319C162.71 106.319 158.394 109.518 153.898 108.753C149.403 107.987 146.055 101.673 135.916 112.389C128.359 112.006 126.446 128.654 135.246 133.82L137.643 130.696Z" fill="#0D0D0D"/>
<path d="M137.824 135.543C139.962 134.415 140.478 131.194 138.977 128.349C137.476 125.504 134.526 124.112 132.388 125.241C130.25 126.37 129.734 129.591 131.235 132.436C132.736 135.28 135.686 136.672 137.824 135.543Z" fill="#FFCEB7"/>
<path d="M152.894 145.009H152.888C145.721 144.928 142.665 141.552 142.539 141.408C142.455 141.312 142.413 141.188 142.421 141.061C142.429 140.935 142.487 140.816 142.582 140.732C142.677 140.648 142.801 140.605 142.928 140.613C143.055 140.62 143.173 140.678 143.257 140.772C143.286 140.804 146.189 143.974 152.9 144.05C153.027 144.05 153.149 144.102 153.238 144.192C153.328 144.283 153.377 144.405 153.377 144.532C153.376 144.66 153.325 144.781 153.234 144.871C153.144 144.96 153.021 145.01 152.894 145.009Z" fill="#FFCEB7"/>
<path d="M136.821 132.172C136.739 132.172 136.66 132.141 136.601 132.084C136.541 132.027 136.506 131.95 136.502 131.867C136.451 130.764 136.124 129.959 135.531 129.474C134.848 128.915 133.967 128.911 133.352 129.009C133.269 129.02 133.186 128.998 133.119 128.948C133.052 128.898 133.008 128.824 132.995 128.741C132.982 128.659 133.002 128.575 133.05 128.507C133.098 128.439 133.171 128.392 133.253 128.377C134.323 128.21 135.251 128.418 135.936 128.978C136.677 129.584 137.081 130.545 137.141 131.837C137.143 131.879 137.136 131.921 137.122 131.961C137.108 132.001 137.086 132.037 137.058 132.068C137.03 132.099 136.995 132.124 136.957 132.142C136.919 132.16 136.878 132.17 136.836 132.172C136.831 132.172 136.827 132.172 136.821 132.172Z" fill="#0D0D0D"/>
<path d="M158.759 128.107C158.759 128.333 158.692 128.555 158.566 128.744C158.44 128.932 158.261 129.079 158.052 129.166C157.842 129.253 157.612 129.276 157.389 129.231C157.167 129.187 156.963 129.078 156.802 128.918C156.642 128.757 156.533 128.553 156.488 128.331C156.444 128.108 156.467 127.878 156.554 127.668C156.64 127.459 156.787 127.279 156.976 127.153C157.164 127.027 157.386 126.96 157.613 126.96C157.917 126.96 158.208 127.081 158.423 127.296C158.638 127.511 158.759 127.803 158.759 128.107Z" fill="#0D0D0D"/>
<path d="M151.029 128.693C151.029 128.92 150.961 129.142 150.835 129.33C150.709 129.519 150.53 129.665 150.321 129.752C150.112 129.839 149.881 129.862 149.659 129.817C149.436 129.773 149.232 129.664 149.072 129.504C148.912 129.343 148.803 129.139 148.758 128.917C148.714 128.694 148.737 128.464 148.824 128.254C148.91 128.045 149.057 127.866 149.246 127.74C149.434 127.614 149.656 127.547 149.883 127.547C150.033 127.547 150.182 127.576 150.321 127.634C150.46 127.692 150.587 127.776 150.693 127.882C150.799 127.989 150.884 128.115 150.941 128.254C150.999 128.394 151.029 128.543 151.029 128.693Z" fill="#0D0D0D"/>
<path d="M155.621 133.802C155.55 133.801 155.481 133.778 155.424 133.734C155.368 133.69 155.328 133.628 155.311 133.559C155.294 133.49 155.3 133.417 155.329 133.352C155.357 133.287 155.407 133.233 155.47 133.2C156.096 132.864 156.412 132.499 156.359 132.172C156.295 131.783 155.731 131.391 155.075 131.28L154.872 131.245L154.291 129.064C154.28 129.023 154.277 128.981 154.283 128.939C154.288 128.897 154.302 128.857 154.323 128.821C154.344 128.785 154.372 128.753 154.405 128.727C154.439 128.702 154.477 128.683 154.518 128.672C154.558 128.661 154.6 128.658 154.642 128.664C154.684 128.669 154.724 128.683 154.76 128.704C154.797 128.725 154.829 128.753 154.854 128.787C154.88 128.82 154.898 128.858 154.909 128.899L155.388 130.692C156.131 130.876 156.878 131.381 156.99 132.069C157.062 132.506 156.908 133.154 155.772 133.763C155.726 133.789 155.674 133.802 155.621 133.802Z" fill="#0D0D0D"/>
<path d="M154.046 137.625C153.155 137.61 152.282 137.374 151.504 136.939C151.431 136.895 151.379 136.825 151.358 136.742C151.338 136.66 151.351 136.573 151.394 136.5C151.438 136.427 151.508 136.375 151.591 136.354C151.673 136.334 151.76 136.347 151.833 136.39C151.852 136.401 153.836 137.559 155.622 136.597C155.659 136.576 155.7 136.563 155.742 136.558C155.784 136.553 155.826 136.557 155.867 136.569C155.908 136.581 155.946 136.6 155.979 136.627C156.012 136.654 156.039 136.687 156.059 136.724C156.08 136.761 156.092 136.802 156.096 136.844C156.1 136.887 156.096 136.929 156.084 136.97C156.071 137.01 156.051 137.048 156.024 137.081C155.996 137.113 155.963 137.14 155.925 137.16C155.348 137.47 154.702 137.63 154.046 137.625Z" fill="#0D0D0D"/>
<path d="M146.439 126.116C146.757 125.774 147.144 125.503 147.574 125.322C148.007 125.137 148.469 125.028 148.939 125.001C149.413 124.98 149.887 125.049 150.335 125.204C150.775 125.358 151.175 125.607 151.509 125.931C151.539 125.96 151.559 125.998 151.566 126.039C151.572 126.079 151.566 126.121 151.547 126.158C151.528 126.195 151.498 126.225 151.46 126.243C151.423 126.261 151.381 126.267 151.341 126.26L151.321 126.256C150.896 126.175 150.518 126.054 150.126 126.017C149.748 125.95 149.363 125.928 148.98 125.952C148.188 125.99 147.407 126.147 146.661 126.418L146.638 126.426C146.598 126.438 146.555 126.437 146.516 126.422C146.478 126.408 146.444 126.381 146.422 126.346C146.4 126.311 146.389 126.27 146.392 126.229C146.395 126.187 146.411 126.148 146.439 126.117L146.439 126.116Z" fill="#0D0D0D"/>
<path d="M158.941 125.314C158.348 125.243 157.75 125.241 157.157 125.309C156.881 125.337 156.61 125.404 156.352 125.506C156.066 125.61 155.785 125.729 155.511 125.862L155.487 125.871C155.45 125.886 155.41 125.89 155.371 125.881C155.333 125.873 155.298 125.853 155.271 125.824C155.244 125.795 155.226 125.759 155.22 125.72C155.213 125.681 155.219 125.641 155.236 125.605C155.397 125.265 155.648 124.974 155.961 124.764C156.283 124.552 156.65 124.416 157.033 124.367C157.403 124.32 157.778 124.35 158.135 124.456C158.493 124.561 158.825 124.74 159.11 124.98C159.139 125.006 159.16 125.042 159.169 125.081C159.178 125.12 159.174 125.16 159.159 125.197C159.144 125.234 159.117 125.265 159.084 125.287C159.05 125.308 159.01 125.318 158.97 125.316L158.941 125.314Z" fill="#0D0D0D"/>
<path opacity="0.4" d="M148.375 134.89C149.39 133.875 149.39 132.229 148.375 131.214C147.36 130.199 145.715 130.199 144.7 131.214C143.685 132.229 143.685 133.875 144.7 134.89C145.715 135.906 147.36 135.906 148.375 134.89Z" fill="#FF5970"/>
<path d="M208.888 156.649L219.108 148.306C221.198 146.578 223.379 144.963 225.641 143.467C227.762 142.084 231.549 139.212 236.998 133.587C236.998 133.587 242.248 127.128 241.375 132.082C240.502 137.036 237.935 158.042 227.579 160.064L215.586 171.574L208.888 156.649Z" fill="#FFCEB7"/>
<path d="M215.454 151.276L187.866 170.247L149.004 153.266L151.524 181.921L178.934 190.764C182.516 191.919 186.309 192.269 190.042 191.789C193.775 191.308 197.356 190.009 200.529 187.984L222.814 173.763L215.454 151.276Z" fill="#0D0D0D"/>
<path d="M165.702 235.189L113.449 226.206C112.816 226.097 112.212 225.857 111.677 225.5C111.142 225.144 110.688 224.68 110.343 224.138C109.999 223.595 109.771 222.986 109.676 222.351C109.58 221.715 109.619 221.067 109.79 220.447C115.957 198.052 117.287 144.674 144.655 150.983C154.545 153.261 161.761 161.822 161.927 172.086L163.066 181.133L166.124 205.333L168.184 221.586C168.529 224.388 169.348 227.088 170.244 229.763C171.55 233.577 168.261 235.625 165.702 235.189Z" fill="#0144C9"/>
<path d="M221.641 180.461L232.377 179.165C232.377 179.165 236.144 176.151 242.113 164.808C242.113 164.808 245.334 157.133 245.889 162.132C246.444 167.131 245.893 189.682 240.521 192.866L219.42 196.198L221.641 180.461Z" fill="#FFCEB7"/>
<path d="M166.124 205.333C155.614 198.839 147.457 178.843 147.457 178.843L163.066 181.133L166.124 205.333Z" fill="#0D0D0D"/>
<path d="M153.779 155.654L191.978 183.712L228.054 179.666L224.605 203.015L191.077 207.125C186.191 207.724 181.257 206.496 177.223 203.676L142.107 179.135L153.779 155.654Z" fill="#0144C9"/>
<path d="M215.453 151.276L224.225 163.246L220.546 166.805L215.453 151.276Z" fill="#FFCEB7"/>
<path d="M228.054 179.666L231.009 194.37L225.756 195.213L228.054 179.666Z" fill="#FFCEB7"/>
<path d="M546.561 385.093L544.969 419.518H500.802C500.802 419.518 499.409 410.364 524.676 403.002L527.461 381.313L546.561 385.093Z" fill="#0D0D0D"/>
<path d="M525.146 402.569L524.207 403.437L528.745 408.349L529.684 407.482L525.146 402.569Z" fill="white"/>
<path d="M545.648 400.875L535.918 400.036L536.109 394.143L546.346 394.478L546.314 395.438L537.038 395.133L536.909 399.158L545.731 399.918L545.648 400.875Z" fill="white"/>
<path d="M621.764 370.764L632.905 402.404C632.905 402.404 598.884 419.318 594.706 419.518C590.528 419.718 609.23 393.052 609.23 393.052L604.057 375.938L621.764 370.764Z" fill="#0D0D0D"/>
<path d="M609.437 392.445L609.023 393.658L616.495 396.207L616.908 394.994L609.437 392.445Z" fill="white"/>
<path d="M618.479 388.047L616.738 383.014L624.667 379.641L625.042 380.523L617.938 383.548L619.075 386.833L626.619 384.266L626.93 385.175L618.479 388.047Z" fill="white"/>
<path d="M578.787 213.626C578.467 214.714 578.16 215.802 577.853 216.915C577.725 217.363 577.598 217.824 577.482 218.271C576.907 220.345 576.356 222.443 575.806 224.58C572.275 238.376 569.179 253.554 566.478 268.949C565.404 275.079 564.393 281.247 563.446 287.364C561.233 301.659 559.352 315.737 557.791 328.649C553.633 363.099 551.74 389.27 551.74 389.27L517.246 387.145C518.781 329.455 522.785 274.81 534.454 229.622C536.002 223.582 537.695 217.721 539.534 212.039L539.866 212.052L578.787 213.626Z" fill="#3E7FFF"/>
<path d="M566.48 268.949C565.405 275.079 564.395 281.247 563.448 287.364C561.234 301.659 559.354 315.737 557.793 328.649C555.004 304.385 558.164 255.307 558.164 255.307L566.48 268.949Z" fill="#0144C9"/>
<path d="M588.937 218.337C588.937 218.337 598.685 229.282 590.727 254.753C590.727 254.753 612.214 322.41 626.539 374.148L594.706 386.088C594.706 386.088 554.121 281.418 552.131 218.138L588.937 218.337Z" fill="#3E7FFF"/>
<path d="M588.933 218.335C588.933 218.335 584.878 221.573 575.806 224.579C570.164 226.461 562.577 228.265 552.827 229.149C546.719 229.69 540.582 229.848 534.454 229.622C536.002 223.582 537.695 217.72 539.534 212.039L539.866 212.051L577.853 216.914L588.933 218.335Z" fill="#0144C9"/>
<path d="M562.823 287.505L556.237 258.38L547.969 256.083L548.312 254.851L557.317 257.353L564.07 287.223L562.823 287.505Z" fill="#0144C9"/>
<path d="M591.881 377.828L591.616 376.576C591.721 376.553 602.379 374.237 623.489 365.414L623.981 366.594C602.741 375.473 591.987 377.805 591.881 377.828Z" fill="#0144C9"/>
<path d="M547.773 381.845C535.472 381.845 517.646 379.145 517.444 379.114L517.635 377.849C517.865 377.884 540.731 381.34 552.353 380.404L552.455 381.678C551.039 381.793 549.458 381.845 547.773 381.845Z" fill="#0144C9"/>
<path d="M598.311 317.353L597.981 316.116C602.396 314.938 605.586 313.214 607.467 310.989L608.444 311.814C606.392 314.243 602.983 316.107 598.311 317.353Z" fill="#0144C9"/>
<path d="M554.182 329.804C551.914 329.804 549.489 329.269 546.935 328.201L547.427 327.021C551.189 328.591 554.613 328.931 557.608 328.035L557.975 329.26C556.744 329.626 555.466 329.809 554.182 329.804Z" fill="#0144C9"/>
<path d="M548.024 127.181C549.324 127.181 550.378 126.127 550.378 124.827C550.378 123.527 549.324 122.473 548.024 122.473C546.724 122.473 545.671 123.527 545.671 124.827C545.671 126.127 546.724 127.181 548.024 127.181Z" fill="#FFCEB7"/>
<path d="M579.184 152.672L563.472 159.429L559.122 144.098L555.911 132.772L558.661 131.416L570.433 125.606L579.184 152.672Z" fill="#FFCEB7"/>
<path d="M566.006 131.416C566.006 131.416 564.918 139.427 559.122 144.098L555.911 132.772L558.661 131.416H566.006Z" fill="#0D0D0D"/>
<path d="M570.7 105.11C570.7 105.11 581.178 90.7823 593.513 101.262C598.652 105.629 601.098 109.996 602.202 113.605C604.022 119.552 607.714 124.711 612.237 128.979C616.04 132.568 619.307 137.334 618.315 142.653C616.856 150.48 598.022 155.389 589.534 131.244C579.924 103.911 570.7 105.11 570.7 105.11Z" fill="#FFCEB7"/>
<path d="M549.147 111.279C548.948 111.875 544.372 138.143 558.1 136.551C571.827 134.958 572.623 117.447 572.623 117.447L560.487 110.681L549.147 111.279Z" fill="#FFCEB7"/>
<path d="M565.129 122.223C565.129 122.223 562.012 110.284 549.147 111.279C549.147 111.279 553.126 95.2263 571.098 103.385C589.069 111.544 579.434 131.37 573.996 136.212C573.996 136.212 567.915 133.632 565.129 122.223Z" fill="#F9D056"/>
<path d="M569.909 122.695C570.915 120.218 570.258 117.611 568.442 116.874C566.627 116.137 564.34 117.548 563.334 120.026C562.328 122.504 562.985 125.11 564.801 125.847C566.616 126.584 568.903 125.173 569.909 122.695Z" fill="#FFCEB7"/>
<path d="M565.865 122.534C565.794 122.535 565.724 122.511 565.668 122.467C565.612 122.423 565.572 122.361 565.555 122.292C565.539 122.236 565.22 120.915 565.957 120.032C566.408 119.489 567.14 119.244 568.123 119.309C568.165 119.311 568.206 119.322 568.244 119.341C568.282 119.359 568.315 119.385 568.343 119.416C568.371 119.448 568.392 119.485 568.406 119.524C568.419 119.564 568.425 119.606 568.422 119.648C568.421 119.691 568.412 119.732 568.394 119.771C568.376 119.81 568.35 119.844 568.318 119.872C568.287 119.9 568.249 119.922 568.209 119.935C568.168 119.947 568.126 119.952 568.083 119.947C567.318 119.9 566.763 120.066 566.448 120.442C565.927 121.067 566.172 122.126 566.174 122.137C566.185 122.178 566.187 122.22 566.18 122.262C566.174 122.303 566.16 122.343 566.138 122.379C566.117 122.415 566.088 122.447 566.055 122.472C566.021 122.497 565.982 122.515 565.942 122.525C565.917 122.531 565.891 122.534 565.865 122.534Z" fill="#0D0D0D"/>
<path d="M553.551 120.428C553.551 120.65 553.486 120.866 553.363 121.05C553.24 121.235 553.065 121.378 552.86 121.463C552.656 121.548 552.43 121.57 552.213 121.527C551.996 121.484 551.796 121.377 551.64 121.22C551.483 121.064 551.377 120.864 551.333 120.647C551.29 120.43 551.312 120.204 551.397 120C551.482 119.795 551.626 119.62 551.81 119.497C551.994 119.374 552.21 119.309 552.432 119.309C552.729 119.309 553.013 119.427 553.223 119.637C553.433 119.846 553.551 120.131 553.551 120.428Z" fill="#0D0D0D"/>
<path d="M552.203 130.42C551.853 130.418 551.504 130.372 551.166 130.283C551.125 130.272 551.086 130.254 551.053 130.229C551.019 130.203 550.99 130.172 550.969 130.135C550.947 130.099 550.933 130.059 550.927 130.017C550.921 129.976 550.924 129.933 550.934 129.892C550.945 129.851 550.963 129.813 550.989 129.779C551.014 129.746 551.046 129.717 551.082 129.696C551.119 129.675 551.159 129.661 551.201 129.655C551.242 129.649 551.285 129.652 551.326 129.663C552.648 130.006 553.772 129.612 554.976 128.389C555.006 128.358 555.041 128.333 555.08 128.316C555.118 128.299 555.16 128.29 555.203 128.289C555.245 128.288 555.288 128.296 555.327 128.312C555.367 128.327 555.402 128.351 555.433 128.381C555.463 128.411 555.487 128.446 555.503 128.486C555.52 128.525 555.528 128.567 555.528 128.609C555.528 128.652 555.519 128.694 555.502 128.733C555.486 128.772 555.461 128.808 555.431 128.837C554.728 129.553 553.677 130.42 552.203 130.42Z" fill="#0D0D0D"/>
<path opacity="0.4" d="M558.545 125.182C559.36 124.299 559.304 122.923 558.421 122.108C557.538 121.293 556.162 121.349 555.348 122.232C554.533 123.115 554.589 124.492 555.472 125.306C556.355 126.121 557.731 126.066 558.545 125.182Z" fill="#FF5970"/>
<path d="M550.527 117.43C551.295 117.109 552.124 116.959 552.956 116.989C553.787 117.017 554.609 117.18 555.387 117.472C555.466 117.501 555.539 117.545 555.601 117.602C555.663 117.659 555.714 117.728 555.749 117.804C555.785 117.881 555.805 117.963 555.809 118.048C555.812 118.132 555.799 118.216 555.771 118.295C555.742 118.374 555.698 118.447 555.641 118.509C555.584 118.571 555.515 118.621 555.439 118.657C555.362 118.693 555.28 118.713 555.196 118.716C555.111 118.72 555.027 118.707 554.948 118.678C554.918 118.667 554.888 118.654 554.859 118.638C554.239 118.295 553.567 118.055 552.87 117.928C552.172 117.801 551.454 117.821 550.764 117.988L550.727 117.998C550.653 118.018 550.575 118.009 550.508 117.973C550.44 117.938 550.389 117.878 550.364 117.806C550.339 117.734 550.341 117.656 550.372 117.586C550.402 117.516 550.457 117.46 550.527 117.43Z" fill="#0D0D0D"/>
<path d="M563.52 119.335C563.44 119.335 563.361 119.315 563.29 119.276C563.22 119.238 563.16 119.182 563.117 119.114C563.058 119.024 557.223 110.071 549.385 111.727C549.323 111.74 549.259 111.741 549.197 111.73C549.135 111.718 549.075 111.695 549.022 111.66C548.969 111.626 548.923 111.581 548.887 111.529C548.852 111.477 548.826 111.418 548.813 111.356C548.8 111.294 548.8 111.23 548.812 111.168C548.823 111.106 548.847 111.047 548.882 110.994C548.917 110.941 548.962 110.895 549.014 110.86C549.067 110.824 549.126 110.8 549.188 110.787C557.659 109.002 563.673 118.203 563.924 118.597C563.97 118.669 563.996 118.753 563.999 118.839C564.002 118.925 563.982 119.01 563.94 119.085C563.899 119.161 563.838 119.224 563.765 119.268C563.691 119.312 563.606 119.335 563.52 119.335Z" fill="#FFCEB7"/>
<path d="M560.491 177.742L529.862 187.43H529.849C528.575 187.836 527.246 188.043 525.908 188.044C524.165 188.043 522.44 187.699 520.829 187.033C518.832 186.195 517.073 184.877 515.707 183.196C514.341 181.515 513.411 179.523 512.999 177.397L502.787 124.608C499.832 121.958 499.077 119.028 500.011 115.854L507.675 116.725L519.305 118.043L532.036 166.404L560.491 177.742Z" fill="#FFCEB7"/>
<path d="M560.491 177.742L529.862 187.43H529.849C529.465 187.323 529.089 187.19 528.723 187.033C526.725 186.196 524.963 184.878 523.595 183.197C522.227 181.516 521.295 179.524 520.88 177.397L510.683 124.608C507.996 122.202 507.126 119.565 507.676 116.724L519.306 118.043L532.037 166.404L560.491 177.742Z" fill="#FFCEB7"/>
<path d="M592.439 173.007C591.918 177.481 590.848 181.874 589.253 186.086C587.309 191.359 583.278 205.282 588.933 218.334C588.933 218.334 556.512 230.479 531.038 216.351C531.038 216.351 532.292 208.455 535.068 197.935C537.179 189.886 540.187 180.301 544.191 171.548C550.78 157.126 560.095 144.968 572.621 145.711C591.812 146.849 593.629 162.129 592.439 173.007Z" fill="#FF5970"/>
<path d="M542.165 116.61L541.295 123.149L469.661 116.823L471.371 103.972L542.165 116.61Z" fill="#0144C9"/>
<path d="M499.274 109.973C498.917 111.01 498.858 112.127 499.103 113.197C499.459 114.545 500.88 114.369 502.002 113.86C504.113 112.902 505.602 109.684 503.594 107.887C502.59 106.989 500.924 107.782 500.225 108.45C499.787 108.872 499.461 109.395 499.274 109.973Z" fill="#FFCEB7"/>
<path d="M502.225 109.921C501.879 110.896 502.983 113.333 503.866 113.99C504.705 114.614 506.015 114.577 506.559 113.344C507.817 110.491 509.389 109.792 507.068 107.936C505.908 107.008 504.04 107.762 503.265 108.416C502.789 108.814 502.43 109.335 502.225 109.921Z" fill="#FFCEB7"/>
<path d="M506.526 110.748C506.463 111.84 506.689 112.929 507.181 113.906C507.842 115.115 509.084 114.579 509.972 113.797C511.64 112.327 512.179 108.835 509.91 107.618C508.777 107.01 507.469 108.206 507.003 109.031C506.712 109.558 506.548 110.146 506.526 110.748Z" fill="#FFCEB7"/>
<path d="M510.485 110.364C510.16 111.4 510.072 112.496 510.225 113.571C510.458 114.896 511.601 114.667 512.518 114.119C514.242 113.087 515.555 109.837 514.018 108.129C513.25 107.276 511.888 108.126 511.303 108.815C510.927 109.27 510.649 109.797 510.485 110.364Z" fill="#FFCEB7"/>
<path d="M577.201 171.971C577.201 171.971 554.004 193.24 535.068 197.936C537.179 189.887 540.187 180.302 544.191 171.549L577.201 171.971Z" fill="#FF5970"/>
<path d="M542.383 160.032L534.425 130.979C534.425 130.979 535.569 114.489 533.231 112.274C531.813 110.93 524.204 108.766 519.536 109.727C517.587 110.128 516.306 111.983 516.387 113.972C516.411 114.584 516.416 115.309 516.376 116.117C516.131 120.212 516.475 124.321 517.395 128.319L518.509 132.969L524.366 172.673C524.896 176.273 526.548 179.669 529.256 182.099C531.385 184.024 534.012 185.31 536.838 185.81C539.664 186.311 542.573 186.005 545.233 184.928L555.936 180.59L549.35 154.847C545.262 157.661 542.383 160.032 542.383 160.032Z" fill="#FFCEB7"/>
<path d="M570.435 145.704C564.451 145.345 555.52 150.601 549.349 154.847L555.935 180.59L577.198 171.971L570.435 145.704Z" fill="#FF5970"/>
<path d="M674.273 419.113H-0.00012207V420.393H674.273V419.113Z" fill="#0D0D0D"/>
</svg>
