<svg viewBox="0 0 583 411" fill="none" xmlns="http://www.w3.org/2000/svg">
<path d="M463.909 345.265H583C581.296 337.341 569.936 331.229 556.175 331.229C552.23 331.214 548.302 331.741 544.5 332.793C542.374 327.608 536.595 323.904 529.802 323.904C526.704 323.886 523.658 324.693 520.976 326.242C517.009 322.055 510.944 319.385 504.144 319.385C494.772 319.385 486.798 324.464 483.766 331.573C483.402 332.416 483.112 333.288 482.898 334.181C482.63 334.142 482.361 334.12 482.085 334.096C482.023 334.098 481.962 334.095 481.901 334.089C481.509 334.067 481.118 334.058 480.726 334.058C472.597 334.059 465.789 338.83 463.909 345.265Z" fill="#93B7FF"/>
<path opacity="0.6" d="M463.909 345.265H548.96C547.195 341.706 543.327 339.059 538.637 338.415C538.645 338.277 538.652 338.155 538.652 338.016C538.652 334.987 535.567 332.525 531.768 332.525C528.881 332.525 526.41 333.944 525.397 335.946C519.712 334.294 513.672 334.299 507.99 335.961C506.7 330.822 501.243 326.963 494.704 326.963C490.214 326.963 486.238 328.773 483.767 331.573C483.089 332.33 482.523 333.18 482.086 334.097L482.039 334.189C481.997 334.15 481.951 334.117 481.901 334.089C481.51 334.067 481.118 334.058 480.727 334.058C472.598 334.059 465.789 338.829 463.909 345.265Z" fill="white"/>
<path d="M568.115 69.8847H494.4C495.455 64.9806 502.486 61.1967 511.005 61.1967C513.447 61.1879 515.878 61.5138 518.231 62.1651C519.546 58.9559 523.124 56.6627 527.329 56.6627C529.247 56.6517 531.132 57.1514 532.793 58.1104C535.249 55.5184 539.002 53.8662 543.211 53.8662C549.012 53.8662 553.948 57.0091 555.825 61.4101C556.05 61.9317 556.23 62.4717 556.362 63.0242C556.528 63.0006 556.694 62.9863 556.865 62.9721C556.904 62.9728 556.942 62.9713 556.98 62.9674C557.222 62.9531 557.464 62.9482 557.706 62.9482C562.737 62.9484 566.952 65.9015 568.115 69.8847Z" fill="#93B7FF"/>
<path opacity="0.4" d="M214.059 138.721L204.889 109.372C204.824 109.162 204.717 108.966 204.576 108.797C204.435 108.628 204.261 108.488 204.066 108.386C203.871 108.284 203.657 108.221 203.438 108.201C203.218 108.181 202.997 108.205 202.786 108.271L180.511 115.22C180.16 115.328 179.783 115.318 179.438 115.192C179.093 115.065 178.799 114.83 178.602 114.52C175.654 109.966 172.16 105.79 168.196 102.086C167.925 101.836 167.744 101.505 167.68 101.142C167.616 100.779 167.674 100.406 167.844 100.079L178.666 79.4475C178.768 79.2524 178.831 79.039 178.851 78.8196C178.87 78.6002 178.847 78.379 178.781 78.1687C178.715 77.9584 178.609 77.7631 178.468 77.594C178.326 77.4248 178.153 77.2851 177.958 77.1829L150.712 62.9116C150.517 62.8093 150.303 62.7465 150.084 62.7267C149.864 62.7069 149.643 62.7305 149.433 62.7961C149.222 62.8618 149.027 62.9682 148.857 63.1094C148.688 63.2505 148.548 63.4236 148.446 63.6188L137.623 84.2526C137.451 84.5777 137.177 84.8374 136.843 84.9916C136.509 85.1458 136.134 85.186 135.775 85.106C130.472 83.9679 125.05 83.4817 119.63 83.6583C119.262 83.6722 118.901 83.5652 118.6 83.3536C118.299 83.1421 118.076 82.8378 117.966 82.4875L111.012 60.2289C110.946 60.0186 110.84 59.8233 110.698 59.6541C110.557 59.485 110.384 59.3452 110.189 59.243C109.993 59.1407 109.78 59.0779 109.56 59.0581C109.341 59.0383 109.119 59.0619 108.909 59.1275L79.5387 68.2904C79.3282 68.356 79.1328 68.4625 78.9635 68.6036C78.7942 68.7448 78.6544 68.9178 78.552 69.113C78.4497 69.3081 78.3868 69.5215 78.367 69.7409C78.3472 69.9603 78.3708 70.1815 78.4365 70.3918L85.3904 92.6506C85.4987 93.0016 85.4887 93.3785 85.3619 93.7233C85.2351 94.0681 84.9986 94.3618 84.6886 94.5593C80.133 97.4935 75.9546 100.975 72.2469 104.925C71.997 105.195 71.6652 105.376 71.3025 105.439C70.9397 105.502 70.5663 105.445 70.2396 105.275L49.5921 94.4602C49.1978 94.2537 48.7375 94.2121 48.3126 94.3446C47.8876 94.4772 47.5327 94.7729 47.3259 95.1669L33.0354 122.398C32.8287 122.792 32.7871 123.252 32.9196 123.677C33.052 124.102 33.3478 124.456 33.7419 124.663L54.4117 135.505C54.7371 135.677 54.9968 135.951 55.1509 136.286C55.305 136.62 55.3449 136.995 55.2645 137.354C54.1277 142.65 53.6273 148.063 53.774 153.477C53.7851 153.842 53.6766 154.201 53.465 154.499C53.2534 154.797 52.9503 155.018 52.6017 155.128L30.329 162.077C29.904 162.21 29.5491 162.505 29.3424 162.9C29.1356 163.294 29.094 163.754 29.2266 164.178L38.403 193.549C38.4687 193.759 38.5753 193.955 38.7165 194.124C38.8577 194.293 39.0309 194.433 39.2262 194.535C39.4215 194.637 39.635 194.7 39.8546 194.72C40.0742 194.74 40.2955 194.716 40.5059 194.65L62.7787 187.701C63.128 187.594 63.503 187.603 63.8465 187.728C64.1899 187.853 64.4831 188.087 64.6812 188.394C67.6448 192.943 71.1433 197.12 75.1018 200.837C75.3716 201.086 75.552 201.417 75.615 201.779C75.678 202.141 75.6203 202.513 75.4506 202.839L64.6174 223.477C64.515 223.672 64.452 223.886 64.4322 224.105C64.4123 224.325 64.4359 224.546 64.5017 224.756C64.5674 224.967 64.674 225.162 64.8153 225.331C64.9566 225.501 65.1299 225.64 65.3253 225.743L92.5803 240.01C92.9747 240.216 93.4349 240.258 93.8599 240.125C94.2848 239.992 94.6396 239.697 94.8464 239.303L105.667 218.671C105.84 218.346 106.114 218.086 106.449 217.932C106.784 217.777 107.161 217.738 107.52 217.819C112.822 218.972 118.245 219.472 123.668 219.307C124.035 219.294 124.396 219.401 124.696 219.613C124.996 219.824 125.218 220.128 125.329 220.478L132.27 242.696C132.336 242.906 132.443 243.101 132.584 243.27C132.725 243.44 132.898 243.579 133.094 243.681C133.289 243.784 133.502 243.847 133.722 243.866C133.941 243.886 134.163 243.863 134.373 243.797L163.743 234.633C164.168 234.501 164.523 234.205 164.729 233.811C164.936 233.417 164.978 232.957 164.845 232.532L157.903 210.314C157.795 209.964 157.805 209.587 157.931 209.243C158.058 208.899 158.294 208.605 158.603 208.407C163.159 205.457 167.337 201.961 171.045 197.997C171.295 197.727 171.627 197.546 171.99 197.482C172.353 197.419 172.726 197.476 173.053 197.646L193.7 208.46C193.895 208.562 194.108 208.625 194.328 208.645C194.547 208.665 194.769 208.641 194.979 208.576C195.19 208.51 195.385 208.404 195.554 208.262C195.724 208.121 195.863 207.948 195.966 207.753L210.247 180.526C210.453 180.132 210.495 179.672 210.363 179.248C210.23 178.823 209.935 178.469 209.541 178.262L188.919 167.437C188.595 167.266 188.336 166.992 188.181 166.659C188.027 166.326 187.987 165.952 188.066 165.593C189.201 160.286 189.686 154.86 189.511 149.436C189.497 149.068 189.604 148.707 189.816 148.406C190.027 148.106 190.332 147.883 190.682 147.772L212.957 140.824C213.167 140.758 213.363 140.651 213.532 140.51C213.702 140.369 213.842 140.196 213.944 140.001C214.046 139.805 214.109 139.592 214.129 139.372C214.149 139.153 214.125 138.931 214.059 138.721ZM148.7 165.922C125.583 198.044 81.0672 174.672 94.3694 137.464C94.4267 137.304 94.5059 137.153 94.6048 137.015C117.656 104.915 162.217 128.198 148.937 165.47C148.879 165.631 148.8 165.783 148.7 165.922Z" fill="#BDD3FF"/>
<path opacity="0.4" d="M319.235 44.5805L314.973 30.9393C314.943 30.8415 314.893 30.7507 314.828 30.672C314.762 30.5934 314.681 30.5284 314.591 30.4808C314.5 30.4332 314.401 30.404 314.299 30.3948C314.196 30.3855 314.094 30.3965 313.996 30.427L303.642 33.6565C303.479 33.7068 303.304 33.7022 303.143 33.6435C302.983 33.5848 302.846 33.4751 302.755 33.3314C301.385 31.2144 299.76 29.2732 297.918 27.5512C297.792 27.4353 297.708 27.2811 297.678 27.1125C297.649 26.9439 297.675 26.7703 297.754 26.6185L302.784 17.0289C302.832 16.9382 302.861 16.839 302.87 16.737C302.879 16.635 302.868 16.5322 302.838 16.4345C302.807 16.3367 302.758 16.2459 302.692 16.1673C302.627 16.0887 302.546 16.0238 302.455 15.9763L289.792 9.34357C289.701 9.29601 289.602 9.26679 289.5 9.25757C289.398 9.24835 289.295 9.25932 289.197 9.28985C289.099 9.32038 289.008 9.36987 288.93 9.4355C288.851 9.50112 288.786 9.58159 288.738 9.67231L283.708 19.2628C283.628 19.4139 283.501 19.5345 283.346 19.6062C283.19 19.6779 283.016 19.6966 282.849 19.6595C280.384 19.1304 277.864 18.9044 275.345 18.9864C275.174 18.9929 275.006 18.9431 274.866 18.8448C274.726 18.7465 274.623 18.6051 274.571 18.4423L271.34 8.09654C271.309 7.99875 271.26 7.90792 271.194 7.82925C271.128 7.75058 271.048 7.6856 270.957 7.63802C270.866 7.59045 270.767 7.56122 270.665 7.552C270.563 7.54277 270.46 7.55374 270.362 7.58427L256.711 11.8432C256.613 11.8737 256.523 11.9231 256.444 11.9887C256.365 12.0542 256.3 12.1347 256.252 12.2254C256.205 12.3161 256.176 12.4153 256.166 12.5173C256.157 12.6193 256.168 12.7221 256.199 12.8198L259.43 23.1656C259.481 23.3288 259.476 23.504 259.417 23.6643C259.358 23.8246 259.248 23.9611 259.104 24.0529C256.987 25.4166 255.045 27.0346 253.321 28.8707C253.205 28.9963 253.051 29.0803 252.883 29.1097C252.714 29.1392 252.54 29.1124 252.389 29.0335L242.792 24.0068C242.701 23.9592 242.602 23.93 242.5 23.9208C242.398 23.9115 242.295 23.9225 242.197 23.953C242.099 23.9835 242.008 24.033 241.93 24.0986C241.851 24.1642 241.786 24.2446 241.738 24.3353L235.096 36.9918C235.049 37.0825 235.02 37.1816 235.01 37.2836C235.001 37.3855 235.012 37.4883 235.042 37.5861C235.073 37.6838 235.122 37.7746 235.188 37.8533C235.254 37.9319 235.334 37.9969 235.425 38.0444L245.031 43.084C245.182 43.164 245.303 43.2915 245.375 43.4468C245.446 43.6021 245.465 43.7766 245.427 43.9435C244.899 46.405 244.666 48.9208 244.735 51.4375C244.74 51.6072 244.689 51.774 244.591 51.9125C244.493 52.051 244.352 52.1536 244.19 52.2048L233.837 55.4342C233.739 55.4647 233.648 55.5141 233.57 55.5797C233.491 55.6453 233.426 55.7258 233.378 55.8165C233.331 55.9072 233.301 56.0064 233.292 56.1085C233.283 56.2105 233.294 56.3133 233.325 56.4111L237.59 70.0623C237.62 70.1601 237.67 70.251 237.735 70.3296C237.801 70.4083 237.881 70.4733 237.972 70.5209C238.063 70.5685 238.162 70.5977 238.264 70.6069C238.366 70.6161 238.469 70.6051 238.567 70.5746L248.919 67.3451C249.082 67.2952 249.256 67.2997 249.416 67.3578C249.575 67.4159 249.712 67.5245 249.804 67.6671C251.181 69.7814 252.807 71.723 254.647 73.4504C254.772 73.5664 254.856 73.7202 254.885 73.8883C254.915 74.0564 254.888 74.2295 254.809 74.3809L249.774 83.9736C249.726 84.0643 249.697 84.1635 249.688 84.2655C249.679 84.3676 249.69 84.4704 249.72 84.5682C249.751 84.6659 249.8 84.7567 249.866 84.8354C249.932 84.914 250.012 84.9789 250.103 85.0265L262.771 91.6578C262.862 91.7054 262.961 91.7346 263.063 91.7438C263.165 91.753 263.268 91.7421 263.366 91.7115C263.464 91.681 263.554 91.6315 263.633 91.5659C263.712 91.5003 263.777 91.4198 263.824 91.3291L268.854 81.7399C268.934 81.5885 269.062 81.4676 269.217 81.396C269.373 81.3243 269.548 81.3059 269.715 81.3435C272.179 81.8796 274.7 82.112 277.22 82.0355C277.391 82.0293 277.559 82.0792 277.698 82.1775C277.838 82.2757 277.941 82.417 277.992 82.5796L281.219 92.9062C281.249 93.004 281.299 93.0948 281.364 93.1735C281.43 93.2522 281.51 93.3172 281.601 93.3648C281.692 93.4124 281.791 93.4416 281.893 93.4508C281.995 93.46 282.098 93.449 282.196 93.4184L295.847 89.1595C295.945 89.1291 296.036 89.0796 296.114 89.0141C296.193 88.9485 296.258 88.8681 296.306 88.7774C296.353 88.6867 296.383 88.5875 296.392 88.4855C296.401 88.3835 296.39 88.2807 296.36 88.1829L293.133 77.8561C293.083 77.6932 293.088 77.5183 293.146 77.3582C293.205 77.1982 293.314 77.0617 293.458 76.9699C295.576 75.5984 297.518 73.9735 299.241 72.1314C299.357 72.0056 299.512 71.9214 299.68 71.8919C299.849 71.8624 300.023 71.8892 300.175 71.9682L309.771 76.9944C309.862 77.0419 309.961 77.0711 310.063 77.0803C310.165 77.0896 310.268 77.0786 310.366 77.0481C310.464 77.0175 310.555 76.9681 310.633 76.9024C310.712 76.8368 310.777 76.7563 310.824 76.6656L317.462 64.0105C317.558 63.8274 317.578 63.6138 317.516 63.4165C317.454 63.2192 317.317 63.0544 317.134 62.9583L307.55 57.9267C307.399 57.8469 307.279 57.7199 307.207 57.5651C307.135 57.4103 307.117 57.2363 307.153 57.0697C307.681 54.6028 307.907 52.081 307.825 49.5597C307.819 49.389 307.868 49.2209 307.967 49.0813C308.065 48.9416 308.207 48.8381 308.37 48.7866L318.723 45.5571C318.82 45.5266 318.911 45.4772 318.99 45.4116C319.069 45.346 319.134 45.2656 319.181 45.1749C319.229 45.0842 319.258 44.985 319.267 44.883C319.277 44.781 319.266 44.6782 319.235 44.5805ZM288.856 57.2234C278.112 72.1537 257.421 61.2901 263.604 43.996C263.631 43.9219 263.667 43.8517 263.713 43.7876C274.427 28.8678 295.14 39.6895 288.966 57.0134C288.939 57.0881 288.903 57.1588 288.857 57.2234H288.856Z" fill="#BDD3FF"/>
<path d="M275.839 111.71L275.818 110.819C277.285 110.785 278.768 110.689 280.227 110.534L280.321 111.419C278.838 111.577 277.33 111.675 275.839 111.71ZM271.349 111.633C269.863 111.548 268.36 111.403 266.882 111.202L267.003 110.318C268.458 110.517 269.937 110.66 271.399 110.743L271.349 111.633ZM284.764 110.765L284.599 109.89C286.028 109.62 287.478 109.288 288.908 108.901L289.14 109.761C287.688 110.154 286.216 110.492 284.764 110.765ZM262.465 110.421C261.023 110.109 259.56 109.734 258.118 109.308L258.372 108.453C259.792 108.873 261.232 109.242 262.653 109.55L262.465 110.421ZM293.426 108.427L293.13 107.587C294.502 107.104 295.888 106.561 297.25 105.973L297.603 106.791C296.223 107.387 294.818 107.938 293.426 108.427ZM253.869 107.885C252.498 107.373 251.103 106.801 249.723 106.182L250.088 105.369C251.451 105.98 252.829 106.546 254.181 107.051L253.869 107.885ZM301.66 104.879L301.254 104.085C302.542 103.428 303.848 102.71 305.136 101.952L305.589 102.721C304.285 103.488 302.963 104.214 301.66 104.879V104.879ZM245.689 104.228C244.401 103.56 243.081 102.83 241.767 102.059L242.218 101.291C243.519 102.054 244.826 102.776 246.1 103.437L245.689 104.228ZM309.386 100.342L308.891 99.6008C310.092 98.8026 311.312 97.9455 312.521 97.0533L313.05 97.7693C311.831 98.6712 310.597 99.5364 309.386 100.343V100.342ZM237.956 99.7059C236.745 98.9208 235.497 98.0769 234.248 97.1978L234.76 96.4695C236 97.3422 237.238 98.1796 238.44 98.9587L237.956 99.7059ZM316.586 95.0236L316.023 94.3332C317.151 93.4158 318.289 92.4487 319.404 91.46L319.996 92.1264C318.871 93.1236 317.724 94.0989 316.586 95.0241V95.0236ZM230.632 94.5612C229.492 93.702 228.303 92.7794 227.098 91.8217L227.654 91.1248C228.816 92.0499 229.988 92.9581 231.169 93.8496L230.632 94.5612ZM323.284 89.0909L322.668 88.4481C323.715 87.4445 324.775 86.3904 325.817 85.316L326.458 85.9363C325.407 87.0191 324.34 88.0804 323.284 89.0914L323.284 89.0909ZM223.634 89.0005C222.49 88.0502 221.353 87.0891 220.224 86.1173L220.805 85.4414C221.93 86.4083 223.063 87.3664 224.204 88.3158L223.634 89.0005ZM216.857 83.1896C215.738 82.2074 214.625 81.2228 213.517 80.2359L214.109 79.5704C215.217 80.5548 216.329 81.5382 217.445 82.5206L216.857 83.1896ZM329.516 82.6747L328.856 82.076C329.568 81.2923 330.268 80.5028 330.957 79.7073L331.631 80.2909C330.937 81.0906 330.231 81.8854 329.515 82.6751L329.516 82.6747ZM210.19 77.2745C209.075 76.2827 207.965 75.2964 206.858 74.3156L207.448 73.6475C208.557 74.6275 209.668 75.6149 210.783 76.6097L210.19 77.2745ZM35.8491 73.6905L35.0889 73.2241C35.8703 71.9525 36.6961 70.6919 37.5432 69.4774L38.2747 69.9863C37.4367 71.1875 36.6203 72.4336 35.8491 73.6905ZM203.509 71.3797C202.381 70.4012 201.253 69.4375 200.125 68.4885L200.699 67.8065C201.831 68.7568 202.962 69.7237 204.093 70.7071L203.509 71.3797ZM40.9085 66.4279L40.2076 65.8782C41.1269 64.708 42.0929 63.5492 43.0789 62.4338L43.7476 63.0235C42.7727 64.1256 41.8176 65.2713 40.9085 66.4279ZM196.689 65.6655C195.533 64.739 194.353 63.8193 193.182 62.9318L193.721 62.222C194.898 63.1142 196.083 64.039 197.247 64.9704L196.689 65.6655ZM189.602 60.2936C188.401 59.4339 187.172 58.58 185.952 57.7546L186.451 57.0169C187.679 57.8459 188.914 58.7047 190.121 59.5691L189.602 60.2936ZM46.775 59.7876L46.1411 59.1613C47.1886 58.104 48.2785 57.0637 49.3834 56.0674L49.9807 56.7287C48.8888 57.7131 47.8103 58.7423 46.7754 59.7871L46.775 59.7876ZM182.234 55.3195C180.985 54.5253 179.711 53.7411 178.449 52.9885L178.906 52.2237C180.176 52.9809 181.456 53.7694 182.713 54.5678L182.234 55.3195ZM53.3526 53.8529L52.7928 53.1593C53.9455 52.2297 55.1439 51.3159 56.3549 50.4421L56.8764 51.1642C55.6789 52.0288 54.4931 52.9328 53.3531 53.8524L53.3526 53.8529ZM174.6 50.7668C173.303 50.0434 171.986 49.3338 170.687 48.6588L171.099 47.8688C172.406 48.5478 173.729 49.2612 175.034 49.9891L174.6 50.7668ZM60.5388 48.6697L60.0565 47.9206C61.3015 47.1188 62.5895 46.3371 63.8847 45.5959L64.3278 46.3685C63.0462 47.1024 61.7715 47.8765 60.5392 48.6692L60.5388 48.6697ZM166.715 46.6692C165.386 46.0284 164.03 45.3996 162.684 44.8016L163.046 43.9873C164.401 44.5887 165.765 45.2224 167.102 45.8669L166.715 46.6692ZM68.2295 44.2637L67.8254 43.4693C69.1453 42.7996 70.5049 42.1512 71.8665 41.5418L72.2305 42.3552C70.8827 42.9584 69.5363 43.6005 68.23 44.264L68.2295 44.2637ZM158.597 43.061C157.228 42.5042 155.834 41.9623 154.457 41.4525L154.766 40.6173C156.153 41.1296 157.555 41.6748 158.934 42.2363L158.597 43.061ZM76.3208 40.6425L75.996 39.8124C77.3779 39.2727 78.7916 38.7571 80.202 38.2805L80.4875 39.1244C79.0905 39.5968 77.6884 40.1075 76.3208 40.6425ZM150.265 39.9808C148.857 39.5131 147.431 39.066 146.027 38.6527L146.279 37.7983C147.693 38.2148 149.128 38.6645 150.546 39.1346L150.265 39.9808ZM84.7209 37.7981L84.4738 36.9421C85.8962 36.5319 87.3521 36.1472 88.8008 35.7989L89.0096 36.6653C87.5736 37.0114 86.1311 37.3925 84.7209 37.7992V37.7981ZM141.747 37.4738C140.313 37.1061 138.86 36.7611 137.426 36.4493L137.616 35.5793C139.06 35.8942 140.524 36.2417 141.968 36.6116L141.747 37.4738ZM93.3449 35.725L93.1744 34.8506C94.6318 34.567 96.1164 34.3111 97.585 34.0906L97.7174 34.9719C96.2606 35.1898 94.7898 35.4428 93.3449 35.7243V35.725ZM133.071 35.5826C131.607 35.3205 130.132 35.0851 128.686 34.8824L128.81 34.0002C130.267 34.2042 131.754 34.4416 133.229 34.7058L133.071 35.5826ZM102.119 34.4055L102.024 33.52C103.499 33.3621 104.999 33.2331 106.483 33.1371L106.541 34.0262C105.069 34.1209 103.583 34.2487 102.119 34.4049V34.4055ZM124.278 34.3521C122.8 34.2042 121.31 34.0848 119.853 33.9975L119.906 33.1084C121.377 33.1962 122.877 33.3164 124.367 33.4648L124.278 34.3521ZM110.975 33.8318L110.954 32.9409C112.448 32.9062 113.941 32.9031 115.432 32.9318L115.416 33.8227C113.939 33.7952 112.458 33.798 110.975 33.8311V33.8318Z" fill="#93B7FF"/>
<path d="M12.1247 411L8 381.007L8.35629 380.958C97.1412 368.711 175.786 347.89 242.108 319.073C302.628 292.776 393.023 216.826 432.364 180.339L432.467 180.244L432.606 180.243L462 180V287.921L416.582 242.435C371.311 284.553 316.657 319.684 254.139 346.848C185.295 376.761 103.989 398.328 12.4803 410.951L12.1247 411ZM8.81119 381.622L12.7398 410.188C104.041 397.567 185.158 376.034 253.853 346.186C316.415 319.003 371.086 283.838 416.347 241.67L416.601 241.433L461.282 286.18V180.727L432.752 180.963C393.326 217.514 302.952 293.422 242.395 319.735C176.102 348.539 97.5139 369.361 8.81119 381.622Z" fill="#93B7FF"/>
<path d="M453 156H346.528L387.104 196.617C344.417 236.187 292.963 269.174 233.725 294.901C167.408 323.702 88.7713 344.512 0 356.75L4.02454 386C95.4546 373.394 176.686 351.858 245.464 321.987C308.158 294.759 362.678 259.69 407.975 217.509L453 262.58V156Z" fill="#699BFF"/>
<path d="M378.398 18.9972L377.714 22.9321L377.511 23.9219C377.385 26.0627 375.282 27.4396 372.964 28.7327L369.387 22.0733L371.273 15.6446L374.702 14.6472L377.927 18.4433L378.398 18.9972Z" fill="#FFCEB7"/>
<path d="M378.398 18.9971L377.714 22.932C375.477 21.5925 374.22 19.653 373.296 16.9282L377.927 18.4427L378.398 18.9971Z" fill="#0D0D0D"/>
<path d="M381.845 10.4913C381.151 13.5502 381.772 18.053 380.488 19.5036C379.319 20.8239 377.137 20.0216 375.855 19.3254C374.131 18.3635 372.705 16.9448 371.735 15.2255C369.424 11.2421 372.717 8.58677 372.717 8.58677L376.992 6.7395C376.992 6.7395 381.847 10.483 381.845 10.4913Z" fill="#FFCEB7"/>
<path d="M375.74 14.4545C375.842 12.7603 375.061 11.2433 376.433 10.3366C382.384 12.6456 381.961 11.9337 385.657 7.83496C384.334 7.91746 383.024 7.52892 381.96 6.73827C380.169 5.41039 375.143 1.37063 371.966 7.71959C371.966 7.71959 365.014 9.87467 370.907 16.9181C371.581 15.4942 374.001 15.0521 375.74 14.4545Z" fill="#0D0D0D"/>
<path d="M376.276 13.9889C376.422 13.0871 375.809 12.2375 374.907 12.0911C374.005 11.9448 373.154 12.5572 373.008 13.459C372.861 14.3608 373.474 15.2104 374.377 15.3568C375.279 15.5031 376.129 14.8907 376.276 13.9889Z" fill="#FFCEB7"/>
<path d="M416.448 8.64331C417.064 10.9151 417.13 13.2091 416.91 15.513L417.719 22.6134L411.249 20.9971L410.902 16.0901C409.285 14.4738 408.361 10.4329 408.245 10.2596L416.448 8.64331Z" fill="#FFCEB7"/>
<path d="M441.222 6.80492L430.368 8.50587L387.314 15.2406L386.705 12.0654L429.202 2.42818L439.918 0.000488281L441.222 6.80492Z" fill="#FF5970"/>
<path d="M441.222 6.80466L430.368 8.5056L429.203 2.42769L439.919 0L441.222 6.80466Z" fill="#0D0D0D"/>
<path d="M411.249 6.85374C411.249 7.33193 410.628 7.71969 409.862 7.71969C409.097 7.71969 408.476 7.33193 408.476 6.85374C408.476 6.37556 409.097 5.98779 409.862 5.98779C410.628 5.98779 411.249 6.37556 411.249 6.85374Z" fill="#FFCEB7"/>
<path d="M412.058 6.91134C412.823 6.91134 413.444 6.52364 413.444 6.04539C413.444 5.56714 412.823 5.17944 412.058 5.17944C411.292 5.17944 410.671 5.56714 410.671 6.04539C410.671 6.52364 411.292 6.91134 412.058 6.91134Z" fill="#FFCEB7"/>
<path d="M415.928 5.64134C415.928 6.11953 415.307 6.50729 414.542 6.50729C413.776 6.50729 413.155 6.11953 413.155 5.64134C413.155 5.16315 413.776 4.77539 414.542 4.77539C415.307 4.77539 415.928 5.16315 415.928 5.64134Z" fill="#FFCEB7"/>
<path d="M412.173 12.3378C412.173 13.4378 412.935 14.3583 412.057 14.3583C411.18 14.3583 410.324 13.7842 410.324 12.6841C410.324 11.5841 409.186 10.117 409.978 9.74015C411.191 9.16285 412.173 11.238 412.173 12.3378Z" fill="#FFCEB7"/>
<path d="M411.172 19.9387L417.334 19.2651L417.603 21.6126L411.172 19.9387Z" fill="#0D0D0D"/>
<path d="M419.725 22.1932C419.725 22.1932 419.725 48.5171 404.779 46.6705C403.808 46.5504 402.856 46.4119 401.923 46.2549C397.625 45.5121 393.409 44.3552 389.334 42.8005C387.141 41.9941 385.007 41.0374 382.947 39.9371L377.512 23.9211C388.354 26.655 398.235 29.7308 405.592 33.6933L410.435 19.7285L419.725 22.1932Z" fill="#F9D056"/>
<path d="M401.923 46.2541C397.624 45.5112 393.408 44.3543 389.333 42.7996L389.638 38.4307C395.785 39.9363 400.083 43.4647 401.923 46.2541Z" fill="#0D0D0D"/>
<path d="M405.819 75.0303L391.993 67.4488L377.512 23.9219C391.277 38.8762 402.776 56.6727 405.819 75.0303Z" fill="#FF5970"/>
<path d="M409.806 139.801L408.342 155.965H425.815L419.177 148.345L419.47 138.646L409.806 139.801Z" fill="#0D0D0D"/>
<path d="M418.858 148.011L415.396 151.321L416.035 151.988L419.497 148.679L418.858 148.011Z" fill="white"/>
<path d="M378.667 69.8348L381.324 84.8439L405.703 96.3895V145.112L423.264 143.342L424.397 99.5392C424.475 95.9102 423.65 92.3185 421.996 89.0865C420.343 85.8546 417.912 83.0834 414.922 81.0218L396.691 68.4492" fill="#0144C9"/>
<path d="M389.528 83.0737C391.983 85.6952 393.597 88.3688 394.226 90.9247L388.642 88.3077L389.528 83.0737Z" fill="#0D0D0D"/>
<path d="M382.7 15.4148C382.578 15.7424 381.983 16.2324 381.179 16.1351C380.555 16.0598 379.911 14.9867 379.911 14.2023C379.911 13.4179 380.421 12.7822 381.051 12.7822C381.99 12.782 382.815 15.1061 382.7 15.4148Z" fill="#FFCEB7"/>
<path d="M364.243 141.225L360.581 156.003H378.989L372.821 148.73L373.592 141.34L364.243 141.225Z" fill="#0D0D0D"/>
<path d="M372.483 148.417L369.277 151.88L369.956 152.507L373.161 149.044L372.483 148.417Z" fill="white"/>
<path d="M391.03 68.7955C389.052 93.4174 382.736 119.596 376.818 146.497L359.95 146.266C366.349 117.694 369.01 91.3588 368.5 68.6802L391.03 68.7955Z" fill="#0144C9"/>
<path d="M377.512 23.9219C375.968 25.9849 373.064 24.917 369.387 22.0732L375.663 73.1832C382.685 72.6122 389.693 70.9083 396.691 68.4495L377.512 23.9219Z" fill="white"/>
<path d="M382.752 80.3827L363.185 89.0004C361.336 66.3716 357.639 51.5928 356.022 33.5816C355.375 26.3771 369.387 22.073 369.387 22.073C374.868 28.7418 378.482 36.879 380.608 46.1802C381.372 49.5688 381.943 52.9979 382.318 56.4511C383.15 63.8956 383.242 71.913 382.752 80.3827Z" fill="#F9D056"/>
<path d="M377.512 23.9219C390.614 41.183 401.096 58.2841 405.818 75.0303C406.512 57.1347 393.834 36.9964 377.512 23.9219Z" fill="#F9D056"/>
<path d="M390.643 19.6554L392.088 15.8936C392.088 15.8936 390.793 11.4739 392.022 10.9253C393.251 10.3767 397.458 9.60542 398.519 9.52613C399.579 9.44684 401.078 7.76171 401.501 7.98377C401.924 8.20582 401.498 11.3335 399.532 11.5311C399.532 11.5311 399.142 17.8529 397.239 17.5384L395.744 23.3341L390.643 19.6554Z" fill="#FFCEB7"/>
<path d="M382.318 56.4513C375.903 56.2112 367.936 51.8516 363.647 46.05L380.609 46.1794C381.372 49.5684 381.943 52.9978 382.318 56.4513Z" fill="#0D0D0D"/>
<path d="M363.185 32.5427L377.858 37.5073L389.99 18.9189L398.077 24.1138C398.077 24.1138 390.452 54.5942 376.819 51.7077C364.444 49.0878 361.568 44.8959 361.568 44.8959L363.185 32.5427Z" fill="#F9D056"/>
<path d="M377.935 37.7282L363.125 32.7169L363.245 32.367L377.782 37.2856L389.835 18.8171L390.145 19.0192L377.935 37.7282Z" fill="#0D0D0D"/>
<path d="M390.726 19.3806L396.402 20.8094L395.925 22.7143L390.726 19.3806Z" fill="#0D0D0D"/>
<path d="M264.741 281.867L266.111 295.224L286.345 291.099L275.807 285.697L272.54 279.313L264.741 281.867Z" fill="#0D0D0D"/>
<path d="M275.415 285.545L274.253 288.541L275.039 288.845L276.201 285.85L275.415 285.545Z" fill="white"/>
<path d="M276.502 281.208L262.102 285.294C259.16 264.03 257.794 242.016 254.928 222.496C254.574 220.053 254.192 217.652 253.781 215.293L253.267 213.953L250.417 206.514L255.459 204.635L267.16 200.288C267.599 202.074 268.02 203.962 268.425 205.95C272.32 225.166 274.428 253.078 276.502 281.208Z" fill="#FF5970"/>
<path d="M272.329 279.321C271.555 257.779 270.136 230.48 266.01 210.421L266.423 210.336C270.556 230.425 271.975 257.747 272.75 279.306L272.329 279.321Z" fill="#FF5970"/>
<path d="M236.709 287.008L236.077 295.644L231.018 311.335L245.139 301.225L245.982 284.692L236.709 287.008Z" fill="#0D0D0D"/>
<path d="M236.33 295.307L235.824 295.981L239.196 298.508L239.702 297.834L236.33 295.307Z" fill="white"/>
<path d="M255.467 204.13C255.467 204.298 255.467 204.467 255.459 204.635C255.451 207.483 255.403 210.297 255.316 213.076C255.231 216.253 255.096 219.387 254.928 222.495C253.705 245.638 250.544 267.088 247.669 289.43L233.514 290.787C235.849 263.701 237.485 240.061 237.164 219.37C237.097 215.149 236.945 211.052 236.709 207.078L255.467 204.13Z" fill="#FF5970"/>
<path d="M255.077 216.967L254.11 232.273L254.447 232.294L255.414 216.988L255.077 216.967Z" fill="#0D0D0D"/>
<path d="M237.762 285.092L237.342 285.063C238.857 263.174 240.575 238.364 239.87 215.439L240.292 215.426C240.997 238.372 239.278 263.193 237.762 285.092Z" fill="#FF5970"/>
<path d="M268.425 205.949C264.288 208.729 259.899 211.116 255.315 213.077C254.641 213.38 253.958 213.666 253.267 213.953C248.016 216.088 242.638 217.897 237.164 219.37C237.097 215.149 236.945 211.052 236.709 207.078L255.467 204.13C255.467 204.298 255.467 204.466 255.459 204.635L267.16 200.288C267.599 202.074 268.021 203.961 268.425 205.949Z" fill="#FF5970"/>
<path d="M193.58 149.733L191.24 144.925C191.072 144.581 190.945 144.218 190.864 143.843C190.611 142.677 189.935 140.02 189.1 140.437C188.51 140.732 189.002 145.011 189.002 145.011C189.002 145.011 186.147 137.338 185.213 137.781C184.279 138.223 186.837 145.405 186.837 145.405C186.837 145.405 182.112 147.421 184.031 150.569C185.951 153.717 189.84 154.799 189.84 154.799L193.58 149.733Z" fill="#FFCEB7"/>
<path d="M186.373 147.756C186.856 148.339 187.535 149.144 188.328 149.296C188.4 149.318 188.476 149.322 188.55 149.307C188.623 149.291 188.691 149.258 188.748 149.209C188.805 149.16 188.849 149.098 188.876 149.028C188.902 148.958 188.911 148.882 188.9 148.808C188.887 148.359 188.62 147.89 188.418 147.502C188.227 147.114 188.004 146.741 187.752 146.389C187.591 146.175 187.225 146.384 187.388 146.601C187.784 147.135 188.106 147.719 188.347 148.339C188.412 148.478 188.456 148.627 188.476 148.779C188.482 148.94 188.517 148.894 188.378 148.875C187.712 148.783 187.069 147.937 186.673 147.459C186.5 147.25 186.203 147.549 186.374 147.757L186.373 147.756Z" fill="#FFCEB7"/>
<path d="M185.32 148.915C185.803 149.497 186.481 150.303 187.274 150.455C187.346 150.477 187.422 150.48 187.496 150.465C187.569 150.45 187.638 150.416 187.695 150.367C187.752 150.319 187.795 150.256 187.822 150.186C187.849 150.116 187.857 150.04 187.846 149.966C187.834 149.518 187.566 149.048 187.365 148.66C187.173 148.272 186.95 147.899 186.699 147.547C186.538 147.333 186.171 147.542 186.335 147.759C186.73 148.293 187.052 148.878 187.292 149.497C187.358 149.636 187.401 149.785 187.421 149.938C187.427 150.098 187.462 150.052 187.324 150.033C186.658 149.942 186.015 149.096 185.618 148.617C185.445 148.408 185.148 148.707 185.32 148.915V148.915Z" fill="#FFCEB7"/>
<path d="M184.151 149.799C184.586 150.312 185.182 150.99 185.881 151.128C185.948 151.15 186.02 151.154 186.089 151.14C186.158 151.126 186.223 151.095 186.277 151.049C186.33 151.004 186.372 150.945 186.397 150.879C186.422 150.813 186.429 150.742 186.419 150.672C186.403 150.274 186.163 149.861 185.979 149.52C185.813 149.195 185.621 148.883 185.405 148.589C185.242 148.377 184.876 148.587 185.041 148.801C185.387 149.255 185.669 149.754 185.881 150.283C185.933 150.403 185.972 150.528 185.996 150.657C186.014 150.772 186.058 150.736 185.938 150.708C185.339 150.57 184.828 149.947 184.449 149.501C184.273 149.295 183.976 149.594 184.151 149.799Z" fill="#FFCEB7"/>
<path d="M263.477 207.045L242.047 212.571C241.275 212.772 240.469 212.805 239.683 212.67C238.897 212.534 238.15 212.233 237.49 211.785C236.83 211.338 236.273 210.755 235.856 210.076C235.44 209.396 235.173 208.636 235.074 207.845L232.621 188.325L231.98 183.228L231.795 181.736L242.333 163.622L249.532 160.665L266.781 168.113L269.117 199.166C269.25 200.932 268.758 202.688 267.727 204.128C266.697 205.568 265.192 206.6 263.477 207.045Z" fill="#0144C9"/>
<path d="M236.009 183.278C235.267 185.494 234.096 187.12 232.62 188.325L231.979 183.228L236.009 183.278Z" fill="#0D0D0D"/>
<path d="M240.925 182.155C225.187 190.861 203.689 177.522 186.968 155.336L194.415 148.175C212.672 167.656 227.014 176.047 245.28 161.093L240.925 182.155Z" fill="#0144C9"/>
<path d="M282.369 188.568C291.153 186.724 277.465 172.398 269.531 164.881C266.427 161.946 262.287 160.358 258.015 160.464L249.536 160.667L276.378 187.131L282.369 188.568Z" fill="#0144C9"/>
<path d="M274.026 187.124C273.606 187.993 273.68 188.79 274.352 189.522C275.189 190.433 276.308 191.542 277.643 191.475C278.752 191.421 279.597 192.619 280.719 191.976C281.64 191.449 282.083 190.246 282.408 189.298C283.013 187.535 282.727 185.708 281.16 184.552C279.729 183.495 277.747 182.664 276.069 183.674C275.471 184.051 274.988 184.584 274.672 185.215C274.463 185.616 274.41 186.059 274.288 186.487C274.219 186.706 274.132 186.92 274.026 187.124Z" fill="#FFCEB7"/>
<path d="M248.712 170.209C247.042 170.209 245.179 169.796 243.11 168.973L243.235 168.659C248.798 170.874 252.824 170.044 255.54 166.123L255.817 166.314C254.015 168.915 251.667 170.209 248.712 170.209Z" fill="#0D0D0D"/>
<path d="M267.271 174.503L267.552 178.434L269.379 180.33C269.8 178.785 268.605 176.188 267.271 174.503Z" fill="#0D0D0D"/>
<path d="M236.069 185.715C235.561 185.715 235.055 185.704 234.553 185.694L234.563 185.273C236.207 185.306 237.913 185.343 239.546 184.998C240.61 184.775 242.02 184.297 243.144 183.285C242.973 183.179 242.815 183.053 242.674 182.911C242.398 182.651 242.205 182.316 242.119 181.948C242.033 181.58 242.056 181.194 242.188 180.839C242.276 180.645 242.406 180.472 242.568 180.332C242.73 180.193 242.921 180.091 243.127 180.033C243.299 179.979 243.481 179.963 243.66 179.987C243.839 180.011 244.01 180.074 244.162 180.171C244.378 180.334 244.544 180.553 244.643 180.804C244.742 181.055 244.769 181.329 244.721 181.595C244.629 182.086 244.405 182.543 244.073 182.917C244.002 183.006 243.929 183.09 243.854 183.173C244.113 183.272 244.381 183.346 244.654 183.394C246.835 183.793 249.337 182.954 251.581 181.089C251.285 180.852 251.053 180.545 250.905 180.195C250.781 179.912 250.734 179.601 250.77 179.294C250.806 178.987 250.924 178.695 251.111 178.449C251.318 178.198 251.611 178.034 251.933 177.988C252.255 177.943 252.582 178.019 252.851 178.201C253.366 178.604 253.398 179.326 253.21 179.826C253.001 180.302 252.68 180.721 252.274 181.047C252.778 181.291 253.324 181.436 253.882 181.472C254.89 181.532 255.9 181.38 256.845 181.025C257.79 180.669 258.65 180.119 259.369 179.41C259.315 179.375 259.264 179.338 259.213 179.299C258.552 178.784 258.146 177.768 258.611 176.957C258.743 176.744 258.932 176.571 259.156 176.456C259.38 176.342 259.63 176.291 259.881 176.308C260.089 176.307 260.293 176.364 260.47 176.472C260.647 176.581 260.79 176.736 260.884 176.921C261.113 177.409 260.983 178.026 260.51 178.707C260.369 178.91 260.217 179.105 260.056 179.292C260.538 179.458 261.047 179.533 261.556 179.514C262.709 179.488 263.841 179.205 264.872 178.687C265.902 178.17 266.804 177.43 267.513 176.521L267.847 176.777C267.099 177.736 266.147 178.517 265.059 179.063C263.972 179.609 262.777 179.907 261.561 179.936C260.942 179.961 260.325 179.855 259.751 179.622C258.989 180.402 258.067 181.008 257.049 181.399C256.031 181.791 254.941 181.959 253.852 181.892C253.179 181.86 252.524 181.671 251.937 181.34C249.575 183.336 246.909 184.234 244.578 183.809C244.219 183.748 243.87 183.643 243.536 183.497C242.328 184.642 240.785 185.169 239.633 185.413C238.458 185.636 237.264 185.738 236.069 185.715ZM243.513 180.398C243.423 180.399 243.333 180.412 243.246 180.438C243.1 180.479 242.965 180.551 242.849 180.649C242.733 180.746 242.64 180.868 242.576 181.005C242.48 181.283 242.467 181.583 242.537 181.869C242.608 182.154 242.76 182.413 242.975 182.614C243.118 182.758 243.28 182.881 243.457 182.981C243.557 182.877 243.653 182.767 243.746 182.651C244.03 182.336 244.222 181.95 244.305 181.535C244.339 181.347 244.322 181.154 244.255 180.975C244.188 180.797 244.075 180.639 243.926 180.52C243.804 180.438 243.66 180.395 243.513 180.398H243.513ZM252.147 178.391C252.012 178.391 251.878 178.42 251.756 178.477C251.633 178.533 251.524 178.615 251.436 178.718C251.299 178.906 251.214 179.126 251.19 179.358C251.165 179.589 251.202 179.823 251.296 180.035C251.426 180.344 251.636 180.612 251.904 180.812C251.919 180.799 251.933 180.786 251.948 180.773C252.32 180.482 252.618 180.106 252.817 179.677C252.957 179.305 252.924 178.793 252.593 178.533C252.464 178.437 252.306 178.387 252.146 178.391L252.147 178.391ZM259.819 176.727C259.653 176.723 259.488 176.76 259.341 176.837C259.193 176.914 259.068 177.027 258.977 177.166C258.631 177.77 258.965 178.57 259.473 178.966C259.534 179.014 259.598 179.059 259.665 179.1C259.844 178.899 260.011 178.688 260.164 178.467C260.432 178.083 260.707 177.534 260.503 177.1C260.44 176.986 260.347 176.891 260.235 176.826C260.122 176.76 259.994 176.727 259.864 176.729C259.848 176.727 259.833 176.727 259.818 176.727H259.819Z" fill="#0D0D0D"/>
<path d="M251.386 149.026C251.386 152.951 247.473 159.458 243.546 159.458C239.619 159.458 237.142 155.772 237.757 151.896C238.349 148.161 241.039 145.473 244.549 145.155C247.467 144.889 251.386 146.02 251.386 149.026Z" fill="#0D0D0D"/>
<path d="M251.927 162.747C251.924 163.584 251.626 164.393 251.085 165.031C250.545 165.67 249.796 166.097 248.97 166.238C248.145 166.379 247.297 166.225 246.574 165.802C245.852 165.379 245.302 164.715 245.022 163.927C244.044 161.172 242.822 157.675 242.822 157.549L246.454 157.406L250.266 157.263L251.556 161.079L251.733 161.601C251.858 161.97 251.924 162.357 251.927 162.747Z" fill="#FFCEB7"/>
<path d="M251.555 161.079C249.709 161.079 247.155 160.363 244.44 158.846L246.455 157.406L250.266 157.263L251.555 161.079Z" fill="#0D0D0D"/>
<path d="M249.706 147.684C253.149 152.949 257.998 161.023 244.437 158.847L242.136 156.582L242.294 149.158L249.706 147.684Z" fill="#FFCEB7"/>
<path d="M243.819 155.312C243.084 153.882 243.056 152.315 243.455 150.666C246.478 150.781 249.244 150.165 250.885 148.343L249.107 146.84L243.136 147.25L240.218 150.484L239.535 154.811L243.819 155.312Z" fill="#0D0D0D"/>
<path d="M238.509 157.662C240.149 155.589 239.798 152.579 237.724 150.94C235.649 149.3 232.638 149.652 230.997 151.725C229.357 153.797 229.708 156.807 231.782 158.446C233.857 160.086 236.868 159.734 238.509 157.662Z" fill="#0D0D0D"/>
<path d="M242.769 158.057C243.904 158.057 244.824 157.137 244.824 156.003C244.824 154.869 243.904 153.95 242.769 153.95C241.634 153.95 240.714 154.869 240.714 156.003C240.714 157.137 241.634 158.057 242.769 158.057Z" fill="#FFCEB7"/>
<path d="M155.83 320.864L155.081 333.742L174.905 332.928L165.737 326.19L163.618 319.635L155.83 320.864Z" fill="#0D0D0D"/>
<path d="M165.488 325.872L161.638 328.872L162.136 329.51L165.987 326.51L165.488 325.872Z" fill="white"/>
<path d="M167.726 323.763L168.382 284.463C168.426 281.796 167.598 279.187 166.023 277.033C164.447 274.879 162.212 273.298 159.655 272.53L131.479 264.068L120.442 263.663L123.986 284.708L150.21 290.374L152.843 323.763H167.726Z" fill="#F9D056"/>
<path d="M127.061 280.814C129.277 281.383 131.581 283.5 132.162 286.478L128.061 285.567L127.061 280.814Z" fill="#FF5970"/>
<path d="M126.619 337.725L128.542 342.986L128.34 351.384L142.009 346.932L136.136 341.367L134.314 334.386L126.619 337.725Z" fill="#0D0D0D"/>
<path d="M135.262 341.109L128.948 342.73L129.15 343.515L135.464 341.893L135.262 341.109Z" fill="white"/>
<path d="M138.06 335.802L124.29 340.254C115.234 323.377 109.589 302.049 103.83 272.44C103.263 269.493 102.691 266.466 102.114 263.358L113.178 260.744L122.671 258.502L123.506 262.711L125.142 270.919L138.06 335.802Z" fill="#F9D056"/>
<path d="M126.477 337.803C119.404 325.03 113.211 305.501 106.986 276.343L107.304 276.276C113.521 305.401 119.703 324.903 126.761 337.647L126.477 337.803Z" fill="#0D0D0D"/>
<path opacity="0.4" d="M134.682 264.84C133.37 267.656 129.83 269.647 125.14 270.918C119.147 272.544 111.29 272.99 103.829 272.44C103.262 269.493 102.69 266.466 102.113 263.358L113.178 260.744L123.505 262.711L134.682 264.84Z" fill="#FF5970"/>
<path d="M156.437 226.934L154.867 223.342C154.867 223.342 155.329 217.396 151.012 217.383C150.603 217.383 150.201 217.489 149.846 217.69C149.148 218.084 147.925 218.89 147.351 219.972C147.13 220.404 147.052 220.894 147.128 221.373C147.203 221.852 147.429 222.294 147.772 222.637L149.906 224.809L150.445 227.356L156.437 226.934Z" fill="#FFCEB7"/>
<path d="M126.99 220.863L131.538 221.95C136.693 223.182 141.52 226.374 145.35 230.037L152.1 236.647L152.37 251.486L134.955 236.377L126.99 220.863Z" fill="#93B7FF"/>
<path d="M157.581 252.512C157.517 252.532 157.452 252.548 157.387 252.56L156.552 252.73C156.323 252.777 156.09 252.804 155.856 252.811C154.704 252.879 153.567 252.528 152.653 251.825C151.74 251.122 151.111 250.112 150.882 248.983L149.538 226.392L157.362 225.177L160.367 242.426L160.643 244.037L161.145 246.902C161.391 248.116 161.158 249.378 160.493 250.424C159.829 251.47 158.785 252.218 157.581 252.512Z" fill="#93B7FF"/>
<path d="M139.469 235.542L138.996 239.885L141.966 242.424C142.101 240.13 141.194 237.587 139.469 235.542Z" fill="#0D0D0D"/>
<path opacity="0.6" d="M160.643 244.037L160.367 242.426C158.821 242.81 157.447 243.7 156.465 244.954C155.483 246.208 154.949 247.755 154.948 249.347C154.945 250.561 155.258 251.755 155.856 252.811C156.09 252.804 156.323 252.777 156.552 252.73L157.387 252.56C157.452 252.548 157.517 252.532 157.581 252.512C156.92 251.589 156.566 250.482 156.568 249.347C156.567 248.137 156.966 246.961 157.703 246.001C158.44 245.04 159.473 244.35 160.643 244.037Z" fill="#0144C9"/>
<path d="M140.49 230.269L138.003 246.579L137.752 248.19L136.1 259.004L135.857 260.622L135.525 262.8C135.136 265.366 133.402 266.596 130.057 266.798C122.378 266.725 112.658 265.284 102.112 263.358L102.995 259.586L103.359 258L105.862 247.307L106.227 245.713L110.52 227.338L122.605 220.523L126.987 220.863L140.49 230.269Z" fill="#93B7FF"/>
<path d="M126.292 229.194C126.024 229.194 125.756 229.181 125.49 229.154C122.975 228.897 120.88 227.49 119.593 225.192L119.875 225.034C121.11 227.237 123.116 228.586 125.523 228.831C127.791 229.061 130.03 228.258 131.356 226.727L131.602 226.939C130.364 228.365 128.381 229.194 126.292 229.194Z" fill="#0D0D0D"/>
<path d="M107.415 240.424L109.711 237.052C110.723 240.237 109.768 242.42 106.74 243.544L107.415 240.424Z" fill="#0D0D0D"/>
<path opacity="0.6" d="M137.574 246.563C135.829 246.562 134.145 247.199 132.838 248.354C131.532 249.509 130.694 251.102 130.483 252.833C130.271 254.563 130.702 256.311 131.692 257.746C132.682 259.181 134.164 260.204 135.858 260.622L136.101 259.004C134.813 258.649 133.698 257.84 132.963 256.727C132.227 255.613 131.921 254.27 132.101 252.948C132.281 251.626 132.935 250.414 133.942 249.538C134.949 248.661 136.239 248.179 137.575 248.181C137.634 248.18 137.694 248.183 137.753 248.19L138.004 246.579C137.866 246.571 137.72 246.563 137.574 246.563Z" fill="#0144C9"/>
<path opacity="0.6" d="M106.227 245.713L105.862 247.307C107.238 247.515 108.484 248.235 109.351 249.322C110.218 250.409 110.642 251.784 110.537 253.17C110.433 254.556 109.808 255.852 108.787 256.797C107.767 257.742 106.427 258.267 105.036 258.267C104.466 258.27 103.9 258.179 103.359 258L102.995 259.586C103.657 259.785 104.345 259.886 105.036 259.886C106.826 259.884 108.55 259.211 109.867 258C111.184 256.789 111.997 255.128 112.147 253.346C112.297 251.564 111.772 249.79 110.675 248.377C109.579 246.963 107.991 246.012 106.227 245.713Z" fill="#0144C9"/>
<path d="M109.366 263.516L112.014 266.406C112.014 266.406 117.64 268.397 115.901 272.345C115.735 272.718 115.476 273.042 115.147 273.285C114.505 273.762 113.271 274.553 112.049 274.638C111.565 274.665 111.085 274.537 110.677 274.274C110.27 274.011 109.957 273.625 109.783 273.173L108.661 270.343L106.551 268.817L109.366 263.516Z" fill="#FFCEB7"/>
<path d="M101.067 248.651L112.95 264.167L106.154 270.376L93.7536 256.972C93.1476 256.315 92.6203 255.59 92.1823 254.811C91.9178 254.338 91.6903 253.846 91.5018 253.338C90.9106 251.802 90.6622 250.156 90.7742 248.515C90.8862 246.874 91.3557 245.276 92.15 243.835C92.2472 243.649 92.3523 243.471 92.4658 243.293L92.9842 242.459L98.9539 232.9C102.195 227.72 107.31 223.989 113.234 222.483L123.076 219.99L101.067 248.651Z" fill="#93B7FF"/>
<path d="M112.895 264.209L101.015 248.695L101.125 248.611L113.005 264.126L112.895 264.209Z" fill="#0D0D0D"/>
<path opacity="0.6" d="M92.9833 242.458L92.4649 243.292C92.3515 243.47 92.2463 243.649 92.1491 243.834C92.9477 244.375 93.5903 245.116 94.0131 245.982C94.4358 246.848 94.6237 247.81 94.5581 248.772C94.4925 249.734 94.1757 250.661 93.6393 251.462C93.1028 252.263 92.3655 252.91 91.501 253.337C91.6895 253.845 91.917 254.338 92.1814 254.811C93.3131 254.261 94.2789 253.421 94.9806 252.377C95.6823 251.333 96.0949 250.122 96.1764 248.868C96.2579 247.613 96.0055 246.359 95.4447 245.233C94.8839 244.107 94.0348 243.15 92.9838 242.458H92.9833Z" fill="#0144C9"/>
<path d="M130.786 217.545L130.721 217.787L129.644 221.616L129.352 222.652C128.688 224.991 126.121 226.707 123.877 225.04C122.2 223.793 121.091 221.252 121.73 219.277C121.746 219.228 123.755 212.988 123.755 212.988L130.786 217.545Z" fill="#FFCEB7"/>
<path d="M130.721 217.787L129.644 221.616C127.36 220.458 125.877 218.143 124.743 215.294L130.721 217.787Z" fill="#0D0D0D"/>
<path d="M133.757 209.987C134.263 213.578 135.225 217.828 130.77 218.74C127.848 219.337 122.805 215.293 122.805 211.623C122.805 207.954 126.573 205.213 129.555 205.283C133.858 205.383 133.015 204.726 133.757 209.987Z" fill="#FFCEB7"/>
<path d="M123.75 211.926C123.638 210.497 123.746 209.189 124.695 208.351C127.763 208.782 131.099 208.521 134.482 207.71C134.554 207.693 134.41 206.79 134.4 206.73C134.27 205.974 133.983 205.254 133.557 204.617C131.91 202.196 128.655 201.954 125.998 202.256C125.075 202.361 124.191 202.688 123.422 203.209C122.652 203.729 122.021 204.429 121.581 205.247C120.558 207.171 120.91 209.286 121.616 211.253C121.707 211.507 121.805 211.759 121.906 212.009C121.936 212.083 121.966 212.156 121.995 212.229L123.75 211.926Z" fill="#0D0D0D"/>
<path d="M123.252 214.641C124.273 214.641 125.1 213.814 125.1 212.794C125.1 211.775 124.273 210.948 123.252 210.948C122.232 210.948 121.404 211.775 121.404 212.794C121.404 213.814 122.232 214.641 123.252 214.641Z" fill="#FFCEB7"/>
</svg>
