<svg viewBox="0 0 696 471" fill="none" xmlns="http://www.w3.org/2000/svg">
<path d="M576.909 354.265H696C694.296 346.341 682.936 340.229 669.175 340.229C665.23 340.214 661.302 340.741 657.5 341.793C655.374 336.608 649.595 332.904 642.802 332.904C639.704 332.886 636.658 333.693 633.976 335.242C630.009 331.055 623.944 328.385 617.144 328.385C607.772 328.385 599.798 333.464 596.766 340.573C596.402 341.416 596.112 342.288 595.898 343.181C595.63 343.142 595.361 343.12 595.085 343.096C595.023 343.098 594.962 343.095 594.901 343.089C594.509 343.067 594.118 343.058 593.726 343.058C585.597 343.059 578.789 347.83 576.909 354.265Z" fill="#93B7FF"/>
<path opacity="0.6" d="M576.909 354.265H661.96C660.195 350.706 656.327 348.059 651.637 347.415C651.645 347.277 651.652 347.155 651.652 347.016C651.652 343.987 648.567 341.525 644.768 341.525C641.881 341.525 639.41 342.944 638.397 344.946C632.712 343.294 626.672 343.299 620.99 344.961C619.7 339.822 614.243 335.963 607.704 335.963C603.214 335.963 599.238 337.773 596.767 340.573C596.089 341.33 595.523 342.18 595.086 343.097L595.039 343.189C594.997 343.15 594.951 343.117 594.901 343.089C594.51 343.067 594.118 343.058 593.727 343.058C585.598 343.059 578.789 347.829 576.909 354.265Z" fill="white"/>
<path d="M681.115 78.8847H607.4C608.455 73.9806 615.486 70.1967 624.005 70.1967C626.447 70.1879 628.878 70.5138 631.231 71.1651C632.546 67.9559 636.124 65.6627 640.329 65.6627C642.247 65.6517 644.132 66.1514 645.793 67.1104C648.249 64.5184 652.002 62.8662 656.211 62.8662C662.012 62.8662 666.948 66.0091 668.825 70.4101C669.05 70.9317 669.23 71.4717 669.362 72.0242C669.528 72.0006 669.694 71.9863 669.865 71.9721C669.904 71.9728 669.942 71.9713 669.98 71.9674C670.222 71.9531 670.464 71.9482 670.706 71.9482C675.737 71.9484 679.952 74.9015 681.115 78.8847Z" fill="#93B7FF"/>
<path opacity="0.4" d="M327.059 147.721L317.889 118.372C317.824 118.162 317.717 117.966 317.576 117.797C317.435 117.628 317.261 117.488 317.066 117.386C316.871 117.284 316.657 117.221 316.438 117.201C316.218 117.181 315.997 117.205 315.786 117.271L293.511 124.22C293.16 124.328 292.783 124.318 292.438 124.192C292.093 124.065 291.799 123.83 291.602 123.52C288.654 118.966 285.16 114.79 281.196 111.086C280.925 110.836 280.744 110.505 280.68 110.142C280.616 109.779 280.674 109.406 280.844 109.079L291.666 88.4475C291.768 88.2524 291.831 88.039 291.851 87.8196C291.87 87.6002 291.847 87.379 291.781 87.1687C291.715 86.9584 291.609 86.7631 291.468 86.594C291.326 86.4248 291.153 86.2851 290.958 86.1829L263.712 71.9116C263.517 71.8093 263.303 71.7465 263.084 71.7267C262.864 71.7069 262.643 71.7305 262.433 71.7961C262.222 71.8618 262.027 71.9682 261.857 72.1094C261.688 72.2505 261.548 72.4236 261.446 72.6188L250.623 93.2526C250.451 93.5777 250.177 93.8374 249.843 93.9916C249.509 94.1458 249.134 94.186 248.775 94.106C243.472 92.9679 238.05 92.4817 232.63 92.6583C232.262 92.6722 231.901 92.5652 231.6 92.3536C231.299 92.1421 231.076 91.8378 230.966 91.4875L224.012 69.2289C223.946 69.0186 223.84 68.8233 223.698 68.6541C223.557 68.485 223.384 68.3452 223.189 68.243C222.993 68.1407 222.78 68.0779 222.56 68.0581C222.341 68.0383 222.119 68.0619 221.909 68.1275L192.539 77.2904C192.328 77.356 192.133 77.4625 191.963 77.6036C191.794 77.7448 191.654 77.9178 191.552 78.113C191.45 78.3081 191.387 78.5215 191.367 78.7409C191.347 78.9603 191.371 79.1815 191.437 79.3918L198.39 101.651C198.499 102.002 198.489 102.379 198.362 102.723C198.235 103.068 197.999 103.362 197.689 103.559C193.133 106.493 188.955 109.975 185.247 113.925C184.997 114.195 184.665 114.376 184.302 114.439C183.94 114.502 183.566 114.445 183.24 114.275L162.592 103.46C162.198 103.254 161.738 103.212 161.313 103.345C160.888 103.477 160.533 103.773 160.326 104.167L146.035 131.398C145.829 131.792 145.787 132.252 145.92 132.677C146.052 133.102 146.348 133.456 146.742 133.663L167.412 144.505C167.737 144.677 167.997 144.951 168.151 145.286C168.305 145.62 168.345 145.995 168.264 146.354C167.128 151.65 166.627 157.063 166.774 162.477C166.785 162.842 166.677 163.201 166.465 163.499C166.253 163.797 165.95 164.018 165.602 164.128L143.329 171.077C142.904 171.21 142.549 171.505 142.342 171.9C142.136 172.294 142.094 172.754 142.227 173.178L151.403 202.549C151.469 202.759 151.575 202.955 151.716 203.124C151.858 203.293 152.031 203.433 152.226 203.535C152.421 203.637 152.635 203.7 152.855 203.72C153.074 203.74 153.295 203.716 153.506 203.65L175.779 196.701C176.128 196.594 176.503 196.603 176.846 196.728C177.19 196.853 177.483 197.087 177.681 197.394C180.645 201.943 184.143 206.12 188.102 209.837C188.372 210.086 188.552 210.417 188.615 210.779C188.678 211.141 188.62 211.513 188.451 211.839L177.617 232.477C177.515 232.672 177.452 232.886 177.432 233.105C177.412 233.325 177.436 233.546 177.502 233.756C177.567 233.967 177.674 234.162 177.815 234.331C177.957 234.501 178.13 234.64 178.325 234.743L205.58 249.01C205.975 249.216 206.435 249.258 206.86 249.125C207.285 248.992 207.64 248.697 207.846 248.303L218.667 227.671C218.84 227.346 219.114 227.086 219.449 226.932C219.784 226.777 220.161 226.738 220.52 226.819C225.822 227.972 231.245 228.472 236.668 228.307C237.035 228.294 237.396 228.401 237.696 228.613C237.996 228.824 238.218 229.128 238.329 229.478L245.27 251.696C245.336 251.906 245.443 252.101 245.584 252.27C245.725 252.44 245.898 252.579 246.094 252.681C246.289 252.784 246.502 252.847 246.722 252.866C246.941 252.886 247.163 252.863 247.373 252.797L276.743 243.633C277.168 243.501 277.523 243.205 277.729 242.811C277.936 242.417 277.978 241.957 277.845 241.532L270.903 219.314C270.795 218.964 270.805 218.587 270.931 218.243C271.058 217.899 271.294 217.605 271.603 217.407C276.159 214.457 280.337 210.961 284.045 206.997C284.295 206.727 284.627 206.546 284.99 206.482C285.353 206.419 285.726 206.476 286.053 206.646L306.7 217.46C306.895 217.562 307.108 217.625 307.328 217.645C307.547 217.665 307.769 217.641 307.979 217.576C308.19 217.51 308.385 217.404 308.554 217.262C308.724 217.121 308.863 216.948 308.966 216.753L323.247 189.526C323.453 189.132 323.495 188.672 323.363 188.248C323.23 187.823 322.935 187.469 322.541 187.262L301.919 176.437C301.595 176.266 301.336 175.992 301.181 175.659C301.027 175.326 300.987 174.952 301.066 174.593C302.201 169.286 302.686 163.86 302.511 158.436C302.497 158.068 302.604 157.707 302.816 157.406C303.027 157.106 303.332 156.883 303.682 156.772L325.957 149.824C326.167 149.758 326.363 149.651 326.532 149.51C326.702 149.369 326.842 149.196 326.944 149.001C327.046 148.805 327.109 148.592 327.129 148.372C327.149 148.153 327.125 147.931 327.059 147.721V147.721ZM261.7 174.922C238.583 207.044 194.067 183.672 207.369 146.464C207.427 146.304 207.506 146.153 207.605 146.015C230.656 113.915 275.217 137.198 261.937 174.47C261.879 174.631 261.8 174.783 261.7 174.922Z" fill="#BDD3FF"/>
<path opacity="0.4" d="M432.235 53.5805L427.973 39.9393C427.943 39.8415 427.893 39.7507 427.828 39.672C427.762 39.5934 427.681 39.5284 427.591 39.4808C427.5 39.4332 427.401 39.404 427.299 39.3948C427.196 39.3855 427.094 39.3965 426.996 39.427L416.642 42.6565C416.479 42.7068 416.304 42.7022 416.143 42.6435C415.983 42.5848 415.846 42.4751 415.755 42.3314C414.385 40.2144 412.76 38.2732 410.918 36.5512C410.792 36.4353 410.708 36.2811 410.678 36.1125C410.649 35.9439 410.675 35.7703 410.754 35.6185L415.784 26.0289C415.832 25.9382 415.861 25.839 415.87 25.737C415.879 25.635 415.868 25.5322 415.838 25.4345C415.807 25.3367 415.758 25.2459 415.692 25.1673C415.627 25.0887 415.546 25.0238 415.455 24.9763L402.792 18.3436C402.701 18.296 402.602 18.2668 402.5 18.2576C402.398 18.2484 402.295 18.2593 402.197 18.2898C402.099 18.3204 402.008 18.3699 401.93 18.4355C401.851 18.5011 401.786 18.5816 401.738 18.6723L396.708 28.2628C396.628 28.4139 396.501 28.5345 396.346 28.6062C396.19 28.6779 396.016 28.6966 395.849 28.6595C393.384 28.1304 390.864 27.9044 388.345 27.9864C388.174 27.9929 388.006 27.9431 387.866 27.8448C387.726 27.7465 387.623 27.6051 387.571 27.4423L384.34 17.0965C384.309 16.9988 384.26 16.9079 384.194 16.8293C384.128 16.7506 384.048 16.6856 383.957 16.638C383.866 16.5905 383.767 16.5612 383.665 16.552C383.563 16.5428 383.46 16.5537 383.362 16.5843L369.711 20.8432C369.613 20.8737 369.523 20.9231 369.444 20.9887C369.365 21.0542 369.3 21.1347 369.252 21.2254C369.205 21.3161 369.176 21.4153 369.166 21.5173C369.157 21.6193 369.168 21.7221 369.199 21.8198L372.43 32.1656C372.481 32.3288 372.476 32.504 372.417 32.6643C372.358 32.8246 372.248 32.9611 372.104 33.0529C369.987 34.4166 368.045 36.0346 366.321 37.8707C366.205 37.9963 366.051 38.0803 365.883 38.1097C365.714 38.1392 365.54 38.1124 365.389 38.0335L355.792 33.0068C355.701 32.9592 355.602 32.93 355.5 32.9208C355.398 32.9115 355.295 32.9225 355.197 32.953C355.099 32.9835 355.008 33.033 354.93 33.0986C354.851 33.1642 354.786 33.2446 354.738 33.3353L348.096 45.9918C348.049 46.0825 348.02 46.1816 348.01 46.2836C348.001 46.3855 348.012 46.4883 348.042 46.5861C348.073 46.6838 348.122 46.7746 348.188 46.8533C348.254 46.9319 348.334 46.9969 348.425 47.0444L358.031 52.084C358.182 52.164 358.303 52.2915 358.375 52.4468C358.446 52.6021 358.465 52.7766 358.427 52.9435C357.899 55.405 357.666 57.9208 357.735 60.4375C357.74 60.6072 357.689 60.774 357.591 60.9125C357.493 61.051 357.352 61.1536 357.19 61.2048L346.837 64.4343C346.739 64.4647 346.648 64.5141 346.57 64.5797C346.491 64.6453 346.426 64.7258 346.378 64.8165C346.331 64.9072 346.301 65.0064 346.292 65.1085C346.283 65.2105 346.294 65.3133 346.325 65.4111L350.59 79.0623C350.62 79.1601 350.67 79.251 350.735 79.3296C350.801 79.4083 350.881 79.4733 350.972 79.5209C351.063 79.5685 351.162 79.5977 351.264 79.6069C351.366 79.6161 351.469 79.6051 351.567 79.5746L361.919 76.3451C362.082 76.2952 362.256 76.2997 362.416 76.3578C362.575 76.4159 362.712 76.5245 362.804 76.6671C364.181 78.7814 365.807 80.723 367.647 82.4504C367.772 82.5664 367.856 82.7202 367.885 82.8883C367.915 83.0564 367.888 83.2295 367.809 83.3809L362.774 92.9736C362.726 93.0643 362.697 93.1635 362.688 93.2655C362.679 93.3676 362.69 93.4704 362.72 93.5682C362.751 93.6659 362.8 93.7567 362.866 93.8354C362.932 93.914 363.012 93.9789 363.103 94.0265L375.771 100.658C375.862 100.705 375.961 100.735 376.063 100.744C376.165 100.753 376.268 100.742 376.366 100.712C376.464 100.681 376.554 100.632 376.633 100.566C376.712 100.5 376.777 100.42 376.824 100.329L381.854 90.7399C381.934 90.5885 382.062 90.4676 382.217 90.3959C382.373 90.3243 382.548 90.3059 382.715 90.3435C385.179 90.8796 387.7 91.112 390.22 91.0355C390.391 91.0293 390.559 91.0792 390.698 91.1775C390.838 91.2757 390.941 91.417 390.992 91.5796L394.219 101.906C394.249 102.004 394.299 102.095 394.364 102.174C394.43 102.252 394.51 102.317 394.601 102.365C394.692 102.412 394.791 102.442 394.893 102.451C394.995 102.46 395.098 102.449 395.196 102.418L408.847 98.1595C408.945 98.1291 409.036 98.0796 409.114 98.0141C409.193 97.9485 409.258 97.8681 409.306 97.7774C409.353 97.6867 409.383 97.5875 409.392 97.4855C409.401 97.3835 409.39 97.2807 409.36 97.1829L406.133 86.8561C406.083 86.6932 406.088 86.5183 406.146 86.3582C406.205 86.1982 406.314 86.0617 406.458 85.9699C408.576 84.5984 410.518 82.9735 412.241 81.1314C412.357 81.0056 412.512 80.9214 412.68 80.8919C412.849 80.8624 413.023 80.8892 413.175 80.9682L422.771 85.9944C422.862 86.0419 422.961 86.0711 423.063 86.0803C423.165 86.0896 423.268 86.0786 423.366 86.0481C423.464 86.0175 423.555 85.9681 423.633 85.9024C423.712 85.8368 423.777 85.7563 423.824 85.6656L430.462 73.0105C430.558 72.8274 430.578 72.6138 430.516 72.4165C430.454 72.2192 430.317 72.0544 430.134 71.9583L420.55 66.9267C420.399 66.8469 420.279 66.7199 420.207 66.5651C420.135 66.4103 420.117 66.2363 420.153 66.0697C420.681 63.6028 420.907 61.081 420.825 58.5597C420.819 58.389 420.868 58.2209 420.967 58.0813C421.065 57.9416 421.207 57.8381 421.37 57.7866L431.723 54.5571C431.82 54.5266 431.911 54.4772 431.99 54.4116C432.069 54.346 432.134 54.2656 432.181 54.1749C432.229 54.0842 432.258 53.985 432.267 53.883C432.277 53.781 432.266 53.6782 432.235 53.5805V53.5805ZM401.856 66.2234C391.112 81.1537 370.421 70.2901 376.604 52.996C376.631 52.9219 376.667 52.8517 376.713 52.7876C387.427 37.8678 408.14 48.6895 401.966 66.0134C401.939 66.0881 401.903 66.1588 401.857 66.2234H401.856Z" fill="#BDD3FF"/>
<path d="M388.839 120.71L388.818 119.819C390.285 119.785 391.768 119.689 393.227 119.534L393.321 120.419C391.838 120.577 390.33 120.675 388.839 120.71ZM384.349 120.633C382.863 120.548 381.36 120.403 379.882 120.202L380.003 119.318C381.458 119.517 382.937 119.66 384.399 119.743L384.349 120.633ZM397.764 119.765L397.599 118.89C399.028 118.62 400.478 118.288 401.908 117.901L402.14 118.761C400.688 119.154 399.216 119.492 397.764 119.765V119.765ZM375.465 119.421C374.023 119.109 372.56 118.734 371.118 118.308L371.372 117.453C372.792 117.873 374.232 118.242 375.653 118.55L375.465 119.421ZM406.426 117.427L406.13 116.587C407.502 116.104 408.888 115.561 410.25 114.973L410.603 115.791C409.223 116.387 407.818 116.938 406.426 117.427V117.427ZM366.869 116.885C365.498 116.373 364.103 115.801 362.723 115.182L363.088 114.369C364.451 114.98 365.829 115.546 367.181 116.051L366.869 116.885ZM414.66 113.879L414.254 113.085C415.542 112.428 416.848 111.71 418.136 110.952L418.589 111.721C417.285 112.488 415.963 113.214 414.66 113.879V113.879ZM358.689 113.228C357.401 112.56 356.081 111.83 354.767 111.059L355.218 110.291C356.519 111.054 357.826 111.776 359.1 112.437L358.689 113.228ZM422.386 109.342L421.891 108.601C423.092 107.803 424.312 106.946 425.521 106.053L426.05 106.769C424.831 107.671 423.597 108.536 422.386 109.343V109.342ZM350.956 108.706C349.745 107.921 348.497 107.077 347.248 106.198L347.76 105.47C349 106.342 350.238 107.18 351.44 107.959L350.956 108.706ZM429.586 104.024L429.023 103.333C430.151 102.416 431.289 101.449 432.404 100.46L432.996 101.126C431.871 102.124 430.724 103.099 429.586 104.024V104.024ZM343.632 103.561C342.492 102.702 341.303 101.779 340.098 100.822L340.654 100.125C341.816 101.05 342.988 101.958 344.169 102.85L343.632 103.561ZM436.284 98.0909L435.668 97.4481C436.715 96.4445 437.775 95.3904 438.817 94.316L439.458 94.9363C438.407 96.0191 437.34 97.0804 436.284 98.0914L436.284 98.0909ZM336.634 98.0005C335.49 97.0502 334.353 96.0891 333.224 95.1173L333.805 94.4414C334.93 95.4083 336.063 96.3664 337.204 97.3158L336.634 98.0005ZM329.857 92.1896C328.738 91.2074 327.625 90.2228 326.517 89.2359L327.109 88.5704C328.217 89.5548 329.329 90.5382 330.445 91.5206L329.857 92.1896ZM442.516 91.6747L441.856 91.076C442.568 90.2923 443.268 89.5028 443.957 88.7073L444.631 89.2909C443.937 90.0906 443.231 90.8854 442.515 91.6751L442.516 91.6747ZM323.19 86.2745C322.075 85.2827 320.965 84.2964 319.858 83.3156L320.448 82.6475C321.557 83.6275 322.668 84.6149 323.783 85.6097L323.19 86.2745ZM148.849 82.6905L148.089 82.2241C148.87 80.9525 149.696 79.6919 150.543 78.4774L151.275 78.9863C150.437 80.1875 149.62 81.4336 148.849 82.6905ZM316.509 80.3797C315.381 79.4012 314.253 78.4375 313.125 77.4885L313.699 76.8065C314.831 77.7568 315.962 78.7237 317.093 79.7071L316.509 80.3797ZM153.909 75.4279L153.208 74.8782C154.127 73.708 155.093 72.5492 156.079 71.4338L156.748 72.0235C155.773 73.1256 154.818 74.2713 153.909 75.4279ZM309.689 74.6655C308.533 73.739 307.353 72.8193 306.182 71.9318L306.721 71.222C307.898 72.1142 309.083 73.039 310.247 73.9704L309.689 74.6655ZM302.602 69.2936C301.401 68.4339 300.172 67.58 298.952 66.7546L299.451 66.0169C300.679 66.8459 301.914 67.7047 303.121 68.5691L302.602 69.2936ZM159.775 68.7876L159.141 68.1613C160.189 67.104 161.279 66.0637 162.383 65.0674L162.981 65.7287C161.889 66.7131 160.81 67.7423 159.775 68.7871L159.775 68.7876ZM295.234 64.3195C293.985 63.5253 292.711 62.7411 291.449 61.9885L291.906 61.2237C293.177 61.9809 294.456 62.7694 295.713 63.5678L295.234 64.3195ZM166.353 62.8529L165.793 62.1593C166.946 61.2297 168.144 60.3159 169.355 59.4421L169.876 60.1642C168.679 61.0288 167.493 61.9328 166.353 62.8524L166.353 62.8529ZM287.6 59.7668C286.303 59.0434 284.986 58.3338 283.687 57.6588L284.099 56.8688C285.406 57.5478 286.729 58.2612 288.034 58.9891L287.6 59.7668ZM173.539 57.6697L173.056 56.9206C174.301 56.1188 175.59 55.3371 176.885 54.5959L177.328 55.3685C176.046 56.1024 174.772 56.8765 173.539 57.6692L173.539 57.6697ZM279.715 55.6692C278.386 55.0284 277.03 54.3996 275.684 53.8016L276.046 52.9873C277.401 53.5887 278.765 54.2224 280.102 54.8669L279.715 55.6692ZM181.23 53.2637L180.825 52.4693C182.145 51.7996 183.505 51.1512 184.866 50.5418L185.23 51.3552C183.883 51.9584 182.536 52.6005 181.23 53.264L181.23 53.2637ZM271.597 52.061C270.228 51.5042 268.834 50.9623 267.457 50.4525L267.766 49.6173C269.153 50.1296 270.555 50.6748 271.934 51.2363L271.597 52.061ZM189.321 49.6425L188.996 48.8124C190.378 48.2727 191.792 47.7571 193.202 47.2805L193.488 48.1244C192.091 48.5968 190.688 49.1075 189.321 49.6425ZM263.265 48.9808C261.857 48.513 260.431 48.066 259.027 47.6527L259.279 46.7983C260.693 47.2148 262.128 47.6645 263.546 48.1346L263.265 48.9808ZM197.721 46.7981L197.474 45.9421C198.896 45.5319 200.352 45.1472 201.801 44.7989L202.01 45.6653C200.574 46.0114 199.131 46.3925 197.721 46.7992V46.7981ZM254.747 46.4738C253.313 46.1061 251.86 45.7611 250.426 45.4493L250.616 44.5793C252.06 44.8942 253.524 45.2417 254.968 45.6116L254.747 46.4738ZM206.345 44.725L206.174 43.8506C207.632 43.567 209.116 43.3111 210.585 43.0906L210.717 43.9719C209.261 44.1898 207.79 44.4428 206.345 44.7243V44.725ZM246.071 44.5826C244.607 44.3205 243.132 44.0851 241.686 43.8824L241.81 43.0002C243.267 43.2042 244.754 43.4416 246.229 43.7058L246.071 44.5826ZM215.119 43.4055L215.024 42.52C216.499 42.3621 217.999 42.2331 219.483 42.1371L219.541 43.0262C218.069 43.1209 216.583 43.2487 215.119 43.4049V43.4055ZM237.278 43.3521C235.8 43.2042 234.31 43.0848 232.853 42.9975L232.906 42.1084C234.377 42.1962 235.877 42.3164 237.367 42.4648L237.278 43.3521ZM223.975 42.8318L223.954 41.9409C225.448 41.9062 226.941 41.9031 228.432 41.9318L228.416 42.8227C226.939 42.7952 225.458 42.798 223.975 42.8311V42.8318Z" fill="#93B7FF"/>
<path d="M125.125 420L121 390.007L121.356 389.958C210.141 377.711 288.786 356.89 355.108 328.073C415.628 301.776 506.023 225.826 545.364 189.339L545.467 189.244L545.606 189.243L575 189V296.921L529.582 251.435C484.311 293.553 429.657 328.684 367.139 355.848C298.295 385.761 216.989 407.328 125.48 419.951L125.125 420ZM121.811 390.622L125.74 419.188C217.041 406.567 298.158 385.034 366.853 355.186C429.415 328.003 484.086 292.838 529.347 250.67L529.601 250.433L574.282 295.18V189.727L545.752 189.963C506.326 226.514 415.952 302.422 355.395 328.735C289.102 357.539 210.514 378.361 121.811 390.622Z" fill="#93B7FF"/>
<path d="M566 165H459.528L500.104 205.617C457.417 245.187 405.963 278.174 346.725 303.901C280.408 332.702 201.771 353.512 113 365.75L117.025 395C208.455 382.394 289.686 360.858 358.464 330.987C421.158 303.759 475.678 268.69 520.975 226.509L566 271.58V165Z" fill="#699BFF"/>
<path d="M491.398 27.9972L490.714 31.9321L490.511 32.9219C490.385 35.0627 488.282 36.4396 485.964 37.7327L482.387 31.0733L484.273 24.6446L487.702 23.6472L490.927 27.4433L491.398 27.9972Z" fill="#FFCEB7"/>
<path d="M491.398 27.9971L490.714 31.932C488.477 30.5925 487.22 28.653 486.296 25.9282L490.927 27.4427L491.398 27.9971Z" fill="#0D0D0D"/>
<path d="M494.845 19.4913C494.151 22.5502 494.772 27.053 493.488 28.5036C492.319 29.8239 490.137 29.0216 488.855 28.3254C487.131 27.3635 485.705 25.9448 484.735 24.2255C482.424 20.2421 485.717 17.5868 485.717 17.5868L489.992 15.7395C489.992 15.7395 494.847 19.483 494.845 19.4913Z" fill="#FFCEB7"/>
<path d="M488.74 23.4545C488.842 21.7603 488.061 20.2433 489.433 19.3366C495.384 21.6456 494.961 20.9337 498.657 16.835C497.334 16.9175 496.024 16.5289 494.96 15.7383C493.169 14.4104 488.143 10.3706 484.966 16.7196C484.966 16.7196 478.014 18.8747 483.907 25.9181C484.581 24.4942 487.001 24.0521 488.74 23.4545Z" fill="#0D0D0D"/>
<path d="M489.276 22.9889C489.422 22.0871 488.809 21.2375 487.907 21.0911C487.005 20.9448 486.154 21.5572 486.008 22.459C485.861 23.3608 486.474 24.2104 487.377 24.3568C488.279 24.5031 489.129 23.8907 489.276 22.9889Z" fill="#FFCEB7"/>
<path d="M529.448 17.6433C530.064 19.9151 530.13 22.2091 529.91 24.513L530.719 31.6134L524.249 29.9971L523.902 25.0901C522.285 23.4738 521.361 19.4329 521.245 19.2596L529.448 17.6433Z" fill="#FFCEB7"/>
<path d="M554.222 15.8049L543.368 17.5059L500.314 24.2406L499.705 21.0654L542.202 11.4282L552.918 9.00049L554.222 15.8049Z" fill="#FF5970"/>
<path d="M554.222 15.8047L543.368 17.5056L542.203 11.4277L552.919 9L554.222 15.8047Z" fill="#0D0D0D"/>
<path d="M524.249 15.8537C524.249 16.3319 523.628 16.7197 522.862 16.7197C522.097 16.7197 521.476 16.3319 521.476 15.8537C521.476 15.3756 522.097 14.9878 522.862 14.9878C523.628 14.9878 524.249 15.3756 524.249 15.8537Z" fill="#FFCEB7"/>
<path d="M525.058 15.9113C525.823 15.9113 526.444 15.5236 526.444 15.0454C526.444 14.5671 525.823 14.1794 525.058 14.1794C524.292 14.1794 523.671 14.5671 523.671 15.0454C523.671 15.5236 524.292 15.9113 525.058 15.9113Z" fill="#FFCEB7"/>
<path d="M528.928 14.6413C528.928 15.1195 528.307 15.5073 527.542 15.5073C526.776 15.5073 526.155 15.1195 526.155 14.6413C526.155 14.1632 526.776 13.7754 527.542 13.7754C528.307 13.7754 528.928 14.1632 528.928 14.6413Z" fill="#FFCEB7"/>
<path d="M525.173 21.3378C525.173 22.4378 525.935 23.3583 525.057 23.3583C524.18 23.3583 523.324 22.7842 523.324 21.6841C523.324 20.5841 522.186 19.117 522.978 18.7402C524.191 18.1629 525.173 20.238 525.173 21.3378Z" fill="#FFCEB7"/>
<path d="M524.172 28.9387L530.334 28.2651L530.603 30.6126L524.172 28.9387Z" fill="#0D0D0D"/>
<path d="M532.725 31.1932C532.725 31.1932 532.725 57.5171 517.779 55.6705C516.808 55.5504 515.856 55.4119 514.923 55.2549C510.625 54.5121 506.409 53.3552 502.334 51.8005C500.141 50.9941 498.007 50.0374 495.947 48.9371L490.512 32.9211C501.354 35.655 511.235 38.7308 518.592 42.6933L523.435 28.7285L532.725 31.1932Z" fill="#F9D056"/>
<path d="M514.923 55.2541C510.624 54.5112 506.408 53.3543 502.333 51.7996L502.638 47.4307C508.785 48.9363 513.083 52.4647 514.923 55.2541Z" fill="#0D0D0D"/>
<path d="M518.819 84.0303L504.993 76.4488L490.512 32.9219C504.277 47.8762 515.776 65.6727 518.819 84.0303Z" fill="#FF5970"/>
<path d="M522.806 148.801L521.342 164.965H538.815L532.177 157.345L532.47 147.646L522.806 148.801Z" fill="#0D0D0D"/>
<path d="M531.858 157.011L528.396 160.321L529.035 160.988L532.497 157.679L531.858 157.011Z" fill="white"/>
<path d="M491.667 78.8348L494.324 93.8439L518.703 105.389V154.112L536.264 152.342L537.397 108.539C537.475 104.91 536.65 101.319 534.996 98.0865C533.343 94.8546 530.912 92.0834 527.922 90.0218L509.691 77.4492" fill="#0144C9"/>
<path d="M502.528 92.0737C504.983 94.6952 506.597 97.3688 507.226 99.9247L501.642 97.3077L502.528 92.0737Z" fill="#0D0D0D"/>
<path d="M495.7 24.4148C495.578 24.7424 494.983 25.2324 494.179 25.1351C493.555 25.0598 492.911 23.9867 492.911 23.2023C492.911 22.4179 493.421 21.7822 494.051 21.7822C494.99 21.782 495.815 24.1061 495.7 24.4148Z" fill="#FFCEB7"/>
<path d="M477.243 150.225L473.581 165.003H491.989L485.821 157.73L486.592 150.34L477.243 150.225Z" fill="#0D0D0D"/>
<path d="M485.483 157.417L482.277 160.88L482.956 161.507L486.161 158.044L485.483 157.417Z" fill="white"/>
<path d="M504.03 77.7955C502.052 102.417 495.736 128.596 489.818 155.497L472.95 155.266C479.349 126.694 482.01 100.359 481.5 77.6802L504.03 77.7955Z" fill="#0144C9"/>
<path d="M490.512 32.9219C488.968 34.9849 486.064 33.917 482.387 31.0732L488.663 82.1832C495.685 81.6122 502.693 79.9083 509.691 77.4495L490.512 32.9219Z" fill="white"/>
<path d="M495.752 89.3827L476.185 98.0004C474.336 75.3716 470.639 60.5928 469.022 42.5816C468.375 35.3771 482.387 31.073 482.387 31.073C487.868 37.7418 491.482 45.879 493.608 55.1802C494.372 58.5688 494.943 61.9979 495.318 65.4511C496.15 72.8956 496.242 80.913 495.752 89.3827Z" fill="#F9D056"/>
<path d="M490.512 32.9219C503.614 50.183 514.096 67.2841 518.818 84.0303C519.512 66.1347 506.834 45.9964 490.512 32.9219Z" fill="#F9D056"/>
<path d="M503.643 28.6554L505.088 24.8936C505.088 24.8936 503.793 20.4739 505.022 19.9253C506.251 19.3767 510.458 18.6054 511.519 18.5261C512.579 18.4468 514.078 16.7617 514.501 16.9838C514.924 17.2058 514.498 20.3335 512.532 20.5311C512.532 20.5311 512.142 26.8529 510.239 26.5384L508.744 32.3341L503.643 28.6554Z" fill="#FFCEB7"/>
<path d="M495.318 65.4513C488.903 65.2112 480.936 60.8516 476.647 55.05L493.609 55.1794C494.372 58.5684 494.943 61.9978 495.318 65.4513V65.4513Z" fill="#0D0D0D"/>
<path d="M476.185 41.5427L490.858 46.5073L502.99 27.9189L511.077 33.1138C511.077 33.1138 503.452 63.5942 489.819 60.7077C477.444 58.0878 474.568 53.8959 474.568 53.8959L476.185 41.5427Z" fill="#F9D056"/>
<path d="M490.935 46.7282L476.125 41.7169L476.245 41.367L490.782 46.2856L502.835 27.8171L503.145 28.0192L490.935 46.7282Z" fill="#0D0D0D"/>
<path d="M503.726 28.3806L509.402 29.8094L508.925 31.7143L503.726 28.3806Z" fill="#0D0D0D"/>
<path d="M377.741 290.867L379.111 304.224L399.345 300.099L388.807 294.697L385.54 288.313L377.741 290.867Z" fill="#0D0D0D"/>
<path d="M388.415 294.545L387.253 297.541L388.039 297.845L389.201 294.85L388.415 294.545Z" fill="white"/>
<path d="M389.502 290.208L375.102 294.294C372.16 273.03 370.794 251.016 367.928 231.496C367.574 229.053 367.192 226.652 366.781 224.293L366.267 222.953L363.417 215.514L368.459 213.635L380.16 209.288C380.599 211.074 381.02 212.962 381.425 214.95C385.32 234.166 387.428 262.078 389.502 290.208Z" fill="#FF5970"/>
<path d="M385.329 288.321C384.555 266.779 383.136 239.48 379.01 219.421L379.423 219.336C383.556 239.425 384.975 266.747 385.75 288.306L385.329 288.321Z" fill="#FF5970"/>
<path d="M349.709 296.008L349.077 304.644L344.018 320.335L358.139 310.225L358.982 293.692L349.709 296.008Z" fill="#0D0D0D"/>
<path d="M349.33 304.307L348.824 304.981L352.196 307.508L352.702 306.834L349.33 304.307Z" fill="white"/>
<path d="M368.467 213.13C368.467 213.298 368.467 213.467 368.459 213.635C368.451 216.483 368.403 219.297 368.316 222.076C368.231 225.253 368.096 228.387 367.928 231.495C366.705 254.638 363.544 276.088 360.669 298.43L346.514 299.787C348.849 272.701 350.485 249.061 350.164 228.37C350.097 224.149 349.945 220.052 349.709 216.078L368.467 213.13Z" fill="#FF5970"/>
<path d="M368.077 225.967L367.11 241.273L367.447 241.294L368.414 225.988L368.077 225.967Z" fill="#0D0D0D"/>
<path d="M350.762 294.092L350.342 294.063C351.857 272.174 353.575 247.364 352.87 224.439L353.292 224.426C353.997 247.372 352.278 272.193 350.762 294.092Z" fill="#FF5970"/>
<path d="M381.425 214.949C377.288 217.729 372.899 220.116 368.315 222.077C367.641 222.38 366.958 222.666 366.267 222.953C361.016 225.088 355.638 226.897 350.164 228.37C350.097 224.149 349.945 220.052 349.709 216.078L368.467 213.13C368.467 213.298 368.467 213.466 368.459 213.635L380.16 209.288C380.599 211.074 381.021 212.961 381.425 214.949Z" fill="#FF5970"/>
<path d="M306.58 158.733L304.24 153.925C304.072 153.581 303.945 153.218 303.864 152.843C303.611 151.677 302.935 149.02 302.1 149.437C301.51 149.732 302.002 154.011 302.002 154.011C302.002 154.011 299.147 146.338 298.213 146.781C297.279 147.223 299.837 154.405 299.837 154.405C299.837 154.405 295.112 156.421 297.031 159.569C298.951 162.717 302.84 163.799 302.84 163.799L306.58 158.733Z" fill="#FFCEB7"/>
<path d="M299.373 156.756C299.856 157.339 300.535 158.144 301.328 158.296C301.4 158.318 301.476 158.322 301.55 158.307C301.623 158.291 301.691 158.258 301.748 158.209C301.805 158.16 301.849 158.098 301.876 158.028C301.902 157.958 301.911 157.882 301.9 157.808C301.887 157.359 301.62 156.89 301.418 156.502C301.227 156.114 301.004 155.741 300.752 155.389C300.591 155.175 300.225 155.384 300.388 155.601C300.784 156.135 301.106 156.719 301.347 157.339C301.412 157.478 301.456 157.627 301.476 157.779C301.482 157.94 301.517 157.894 301.378 157.875C300.712 157.783 300.069 156.937 299.673 156.459C299.5 156.25 299.203 156.549 299.374 156.757L299.373 156.756Z" fill="#FFCEB7"/>
<path d="M298.32 157.915C298.803 158.497 299.481 159.303 300.274 159.455C300.346 159.477 300.422 159.48 300.496 159.465C300.569 159.45 300.638 159.416 300.695 159.367C300.752 159.319 300.795 159.256 300.822 159.186C300.849 159.116 300.857 159.04 300.846 158.966C300.834 158.518 300.566 158.048 300.365 157.66C300.173 157.272 299.95 156.899 299.699 156.547C299.538 156.333 299.171 156.542 299.335 156.759C299.73 157.293 300.052 157.878 300.292 158.497C300.358 158.636 300.401 158.785 300.421 158.938C300.427 159.098 300.462 159.052 300.324 159.033C299.658 158.942 299.015 158.096 298.618 157.617C298.445 157.408 298.148 157.707 298.32 157.915V157.915Z" fill="#FFCEB7"/>
<path d="M297.151 158.799C297.586 159.312 298.182 159.99 298.881 160.128C298.948 160.15 299.02 160.154 299.089 160.14C299.158 160.126 299.223 160.095 299.277 160.049C299.33 160.004 299.372 159.945 299.397 159.879C299.422 159.813 299.429 159.742 299.419 159.672C299.403 159.274 299.163 158.861 298.979 158.52C298.813 158.195 298.621 157.883 298.405 157.589C298.242 157.377 297.876 157.587 298.041 157.801C298.387 158.255 298.669 158.754 298.881 159.283C298.933 159.403 298.972 159.528 298.996 159.657C299.014 159.772 299.058 159.736 298.938 159.708C298.339 159.57 297.828 158.947 297.449 158.501C297.273 158.295 296.976 158.594 297.151 158.799V158.799Z" fill="#FFCEB7"/>
<path d="M376.477 216.045L355.047 221.571C354.275 221.772 353.469 221.805 352.683 221.67C351.897 221.534 351.15 221.233 350.49 220.785C349.83 220.338 349.273 219.755 348.856 219.076C348.44 218.396 348.173 217.636 348.074 216.845L345.621 197.325L344.98 192.228L344.795 190.736L355.333 172.622L362.532 169.665L379.781 177.113L382.117 208.166C382.25 209.932 381.758 211.688 380.727 213.128C379.697 214.568 378.192 215.6 376.477 216.045V216.045Z" fill="#0144C9"/>
<path d="M349.009 192.278C348.267 194.494 347.096 196.12 345.62 197.325L344.979 192.228L349.009 192.278Z" fill="#0D0D0D"/>
<path d="M353.925 191.155C338.187 199.861 316.689 186.522 299.968 164.336L307.415 157.175C325.672 176.656 340.014 185.047 358.28 170.093L353.925 191.155Z" fill="#0144C9"/>
<path d="M395.369 197.568C404.153 195.724 390.465 181.398 382.531 173.881C379.427 170.946 375.287 169.358 371.015 169.464L362.536 169.667L389.378 196.131L395.369 197.568Z" fill="#0144C9"/>
<path d="M387.026 196.124C386.606 196.993 386.68 197.79 387.352 198.522C388.189 199.433 389.308 200.542 390.643 200.475C391.752 200.421 392.597 201.619 393.719 200.976C394.64 200.449 395.083 199.246 395.408 198.298C396.013 196.535 395.727 194.708 394.16 193.552C392.729 192.495 390.747 191.664 389.069 192.674C388.471 193.051 387.988 193.584 387.672 194.215C387.463 194.616 387.41 195.059 387.288 195.487C387.219 195.706 387.132 195.92 387.026 196.124Z" fill="#FFCEB7"/>
<path d="M361.712 179.209C360.042 179.209 358.179 178.796 356.11 177.973L356.235 177.659C361.798 179.874 365.824 179.044 368.54 175.123L368.817 175.314C367.015 177.915 364.667 179.209 361.712 179.209Z" fill="#0D0D0D"/>
<path d="M380.271 183.503L380.552 187.434L382.379 189.33C382.8 187.785 381.605 185.188 380.271 183.503Z" fill="#0D0D0D"/>
<path d="M349.069 194.715C348.561 194.715 348.055 194.704 347.553 194.694L347.563 194.273C349.207 194.306 350.913 194.343 352.546 193.998C353.61 193.775 355.02 193.297 356.144 192.285C355.973 192.179 355.815 192.053 355.674 191.911C355.398 191.651 355.205 191.316 355.119 190.948C355.033 190.58 355.056 190.194 355.188 189.839C355.276 189.645 355.406 189.472 355.568 189.332C355.73 189.193 355.921 189.091 356.127 189.033C356.299 188.979 356.481 188.963 356.66 188.987C356.839 189.011 357.01 189.074 357.162 189.171C357.378 189.334 357.544 189.553 357.643 189.804C357.742 190.055 357.769 190.329 357.721 190.595C357.629 191.086 357.405 191.543 357.073 191.917C357.002 192.006 356.929 192.09 356.854 192.173C357.113 192.272 357.381 192.346 357.654 192.394C359.835 192.793 362.337 191.954 364.581 190.089C364.285 189.852 364.053 189.545 363.905 189.195C363.781 188.912 363.734 188.601 363.77 188.294C363.806 187.987 363.924 187.695 364.111 187.449C364.318 187.198 364.611 187.034 364.933 186.988C365.255 186.943 365.582 187.019 365.851 187.201C366.366 187.604 366.398 188.326 366.21 188.826C366.001 189.302 365.68 189.721 365.274 190.047C365.778 190.291 366.324 190.436 366.882 190.472C367.89 190.532 368.9 190.38 369.845 190.025C370.79 189.669 371.65 189.119 372.369 188.41C372.315 188.375 372.264 188.338 372.213 188.299C371.552 187.784 371.146 186.768 371.611 185.957C371.743 185.744 371.932 185.571 372.156 185.456C372.38 185.342 372.63 185.291 372.881 185.308C373.089 185.307 373.293 185.364 373.47 185.472C373.647 185.581 373.79 185.736 373.884 185.921C374.113 186.409 373.983 187.026 373.51 187.707C373.369 187.91 373.217 188.105 373.056 188.292C373.538 188.458 374.047 188.533 374.556 188.514C375.709 188.488 376.841 188.205 377.872 187.687C378.902 187.17 379.804 186.43 380.513 185.521L380.847 185.777C380.099 186.736 379.147 187.517 378.059 188.063C376.972 188.609 375.777 188.907 374.561 188.936C373.942 188.961 373.325 188.855 372.751 188.622C371.989 189.402 371.067 190.008 370.049 190.399C369.031 190.791 367.941 190.959 366.852 190.892C366.179 190.86 365.524 190.671 364.937 190.34C362.575 192.336 359.909 193.234 357.578 192.809C357.219 192.748 356.87 192.643 356.536 192.497C355.328 193.642 353.785 194.169 352.633 194.413C351.458 194.636 350.264 194.738 349.069 194.715V194.715ZM356.513 189.398C356.423 189.399 356.333 189.412 356.246 189.438C356.1 189.479 355.965 189.551 355.849 189.649C355.733 189.746 355.64 189.868 355.576 190.005C355.48 190.283 355.467 190.583 355.537 190.869C355.608 191.154 355.76 191.413 355.975 191.614C356.118 191.758 356.28 191.881 356.457 191.981C356.557 191.877 356.653 191.767 356.746 191.651C357.03 191.336 357.222 190.95 357.305 190.535C357.339 190.347 357.322 190.154 357.255 189.975C357.188 189.797 357.075 189.639 356.926 189.52C356.804 189.438 356.66 189.395 356.513 189.398H356.513ZM365.147 187.391C365.012 187.391 364.878 187.42 364.756 187.477C364.633 187.533 364.524 187.615 364.436 187.718C364.299 187.906 364.214 188.126 364.19 188.358C364.165 188.589 364.202 188.823 364.296 189.035C364.426 189.344 364.636 189.612 364.904 189.812C364.919 189.799 364.933 189.786 364.948 189.773C365.32 189.482 365.618 189.106 365.817 188.677C365.957 188.305 365.924 187.793 365.593 187.533C365.464 187.437 365.306 187.387 365.146 187.391L365.147 187.391ZM372.819 185.727C372.653 185.723 372.488 185.76 372.341 185.837C372.193 185.914 372.068 186.027 371.977 186.166C371.631 186.77 371.965 187.57 372.473 187.966C372.534 188.014 372.598 188.059 372.665 188.1C372.844 187.899 373.011 187.688 373.164 187.467C373.432 187.083 373.707 186.534 373.503 186.1C373.44 185.986 373.347 185.891 373.235 185.826C373.122 185.76 372.994 185.727 372.864 185.729C372.848 185.727 372.833 185.727 372.818 185.727H372.819Z" fill="#0D0D0D"/>
<path d="M364.386 158.026C364.386 161.951 360.473 168.458 356.546 168.458C352.619 168.458 350.142 164.772 350.757 160.896C351.349 157.161 354.039 154.473 357.549 154.155C360.467 153.889 364.386 155.02 364.386 158.026Z" fill="#0D0D0D"/>
<path d="M364.927 171.747C364.924 172.584 364.626 173.393 364.085 174.031C363.545 174.67 362.796 175.097 361.97 175.238C361.145 175.379 360.297 175.225 359.574 174.802C358.852 174.379 358.302 173.715 358.022 172.927C357.044 170.172 355.822 166.675 355.822 166.549L359.454 166.406L363.266 166.263L364.556 170.079L364.733 170.601C364.858 170.97 364.924 171.357 364.927 171.747Z" fill="#FFCEB7"/>
<path d="M364.555 170.079C362.709 170.079 360.155 169.363 357.44 167.846L359.455 166.406L363.266 166.263L364.555 170.079Z" fill="#0D0D0D"/>
<path d="M362.706 156.684C366.149 161.949 370.998 170.023 357.437 167.847L355.136 165.582L355.294 158.158L362.706 156.684Z" fill="#FFCEB7"/>
<path d="M356.819 164.312C356.084 162.882 356.056 161.315 356.455 159.666C359.478 159.781 362.244 159.165 363.885 157.343L362.107 155.84L356.136 156.25L353.218 159.484L352.535 163.811L356.819 164.312Z" fill="#0D0D0D"/>
<path d="M351.509 166.662C353.149 164.589 352.798 161.579 350.724 159.94C348.649 158.3 345.638 158.652 343.997 160.725C342.357 162.797 342.708 165.807 344.782 167.446C346.857 169.086 349.868 168.734 351.509 166.662Z" fill="#0D0D0D"/>
<path d="M355.769 167.057C356.904 167.057 357.824 166.137 357.824 165.003C357.824 163.869 356.904 162.95 355.769 162.95C354.634 162.95 353.714 163.869 353.714 165.003C353.714 166.137 354.634 167.057 355.769 167.057Z" fill="#FFCEB7"/>
<path d="M268.83 329.864L268.081 342.742L287.905 341.928L278.737 335.19L276.618 328.635L268.83 329.864Z" fill="#0D0D0D"/>
<path d="M278.488 334.872L274.638 337.872L275.136 338.51L278.987 335.51L278.488 334.872Z" fill="white"/>
<path d="M280.726 332.763L281.382 293.463C281.426 290.796 280.598 288.187 279.023 286.033C277.447 283.879 275.212 282.298 272.655 281.53L244.479 273.068L233.442 272.663L236.986 293.708L263.21 299.374L265.843 332.763H280.726Z" fill="#F9D056"/>
<path d="M240.061 289.814C242.277 290.383 244.581 292.5 245.162 295.478L241.061 294.567L240.061 289.814Z" fill="#FF5970"/>
<path d="M239.619 346.725L241.542 351.986L241.34 360.384L255.009 355.932L249.136 350.367L247.314 343.386L239.619 346.725Z" fill="#0D0D0D"/>
<path d="M248.262 350.109L241.948 351.73L242.15 352.515L248.464 350.893L248.262 350.109Z" fill="white"/>
<path d="M251.06 344.802L237.29 349.254C228.234 332.377 222.589 311.049 216.83 281.44C216.263 278.493 215.691 275.466 215.114 272.358L226.178 269.744L235.671 267.502L236.506 271.711L238.142 279.919L251.06 344.802Z" fill="#F9D056"/>
<path d="M239.477 346.803C232.404 334.03 226.211 314.501 219.986 285.343L220.304 285.276C226.521 314.401 232.703 333.903 239.761 346.647L239.477 346.803Z" fill="#0D0D0D"/>
<path opacity="0.4" d="M247.682 273.84C246.37 276.656 242.83 278.647 238.14 279.918C232.147 281.544 224.29 281.99 216.829 281.44C216.262 278.493 215.69 275.466 215.113 272.358L226.178 269.744L236.505 271.711L247.682 273.84Z" fill="#FF5970"/>
<path d="M269.437 235.934L267.867 232.342C267.867 232.342 268.329 226.396 264.012 226.383C263.603 226.383 263.201 226.489 262.846 226.69C262.148 227.084 260.925 227.89 260.351 228.972C260.13 229.404 260.052 229.894 260.128 230.373C260.203 230.852 260.429 231.294 260.772 231.637L262.906 233.809L263.445 236.356L269.437 235.934Z" fill="#FFCEB7"/>
<path d="M239.99 229.863L244.538 230.95C249.693 232.182 254.52 235.374 258.35 239.037L265.1 245.647L265.37 260.486L247.955 245.377L239.99 229.863Z" fill="#93B7FF"/>
<path d="M270.581 261.512C270.517 261.532 270.452 261.548 270.387 261.56L269.552 261.73C269.323 261.777 269.09 261.804 268.856 261.811C267.704 261.879 266.567 261.528 265.653 260.825C264.74 260.122 264.111 259.112 263.882 257.983L262.538 235.392L270.362 234.177L273.367 251.426L273.643 253.037L274.145 255.902C274.391 257.116 274.158 258.378 273.493 259.424C272.829 260.47 271.785 261.218 270.581 261.512V261.512Z" fill="#93B7FF"/>
<path d="M252.469 244.542L251.996 248.885L254.966 251.424C255.101 249.13 254.194 246.587 252.469 244.542Z" fill="#0D0D0D"/>
<path opacity="0.6" d="M273.643 253.037L273.367 251.426C271.821 251.81 270.447 252.7 269.465 253.954C268.483 255.208 267.949 256.755 267.948 258.347C267.945 259.561 268.258 260.755 268.856 261.811C269.09 261.804 269.323 261.777 269.552 261.73L270.387 261.56C270.452 261.548 270.517 261.532 270.581 261.512C269.92 260.589 269.566 259.482 269.568 258.347C269.567 257.137 269.966 255.961 270.703 255.001C271.44 254.04 272.473 253.35 273.643 253.037V253.037Z" fill="#0144C9"/>
<path d="M253.49 239.269L251.003 255.579L250.752 257.19L249.1 268.004L248.857 269.622L248.525 271.8C248.136 274.366 246.402 275.596 243.057 275.798C235.378 275.725 225.658 274.284 215.112 272.358L215.995 268.586L216.359 267L218.862 256.307L219.227 254.713L223.52 236.338L235.605 229.523L239.987 229.863L253.49 239.269Z" fill="#93B7FF"/>
<path d="M239.292 238.194C239.024 238.194 238.756 238.181 238.49 238.154C235.975 237.897 233.88 236.49 232.593 234.192L232.875 234.034C234.11 236.237 236.116 237.586 238.523 237.831C240.791 238.061 243.03 237.258 244.356 235.727L244.602 235.939C243.364 237.365 241.381 238.194 239.292 238.194Z" fill="#0D0D0D"/>
<path d="M220.415 249.424L222.711 246.052C223.723 249.237 222.768 251.42 219.74 252.544L220.415 249.424Z" fill="#0D0D0D"/>
<path opacity="0.6" d="M250.574 255.563C248.829 255.562 247.145 256.199 245.838 257.354C244.532 258.509 243.694 260.102 243.483 261.833C243.271 263.563 243.702 265.311 244.692 266.746C245.682 268.181 247.164 269.204 248.858 269.622L249.101 268.004C247.813 267.649 246.698 266.84 245.963 265.727C245.227 264.613 244.921 263.27 245.101 261.948C245.281 260.626 245.935 259.414 246.942 258.538C247.949 257.661 249.239 257.179 250.575 257.181C250.634 257.18 250.694 257.183 250.753 257.19L251.004 255.579C250.866 255.571 250.72 255.563 250.574 255.563Z" fill="#0144C9"/>
<path opacity="0.6" d="M219.227 254.713L218.862 256.307C220.238 256.515 221.484 257.235 222.351 258.322C223.218 259.409 223.642 260.784 223.537 262.17C223.433 263.556 222.808 264.852 221.787 265.797C220.767 266.742 219.427 267.267 218.036 267.267C217.466 267.27 216.9 267.179 216.359 267L215.995 268.586C216.657 268.785 217.345 268.886 218.036 268.886C219.826 268.884 221.55 268.211 222.867 267C224.184 265.789 224.997 264.128 225.147 262.346C225.297 260.564 224.772 258.79 223.675 257.377C222.579 255.963 220.991 255.012 219.227 254.713V254.713Z" fill="#0144C9"/>
<path d="M222.366 272.516L225.014 275.406C225.014 275.406 230.64 277.397 228.901 281.345C228.735 281.718 228.476 282.042 228.147 282.285C227.505 282.762 226.271 283.553 225.049 283.638C224.565 283.665 224.085 283.537 223.677 283.274C223.27 283.011 222.957 282.625 222.783 282.173L221.661 279.343L219.551 277.817L222.366 272.516Z" fill="#FFCEB7"/>
<path d="M214.067 257.651L225.95 273.167L219.154 279.376L206.754 265.972C206.148 265.315 205.62 264.59 205.182 263.811C204.918 263.338 204.69 262.846 204.502 262.338C203.911 260.802 203.662 259.156 203.774 257.515C203.886 255.874 204.356 254.276 205.15 252.835C205.247 252.649 205.352 252.471 205.466 252.293L205.984 251.459L211.954 241.9C215.195 236.72 220.31 232.989 226.234 231.483L236.076 228.99L214.067 257.651Z" fill="#93B7FF"/>
<path d="M225.895 273.209L214.015 257.695L214.125 257.611L226.005 273.126L225.895 273.209Z" fill="#0D0D0D"/>
<path opacity="0.6" d="M205.983 251.458L205.465 252.292C205.351 252.47 205.246 252.649 205.149 252.834C205.948 253.375 206.59 254.116 207.013 254.982C207.436 255.848 207.624 256.81 207.558 257.772C207.493 258.734 207.176 259.661 206.639 260.462C206.103 261.263 205.366 261.91 204.501 262.337C204.689 262.845 204.917 263.338 205.181 263.811C206.313 263.261 207.279 262.421 207.981 261.377C208.682 260.333 209.095 259.122 209.176 257.868C209.258 256.613 209.005 255.359 208.445 254.233C207.884 253.107 207.035 252.15 205.984 251.458H205.983Z" fill="#0144C9"/>
<path d="M243.786 226.545L243.721 226.787L242.644 230.616L242.352 231.652C241.688 233.991 239.121 235.707 236.877 234.04C235.2 232.793 234.091 230.252 234.73 228.277C234.746 228.228 236.755 221.988 236.755 221.988L243.786 226.545Z" fill="#FFCEB7"/>
<path d="M243.721 226.787L242.644 230.616C240.36 229.458 238.877 227.143 237.743 224.294L243.721 226.787Z" fill="#0D0D0D"/>
<path d="M246.757 218.987C247.263 222.578 248.225 226.828 243.77 227.74C240.848 228.337 235.805 224.293 235.805 220.623C235.805 216.954 239.573 214.213 242.555 214.283C246.858 214.383 246.015 213.726 246.757 218.987Z" fill="#FFCEB7"/>
<path d="M236.75 220.926C236.638 219.497 236.746 218.189 237.695 217.351C240.763 217.782 244.099 217.521 247.482 216.71C247.554 216.693 247.41 215.79 247.4 215.73C247.27 214.974 246.983 214.254 246.557 213.617C244.91 211.196 241.655 210.954 238.998 211.256C238.075 211.361 237.191 211.688 236.422 212.209C235.652 212.729 235.021 213.429 234.581 214.247C233.558 216.171 233.91 218.286 234.616 220.253C234.707 220.507 234.805 220.759 234.906 221.009C234.936 221.083 234.966 221.156 234.995 221.229L236.75 220.926Z" fill="#0D0D0D"/>
<path d="M236.252 223.641C237.273 223.641 238.1 222.814 238.1 221.794C238.1 220.775 237.273 219.948 236.252 219.948C235.232 219.948 234.404 220.775 234.404 221.794C234.404 222.814 235.232 223.641 236.252 223.641Z" fill="#FFCEB7"/>
</svg>
