<svg xmlns="http://www.w3.org/2000/svg" width="285.973" height="46.529" viewBox="0 0 285.973 46.529">
  <g id="devxdigital_black" transform="translate(-127.158 -184.584)">
    <path id="Path_1" data-name="Path 1" d="M289.618,315.693a2.5,2.5,0,0,0-4.257,1.831v11.188a10.248,10.248,0,0,0-1.287-1.239,11.293,11.293,0,0,0-3.168-1.782,10.559,10.559,0,0,0-3.861-.693,10.791,10.791,0,0,0-6.039,1.782,12.3,12.3,0,0,0-4.257,4.8,14.808,14.808,0,0,0-1.584,6.979,15.109,15.109,0,0,0,1.584,7.029,12.63,12.63,0,0,0,4.306,4.8,11.189,11.189,0,0,0,6.138,1.733,10.034,10.034,0,0,0,3.613-.643,11.035,11.035,0,0,0,2.92-1.733,10.15,10.15,0,0,0,1.634-1.7V349.1a2.583,2.583,0,0,0,.693,1.831,2.52,2.52,0,0,0,1.782.693,2.412,2.412,0,0,0,1.782-.693,2.583,2.583,0,0,0,.693-1.831v-31.58A2.476,2.476,0,0,0,289.618,315.693Zm-7.771,30.689a7.612,7.612,0,0,1-8.167,0,8.524,8.524,0,0,1-2.772-3.217,11.2,11.2,0,0,1,0-9.207,8.524,8.524,0,0,1,2.772-3.217,7.149,7.149,0,0,1,4.059-1.188,7.233,7.233,0,0,1,4.108,1.188,7.987,7.987,0,0,1,2.772,3.217,11.2,11.2,0,0,1,0,9.207A7.987,7.987,0,0,1,281.846,346.382Z" transform="translate(-118.331 -130.416)" fill="#135ef2" fill-rule="evenodd"/>
    <path id="Path_2" data-name="Path 2" d="M346.755,364.917a14.407,14.407,0,0,0,7.128,1.683,12.39,12.39,0,0,0,4.9-.99,11.927,11.927,0,0,0,3.712-2.277,2.55,2.55,0,0,0,1.089-1.98,1.956,1.956,0,0,0-.594-1.436,1.937,1.937,0,0,0-1.485-.643,2.865,2.865,0,0,0-1.485.445q-.594.5-1.386,1.04a7.911,7.911,0,0,1-1.98.94,11.012,11.012,0,0,1-3.019.346,8.511,8.511,0,0,1-4.257-1.089,8.328,8.328,0,0,1-3.069-3.168,8.949,8.949,0,0,1-1.059-3.366h17.2a2.563,2.563,0,0,0,1.733-.643,2.223,2.223,0,0,0,.792-1.633,13.007,13.007,0,0,0-1.039-5,12.16,12.16,0,0,0-2.722-4.009,11.937,11.937,0,0,0-3.861-2.673,11,11,0,0,0-4.6-.99,11.5,11.5,0,0,0-5.989,1.683,12.511,12.511,0,0,0-4.6,4.752,14.885,14.885,0,0,0-1.732,7.425,14.23,14.23,0,0,0,1.633,6.88A12.372,12.372,0,0,0,346.755,364.917Zm-1.353-14.7a9.164,9.164,0,0,1,.363-1.386,7.6,7.6,0,0,1,1.683-2.772,6.438,6.438,0,0,1,2.425-1.485,8.469,8.469,0,0,1,2.871-.5,7.3,7.3,0,0,1,3.218.742,6.718,6.718,0,0,1,2.574,2.03,5.148,5.148,0,0,1,1.139,3.019v.346Z" transform="translate(-162.841 -144.893)" fill="#135ef2" fill-rule="evenodd"/>
    <path id="Path_3" data-name="Path 3" d="M411.49,340.323a2.6,2.6,0,0,1,1.386.4,2.214,2.214,0,0,1,.99,1.188l7.395,17.1,7.306-17.048a2.237,2.237,0,0,1,2.227-1.584,2.213,2.213,0,0,1,1.634.643,1.982,1.982,0,0,1,.693,1.584,2.363,2.363,0,0,1-.1.644,4.608,4.608,0,0,1-.248.594l-9.4,21.185a2.38,2.38,0,0,1-2.128,1.584,2.418,2.418,0,0,1-1.485-.3,3,3,0,0,1-1.089-1.287l-9.355-21.185a3.858,3.858,0,0,1-.2-.5,2.9,2.9,0,0,1-.1-.792,2.28,2.28,0,0,1,.643-1.485A2.388,2.388,0,0,1,411.49,340.323Z" transform="translate(-203.413 -145.394)" fill="#135ef2"/>
    <path id="Path_4" data-name="Path 4" d="M478.97,341.6a2.444,2.444,0,0,0-2.03-1.04,2.539,2.539,0,0,0-1.782.743,2.271,2.271,0,0,0-.743,1.732,2.23,2.23,0,0,0,.545,1.485l7.523,9.487-7.325,9.076a2.3,2.3,0,0,0-.594,1.534,1.969,1.969,0,0,0,.792,1.584,2.569,2.569,0,0,0,1.634.643,2.4,2.4,0,0,0,1.98-1.04l6.391-8.169,6.478,8.169a2.533,2.533,0,0,0,2.03,1.04,2.486,2.486,0,0,0,1.733-.743,2.305,2.305,0,0,0,.792-1.732,2.232,2.232,0,0,0-.544-1.485l-7.482-9.435,7.235-9.078a1.6,1.6,0,0,0,.445-.743,2.656,2.656,0,0,0,.149-.841,2.024,2.024,0,0,0-.693-1.534,2.19,2.19,0,0,0-1.683-.693,2.431,2.431,0,0,0-1.98,1.139l-6.223,8.282Z" transform="translate(-242.096 -145.537)" fill="#135ef2"/>
    <path id="Path_5" data-name="Path 5" d="M558.958,315a1.522,1.522,0,0,1,1.485,1.485v33.659a1.522,1.522,0,0,1-1.485,1.485,1.481,1.481,0,0,1-1.089-.445,1.516,1.516,0,0,1-.4-1.04v-3.471a9.873,9.873,0,0,1-2.03,2.58,10.556,10.556,0,0,1-3.168,2.079,9.4,9.4,0,0,1-3.861.792,10.776,10.776,0,0,1-5.99-1.733,12.247,12.247,0,0,1-4.158-4.7,15.639,15.639,0,0,1,0-13.513,11.787,11.787,0,0,1,4.158-4.7,10.538,10.538,0,0,1,5.94-1.733,10.175,10.175,0,0,1,3.861.743,10.444,10.444,0,0,1,3.218,2.029,9.308,9.308,0,0,1,2.03,2.575v-14.6a1.517,1.517,0,0,1,.4-1.04A1.481,1.481,0,0,1,558.958,315Zm-10.3,34.352a8.119,8.119,0,0,0,4.653-1.336,9.4,9.4,0,0,0,3.168-3.713,11.9,11.9,0,0,0,1.188-5.4,11.482,11.482,0,0,0-1.188-5.3,8.967,8.967,0,0,0-3.168-3.712,8.052,8.052,0,0,0-4.653-1.386,8.2,8.2,0,0,0-4.653,1.386,9.324,9.324,0,0,0-3.217,3.712,11.9,11.9,0,0,0-1.139,5.3,12.214,12.214,0,0,0,1.139,5.346,9.708,9.708,0,0,0,3.217,3.762A8.425,8.425,0,0,0,548.663,349.352Z" transform="translate(-278.954 -130.416)" fill="#fff" fill-rule="evenodd"/>
    <path id="Path_6" data-name="Path 6" d="M616.129,366.95a1.425,1.425,0,0,0,.445-1.04V343.141a1.424,1.424,0,0,0-.445-1.04,1.324,1.324,0,0,0-1.04-.445A1.481,1.481,0,0,0,614,342.1a1.516,1.516,0,0,0-.4,1.04V365.91a1.516,1.516,0,0,0,.4,1.04,1.481,1.481,0,0,0,1.089.445A1.424,1.424,0,0,0,616.129,366.95Z" transform="translate(-324.422 -146.183)" fill="#fff"/>
    <path id="Path_7" data-name="Path 7" d="M612.646,327.072a2.449,2.449,0,0,0,1.584.446,2.158,2.158,0,0,0,1.485-.446,1.776,1.776,0,0,0,.545-1.386v-.5a1.625,1.625,0,0,0-.545-1.336,1.943,1.943,0,0,0-1.435-.5,2.4,2.4,0,0,0-1.584.5,1.626,1.626,0,0,0-.544,1.336v.5A1.872,1.872,0,0,0,612.646,327.072Z" transform="translate(-323.562 -135.361)" fill="#fff"/>
    <path id="Path_8" data-name="Path 8" d="M648.153,341.292a10.477,10.477,0,0,1,4.109.792,10.815,10.815,0,0,1,3.267,1.98,9.529,9.529,0,0,1,2.178,2.489V343.42a1.58,1.58,0,0,1,.4-1.089,1.481,1.481,0,0,1,1.089-.446,1.382,1.382,0,0,1,1.089.446,1.58,1.58,0,0,1,.4,1.089v21.433a12.773,12.773,0,0,1-1.633,6.682,10.5,10.5,0,0,1-4.455,4.108,13.575,13.575,0,0,1-6.336,1.436,16.306,16.306,0,0,1-3.663-.446,15.078,15.078,0,0,1-3.267-1.138q-1.337-.693-1.485-1.436a1.351,1.351,0,0,1-.4-.891,1.022,1.022,0,0,1,.445-.693.99.99,0,0,1,1.04-.1,17.361,17.361,0,0,0,1.633.743q.5.148,1.336.445a12.337,12.337,0,0,0,1.98.5,12.1,12.1,0,0,0,2.475.248,9,9,0,0,0,6.88-2.574,9.135,9.135,0,0,0,2.475-6.682v-3.039a7.885,7.885,0,0,1-.94,1.554,9.759,9.759,0,0,1-2.376,2.277,10.808,10.808,0,0,1-3.019,1.336,10.57,10.57,0,0,1-3.168.5,11.191,11.191,0,0,1-6.138-1.733,12.735,12.735,0,0,1-4.356-4.7,15.2,15.2,0,0,1,0-13.513,12.382,12.382,0,0,1,4.306-4.7A11.191,11.191,0,0,1,648.153,341.292Zm.346,2.772a8.934,8.934,0,0,0-4.9,1.386,9.415,9.415,0,0,0-3.366,3.712,11.485,11.485,0,0,0-1.188,5.3,11.79,11.79,0,0,0,1.188,5.346,9.792,9.792,0,0,0,3.366,3.762,9.185,9.185,0,0,0,4.9,1.336,8.932,8.932,0,0,0,4.851-1.336,9.493,9.493,0,0,0,3.366-3.663,11.612,11.612,0,0,0,1.237-5.445,11.318,11.318,0,0,0-1.237-5.4,9.052,9.052,0,0,0-3.366-3.663A8.929,8.929,0,0,0,648.5,344.064Z" transform="translate(-337.741 -145.967)" fill="#fff" fill-rule="evenodd"/>
    <path id="Path_9" data-name="Path 9" d="M717.65,366.95a1.425,1.425,0,0,0,.445-1.04V343.141a1.425,1.425,0,0,0-.445-1.04,1.324,1.324,0,0,0-1.039-.445,1.481,1.481,0,0,0-1.089.445,1.516,1.516,0,0,0-.4,1.04V365.91a1.516,1.516,0,0,0,.4,1.04,1.481,1.481,0,0,0,1.089.445A1.424,1.424,0,0,0,717.65,366.95Z" transform="translate(-384.468 -146.183)" fill="#fff"/>
    <path id="Path_10" data-name="Path 10" d="M714.167,327.072a2.449,2.449,0,0,0,1.584.446,2.158,2.158,0,0,0,1.485-.446,1.776,1.776,0,0,0,.545-1.386v-.5a1.625,1.625,0,0,0-.545-1.336,1.943,1.943,0,0,0-1.435-.5,2.4,2.4,0,0,0-1.584.5,1.626,1.626,0,0,0-.544,1.336v.5A1.874,1.874,0,0,0,714.167,327.072Z" transform="translate(-383.608 -135.361)" fill="#fff"/>
    <path id="Path_11" data-name="Path 11" d="M735.2,332.884h3.613V327.39a1.516,1.516,0,0,1,.4-1.04,1.482,1.482,0,0,1,1.089-.445,1.324,1.324,0,0,1,1.039.445,1.425,1.425,0,0,1,.446,1.04v5.494h4.95a1.269,1.269,0,0,1,.99.445,1.342,1.342,0,0,1,.4.99,1.283,1.283,0,0,1-.4.94,1.342,1.342,0,0,1-.99.4h-4.95v16.582a4.829,4.829,0,0,0,.346,2.079,2.08,2.08,0,0,0,.99.94,3.74,3.74,0,0,0,1.188.2,2.187,2.187,0,0,0,.693-.1,1.869,1.869,0,0,1,.743-.148.938.938,0,0,1,.742.346,1.205,1.205,0,0,1,.346.891,1.411,1.411,0,0,1-.792,1.188,3.775,3.775,0,0,1-1.881.445q-.445,0-1.337-.049a5.767,5.767,0,0,1-1.831-.545,3.935,3.935,0,0,1-1.584-1.683,7.834,7.834,0,0,1-.594-3.415V335.656H735.2a1.515,1.515,0,0,1-1.039-.4,1.455,1.455,0,0,1-.4-.99,1.343,1.343,0,0,1,.4-.99A1.516,1.516,0,0,1,735.2,332.884Z" transform="translate(-395.495 -136.866)" fill="#fff"/>
    <path id="Path_12" data-name="Path 12" d="M801.968,342.332a1.324,1.324,0,0,0-1.039-.446,1.482,1.482,0,0,0-1.089.446,1.58,1.58,0,0,0-.4,1.089v3.1a9,9,0,0,0-1.881-2.454,10.3,10.3,0,0,0-3.267-2.029,10.437,10.437,0,0,0-3.96-.743,10.76,10.76,0,0,0-5.94,1.683,11.863,11.863,0,0,0-4.158,4.653,14.372,14.372,0,0,0-1.534,6.781,15.158,15.158,0,0,0,1.485,6.782,12.161,12.161,0,0,0,4.158,4.752,10.862,10.862,0,0,0,6.039,1.733,9.943,9.943,0,0,0,3.861-.742,11.1,11.1,0,0,0,3.168-2.03,9.828,9.828,0,0,0,2.03-2.579v3.37a1.516,1.516,0,0,0,.4,1.04,1.482,1.482,0,0,0,1.089.445,1.523,1.523,0,0,0,1.485-1.485V343.42A1.481,1.481,0,0,0,801.968,342.332Zm-6.682,21.235a8.768,8.768,0,0,1-9.306,0,9.71,9.71,0,0,1-3.218-3.762,12.541,12.541,0,0,1-1.139-5.4,12.013,12.013,0,0,1,1.139-5.346,9.4,9.4,0,0,1,3.218-3.663,8.422,8.422,0,0,1,4.653-1.337,8.051,8.051,0,0,1,4.653,1.386,9.406,9.406,0,0,1,3.168,3.712,11.376,11.376,0,0,1,1.188,5.247,12.1,12.1,0,0,1-1.188,5.4A9.333,9.333,0,0,1,795.286,363.567Z" transform="translate(-422.072 -145.967)" fill="#fff" fill-rule="evenodd"/>
    <path id="Path_13" data-name="Path 13" d="M859.514,350.144a1.523,1.523,0,0,1-1.485,1.485,1.482,1.482,0,0,1-1.089-.445,1.516,1.516,0,0,1-.4-1.04V316.485A1.523,1.523,0,0,1,858.029,315a1.324,1.324,0,0,1,1.039.445,1.426,1.426,0,0,1,.446,1.04Z" transform="translate(-468.112 -130.416)" fill="#fff"/>
    <path id="Path_14" data-name="Path 14" d="M229.776,346.019l-8.923,8.967,8.923,8.092-1.971,2.2L217,355.119l10.667-11.091Z" transform="translate(-89.842 -147.586)" fill="#fff"/>
    <path id="Path_15" data-name="Path 15" d="M885.727,346.019l8.923,8.967-8.923,8.092,1.971,2.2,10.8-10.157-10.667-11.091Z" transform="translate(-485.373 -147.586)" fill="#fff"/>
  </g>
</svg>
