<svg xmlns="http://www.w3.org/2000/svg" width="26.761" height="20.071" viewBox="0 0 26.761 20.071">
  <path id="Path_16" data-name="Path 16" d="M23.416,64H3.345A3.345,3.345,0,0,0,0,67.345V80.726a3.345,3.345,0,0,0,3.345,3.345H23.416a3.345,3.345,0,0,0,3.345-3.345V67.345A3.347,3.347,0,0,0,23.416,64ZM3.345,66.509H23.416a.837.837,0,0,1,.836.836V68.5l-8.718,7.218a3.453,3.453,0,0,1-4.311,0L2.509,68.506v-1.16A.838.838,0,0,1,3.345,66.509ZM23.416,81.562H3.345a.837.837,0,0,1-.836-.836V71.772L9.623,77.7a5.891,5.891,0,0,0,7.52,0l7.11-5.923v8.954A.839.839,0,0,1,23.416,81.562Z" transform="translate(0 -64)" fill="#555"/>
</svg>
