<?xml version="1.0" encoding="utf-8"?>
<!-- Generator: Adobe Illustrator 27.0.0, SVG Export Plug-In . SVG Version: 6.00 Build 0)  -->
<svg version="1.1" id="Layer_1" xmlns="http://www.w3.org/2000/svg" xmlns:xlink="http://www.w3.org/1999/xlink" x="0px" y="0px"
	 viewBox="0 0 700 114" style="enable-background:new 0 0 700 114;" xml:space="preserve">
<style type="text/css">
	.st0{fill-rule:evenodd;clip-rule:evenodd;fill:#3976EE;}
	.st1{fill:#3976EE;}
	.st2{fill-rule:evenodd;clip-rule:evenodd;fill:#0D0D0D;}
	.st3{fill:#0D0D0D;}
</style>
<path class="st0" d="M108,1.7c-1.1-1.1-2.6-1.7-4.4-1.7c-1.7,0-3.2,0.6-4.4,1.8c-1.1,1.1-1.7,2.6-1.7,4.4v27.4c-1-1.1-2-2.1-3.2-3
	c-2.2-1.8-4.8-3.2-7.8-4.4c-2.9-1.1-6.1-1.7-9.4-1.7c-5.4,0-10.3,1.5-14.8,4.4c-4.4,2.8-7.8,6.7-10.4,11.8
	c-2.6,4.9-3.9,10.6-3.9,17.1s1.3,12.2,3.9,17.2c2.6,4.9,6.1,8.8,10.5,11.8c4.4,2.8,9.5,4.2,15,4.2c3.2,0,6.1-0.5,8.8-1.6
	c2.7-1.1,5.1-2.5,7.1-4.2c1.6-1.4,3-2.7,4-4.2v2.6c0,1.8,0.6,3.3,1.7,4.5c1.2,1.1,2.7,1.7,4.4,1.7c1.8,0,3.2-0.6,4.4-1.7
	c1.1-1.2,1.7-2.7,1.7-4.5V6.2C109.7,4.3,109.2,2.8,108,1.7L108,1.7z M89,76.8c-2.8,1.9-6.2,2.9-10.1,2.9c-3.7,0-7-1-9.9-2.9
	c-2.8-1.9-5.1-4.6-6.8-7.9c-1.6-3.3-2.4-7.1-2.4-11.3c0-4.2,0.8-8,2.4-11.3c1.7-3.3,4-5.9,6.8-7.9c2.9-1.9,6.2-2.9,9.9-2.9
	c3.8,0,7.1,1,10.1,2.9s5.2,4.6,6.8,7.9c1.6,3.3,2.4,7.1,2.4,11.3s-0.8,8-2.4,11.3C94.2,72.3,91.9,74.9,89,76.8z M138.9,86.8
	c4.9,2.7,10.7,4.1,17.4,4.1c4.2,0,8.2-0.8,12-2.4c3.9-1.6,6.9-3.5,9.1-5.6c1.8-1.5,2.7-3.1,2.7-4.8c0-1.4-0.5-2.5-1.5-3.5
	c-1-1.1-2.2-1.6-3.6-1.6c-1.2,0-2.4,0.4-3.6,1.1c-1.1,0.9-2.2,1.7-3.4,2.5c-1.3,0.9-2.9,1.7-4.8,2.3c-1.9,0.6-4.4,0.8-7.4,0.8
	c-3.8,0-7.3-0.9-10.4-2.7c-3.1-1.9-5.7-4.4-7.5-7.8c-1.4-2.4-2.2-5.2-2.6-8.2h42.1c1.6,0,3-0.5,4.2-1.6c1.2-1,1.9-2.4,1.9-4
	c-0.1-4.4-0.9-8.5-2.5-12.2c-1.6-3.8-3.8-7.1-6.7-9.8c-2.7-2.8-5.9-5-9.5-6.5c-3.6-1.6-7.3-2.4-11.3-2.4c-5.2,0-10.1,1.4-14.7,4.1
	c-4.6,2.7-8.4,6.5-11.3,11.6c-2.8,5-4.2,11.1-4.2,18.2c0,6.3,1.3,11.9,4,16.8C130.2,80.1,134,83.9,138.9,86.8z M135.6,50.8
	c0.2-1.2,0.5-2.4,0.9-3.4c1.1-2.8,2.4-5.1,4.1-6.8c1.8-1.7,3.8-2.9,5.9-3.6c2.3-0.8,4.6-1.2,7-1.2c2.7,0,5.4,0.6,7.9,1.8
	c2.5,1.1,4.6,2.8,6.3,5c1.7,2.1,2.6,4.6,2.8,7.4v0.8H135.6z"/>
<path class="st1" d="M198.1,25.3c1.2,0,2.3,0.3,3.4,1c1.1,0.6,1.9,1.6,2.4,2.9L222,71.1l17.9-41.7c1.1-2.7,2.9-4,5.5-3.9
	c1.6,0,2.9,0.5,4,1.6c1.1,1,1.7,2.3,1.7,3.9c0,0.5-0.1,1-0.2,1.6c-0.2,0.5-0.4,1-0.6,1.5l-23,51.9c-1.1,2.4-2.8,3.7-5.2,3.9
	c-1.2,0.2-2.4-0.1-3.6-0.7c-1.1-0.7-2-1.8-2.7-3.2l-22.9-51.9c-0.2-0.4-0.4-0.8-0.5-1.2c-0.2-0.6-0.2-1.2-0.2-1.9
	c0-1.2,0.5-2.4,1.6-3.6C194.7,25.9,196.2,25.3,198.1,25.3L198.1,25.3z M268.6,28.1c-1.3-1.7-2.9-2.5-5-2.5c-1.6,0-3.1,0.6-4.4,1.8
	c-1.2,1.1-1.8,2.5-1.8,4.2c0,1.3,0.5,2.6,1.3,3.6l18.4,23.2l-17.9,22.2c-1,1.1-1.5,2.4-1.5,3.8c0,1.5,0.6,2.8,1.9,3.9
	c1.3,1.1,2.6,1.6,4,1.6c1.9,0,3.6-0.8,4.8-2.5l15.6-20l15.9,20c1.4,1.7,3,2.5,5,2.5c1.5,0,2.9-0.6,4.2-1.8c1.3-1.2,1.9-2.6,1.9-4.2
	c0-1.3-0.5-2.6-1.3-3.6l-18.3-23.1l17.7-22.2c0.6-0.6,0.9-1.2,1.1-1.8c0.2-0.7,0.4-1.4,0.4-2.1c0-1.5-0.6-2.7-1.7-3.8
	c-1-1.1-2.4-1.7-4.1-1.7c-1.9,0-3.5,0.9-4.8,2.8l-15.2,20.3C284.8,48.6,268.6,28.1,268.6,28.1z"/>
<path class="st2" d="M374.1,0c1,0,1.9,0.4,2.5,1.1c0.7,0.6,1.1,1.5,1.1,2.5V86c0,1-0.4,1.8-1.1,2.5s-1.6,1.1-2.5,1.1
	c-1.1,0-1.9-0.4-2.7-1.1c-0.6-0.7-1-1.6-1-2.5v-8.5c-1.2,2.2-2.9,4.4-5,6.3c-2.2,2.1-4.8,3.8-7.8,5.1c-2.9,1.3-6.1,1.9-9.5,1.9
	c-5.4,0-10.3-1.4-14.7-4.2c-4.3-2.8-7.7-6.7-10.2-11.5c-2.5-4.8-3.8-10.4-3.8-16.6c0-6.1,1.3-11.6,3.8-16.5
	c2.5-4.9,5.9-8.8,10.2-11.5c4.3-2.8,9.1-4.2,14.5-4.2c3.3,0,6.5,0.6,9.5,1.8c3,1.2,5.6,2.9,7.9,5c2.1,1.8,3.7,4,5,6.3V3.6
	c0-1,0.3-1.8,1-2.5C372.2,0.4,373.1,0,374.1,0L374.1,0z M348.9,84.1c4.4,0,8.2-1.1,11.4-3.3c3.3-2.3,5.9-5.3,7.8-9.1
	c1.9-3.9,2.9-8.3,2.9-13.2c0-4.8-1-9.2-2.9-13c-1.9-3.9-4.4-6.9-7.8-9.1c-3.3-2.3-7.1-3.4-11.4-3.4c-4.2,0-8,1.1-11.4,3.4
	c-3.3,2.2-5.9,5.2-7.9,9.1c-1.9,3.8-2.8,8.1-2.8,13c0,4.8,0.9,9.2,2.8,13.1c1.9,3.9,4.6,6.9,7.9,9.2C340.9,83,344.7,84.1,348.9,84.1
	L348.9,84.1z"/>
<path class="st3" d="M402.8,88.6c0.7-0.7,1.1-1.6,1.1-2.5V30.3c0-1-0.4-1.8-1.1-2.5c-0.6-0.7-1.5-1.1-2.5-1.1c-1,0-1.9,0.4-2.7,1.1
	c-0.6,0.7-1,1.6-1,2.5V86c0,1,0.3,1.8,1,2.5c0.7,0.7,1.6,1.1,2.7,1.1C401.2,89.7,402.1,89.3,402.8,88.6L402.8,88.6z M396.4,17.4
	c0.9,0.7,2.2,1.1,3.9,1.1c1.6,0,2.8-0.4,3.6-1.1c0.9-0.8,1.3-1.9,1.3-3.4v-1.2c0-1.5-0.4-2.5-1.3-3.3c-0.8-0.8-2-1.2-3.5-1.2
	c-1.6,0-2.9,0.4-3.9,1.2c-0.9,0.7-1.3,1.8-1.3,3.3v1.2C395.2,15.5,395.6,16.6,396.4,17.4L396.4,17.4z"/>
<path class="st2" d="M448.6,26.3c3.6,0,7,0.6,10.1,1.9c3.1,1.2,5.7,2.8,8,4.8c2.3,1.9,4,3.9,5.3,6.1v-7.7c0-1,0.3-1.9,1-2.7
	c0.7-0.7,1.6-1.1,2.7-1.1c1.1,0,2,0.4,2.7,1.1s1,1.6,1,2.7V84c0,6.5-1.3,11.9-4,16.4c-2.7,4.4-6.3,7.8-10.9,10.1
	c-4.5,2.3-9.7,3.5-15.5,3.5c-2.8,0-5.8-0.4-9-1.1c-3.1-0.7-5.7-1.7-8-2.8c-2.2-1.1-3.4-2.3-3.6-3.5c-0.6-0.7-1-1.5-1-2.2
	c0.1-0.6,0.4-1.2,1.1-1.7c0.8-0.6,1.7-0.6,2.5-0.2c0.9,0.5,2.2,1.1,4,1.8c0.8,0.2,1.9,0.6,3.3,1.1c1.4,0.5,3,0.9,4.8,1.2
	c1.9,0.4,4,0.6,6.1,0.6c7.3,0,12.9-2.1,16.8-6.3c4-4.1,6.1-9.6,6.1-16.4V77c-0.6,1.4-1.4,2.6-2.3,3.8c-1.6,2.2-3.6,4.1-5.8,5.6
	c-2.3,1.5-4.8,2.6-7.4,3.3c-2.6,0.8-5.2,1.2-7.8,1.2c-5.6,0-10.6-1.4-15-4.2c-4.4-2.8-8-6.7-10.7-11.5c-2.6-4.8-3.9-10.4-3.9-16.6
	c0-6.1,1.3-11.6,3.9-16.5c2.7-4.9,6.2-8.8,10.5-11.5C438,27.7,443,26.3,448.6,26.3L448.6,26.3z M449.4,33.1c-4.4,0-8.4,1.1-12,3.4
	c-3.5,2.2-6.2,5.2-8.2,9.1c-1.9,3.8-2.9,8.1-2.9,13c0,4.8,1,9.2,2.9,13.1c2,3.9,4.8,6.9,8.2,9.2c3.6,2.2,7.6,3.3,12,3.3
	c4.4,0,8.4-1.1,11.9-3.3c3.5-2.2,6.2-5.2,8.2-9c2-3.9,3-8.3,3-13.3s-1-9.4-3-13.2c-2-3.9-4.8-6.9-8.2-9
	C457.8,34.2,453.9,33.1,449.4,33.1z"/>
<path class="st3" d="M504.3,88.6c0.7-0.7,1.1-1.6,1.1-2.5V30.3c0-1-0.4-1.8-1.1-2.5c-0.6-0.7-1.5-1.1-2.5-1.1
	c-1.1,0-1.9,0.4-2.7,1.1c-0.6,0.7-1,1.6-1,2.5V86c0,1,0.3,1.8,1,2.5c0.7,0.7,1.6,1.1,2.7,1.1C502.7,89.7,503.6,89.3,504.3,88.6
	L504.3,88.6z M497.9,17.4c0.9,0.7,2.2,1.1,3.9,1.1c1.6,0,2.8-0.4,3.6-1.1c0.9-0.8,1.3-1.9,1.3-3.4v-1.2c0-1.5-0.4-2.5-1.3-3.3
	c-0.8-0.8-2-1.2-3.5-1.2c-1.6,0-2.9,0.4-3.9,1.2c-0.9,0.7-1.3,1.8-1.3,3.3v1.2C496.7,15.5,497.1,16.6,497.9,17.4z M520.3,28h8.8
	V14.5c0-1,0.3-1.8,1-2.5c0.7-0.7,1.6-1.1,2.7-1.1s1.9,0.4,2.5,1.1c0.7,0.7,1.1,1.6,1.1,2.5V28h12.1c1,0,1.8,0.4,2.4,1.1
	c0.6,0.6,1,1.5,1,2.4c0,0.9-0.3,1.7-1,2.3c-0.6,0.6-1.5,1-2.4,1h-12.1v40.6c0,2.3,0.3,4,0.8,5.1c0.6,1.1,1.5,1.9,2.4,2.3
	c1,0.3,1.9,0.5,2.9,0.5c0.6,0,1.2-0.1,1.7-0.2c0.6-0.2,1.2-0.4,1.8-0.4c0.7,0,1.3,0.3,1.8,0.8c0.6,0.6,0.8,1.3,0.8,2.2
	c0,1.1-0.6,2.1-1.9,2.9c-1.3,0.7-2.8,1.1-4.6,1.1c-0.7,0-1.8,0-3.3-0.1c-1.5-0.2-2.9-0.6-4.5-1.3c-1.5-0.8-2.8-2.2-3.9-4.1
	c-1-1.9-1.5-4.7-1.5-8.4v-41h-8.8c-0.9,0-1.8-0.3-2.5-1c-0.6-0.7-1-1.5-1-2.4c0-1,0.3-1.8,1-2.4C518.4,28.3,519.3,28,520.3,28
	L520.3,28z"/>
<path class="st2" d="M618.7,28.8c-0.6-0.7-1.5-1.1-2.5-1.1s-1.9,0.4-2.7,1.1c-0.6,0.7-1,1.6-1,2.7v7.6c-1.2-2.2-2.7-4.2-4.6-6
	c-2.3-2.1-4.9-3.8-8-5c-3-1.2-6.2-1.8-9.7-1.8c-5.4,0-10.3,1.4-14.5,4.1c-4.3,2.7-7.7,6.5-10.2,11.4c-2.5,4.8-3.8,10.3-3.8,16.6
	c0,6.1,1.2,11.7,3.6,16.6c2.5,4.9,5.9,8.8,10.2,11.6c4.4,2.8,9.3,4.2,14.8,4.2c3.4,0,6.5-0.6,9.5-1.8c3-1.3,5.6-2.9,7.8-5
	c2.1-2,3.8-4.1,5-6.3V86c0,1,0.3,1.8,1,2.5c0.7,0.7,1.6,1.1,2.7,1.1c1,0,1.8-0.4,2.5-1.1s1.1-1.6,1.1-2.5V31.5
	C619.7,30.5,619.4,29.6,618.7,28.8L618.7,28.8z M602.3,80.8c-3.3,2.2-7.1,3.3-11.4,3.3s-8.1-1.1-11.4-3.3c-3.3-2.3-5.9-5.3-7.9-9.2
	c-1.9-4-2.8-8.4-2.8-13.2c0-4.9,0.9-9.3,2.8-13.1c1.9-3.8,4.6-6.8,7.9-9c3.4-2.2,7.2-3.3,11.4-3.3c4.3,0,8.1,1.1,11.4,3.4
	c3.3,2.3,5.9,5.3,7.8,9.1c1.9,3.8,2.9,8.1,2.9,12.8c0,4.8-1,9.2-2.9,13.2C608.2,75.5,605.6,78.6,602.3,80.8L602.3,80.8z"/>
<path class="st3" d="M646.8,86c0,1-0.4,1.8-1.1,2.5c-0.7,0.7-1.6,1.1-2.5,1.1c-1,0-1.9-0.4-2.7-1.1c-0.6-0.7-1-1.6-1-2.5V3.6
	c0-1,0.4-1.8,1.1-2.5s1.6-1.1,2.5-1.1c1,0,1.9,0.4,2.5,1.1c0.7,0.7,1.1,1.6,1.1,2.5V86L646.8,86z M31.3,33.9L9.4,55.9l21.8,19.8
	L26.4,81L0,56.2L26.1,29L31.3,33.9z M668.7,33.9l21.8,21.9l-21.8,19.8l4.8,5.4L700,56.2L673.9,29L668.7,33.9z"/>
</svg>
