<svg xmlns="http://www.w3.org/2000/svg" width="657" height="107" fill="none" viewBox="0 0 657 107">
  <path fill="#fff" fill-rule="evenodd" d="M101.277 1.59C100.216.53 98.853 0 97.187 0c-1.59 0-2.954.568-4.09 1.704-1.06 1.06-1.59 2.423-1.59 4.09V31.47a23.5 23.5 0 0 0-2.954-2.843c-2.044-1.666-4.468-3.03-7.27-4.09-2.726-1.06-5.68-1.59-8.86-1.59-5.075 0-9.695 1.363-13.86 4.09-4.09 2.65-7.346 6.324-9.77 11.019-2.423 4.62-3.635 9.959-3.635 16.018 0 6.058 1.212 11.435 3.635 16.13 2.424 4.62 5.718 8.294 9.884 11.02 4.165 2.65 8.86 3.976 14.086 3.976 2.954 0 5.718-.492 8.293-1.477 2.575-1.06 4.809-2.385 6.702-3.976 1.517-1.274 2.767-2.573 3.749-3.896v2.42c0 1.665.53 3.067 1.59 4.203 1.136 1.06 2.5 1.59 4.09 1.59 1.666 0 3.029-.53 4.09-1.59 1.06-1.136 1.59-2.538 1.59-4.204V5.794c0-1.742-.53-3.143-1.59-4.204ZM83.441 72.022c-2.65 1.818-5.793 2.727-9.428 2.727-3.484 0-6.59-.909-9.316-2.727-2.65-1.817-4.77-4.279-6.361-7.384-1.515-3.105-2.272-6.626-2.272-10.564 0-3.938.757-7.46 2.272-10.565 1.59-3.105 3.71-5.567 6.361-7.384 2.727-1.818 5.832-2.727 9.316-2.727 3.56 0 6.702.91 9.428 2.727 2.727 1.817 4.847 4.279 6.362 7.384 1.515 3.105 2.272 6.627 2.272 10.565 0 3.938-.757 7.46-2.272 10.564-1.515 3.105-3.635 5.567-6.362 7.384Zm46.814 9.316c4.62 2.575 10.073 3.862 16.359 3.862 3.938 0 7.687-.757 11.246-2.272 3.635-1.515 6.475-3.257 8.52-5.226 1.666-1.363 2.499-2.877 2.499-4.544 0-1.287-.454-2.385-1.363-3.294-.909-.985-2.045-1.477-3.408-1.477-1.136 0-2.272.341-3.408 1.023a43.393 43.393 0 0 1-3.181 2.385c-1.211.833-2.726 1.553-4.544 2.159-1.817.53-4.127.795-6.929.795-3.56 0-6.816-.833-9.77-2.5-2.954-1.741-5.301-4.165-7.043-7.27-1.283-2.287-2.094-4.862-2.432-7.725h39.465c1.515 0 2.84-.492 3.976-1.476 1.136-.985 1.742-2.234 1.818-3.75-.076-4.164-.871-7.99-2.386-11.473-1.514-3.56-3.597-6.627-6.248-9.201-2.574-2.651-5.528-4.696-8.86-6.135-3.333-1.515-6.854-2.272-10.565-2.272-4.847 0-9.429 1.288-13.746 3.863-4.317 2.499-7.838 6.134-10.565 10.905-2.65 4.696-3.976 10.376-3.976 17.04 0 5.907 1.25 11.17 3.749 15.79 2.575 4.545 6.173 8.142 10.792 10.793Zm-3.105-33.74c.214-1.151.491-2.211.833-3.18.985-2.651 2.272-4.772 3.863-6.362 1.666-1.59 3.521-2.726 5.566-3.408a19.449 19.449 0 0 1 6.589-1.136c2.575 0 5.036.568 7.384 1.704a15.415 15.415 0 0 1 5.907 4.658c1.59 1.969 2.461 4.279 2.613 6.93v.794H127.15Zm58.559-23.856c1.136 0 2.196.303 3.181.91 1.06.605 1.817 1.514 2.272 2.726l16.971 39.239 16.768-39.126c1.06-2.499 2.764-3.71 5.112-3.635 1.515 0 2.764.492 3.749 1.477 1.06.909 1.59 2.12 1.59 3.635 0 .454-.076.947-.227 1.477a10.51 10.51 0 0 1-.568 1.363l-21.584 48.62c-.985 2.273-2.613 3.484-4.885 3.636-1.136.152-2.272-.076-3.408-.682-1.06-.681-1.893-1.666-2.499-2.953l-21.47-48.621a8.807 8.807 0 0 1-.455-1.136c-.151-.53-.227-1.136-.227-1.818 0-1.136.492-2.272 1.477-3.408 1.06-1.136 2.461-1.704 4.203-1.704Zm66.09 2.613c-1.211-1.59-2.764-2.385-4.657-2.385-1.515 0-2.878.568-4.09 1.704-1.136 1.06-1.704 2.385-1.704 3.976 0 1.287.417 2.423 1.25 3.408l17.265 21.771-16.811 20.829c-.909 1.06-1.363 2.234-1.363 3.521 0 1.44.606 2.65 1.817 3.635 1.212.985 2.462 1.477 3.749 1.477 1.818 0 3.333-.795 4.544-2.385l14.668-18.749 14.868 18.749c1.288 1.59 2.84 2.385 4.658 2.385 1.439 0 2.764-.568 3.976-1.704 1.212-1.136 1.817-2.461 1.817-3.976a5.12 5.12 0 0 0-1.249-3.408L273.366 53.55l16.603-20.833c.53-.53.871-1.098 1.022-1.704.227-.682.341-1.326.341-1.931 0-1.364-.53-2.538-1.59-3.522-.985-1.06-2.272-1.59-3.863-1.59-1.742 0-3.256.87-4.544 2.612L267.053 45.59l-15.254-19.235ZM350.782 0c.985 0 1.78.34 2.386 1.022.681.606 1.022 1.401 1.022 2.386v77.248c0 .909-.341 1.704-1.022 2.386-.682.681-1.477 1.022-2.386 1.022-.984 0-1.817-.34-2.499-1.022a3.478 3.478 0 0 1-.909-2.386V72.69c-1.122 2.106-2.674 4.08-4.657 5.921-2.045 1.97-4.469 3.56-7.271 4.771-2.726 1.212-5.68 1.818-8.861 1.818-5.074 0-9.656-1.325-13.745-3.976-4.014-2.65-7.195-6.248-9.543-10.792-2.347-4.544-3.521-9.732-3.521-15.563 0-5.756 1.174-10.906 3.521-15.45 2.348-4.62 5.529-8.217 9.543-10.792 4.014-2.65 8.558-3.976 13.632-3.976 3.105 0 6.058.568 8.861 1.704 2.802 1.136 5.263 2.689 7.384 4.658 1.934 1.734 3.486 3.703 4.657 5.908V3.408c0-.909.303-1.704.909-2.386C348.965.341 349.798 0 350.782 0Zm-23.629 78.838c4.09 0 7.649-1.022 10.679-3.067 3.105-2.12 5.528-4.96 7.27-8.52 1.818-3.635 2.727-7.763 2.727-12.382 0-4.544-.909-8.596-2.727-12.155-1.742-3.636-4.165-6.476-7.27-8.52-3.105-2.12-6.665-3.181-10.679-3.181-3.938 0-7.497 1.06-10.678 3.18-3.105 2.045-5.566 4.885-7.384 8.52-1.742 3.56-2.613 7.612-2.613 12.156 0 4.544.871 8.633 2.613 12.269 1.818 3.635 4.279 6.513 7.384 8.633 3.181 2.045 6.74 3.067 10.678 3.067Zm50.489 4.204c.682-.682 1.023-1.477 1.023-2.386V28.4c0-.909-.341-1.704-1.023-2.386-.606-.681-1.401-1.022-2.385-1.022-.985 0-1.818.34-2.499 1.022a3.478 3.478 0 0 0-.909 2.386v52.256c0 .909.303 1.704.909 2.386.681.681 1.514 1.022 2.499 1.022.909 0 1.704-.34 2.385-1.022Zm-6.02-66.684c.833.682 2.044 1.023 3.635 1.023 1.514 0 2.65-.341 3.408-1.023.833-.757 1.249-1.817 1.249-3.18v-1.136c0-1.364-.416-2.386-1.249-3.068-.758-.757-1.856-1.136-3.295-1.136-1.514 0-2.726.38-3.635 1.136-.833.682-1.249 1.704-1.249 3.068v1.136c0 1.363.378 2.423 1.136 3.18Zm48.946 8.293c3.408 0 6.551.606 9.429 1.818 2.878 1.136 5.377 2.65 7.497 4.544 2.129 1.761 3.795 3.665 4.999 5.711v-7.188c0-.985.303-1.818.909-2.5.681-.68 1.514-1.022 2.499-1.022 1.06 0 1.893.341 2.499 1.023.606.681.909 1.515.909 2.499v49.189c0 6.059-1.25 11.17-3.749 15.336-2.499 4.165-5.907 7.308-10.224 9.429-4.241 2.196-9.088 3.294-14.541 3.294-2.65 0-5.453-.341-8.406-1.022-2.878-.682-5.377-1.553-7.498-2.613-2.045-1.06-3.181-2.159-3.408-3.295-.606-.681-.909-1.363-.909-2.044.076-.606.417-1.136 1.023-1.59.757-.53 1.552-.607 2.385-.228.834.454 2.083 1.022 3.749 1.704.758.227 1.78.568 3.067 1.022 1.288.455 2.803.834 4.544 1.136 1.818.379 3.711.568 5.68.568 6.816 0 12.08-1.969 15.791-5.907 3.786-3.862 5.68-8.974 5.68-15.336v-6.974a18.04 18.04 0 0 1-2.159 3.566 22.35 22.35 0 0 1-5.452 5.226 24.806 24.806 0 0 1-6.93 3.067c-2.423.757-4.847 1.136-7.27 1.136-5.226 0-9.921-1.325-14.087-3.976-4.165-2.65-7.497-6.248-9.997-10.792-2.423-4.544-3.635-9.732-3.635-15.563 0-5.756 1.212-10.906 3.635-15.45 2.5-4.62 5.794-8.217 9.884-10.792 4.165-2.65 8.86-3.976 14.086-3.976Zm.795 6.362c-4.165 0-7.914 1.06-11.246 3.18-3.257 2.045-5.832 4.885-7.725 8.52-1.818 3.56-2.726 7.612-2.726 12.156 0 4.544.908 8.633 2.726 12.269 1.893 3.635 4.468 6.513 7.725 8.633 3.332 2.045 7.081 3.067 11.246 3.067 4.166 0 7.877-1.022 11.133-3.067 3.257-2.045 5.832-4.847 7.725-8.406 1.893-3.635 2.84-7.8 2.84-12.496 0-4.696-.947-8.823-2.84-12.383-1.893-3.635-4.468-6.437-7.725-8.406-3.256-2.045-6.967-3.067-11.133-3.067Zm51.464 52.029c.681-.682 1.022-1.477 1.022-2.386V28.4c0-.909-.341-1.704-1.022-2.386-.606-.681-1.401-1.022-2.386-1.022-.984 0-1.817.34-2.499 1.022a3.478 3.478 0 0 0-.909 2.386v52.256c0 .909.303 1.704.909 2.386.682.681 1.515 1.022 2.499 1.022.909 0 1.704-.34 2.386-1.022Zm-6.021-66.684c.833.682 2.045 1.023 3.635 1.023 1.515 0 2.651-.341 3.408-1.023.833-.757 1.25-1.817 1.25-3.18v-1.136c0-1.364-.417-2.386-1.25-3.068-.757-.757-1.855-1.136-3.294-1.136-1.515 0-2.727.38-3.635 1.136-.834.682-1.25 1.704-1.25 3.068v1.136c0 1.363.379 2.423 1.136 3.18Zm21.001 9.884h8.293v-12.61c0-.909.303-1.704.908-2.386.682-.681 1.515-1.022 2.5-1.022.984 0 1.779.34 2.385 1.022.682.682 1.023 1.477 1.023 2.386v12.61h11.36c.908 0 1.666.34 2.272 1.022.605.606.908 1.363.908 2.272 0 .833-.303 1.552-.908 2.158-.606.606-1.364.91-2.272.91h-11.36v38.055c0 2.12.265 3.711.795 4.771.606 1.06 1.363 1.78 2.272 2.159a8.575 8.575 0 0 0 2.726.454c.606 0 1.136-.076 1.591-.227a4.279 4.279 0 0 1 1.704-.34c.681 0 1.249.264 1.704.794.53.53.795 1.212.795 2.045 0 1.06-.606 1.97-1.818 2.727-1.212.681-2.65 1.022-4.317 1.022-.681 0-1.704-.038-3.067-.114-1.363-.151-2.764-.568-4.203-1.25-1.439-.757-2.651-2.044-3.635-3.862-.909-1.817-1.363-4.43-1.363-7.838V32.603h-8.293a3.48 3.48 0 0 1-2.386-.909c-.606-.681-.909-1.438-.909-2.272 0-.908.303-1.666.909-2.272a3.48 3.48 0 0 1 2.386-.908Zm92.228.795c-.606-.682-1.401-1.023-2.386-1.023-.984 0-1.817.341-2.499 1.023-.606.681-.909 1.515-.909 2.499v7.11a20.648 20.648 0 0 0-4.316-5.633c-2.121-1.97-4.62-3.522-7.498-4.658-2.802-1.136-5.832-1.704-9.088-1.704-5.074 0-9.618 1.288-13.632 3.863-4.014 2.575-7.195 6.134-9.542 10.678-2.348 4.468-3.522 9.656-3.522 15.563 0 5.756 1.136 10.944 3.408 15.563 2.348 4.62 5.528 8.255 9.542 10.906 4.09 2.65 8.71 3.976 13.86 3.976 3.18 0 6.134-.568 8.86-1.704 2.802-1.212 5.226-2.764 7.271-4.658 1.977-1.83 3.53-3.803 4.657-5.918v7.736c0 .909.303 1.704.909 2.386.682.681 1.515 1.022 2.499 1.022.909 0 1.704-.34 2.386-1.022.681-.682 1.022-1.477 1.022-2.386v-51.12c0-.985-.341-1.818-1.022-2.5ZM564.699 75.77c-3.105 2.045-6.665 3.067-10.678 3.067-4.014 0-7.574-1.022-10.679-3.067-3.105-2.12-5.566-4.998-7.384-8.633-1.742-3.711-2.613-7.839-2.613-12.383 0-4.62.871-8.71 2.613-12.269 1.818-3.56 4.279-6.361 7.384-8.406 3.181-2.045 6.74-3.067 10.679-3.067 4.013 0 7.573 1.06 10.678 3.18 3.105 2.121 5.528 4.961 7.27 8.52 1.818 3.56 2.727 7.574 2.727 12.042 0 4.544-.909 8.672-2.727 12.383-1.742 3.635-4.165 6.513-7.27 8.633Zm41.742 4.885c0 .909-.341 1.704-1.023 2.386-.681.681-1.476 1.022-2.385 1.022-.985 0-1.818-.34-2.499-1.022a3.478 3.478 0 0 1-.909-2.386V3.408c0-.909.341-1.704 1.022-2.386C601.329.341 602.124 0 603.033 0c.984 0 1.779.34 2.385 1.022.682.682 1.023 1.477 1.023 2.386v77.248ZM29.321 31.787 8.842 52.366l20.478 18.57-4.523 5.046L0 52.672l24.48-25.455 4.84 4.57Zm597.665 0 20.479 20.579-20.478 18.57 4.523 5.046 24.797-23.31-24.48-25.455-4.841 4.57Z" clip-rule="evenodd"/>
</svg>
