<svg xmlns="http://www.w3.org/2000/svg" width="700" height="114" fill="none" viewBox="0 0 700 114">
  <path fill="#3976EE" fill-rule="evenodd" d="M108.02 1.696C106.889.566 105.435 0 103.658 0c-1.696 0-3.15.606-4.362 1.817C98.166 2.948 97.6 4.402 97.6 6.18v27.386a25.06 25.06 0 0 0-3.15-3.032c-2.181-1.777-4.766-3.231-7.755-4.362-2.908-1.13-6.058-1.696-9.45-1.696-5.413 0-10.34 1.454-14.783 4.362-4.361 2.827-7.835 6.744-10.42 11.753-2.584 4.927-3.877 10.621-3.877 17.083 0 6.462 1.293 12.198 3.878 17.206 2.584 4.927 6.098 8.844 10.54 11.752 4.443 2.827 9.451 4.241 15.025 4.241 3.15 0 6.098-.525 8.845-1.575 2.746-1.131 5.129-2.544 7.148-4.24 1.618-1.36 2.951-2.745 3.999-4.156v2.58c0 1.777.565 3.272 1.696 4.483 1.212 1.13 2.666 1.696 4.362 1.696 1.777 0 3.231-.565 4.362-1.696 1.131-1.212 1.696-2.706 1.696-4.483V6.18c0-1.858-.565-3.352-1.696-4.483ZM88.997 76.817c-2.827 1.939-6.18 2.908-10.056 2.908-3.716 0-7.028-.97-9.936-2.908-2.827-1.938-5.088-4.564-6.785-7.875-1.615-3.312-2.423-7.068-2.423-11.269 0-4.2.808-7.956 2.423-11.268 1.697-3.312 3.958-5.937 6.785-7.875 2.908-1.939 6.22-2.908 9.936-2.908 3.796 0 7.148.97 10.056 2.908 2.908 1.938 5.17 4.563 6.785 7.875 1.616 3.312 2.424 7.068 2.424 11.268 0 4.2-.808 7.957-2.424 11.269-1.615 3.311-3.877 5.937-6.785 7.875Zm49.931 9.935c4.927 2.747 10.743 4.12 17.447 4.12 4.2 0 8.199-.808 11.995-2.423 3.877-1.616 6.906-3.474 9.087-5.574 1.777-1.454 2.666-3.07 2.666-4.846 0-1.373-.485-2.545-1.454-3.514-.969-1.05-2.181-1.575-3.635-1.575-1.212 0-2.423.363-3.635 1.09a46.28 46.28 0 0 1-3.392 2.545c-1.293.888-2.908 1.656-4.847 2.302-1.939.565-4.402.848-7.391.848-3.796 0-7.27-.888-10.42-2.665-3.15-1.858-5.654-4.443-7.512-7.755-1.368-2.44-2.233-5.186-2.593-8.239h42.092c1.616 0 3.029-.525 4.241-1.575 1.211-1.05 1.858-2.383 1.938-3.998-.08-4.443-.929-8.522-2.544-12.238-1.616-3.796-3.837-7.068-6.664-9.814-2.746-2.827-5.897-5.008-9.451-6.543-3.554-1.615-7.31-2.423-11.268-2.423-5.169 0-10.056 1.373-14.66 4.12-4.605 2.665-8.361 6.542-11.269 11.631-2.827 5.008-4.24 11.066-4.24 18.174 0 6.3 1.333 11.915 3.998 16.842 2.746 4.846 6.583 8.683 11.511 11.51Zm-3.312-35.985c.227-1.228.523-2.359.888-3.392 1.05-2.828 2.424-5.09 4.12-6.785 1.777-1.697 3.756-2.908 5.937-3.635a20.736 20.736 0 0 1 7.027-1.212c2.747 0 5.372.606 7.876 1.817a16.444 16.444 0 0 1 6.3 4.968c1.697 2.1 2.625 4.564 2.787 7.391v.848h-34.935Z" clip-rule="evenodd"/>
  <path fill="#3976EE" d="M198.073 25.323c1.212 0 2.342.323 3.392.97 1.131.646 1.939 1.615 2.424 2.907l18.101 41.852 17.884-41.73c1.131-2.666 2.948-3.959 5.452-3.878 1.616 0 2.949.525 3.999 1.575 1.131.97 1.696 2.262 1.696 3.878 0 .484-.081 1.01-.242 1.575a11.2 11.2 0 0 1-.606 1.453l-23.021 51.858c-1.05 2.423-2.787 3.716-5.21 3.877-1.212.162-2.423-.08-3.635-.727-1.131-.727-2.019-1.777-2.665-3.15l-22.9-51.858a9.395 9.395 0 0 1-.485-1.211c-.161-.566-.242-1.212-.242-1.939 0-1.211.525-2.423 1.575-3.635 1.131-1.211 2.625-1.817 4.483-1.817Zm70.49 2.787c-1.292-1.697-2.948-2.545-4.968-2.545-1.615 0-3.069.606-4.361 1.818-1.212 1.13-1.818 2.544-1.818 4.24a5.46 5.46 0 0 0 1.333 3.635l18.415 23.221-17.93 22.215c-.97 1.131-1.454 2.383-1.454 3.756 0 1.535.646 2.828 1.938 3.878 1.293 1.05 2.625 1.575 3.999 1.575 1.938 0 3.554-.848 4.846-2.545l15.645-19.996 15.857 19.996c1.374 1.697 3.029 2.545 4.968 2.545 1.535 0 2.948-.606 4.241-1.818 1.292-1.211 1.938-2.625 1.938-4.24a5.464 5.464 0 0 0-1.332-3.635l-18.315-23.095 17.709-22.22c.565-.566.929-1.171 1.09-1.818.243-.727.364-1.413.364-2.06 0-1.453-.566-2.705-1.697-3.755-1.05-1.131-2.423-1.697-4.119-1.697-1.858 0-3.473.93-4.847 2.787l-15.233 20.273-16.269-20.515Z"/>
  <path fill="#0D0D0D" fill-rule="evenodd" d="M374.136 0c1.05 0 1.898.363 2.544 1.09.727.647 1.09 1.495 1.09 2.545v82.39c0 .97-.363 1.818-1.09 2.545-.727.727-1.575 1.09-2.544 1.09-1.051 0-1.939-.363-2.666-1.09a3.71 3.71 0 0 1-.969-2.544v-8.497c-1.197 2.246-2.853 4.352-4.968 6.316-2.181 2.1-4.766 3.796-7.754 5.088-2.908 1.293-6.059 1.939-9.451 1.939-5.412 0-10.299-1.414-14.661-4.24-4.281-2.828-7.673-6.665-10.177-11.511-2.504-4.847-3.757-10.38-3.757-16.6 0-6.138 1.253-11.631 3.757-16.478 2.504-4.927 5.896-8.764 10.177-11.51 4.281-2.827 9.128-4.24 14.54-4.24 3.311 0 6.462.605 9.45 1.817 2.989 1.211 5.614 2.867 7.876 4.967 2.063 1.85 3.719 3.95 4.968 6.302V3.635c0-.97.323-1.818.969-2.545.727-.727 1.615-1.09 2.666-1.09Zm-25.202 84.087c4.362 0 8.158-1.09 11.389-3.272 3.312-2.261 5.897-5.29 7.754-9.087 1.939-3.877 2.908-8.28 2.908-13.206 0-4.847-.969-9.168-2.908-12.965-1.857-3.877-4.442-6.906-7.754-9.087-3.312-2.262-7.108-3.393-11.389-3.393-4.201 0-7.997 1.131-11.39 3.393-3.311 2.18-5.937 5.21-7.875 9.087-1.858 3.797-2.787 8.118-2.787 12.965 0 4.846.929 9.208 2.787 13.085 1.938 3.877 4.564 6.947 7.875 9.209 3.393 2.18 7.189 3.27 11.39 3.27Z" clip-rule="evenodd"/>
  <path fill="#0D0D0D" d="M402.784 88.57c.727-.727 1.09-1.575 1.09-2.544V30.29c0-.97-.363-1.818-1.09-2.545-.646-.727-1.494-1.09-2.545-1.09-1.05 0-1.938.363-2.665 1.09a3.711 3.711 0 0 0-.969 2.545v55.734c0 .97.323 1.818.969 2.545.727.727 1.615 1.09 2.665 1.09.97 0 1.818-.363 2.545-1.09Zm-6.422-71.123c.889.727 2.181 1.09 3.877 1.09 1.616 0 2.828-.363 3.635-1.09.889-.807 1.333-1.938 1.333-3.392v-1.212c0-1.454-.444-2.544-1.333-3.271-.807-.808-1.979-1.212-3.513-1.212-1.616 0-2.908.404-3.878 1.212-.888.727-1.332 1.817-1.332 3.271v1.212c0 1.454.403 2.585 1.211 3.392Z"/>
  <path fill="#0D0D0D" fill-rule="evenodd" d="M448.567 26.292c3.635 0 6.987.646 10.057 1.939 3.069 1.211 5.735 2.827 7.996 4.846 2.271 1.88 4.048 3.91 5.332 6.092v-7.667c0-1.05.323-1.938.969-2.665.727-.727 1.615-1.09 2.666-1.09 1.13 0 2.019.363 2.665 1.09.646.727.969 1.615.969 2.665v52.464c0 6.462-1.332 11.914-3.998 16.357-2.666 4.442-6.3 7.794-10.905 10.056-4.523 2.343-9.693 3.514-15.508 3.514-2.828 0-5.816-.364-8.966-1.091-3.07-.727-5.736-1.655-7.997-2.786-2.181-1.131-3.393-2.302-3.635-3.514-.646-.727-.969-1.454-.969-2.181.08-.646.444-1.212 1.09-1.696.808-.566 1.656-.646 2.545-.243.888.485 2.221 1.091 3.998 1.818.808.242 1.898.606 3.271 1.09 1.373.485 2.989.889 4.847 1.212 1.938.404 3.958.606 6.058.606 7.27 0 12.884-2.1 16.842-6.301 4.038-4.12 6.058-9.572 6.058-16.357v-7.438a19.298 19.298 0 0 1-2.302 3.803 23.867 23.867 0 0 1-5.816 5.574 26.46 26.46 0 0 1-7.391 3.271c-2.585.808-5.17 1.212-7.755 1.212-5.573 0-10.581-1.414-15.024-4.24-4.442-2.828-7.996-6.665-10.662-11.511-2.585-4.847-3.877-10.38-3.877-16.6 0-6.138 1.292-11.631 3.877-16.478 2.666-4.927 6.179-8.764 10.541-11.51 4.443-2.827 9.451-4.24 15.024-4.24Zm.848 6.785c-4.442 0-8.441 1.131-11.995 3.393-3.473 2.18-6.219 5.21-8.239 9.087-1.938 3.797-2.908 8.118-2.908 12.965 0 4.846.97 9.208 2.908 13.085 2.02 3.877 4.766 6.947 8.239 9.209 3.554 2.18 7.553 3.27 11.995 3.27 4.443 0 8.401-1.09 11.874-3.27 3.474-2.181 6.22-5.17 8.239-8.966 2.02-3.878 3.029-8.32 3.029-13.328 0-5.008-1.009-9.41-3.029-13.207-2.019-3.877-4.765-6.866-8.239-8.966-3.473-2.181-7.431-3.272-11.874-3.272Z" clip-rule="evenodd"/>
  <path fill="#0D0D0D" d="M504.305 88.57c.727-.727 1.09-1.575 1.09-2.544V30.29c0-.97-.363-1.818-1.09-2.545-.646-.727-1.494-1.09-2.544-1.09-1.051 0-1.939.363-2.666 1.09a3.711 3.711 0 0 0-.969 2.545v55.734c0 .97.323 1.818.969 2.545.727.727 1.615 1.09 2.666 1.09.969 0 1.817-.363 2.544-1.09Zm-6.422-71.123c.889.727 2.181 1.09 3.878 1.09 1.615 0 2.827-.363 3.634-1.09.889-.807 1.333-1.938 1.333-3.392v-1.212c0-1.454-.444-2.544-1.333-3.271-.807-.808-1.979-1.212-3.513-1.212-1.616 0-2.908.404-3.878 1.212-.888.727-1.332 1.817-1.332 3.271v1.212c0 1.454.404 2.585 1.211 3.392Zm22.399 10.542h8.845v-13.45c0-.969.323-1.817.969-2.544.727-.727 1.616-1.09 2.666-1.09 1.05 0 1.898.363 2.544 1.09.727.727 1.091 1.575 1.091 2.545v13.449h12.116c.969 0 1.777.363 2.423 1.09.647.646.97 1.454.97 2.423 0 .889-.323 1.656-.97 2.302-.646.647-1.454.97-2.423.97h-12.116v40.59c0 2.26.283 3.957.848 5.088.646 1.13 1.454 1.898 2.423 2.302.97.323 1.939.485 2.908.485.646 0 1.212-.081 1.696-.243a4.57 4.57 0 0 1 1.818-.363c.727 0 1.333.283 1.817.848.566.566.848 1.293.848 2.181 0 1.13-.646 2.1-1.938 2.908-1.292.727-2.827 1.09-4.604 1.09-.727 0-1.818-.04-3.272-.12-1.454-.162-2.948-.607-4.483-1.334-1.534-.807-2.827-2.18-3.877-4.12-.969-1.938-1.454-4.724-1.454-8.36V34.775h-8.845a3.71 3.71 0 0 1-2.544-.97c-.646-.727-.969-1.534-.969-2.423 0-.97.323-1.777.969-2.423a3.71 3.71 0 0 1 2.544-.97Z"/>
  <path fill="#0D0D0D" fill-rule="evenodd" d="M618.65 28.837c-.646-.727-1.494-1.09-2.544-1.09s-1.939.363-2.666 1.09c-.646.727-.969 1.615-.969 2.665v7.583c-1.161-2.233-2.696-4.235-4.604-6.008-2.262-2.1-4.927-3.756-7.997-4.967-2.989-1.212-6.22-1.818-9.693-1.818-5.412 0-10.258 1.373-14.539 4.12-4.282 2.746-7.674 6.543-10.178 11.39-2.504 4.765-3.756 10.298-3.756 16.598 0 6.14 1.211 11.672 3.635 16.6 2.504 4.927 5.896 8.804 10.177 11.631 4.362 2.827 9.29 4.241 14.782 4.241 3.393 0 6.543-.606 9.451-1.817 2.989-1.293 5.573-2.949 7.754-4.968 2.11-1.953 3.765-4.057 4.968-6.312v8.25c0 .97.323 1.818.969 2.545.727.727 1.616 1.09 2.666 1.09.969 0 1.817-.363 2.544-1.09.727-.727 1.091-1.575 1.091-2.544V31.501c0-1.05-.364-1.938-1.091-2.665Zm-16.357 51.978c-3.311 2.181-7.108 3.272-11.389 3.272s-8.078-1.09-11.389-3.272c-3.312-2.261-5.937-5.33-7.876-9.208-1.858-3.958-2.787-8.36-2.787-13.207 0-4.927.929-9.289 2.787-13.085 1.939-3.797 4.564-6.785 7.876-8.966 3.392-2.181 7.189-3.272 11.389-3.272 4.281 0 8.078 1.131 11.389 3.393 3.312 2.262 5.897 5.29 7.755 9.087 1.938 3.797 2.908 8.078 2.908 12.843 0 4.847-.97 9.25-2.908 13.207-1.858 3.877-4.443 6.947-7.755 9.209Z" clip-rule="evenodd"/>
  <path fill="#0D0D0D" d="M646.814 86.025c0 .97-.364 1.818-1.091 2.545-.726.727-1.575 1.09-2.544 1.09-1.05 0-1.939-.363-2.666-1.09a3.71 3.71 0 0 1-.969-2.544V3.634c0-.97.364-1.818 1.091-2.545.727-.727 1.575-1.09 2.544-1.09 1.05 0 1.898.363 2.544 1.09.727.727 1.091 1.576 1.091 2.545v82.39ZM31.273 33.902 9.43 55.851l21.84 19.807-4.823 5.381L0 56.177l26.11-27.15 5.163 4.875Zm637.454 0 21.842 21.949-21.841 19.807 4.824 5.381L700 56.177l-26.11-27.15-5.163 4.875Z"/>
</svg>
