<svg width="112" height="112" viewBox="0 0 112 112" fill="none" xmlns="http://www.w3.org/2000/svg">
<path d="M57.9524 55.5793C57.3363 55.8468 56.6718 55.9849 56.0001 55.9849C55.3284 55.9849 54.6639 55.8468 54.0478 55.5793L30.3709 44.6113C29.9864 44.4173 29.6633 44.1204 29.4376 43.7537C29.2118 43.3869 29.0923 42.9647 29.0923 42.534C29.0923 42.1033 29.2118 41.6811 29.4376 41.3143C29.6633 40.9476 29.9864 40.6507 30.3709 40.4567L54.0478 29.4057C54.6639 29.1381 55.3284 29 56.0001 29C56.6718 29 57.3363 29.1381 57.9524 29.4057L81.6293 40.3736C82.0138 40.5676 82.3369 40.8645 82.5627 41.2312C82.7884 41.598 82.9079 42.0202 82.9079 42.4509C82.9079 42.8816 82.7884 43.3038 82.5627 43.6706C82.3369 44.0373 82.0138 44.3342 81.6293 44.5282L57.9524 55.5793Z" stroke="white" stroke-width="3" stroke-linecap="round" stroke-linejoin="round"/>
<path d="M83 57.4492L57.6615 69.1235C57.1204 69.3704 56.5325 69.4981 55.9377 69.4981C55.3429 69.4981 54.755 69.3704 54.2138 69.1235L29 57.4492" stroke="white" stroke-width="3" stroke-linecap="round" stroke-linejoin="round"/>
<path d="M83 70.9513L57.6615 82.6256C57.1204 82.8724 56.5325 83.0002 55.9377 83.0002C55.3429 83.0002 54.755 82.8724 54.2138 82.6256L29 70.9513" stroke="white" stroke-width="3" stroke-linecap="round" stroke-linejoin="round"/>
<circle cx="56" cy="56" r="55" stroke="white" stroke-width="2"/>
</svg>
