<svg width="32" height="32" viewBox="0 0 32 32" fill="none" xmlns="http://www.w3.org/2000/svg">
<path d="M1.77778 0H30.2222C30.6937 0 31.1459 0.187301 31.4793 0.520699C31.8127 0.854097 32 1.30628 32 1.77778V30.2222C32 30.6937 31.8127 31.1459 31.4793 31.4793C31.1459 31.8127 30.6937 32 30.2222 32H1.77778C1.30628 32 0.854097 31.8127 0.520699 31.4793C0.187301 31.1459 0 30.6937 0 30.2222V1.77778C0 1.30628 0.187301 0.854097 0.520699 0.520699C0.854097 0.187301 1.30628 0 1.77778 0V0ZM3.55556 3.55556V28.4444H28.4444V3.55556H3.55556ZM8 10.6667C7.29276 10.6667 6.61448 10.3857 6.11438 9.88562C5.61428 9.38552 5.33333 8.70724 5.33333 8C5.33333 7.29276 5.61428 6.61448 6.11438 6.11438C6.61448 5.61428 7.29276 5.33333 8 5.33333C8.70724 5.33333 9.38552 5.61428 9.88562 6.11438C10.3857 6.61448 10.6667 7.29276 10.6667 8C10.6667 8.70724 10.3857 9.38552 9.88562 9.88562C9.38552 10.3857 8.70724 10.6667 8 10.6667V10.6667ZM6.22222 12.4444H9.77778V25.7778H6.22222V12.4444ZM16 13.2089C17.0382 12.2044 18.2507 11.5556 19.5556 11.5556C23.2373 11.5556 25.7778 14.5404 25.7778 18.2222V25.7778H22.2222V18.2222C22.2222 17.3971 21.8944 16.6058 21.311 16.0223C20.7276 15.4389 19.9362 15.1111 19.1111 15.1111C18.286 15.1111 17.4947 15.4389 16.9112 16.0223C16.3278 16.6058 16 17.3971 16 18.2222V25.7778H12.4444V12.4444H16V13.2089Z" fill="white"/>
</svg>
