<svg xmlns="http://www.w3.org/2000/svg" width="615" height="485" fill="none" viewBox="0 0 615 485">
  <path fill="#fff" d="m178.017 346.389-.914-.148c7.624-46.845 45.238-87.052 91.469-97.777 12.381-2.868 25.264-3.766 37.727-4.632 5.769-.401 11.735-.815 17.57-1.42 14.544-1.509 35.738-4.95 51.801-17.384 15.929-12.329 23.27-32.239 17.852-48.418l.878-.294c5.541 16.546-1.928 36.877-18.163 49.443-16.251 12.577-37.614 16.053-52.273 17.573-5.85.606-11.825 1.021-17.601 1.422-12.428.864-25.274 1.75-37.581 4.611-45.876 10.643-83.201 50.54-90.765 97.024Zm346.406-89.399-.885-.27c3.874-12.777 7.88-25.991 7.197-39.583-.59-11.739-5.801-26.706-18.656-33.507-9.746-5.157-21.338-4.371-32.551-3.611l-2.398.161c-11.886.773-25.276.486-34.46-7.505l.607-.698c8.931 7.771 22.095 8.04 33.792 7.279l2.397-.16c11.341-.769 23.067-1.564 33.046 3.715 13.198 6.983 18.545 22.286 19.147 34.28.692 13.754-3.338 27.045-7.236 39.899Zm-396.07 128.016c-6.497 1.389-13.832 1.844-21.261.107-12.268-2.866-22.15-11.658-25.178-22.399-1.385-4.912-1.377-10.104-1.37-15.125 0-.903.003-1.803-.004-2.701-.043-5.821-.478-11.912-3.34-17.021a27.217 27.217 0 0 1-2.557 3.307c-3.02 3.343-7.69 5.546-11.616 5.483-2.54-.041-4.682-1.004-6.19-2.785-1.708-2.017-2.136-4.82-1.174-7.691 1.14-3.401 3.93-6.06 7.108-6.775l.114-.024c5.674-1.213 11.237 2.294 14.3 6.718 3.09-5.366 4.372-11.852 3.394-17.926-1.268-7.882-6.369-15.227-13.311-19.17l.457-.805a27.894 27.894 0 0 1 13.233 17.268 27.88 27.88 0 0 1-3.2 21.518c.077.129.153.258.226.387 2.986 5.301 3.439 11.548 3.482 17.509.006.902.005 1.805.003 2.709-.007 4.959-.014 10.085 1.335 14.874 2.938 10.421 12.553 18.959 24.498 21.75 12.825 2.996 25.406-.678 33.703-4.288 10.655-4.637 20.249-11.54 29.527-18.215l.541.752c-9.318 6.704-18.953 13.635-29.698 18.312a69.288 69.288 0 0 1-13.022 4.231Zm-65.275-64.72a3.111 3.111 0 0 1-.104.022c-2.87.646-5.395 3.066-6.434 6.166-.857 2.557-.491 5.035 1.002 6.799 1.331 1.571 3.232 2.421 5.499 2.457 3.677.061 8.062-2.021 10.916-5.178a25.77 25.77 0 0 0 2.701-3.579c-2.82-4.321-8.161-7.845-13.58-6.687Z"/>
  <path fill="#FFCEB7" d="M307.149 432.818a7.03 7.03 0 0 0 1.89-9.76 7.03 7.03 0 1 0-1.89 9.76Z"/>
  <path fill="#3976EE" d="M48.101 200.19a5.023 5.023 0 1 0-10.045-.191 5.023 5.023 0 0 0 10.045.191Zm534.064 40.536a4.52 4.52 0 1 0-5.13-7.445 4.52 4.52 0 0 0 5.13 7.445Z"/>
  <path fill="#BDD3FF" d="m564.551 330.623-7.589-4.915-4.915 7.589 7.588 4.915 4.916-7.589ZM297.101 68.832l-7.589-4.915-4.915 7.589 7.589 4.915 4.915-7.589Z"/>
  <path fill="#FF5970" d="M445.801 193.782c1.435 9.165 2.976 41.885 1.017 65.635-.633 7.799-1.648 14.633-3.178 19.346-.159.508-.322.994-.501 1.453l-19.41 2.527c.65-3.591 1.297-7.277 1.94-11.058 1.076-6.404 2.107-13.066 3.004-19.926 2.411-18.463 3.815-38.324 2.349-58.249l14.779.272Z"/>
  <path fill="#6D7280" d="M446.818 259.417c-.633 7.799-1.648 14.633-3.178 19.346l-17.971-7.078c1.076-6.404 2.107-13.066 3.004-19.926 6.814 1.03 12.925 3.473 18.145 7.658Z" opacity=".3"/>
  <path fill="#3976EE" d="m472.565 84.922 3.362 124.248-127.589 3.45-1.191-44.027a22.388 22.388 0 0 1-11.709 3.653c-12.162.329-22.272-8.995-22.593-20.835-.321-11.84 9.272-21.698 21.433-22.027a22.31 22.31 0 0 1 11.89 3.015l-1.191-44.027 45-1.217a20.893 20.893 0 0 1-3.526-11.08c-.32-11.83 9.282-21.698 21.433-22.027 12.162-.329 22.274 9.006 22.593 20.836.11 3.951-.9 7.853-2.912 11.255l45-1.217Z"/>
  <path fill="#fff" d="M395.261 102.635c8.411-.263 15.466-5.493 22.292-10.552a196.5 196.5 0 0 1 4.524-3.29 73.373 73.373 0 0 1 6.149-3.868c.128-.253.242-.514.36-.772a74.778 74.778 0 0 0-6.798 4.228c-1.513 1.058-3.049 2.197-4.534 3.298-6.764 5.014-13.756 10.2-22.009 10.453-9.566.295-17.672-6.434-22.18-14.52l-.567.016a32.502 32.502 0 0 0 7.12 8.965c4.736 4.122 10.145 6.212 15.643 6.042Zm64.203 30.106c-6.158 1.929-12.525 3.922-17.828 7.451-12.242 8.145-18.279 25.028-14.68 41.055 2.351 10.476 8.397 20.411 17.362 28.778l.727-.02c-9.101-8.37-15.237-18.344-17.6-28.868-3.554-15.829 2.395-32.494 14.468-40.527 5.244-3.488 11.576-5.472 17.699-7.389 4.828-1.512 9.743-3.058 14.115-5.361l-.014-.531c-4.292 2.289-9.192 3.828-14.249 5.412Zm-129.183 39.051c5.563-7.303 13.107-12.154 21.085-13.142 4.8-.596 9.761.134 14.558.84 5.987.881 12.172 1.792 18.06.107 8.651-2.48 14.849-10.049 19.83-16.132l47.459-57.968-.664.018-47.183 57.632c-6.061 7.403-11.718 13.714-19.581 15.967-5.767 1.656-11.912.752-17.847-.121-4.831-.711-9.826-1.446-14.694-.842-8.171 1.014-15.901 6.012-21.562 13.526.178.041.358.078.539.115Zm43.885 28.367c-8.384-2.899-17.488-3.526-26.22-2.02l.014.506c8.67-1.507 17.715-.89 26.042 1.988a52.116 52.116 0 0 1 18.02 10.806l.728-.02a52.664 52.664 0 0 0-18.584-11.26Z"/>
  <path fill="#001B4F" d="m343.026 371.673-.531 7.821-13.07 12.16 29.02.208-2.978-21.824-12.441 1.635Z"/>
  <path fill="#fff" d="m342.846 379.135-.702.718 5.193 5.079.702-.718-5.193-5.079Z"/>
  <path fill="#FFD966" d="M427.83 310.714s-2.246 7.323-9.581 13.709c-5.768 5.024-14.678 9.477-28.126 9.332l-9.232-.369-4.02-.158-4.767-.193-11.686-.459-.013.229-1.759 39.528-2.83.266-12.933 1.204-4.041.371-4.104-38.655-1.303-12.245 58.346-19.533 17.141-5.74.89-.303 4.021 2.9 9.161 6.62 4.836 3.496Z"/>
  <path fill="#001B4F" d="m287.985 356.356-6.425 4.492-17.668-2.554 18.039 22.734 15.131-16.007-9.077-8.665Z"/>
  <path fill="#fff" d="m281.06 360.8-.699 7.23 1.001.097.698-7.23-1-.097Z"/>
  <path fill="#FFD966" d="M423.508 305.731s-.15.546-.514 1.487a41.105 41.105 0 0 1-9.074 13.826c-6.446 6.464-16.805 12.5-33.029 12.343a67.942 67.942 0 0 1-4.02-.158 52.172 52.172 0 0 1-1.619-.127l-3.148-.067-11.699-.231-22.285-.444-3.383 3.158-38.301 35.733-2.562-2.852-8.913-9.93-2.453-2.732 38.126-40.297a21.933 21.933 0 0 1 8.813-5.676 21.448 21.448 0 0 1 4.898-1.067l39.628-4.015 12.836-4.83 14.975-5.636 7.138 3.785 4.911 2.597 9.675 5.133Z"/>
  <path fill="#001B4F" d="M400.861 332.835c-.643.137-1.297.265-1.961.382-9.028 1.597-57.218-.406-60.662-.551L326.03 343.96l-.409-.443 12.391-11.465.126.005c.514.023 51.557 2.175 60.657.565 9.056-1.606 16.181-5.115 20.575-10.16l.455.397c-4.162 4.779-10.691 8.207-18.964 9.976Z"/>
  <path fill="#001B4F" d="M427.83 310.714s-2.246 7.323-9.582 13.709c-10.843-5.75-21.323-13.94-31.439-24.571l14.975-5.636 7.137 3.785.891-.303 4.021 2.9 9.675 5.133s-.15.546-.514 1.487l4.836 3.496Z" opacity=".1"/>
  <path fill="#FFCEB7" d="m433.865 249.453-3.128 16.382-13.006-2.356.482-3.894 1.251-10.007 8.612 2.371 5.789-2.496Z"/>
  <path fill="#001B4F" d="m428.076 251.949.148 1.746a19.423 19.423 0 0 1-10.011 5.89l1.251-10.007 8.612 2.371Z"/>
  <path fill="#FFCEB7" d="M417.563 235.403s-4.933 14.91-.649 17.816c4.284 2.906 13.725.887 13.725.887l6.554-12.548-7.992-6.095-11.638-.06Z"/>
  <path fill="#FFCEB7" d="M417.104 240.241c-2.873 2.066-5.073 4.137-4.114 5.071 1.298 1.263 3.437 1.662 3.437 1.662l.677-6.733Z"/>
  <path fill="#001B4F" d="M412.881 229.583c1.295 5.322 3.004 9.306 11.415 7.747 1.023.38 3.342 5.621 2.652 6.796l6.164 9.211c6.334-6.414 10.514-14.491 3.079-19.236 0 0-3.889-8-11.388-5.613-7.374 2.348-11.922 1.095-11.922 1.095Z"/>
  <path fill="#FFCEB7" d="M430.763 246.019c1.053-1.795.774-3.914-.622-4.732-1.397-.819-3.382-.027-4.434 1.768s-.773 3.914.623 4.733c1.396.818 3.381.027 4.433-1.769Z"/>
  <path fill="#001B4F" d="m428.126 245.607-.746.108a3.183 3.183 0 0 1 .894-2.715 1.683 1.683 0 0 1 1.548-.444l-.171.733a.928.928 0 0 0-.867.265 2.485 2.485 0 0 0-.658 2.053Z"/>
  <path fill="#FFCEB7" d="M423.858 246.058a2.847 2.847 0 1 0-5.693-.127 2.847 2.847 0 0 0 5.693.127Z" opacity=".2"/>
  <path fill="#FF5970" d="m389.732 290.36 16.569-27.839a4.695 4.695 0 0 1 2.802-2.126c8.365-2.254 12.333-1.511 19.125-.256a22.273 22.273 0 0 1 8.251 3.331 16.304 16.304 0 0 1 6.339 19.114l-11.071 30.788a5.3 5.3 0 0 1-3.232 3.202 5.294 5.294 0 0 1-4.523-.495l-32.357-19.464a4.88 4.88 0 0 1-1.903-6.255Z"/>
  <path fill="#FFCEB7" d="M399.603 184.511c-.138.092-.27.192-.397.298-.584-1.146-3.248-1.541-4.534.853-.045-1.687-2.793-1.651-4.657-.16-5.482 4.138-8.318 12.913-8.809 23.675l17.09-3.099c.144-6.934 1.45-13.338 4.417-18.436 1.183-2.037-1.149-4.435-3.11-3.131Z"/>
  <path fill="#FF5970" d="m399.306 275.805 18.987-10.469c-6.977-4.715-20.499-35.195-19.997-59.259l-16.698-2.681c-3.483 24.545 4.935 52.709 17.708 72.409Z"/>
  <path fill="#BDD3FF" d="m122.674 362.787 1.298 3.813 52.19 14.806 43.742-16.041 23.817-52.211-3.04-3.16-42.954 42.522-75.053 10.271Z"/>
  <path fill="#fff" d="m208.276 326.293-1.072 1.667-31.384 48.77-.702 1.084-52.442-15.025 31.493-49.891 51.481 12.745 2.626.65Z"/>
  <path fill="#BDD3FF" d="m208.272 326.292 32.408-16.296-23.575 51.738-41.983 16.085 33.15-51.527Z"/>
  <path fill="#fff" d="m236.487 314.353-20.868 45.798-35.488 13.598 29.534-45.908 26.823-13.487m4.193-4.358-32.408 16.296-33.15 51.527 41.983-16.086 23.575-51.737Z"/>
  <path fill="#FFD966" d="M210.057 162.339c-1.692 11.721 6.693 22.63 18.726 24.366a22.32 22.32 0 0 0 12.159-1.62l-6.291 43.596-126.328-18.232 6.445-44.666a22.288 22.288 0 0 1-13.886 2.463c-12.033-1.736-20.418-12.644-18.725-24.366 1.693-11.721 12.818-19.813 24.851-18.077a22.288 22.288 0 0 1 12.623 6.29l6.444-44.667 126.328 18.232-6.29 43.596a22.33 22.33 0 0 0-11.205-4.992c-12.033-1.736-23.16 6.356-24.851 18.077Z"/>
  <path fill="#fff" d="m109.495 210.619-1.068-.888-.084.582.201.169.951.137Zm4.336-44.372c.165-.08.33-.16.492-.244l-17.13-14.243-.322.386 16.96 14.101Zm-30.74-26.21c-.058.169-.117.338-.172.51l13.565 11.278.321-.386-13.714-11.402Zm96.232 80.66.95.137-25.572-21.261-.321.386 24.943 20.738Zm-64.631-54.387-.084.583 10.631 8.838.321-.386-10.868-9.035Zm11.254 9.357-.321.386 28.358 23.59.321-.386-28.358-23.59Zm52.661-4.85-.321.386 28.366 23.588.321-.387-28.366-23.587Zm28.752 23.908-.321.386 28.37 23.585.321-.387-28.37-23.584Zm-57.508-47.813-.321.386 28.358 23.59.321-.387-28.358-23.589Zm-28.754-23.907-.189.226-.034.242 28.27 23.504.321-.387-28.368-23.585Zm114.922 96.199.08-.554-.305.367.225.187ZM145.002 94.25l-.322.387 28.37 23.584.321-.387-28.369-23.584Zm-5.956-4.952-.951-.137 6.2 5.154.321-.386-5.57-4.63Zm75.203 63.177c.103-.132.209-.262.315-.392l-12.053-10.02-.321.386 12.059 10.026Zm-40.492-34.319-.321.386 28.358 23.59.321-.386-28.358-23.59Zm35.117-18.78 16.835 13.998.321-.387-16.206-13.473-.95-.138Zm39.676 32.987.084-.584-22.217-18.471-.322.386 22.455 18.669Z"/>
  <path fill="#fff" d="m227.914 227.709.583.085 7.296-8.777.306-.367.137-.951-.509.611-.321.386-7.492 9.013Zm-43.419-6.266.583.084 21.961-26.416.321-.386 10.573-12.719c-.13-.105-.256-.216-.384-.324l-10.575 12.721-.321.386-22.158 26.654Zm61.041-72.64.776-.934.137-.95-1.308 1.574c.134.101.263.207.395.31Zm-43.411-7.061-.321.386-23.585 28.369-.321.386-23.584 28.369-.321.386-12.918 15.539.584.084 12.721-15.302.321-.386 23.584-28.369.321-.386 23.584-28.369.321-.386 23.584-28.37.321-.386 8.462-10.179-.583-.084-8.264 9.942-.321.386-23.585 28.37Zm-52.595 5.556.321-.386 23.585-28.369.321-.387 17.702-21.294-.583-.084-17.506 21.057-.321.386-23.584 28.369-.321.386-23.584 28.369-.321.386-14.406 17.33-.138.95 14.931-17.959.32-.386 23.584-28.368Zm-61.019 14.904 8.36-10.056.321-.386 18.786-22.597c-.142-.091-.277-.191-.421-.28l-18.751 22.556-.32.386-8.33 10.019c.117.12.234.241.355.358Zm56.17-67.566.321-.386 3.038-3.654-.584-.085-2.84 3.417-.321.386-23.249 27.967-.137.951.188-.227 23.584-28.369Z"/>
  <path fill="#FFCEB7" d="m170.639 254.63-11.306 2.895 4.794 18.725 11.306-2.895-4.794-18.725Z"/>
  <path fill="#6D7280" d="m170.642 254.634 2.823 11.042c-3.383-.326-8.336-3.406-11.623-7.09l5.995-3.235 2.805-.717Z"/>
  <path fill="#FFCEB7" d="M175.056 248.006c3.005 3.027 3.65 5.838.026 5.053-3.623-.785-.026-5.053-.026-5.053Z"/>
  <path fill="#FFCEB7" d="M174.336 244.023s4.344 14.664-1.523 16.164c-5.867 1.501-12.565-1.997-12.565-1.997l-2.437-11.283 8.706-6.689 7.819 3.805Z"/>
  <path fill="#6D7280" d="M164.432 249.531c.157-2.454 1.506-4.546 4.374-6.178 0 0 5.245 4.391 7.842 1.567 3.668-3.988-2.435-10.688-8.994-7.821-4.344-3.283-7.882-1.171-11.007 3.706-7.059 2.812-7.008 7.217-3.899 12.307-4.414.902-5.406 3.438-3.926 7.155l13.644.978.738-10.31 1.228-1.404Z"/>
  <path fill="#6D7280" d="M159.791 237.189c.622 2.436-.904 4.929-3.408 5.569-2.505.64-5.04-.815-5.663-3.25-.622-2.435.903-4.929 3.407-5.569 2.505-.64 5.041.815 5.664 3.25Z"/>
  <path fill="#6D7280" d="M172.901 254.91a2.74 2.74 0 1 0-3.87-3.88 2.74 2.74 0 0 0 3.87 3.88Z" opacity=".3"/>
  <path fill="#FFCEB7" d="M166.249 252.563c1.073-.95.949-2.844-.278-4.23-1.227-1.387-3.091-1.741-4.165-.791-1.073.95-.949 2.844.278 4.231 1.227 1.386 3.092 1.74 4.165.79Z"/>
  <path fill="#6D7280" d="M164.972 251.342c-.338-1.187-1.03-1.789-2.175-1.898l.094-.999c1.567.147 2.593 1.029 3.047 2.621l-.966.276Z"/>
  <path fill="#3976EE" d="M198.677 253.336a22.027 22.027 0 0 1-17.88 10.446c-11.015.44-24.06 3.84-29.805 13.406l6.493 45.112c.063.434.23.847.488 1.202a2.703 2.703 0 0 0 2.257 1.121 2.71 2.71 0 0 0 1.252-.339l31.922-17.699a2.708 2.708 0 0 0 1.31-3.051l-4.388-16.949c16.941-5.974 28.448-36.465 33.045-54.685l-13.524-7.039c-3.229 11.456-6.839 21.393-11.17 28.475Z"/>
  <path fill="#FFCEB7" d="M223.679 214.224c.598-1.222-1.951-2.862-2.963-1.214.755-2.338-2.01-3.504-3.158-2.62-.647-2.314-1.89-2.673-3.727-1.077-1.274 5.397-2.595 10.611-3.985 15.548l13.526 7.039c2.583-10.238 2.831-17.841.307-17.676Zm-15.403 112.069-33.158 51.522-11.93-44.697-2.462-9.213 32.236-17.102 2.896 3.683 12.418 15.807Z"/>
  <path fill="#6D7280" d="m195.856 310.487-32.669 22.632-2.463-9.213 32.237-17.102 2.895 3.683Z" opacity=".3"/>
  <path fill="#3976EE" d="m162.35 279.043-4.361 22.846a159.38 159.38 0 0 1-4.235-3.614 130.542 130.542 0 0 1-10.568-10.367c-16.483-18.183-26.928-41.52-22.599-75.763l15.348.242c-3.069 20.577 6.422 40.8 15.495 53.88 1.35 1.941 2.686 3.72 3.962 5.317 2.673 3.321 5.111 5.881 6.958 7.459Z"/>
  <path fill="#FFCEB7" d="M129.965 192.819c.079-1.358 3.106-1.534 3.177.399.492-2.406 3.473-2.064 4.038-.73 1.701-1.697 2.96-1.399 3.775.894-1.908 6.588-3.621 12.971-5 19.004l-15.368-.243c2.882-12.242 7.009-20.874 9.378-19.324Z"/>
  <path fill="#001B4F" d="M153.754 298.274a130.542 130.542 0 0 1-10.568-10.367c.898-9.253 3.072-17.104 8.244-21.642a98.654 98.654 0 0 0 3.962 5.317l.11.275c-6.905 5.565-4.138 15.38-1.748 26.417Z" opacity=".3"/>
  <path fill="#fff" d="M238.594 436.317c-6.194 8.308-28.47 5.965-45.031 2.376l-20.679-14.671c21.745 1.492 42.807-.546 53.159-13.964l12.551 26.259Z"/>
  <path fill="#BDD3FF" d="m187.779 427.103-.618.793 6.499 5.063.618-.793-6.499-5.063Zm9.51-1.133-.723.699 7.358 7.621.723-.699-7.358-7.621Zm23.861-6.045-.896.453 6.945 13.754.897-.453-6.946-13.754Z"/>
  <path fill="#fff" d="M554.431 106.374c1.996 5.518.972 12.358-3.303 19.091-5.636 8.878-16.06 13.509-26.492 12.183l-16.876-2.144c17.333-9.815 25.065-25.419 23.652-42.709l23.019 13.579Z"/>
  <path fill="#BDD3FF" d="M524.637 137.649a38.926 38.926 0 0 0 9.932-7.685c3.196 1.275 7.2 1.595 11.674 1.359-7.58 6.28-12.982 7.207-21.606 6.326Zm8.734 164.201c-.265.056-.529.108-.793.154l-.173-.99a20.513 20.513 0 0 0 2.85-.713l.314.955a21.93 21.93 0 0 1-2.198.594Zm-3.861.462c-1.03.028-2.06-.02-3.083-.142l.121-.999c.973.119 1.953.165 2.933.138l.029 1.003Zm8.909-2.231-.449-.898a19.856 19.856 0 0 0 2.521-1.505l.579.823a20.981 20.981 0 0 1-2.652 1.58h.001Zm-15.017 1.494a20.975 20.975 0 0 1-2.908-1.031l.404-.92c.897.395 1.823.723 2.768.982l-.264.969Zm20.053-5.023-.69-.731a20.12 20.12 0 0 0 1.979-2.168l.789.621a21.259 21.259 0 0 1-2.079 2.278h.001Zm-25.687 2.55a21.207 21.207 0 0 1-2.486-1.82l.649-.766c.748.634 1.54 1.214 2.37 1.735l-.533.851Zm29.491-7.385-.872-.499a20.45 20.45 0 0 0 1.273-2.648l.934.368a21.119 21.119 0 0 1-1.336 2.779h.001Zm-34.177 3.402a21.055 21.055 0 0 1-1.857-2.46l.845-.544a20.026 20.026 0 0 0 1.768 2.343l-.756.661Zm36.43-9.125-.979-.229c.223-.955.375-1.925.455-2.903l1.001.082a20.927 20.927 0 0 1-.477 3.049v.001Zm-39.763 3.957a21.16 21.16 0 0 1-1.063-2.894l.965-.277c.27.942.609 1.863 1.013 2.756l-.915.415Zm40.266-10.09-1.003.066a20.429 20.429 0 0 0-1.177-5.597l.944-.344a21.363 21.363 0 0 1 1.235 5.874l.001.001Zm-40.969 4.044-.995.135a21.117 21.117 0 0 1-.192-3.078l1.005.011c-.012.98.049 1.96.181 2.932h.001Zm37.588-12.253a20.114 20.114 0 0 0-1.584-2.473l.804-.603a21.084 21.084 0 0 1 1.663 2.598l-.883.478Zm-37.521 6.394-.991-.159c.162-1.017.4-2.02.71-3.002l.957.301a20.214 20.214 0 0 0-.677 2.86h.001Zm34.009-11.081a20.39 20.39 0 0 0-2.23-1.91l.596-.808c.828.611 1.61 1.281 2.341 2.005l-.707.713Zm-32.245 5.494-.903-.439c.448-.926.965-1.818 1.544-2.668l.83.565c-.552.81-1.044 1.66-1.472 2.541l.001.001Zm27.53-8.973a20.425 20.425 0 0 0-2.686-1.19l.34-.945c.968.348 1.91.765 2.818 1.249l-.472.886Zm-24.234 4.128-.741-.679a21.262 21.262 0 0 1 2.246-2.113l.633.78a20.031 20.031 0 0 0-2.139 2.011l.001.001Zm18.719-6.103a20.153 20.153 0 0 0-2.916-.363l.049-1.004a21.17 21.17 0 0 1 3.063.381l-.196.986Zm-14.171 2.415-.512-.865a21.19 21.19 0 0 1 2.762-1.372l.38.93c-.908.37-1.787.806-2.631 1.305l.001.002Zm8.319-2.709c-.976.095-1.944.261-2.896.496l-.239-.976a21.694 21.694 0 0 1 3.038-.52l.097 1Z"/>
  <path fill="#fff" d="M547.095 271.93c6.867-10.602 3.839-24.765-6.763-31.632-10.603-6.867-24.764-3.839-31.631 6.763-6.868 10.603-3.839 24.765 6.763 31.633 10.602 6.867 24.764 3.839 31.631-6.764Z"/>
  <path fill="#BDD3FF" d="M532.804 282.341a23.369 23.369 0 0 1-27.088-30.142 23.368 23.368 0 0 1 25.599-15.821 23.365 23.365 0 0 1 1.489 45.963Zm-9.625-44.715a22.363 22.363 0 0 0-15.871 13.117 22.372 22.372 0 1 0 15.871-13.117Z"/>
  <path fill="#BDD3FF" d="m538.599 260.356-11.348-.311 2.119-15.76 1.125.152-1.951 14.509 10.085.276-.03 1.134Zm-228.503-15.698a15.266 15.266 0 0 0-8.936-15.029 15.257 15.257 0 0 0-6.012-1.355c-7.457-.149-14.071 5.299-15.327 12.652a15.181 15.181 0 0 0 1.83 10.247c1.966 3.382 3.014 7.218 2.729 11.12l-.489 6.669 18.132 1.329.489-6.674a18.894 18.894 0 0 1 4.237-10.498 15.139 15.139 0 0 0 3.347-8.461Zm-8.409 29.915-18.088-1.325-.508 6.934 18.089 1.325.507-6.934Z"/>
  <path fill="#fff" d="m296.233 270.066-1.02-.194 4.364-22.981a3.653 3.653 0 0 1-2.219-.128 3.41 3.41 0 0 1-1.991-1.976.259.259 0 0 0-.22-.156.273.273 0 0 0-.259.104l-.201.299a3.449 3.449 0 0 1-2.412 1.469 3.654 3.654 0 0 1-1.94-.267l.97 23.35-1.037.042-1.06-25.522.906.78a2.576 2.576 0 0 0 2.022.587 2.401 2.401 0 0 0 1.69-1.02l.201-.298a1.323 1.323 0 0 1 2.314.271 2.376 2.376 0 0 0 1.389 1.367 2.581 2.581 0 0 0 2.128-.117l1.118-.587-4.743 24.977Z"/>
  <path fill="#BDD3FF" d="m276 212.37-1.19.923 9.221 11.898 1.191-.923L276 212.37Zm42.526 1.849-9.431 10.562 1.124 1.004 9.431-10.562-1.124-1.004Zm-20.753-14.594-1.038 21.547 1.506.073 1.038-21.548-1.506-.072Z"/>
  <path fill="#fff" d="m106.045 278.286-13.95-5.745a26.055 26.055 0 0 0-24.879-25.435 26.054 26.054 0 1 0 24.091 32.411l14.738-1.231Z"/>
  <path fill="#BDD3FF" d="M71.519 299.091a26.63 26.63 0 0 1-28.131-11.947 26.628 26.628 0 0 1 14.85-39.574 26.622 26.622 0 0 1 29.046 9.511 26.624 26.624 0 0 1 5.305 15.12l15.571 6.412-16.457 1.375a26.667 26.667 0 0 1-20.184 19.103Zm-10.833-51.1a25.618 25.618 0 1 0 30.134 31.402l.09-.347 13.021-1.088-12.332-5.077-.006-.33a25.599 25.599 0 0 0-9.666-19.564 25.591 25.591 0 0 0-21.241-4.996Z"/>
  <path fill="#BDD3FF" d="M53.145 279.01a3.14 3.14 0 1 0-1.314-6.141 3.14 3.14 0 0 0 1.314 6.141Zm13.017-2.784a3.139 3.139 0 1 0-1.312-6.14 3.139 3.139 0 0 0 1.312 6.14Zm13.018-2.783a3.139 3.139 0 1 0-1.313-6.14 3.139 3.139 0 0 0 1.312 6.14Z"/>
  <path fill="#fff" d="m466.118 353.86 13.449 17.955-26.799 20.074-13.449-17.955 20.117-1.06 6.682-19.014Z"/>
  <path fill="#BDD3FF" d="m466.118 353.86-4.035 23.101-22.764-3.027 26.799-20.074ZM93.232 412.942l-25.66 5.486A1.5 1.5 0 0 1 66 416.146a1.5 1.5 0 0 1 .945-.651l25.66-5.486a1.5 1.5 0 0 1 .627 2.933Zm-8.779 5.423-16.433 3.513a1.216 1.216 0 0 0-.935 1.444l.119.554c.14.657.786 1.075 1.443.935l16.433-3.514a1.215 1.215 0 0 0 .935-1.443l-.119-.554a1.216 1.216 0 0 0-1.443-.935Zm6.151 5.297-21.085 4.508a1.367 1.367 0 0 0-1.05 1.622l.055.26a1.367 1.367 0 0 0 1.622 1.051l21.085-4.508a1.367 1.367 0 0 0 1.05-1.623l-.055-.259a1.367 1.367 0 0 0-1.622-1.051Zm.211-3.404a1.682 1.682 0 1 0-.703-3.29 1.682 1.682 0 0 0 .703 3.29Z"/>
</svg>
