<svg width="112" height="112" viewBox="0 0 112 112" fill="none" xmlns="http://www.w3.org/2000/svg">
<path d="M69.6079 24H42.3921C38.8995 24 36 27.2225 36 31.1944V80.8056C36 84.7775 38.8336 88 42.3921 88H69.6079C73.1005 88 76 84.7775 76 80.8056V31.1944C76 27.2225 73.1664 24 69.6079 24ZM74.0231 80.8056C74.0231 83.5785 72.0461 85.7518 69.6079 85.7518H42.3921C39.9539 85.7518 37.9769 83.5035 37.9769 80.8056V31.1944C37.9769 28.4215 39.9539 26.2482 42.3921 26.2482H69.6079C72.0461 26.2482 74.0231 28.4965 74.0231 31.1944V80.8056Z" fill="white"/>
<path d="M64.2652 31.1201H47.9885C47.4613 31.1201 47 31.6447 47 32.2442C47 32.8438 47.4613 33.3684 47.9885 33.3684H64.2652C64.7924 33.3684 65.2537 32.8438 65.2537 32.2442C65.2537 31.6447 64.7924 31.1201 64.2652 31.1201Z" fill="white"/>
<path d="M56 74.0605C54.32 74.0605 53 75.4545 53 77.0908C53 77.8787 53.3 78.6666 53.9 79.2121C54.44 79.7575 55.22 80.0605 56 80.0605C57.68 80.0605 59 78.6666 59 77.0302C59 75.3939 57.68 74.0605 56 74.0605ZM56.06 78.303C55.76 78.303 55.46 78.1818 55.22 77.9393C54.98 77.6969 54.86 77.3939 54.86 77.0908C54.86 76.4242 55.4 75.8787 56.06 75.8787C56.72 75.8787 57.26 76.4242 57.26 77.0908C57.26 77.7575 56.72 78.303 56.06 78.303Z" fill="white"/>
<circle cx="56" cy="56" r="55" stroke="white" stroke-width="2"/>
</svg>
