<svg width="47" height="40" viewBox="0 0 47 40" fill="none" xmlns="http://www.w3.org/2000/svg">
<path d="M10.3594 39.782C7.18816 39.782 4.65116 38.5831 2.74841 36.1853C0.916138 33.7148 0 30.8084 0 27.4659C0 24.7048 0.493305 22.1253 1.47992 19.7275C2.46653 17.3297 3.69979 15.1499 5.1797 13.188C6.73009 11.2262 8.35095 9.51862 10.0423 8.0654C11.8041 6.53951 13.4249 5.26794 14.9049 4.25068C16.3848 3.16076 17.5828 2.36149 18.4989 1.85286C19.4856 1.34423 19.9436 1.08992 19.8731 1.08992L22.3044 4.46867C21.6702 4.75931 20.8245 5.3406 19.7674 6.21253C18.7104 7.01181 17.6533 7.99273 16.5962 9.15531C15.6096 10.3179 14.7287 11.5895 13.9535 12.97C13.1783 14.2779 12.7907 15.5495 12.7907 16.7847C12.7907 17.5114 13.2135 18.238 14.0592 18.9646C14.9049 19.6185 15.821 20.4178 16.8076 21.3624C17.7942 22.2343 18.7104 23.3243 19.556 24.6322C20.4017 25.8674 20.8245 27.3933 20.8245 29.2098C20.8245 30.8084 20.5074 32.2616 19.8731 33.5695C19.3094 34.8774 18.5342 36.0036 17.5476 36.9482C16.6314 37.8202 15.5391 38.5104 14.2706 39.0191C13.0021 39.5277 11.6984 39.782 10.3594 39.782ZM36.3636 40C34.7428 40 33.2629 39.6367 31.9239 38.9101C30.5849 38.1835 29.4221 37.2025 28.4355 35.9673C27.4489 34.7321 26.6737 33.3152 26.1099 31.7166C25.6166 30.0454 25.37 28.2652 25.37 26.376C25.37 22.5976 26.1452 19.1099 27.6956 15.9128C29.3164 12.6431 31.0782 9.8456 32.981 7.52044C35.2361 4.75931 37.8083 2.2525 40.6977 0L43.7632 2.94278C43.129 3.37875 42.3538 4.06903 41.4376 5.01362C40.592 5.95822 39.7815 7.08447 39.0063 8.39237C38.3016 9.62761 37.6674 10.9355 37.1036 12.3161C36.6103 13.6966 36.3636 15.0409 36.3636 16.3488C36.3636 17.2207 36.8922 17.9473 37.9493 18.5286C39.0063 19.1099 40.1691 19.8365 41.4376 20.7084C42.7061 21.5804 43.8689 22.7066 44.926 24.0872C45.9831 25.3951 46.5116 27.248 46.5116 29.6458C46.5116 31.099 46.2297 32.4432 45.666 33.6785C45.1022 34.9137 44.327 36.0036 43.3404 36.9482C42.4242 37.8928 41.3319 38.6558 40.0634 39.2371C38.8654 39.7457 37.6321 40 36.3636 40Z" fill="#E7EFFF"/>
</svg>
