<svg width="112" height="112" viewBox="0 0 112 112" fill="none" xmlns="http://www.w3.org/2000/svg">
<path d="M48.7273 69.0003C55.7564 69.0003 61.4547 63.3021 61.4547 56.273C61.4547 49.2439 55.7564 43.5457 48.7273 43.5457C41.6982 43.5457 36 49.2439 36 56.273C36 63.3021 41.6982 69.0003 48.7273 69.0003Z" stroke="white" stroke-width="3" stroke-linecap="round" stroke-linejoin="round"/>
<path d="M68.7276 43.5455C72.7442 43.5455 76.0004 40.2894 76.0004 36.2728C76.0004 32.2561 72.7442 29 68.7276 29C64.711 29 61.4548 32.2561 61.4548 36.2728C61.4548 40.2894 64.711 43.5455 68.7276 43.5455Z" stroke="white" stroke-width="3" stroke-linecap="round" stroke-linejoin="round"/>
<path d="M57.8186 47.1819L63.2732 41.7273" stroke="white" stroke-width="3" stroke-linecap="round" stroke-linejoin="round"/>
<path d="M68.7276 83.5455C72.7442 83.5455 76.0004 80.2894 76.0004 76.2728C76.0004 72.2561 72.7442 69 68.7276 69C64.711 69 61.4548 72.2561 61.4548 76.2728C61.4548 80.2894 64.711 83.5455 68.7276 83.5455Z" stroke="white" stroke-width="3" stroke-linecap="round" stroke-linejoin="round"/>
<path d="M57.8186 65.3638L63.2732 70.8183" stroke="white" stroke-width="3" stroke-linecap="round" stroke-linejoin="round"/>
<circle cx="56" cy="56" r="55" stroke="white" stroke-width="2"/>
</svg>
