<svg xmlns="http://www.w3.org/2000/svg" width="166" height="146" fill="none" viewBox="0 0 166 146">
  <path fill="#FFD966" d="M148.845 128.718h-12.116c-2.422 0-4.843.002-7.266.006-2.422.004-4.844.007-7.265.008l-8.465.002-8.466.001-1.665-.001c-1.11-.002-2.22-.006-3.33-.011-2.23-.01-4.46-.023-6.69-.037-.545-.004-1.09-.006-1.636-.009l-.671-.002-.405-.001h-9.596l-.794.001h-1.066c-.355 0-.711 0-1.067.002h-.531l-.53.001-3.099.006-.495.001h-.729l-.475.001-.465.001-.455.001-.875.002-.42.001-.602.001-.57.001-.361.001h-.673l-.457.002h-.281l-.385.001-.44.001-.552.001h-1.203l-.731-.001-.843-.002h-.303l-.636-.002-.333-.001-1.05-.003-.364-.001-.752-.003-.385-.001c-5.166-.018-11.792-.048-14.684-.061-2.498-.011-4.998.009-7.496-.012-.481-.004-.963-.006-1.445-.006h-.722l-.723.003-1.445.008-1.445.011c-.963.007-1.926.011-2.89.013-.963 0-1.926-.006-2.889-.023l-.06-.001h-.173l-.046-.001h-1.528a27.556 27.556 0 0 0-.293-.002h-.148l-.085-.001h-2.373l-.325-.001-.37-.014h-2.535c-2.883-.011-5.707-.533-8.612-.251A29.77 29.77 0 0 0 0 130.725c-.01 4.184 10.413 6.268 15.172 7.572 2.283.626 4.566 1.251 6.857 1.82 6.724 1.67 13.507 2.849 20.305 3.776 30.67 4.184 77.262 1.811 107.768-4.234 7.425-1.471 28.454-9.335 5.405-10.816-.627-.045-4.981-.125-6.662-.125Zm-126.79-.003.076.001-.076-.001Zm.343.004.096.001-.096-.001Zm-.168-.002.091.001-.091-.001Zm2.039.03.051.001-.051-.001Zm-2.59-.036.104.002-.104-.002Zm-.177-.002.062.001-.062-.001Zm1.267.015.055.001-.055-.001Zm-.915-.011.105.001-.105-.001Zm2.027.027.068.001-.068-.001Zm-.138-.003.062.002-.062-.002Z"/>
  <path fill="#FFD966" d="m24.01 128.742.066.001-.065-.001Zm.135.003.051.001-.051-.001Zm-.691-.012h.048a.392.392 0 0 1-.048 0Zm-.409-.006Zm-.135-.002.089.002-.088-.002Zm.696.01.034.001-.034-.001Zm-1.03-.014.085.001-.085-.001Zm-4.656-.039.13.001-.13-.001Zm.481.003.132.001-.132-.001Zm-.219-.001.097.001-.097-.001Zm.413.002.162.001-.162-.001Zm-1.137-.007.135.001-.135-.001Zm-.228-.002.107.001-.107-.001Zm1.661.011.063.001-.063-.001Zm2.211.017.08.001-.08-.001Zm-3.416-.024h.159-.159Zm2.791.02.13.001-.13-.001Zm.215.001.115.001-.115-.001Zm-.567-.005c.113 0 .225.002.335.003l-.335-.003Zm-.877-.007c.057 0 .114 0 .17.002l-.17-.002Zm.252.003.244.001-.244-.001Zm-4.7-.029 2.326.013-2.325-.013Zm77.898.247.416.002-.416-.002Zm-.795-.003h.33-.33Zm.491.002.303.001-.303-.001Zm-4.914-.001 1.185-.003-1.185.003Zm-.741.001.741-.001-.741.001Zm29.563.172-8.74.004 8.74-.004Zm-30.07-.17.507-.002-.507.002Zm53.814.124Zm-44.548-.092a478.314 478.314 0 0 0-1.69-.024l1.69.024Zm-70.336-.173.024.002-.024-.002Zm-.252-.008.036.001-.037-.001Zm.087.003.035.001-.035-.001Zm-.611-.017.051.002-.051-.002Zm.324.008a.41.41 0 0 1 .05.002l-.05-.002Zm-.106-.002Zm.628.019.024.001-.024-.001Zm56.46.153.276-.002-.276.002Zm2.715-.01h.267a11.855 11.855 0 0 0-.267 0Zm-1.618.006.544-.002-.544.002Zm1.082-.004.27-.002-.27.002Zm-52.585-.113 1.492-.031-1.492.031Zm1.492-.031Zm2.238-.032.746-.002-.746.002Z"/>
  <path fill="#FFD966" d="M160.916 128.54c-5.011.057-17.406.034-21.229-.057-3.467-.081-21.937.063-27.702.074-4.745.009-23.983-.201-28.857-.196-5.447.005-22.07.259-24.935.029-1.142-.091-20.35-.232-25.414-.169-3.793.047-7.583.01-11.37-.111-1.799-.059-9.72-.06-16.782-.071-.05.2-.11.396-.184.588 2.92.01 6.745.021 10.34.037h.018l2.325.013h.105l.106.001h.121l.135.001h.327l.131.001h.13l.097.001h.123l.132.002h.062l.162.001h.197l.131.001h.163c.057 0 .113 0 .17.002l.081.001.244.001.382.003c.112 0 .224.003.335.004h.145l.086.001.115.001h.295a4.797 4.797 0 0 0 .2.003h.2l.061.001.115.002.104.001h.07l.107.001.095.001.077.001.098.001.092.001h.076l.097.001.08.001.086.001.108.001c.018 0 .037 0 .055.002h.087l.088.002h.047l.106.002c.104 0 .204.001.302.004h.049l.103.001.034.001.104.001.062.002h.076l.068.002.06.001.066.001.069.002h.05l.075.002a.875.875 0 0 0 .05.001l.065.001.052.002c.02 0 .041 0 .062.002h.054l.05.002.058.001c.018.001.032 0 .047 0a.41.41 0 0 1 .05.002c.017.002.037 0 .055.001h.04l.055.002.037.001.05.002.036.001.047.002h.034l.05.002.023.002a.683.683 0 0 1 .07.002l.064.002c.994.049 1.988.065 2.982.065.995 0 1.99-.017 2.984-.036l1.492-.031c.497-.01.995-.018 1.492-.025l.746-.007.746-.002c.497.001.995.006 1.492.018 2.58.058 5.16.001 7.74.033 2.984.038 9.827.122 15.16.173l.397.004.776.007.377.004a1913.667 1913.667 0 0 1 2.084.017 1016.731 1016.731 0 0 1 1.182.008l.756.003.433.001c.336.002.61 0 .808-.001.14 0 .331-.003.57-.005l.455-.002.397-.004.29-.001.473-.003.338-.002.356-.002.372-.003.59-.004.622-.003c.142-.002.286-.002.433-.003l.903-.006.47-.002a3847.334 3847.334 0 0 1 1.47-.008l.253-.001c.169-.001.34-.003.512-.003a2619.26 2619.26 0 0 1 4.295-.021l1.102-.005.275-.001.55-.002.275-.002.82-.003.545-.001.537-.002.27-.002h.533l.525-.002h.002l1.032-.002.506-.002.742-.001 1.184-.002h3.569l.16.002.303.001h.002l.416.002h.002c.263.002.495.004.691.007.564.008 1.127.015 1.69.024 2.302.034 4.604.077 6.906.107 1.146.014 2.292.025 3.438.031.574.003 1.147.004 1.72.004l8.74-.004a3749.85 3749.85 0 0 0 16.242-.029c2.501-.009 5.002-.015 7.502-.017h5.863l6.616-.002h.032l5.139-.002 3.181-.001c.008-.158.022-.318.043-.479Z"/>
  <path fill="#FAFAFA" d="m77.513 49.688-.184-.097c.502 4.002 1.838 4.126 7.547 4.288 3.341.095 3.061-.605 4.435-4.22-1.335.81-3.462 1.212-4.794 1.249-1.88.052-5.324-.285-7.004-1.22Z"/>
  <path fill="#FAFAFA" d="M77.547 46.26a3.452 3.452 0 0 1-1.03-.323l.017.05c.307.858.533 1.744.677 2.644.187.073.383.309.555.393 2.838 1.394 8.503 1.617 11.428.29.097-.044.196-.084.295-.121.25-.7.48-2.192.668-2.938a10.91 10.91 0 0 1-1.321.225c-1.979.244-7.44.424-11.288-.22Z"/>
  <path fill="#FAFAFA" d="M78.417 45.862c.797.045 8.882.451 10.332.188 3.182-.58 4.715-3.492 5.178-4.282 3.8-6.487 6.028-11.188 6.624-17.854.227-2.535-.733-9.145-4.63-12.626-3.34-2.984-10.158-5.227-16.61-3.762-3.116.771-5.66 2.013-7.998 4.345-3.259 3.25-5.682 7.564-4.548 14.774.284 1.807.916 3.795 1.669 5.994.963 2.814 3.517 6.954 5.366 9.37 2.931 3.833 2.597 3.56 4.617 3.853Zm6.099 5.836a7.874 7.874 0 0 1-1.602.402c-.934.142-1.885.3-2.835.246-.7-.038-1.395-.127-2.081-.267.888 1.583 2.726 1.682 6.877 1.8 3.341.095 3.061-.605 4.435-4.22a8.59 8.59 0 0 1-2.359.905c-.778.446-1.593.825-2.435 1.134Zm4.694-2.84c-.287.278-.59.542-.905.789.303-.092.6-.203.89-.333.096-.044.195-.083.294-.12a7.76 7.76 0 0 0 .234-.87c-.163.182-.334.36-.512.534Z"/>
  <path fill="#F5F5F5" d="M95.921 11.287a11.934 11.934 0 0 0-.998-.795c.425.53.81 1.09 1.154 1.676 1.316 2.243 1.818 4.472 2.086 7.015.064.587.067 1.18.008 1.767-.13 1.259-.253 2.581-.644 3.8-.842 2.62-2.105 4.655-3.874 6.735a8.93 8.93 0 0 1-1.115 1.136c-.914.753-1.704 1.697-2.738 2.298-.367.206-.75.381-1.146.524-3.046 1.162-6.334 1.575-9.582 1.475a41.39 41.39 0 0 1-4.695-.42c-1.56-.23-3.139-1.026-4.54-1.71-.226-.11-.448-.229-.666-.356 1.205 2.584 3.143 5.636 4.628 7.577 2.932 3.833 2.597 3.559 4.618 3.852.797.045 8.882.452 10.332.188 3.182-.579 4.715-3.492 5.178-4.282 3.8-6.486 6.028-11.187 6.624-17.854.227-2.534-.733-9.144-4.63-12.626Z"/>
  <path fill="#fff" d="M79.912 9.782c-12.52 0-12.541 16.388 0 16.388 12.521 0 12.542-16.388 0-16.388Z"/>
  <path fill="#0D0D0D" d="M80.295 46.49c-.09-1.901-3.012-12.04-3.836-14.881-.234-.807-.495-1.605-.387-2.457.081-.639.407-1.12 1.043-1.33.587-.194.948.104 1.32.542a28.53 28.53 0 0 0 2.356 2.536c1.462 1.35 3.438 1.349 4.995.07.368-.303.695-.655 1.033-.993.769-.768 1.607-1.44 2.646-1.802.675-.235 1.116-.048 1.046.76-.025.357-.089.71-.19 1.053-1.21 3.834-1.92 7.796-2.954 11.675-.322 1.206-.484 3.385-.769 4.874.684-.405.492.136.552-.198.555-3.136 1.569-8.055 2.333-11.143.506-2.043 1.076-4.073 1.486-6.135.237-1.189-.46-1.712-1.625-1.348-1.377.428-2.357 1.432-3.335 2.424-1.656 1.68-3.721 1.682-5.35-.017a54.672 54.672 0 0 1-1.995-2.224c-.498-.579-1.11-.842-1.806-.527-.67.303-1.187.838-1.26 1.618-.055.592-.017 1.987.164 2.572.495 1.596 3.721 11.015 3.8 14.345.214.67.017-.134.733.585Z"/>
  <path fill="#0D0D0D" d="M76.516 45.937c.325.16.673.27 1.031.324 3.85.643 9.31.463 11.289.22a11.3 11.3 0 0 0 1.32-.225l.027-.103c.013-.048.128-.068.285-.146.012.05.02.101.029.154a4.77 4.77 0 0 0 2.574-1.828c2.142-3.061 7.25-11.426 8.049-18.83 1.098-10.17-4.592-19.07-17.542-19.058-2.804.003-4.783.399-7.429 1.34-4.072 1.45-7.268 4.658-8.88 8.4-2.064 4.79-3.601 12.011 5.129 25.34 1.762 2.266 2.714 3.564 3.357 4.31.153.323.276.427.292.42.29-.107.399-.52.47-.319ZM73.8 42.01c-1.848-2.417-4.403-6.557-5.366-9.37-.752-2.2-1.385-4.188-1.669-5.994-1.134-7.21 1.29-11.524 4.549-14.775 2.338-2.332 4.882-3.574 7.998-4.345 6.451-1.464 13.27.778 16.61 3.762 3.896 3.481 4.856 10.091 4.629 12.626-.596 6.667-2.825 11.368-6.624 17.854-.462.79-1.996 3.703-5.178 4.282-1.45.264-9.534-.143-10.331-.188-2.022-.293-1.687-.02-4.619-3.852Z"/>
  <path fill="#0D0D0D" d="M90.497 46.16a2.033 2.033 0 0 0-.03-.153c-.156.077-.27.098-.284.146l-.026.102c-.188.746-.417 2.24-.668 2.938.082-.031.164-.061.247-.09.02-.007.062.044.165.123-.182.163-.38.309-.59.433-1.374 3.614-1.094 4.315-4.435 4.22-5.71-.162-7.045-.286-7.548-4.288-.344-.179-.725-.395-.447-.831a.248.248 0 0 1 .33-.13 14.785 14.785 0 0 0-.695-2.694c-.07-.202-.173-.45-.462-.342a.414.414 0 0 0-.045.02c-.235.117-.194.378-.112.593.615 1.608.723 3.339 1.211 4.977.207.69.551 1.799 1.177 2.227a5.334 5.334 0 0 0 1.579.698c.28.084.564.15.852.198 1.338.196 2.662.204 4.014.236a9.035 9.035 0 0 0 2.051-.105c1.01-.21 1.667-.926 2.118-1.818a14.57 14.57 0 0 0 .995-2.826c.23-.857.776-2.576.603-3.634Z"/>
  <path fill="#0D0D0D" d="M77.767 49.024c-.173-.085-.37-.32-.556-.392a.25.25 0 0 0-.33.13c-.278.435.103.652.448.83.064.034.127.066.184.098 1.68.934 5.124 1.271 7.005 1.219 1.331-.037 3.459-.44 4.793-1.248.21-.125.408-.27.59-.434-.102-.078-.144-.13-.165-.123l-.247.09c-.1.038-.198.077-.294.121-2.926 1.326-8.59 1.104-11.428-.29Zm28.51-43.784-4.785 4.34.13.16c1.67-1.347 3.271-2.782 4.846-4.25l-.191-.25Zm5.77 11.32c-2.296.933-4.824 1.308-6.874 2.831 2.327-.857 4.718-1.56 6.874-2.832Zm-3.774 16.112c-1.618-.658-3.396-.808-5.011-1.522 1.375 1.449 3.22 1.384 5.011 1.523Zm-43.785.678c-1.665.53-3.127 1.552-4.825 2.036 1.985.233 3.36-.996 4.825-2.035Zm4.145 7.358-3.675 3.173.1.118c1.283-.986 2.511-2.035 3.722-3.109-.05-.06-.098-.12-.147-.182Zm-5.725-17.97c-2.476.121-4.985-.361-7.426.398 2.48-.04 4.97.088 7.426-.398Zm6.674-13.213c-.97-1.451-2.356-2.573-3.29-4.07.322 1.97 1.885 2.952 3.29 4.07ZM98.2 42.958a6.502 6.502 0 0 0 2.788 2.084c-.841-.81-1.547-1.787-2.787-2.084ZM91.767 0c-.626 1.22-.955 2.175-.697 3.253.152-1.002.947-1.848.697-3.253ZM78.476 1.25l-.304.125c.142.933.405 1.817 1.311 2.436l-1.007-2.562Z"/>
  <path fill="#fff" d="M87.647 105.926a24.494 24.494 0 0 0 7.615 3.058c.703.188 1.415.338 2.134.45 0-.371.04-.74.117-1.103.269-1.402.805-3.607 1.306-4.919-1.011.418-2.29.901-3.275 1.265-1.037.385-2.057.356-3.035-.252-.716-.445-1.466-.834-2.2-1.25-.733-.416-1.461-.861-2.3-1.033-1.101-.225-2.148 1.039-1.91 2.13.172.78.856 1.235 1.548 1.654Zm15.632-4.532c3.978 1.621 6.977-1.683 6.92-4.384-.055-2.123-.6-2.782-2.694-3.315-.726-.185-1.549-.21-2.048-.88-.579-.775-1.268-.682-2.027-.371a4.905 4.905 0 0 0-2.055 1.63c-1.466 1.912-1.167 6.069 1.904 7.32Z"/>
  <path fill="#fff" d="M97.812 110.485c-.185 2.657-.63 5.277-.955 7.913-.43 3.48-.781 6.973-1.08 10.463a200.857 200.857 0 0 0-.333 4.549c-.079 1.337.575 2.343 2.391 2.149.583-.063 1.248-.581 1.362-1.093.15-.658.267-1.325.348-1.995.303-2.597 1.129-10.591 1.297-11.72.013-.083.033-.165.06-.245.166-.491.359-1.009.952-1.063.634-.058.85.477 1.021.953.155.434 1.351 12.637 1.442 13.814.09 1.149.801 1.624 1.878 1.663 1.272.046 1.87-.491 2.003-1.671.209-1.853.08-3.708.025-5.566-.18-6.161-.266-12.003.229-18.15.114-1.413.69-3.105 1.384-4.362.92-1.666 1.694-3.402 2.571-5.087.676-1.3.857-2.604.413-4.033-.529-1.7-1.123-3.363-2.108-4.858a5.681 5.681 0 0 0-2.85-2.219 1.74 1.74 0 0 0-1.657.265c-.453.342-.726.783-.623 1.387a1.531 1.531 0 0 0 1.124 1.247c.566.172 1.128.407 1.709.469 1.33.143 1.94 1.069 2.199 2.151.993 4.16-2.522 7.892-6.525 6.874a6.233 6.233 0 0 1-1.988-.858c-1.084.34-2.124 1.284-2.35 1.701a13.25 13.25 0 0 0-1.24 3.34 24.533 24.533 0 0 0-.7 3.982Z"/>
  <path fill="#0D0D0D" d="M118.944 121.739c-1.109-4.584-.762-13.425 3.34-19.916.193-.305-.353-.575-.559-.28-3.566 5.119-4.575 13.968-3.881 17.743.661 3.597 2.155 7.111 2.224 10.793a9.588 9.588 0 0 1-1.003 4.512c-.883 1.748-2.521 2.768-4.179 3.684-3.725 2.057-8.089 2.041-12.225 1.995-3.844-.043-7.92.222-11.66-.835-.911-.257-4.939-1.684-4.672-3.072.413-2.141 3.793-2.867 5.463-3.398 1.021-.324 2.045-.644 3.072-.951-.04.52-.077 1.023-.105 1.484-.081 1.282.54 2.149 1.782 2.499.178.046.36.073.545.082 1.264.188 2.086-.049 2.569-1.22.393-.951.414-1.957.539-2.961.058-.463.115-.94.172-1.423a3.836 3.836 0 0 0 1.017-.687c1.479-1.406 1.097-3.698-.393-4.859.115-1.025.23-2.034.345-2.991.051-.419.097-.849.324-1.214.181-.294.422-.249.575.035.094.19.154.394.177.605.313 2.297 1.158 10.783 1.271 12.889.029.537.148 1.295.677 1.683 1.168.858 3.119.86 3.998-.293.657-.861.555-2.056.549-3.009-.017-2.909-.087-5.817-.146-8.727-.017-.842-.085-6.402-.007-10.09.066-3.122.621-5.908 2.245-8.605a33.898 33.898 0 0 0 2.464-5.133 4.306 4.306 0 0 0 .214-2.484 16.855 16.855 0 0 0-1.521-4.272c-.83-1.631-1.82-3.131-3.651-3.863-1.052-.42-1.921-.317-2.833.377-.612.466-.589 1.37-1.224 1.682-.667.327-1.457.342-2.128.766-1.924 1.216-2.718 3.548-2.436 5.314.242 1.513.806 2.669 1.739 3.491-.908.163-1.864.917-2.205 1.24-.178.169-2.464 1.267-3.451 1.602-1.172.397-2.296.49-3.408-.19-.937-.573-1.904-1.097-2.852-1.653a5.061 5.061 0 0 0-1.517-.627c-1.694-.352-3.144 1.541-2.626 3.182.294.929 1.02 1.49 1.867 1.967a27.837 27.837 0 0 0 8.76 3.229c.992.183.983.229.9 1.226-.185 2.19-1.458 13.504-1.854 16.985a113.881 113.881 0 0 0-.327 3.397c-.427.115-.854.236-1.278.367-2.58.798-7.335 1.499-7.914 4.78-.18 1.019 2.35 2.999 6.577 3.707 4.34.727 8.727.529 13.122.548 6.037.026 14.38-2.14 15.128-9.267.357-3.411-.81-6.575-1.6-9.844ZM99.546 132.47a19.523 19.523 0 0 1-.348 1.996c-.114.512-.78 1.03-1.362 1.092-1.817.195-2.47-.811-2.392-2.149.028-.47.064-1.023.105-1.598a86.766 86.766 0 0 1 1.736-.489c.823-.221 1.67-.339 2.457-.599-.077.699-.145 1.303-.196 1.747Zm.906-2.732c.157-1.36.311-2.767.465-4.155 1.392 1.277.903 3.157-.465 4.155Zm.923-35.663a4.905 4.905 0 0 1 2.055-1.631c.759-.31 1.448-.404 2.027.372.499.67 1.322.694 2.048.88 2.094.532 2.639 1.192 2.694 3.314.056 2.7-2.942 6.005-6.92 4.384-3.071-1.252-3.37-5.408-1.904-7.32Zm-6.112 14.909a24.497 24.497 0 0 1-7.616-3.058c-.691-.418-1.376-.874-1.547-1.653-.24-1.092.808-2.356 1.91-2.131.838.172 1.565.617 2.3 1.034.734.417 1.484.805 2.2 1.249.978.608 1.998.637 3.034.253.985-.365 2.264-.847 3.276-1.266-.501 1.313-1.038 3.517-1.306 4.92a5.256 5.256 0 0 0-.118 1.102 20.166 20.166 0 0 1-2.134-.451v.001Zm.514 19.877c.299-3.49.65-6.983 1.08-10.463.324-2.636.77-5.256.955-7.912a24.55 24.55 0 0 1 .7-3.983 13.228 13.228 0 0 1 1.24-3.339c.226-.418 1.266-1.362 2.35-1.702.608.4 1.281.69 1.988.858 4.003 1.018 7.518-2.714 6.525-6.873-.259-1.083-.869-2.009-2.199-2.152-.58-.062-1.143-.296-1.709-.47a1.536 1.536 0 0 1-1.124-1.246c-.102-.604.171-1.044.623-1.387a1.74 1.74 0 0 1 1.657-.265 5.675 5.675 0 0 1 2.849 2.221c.986 1.494 1.58 3.157 2.108 4.858.445 1.429.264 2.733-.412 4.033-.877 1.685-1.652 3.42-2.571 5.087-.694 1.257-1.269 2.948-1.384 4.362-.495 6.146-.409 11.988-.229 18.15.055 1.857.184 3.713-.025 5.566-.133 1.179-.731 1.717-2.003 1.671-1.077-.04-1.789-.514-1.878-1.664-.092-1.177-1.287-13.379-1.442-13.813-.171-.477-.387-1.012-1.021-.954-.593.054-.786.572-.952 1.063-.027.08-.047.162-.06.246-.131.88-.664 5.945-1.035 9.36-.135.06-.275.112-.417.155-1.252.378-2.531.675-3.803 1.003.062-.857.13-1.722.19-2.41Zm14.093-40.819c-1.155-1.617-2.955-1.959-4.033-.729 1.517-.627 2.806-.128 4.033.729Z"/>
  <path fill="#fff" d="M41.764 101.203c-2.582 1.819-5.307 3.39-8.32 4.403-1.145.385-2.324-.005-3.49.085-.854.066-.124-1.011-.75-1.347-.377.687-.28 1.388-.288 2.076-.037 2.926 2.13 23.688 1.984 24.91a12.24 12.24 0 0 1-.215 1.56c-.298 1.164-.594 1.967-2.593 1.78-1.313-.123-1.703-.94-1.81-2.05-.197-2.053-.933-10.68-1.456-12.896-.166-.706-.466-1.331-1.162-1.363-.696-.033-1.107.631-1.279 1.253-.29 1.053-.478 9.721-.758 12.952-.132 1.516-1.13 2.604-2.336 2.596-1.533-.011-2.572-.799-2.558-2.415.024-2.72.086-3.42.181-5.561.14-3.129.207-6.224.107-9.341-.127-3.975.093-7.934.406-11.892.02-.253.184-.565-.342-.85-.409 1.258-.439 2.523-.526 3.766-.212 2.993-.225 5.987-.175 8.983-.498.124-1.73-.058-1.948-.724-.658-2.019-.31-4-.008-6.312a58.497 58.497 0 0 1 1.196-6.562c.416-1.674 1.732-4.428 3.887-5.455.256-.195.477-.188.684-.436a.326.326 0 0 1 .062-.056c.572.208 1.18.296 1.788.257a7.969 7.969 0 0 0 2.303-.494c1.615.365 3.436 1.131 4.42 1.492 1.776.651 3.546 1.444 5.48.54 1.457-.682 2.913-1.369 4.375-2.042a9 9 0 0 1 1.237-.487c.897-.263 1.697-.16 2.207.741.556.984.483 2.335-.303 2.889Zm-24.549-8.171c.032-2.51 1.64-5.216 5.566-4.953 2.774.185 4.51 2.49 4.512 5 .178 2.672-2.591 4.779-5.359 4.853-2.512.068-4.753-2.319-4.72-4.9Z"/>
  <path fill="#fff" d="M41.764 101.203c-2.582 1.819-5.307 3.39-8.32 4.403-1.145.385-2.324-.005-3.49.085-.854.066-.124-1.011-.75-1.347-.377.687-.28 1.388-.288 2.076-.037 2.926 2.13 23.688 1.984 24.91a12.24 12.24 0 0 1-.215 1.56c-.298 1.164-.594 1.967-2.593 1.78-1.313-.123-1.703-.94-1.81-2.05-.197-2.053-.933-10.68-1.456-12.896-.166-.706-.466-1.331-1.162-1.363-.696-.033-1.107.631-1.279 1.253-.29 1.053-.478 9.721-.758 12.952-.132 1.516-1.13 2.604-2.336 2.596-1.533-.011-2.572-.799-2.558-2.415.024-2.72.086-3.42.181-5.561.14-3.129.207-6.224.107-9.341-.127-3.975.093-7.934.406-11.892.02-.253.184-.565-.342-.85-.409 1.258-.439 2.523-.526 3.766-.212 2.993-.225 5.987-.175 8.983-.498.124-1.73-.058-1.948-.724-.658-2.019-.31-4-.008-6.312a58.497 58.497 0 0 1 1.196-6.562c.416-1.674 1.732-4.428 3.887-5.455.256-.195.477-.188.684-.436a.326.326 0 0 1 .062-.056c.572.208 1.18.296 1.788.257a7.969 7.969 0 0 0 2.303-.494c1.615.365 3.436 1.131 4.42 1.492 1.776.651 3.546 1.444 5.48.54 1.457-.682 2.913-1.369 4.375-2.042a9 9 0 0 1 1.237-.487c.897-.263 1.697-.16 2.207.741.556.984.483 2.335-.303 2.889Zm-24.549-8.171c.032-2.51 1.64-5.216 5.566-4.953 2.774.185 4.51 2.49 4.512 5 .178 2.672-2.591 4.779-5.359 4.853-2.512.068-4.753-2.319-4.72-4.9Z"/>
  <path fill="#0D0D0D" d="M13.627 116.528c.135.659.412 1.316.958 1.697.024.049 1.193.417 1.81.276.022 1.118.052 2.237.082 3.355.091 3.41-.346 6.891-.301 10.304.017 1.24-.222 2.155.913 2.873a3.608 3.608 0 0 0 3.327.365c1.17-.446 1.642-1.227 1.75-2.474.312-3.555.622-12.372.784-13.204.065-.336.31-.738.72-.716.372.019.414.431.502.742.341 1.215 1.344 9.499 1.418 12.416.032 1.296.259 1.961 1.158 2.766.71.634 2.91.628 3.772-.323.985-1.09 1.015-2.582.965-3.91-.084-2.266-1.726-17.637-1.954-23.098-.022-.519-.36-1.501.638-1.343.279.044.559.076.84.096 2.04.141 3.445-.396 5.072-1.165 1.86-.878 3.93-2.098 6.22-3.628 1.371-.917.619-3.66-.303-4.335-.918-.672-2.139-.496-3.112-.049a39.815 39.815 0 0 0-2.95 1.532c-2.571 1.522-4.593 1.544-7.36.143-.578-.292-2.353-.875-3.532-1.072l-.026-.004c1.702-.869 2.92-2.43 2.895-4.66a5.697 5.697 0 0 0-1.557-3.839A5.714 5.714 0 0 0 22.61 87.5c-3.94-.306-5.998 2.459-5.997 5.644.001 2.075 1.32 4.045 3.108 4.934-1.907.94-3.578 2.85-4.141 4.365-1.027 2.764-1.314 5.666-1.784 8.536-.302 1.841-.547 3.689-.168 5.55Zm8.307-18.596c-2.511.068-4.753-2.32-4.72-4.9.033-2.509 1.64-5.215 5.567-4.953 2.774.186 4.51 2.491 4.511 5 .18 2.673-2.59 4.78-5.358 4.853Zm-7.507 12.882a58.52 58.52 0 0 1 1.196-6.562c.416-1.673 1.732-4.428 3.888-5.454.255-.196.476-.189.683-.437a.323.323 0 0 1 .062-.056 4.425 4.425 0 0 0 1.788.258 7.965 7.965 0 0 0 2.303-.495c1.615.366 3.436 1.132 4.42 1.492 1.777.651 3.546 1.445 5.48.54 1.457-.682 2.913-1.369 4.375-2.042.4-.192.813-.355 1.237-.487.897-.263 1.697-.16 2.207.742.558.985.485 2.337-.301 2.89-2.582 1.819-5.307 3.39-8.32 4.403-1.145.385-2.324-.004-3.49.085-.853.066-.124-1.011-.75-1.347-.377.687-.28 1.388-.288 2.076-.037 2.926 2.13 23.688 1.984 24.91a12.15 12.15 0 0 1-.215 1.561c-.298 1.164-.594 1.966-2.593 1.779-1.313-.123-1.703-.94-1.81-2.05-.196-2.053-.933-10.68-1.456-12.896-.166-.706-.466-1.33-1.162-1.363-.696-.033-1.107.631-1.278 1.253-.29 1.054-.479 9.721-.759 12.952-.132 1.517-1.13 2.604-2.336 2.596-1.533-.011-2.572-.799-2.558-2.415.024-2.719.086-3.42.181-5.561.14-3.129.207-6.224.107-9.341-.127-3.975.093-7.934.406-11.892.02-.253.184-.564-.342-.85-.409 1.259-.439 2.523-.526 3.766-.211 2.993-.225 5.987-.175 8.984-.498.123-1.73-.059-1.948-.725-.66-2.021-.312-4.002-.01-6.314ZM43.7 99.027c-.106-1.583-.726-1.822-1.272-2.917 1.304.664 1.506 1.683 1.843 2.614a.344.344 0 0 1-.197.493.255.255 0 0 1-.373-.19Zm-9.57 36.135c-1.15.425-2.01.208-2.872.013a4.022 4.022 0 0 1 2.873-.013Zm-17.824 0c-1.15.425-2.012.208-2.872.013a4.022 4.022 0 0 1 2.872-.013Z"/>
  <path fill="#fff" d="M54.18 101.908c-.397-.876-1.014-.892-1.724-.887-.493.004-1.329.243-1.454.832a6.633 6.633 0 0 0 .064 3.083c.212.821 1.114 1.891 2.293 1.613.928-.21 1.076-1.049 1.09-1.882.003-.207 0-.414 0-.622.005-.722.045-1.444-.27-2.137ZM70.108 88.94c.13-2.843-2.275-5.145-4.865-5.205-3.338-.076-5.717 2.42-5.847 5.331-.13 2.877 2.49 5.404 5.24 5.404 3.119 0 5.451-2.284 5.472-5.53Zm5.682 16.989c.689.361 1.913.085 2.338-.601.558-.898 1.12-1.821 1.077-2.952-.013-.207-.01-.416-.041-.62-.162-1.05-.934-1.984-1.698-1.952-1.025.044-1.363.836-1.573 1.668-.22.868-.392 1.747-.56 2.626-.13.673-.362 1.402.456 1.831Z"/>
  <path fill="#fff" d="M72.68 124.476c-.906-7.205-1.396-14.442-1.798-21.687-.047-.852-.36-1.691-.162-2.568.461.043.327.391.365.629.135.846.236 1.695.316 2.545a.246.246 0 0 1 .13.051 8.907 8.907 0 0 0 3.232 1.605 2.945 2.945 0 0 1 .047-.726c.224-1.22.528-2.424.806-3.634l-.011-.001c-.829-.202-1.365-.796-1.89-1.433-.584-.71-1.136-1.45-1.78-2.108-1.562-1.599-3.583-2.225-5.77-2.347a6.502 6.502 0 0 1-1.984.156c-1.254.144-2.575.312-3.762.746-1.035.378-1.82 1.105-2.529 1.925-1.133 1.313-2.101 2.809-3.766 3.487.452.316.615.864.73 1.401.167.787.105 1.581.023 2.372a3.615 3.615 0 0 1-.177.809 27.36 27.36 0 0 0 2.509-.873c.29-.099.572-.221.843-.365.207-.131.319-.343.492-.503a.913.913 0 0 1 .27-.201c-.005-.557-.008-1.115-.005-1.672.002-.322-.085-.683.315-.964.015 1.682.402 3.335.29 5.027-.285 4.345-.449 8.699-.822 13.036-.272 3.16-.253 6.344-.79 9.483-.172 1.012.343 2.4 2.088 2.485 1.196.058 1.87-.308 2.2-1.482.43-1.536 1.019-7.393 1.643-12.25.078-.609.16-1.238.52-1.77.557-.822 1.381-.823 1.872.025.832 1.438 2.016 10.579 2.581 13.527.29 1.516 1.26 2.051 2.764 1.696.886-.21 1.197-.831 1.29-1.657a20.22 20.22 0 0 0-.08-4.764Z"/>
  <path fill="#fff" d="M54.18 101.908c-.397-.876-1.014-.892-1.724-.887-.493.004-1.329.243-1.454.832a6.633 6.633 0 0 0 .064 3.083c.212.821 1.114 1.891 2.293 1.613.928-.21 1.076-1.049 1.09-1.882.003-.207 0-.414 0-.622.005-.722.045-1.444-.27-2.137ZM70.108 88.94c.13-2.843-2.275-5.145-4.865-5.205-3.338-.076-5.717 2.42-5.847 5.331-.13 2.877 2.49 5.404 5.24 5.404 3.119 0 5.451-2.284 5.472-5.53Zm5.682 16.989c.689.361 1.913.085 2.338-.601.558-.898 1.12-1.821 1.077-2.952-.013-.207-.01-.416-.041-.62-.162-1.05-.934-1.984-1.698-1.952-1.025.044-1.363.836-1.573 1.668-.22.868-.392 1.747-.56 2.626-.13.673-.362 1.402.456 1.831Z"/>
  <path fill="#fff" d="M72.68 124.476c-.906-7.205-1.396-14.442-1.798-21.687-.047-.852-.36-1.691-.162-2.568.461.043.327.391.365.629.135.846.236 1.695.316 2.545a.246.246 0 0 1 .13.051 8.907 8.907 0 0 0 3.232 1.605 2.945 2.945 0 0 1 .047-.726c.224-1.22.528-2.424.806-3.634l-.011-.001c-.829-.202-1.365-.796-1.89-1.433-.584-.71-1.136-1.45-1.78-2.108-1.562-1.599-3.583-2.225-5.77-2.347a6.502 6.502 0 0 1-1.984.156c-1.254.144-2.575.312-3.762.746-1.035.378-1.82 1.105-2.529 1.925-1.133 1.313-2.101 2.809-3.766 3.487.452.316.615.864.73 1.401.167.787.105 1.581.023 2.372a3.615 3.615 0 0 1-.177.809 27.36 27.36 0 0 0 2.509-.873c.29-.099.572-.221.843-.365.207-.131.319-.343.492-.503a.913.913 0 0 1 .27-.201c-.005-.557-.008-1.115-.005-1.672.002-.322-.085-.683.315-.964.015 1.682.402 3.335.29 5.027-.285 4.345-.449 8.699-.822 13.036-.272 3.16-.253 6.344-.79 9.483-.172 1.012.343 2.4 2.088 2.485 1.196.058 1.87-.308 2.2-1.482.43-1.536 1.019-7.393 1.643-12.25.078-.609.16-1.238.52-1.77.557-.822 1.381-.823 1.872.025.832 1.438 2.016 10.579 2.581 13.527.29 1.516 1.26 2.051 2.764 1.696.886-.21 1.197-.831 1.29-1.657a20.22 20.22 0 0 0-.08-4.764Z"/>
  <path fill="#0D0D0D" d="M96.513 119.671c-.56-1.206-1.627-2.085-2.306-3.222-.916-1.534-1.437-3.289-1.96-4.984-1-3.235-1.893-6.538-3.268-9.638-1.039-2.342-2.634-4.325-5.136-5.13-2.435-.785-4.72.63-6.23 2.436a.28.28 0 0 0-.066.203 1.652 1.652 0 0 0-.934.19c-.1.047-.911.432-.844.461-.013-.005-.027.268-.042.265-1.044-.254-1.684-1.592-2.32-2.378-.63-.777-1.28-1.543-2.076-2.156-1.195-.92-2.635-1.084-4.109-1.274 2.09-.939 3.45-3.034 3.405-5.632.19-3.205-3.258-5.995-5.81-5.887-3.088.131-6.217 3.141-6.23 6.005-.012 3.05 1.754 5.036 3.927 5.75-1.667.25-3.017.69-4.265 1.896-.292.283-.577.593-.86.912a4.97 4.97 0 0 0-2.402-.135c-1.754.336-3.366 1.374-3.35 3.309-.073.019-.145.037-.213.056-.59.163-.91.671-1.057 1.261-.246.989.06 1.988.256 2.984a2.554 2.554 0 0 0 1.079 1.595 2.65 2.65 0 0 0 .75.351.28.28 0 0 0-.038.074c-.53 1.941-1.022 3.734-1.988 5.524-.942 1.746-2.144 3.347-3.32 4.939-2.287 3.101-4.295 6.289-5.107 10.105-.643 3.017-.122 5.902 1.548 8.38-.26.064-.518.131-.776.2-4.084 1.094-8.164 2.715-12.38 3.214-2.4.284-5.197-.14-6.96-1.925-1.196-1.21-.45-3.036.446-4.174.59-.751 1.486-1.173 2.058-1.959.212-.292-.274-.57-.484-.282-.902 1.241-2.283 1.788-2.849 3.313-.408 1.1-.579 2.27.226 3.245 1.885 2.286 6.215 2.682 8.963 2.273 4.059-.606 7.191-2.045 11.128-3.167.319-.09.643-.177.97-.261.144.193.295.384.455.572 2.242 2.633 5.95 2.946 9.178 3.022 1.74.041 4.645.135 5.757-1.545 1.299-1.961-3.707-3.336-4.74-3.443-3.537-.363-7.01-.019-10.44.784a11.689 11.689 0 0 1-1.353-2.621c-1.525-4.114.537-8.911 2.694-12.394 2.03-3.279 4.675-6.089 6.285-9.634.59-1.299.857-2.653 1.23-4.017a.291.291 0 0 0 .008-.12c.112.013.225.02.338.02a1.03 1.03 0 0 0 .387-.081c.17-.073.324-.179.453-.312a2.13 2.13 0 0 0 .329-.431.22.22 0 0 0 .122-.001c.975-.283 1.934-.332 2.873-.719a4.624 4.624 0 0 0 1.002-.467c.13-.124.248-.259.352-.405.012 1.359-.256 2.44-.298 3.796-.147 4.631-.7 9.237-.909 13.868-.087 1.952-.143 3.929-.53 5.87-.3 1.496.558 2.741 1.809 3.299a3.14 3.14 0 0 0 2.555-.057 2.69 2.69 0 0 0 1.552-2.158c.328-3.468 1.584-12.04 1.7-12.86.059-.411.056-.414.473-.482.45-.074.588.039.724.333.204.436 1.096 6.526 1.635 9.092.326 1.552.173 3.15.708 4.654.383 1.08 1.539 1.614 2.605 1.524.788-.066 1.372-.294 1.775-.697.128-.129.239-.276.328-.436.133-.236.785-1.219.525-4.267-.313-3.669-1.272-11.489-1.624-18.572.285.075.571.137.859.186 1.363.234 3.254.152 4.01-1.186.207-.01.411-.043.61-.099.178-.052.35-.125.511-.218.29-.17.544-.395.749-.662.95-1.209 1.092-2.603.994-4.022-.062-.895-.712-1.7-1.526-2.044 2.008-2.368 4.747-3.165 7.474-1.363 2.288 1.512 3.293 4.587 4.145 7.034.96 2.758 1.708 5.586 2.64 8.353.424 1.274.982 2.5 1.667 3.655.598 1 1.553 1.725 2.05 2.795.152.327.633.043.483-.281Zm-40.746 16.136c1.071.252 2.255.841 2.937 1.727.622.807-.759 1.316-1.275 1.501-1.432.513-2.941.431-4.436.396-2.13-.05-4.327-.29-6.256-1.252a6.912 6.912 0 0 1-2.289-1.914c3.65-.885 7.709-1.308 11.319-.458Zm3.629-46.741c.13-2.912 2.51-5.408 5.847-5.33 2.59.059 4.995 2.361 4.866 5.203-.022 3.246-2.354 5.53-5.473 5.53-2.75 0-5.37-2.526-5.24-5.403Zm-1.505 8.563c.707-.82 1.493-1.547 2.528-1.925 1.188-.434 2.509-.602 3.762-.746a6.503 6.503 0 0 0 1.984-.155c2.187.121 4.209.748 5.77 2.346.644.659 1.196 1.399 1.781 2.108.525.638 1.06 1.231 1.89 1.433l.011.002c-.278 1.209-.582 2.414-.806 3.633a2.93 2.93 0 0 0-.047.726 8.907 8.907 0 0 1-3.232-1.605.247.247 0 0 0-.13-.051c-.08-.85-.182-1.698-.316-2.544-.038-.239.095-.587-.365-.63-.2.877.115 1.716.162 2.568.072 1.3.148 2.599.228 3.898a17.674 17.674 0 0 1-2.415-1.148c-1.534-.883-2.815-2.197-4.172-3.321a63.26 63.26 0 0 0-3.66-2.788c-.955-.68-1.934-1.362-2.995-1.775l.022-.026Zm-1 .422c-.938 1.066-1.921 2.139-3.22 2.649-.194.076-.126.093-.367.015a3.656 3.656 0 0 0-.59-.158 1.94 1.94 0 0 0-.516-.002c.05-2.44 2.567-2.895 4.694-2.504Zm-2.442 5.994c0 .207.003.415 0 .622-.014.833-.162 1.672-1.09 1.882-1.179.278-2.08-.792-2.294-1.614a6.633 6.633 0 0 1-.063-3.082c.126-.589.961-.828 1.454-.832.71-.005 1.327.011 1.724.887.314.693.274 1.415.269 2.137Zm18.23 20.431c.216 1.579.243 3.178.082 4.763-.093.826-.404 1.448-1.29 1.657-1.503.356-2.473-.179-2.764-1.695-.565-2.948-1.75-12.09-2.581-13.528-.49-.847-1.316-.847-1.872-.025-.36.533-.442 1.161-.52 1.77-.624 4.857-1.213 10.714-1.644 12.25-.329 1.174-1.003 1.541-2.199 1.483-1.745-.086-2.26-1.474-2.087-2.486.535-3.138.517-6.323.79-9.483.373-4.336.536-8.69.821-13.035.111-1.692-.275-3.346-.29-5.028-.401.281-.313.643-.315.965-.003.557 0 1.115.005 1.672a.879.879 0 0 0-.27.201c-.173.159-.285.371-.492.502-.27.144-.553.266-.843.365-.821.334-1.66.62-2.509.873.09-.262.15-.533.177-.808.082-.791.144-1.585-.023-2.373-.114-.536-.278-1.085-.73-1.401 1.438-.586 2.358-1.782 3.311-2.943a5.95 5.95 0 0 1 1.49.59c2.718 1.601 5.172 3.779 7.54 5.841a14.004 14.004 0 0 0 4.684 2.712c.358 5.733.814 11.458 1.53 17.161Zm-.86-17.542a104.76 104.76 0 0 1-.089-2.707c1.008.743 1.84.998 3.063 1.304a.21.21 0 0 0 .062.007 1.356 1.356 0 0 0 .94.9 1.8 1.8 0 0 0 .27.058c-.866 1.129-2.614.959-4.246.438Zm7.346-5.179c.032.205.028.413.041.62.044 1.131-.519 2.054-1.076 2.952-.271.437-.866.706-1.44.752a.253.253 0 0 0-.347-.001 1.46 1.46 0 0 1-.553-.15c-.818-.429-.586-1.158-.456-1.831.169-.879.341-1.758.56-2.625.21-.833.548-1.624 1.574-1.668.763-.032 1.535.902 1.697 1.952v-.001Z"/>
  <path fill="#0D0D0D" d="M49.583 105.532a9.492 9.492 0 0 1-.135-2.477c.036-.618.108-1.234.158-1.852.021-.258-.032-.537-.33-.542-.286-.004-.223.285-.232.481-.023.517-.081 1.036-.057 1.551.046.974-.187 2.007.596 2.839Zm31.63-1.721c.378-1.537.33-3.012-.653-4.332.473 1.416.546 2.876.653 4.332Zm-31.849 26.803c1.455.257 2.912.42 4.38.102-1.458-.309-2.919-.281-4.38-.102Zm27.115-.038a11.078 11.078 0 0 0-2.813.004c.92.53 1.9.166 2.76.496.182.07.447.133.48-.161.03-.256-.238-.312-.427-.339Z"/>
  <path fill="#fff" d="M130.424 96.61c.063-2.47-2.603-4.957-5.16-5-2.912-.05-5.136 1.81-5.407 4.64-.342 3.552 2.541 5.633 5.217 5.699 2.701.066 5.274-2.395 5.35-5.34Z"/>
  <path fill="#fff" d="M130.424 96.61c.063-2.47-2.603-4.957-5.16-5-2.912-.05-5.136 1.81-5.407 4.64-.342 3.552 2.541 5.633 5.217 5.699 2.701.066 5.274-2.395 5.35-5.34Z"/>
  <path fill="#fff" d="M145.668 122.679c-.278-1.386-.757-2.362-1.257-3.72-1.505-4.095-3.286-9.443-4.957-13.471-.047.126-.094.242-.141.362-.401-.945-1.319-2.932-1.659-4.241l-.004-.019c-.205.307-.427.611-.669.911-.102.128-.163.292-.271.414-.28.317-.339 1.206-.729.937-.555-.383.12-.921.422-1.28 3.009-3.574 3.183-7.99 2.769-12.3a1.896 1.896 0 0 0-2.143-1.761c-1.202.136-1.915.98-1.662 2.41.464 2.63-.449 4.975-1.939 6.98-.716.963-1.16 1.802-1.933 2.727.051-.318-.364-.383-.16-.614.892-1.004 1.78-2.563 2.485-3.714.918-1.499 1.32-2.991 1.128-4.696-.042-.369-.048-.742-.063-1.114-.055-1.448.551-2.24 1.859-2.44-.145-.446-.324-1.285-.703-1.695-.578-.624-.93-.836-1.936-.554-1.003.28-1.128 1.163-1.243 1.96-.329 2.287-.014 4.617-.444 6.9-.037.193-.241 2.027-1.536 3.106a.2.2 0 0 1-.176.044 6.445 6.445 0 0 1-3.362 4.189c.015.052.033.103.054.153 1.247 3.069 2.745 7.818 3.24 11.093.111.733.258 1.458.413 2.182a7.97 7.97 0 0 0-.377.362c.078.378.966 2.42 1.032 2.802.639 3.48.03 7.073-1.722 10.149-.32.625-.606 1.267-.856 1.922-.313.743-.141 1.391.483 1.882.642.505 1.338.788 2.179.415.844-.374 1.349-1.038 1.812-1.798 2.423-3.981 2.988-8.236 3.341-12.746.022-.272.09-1.126.911-.84.31.108.52.645.658.929 1.586 3.263 2.769 4.121 3.463 10.213.103.913.233 2.062 1.029 2.641.706.514 1.555.423 2.329.08.729-.323.839-1.174.841-1.794.008-2.227-.076-4.812-.506-6.966Z"/>
  <path fill="#0D0D0D" d="M118.807 91.908c-1.795 1.421-1.601 3.37-1.394 5.313-.016-1.892.282-3.701 1.394-5.313Z"/>
  <path fill="#0D0D0D" d="M147.926 127.816c.908-.917 1.623-2.119 1.057-3.429-.44-1.019-1.753-1.984-2.879-2.055a16.894 16.894 0 0 0-.492-1.74 142.42 142.42 0 0 0-1.031-2.897 251.14 251.14 0 0 0-2.458-6.379 582.769 582.769 0 0 0-1.273-3.173c-.147-.364-.294-.727-.438-1.092a15.07 15.07 0 0 0 2.492-1.638c2.447-2.015 3.263-4.369 2.265-7.417a9.096 9.096 0 0 0-2.324-3.64c-.862-.85-1.721-2.017-2.911-2.403a15.782 15.782 0 0 0-.082-1.366c-.1-.925-.996-2.16-1.805-2.436a7.152 7.152 0 0 0-1.017-.134c-.068-2-1.307-2.707-2.318-2.795-1.037-.09-2.012.284-2.34 1.34-.126.403-.163 1.747-.186 3.212-.119.035-.234.07-.346.106-1.333.426-2.184 1.432-3.07 2.444-1.06-.903-2.394-1.496-3.707-1.507-2.841-.025-6.023 2.591-6.023 5.445 0 4.165 3.137 6.354 6.058 6.492.609.029.933-.074 1.508-.283.516 1.194 1.223 2.741 1.585 3.831a48.643 48.643 0 0 1 1.381 5.202 11.228 11.228 0 0 0-1.892 1.805c-1.619 1.956 1.287 3.005 2.834 3.034a.269.269 0 0 0 .136-.036c.283 1.241.524 2.298.551 2.449.498 2.741.384 5.152-.757 7.734-.534 1.21-1.134 2.39-1.698 3.587-.612 1.299-.183 2.774 1.137 3.338 1.157.493 2.899.231 3.6-.788 1.877-2.727 2.935-5.771 3.379-9.246.203-1.578.369-6.299 1.097-4.947 1.232 2.592 2.411 5.143 2.912 8.013.22 1.261.321 2.99.773 4.249-1.702.84-3.269 1.851-4.948 2.734-1.38.725-2.755 1.202-3.488 2.688-.431.873-.216 1.559.362 2.098-2.534.647-5.041 1.416-7.565 2.076-8.862 2.319-25.071 4.794-40.489 1.326-1.68-.378-3.41-.83-4.95-1.623a4.362 4.362 0 0 1-2.081-2.292 5.21 5.21 0 0 1-.284-1.405c-.022-.322 0-.647.066-.964.452-1.071.949-1.316 1.492-.733-.235.271.16.668.395.395 1.118-1.293-1.797-1.697-2.32-.133-.847 2.542.87 5.045 3.203 5.973 1.556.62 3.214 1.02 4.827 1.467 5.887 1.63 15.328 1.737 19.728 1.622 4.341-.113 8.395-.966 12.699-1.552 4.416-.602 8.669-1.749 12.953-2.942.97-.271 1.943-.532 2.921-.775 1.885 1.116 5.478 1.408 6.689 1.439 1.665.043 4.146.231 5.568-.828 1.329-.99-.442-2.05-1.345-2.249-2.004-.444-4.263-.17-6.275.119a46.948 46.948 0 0 0-4.442.883c-2.299-1.543 1.25-3.45 2.618-4.107 1.036-.498 1.976-1.189 2.963-1.772a19.818 19.818 0 0 1 1.917-.96c.563.93 1.89 1.38 2.803 1.198a2.362 2.362 0 0 0 1.954-2.216c.015-.437.026-.875.033-1.313.002-.089.786-.577.892-.67.13-.115.26-.237.386-.364Zm-6.516 9.621c1.249-.078 2.539-.096 3.766.175.438.097 1.377.429 1.051 1.063-.227.441-1.066.554-1.493.643-2.043.427-4.408.346-6.47.02a11.592 11.592 0 0 1-3.163-.909 38.018 38.018 0 0 1 6.309-.992Zm-1.791-40.492c.123-1.55.299-2.942.317-4.396.692.289 1.195.887 1.704 1.425.629.664 1.308 1.232 1.865 1.967 1.23 1.623 1.883 3.953 1.421 5.943-.444 1.916-2.509 3.32-4.083 4.259-.212.126-.427.246-.644.363-.21-.523-1.076-2.525-1.36-3.156-.315-.701-.356-1.4-.697-2.089-.046-.102.266-.697.337-.845.18-.376.341-.76.482-1.153.275-.825.476-1.673.601-2.533.005-.033.027.203.057.215Zm-6.757-9.182c.115-.798.24-1.68 1.243-1.96 1.006-.282 1.358-.071 1.935.553.379.41.559 1.25.704 1.696-1.071.163-1.67.724-1.823 1.716-.657-.364-1.462-.305-2.212-.132.017-.626.068-1.252.153-1.873Zm-1.111 2.742c.133-.053.276-.107.426-.159-.019 1.417-.034 2.85-.11 3.584-.022.204-.108 1.805-1.184 2.721.046-.285.004.059.007-.235.014-1.333-.673-2.676-1.711-3.713.751-.866 1.472-1.755 2.572-2.198Zm-6.677 11.443c-2.676-.066-5.558-2.146-5.217-5.699.272-2.829 2.495-4.688 5.408-4.64 2.555.043 5.222 2.531 5.159 5-.076 2.945-2.649 5.406-5.35 5.339Zm2.324.206a1.389 1.389 0 0 1-.054-.153 6.45 6.45 0 0 0 3.362-4.188.196.196 0 0 0 .176-.045c1.295-1.078 1.499-2.913 1.536-3.106.278-1.479.245-2.978.276-4.471.721-.185 1.512-.24 2.083.141a.27.27 0 0 0 .107.044l.001.115c.014.372.02.745.062 1.114.193 1.705-.21 3.197-1.127 4.696-.706 1.151-1.594 2.71-2.485 3.714-.205.23.211.295.16.614.773-.925 1.217-1.764 1.932-2.727 1.491-2.005 2.404-4.35 1.94-6.98-.253-1.43.46-2.273 1.662-2.41a1.904 1.904 0 0 1 1.939 1.017c.118.231.187.484.204.744.414 4.31.239 8.726-2.769 12.3-.302.358-.978.897-.422 1.28.39.269.448-.62.728-.937.108-.122.169-.286.272-.414.242-.3.463-.604.668-.911l.005.019c.348 1.338 1.302 3.389 1.686 4.306.039.091.317.933.35.843l.003.006c-1.461.731-3.015 1.296-4.523 1.903-1.792.722-3.464 1.392-4.959 2.383a63.46 63.46 0 0 0-2.813-8.897Zm3.114 13.631a5.07 5.07 0 0 1-2.033-.47c-1.421-.647-.151-1.922.483-2.559a10.5 10.5 0 0 1 .734-.669c.118.56.49 2.19.835 3.703-.007-.001-.011-.005-.018-.005h-.001Zm8 2.72c-.138-.283-.348-.82-.658-.928-.821-.286-.889.568-.911.84-.353 4.509-.918 8.764-3.341 12.746-.463.76-.968 1.424-1.812 1.798-.841.373-1.537.09-2.179-.415-.624-.491-.796-1.14-.483-1.882.25-.656.536-1.297.856-1.922a15.03 15.03 0 0 0 1.722-10.15c-.044-.254-.385-1.433-.356-1.789-.257-1.182-.531-2.359-.712-3.557a28.213 28.213 0 0 0-.306-1.646c1.097-.771 2.285-1.293 3.634-1.835 1.936-.779 4.027-1.492 5.948-2.457 1.585 3.85 3.06 7.741 4.497 11.65.5 1.358.979 2.335 1.256 3.721.363 1.814.479 3.931.501 5.885-1.183.755-2.608 1.252-3.86 1.815a7.034 7.034 0 0 1-.334-1.662c-.693-6.09-1.876-6.949-3.462-10.212Zm7.662 11.14c-.002.62-.112 1.471-.841 1.794-.774.343-1.623.434-2.329-.08a1.809 1.809 0 0 1-.455-.492c.222-.1.445-.201.665-.304 1.017-.48 2.023-.888 2.959-1.425 0 .17.002.341.001.507Zm1.081-1.931c-.189.185-.39.357-.602.515a27.498 27.498 0 0 0-.43-5.327c.876.12 1.626.843 2.129 1.52.903 1.215-.284 2.49-1.097 3.293v-.001ZM83.502 54.133c-.228 10.166-7.614 17.385-20.309 15.341-3.284-.529-6.544-1.177-9.857-1.51-3.323-.333-6.666-.665-10.002-.554-19.252.641-27.933 12.532-30.54 16.178-2.935 4.104-5.383 8.329-5.673 13.49-.157 2.812-.402 9.516 3.99 13.786 1.32 1.285 2.543 2.464 4.232 3.098 3.837 1.442 7.65 1.852 11.737.65 3.756-1.106 7.122-2.689 9.897-5.159.05.188.098.377.142.563.523 2.199.562 4.44.598 6.69.073 4.486-2.828 8.543-6.571 10.824-.308.188-.027.67.282.482 3.488-2.125 6.206-5.69 6.785-9.771.288-2.03.078-4.388-.166-6.418a18.85 18.85 0 0 0-.61-2.787 19.515 19.515 0 0 0 2.53-2.931 7.631 7.631 0 0 0 1.103-6.522c-1.042-3.523-2.853-3.495-4.46-3.176-.944.187-2.091 1.019-2.126 2.28-.013.48.025.91.523.923.68.017-.019-.416.014-.767.124-1.352 1.64-2.344 2.932-1.964 2.704.796 2.628 2.575 2.83 3.555.433 2.12-.278 3.541-.962 4.789a13.382 13.382 0 0 1-2.536 3.27c-.345-1.231-.678-2.463-.73-3.717-.015-.358-.575-.36-.56 0 .057 1.375.467 2.771.837 4.132a20.111 20.111 0 0 1-3.378 2.363c-4.262 2.42-8.798 3.843-13.732 3.147-2.99-.423-5.923-1.253-7.904-3.851-.538-.705-3.397-2.882-3.839-8.468-.102-1.292-.05-2.594-.058-3.892-.02-2.896.53-5.643 1.849-8.265a38.797 38.797 0 0 1 2.739-4.697c1.96-2.827 9.748-13.98 24.221-16.306 3.405-.56 6.86-.755 10.306-.582 3.53.134 7.05.471 10.543 1.009 3.036.483 5.507.834 8.572 1.127 11.289 1.08 17.71-7.133 17.91-16.081.013-.54-.547-.82-.559-.28Zm-6.426 84.054c-1.11-1.075-1.059-2.815-.142-4.084.21-.293-.274-.571-.483-.282-1.058 1.465-.765 3.525.51 4.761.258.251.374-.144.115-.395Zm-31.163-21.878c-.93.934-3.555 5.357-4.081 6.64-.137.334.405.198.54-.131.496-1.215 3.04-5.215 3.937-6.114a.279.279 0 0 0-.2-.47.283.283 0 0 0-.196.075Z"/>
  <path fill="#0D0D0D" d="M121.613 128.187c-.116-.338-.604-.773-.486-.431.534 1.549.491 3.945-.217 5.376-.16.322-.009.686.151.363.781-1.577 1.141-3.603.552-5.308Zm-10.4 7.358h-2.098a.28.28 0 0 0 0 .558h2.098a.277.277 0 0 0 .191-.085.277.277 0 0 0 0-.388.277.277 0 0 0-.191-.085Zm16.783-2.095h-1.609a.281.281 0 0 0-.27.279c0 .073.028.142.079.194.05.053.119.083.191.086h1.609a.28.28 0 0 0 .191-.474.281.281 0 0 0-.191-.085Zm21.327 5.516h-1.888a.278.278 0 0 0-.194.474.28.28 0 0 0 .194.085h1.888a.278.278 0 0 0 .193-.475.28.28 0 0 0-.193-.084ZM136.778 83.51c-.719-.66-1.65-1.005-2.633-.804a2.79 2.79 0 0 0-2.197 2.27c-.063.352.383.29.383-.07 0-.828.663-1.221 1.383-1.516a2.519 2.519 0 0 1 2.668.514c.265.243.662-.15.396-.395Z"/>
</svg>
