<svg xmlns="http://www.w3.org/2000/svg" width="110" height="159" fill="none" viewBox="0 0 110 159">
  <g clip-path="url(#a)">
    <path fill="#fff" d="M16.221 96.31Zm.019.092Zm.07.177Zm.049.077Zm1.263.524Zm-.742-.17Zm-.459-.277Zm1.006.415Zm3.187-1.778Z"/>
    <path fill="#FAFAFA" d="M17.765 96.659c1.098 0 2.163-.684 2.653-1.648l.176.322c-.201-.369-.409-.734-.586-1.114-.241-.518-.366-.738-.366-.738-.297.206-1.56.823-2.657.1 0 0-.23.36-.395 1.022-.054.215-.132.424-.201.636-.13.395-.193.712-.178.967a2.849 2.849 0 0 0 1.554.453Z"/>
    <path fill="#fff" d="M16.486 96.793Zm.508.255Zm.286.072Zm-.152-.035Zm-.372-.125Zm-.097-.05ZM51.2 123.535a3.483 3.483 0 0 1-.364.554 3.67 3.67 0 0 0-.314.455c1.887.218 2.857.152 2.955-.276l.21-.522c-.531-.042-1.423-.152-1.735-.161a6.091 6.091 0 0 1-.751-.05Z"/>
    <path fill="#3976EE" d="M37.743 126.446a33.347 33.347 0 0 0 5.227 1.885c.25-.505.45-1.016.65-1.462.5-1.119 1.663-1.726 2.715-2.214-.427-.464-.883-.814-1.064-1.361-.106-.32-.374-.272-.619-.315-2.985-.524-5.573-.014-7.557 2.521-.12.157-.26.298-.414.421.348.185.702.36 1.063.525Z"/>
    <path fill="#fff" d="m36.344 126.133.005-.002-.005.002Zm-.095.04.021-.008a.175.175 0 0 1-.021.008Zm6.435 2.686Zm.196-.352a8.68 8.68 0 0 1-.075.14l.075-.14Zm-6.284-2.521.006-.005-.006.005Zm5.736 3.399c-.016.021-.03.042-.047.062l.047-.062Zm.453-.702Zm.185-.352Zm-.51.877Zm.116-.174Zm-6.411-2.83.026-.009a1.559 1.559 0 0 0-.026.009Zm-.081.023.024-.007-.024.007Zm16.396 4.548Zm9.73.427Z"/>
    <path fill="#3976EE" d="M64.228 125.63c.157-.262.904-.707.904-.707-.396-.112-1.084-.651-1.084-.651-1.926.129-4.06-.084-5.772-.185a87.598 87.598 0 0 1-1.26-.144 37.485 37.485 0 0 1-1.257 2.792c-.495.987-1.898 1.258-3.184 1.635-.774.075-.52.236-.329 1.032.04.163.07.329.098.497.74.074 1.48.144 2.218.207 2.584.227 5.178.482 7.774.561.332-1.432.662-2.863 1.363-4.184.157-.294.357-.566.529-.853Z"/>
    <path fill="#fff" d="m62.335 130.674-.095.407.095-.407Zm-9.696.841Zm-.061-.242Zm-.05-.233Zm.192.739ZM18.042 93.487h-.01.01Zm-.565-.073a3.1 3.1 0 0 0 1.763-.933c-.18-.37-.511-.753-.922-.876-.38-.114-1.137.94-1.097 1.428.018.22.118.327.256.381Zm.657.086-.01-.003.01.002Zm-.188-.02c-.164-.01-.334-.013-.469-.066.135.053.305.056.47.066Zm1.294-1Zm.053.118Zm.041.112Zm.029.103Zm58.832 34.837-.043-.12.043.12Z"/>
    <path fill="#3976EE" d="M82.216 122.59a1.446 1.446 0 0 1-.368-.554c-1.255.213-4.44.703-5.516.711l-.044-.001c.578 1.486 1.36 3.414 1.832 4.694l-.013-.034a29.725 29.725 0 0 0 2.031-.976c.78-1.05 1.499-2.249 1.847-3.172.034-.092.122-.457.231-.668Z"/>
    <path fill="#fff" d="m78.455 128.328-.039.033.039-.033Zm1.437-1.575-.101.129.1-.129Zm.246-.323-.11.145.11-.145Zm-1.562 1.789Zm1.439-1.626Zm-.366.466-.103.125.103-.125Zm-.112.136Zm.233-.286Zm-.953 1.08Zm.371-.391-.075.082a6.83 6.83 0 0 0 .075-.082Zm-.248.267-.062.063.061-.063Zm-.243.242-.054.051.054-.051Zm.366-.373-.066.071.066-.071Zm-58.768-12.622Zm.215-.024Z"/>
    <path fill="#FAFAFA" d="M20.639 114.426c.317-.203.577-.482.754-.813.081-.124.15-.257.203-.395-1.679.891-3.607.642-4.116-.065.104.649-.049 1.375.793 1.677a5.2 5.2 0 0 0 .813.222c.186-.034.372-.071.556-.107a2.22 2.22 0 0 0 .997-.519Z"/>
    <path fill="#fff" d="M19.422 115.102Zm.169.015-.13-.011.13.011Zm-.333-.036c-.057-.009-.115-.018-.172-.029.057.011.115.02.172.029Zm.703.048Zm.164-.005-.124.004.124-.004Zm-.333.004Zm-.852-1.767Zm-.155-.009Zm.535-.001Zm.235-.026Zm-.411.037Z"/>
    <path fill="#FAFAFA" d="M17.56 112.574a3.59 3.59 0 0 0 1.255-.419 3.47 3.47 0 0 0 1.243-1.218c.279-.466.465-.979.55-1.513a15.07 15.07 0 0 0 .136-3.184c-.14-2.617.088-5.241.107-7.86a38.33 38.33 0 0 0-.01-1.175c.078-.032.154-.066.23-.102-1.45.677-2.898.798-4.372.27-.446-.159-.513-.176-.549.124-.092.76.248 1.784.224 2.533-.015.466.167.722.607.863.631.203.916.889 1.02 1.525.116.697.088.886.056 1.58-.02.453-.255 1.099-.79 1.089-.554-.011-.554.318-.513.721.169 1.661.36 4.501.66 6.137a1.58 1.58 0 0 0 .146.629Z"/>
    <path fill="#fff" d="M18.096 113.152Zm-.285-.215Zm.801.391Zm-.621-.241Zm.484.212Zm-.143-.043Zm-.12-.046Zm25.484 23.995a.636.636 0 0 0-.036-.019l.036.019Zm-.174-.087-.178-.088.178.088Zm-.337-1.184a.076.076 0 0 1-.042.02 6.808 6.808 0 0 1-.936.367c.319.294.727.506 1.132.706.434-.34.762-.794.948-1.309a2.523 2.523 0 0 0-.03-.339s-.5.287-1.072.555Zm.667 1.351-.043-.023.043.023Z"/>
    <path fill="#fff" d="M44.286 135.718c.011.493-.133.855-.227 1.264.094-.409.238-.771.227-1.264Zm-.233 1.291Zm-.025.117Zm-.02.116Zm-1.302 7.326-.1-.13.1.13Zm34.304-14.592.028-.012-.028.012Zm-.11.044.01-.003-.01.003Zm-.568.221.03-.011-.03.011Zm.901-.36.018-.008-.018.008Zm-.476.197.027-.011-.027.011Zm-.129.05.03-.011-.03.011Zm.492-.198.02-.009-.02.009Zm.424-.199.017-.009-.017.009Z"/>
    <path fill="#3976EE" d="M50.322 144.824c1.745.132 3.486.319 5.232.442 1.853.13 3.716.187 5.572.078 1.997-.118 4.064-.366 5.955-1.043 1.828-.654 3.58-1.593 4.805-3.123.6-.75 1.136-1.505 1.555-2.367.447-.915.824-1.861 1.13-2.831.559-1.786.9-3.64 1.128-5.508l.001-.001c-1.768.633-4.198 1.402-5.07 1.616.008.099.012.206.013.323.004 1.045-.631 1.508-1.669 1.642-2.088.268-4.096-.008-6.048-.771-.328-.128-.56-.283-.707-.482-.51.042-1.356-.041-1.705-.054a155.173 155.173 0 0 1-6.747-.407c-2.501-.198-5.875-.453-8.352-.891a1.168 1.168 0 0 1-.184-.045c-.725.914-1.68 1.497-2.698 1.982.517.695.755 1.406.79 1.949l.358-.172c.357-.174.76-.497 1.046-.28-.085.741-.085.814-.128 1.085-.082.519-.147 1.04-.235 1.558-.048.282-.182.492-.514.297-.835-.488-1.664-.987-2.565-1.523.594-.281 1.13-.532 1.645-.778-.088-.475-.118-1.207-.651-1.866a4.322 4.322 0 0 0-.092-.109c-.389.176-.784.342-1.177.511-.66.284-1.52.068-1.882-.682-.259-.535-.134-1.142.23-1.586a9.708 9.708 0 0 0-2.055-.408 525.557 525.557 0 0 0 2.995 8.628 18.57 18.57 0 0 0 1.148 2.628c.672.373 1.37.696 2.09.969 2.141.833 4.51 1.046 6.785 1.219Zm-4.41-8.294c-.01-.163-.118-.45.191-.44.222.007.297.262.272.451-.115.911-.421 1.736-1.185 2.318.418-.734.78-1.459.723-2.329Z"/>
    <path fill="#fff" d="m77.484 129.763.017-.009-.017.009Zm-.166.079.025-.011-.025.011Zm.088-.041.013-.006-.013.006ZM42.12 143.758Zm-.35-.553Zm-.165-.282Zm.701 1.107Zm33.882-13.735.02-.008-.02.008ZM41.94 143.483Zm34.09-13.13.007-.003-.007.003ZM42.501 144.3l-.13-.178.13.178Zm33.353-13.884.029-.01-.029.01Zm-48.381 16.041Zm.465-.357.01.022-.01-.022Zm.165.371c-.094.001-.186 0-.278-.001.092.001.184.002.278.001Zm-.353-.003Zm-3.01-1.042c-.092.19-.35.502.073.601a21.407 21.407 0 0 0 .933.203c.665-.173 1.31-.622 1.75-1.168-.4-.985-.71-2.004-.927-3.043-.538 1.062-1.304 2.338-1.828 3.407Zm2.413 1.008Zm-.283-.028Zm.766-1.003.004.008-.004-.008Zm.147.342.008.018a.235.235 0 0 1-.008-.018Zm50.149-17.691Zm.046.2.006.043-.006-.043Zm.008.06Zm-.233.668-.028.029.028-.029Zm.238-.611Zm-.193.561-.026.029.026-.029Zm.168-.741Zm-.056-.21.015.049-.015-.049Zm.04.143Zm-.047.659-.018.031.018-.031Zm.064-.153a.472.472 0 0 1-.012.037l.012-.037Zm-.017.052-.014.033.014-.033Zm-.021.051Zm-.091.149Zm.155-.463Zm-.12.414-.02.03.02-.03Zm-5.867 1.922Zm5.697-1.722-.03.028.03-.028Zm-.055.051-.033.029.033-.029Zm-5.618 2.013Zm5.245-1.731-.031.021.03-.021Zm-5.232 1.906Zm5.322-1.968Zm.222-.168-.035.029.034-.029Zm-.141.11-.036.027.036-.027Zm.44-1.341Zm-.058-.166Zm-.034-.088c.01.023.017.045.026.068l-.026-.068Zm-5.777 3.272Zm5.841-3.099.019.055c-.006-.018-.012-.036-.02-.055Zm-5.884 2.35-.009-.189.01.189Zm5.546-.984-.037.028.036-.028Zm-5.525 1.368Z"/>
    <path fill="#3976EE" d="M72.28 129.687c1.707-.492 3.364-1.24 5-1.926.16-.067.32-.135.479-.204l.03.078c-.03-.08-.064-.164-.1-.255-.543-1.37-1.344-3.647-1.972-4.987a1.031 1.031 0 0 1-.034-.082 8.675 8.675 0 0 0-.065.265c-.428 1.889-1.848 2.933-3.289 3.964-.37.265-.525.522-.49.961.053.655.086 1.605.126 2.474l-.009-.198.324-.09Z"/>
    <path fill="#fff" d="m49.881 155.926.044-.084c-.015.028-.03.055-.044.084Zm-.055.113c.01-.023.022-.044.032-.066a1.453 1.453 0 0 0-.032.066Zm2.328.431Zm0-.001Zm-2.169-.738a2.84 2.84 0 0 0 2.142-.005 2.864 2.864 0 0 0-.255-.901c-.1-.212-.102-.258-.319-.339-.237-.068-.986.152-1.619 1.338l.051-.093Zm-5.071-50.696a11.639 11.639 0 0 1-1.299-.593c.47 1.24.956 2.473 1.444 3.705.437.282.894.533 1.368.752a51.626 51.626 0 0 1-1.513-3.864Zm26.522-.571.14-.062-.14.062Z"/>
    <path fill="#F5F5F5" d="M49.324 109.949c1.14.287 2.338.392 3.51.471 2.558.171 5.18.202 7.7-.317 2.2-.453 4.33-1.382 6.255-2.515 1.476-.867 2.867-1.876 4.208-2.943l.003-.001c-3.117 1.224-8.754 2.205-13.624 2.229-3.479.018-7.354-.368-10.423-1.183.322 1.347.639 2.676.888 3.793.486.182.98.338 1.483.466Z"/>
    <path fill="#fff" d="m71.294 104.525.034-.014-.034.014Zm-.147.06.007-.003-.007.003Zm1.126-3.536-.01.052.01-.052Zm.204-1.015a6.528 6.528 0 0 0-.008.042l.008-.042Zm-.047.232-.012.06.012-.06Zm-.03.149-.006.033a.766.766 0 0 1 .007-.033Zm.053-.262-.01.046.01-.046Zm.053-.263-.02.097a8 8 0 0 1 .02-.098Zm.063-.318-.001.004v-.004Zm.013-.066-.002.012.002-.012Zm-.042.214-.005.022.004-.023Zm-.02.097-.003.014.003-.014Zm-.214 1.068-.013.061.013-.061Zm-.536 2.603-.018.081.017-.081Zm.132-.634-.013.064.013-.064Zm.335-1.628-.008.04.008-.04Zm-.423 2.051Zm-.094.442-.013.066.014-.066Z"/>
    <path fill="#F5F5F5" d="M72.747 98.674c-2.423 1.634-5.991 3.04-8.63 3.479-2.25.383-4.534.535-6.816.452-4.21-.167-8.368-.605-12.402-1.877-.618-.196-2.15-.703-2.912-.952a80.972 80.972 0 0 0 1.045 3.09c.469.291.955.553 1.455.785-.276-1.025-.37-1.789-.141-2.011.441-.429 1.672.05 1.848.82.148.649.309 1.336.474 2.034 1.507.479 3.071.799 4.549 1.043 2.674.441 5.374.572 8.067.222 1.45-.188 2.88-.428 4.273-.88a24.98 24.98 0 0 0 3.805-1.592 22.617 22.617 0 0 0 5.22-3.783l.029-.145.136-.684Z"/>
    <path fill="#fff" d="m71.86 103.058-.017.08.016-.08Zm.258-1.25-.01.046.01-.046Zm-.12.582Zm.199-.97a.425.425 0 0 1-.004.019l.004-.019Zm-.158.774-.011.052.01-.052Zm.042-.206-.014.067.014-.067Zm23.714-7.252Zm-.115-.184Zm-.087-.154Z"/>
    <path fill="#FAFAFA" d="M96.669 94.357c.377.06.759.087 1.141.08a10.41 10.41 0 0 0 2.394-.388c2.827-.813 5.39-2.474 7.665-4.304-1.098-.623-2.202-1.292-3.445-1.604-.47-.118-.678.03-.703.547-.036.73-.477 1.02-1.206 1.127-2.2.32-4.387.722-6.54 1.286-.698.183-.993.582-.916 1.205a4.17 4.17 0 0 0 .377 1.779l.155.057c.35.126.71.166 1.078.215Z"/>
    <path fill="#fff" d="M95.512 94.244ZM47.267 112.52Zm1.363 1.11Zm-.214-.126Zm-.436-.307Zm-.726-.691a6.635 6.635 0 0 1-.604-.817 8.897 8.897 0 0 0 2.856 1.478c1.96.607 4.09.778 6.135.787 3.394.015 6.92-.389 9.914-2.087a12.688 12.688 0 0 0 2.885-2.261c-4.045 1.48-8.84 2.119-12.846 1.829-2.081-.151-5.078-.57-7.612-1.309.294 1.369.442 2.287.29 2.287-.16 0-.769-1.134-1.468-2.668-.454-.16-.899-.345-1.332-.552l.123.313c.456 1.158.948 2.184 1.66 3Zm22.721-3.521.15-.067-.15.067Zm-19.969 5.198Zm19.454-4.976Zm-20.59 4.551Zm.28.13Zm19.803-4.477.15-.059-.15.059Zm-19.295 4.668Zm-.264-.093Zm-16.306 36.271-.225-.113.225.113Zm-.309-.156Zm-.298-.155a95.935 95.935 0 0 1-.291-.159c.89-.346 1.622-1.111 1.84-2.031.014-.154.027-.309.042-.463.035-.368-.118-.427-.446-.36-1.235.251-2.474.486-3.905.766.736 1.034 1.727 1.695 2.76 2.247Zm1.41-.579-.005.064.005-.064Zm-.441 1.069-.288-.142.287.142Zm4.084 3.502Zm-.164-.224a3.093 3.093 0 0 0 2.054-1.45c-1.202-.071-2.36-.219-3.568-.547.559.939 1.078 1.436 1.513 1.997Zm-3.483-21.562.006.041-.006-.041Zm-.006.303-.005.04.005-.04Zm.012-.117-.003.044.003-.044Zm-.246-.46Zm-.073-.009Zm-.521 3.254Zm.842-2.841v-.044.044Zm-1.097 2.65-.022-.016.022.016Zm.912-3.034Zm.16.181Zm-.536.614a3.17 3.17 0 0 0-.133-.776c.118-.033.24-.05.362-.049a1.59 1.59 0 0 0-.506.089c-.961.291-1.786.793-2.59 1.354-.42.295-.588.442-.102.63.669.159 1.457.419 2.106.787.55-.529.899-1.253.864-2.035Zm.51-.676Zm-.08-.09Zm.046.04a.454.454 0 0 1 .02.027l-.02-.027Zm11.077 22.385a3.1 3.1 0 0 0 1.792-1.501l.482.077c-1.105-.181-2.824-.451-3.891-.442.487.582 1.364 1.288 1.682 1.997a2.338 2.338 0 0 0-.065-.131Zm2.293-1.421.138.023-.137-.023Zm-21.052-13.288Zm1.479-4.075.06-.037-.06.037Zm-.277.167c-.955.542-2.045.895-3.066 1.183-.339.096-.42.222-.087.56.298.302.577.611.861.933l-.001-.002c1.23-.293 2.273-1.392 2.292-2.674Zm-.973 4.158-.172-.188.172.188Zm-.405-.445-.092-.103.092.103Zm-.326-.367-.034-.039.034.039Zm.161.182-.076-.086.076.086ZM87.393 22.64c.39-.027.597-.655.672-1.008.279-.733-.89-1.971-.89-1.971-.177 1.001-1.286 2.294-1.286 2.294.342.274 1.035.718 1.504.685Zm.659-1.545c.05.17.048.35-.007.518-.075.352-.283.98-.672 1.007-.433.031-1.059-.347-1.42-.62.782-.003 1.547-.354 2.098-.905ZM27.077 77.972l-.27-.406.037.038c1.768 1.78 3.842 3.238 5.835 4.75a30.576 30.576 0 0 0 6.547 3.784c3.489 1.48 6.9 2.993 10.679 3.528 2.257.319 4.681.782 7.014.746.418-.007.835-.03 1.252-.068a71.6 71.6 0 0 0 5.297-.703 14.985 14.985 0 0 0 2.338-.594c1.622-.555 3.193-1.277 4.76-1.952.356-.153.707-.317 1.05-.495a16.147 16.147 0 0 0 1.973-1.213 78.395 78.395 0 0 0 4.061-3.106c.302-.248.596-.505.882-.772a20.134 20.134 0 0 0 1.635-1.722c1.097-1.3 2.125-2.66 3.153-4.012.254-.333.498-.672.733-1.018a27.46 27.46 0 0 0 2.403-4.367c1.228-2.783 2.47-5.554 3.257-8.493.798-2.983 1.16-6.08 1.524-9.133.201-1.673.28-3.358.235-5.042a31.19 31.19 0 0 0-.167-2.473c-.233-2.131-.49-4.272-.902-6.379a21.958 21.958 0 0 0-1.291-4.297c-.817-1.944-1.555-3.84-2.566-5.669a45.01 45.01 0 0 0-1.79-2.99 30.319 30.319 0 0 0-.928-1.33c-1.083-1.458-2.192-2.905-3.367-4.292a18.623 18.623 0 0 0-2.215-2.223 18.79 18.79 0 0 0-.586-.47c-1.233-.958-2.458-1.94-3.738-2.838a16.8 16.8 0 0 0-1.536-.957c-.166-.054-.333-.11-.498-.17-11.14-3.804-22.457-1.766-27.692-.4-4.237 1.107-7.966 3.382-11.663 5.656-1.863 1.146-10.516 8.187-13.185 15.853-2.73 6.727-2.686 14.105-2.35 17.755.38 4.152 1.13 8.215 2.81 12.06 2.044 4.676 4.432 9.166 7.269 13.414Zm13.579-61.224c7.614-3.796-6.56 4.04-13.51 18.074-5.816 11.742-6.343 29.442-7.61 20.946-1.296-8.691.675-28.832 21.12-39.02ZM27.624 78.78c-.05-.073-.101-.146-.15-.22.049.074.1.147.15.22Zm45.46-64.756Zm.289.093Zm12.543.978a1.94 1.94 0 0 0-.135.455 6.13 6.13 0 0 0 .803-.727c.622-.68 1.167-1.434 1.697-2.184.826-1.169 1.717-2.287 2.516-3.47a8.79 8.79 0 0 1-.525 1.09c-1.31 2.297-2.56 4.63-3.874 7.022l.018.023c1.316-2.394 2.565-4.727 3.876-7.025.71-1.244 1.38-3.145.784-4.694-.603 1.05-1.386 2.413-1.894 3.369-1.072 2.018-2.359 4.033-3.266 6.141Zm4.748-9.62Zm.05-.152-.01.037.01-.037Zm-.021.073Zm-.069.167-.015.03.015-.03Zm.042-.564Zm.028.05Zm.02.052Zm-15.14 8.962Zm.023.449-.015-.053c.004.018.01.035.015.053Zm15.122-9.218Zm-15.044 9.393-.017-.032.017.032Zm5.891 2.196c1.281-.273 2.18-1.205 2.924-2.203.427-.574.782-1.208 1.16-1.814.44-.707.865-1.423 1.302-2.132.424-.688.851-1.367 1.23-2.08.377-.707.739-1.42 1.144-2.112.345-.59.724-1.16 1.093-1.736a.61.61 0 0 1 .246.192c-.08-.118-.24-.21-.488-.285-.715-.218-1.439-.26-2.53-.266-1.543.079-3.397.365-5.139 1.172-.66.306-.741.625-.271 1.127.856.914.866 1.038.146 2.069-.753 1.077-1.581 2.112-2.238 3.244-.493.85-1.053 1.205-2.037 1.007-.635-.127-1.297-.306-1.898.021-.342.187-.578.59-.636.976.886.752 1.601 1.66 2.635 2.26 1.027.596 2.191.808 3.357.56Zm5.453-11.907c.473 0-3.172 2.052-3.583 1.824-2.641-1.461 3.112-1.824 3.583-1.824ZM75.63 14.602ZM19.339 77.707l.016.048-.016-.048Zm-.117-.374.012.044-.012-.044Zm.054.185c.006.016.01.033.015.05l-.015-.05ZM3.995 81.537c1.435-.058 2.706-.455 3.99-1.069.928-.443 1.74-1.05 2.603-1.599a18.9 18.9 0 0 1 2.538-1.335 18.493 18.493 0 0 1 3.83-1.067 14.022 14.022 0 0 1 2.062-.065 20.16 20.16 0 0 1-.175-1.476c-.056-.619.05-1.833.05-1.833-.445-.475-1.394-.459-2.053-.602-3.146-.683-6.095-.214-8.81 1.532-1.672 1.076-3.113 2.485-4.924 3.365-.117.057-.647.164-.657.262-.02.204.559.242.717.284 1.136.3 2.268.486 3.37-.13.259-.144.517-.33.95-.136-1.702.996-2.724 2.998-4.562 3.917.047-.023.093-.048.139-.073.31.028.621.037.932.025Zm15.133-4.571.006.026-.006-.026Zm.045.184.008.035-.008-.034Zm-.085-.369.003.016-.003-.016Zm-.036-.187v.007-.007Zm52.311 49.405c.236-.1.26.07.334.234.145.324.321.066.455-.021 1.463-.954 2.671-2.066 3.121-3.871.26-1.043.706-2.05.946-3.108.117-.517.13-1.134-.544-1.365-.603-.207-1.111.012-1.374.604-.294.661-.491 1.386-.673 2.079-.386 1.476-1.372 2.304-2.761 2.786-1.013.351-1.412.545-2.32 1.127-.563.361-1.819.618-2.46.663-.927.065-1.507.573-1.923 1.318-.971 1.733-1.25 3.67-1.63 5.574-.071.354.142.579.45.723 2.064.967 3.802 1.175 6.012.829.774-.121 1.202-.637 1.203-1.264 0-.723-.532-.939-1.012-.972-1.211-.083-2.398-.32-3.58-.584-.348-.077-.58-.239-.516-.622.027-.164.116-.329.337-.142 1.05.884 2.392.698 3.609.897.993.163 1.39.372 1.534.867.274-.091.67-.219 1.106-.36-.054-.752-.122-1.293-.138-1.798-.034-1.061-.003-2.117-.192-3.164-.028-.151-.215-.332.016-.43Zm-46.279-21.606c1.666.045 2.878-1.162 2.958-2.95.065-1.44-1.408-3.028-2.84-2.954-2.085.108-3.129 1.063-3.177 2.869-.05 1.927 1.177 2.983 3.059 3.035Zm-7.319-7.734a2.849 2.849 0 0 1-1.555-.453c.002.036.006.07.011.104v.002a.97.97 0 0 0 .02.09l.002.01a.773.773 0 0 0 .066.167l.006.009a.727.727 0 0 0 .043.068l.005.006a.772.772 0 0 0 .058.07h.001c.02.022.041.042.064.06l.012.01c.05.042.104.078.16.109l.016.008.08.04.02.008c.034.015.069.03.105.043l.004.001c.035.013.071.025.109.036l.03.01c.033.01.068.019.104.028l.021.005a3.747 3.747 0 0 0 .28.058l.04.007c.05.009.101.017.155.024.333.048.673.05 1.077.078.424-.118.937-.033 1.433-.198.728-.243 1.03-.635.653-1.365a17.371 17.371 0 0 0-.172-.325l-.02-.036a82.491 82.491 0 0 0-.176-.322c-.489.964-1.554 1.648-2.652 1.648Zm30.373 28.103c2.189.019 2.824-.791 3.082-2.491.327-2.008-1.195-3.257-3.043-3.314-1.89 0-2.874 1.527-2.897 2.884-.027 1.596 1.334 2.907 2.858 2.921Zm-8.565 8.447c.317.514.82.711 1.465.41.282-.132.569-.258.855-.387-.587-.57-1.31-.989-2.08-1.285-.296.337-.502.837-.24 1.262Z"/>
    <path fill="#fff" d="M50.654 131.652c.612.075 1.633.07 1.633.07-.221-1.409-.547-3.125-.89-4.252-.047-.153-.113-.352.107-.427.296-.102.257.608.36.755.15.213-.016.156.369.237 1.76-.521 2.749-.626 3.221-1.572.574-1.149 1.029-2.346 1.491-3.542.242-.625.2-1.174-.422-1.476-.728-.355-1.378-.067-1.686.612-.333.735-.666 1.475-.934 2.235-.197.56-.524.706-1.112.77-1.084.118-2.13-.216-3.197-.125-.861.073-1.724.344-2.576-.04-.249-.112-.426.058-.633.134-1.615.593-2.284 1.617-3.024 3.283-.61 1.375-1.597 2.294-2.766 3.041-.126.08-.251.16-.374.245.895.395 1.565.914 2.049 1.461 1.159-.534 2.27-1.148 3.008-2.326.304-.483.366-1.158 1.052-1.549-.066.781-.622 1.214-.807 1.81 1.93.244 3.2.42 5.13.656Zm19.962.317.006.043a.07.07 0 0 0-.006-.043Zm-4.582-12.889c-1.57.127-2.559 1.456-2.48 2.739.105 1.666.864 2.758 2.58 2.817 1.97.069 3.204-.781 3.242-2.639.205-1.968-1.407-3.169-3.342-2.917Zm-48.95-14.445c.73-.168.5-.819.59-1.247.004-.617.038-1.176-.283-1.657-.406-.608-.916-.582-1.288.032-.321.531-.355 1.099-.233 1.685.156.744.667 1.312 1.214 1.187Z"/>
    <path fill="#3976EE" d="M39.542 128.635c.69.314 1.419.545 2.12.837.395.166.498.127.498.127.043-.05.084-.101.125-.153l.046-.061.072-.095c.02-.027.038-.055.057-.082.017-.026.036-.051.053-.078.022-.031.042-.064.063-.096l.04-.064c.024-.037.046-.074.068-.111l.03-.051.071-.125.02-.036.075-.14a10.394 10.394 0 0 0 .09-.176v-.001a33.235 33.235 0 0 1-5.227-1.884 19.74 19.74 0 0 1-1.063-.525 1.948 1.948 0 0 1-.08.06l-.004.003a1.56 1.56 0 0 1-.25.146l-.003.001c-.024.012-.05.023-.075.033l-.02.008-.059.022-.024.008-.058.018-.023.006a1.133 1.133 0 0 1-.08.018c.16.265.298.656.414.757.91.789 2.054 1.146 3.124 1.634Zm12.803 1.264c.04.243.074.491.113.741l.022.135.012.07.036.195.01.052.04.181.008.034c.016.069.034.139.053.208l.014.049c.02.071.042.143.067.215 0 0 5.959.529 7.822.514a14.85 14.85 0 0 1 1.506.097 1.83 1.83 0 0 1 .055-.739c.037-.149.073-.299.108-.449l.029-.121.094-.406.002-.008c-2.596-.079-5.19-.334-7.773-.561-.739-.064-1.478-.134-2.218-.207Z"/>
    <path fill="#fff" d="M17.477 93.414c.135.053.305.056.47.066l.085.006.008.001.084.01.008.002c.029.004.057.01.085.017.451-.081 1.244-.064 1.165-.608a1.085 1.085 0 0 0-.019-.095l-.005-.02a1.368 1.368 0 0 0-.066-.195l-.003-.01a1.927 1.927 0 0 0-.05-.107 3.1 3.1 0 0 1-1.762.933Z"/>
    <path fill="#3976EE" d="m78.12 127.44.032.09.044.12c.096.255.134.529.11.8.036-.028.073-.058.11-.09l.037-.032.075-.066.047-.043a2.205 2.205 0 0 0 .12-.112l.065-.062.057-.056.06-.062.062-.062.058-.061.065-.069.051-.056a2.977 2.977 0 0 0 .1-.11c.107-.119.215-.243.323-.374l.01-.011.103-.125.02-.025c.033-.041.067-.082.1-.125l.022-.027.1-.129.02-.025.104-.135.014-.018.109-.145c-.663.353-1.344.674-2.032.976l.013.034Zm.102 1.653c-.105.656-.325 1.516-.361 1.694a49.781 49.781 0 0 1-.946 3.81c-.888 3.074-1.732 6.162-2.88 9.155-.18.468-.446.901-.641 1.364-.078.183-.369.813-.369.813.406-.013.717-.243.928-.316 2.34-1.122 2.952-1.318 3.676-3.402 2.084-5.549 3.6-11.961 4.531-17.591.007-.045.258-.967.204-1.104-1.082 2.312-2.653 4.57-4.142 5.577Z"/>
    <path fill="#fff" d="M94.694 105.213c1.364-.004 2.583-1.34 2.597-3.055.013-1.504-1.063-2.888-2.952-2.887-1.783-.028-2.864 1.39-2.87 3.169-.005 1.693 1.35 2.779 3.225 2.773Z"/>
    <path fill="#fff" d="M99.927 102.302c-.394.576-.714 1.202-1.072 1.803-.871 1.467-2.602 2.066-4.276 1.679-1.374-.317-2.541-.94-3.696-1.703-1.259-.832-1.368-2.085-1.509-3.386a64.457 64.457 0 0 1-.206-2.222c-.203.696-.565 1.374-.976 1.658a1.092 1.092 0 0 1-.567.202v.002c.076.567.072 2.446.084 2.545.128 1.056.414 2.075.731 3.085.232.739.08 1.41-.223 2.094a3383.704 3383.704 0 0 0-5.63 12.776c-.217.494-.456 1.182.278 1.591.65.364 1.142.047 1.566-.516 1.11-1.473 3.825-6.059 4.454-6.637.507-.465.85-.355 1.002.311.175.77-.008 3.718-.005 4.413.002.521.126 1.05.557 1.386.907.708 1.82 1.338 2.712 2.063.412.335 1.45.236 1.66-.757.066-.689-.509-1.209-.983-1.603-.877-.728-1.106-1.613-.945-2.69.251-1.678 1.096-6.312 1.282-6.945.46-1.57 1.683-2.146 3.09-2.544.242-.069.496-.106.733-.19.937-.332 1.465-.571 2.106-1.815l.379-.61c.04-1.438.097-2.954.16-4.479-.288.07-.54.245-.706.489Zm-78.331 10.916a2.219 2.219 0 0 1-.203.395 3.277 3.277 0 0 1-1.75 1.332c-.185.036-.37.073-.557.107a5.123 5.123 0 0 0 .189.031l.147.019a.505.505 0 0 1 .039.004l.13.011.039.003c.054.004.108.006.162.008h.002c.056.001.112.002.167.001l.04-.001.124-.004.054-.003.117-.009.05-.004c.054-.006.108-.012.163-.02 1.431-.199 1.895-.984 1.284-1.979-.065.038-.13.074-.197.109ZM31 108.225c-.293-1.481-.536-2.369-.97-4.269-.903-.316-1.95-.352-2.804.149-2.111 1.24-4.188.757-5.296-.992 0 .871.175 2.565.139 3.315-.04.81.272.617.978.918.921.393 1.44 1.102 1.837 1.973.707 1.552 1.223 3.172 1.777 4.778.198.575.328 1.154.123 1.789-.9 3.234-1.424 4.285-2.165 4.818-.68.488-1.427.907-1.917 1.624-.32.468-.204.922.035 1.339.186.322.55.59.926.459 1.84-.642 3.412-1.58 4.368-3.356.635-1.177 1.041-2.498 1.815-3.614.198-.285.356-.569.776-.532a1.107 1.107 0 0 1 .893.594c.099.2.187.404.265.612.878 2.506 1.642 4.581 2.78 6.974.19.399.63.886 1.116.938-.13-.355-.24-.888-.343-1.223-1.659-5.356-2.748-10.4-4.333-16.294ZM20.851 98.38c-.02 2.619-.246 5.243-.107 7.86.067 1.063.022 2.13-.136 3.184a4.247 4.247 0 0 1-.55 1.513 3.47 3.47 0 0 1-1.243 1.218 3.59 3.59 0 0 1-1.255.419c.031.067.068.13.109.191l.002.003c.042.061.089.117.14.169l.007.006c.053.053.11.101.173.144l.011.007c.03.02.061.039.094.057l.007.005c.034.018.07.036.108.053l.017.007c.033.014.067.027.103.04l.018.006c.04.014.082.026.125.037l.02.005c.038.009.077.017.117.024l.03.005c.046.007.094.014.143.019l.022.001c.043.004.088.007.134.008l.04.002c.052.001.107.001.163-.001l.017-.001c.052-.002.105-.005.16-.01l.047-.004c.061-.006.123-.013.188-.022 1.85.034 2.27-.583 2.247-1.845a151.56 151.56 0 0 0-.116-3.921c-.09-2.028-.192-4.055-.308-6.081-.083-1.438-.2-2.874-.307-4.374a7.794 7.794 0 0 1-.23.101c.009.391.013.782.01 1.175Zm22.488 38.647.005.003.178.088.138.068.035.018.114.058.042.022.142.077c.004-.04.01-.08.015-.119l.006-.035a3.27 3.27 0 0 1 .014-.081l.008-.036c.005-.027.01-.054.017-.081l.006-.027c.095-.409.239-.771.228-1.264a2.92 2.92 0 0 1-.948 1.309Z"/>
    <path fill="#3976EE" d="M77.724 129.581a2.485 2.485 0 0 1-.117.112l-.02.019a.322.322 0 0 0 .02-.019l-.048.029-.015.008a1.081 1.081 0 0 1-.044.024l-.016.008-.066.033-.012.006-.064.03-.024.011-.069.031-.016.007-.094.041-.02.008-.083.035-.027.011a5.564 5.564 0 0 1-.101.042l-.007.003-.118.047-.026.01-.101.04-.028.01c-.085.034-.175.068-.268.103l-.028.01-.125.047-.02.007-.153.056-.004.002-.148.054-.028.01-.154.055-.001.001c-.228 1.868-.57 3.721-1.128 5.507-.306.97-.683 1.917-1.13 2.831-.419.863-.955 1.618-1.555 2.367-1.225 1.531-2.978 2.47-4.805 3.124-1.892.677-3.958.925-5.955 1.042-1.856.11-3.72.052-5.572-.078-1.747-.122-3.487-.309-5.233-.442-2.275-.172-4.644-.385-6.785-1.219a16.017 16.017 0 0 1-2.09-.969v.001c.052.096.105.191.159.286l.002.004c.053.093.107.186.162.278l.01.015c.052.089.106.176.161.263l.022.034a13.986 13.986 0 0 0 .41.605c.042.06.085.12.13.179l.105.138c.033.043.065.086.1.129.07.089.141.177.214.265.372.443.852.651 1.435.791 2.108.507 4.234.963 6.374 1.242 2.594.338 5.198.637 7.817.813 3.35.234 6.716.109 10.04-.373 1.026-.15 2.034-.442 3.042-.702.493-.127.763-.44 1.015-.945 2.398-4.809 3.593-9.98 4.797-15.152.036-.156.168-.56.283-.925Zm-36.031.422c-1.81-.687-3.511-1.455-5.397-2.381.309 1.194.525 2.256.848 3.273a9.417 9.417 0 0 1 2.62.521c.615-.45 1.353-.747 1.93-1.413Z"/>
    <path fill="#fff" d="M25.747 146.23c.18.036.363.068.546.098l.038.006c.178.028.358.052.54.073l.053.006a8.5 8.5 0 0 0 .28.026c.089.007.179.013.27.018l.051.003.225.008.075.002c.091.002.184.003.277.002l-.155-.35-.01-.022-.147-.337-.008-.018a30.63 30.63 0 0 1-.143-.335l-.003-.007a32.749 32.749 0 0 1-.14-.34c-.44.545-1.085.994-1.75 1.167Z"/>
    <path fill="#3976EE" d="M77.99 128.357c0-.014-.002-.028-.004-.043l-.002-.017-.006-.043-.003-.02a1.632 1.632 0 0 0-.009-.043l-.005-.023-.01-.044-.006-.024a2.608 2.608 0 0 0-.013-.046l-.007-.025a2.185 2.185 0 0 0-.023-.074l-.016-.05-.009-.027a11.48 11.48 0 0 0-.018-.054l-.01-.025-.02-.059a.419.419 0 0 0-.009-.022l-.025-.067-.006-.016-.03-.078-.48.204c-1.634.686-3.291 1.435-5 1.927-.107.031-.215.06-.323.089l.01.199v.01l.009.188v.024l.02.36.001.03a52.539 52.539 0 0 0 .021.335l.002.025.01.149.003.031.012.145 1.982-.64c1.023-.333 2.218-.597 3.126-1.186a2.45 2.45 0 0 0 .092-.061l.03-.02.056-.038.035-.024.045-.032.035-.026.039-.029.035-.027.033-.026.034-.028a2.192 2.192 0 0 0 .061-.052l.026-.024.03-.027.023-.023.027-.028a.331.331 0 0 0 .02-.022l.025-.028.017-.021.023-.029.014-.02.02-.029c.005-.007.01-.013.013-.02a.459.459 0 0 0 .018-.031l.01-.018.016-.032a.422.422 0 0 0 .007-.017l.014-.034.005-.015.012-.036a.734.734 0 0 0 .026-.211v-.003l-.001-.045-.001-.014Z"/>
    <path fill="#fff" d="M49.985 155.731c-.017.031-.034.061-.05.093l-.01.018-.044.084-.023.047-.032.065-.057.123.75.137c.54.098 1.066.28 1.623.431.005-.087.01-.174.012-.259v-.001c.01-.248 0-.496-.028-.743a2.84 2.84 0 0 1-2.14.005Zm-3.558-46.832a11.21 11.21 0 0 1-1.368-.752l.19.482c.42.172.844.333 1.272.485l-.094-.215Zm20.363-1.31c-1.927 1.132-4.056 2.061-6.257 2.514-2.52.519-5.141.488-7.699.317-1.172-.079-2.37-.184-3.51-.471a14.2 14.2 0 0 1-1.483-.466l.017.074c7.424 2.277 15.764 1.839 22.856-1.315.285-1.193.586-2.551.861-3.84l-.139.062-.11.047-.032.013-.141.059-.006.002-.147.059-.003.001c-1.341 1.067-2.732 2.076-4.208 2.944Z"/>
    <path fill="#fff" d="M63.557 104.879c-1.393.452-2.823.692-4.273.881-2.693.349-5.393.219-8.067-.223-1.478-.244-3.042-.563-4.548-1.043l.139.586c3.406.884 7.05 1.345 10.408 1.331 4.423-.018 10.116-.726 14.444-2.408l.047-.219.014-.065.031-.149.017-.082.03-.138.015-.073.029-.14.016-.079.03-.14.013-.064.084-.405.012-.059.03-.145.01-.051.03-.14.013-.066.028-.135.01-.045.075-.37.003-.018.032-.154.008-.04.025-.126.01-.051.022-.103.012-.061.06-.298v-.001l.028-.139.006-.032.018-.09.012-.06.014-.067.009-.045a10.75 10.75 0 0 1 .023-.119l.01-.047.02-.098.011-.059.003-.013.015-.076.004-.022.029-.145v-.002l.011-.056.002-.01v-.002a22.59 22.59 0 0 1-5.22 3.783 24.972 24.972 0 0 1-3.804 1.592Zm-20.525-2.013c.142.393.287.785.433 1.177.415.152.837.296 1.266.434a20.355 20.355 0 0 1-.244-.826c-.5-.232-.986-.494-1.455-.785Zm-6.043 21.304a53.735 53.735 0 0 0-1.578-4.708c-1.342-3.433-2.084-7.041-3.112-10.566-.338-1.159-.05-1.922.783-2.637.277-.238.544-.486.812-.732.517-.477.994-.985 1.318-1.617.153-.3.222-.728-.106-.955-1.407-.973-2.947-1.525-4.644-1.771-.9-.131-1.383.86-1.065 1.718.216.584.706.643 1.242.823.666.222 1.357.372 2.034.565.13.037.284.113.243.288-.04.176-.223.197-.337.134-.65-.359-1.39-.4-2.095-.603.02.063.037.148.066.275.7 2.62 1.382 5.644 2.153 8.725a449.717 449.717 0 0 0 2.943 11.074c.13.413.445 1.026.525 1.447.516-.281 1.032-.721.818-1.46Zm70.949-34.386-.07-.04c-2.274 1.83-4.837 3.492-7.664 4.305-.78.222-1.583.352-2.394.388a6.432 6.432 0 0 1-1.141-.08c-.368-.05-.728-.09-1.078-.215a9.63 9.63 0 0 1-.155-.058c.024.054.05.107.076.16l.008.017.073.137.016.03c.023.041.047.083.072.124l.02.034c.03.05.062.1.094.15.542.831 1.25 1.078 1.93.816 1.784-.69 3.583-1.35 5.34-2.102.761-.326 1.286-.22 1.696.521.215.387.518.557.87.178a21.955 21.955 0 0 0 2.563-3.304c.27-.43.2-.802-.256-1.06Z"/>
    <path fill="#F5F5F5" d="M65.555 111.867c-2.993 1.698-6.52 2.102-9.914 2.087-2.046-.009-4.175-.18-6.135-.787a8.897 8.897 0 0 1-2.856-1.478c.18.287.382.56.604.817l.013.014c.161.185.336.359.522.52l.03.026c.052.045.106.088.16.131l.034.026c.128.099.262.193.403.281l.045.027a4.588 4.588 0 0 0 .41.227l.044.022c.077.038.155.073.235.108l.047.019.197.079.08.029a7.9 7.9 0 0 0 .184.064l.08.025c.087.028.176.055.268.079 2.855.999 13.366 1.453 17.446-.734 1.448-.777 2.394-1.861 2.861-3.609.093-.35.191-.735.291-1.145-.157.076-.317.15-.478.223l-.15.067a19.143 19.143 0 0 1-.516.222l-.357.145-.15.059c-.17.066-.34.131-.513.195a12.69 12.69 0 0 1-2.885 2.261Z"/>
    <path fill="#fff" d="M32.19 149.786a16.101 16.101 0 0 0 .588.314l.085.044.225.113.073.036.288.142c.267.131.354-.12.372-.31.023-.232.044-.463.065-.695l.005-.063c.047-.537.09-1.075.139-1.612-.218.92-.95 1.686-1.84 2.031Zm5.18 3.928.134.181.03.042c.044.063.087.126.13.192.107.17.131.265.352.1.83-.904 1.735-1.257 2.633-1.915a37.078 37.078 0 0 1-1.226-.05 3.093 3.093 0 0 1-2.054 1.45Zm-3.478-21.522-.005-.04a.543.543 0 0 0-.017-.073l-.011-.031a.368.368 0 0 0-.03-.055.262.262 0 0 0-.065-.066l-.02-.013a.388.388 0 0 0-.034-.017l-.022-.007a.304.304 0 0 0-.041-.012l-.02-.003a.465.465 0 0 0-.053-.007h-.01a1.27 1.27 0 0 0-.363.049c.076.252.121.513.133.776.036.782-.314 1.506-.863 2.035.106.059.208.122.305.188l.021.015a4.018 4.018 0 0 1 .256.191c.507.42.634.138.627-.365-.01-.724.09-1.436.173-2.137l.023-.126.005-.04.009-.073.003-.044.002-.057v-.042a.833.833 0 0 0-.003-.046Zm10.995 22.16c.024.044.045.087.065.131.117.26.288.304.526.018.407-.489.902-1.325 1.84-1.547l-.138-.023-.02-.003-.481-.078a3.097 3.097 0 0 1-1.792 1.502Zm42.428-57.575c-.402.714-.703 1.445-.587 2.293.048.349.093.68.49.79.428.118.737-.052 1.033-.38.527-.58.68-1.28.707-2.005.023-.624-.332-.981-1.073-.961-.212-.079-.421 0-.57.263Zm-59.707 38.791a8.541 8.541 0 0 1-.279.167c-.02 1.282-1.063 2.381-2.292 2.674l.002.002.553.631.034.039.085.096.076.086.073.082.092.103.067.075.11.12.056.062.172.188c.279-1.785.52-3.207 1.582-4.546-.09.064-.18.124-.273.184l-.058.037Zm73.265-29.942c.429-.74.763-1.43.976-2.24.11-.419.259-.888-.115-1.269a1.134 1.134 0 0 0-.703-.333c-.048 1.23-.102 2.535-.158 3.842Zm-13.5-83.006c.39-.027.597-.655.671-1.007a.865.865 0 0 0 .007-.518c-.55.551-1.316.902-2.1.905.363.273.989.651 1.422.62Zm-14.798-8.712c.462.263.911.547 1.347.853 1.28.899 2.505 1.88 3.738 2.838.198.153.394.31.586.47.8.678 1.541 1.422 2.215 2.223 1.175 1.387 2.285 2.834 3.367 4.292.322.435.632.878.929 1.33a45.01 45.01 0 0 1 1.789 2.99c1.011 1.83 1.75 3.725 2.566 5.669a21.958 21.958 0 0 1 1.291 4.297c.412 2.107.67 4.248.902 6.379.09.822.146 1.646.168 2.473a34.438 34.438 0 0 1-.236 5.042c-.365 3.054-.726 6.15-1.524 9.133-.787 2.94-2.03 5.71-3.257 8.493a27.46 27.46 0 0 1-2.403 4.367c-.235.345-.48.685-.732 1.018-1.03 1.351-2.056 2.713-3.154 4.012-.51.605-1.056 1.18-1.635 1.722-.285.266-.58.524-.882.772a78.395 78.395 0 0 1-4.06 3.105c-.628.451-1.287.857-1.974 1.214-.343.178-.693.342-1.049.495-1.568.675-3.139 1.397-4.76 1.952-.762.26-1.544.46-2.338.594a71.6 71.6 0 0 1-5.298.703c-.416.039-.834.062-1.252.068-2.333.036-4.757-.428-7.014-.746-3.78-.534-7.19-2.049-10.68-3.528a30.576 30.576 0 0 1-6.546-3.784c-1.993-1.512-4.067-2.97-5.835-4.75l-.037-.038a71.438 71.438 0 0 0 .666.995l.15.22c.172.25.346.5.52.749 1.903 2.7 3.696 5.477 5.639 8.148 2.007 2.76 4.064 5.484 5.953 8.325.683 1.027 1.637 1.926 2.037 3.089.316.041.976.459 1.113.498 1.22.348 2.588.759 3.8 1.13 2.938.901 5.98 1.088 9.019 1.326 4.375.342 8.508.012 12.624-1.462 1.545-.553 3.676-1.984 4.61-2.53.093-.154.195-.304.305-.447 1.93-2.647 3.958-5.691 6.012-8.247 2.106-2.62 4.3-5.174 6.209-7.945 9.917-13.907 10.619-23.53 11.025-27.617.445-4.49-.074-8.905-.804-13.304-.465-2.802-1.443-5.481-2.524-8.111a32.002 32.002 0 0 0-1.288-2.722 33.64 33.64 0 0 0-1.482-2.536c-.544-.846-1.222-1.614-1.707-2.489-.462-.831-1.237-1.486-1.237-1.486-1.022-.397-1.948-.854-2.935-1.371-.845-.445-2.587-1.373-4.103-2.332-1.77-1.119-4.116-2.714-5.276-4.574a11.556 11.556 0 0 0-1.476-.66 16.34 16.34 0 0 0-.573-.188l-.697-.22c.063.033.126.067.188.103Zm18.222-4.74c-.8 1.184-1.69 2.302-2.516 3.47-.53.751-1.075 1.505-1.697 2.184-.246.266-.514.51-.803.728-.105.648.189 1.198.617 1.73 1.315-2.392 2.563-4.725 3.874-7.022.2-.351.375-.715.525-1.09Z"/>
    <path fill="#fff" d="m75.575 14.423.007.036a.748.748 0 0 0 .076.196.583.583 0 0 0 .076.107c.68.74 1.205 1.599 2.023 2.234 2.095 1.628 4.571 3.27 7 4.338 1.118.492.942.113 1.665-.91.493-.697.487-1.3.053-1.989-.327-.518-.574-1.086-.895-1.608-.369-.601-.364-1.173-.096-1.82.72-1.733 1.768-3.293 2.617-4.956.76-1.488 1.62-2.925 2.46-4.372l.048-.087.014-.03a1.333 1.333 0 0 0 .057-.13c.005-.012.01-.024.013-.036a.748.748 0 0 0 .01-.036c.004-.013.008-.025.01-.037l.006-.03a.474.474 0 0 0 .005-.137l-.002-.014a.346.346 0 0 0-.009-.04l-.004-.014a.326.326 0 0 0-.015-.04l-.005-.009a.352.352 0 0 0-.023-.04.61.61 0 0 0-.248-.193c-.369.576-.747 1.146-1.093 1.736-.404.692-.766 1.405-1.142 2.112-.38.713-.807 1.393-1.23 2.08-.438.709-.864 1.425-1.304 2.132-.377.606-.732 1.24-1.159 1.814-.743.998-1.643 1.93-2.925 2.203-1.165.248-2.33.036-3.356-.56-1.034-.601-1.75-1.509-2.636-2.26-.019.119-.018.24.002.36Zm-56.22 63.331-.016-.047-.047-.14-.015-.05a6.96 6.96 0 0 1-.043-.14l-.012-.044-.04-.149-.009-.033a8.093 8.093 0 0 1-.039-.16l-.005-.025a10.481 10.481 0 0 1-.038-.171c0-.005-.002-.01-.003-.014a12.79 12.79 0 0 1-.035-.183l-.001-.004a10.265 10.265 0 0 1-.034-.192 14.009 14.009 0 0 0-2.061.064 18.482 18.482 0 0 0-3.83 1.067c-.88.38-1.729.827-2.539 1.336-.862.549-1.675 1.155-2.603 1.599-1.284.613-2.555 1.01-3.99 1.068a7.127 7.127 0 0 1-.932-.025c-.046.025-.092.05-.14.074.198.137.829.12.967.14 1.959.28 3.533-.647 5.155-1.526 2.476-1.344 5.094-2.267 7.985-2.085.673.042 1.34.18 2.005.303.475.088.543-.086.39-.477a5.52 5.52 0 0 1-.07-.186Zm7.791-42.932c6.95-14.034 21.124-21.87 13.51-18.074-20.444 10.188-22.416 30.329-21.12 39.02 1.267 8.496 1.794-9.204 7.61-20.946ZM83.436 6.8c.411.228 4.056-1.824 3.584-1.824s-6.225.363-3.584 1.824Zm-37.242 95.66c-.176-.77-1.407-1.25-1.848-.82-.228.222-.135.986.141 2.011.07.26.152.537.244.826.679.219 1.371.419 2.077.602l-.14-.586c-.165-.697-.326-1.384-.474-2.033Zm2.078 9.954c.152 0 .004-.919-.29-2.288a20.231 20.231 0 0 1-1.178-.38c.699 1.533 1.308 2.668 1.468 2.668Zm-1.751-3.3c.442.158.888.305 1.337.443l-.016-.074c-.25-1.117-.567-2.446-.889-3.793a19.128 19.128 0 0 1-2.039-.655 51.582 51.582 0 0 0 1.513 3.864l.094.215Z"/>
    <path fill="#0D0D0D" d="M108.347 89.41c-1.28-.644-2.527-1.363-3.943-1.709-.652-.159-1.037-.045-1.093.701-.036.478-.15.915-.793 1-2.239.297-4.437.795-6.617 1.38-1.097.293-1.326.516-1.33 1.894.015.999.532 2.096 1.488 3.021.488.473.98.556 1.61.307 1.084-.43 2.178-.838 3.268-1.254.002.067.005.164-.002.312-.086 1.954-.189 4.095-.28 6.233-.472.049-.887.365-1.235.956-.397.674-.765 1.365-1.163 2.038-.485.818-1.568 1.266-2.555 1.144 2.3-1.197 2.504-3.694 1.352-5.219-1.055-1.396-2.387-1.715-4.253-1.014-1.414.531-2.3 2.868-1.419 4.685-.664-.325-1.203-1.221-1.383-1.828-.166-.56-.394-4.156-.66-4.74a1.71 1.71 0 0 0-.047-.37c-.12-.475-.442-.7-.8-.847.012-.055.02-.11.027-.16.44-2.137 1.297-5.33 1.744-7.25.776-3.326 1.581-6.662 2.334-9.994.477-2.114.988-4.21 1.335-6.345.265-1.624 1.391-6.979 2.06-11.934.05-.372.172-1.042.254-1.698l.186-.852c.266-1.708.517-3.424.605-5.139a48.495 48.495 0 0 0-.265-8.256c-.49-4.094-1.41-8.052-2.945-11.885-1.353-3.377-3.335-6.372-5.535-9.245-.246-.322-.44-.354-.199-.746.578-.94.44-1.525.077-2.22-.293-.78-1.18-1.639-1.534-2.392.652-1.54.784-1.657 1.002-2.042.58-1.021 1.175-2.034 1.713-3.076 1.161-2.245 2.78-4.304 2.212-7.154-.177-.886-.418-1.228-1.18-1.41-2.784-.667-5.434-.008-8.042.86-.98.326-1.162 1.22-.385 1.866.675.562.463 1.002.082 1.535-.586.82-1.277 1.589-1.728 2.476-.637 1.253-1.17 1.725-2.628 1.467-.942-.166-2.228.195-2.544 1.248-.118.393-.202.477-.568.34-1.846-.687-3.458-1.494-5.965-1.962-10.09-2.36-22.155-1.239-30.27 2.902-15.369 7.71-19.057 17.566-20.482 22.274-1.376 4.124-2.398 10.538-.98 18.686.52 3.421 1.572 7.182 2.372 10.708.17.86.462 2.535.494 2.369-.155.848-.477 1.898-.61 2.75-.1.631-.304.743-.944.555-4.17-1.229-8.027-.658-11.475 2.074-.506.401-3.39 2.832-4.681 2.95-.22.02-.49-.158-.537.152-.035.235.219.303.385.39.973.502 2.019.692 3.107.685.16 0 .361-.107.446.093.074.174-.019.16-.117.292-.56.75-1.313 1.517-2.118 2-.241.146-.499.24-.803.21-.242-.025-.623-.339-.703.087-.07.37.387.406.665.506 1.909.688 3.71.372 5.465-.543 1.815-.947 3.622-1.848 5.654-2.378 2.01-.524 3.89-.41 5.822.084.398.101.7.294.892.694.774 1.623 1.937 2.857 3.415 3.891.22.154.342.43.431.673.346.941 3.59 11.308 4.816 15.566.2.692.456 1.311.456 1.311-.623.616-.456 1.333-.39 1.632.042.184.33.438.021.575a1.023 1.023 0 0 1-.74.003c-.317-.138-.027-.372.013-.566.057-.273.126-.546.16-.822.238-1.943-1.064-3.975-3.269-3.932-1.465.028-3.003.77-3.393 2.565.023-.363-.052-1.103-.083-1.368-.12-1.018.04-2.073-.26-3.058-.484-1.583-1.284-2.74-2.081-4.178-.43-.775-1.363-1.068-1.81-.315-.856 1.44-1.64 2.983-1.739 4.656-.067 1.142.059 2.34.216 3.492.102.747.01 1.349-.333 1.988-.5.934-.305 1.889.268 2.681.396.546.527 1.069.523 1.696-.004.473.067.945.092 1.419.113 2.113.626 4.192.565 6.318-.023.794.486 1.151 1.107 1.397.745.294 1.706.348 2.477.188 1.091-.228 2.099-.744 1.841-1.583-.3-.981-.246-1.179-.246-1.179-.165-1.025-.07-3.841-.098-4.872-.013-.473.18-.406.506-.261.848.377 1.4 1.016 1.767 1.835a45.534 45.534 0 0 1 1.796 4.767c.137.43.262.878.154 1.317-.745 3.016-1.372 4.66-2.247 5.033-.607.318-1.827 1.228-2.038 1.891-.198.624.051 1.314.475 1.743.39.396.902.584 1.467.323.51-.235 1.042-.445 1.51-.748 1.435-.927 2.508-1.664 3.365-3.66.352-.819.667-1.712 1.207-2.474.44-.621.82-.623 1.19.049.07.122.128.25.175.381.84 2.425 1.625 4.647 2.705 6.97.333.717.832 1.146 1.367 1.235-.011.342.194.925.208 1.126.009.134.098.261.131.395.257 1.046.554 2.079.874 3.104a14.294 14.294 0 0 0-1.25.015c-1.86.456-3.712.886-5.284 2.102-1.007.778-1.834 1.739-3.061 2.32-1.126.534-2.209 1.064-3.44 1.275-.188.032-.437-.014-.501.217-.059.21.136.425.272.561.655.654 1.355 1.486 1.966 2.178.975 1.1 1.266 1.33.673 2.351-.7 1.207-1.258 2.493-1.928 3.718-.276.504-.177.708.364.791.864.133 2.383.475 3.253.544.91.072.878.322 1.486.996 1.363 1.51 2.996 2.691 4.964 3.347.553.184 1.02.455 1.374.918.575.753 1.19 1.478 1.726 2.257.324.473.532.548.948.095.705-.771 1.591-1.325 2.508-1.825.687-.376 1.404-.469 2-.051.682.478 1.218 1.23 1.736 1.939.48.655.62.882 1.269.112.072-.085.132-.181.203-.267 1.195-1.435 2.123-1.271 2.123-1.271.273.141 1.056.264 1.774.972.476.226.483.377.104.727-.45.416-.808 1.123-.923 1.789 1.09-.146 2.017.228 2.94.613.322.134.664.249.626-.271-.063-.884-.105-1.776-.44-2.619-.177-.447-.595-.628-.943-.383-.48.337-.682.15-1.031-.115-1.115-.845-2.367-1.438-3.766-1.573-2.3-.221-4.613-.314-6.914-.531-1.626-.154-3.25-.368-4.82-.859-.341-.107-.539-.084-.52-.529.05-1.219.087-2.175.364-3.765.068-.176.088-.319-.041-.458-.082-.088-2.046.581-3.63.811-1.267.35-1.674.221-2.275-.664-.46-.678-.696-1.242-.996-1.993-1.318-3.298-1.11-6.449.914-9.35.384-.551 1.066-.849 1.066-.849 1.677.321 2.493.947 3.368 1.455.66.383.913.241.987-.506.036-.36.331-3.481.331-3.481.55-.207 1.497-.326 2.575-.269.674 2.107 1.438 4.185 2.152 6.279.737 2.161 1.417 4.35 2.67 6.299.707 1.099 1.5 1.899 2.953 2.229 3.357.762 6.724 1.408 10.148 1.704 3.874.334 7.74.584 11.65.155 3.437-.378 6.383-1.211 9.355-2.898.735-.417 1.542-.967 1.86-1.93.44-1.337.986-2.664 1.422-4.009 1.601-4.935 2.734-9.984 3.533-15.106.062-.371.105-.746.127-1.121.092.037.187.068.284.09.952.222 1.422-.471 1.922-1.173 1.184-1.658 2.27-3.285 3.243-5.082.27-.502.506-.986 1.14-1.231.445.027.046 2.634.09 3.86.02 1.634-.063 2.07 1.783 3.128.51.293.963.827 1.442 1.171.431.309 1.191.55 1.725.23.93-.557 1.01-1.202.682-2.099-.2-.544-.732-.951-1.133-1.341-.43-.417-.658-.879-.589-1.491.208-1.85.388-3.367.886-5.917.267-2.351 1.123-3.427 3.62-3.826.301-.048.727-.369 1.028-.432.46-.098 1.022-.763 1.546-1.572-.039 1.429-.301 5.978-.316 7.704-.001.146-.145.807-.194.948-.076.226-.11.486.05.682.119.145.299.035.304-.011.123-1.184.339-5.47.536-9.945.467-.803.879-1.636 1.234-2.493.1-.26.21-.517.286-.784.275-.962-.176-1.602-.897-1.926a1.836 1.836 0 0 0-.401-.128c.136-3.483.225-6.27.202-6.643l-.003-.042c.569-.219 1.137-.44 1.702-.67.688-.28 1.168-.22 1.583.424.313.486.801.565 1.206.148 1.115-1.147 2.164-2.358 2.954-3.75.276-.485.267-1.063-.347-1.372Zm-56.793 65.075c.216.081.217.127.319.339.133.285.219.589.254.901.028.247.037.496.027.744v.001a9.1 9.1 0 0 1-.012.259c-.557-.152-1.082-.333-1.623-.431l-.75-.137.057-.123.032-.066.023-.046c.014-.029.03-.057.044-.084l.01-.018c.632-1.186 1.38-1.406 1.618-1.339Zm-4.394-1.557.02.003.138.023c-.939.222-1.433 1.058-1.84 1.547-.239.286-.41.242-.526-.018-.318-.709-1.196-1.415-1.682-1.997 1.067-.009 2.785.261 3.89.442Zm-7.737-.664c.403.024.81.039 1.226.05-.898.658-1.803 1.011-2.633 1.915-.22.165-.245.07-.353-.1a5.36 5.36 0 0 0-.294-.415c-.436-.561-.955-1.058-1.513-1.997 1.209.328 2.366.476 3.568.547Zm-5.797-5.332c.327-.067.48-.007.446.36l-.043.464c-.048.537-.091 1.074-.138 1.611l-.006.063c-.02.232-.041.464-.064.695-.018.191-.105.442-.372.311l-.288-.142-.074-.037-.224-.113-.085-.043-.224-.117-.073-.039c-1.034-.551-2.025-1.212-2.76-2.247 1.431-.279 2.67-.514 3.905-.766Zm-6.13-1.869.14.34.003.006a35.923 35.923 0 0 0 .298.691l.01.022.155.349c-.093.001-.186 0-.278-.001l-.075-.002a8.279 8.279 0 0 1-.224-.009l-.052-.002-.27-.018-.05-.005a8.46 8.46 0 0 1-.229-.022l-.054-.006c-.182-.02-.362-.044-.54-.072l-.037-.006a21.419 21.419 0 0 1-1.48-.301c-.423-.099-.165-.412-.073-.601.525-1.069 1.29-2.345 1.829-3.407.217 1.04.528 2.058.927 3.044Zm-1.14-5.17-.172-.188-.056-.062-.109-.12-.067-.075-.092-.103-.073-.082-.077-.086-.084-.096-.035-.039-.553-.631a23.174 23.174 0 0 0-.86-.933c-.334-.338-.253-.464.086-.56 1.021-.288 2.11-.641 3.065-1.183a8.99 8.99 0 0 0 .279-.167l.058-.037c.093-.06.184-.12.273-.184-1.062 1.339-1.303 2.761-1.582 4.546Zm7.54-7.612c0 .018-.002.037-.004.057 0 .014 0 .028-.002.044a1.058 1.058 0 0 1-.01.073c-.001.013-.002.026-.005.04-.006.04-.013.081-.023.125-.082.702-.182 1.413-.172 2.138.007.503-.12.785-.628.365a2.917 2.917 0 0 0-.255-.191l-.021-.016a4.96 4.96 0 0 0-.305-.188c-.65-.368-1.437-.628-2.107-.787-.486-.188-.318-.335.104-.63.803-.561 1.628-1.063 2.588-1.354a1.59 1.59 0 0 1 .507-.089h.01a.91.91 0 0 1 .053.007l.02.003a.304.304 0 0 1 .042.012l.022.008a.22.22 0 0 1 .033.017l.02.012a.21.21 0 0 1 .028.022c.006.006.012.011.017.018a.236.236 0 0 1 .036.05l.015.032.01.03c.004.012.008.023.01.036a.468.468 0 0 1 .008.038l.005.039.002.046.002.043Zm60.443-33.01c1.888 0 2.965 1.383 2.952 2.887-.014 1.715-1.233 3.051-2.597 3.055-1.875.006-3.23-1.08-3.225-2.773.007-1.779 1.087-3.197 2.87-3.17Zm-5.382-1.795c-.026.724-.179 1.425-.706 2.005-.297.327-.606.497-1.033.38-.398-.11-.443-.442-.49-.79-.117-.848.184-1.58.587-2.294.148-.264.358-.341.569-.263.742-.02 1.097.337 1.074.962Zm-1.225 7.704c.32 1.056.423 2.082-.092 3.143-1.68 3.46-3.035 7.063-4.639 10.557 1.174-3.82 3.235-12.6 4.285-17.101 0 1.094.219 2.651.446 3.401Zm6.27-35.255a363.244 363.244 0 0 1-3.646 16.419c-.654 2.67-1.679 6.84-2.296 9.518a.798.798 0 0 1-.026.083 9.47 9.47 0 0 1-.217-.068c-.433-.144-.756.383-.976.772-.363.638-.521 1.34-.58 2.054 0 .623.111 1.174.734 1.485.088.045.181.081.277.106-1.07 4.845-3.763 15.173-5.052 20.232-.105.213-.21.426-.317.638a1.086 1.086 0 0 0-.121.532c-.415-.014-1.248.155-1.379.177-1.1.183-3.029.362-4.243.543-.093-.243-.18-.47-.255-.676a.303.303 0 0 1-.019-.125c.263-.818.58-1.624.748-2.477.141-.724-.027-1.351-.796-1.715-.576-.273-1.31-.039-1.726.575-.686-1.463-1.781-4.03-2.271-5.368-.18-.492-.365-.984-.579-1.463-.065-.148-.324-.898-.576-1.137.844-3.014 1.243-5.597 1.993-8.729.277-1.158.221-2.424.901-3.456 2.049-3.108 4.625-6.761 7.037-9.598 2.613-3.072 5.096-6.23 7.223-9.646 4.063-5.967 5.97-10.619 7.224-15.065-.455 2.767-.891 5.526-1.06 6.389h-.001Zm-13.864 56.504-.11.146-.013.018-.104.135-.02.025-.1.129a5.244 5.244 0 0 1-.022.027l-.1.125-.02.025-.104.125-.009.011c-.108.13-.216.255-.323.374l-.026.029-.074.081-.05.055a5.703 5.703 0 0 1-.067.07l-.057.061-.061.062-.062.062-.057.056-.064.062a2.681 2.681 0 0 1-.052.05l-.068.062-.047.043-.075.066-.037.032c-.037.031-.074.062-.11.09a1.808 1.808 0 0 0-.11-.8l-.044-.121-.033-.089c-.47-1.28-1.254-3.208-1.832-4.694l.044.001c1.076-.009 4.261-.499 5.516-.711.078.21.204.4.369.553-.11.212-.198.577-.232.669-.348.923-1.067 2.122-1.846 3.171Zm-2.145 1.987v.003a.742.742 0 0 1-.024.2c0 .004-.002.008-.003.011a.628.628 0 0 1-.011.036l-.005.016a.768.768 0 0 1-.014.033l-.008.018a.755.755 0 0 1-.016.031l-.01.019a.956.956 0 0 1-.018.03l-.012.02-.02.029-.015.021-.023.028a1.61 1.61 0 0 1-.017.021l-.025.029a1.95 1.95 0 0 1-.047.049l-.023.023-.03.027-.026.024-.031.028-.03.025-.033.027-.034.026a1.768 1.768 0 0 1-.035.027l-.038.029-.036.026a1.94 1.94 0 0 0-.045.032l-.035.024a1.242 1.242 0 0 1-.056.038l-.03.021-.092.06c-.908.589-2.102.853-3.126 1.186-.498.162-1.264.408-1.982.64a19.255 19.255 0 0 1-.038-.517l-.01-.167-.001-.031a60.251 60.251 0 0 1-.03-.572v-.01c-.04-.869-.073-1.819-.125-2.474-.036-.439.12-.697.49-.961 1.44-1.032 2.86-2.075 3.288-3.964.02-.089.042-.177.065-.265a.977.977 0 0 0 .034.082c.629 1.34 1.43 3.617 1.973 4.987l.1.255.005.016.025.066.008.022.022.06.009.025.018.054.01.026.016.05.008.027.014.047.007.026.013.045.006.024.01.044.005.023.009.043.003.021a.76.76 0 0 1 .006.042l.002.018.005.043v.013l.003.045Zm-6.646-1.987c.189 1.047.158 2.103.192 3.164.016.505.083 1.046.138 1.798-.437.141-.832.269-1.106.36-.144-.494-.541-.704-1.534-.867-1.218-.199-2.56-.013-3.609-.897-.221-.187-.31-.022-.337.142-.065.383.168.545.516.623 1.182.263 2.368.5 3.58.583.48.033 1.012.249 1.011.972 0 .627-.428 1.143-1.203 1.264-2.209.346-3.947.138-6.012-.829-.307-.144-.52-.369-.45-.723.381-1.904.66-3.841 1.63-5.574.417-.744.997-1.253 1.924-1.318.641-.045 1.897-.302 2.46-.663.908-.582 1.307-.776 2.32-1.127 1.388-.482 2.374-1.31 2.761-2.786.182-.693.379-1.418.673-2.079.263-.592.77-.811 1.373-.604.674.231.662.849.545 1.365-.24 1.059-.686 2.066-.946 3.108-.45 1.805-1.658 2.917-3.121 3.871-.133.087-.31.345-.456.021-.073-.164-.097-.334-.333-.234-.23.098-.043.279-.016.43Zm-.726 5.583-.005-.043a.07.07 0 0 1 .006.043Zm-8.285-1.345-.002.007-.095.407-.029.121c-.035.15-.071.299-.108.449-.068.24-.087.491-.054.738-.5-.057-1.003-.089-1.506-.097-1.864.016-7.823-.513-7.823-.513a5.215 5.215 0 0 1-.066-.215l-.014-.049a6.5 6.5 0 0 1-.054-.208l-.008-.034a6.568 6.568 0 0 1-.04-.182c-.002-.017-.006-.034-.01-.052a10.035 10.035 0 0 1-.07-.399c-.039-.25-.072-.498-.113-.741a7.156 7.156 0 0 0-.098-.497c-.19-.797-.446-.957.33-1.032 1.285-.377 2.687-.648 3.182-1.635a37.52 37.52 0 0 0 1.258-2.792c.216.028 1.209.141 1.26.143 1.713.102 3.846.315 5.772.186 0 0 .687.538 1.084.65 0 0-.747.446-.904.708-.172.287-.373.558-.53.853-.7 1.321-1.03 2.751-1.362 4.184Zm-17.058.068c-.739 1.178-1.85 1.791-3.008 2.326-.485-.548-1.155-1.066-2.049-1.462.123-.084.248-.165.374-.245 1.17-.747 2.156-1.666 2.766-3.041.74-1.666 1.41-2.689 3.024-3.283.207-.075.384-.245.633-.133.852.384 1.715.112 2.576.039 1.068-.091 2.113.243 3.197.125.588-.063.915-.209 1.112-.769.268-.761.6-1.5.934-2.236.308-.678.958-.966 1.686-.612.622.303.664.851.422 1.477-.462 1.196-.917 2.392-1.49 3.541-.473.947-1.462 1.052-3.222 1.572-.385-.081-.219-.023-.369-.237-.103-.147-.064-.856-.36-.755-.22.075-.154.274-.108.427.344 1.127.67 2.844.891 4.252 0 0-1.021.005-1.633-.069-1.93-.236-3.2-.413-5.13-.657.184-.596.74-1.029.807-1.81-.687.392-.749 1.066-1.052 1.55Zm-3.386 2.497c-.285.128-.572.255-.855.387-.644.301-1.148.104-1.465-.41-.262-.425-.055-.925.24-1.262.77.296 1.494.715 2.08 1.285Zm2.986-11.284c.023.256.06.51.113.762-1.586-.439-3.432-.337-4.862-.013 1.905-3.845 3.685-7.863 5.519-11.775 1.134 1.758 1.845 3.11 3.837 3.649 4.495 1.276 11.504 1.421 17.113-.18 1.512-.408 3.393-2.002 3.878-3.63l.037-.128c.12.286.288.569.316.644a53.9 53.9 0 0 0 .948 2.312c.513 1.193 1.47 3.351 2.114 4.823-.24.531-.398 1.117-.514 1.671-.376 1.796-1.589 2.666-3.248 3.121-.215.059-.346.153-.686.28.122-.445.217-.544.295-.864.366-1.509-.222-3.035-1.6-3.703-1.043-.505-2.418-.566-3.508.153-1.29.852-2.16 2.547-1.026 4.75 0 0-1.023.113-1.665.09a14.917 14.917 0 0 1-.423-.023 804.062 804.062 0 0 0-4.359-.295l.25-.624c.366-.926.007-1.678-.804-1.979a1.688 1.688 0 0 0-2.19.971c-.101.251-.366.898-.594 1.459-.51-.143-1.558-.116-1.83-.152-.273-.036-.487-.075-.637-.081.131-.374.175-.76.232-1.261.129-1.123-.59-2.624-2.1-3.122-3.255-.926-4.745 1.454-4.606 3.145Zm.18-13.801a260.452 260.452 0 0 1-1.443-3.705c.42.224.854.422 1.298.593.667.256 1.348.475 2.04.655 3.069.815 6.944 1.201 10.422 1.183 4.87-.024 10.507-1.006 13.624-2.229l.148-.059.005-.003.141-.058.033-.014.11-.047.139-.061a169.875 169.875 0 0 1-.862 3.84c-7.092 3.154-15.431 3.592-22.855 1.315a31.212 31.212 0 0 1-2.61-.928l-.19-.482Zm27.523-8.643v.002a7.55 7.55 0 0 1-.013.066v.002l-.03.145a.085.085 0 0 1-.004.022l-.015.076a.268.268 0 0 0-.002.013l-.012.06-.02.097-.009.047-.008.041-.016.078-.008.045a7.882 7.882 0 0 0-.044.217l-.006.032-.028.139v.001l-.06.298-.013.061-.02.103-.01.051c-.01.042-.018.083-.026.126l-.008.04-.032.154-.004.018-.075.37-.01.045-.027.135-.014.066-.028.14-.011.051-.03.145-.012.059a156.8 156.8 0 0 1-.084.405l-.014.064a63.75 63.75 0 0 0-.045.219l-.03.14-.015.073-.029.138-.017.082a70.926 70.926 0 0 0-.092.433c-4.329 1.682-10.021 2.39-14.444 2.408-3.357.014-7.002-.447-10.409-1.331a37.891 37.891 0 0 1-3.342-1.037 81 81 0 0 1-1.478-4.267c.762.249 2.293.756 2.912.952 4.034 1.272 8.191 1.71 12.401 1.877a33.393 33.393 0 0 0 6.817-.452c2.638-.439 6.207-1.845 8.63-3.478-.034.169-.076.387-.137.684l-.028.145Zm-25.778 10.241c.378.136.772.262 1.179.381 2.534.739 5.53 1.158 7.612 1.309 4.005.29 8.8-.349 12.845-1.829.173-.064.344-.128.513-.195l.15-.059a34.96 34.96 0 0 0 .527-.217c.116-.049.231-.099.345-.15.05-.022.101-.044.15-.067.162-.073.322-.147.48-.223-.1.41-.198.795-.292 1.145-.466 1.748-1.412 2.832-2.86 3.609-4.08 2.187-14.592 1.733-17.447.734a5.292 5.292 0 0 1-.268-.079l-.08-.025a8.12 8.12 0 0 1-.184-.064l-.08-.029a5.515 5.515 0 0 1-.196-.079l-.048-.019a5.387 5.387 0 0 1-.235-.108l-.044-.022a4.712 4.712 0 0 1-.181-.095l-.06-.033a4.593 4.593 0 0 1-.17-.099l-.043-.027a5.18 5.18 0 0 1-.404-.281l-.033-.026a7.04 7.04 0 0 1-.16-.131l-.03-.026a5.334 5.334 0 0 1-.523-.52l-.012-.014c-.712-.816-1.204-1.842-1.66-3l-.123-.313c.434.208.879.392 1.333.553v-.001Zm22.572 12.252c-.038 1.858-1.271 2.708-3.242 2.639-1.716-.059-2.475-1.151-2.579-2.817-.08-1.283.91-2.612 2.479-2.739 1.936-.252 3.548.949 3.342 2.917Zm-15.689 1.749-.21.522c-.098.429-1.068.494-2.955.276a3.67 3.67 0 0 1 .314-.455c.139-.173.261-.358.365-.554.249.032.5.049.751.05.313.009 1.204.119 1.736.161Zm-5.509-4.789c1.847.057 3.37 1.306 3.043 3.314-.259 1.7-.893 2.51-3.082 2.491-1.524-.014-2.885-1.325-2.858-2.921.023-1.357 1.006-2.884 2.897-2.884Zm39.887-97.325c-.074.353-.282.98-.671 1.008-.469.033-1.163-.411-1.504-.685 0 0 1.11-1.293 1.285-2.294 0 0 1.17 1.238.89 1.971Zm2.228-11.354c-1.311 2.299-2.56 4.632-3.876 7.025l-.018-.023c-.428-.532-.722-1.082-.617-1.73a1.93 1.93 0 0 1 .135-.455c.907-2.108 2.194-4.123 3.266-6.141.507-.957 1.291-2.318 1.894-3.37.595 1.55-.075 3.45-.784 4.694Zm-14.718 3.785c.059-.386.294-.79.636-.976.601-.326 1.263-.148 1.898-.02.985.197 1.545-.158 2.038-1.008.656-1.132 1.484-2.167 2.237-3.244.72-1.031.71-1.155-.146-2.07-.47-.501-.389-.82.271-1.126 1.742-.808 3.596-1.093 5.14-1.172 1.09.005 1.815.048 2.53.266.247.076.407.167.488.285V5a.35.35 0 0 1 .023.04l.005.01a.327.327 0 0 1 .016.04l.004.013a.37.37 0 0 1 .009.04l.001.014a.474.474 0 0 1-.005.138l-.005.03-.01.036a.876.876 0 0 1-.055.15 1.743 1.743 0 0 1-.025.053l-.014.029a2.743 2.743 0 0 1-.049.087c-.84 1.447-1.7 2.884-2.46 4.372-.849 1.664-1.897 3.223-2.616 4.955-.269.648-.273 1.22.096 1.82.32.523.568 1.09.895 1.61.434.688.44 1.291-.053 1.988-.723 1.023-.547 1.402-1.665.91-2.43-1.068-4.905-2.71-7-4.338-.819-.635-1.345-1.494-2.024-2.233a.561.561 0 0 1-.058-.077l-.018-.03a.624.624 0 0 1-.075-.197l-.007-.036c-.02-.12-.021-.24-.002-.36Zm-56.225 20.68c2.668-7.667 11.322-14.707 13.184-15.853 3.698-2.274 7.427-4.55 11.664-5.655 5.235-1.367 16.552-3.405 27.692.398.165.06.331.117.499.17.231.076.464.148.696.221l.198.063.091.03c.095.031.19.063.284.096.508.185 1 .405 1.476.66 1.16 1.86 3.506 3.455 5.276 4.574 1.517.958 3.259 1.887 4.103 2.332.987.517 1.914.974 2.936 1.37 0 0 .774.656 1.236 1.487.486.875 1.164 1.643 1.708 2.489.53.823 1.026 1.67 1.481 2.535.467.888.907 1.795 1.288 2.722 1.081 2.63 2.06 5.31 2.525 8.112.73 4.399 1.248 8.814.803 13.303-.406 4.088-1.108 13.711-11.025 27.617-1.909 2.772-4.103 5.325-6.209 7.946-2.053 2.555-4.081 5.6-6.012 8.247-.11.143-.212.292-.305.447-.934.546-3.065 1.976-4.61 2.529-4.116 1.474-8.248 1.805-12.624 1.462-3.038-.237-6.08-.424-9.02-1.325a217.71 217.71 0 0 0-3.798-1.13c-.138-.04-.798-.457-1.113-.499-.4-1.162-1.355-2.061-2.038-3.089-1.889-2.84-3.946-5.565-5.953-8.324-1.943-2.671-3.736-5.448-5.638-8.149a61.45 61.45 0 0 1-.52-.75l-.15-.219a61.779 61.779 0 0 1-.397-.588c-2.837-4.248-5.225-8.738-7.268-13.413-1.681-3.847-2.43-7.91-2.811-12.06-.335-3.651-.38-11.029 2.351-17.756Zm-.314 43.675c-.664-.124-1.332-.261-2.005-.303-2.89-.183-5.51.74-7.985 2.084-1.622.88-3.196 1.806-5.155 1.527-.138-.02-.769-.004-.966-.141 1.838-.92 2.86-2.921 4.562-3.917-.433-.193-.691-.008-.95.136-1.102.616-2.234.43-3.37.13-.158-.042-.738-.08-.717-.284.01-.098.54-.205.657-.262 1.811-.88 3.252-2.29 4.925-3.365 2.714-1.746 5.663-2.215 8.81-1.532.658.143 1.607.127 2.051.602 0 0-.105 1.214-.049 1.833.046.493.094.988.175 1.476.01.064.022.128.034.192v.005l.036.182.003.014.038.172.005.024c.012.054.026.107.04.16l.008.034c.012.05.026.099.04.148l.012.044.043.141.015.049c.015.047.03.094.047.14l.016.048c.022.062.045.124.07.186.153.39.085.565-.39.477Zm.97-8.247 3.56 12.729c-3.638-2.279-5.336-8.268-3.56-12.73Zm7.9 25.069c-1.392-4.672-2.634-8.38-3.903-12.59-1.251-4.152-4.558-16.666-5.052-18.926.598 1.278 1.615 3.651 2.237 4.917 2.273 4.628 5.08 8.933 7.976 13.202 3.6 5.307 7.514 10.392 11.148 15.674 1.223 1.777 1.706 3.773 2.395 5.728.767 2.182 1.606 4.339 2.445 6.494.164.421.191.779.012 1.192-1.694 3.89-3.475 7.74-5.415 11.517-.432.84-1.338 1.169-2.056 1.691-.268.196-.367-.162-.427-.354-1.577-4.967-3.382-9.866-4.58-14.947-.192-.814-.144-1.508.562-2.105.619-.523 1.174-1.125 1.722-1.725.26-.285.464-.63.649-.971.368-.679.161-1.318-.567-1.658-1.65-.77-3.182-1.55-5.08-1.578-.467-.006-.452-.425-.558-.677-.488-1.683-1.058-3.25-1.508-4.884Zm-5.88 6.118c.048-1.806 1.092-2.76 3.178-2.868 1.431-.074 2.904 1.513 2.84 2.953-.081 1.788-1.293 2.995-2.96 2.95-1.881-.052-3.108-1.108-3.058-3.035Zm-3.707-9.753c.41.123.741.507.922.876.018.036.034.072.049.108l.003.009c.013.032.025.063.035.094l.007.018c.009.028.017.055.024.083l.005.02a.938.938 0 0 1 .019.095c.08.545-.714.527-1.165.608a.869.869 0 0 0-.085-.017l-.008-.001a1.502 1.502 0 0 0-.084-.01l-.008-.001a2.37 2.37 0 0 0-.086-.006c-.164-.01-.334-.013-.469-.066-.137-.054-.238-.16-.256-.382-.04-.487.718-1.542 1.097-1.428Zm-1.93 3.634c.07-.212.147-.42.201-.636.166-.662.396-1.022.396-1.022 1.097.723 2.36.105 2.657-.1 0 0 .125.22.366.738.177.38.385.745.585 1.114l.02.037c.059.108.117.215.173.325.376.729.075 1.122-.654 1.364-.495.166-1.009.08-1.433.199-.403-.028-.744-.03-1.077-.078a6.308 6.308 0 0 1-.154-.024l-.041-.008a4.181 4.181 0 0 1-.114-.021l-.032-.006-.134-.03-.02-.006a2.905 2.905 0 0 1-.105-.028l-.03-.01a2.316 2.316 0 0 1-.109-.035l-.004-.002a1.717 1.717 0 0 1-.105-.042l-.019-.009a1.284 1.284 0 0 1-.08-.04l-.016-.008a1.045 1.045 0 0 1-.16-.108l-.013-.01a.83.83 0 0 1-.064-.06v-.001a.757.757 0 0 1-.059-.07l-.005-.006a.707.707 0 0 1-.043-.068l-.005-.01a.77.77 0 0 1-.067-.166l-.002-.01a.891.891 0 0 1-.019-.09v-.002a1.083 1.083 0 0 1-.011-.104c-.015-.255.047-.572.177-.967Zm-.518 8.209c-.122-.586-.088-1.153.233-1.684.372-.615.882-.641 1.288-.033.32.481.286 1.04.282 1.657-.089.429.141 1.08-.589 1.247-.547.125-1.059-.443-1.214-1.187Zm1.543 8.497c-.3-1.636-.49-4.476-.659-6.136-.04-.403-.04-.733.513-.722.535.011.77-.636.79-1.088.032-.694.06-.883-.055-1.58-.106-.636-.39-1.322-1.021-1.525-.44-.141-.622-.398-.607-.863.023-.75-.316-1.773-.224-2.533.036-.3.103-.283.549-.124 1.474.528 2.922.407 4.373-.27.106 1.5.224 2.937.307 4.375.117 2.026.22 4.053.307 6.08a150.8 150.8 0 0 1 .116 3.921c.023 1.263-.397 1.88-2.247 1.846a4.619 4.619 0 0 1-.187.022l-.048.004c-.054.004-.108.008-.16.01l-.016.001a4.498 4.498 0 0 1-.164 0l-.04-.001a2.808 2.808 0 0 1-.134-.008l-.021-.002a2.95 2.95 0 0 1-.144-.018l-.03-.006a1.96 1.96 0 0 1-.116-.024l-.02-.004a1.506 1.506 0 0 1-.125-.037l-.019-.007a1.126 1.126 0 0 1-.103-.04l-.017-.007a1.202 1.202 0 0 1-.108-.053l-.007-.004a1.3 1.3 0 0 1-.093-.057l-.012-.008a1.203 1.203 0 0 1-.173-.143l-.006-.006a1.242 1.242 0 0 1-.14-.169l-.003-.003a1.584 1.584 0 0 1-.256-.821Zm3.096 3.144c-.055.008-.11.014-.164.019l-.05.005-.117.009-.053.003-.124.004-.04.001c-.056 0-.111 0-.167-.002h-.003a4.384 4.384 0 0 1-.162-.007l-.038-.003a2.883 2.883 0 0 1-.13-.012l-.04-.004c-.049-.005-.098-.012-.147-.019l-.015-.002a5.306 5.306 0 0 1-.986-.25c-.842-.303-.69-1.028-.793-1.678.51.707 2.437.956 4.116.066a5.5 5.5 0 0 0 .197-.109c.61.994.147 1.779-1.284 1.978v.001Zm14.052 9.716c-1.138-2.393-1.903-4.469-2.78-6.975a6.581 6.581 0 0 0-.266-.611 1.09 1.09 0 0 0-.368-.412 1.12 1.12 0 0 0-.525-.183c-.42-.036-.578.247-.775.532-.775 1.116-1.181 2.438-1.815 3.615-.957 1.776-2.529 2.714-4.37 3.356-.375.131-.739-.137-.924-.46-.24-.417-.356-.871-.036-1.338.49-.718 1.238-1.136 1.917-1.624.742-.533 1.265-1.585 2.165-4.818.205-.635.076-1.215-.123-1.79-.554-1.606-1.07-3.225-1.777-4.778-.397-.871-.916-1.58-1.837-1.973-.706-.301-1.017-.107-.978-.918.037-.749-.139-2.443-.139-3.315 1.108 1.75 3.185 2.232 5.296.992.854-.501 1.902-.465 2.804-.149.434 1.9.677 2.789.97 4.27 1.585 5.894 2.674 10.938 4.333 16.293.104.335.213.868.344 1.223-.487-.052-.927-.539-1.117-.938v.001Zm1.085-.622a448.086 448.086 0 0 1-2.942-11.074c-.772-3.081-1.454-6.105-2.154-8.725-.028-.127-.045-.211-.065-.274.704.202 1.444.244 2.094.603.114.063.297.042.338-.134.04-.175-.114-.251-.244-.288-.676-.193-1.367-.343-2.033-.566-.536-.179-1.027-.238-1.243-.822-.317-.859.165-1.849 1.066-1.718 1.697.245 3.236.798 4.643 1.77.33.228.26.656.106.956-.324.632-.8 1.14-1.318 1.616-.268.247-.535.495-.811.732-.834.715-1.121 1.479-.783 2.638 1.027 3.525 1.77 7.132 3.112 10.566a53.624 53.624 0 0 1 1.577 4.708c.215.739-.301 1.179-.817 1.46-.08-.421-.396-1.034-.526-1.448Zm.438 2.044.023-.006c.02-.006.039-.011.058-.018l.025-.008a1.426 1.426 0 0 0 .154-.062l.003-.002a1.777 1.777 0 0 0 .25-.146l.004-.003.08-.06a2.45 2.45 0 0 0 .415-.421c1.983-2.535 4.571-3.046 7.557-2.521.245.043.513-.005.619.315.18.546.636.897 1.064 1.361-1.053.488-2.215 1.094-2.716 2.214-.2.446-.399.956-.65 1.461v.001a9.536 9.536 0 0 1-.09.176l-.074.14-.02.036a5.405 5.405 0 0 1-.071.125l-.03.051a8.2 8.2 0 0 1-.068.111l-.04.064-.063.097-.054.077a2.024 2.024 0 0 1-.057.082l-.071.095-.046.061a4.652 4.652 0 0 1-.126.153s-.102.039-.498-.126c-.7-.293-1.43-.524-2.12-.838-1.07-.488-2.213-.845-3.123-1.634-.116-.101-.254-.491-.414-.756l.08-.019Zm.212 1.396c1.886.925 3.588 1.694 5.397 2.38-.576.666-1.314.964-1.928 1.414a9.418 9.418 0 0 0-2.621-.522c-.323-1.017-.539-2.079-.848-3.273v.001Zm35.333 18.981c-1.008.26-2.016.552-3.043.703a47.148 47.148 0 0 1-10.039.372c-2.619-.176-5.222-.475-7.816-.813-2.141-.278-4.267-.735-6.374-1.241-.584-.14-1.064-.348-1.435-.792a10.822 10.822 0 0 1-.216-.265l-.1-.129-.105-.138-.13-.179-.065-.091c-.05-.07-.099-.142-.147-.213a14.072 14.072 0 0 1-.197-.301l-.022-.033a10.29 10.29 0 0 1-.161-.263l-.01-.015a12.691 12.691 0 0 1-.162-.279l-.002-.004a13.452 13.452 0 0 1-.158-.285l-.001-.001a18.735 18.735 0 0 1-1.148-2.628 522.864 522.864 0 0 1-2.995-8.629 9.77 9.77 0 0 1 2.054.408c-.363.444-.488 1.052-.229 1.587.362.75 1.222.966 1.882.682.393-.169.788-.336 1.177-.512l.092.11c.533.659.563 1.391.652 1.866-.516.245-1.052.496-1.646.777.902.537 1.73 1.035 2.565 1.524.332.194.466-.015.514-.298.088-.517.153-1.039.235-1.557.043-.272.043-.345.129-1.085-.287-.217-.69.106-1.047.279-.118.058-.238.115-.357.172-.035-.543-.274-1.254-.79-1.948 1.018-.486 1.972-1.068 2.697-1.982.06.019.121.034.184.045 2.478.437 5.85.693 8.352.891 2.246.177 4.479.325 6.747.407.35.013 1.196.095 1.705.054.147.198.38.353.707.481 1.953.764 3.96 1.039 6.049.771 1.037-.133 1.672-.596 1.668-1.641a3.99 3.99 0 0 0-.013-.323c.872-.214 3.303-.983 5.07-1.616l.154-.055.029-.01.147-.054.005-.002.153-.056.02-.007.124-.047.029-.01.268-.103.027-.01.101-.04.026-.01.118-.047.007-.003a5.55 5.55 0 0 0 .102-.042l.027-.011.083-.035.02-.008.093-.041.017-.007.069-.031.023-.011.064-.03.012-.006a1.46 1.46 0 0 0 .067-.033l.016-.008.043-.024.016-.008.047-.029c.04-.036.08-.074.117-.112-.115.365-.247.769-.283.925-1.204 5.173-2.399 10.344-4.797 15.153-.252.504-.522.817-1.015.944Zm-27.342-10.885c.01.492-.133.855-.228 1.264a3.365 3.365 0 0 0-.045.225l-.005.035a2.6 2.6 0 0 0-.016.118 5.627 5.627 0 0 0-.298-.156 29.675 29.675 0 0 0-.35-.174l-.006-.003c-.405-.201-.813-.413-1.132-.706a6.88 6.88 0 0 0 .936-.367.076.076 0 0 0 .042-.02c.572-.269 1.072-.555 1.072-.555.017.112.027.225.03.338v.001Zm37.873-11.098c-.93 5.63-2.447 12.042-4.53 17.591-.725 2.083-1.337 2.28-3.677 3.401-.211.073-.522.303-.927.317 0 0 .29-.63.368-.814.195-.462.462-.896.641-1.363 1.148-2.994 1.993-6.082 2.88-9.155a49.62 49.62 0 0 0 .946-3.81c.037-.179.256-1.039.362-1.694 1.489-1.008 3.06-3.266 4.141-5.578.054.138-.197 1.059-.204 1.104v.001Zm18.313-18.329-.379.609c-.64 1.245-1.169 1.483-2.107 1.815-.236.084-.49.122-.733.191-1.406.397-2.628.974-3.089 2.544-.186.633-1.03 5.266-1.282 6.945-.16 1.076.068 1.961.945 2.69.474.394 1.05.913.982 1.603-.21.993-1.248 1.092-1.66.757-.892-.726-1.804-1.355-2.71-2.063-.432-.337-.556-.865-.558-1.387-.003-.694.18-3.643.005-4.413-.152-.665-.495-.775-1.002-.31-.63.577-3.343 5.164-4.454 6.637-.424.563-.917.879-1.566.516-.733-.41-.495-1.098-.279-1.591 1.87-4.261 3.747-8.52 5.63-12.776.304-.684.456-1.356.224-2.095-.317-1.009-.603-2.028-.731-3.084-.012-.099-.008-1.978-.085-2.545v-.003a1.1 1.1 0 0 0 .568-.201c.411-.284.773-.962.976-1.659.034.47.095 1.198.206 2.223.14 1.3.25 2.554 1.51 3.386 1.154.763 2.32 1.386 3.695 1.703 1.674.386 3.405-.212 4.276-1.679.358-.601.678-1.227 1.072-1.803a1.2 1.2 0 0 1 .706-.49 306.98 306.98 0 0 0-.16 4.479v.001Zm1.261-4.175c.375.381.225.85.115 1.269-.213.81-.547 1.5-.976 2.24.056-1.307.11-2.612.159-3.842.266.026.515.144.702.333Zm6.461-11.271a22.025 22.025 0 0 1-2.563 3.304c-.353.379-.656.209-.87-.178-.411-.741-.935-.847-1.696-.522-1.757.753-3.556 1.412-5.34 2.102-.68.263-1.388.016-1.93-.815-.033-.05-.064-.1-.095-.15l-.02-.034a5.141 5.141 0 0 1-.072-.125l-.015-.029a5.807 5.807 0 0 1-.073-.137l-.009-.018a4.186 4.186 0 0 1-.453-1.938c-.077-.623.219-1.022.916-1.205 2.154-.564 4.34-.965 6.54-1.286.729-.106 1.17-.396 1.206-1.126.026-.517.233-.665.704-.548 1.242.312 2.347.981 3.444 1.604l.07.04c.455.258.525.63.255 1.06h.001Z"/>
    <path fill="#0D0D0D" d="M77.608 129.693h-.001l-.02.02.02-.02ZM37.35 0c1.296 3.62 2.532 7.263 4.335 10.677C40.205 7.131 38.891 3.519 37.349 0ZM6.029 37.542c2.427 1.33 5.003 2.29 7.688 2.981-2.525-1.087-5.149-1.93-7.688-2.981ZM22.505 24.36l-5.18-4.72c1.423 1.954 4.52 4.74 5.18 4.72Zm-7.749 33.663c-2.62.234-5.027 1.248-7.498 2.04 2.531-.555 4.978-1.415 7.498-2.04ZM.662 81.7c-.13-.179-.2-.589-.517-.379-.324.215-.022.501.118.712.706 1.062 2.135 1.557 3.75 1.2-1.922-.222-2.663-.587-3.35-1.534ZM68.556 2.977c-.974 1.794-1.802 5.084-1.387 5.787.351-2.033.955-3.884 1.387-5.787Zm24.876 23.356c1.968-1.24 3.964-2.438 5.707-3.99-1.893 1.343-6.015 3.387-5.707 3.99Zm-71.875 94.349c-.826.259-1.33.818-1.43 1.689-.118 1.026.272 1.748 1.137 2.183-1.113-1.844-.769-2.696.293-3.872ZM92.928 9.335c.478-.907.783-1.85.41-2.876-.062-.171-.156-.414-.41-.305-.2.086-.104.302-.047.443.35.879.134 1.703-.265 2.49-.234.464-.548.889-.826 1.33a2.464 2.464 0 0 0 1.138-1.082Zm5.12 49.478c2.08.794 4.277.877 6.453 1.095-2.129-.498-6.29-1.56-6.453-1.095ZM85.005 98.998c.165-1.805.208-1.873 2.318-3.764-1.509-.073-2.89 2.023-2.318 3.764Zm11.381 22.634c-.137-.084-.3-.231-.446-.068-.163.182.015.297.157.383.44.264.396.678.392 1.103-.007.756-.596 1.193-1.076 1.831 1.07-.504 1.668-1.545 1.523-2.455a1.096 1.096 0 0 0-.55-.794Zm-81.952-23.78c-.89-1.712-.252-3.05.613-4.371-1.423.885-1.861 3.273-.613 4.371ZM98.217 41.47c1.926-.025 3.662-.795 5.44-1.378-1.793.545-5.623.877-5.44 1.378Zm11.562 49.031c-.217.62-.251 1.86-1.743 3.376 1.56-.72 1.952-1.867 1.964-3.302l-.221-.074ZM75.61 115.863c1.125.412 1.832 1.133 1.87 2.541.556-1.404-.476-2.712-1.87-2.541Zm-21.994 39.812c-.15.075-.166.22-.102.354.456.944.51 1.879-.245 2.971 1.14-.917 1.353-2.258.677-3.163-.081-.11-.163-.246-.33-.162Zm-31.949-19.669c-.417 1.474.352 2.5 1.898 2.798-1.123-.506-1.619-1.471-1.898-2.798Zm24.708.535c.024-.19-.05-.444-.272-.451-.309-.01-.201.277-.19.44.057.87-.305 1.595-.723 2.329.764-.582 1.07-1.407 1.185-2.318Zm10.601-16.243c-.651-.955-1.54-1.148-2.25-.513.79.054 1.626-.204 2.25.513Zm-20.637-15.914c.96-1.098 1.055-1.602.518-2.413-.09-.136-.173-.319-.378-.239-.217.085-.161.273-.069.413.508.761.398 1.499-.071 2.239Z"/>
    <g opacity=".34">
      <path fill="#fff" d="M59.403 65.702c.105-.279.519-1.996.576-2.296.12-.631.317-1.133-.34-1.027-1.915.31-4.235.655-6.382.035-1.145-.33-1.105.026-.753 1.164.329 1.062.786 2.1.976 3.185.341 1.943.375 3.929.51 5.894.285 4.135.794 8.257.892 12.409 0 .53.046 1.35.08 1.878.037.573-.004.633.677.537.472-.067 1.474-.07 1.951-.039.617.04.52-.168.53-.805.026-1.923.022-3.845.115-5.77.18-3.728.264-7.462.578-11.181.154-1.814.193-2.925.59-3.984Zm2.426 35.578c-.246-.067-.08-.422-.041-.662.434-2.663 1.262-9.6 1.49-10.368.2-.679-.085-.968-.616-1.25-1.359-.72-2.866-.835-4.342-.995-1.686-.184-4.107-.085-5.754.436-.626.198-1.175.518-1.694.876-.416.288-.492.806-.404 1.29.557 3.064 1.807 10.359 1.727 10.659a.906.906 0 0 1-.059.009c.043.158.072.317.099.478 1.153.118 2.311.202 3.47.292 2.02.158 3.989.173 5.928-.003.052-.256.127-.507.196-.762Z"/>
      <path fill="#0D0D0D" d="M43.41 54.602c1.008 3.936 2.52 7.718 3.625 11.63.907 3.207 2.156 6.319 3.203 9.488.575 1.74.525 3.454.64 5.301.159 2.541.16 4.909.213 7.109.015.633-.105.624-.698.974-.384.226-.453.542-.38 1.051.397 2.728 1.745 10.878 1.916 11.694.116.85.303-.036.382-.053.08-.299-1.286-8.125-1.843-11.188-.089-.485-.013-1.003.404-1.29.519-.358 1.068-.68 1.694-.877 1.647-.52 4.068-.62 5.754-.436 1.476.16 2.983.276 4.342.996.53.281.816.57.615 1.249-.227.768-1.02 7.711-1.49 10.368-.33 1.877-.447 1.706-.18 1.708.561.004.577-1.376.618-1.63.267-1.675 1.088-8.661 1.455-10.46.098-.478.242-1.063-.331-1.353-.772-.39-.778-.487-.835-1.18-.076-.915-.23-2.405-.256-3.32-.07-2.42-.435-4.84-.046-7.26.494-3.071 1.106-6.127 1.901-9.13 1.147-4.33 2.52-9.208 3.821-13.765.245-.858.168-.878 1.231-1.189.512-.15 1.266-.565 1.033-1.217-.258-.721-1.075-.454-1.661-.35-2.417.431-4.849.755-7.28 1.088-5.106.699-10.173.434-15.242-.389-1.137-.184-2.369-.634-3.5-.134-.834.368-.817.836-.174 1.466.361.354.905.455 1.07 1.1Zm25.78-2.834c.163.014.418-.034.528.13.303.453-.907 1-1.409 1.04.102-.579.167-1.23.882-1.17ZM58.236 80.866c-.093 1.926-.089 3.848-.115 5.77-.01.638.087.846-.53.806-.477-.03-1.479-.028-1.95.039-.682.096-.64.036-.678-.537a34.289 34.289 0 0 1-.08-1.879c-.098-4.151-.607-8.273-.892-12.409-.135-1.964-.169-3.95-.51-5.893-.19-1.085-.647-2.123-.976-3.185-.352-1.138-.391-1.495.754-1.164 2.146.62 4.466.275 6.382-.035.656-.106.46.395.34 1.027-.058.3-.472 2.017-.576 2.296-.398 1.058-.437 2.17-.59 3.983-.315 3.72-.4 7.454-.579 11.181Zm4.343-28.053c1.647-.22 3.29-.4 4.928-.678.641-.108.631-.013.545.277-.458 1.549-3.213 11.14-4.146 14.772-.86 3.344-1.565 6.72-2.179 10.11-.336 1.858-.111 3.774.012 5.663.102 1.556.195 3.113.323 4.667.04.485-.11.482-.515.371-.595-.162-1.214-.246-1.826-.344-1.125-.18-1.186-.272-1.186-.272 0-2.93.139-6.906.244-9.726.15-3.893.2-6.367.648-10.27.104-.904.73-2.774.916-3.669.108-.517.593-1.569-.418-1.825-.19-.047-.086-.292-.06-.45.434-2.669 1.277-5.548 1.967-8.156.114-.433.28-.408.747-.47Zm-11.761.31c3.182.444 7.011.24 10.178-.096.627-.067.491.089.32.802-.63 2.614-1.464 5.18-1.889 7.843-.056.348-.252.381-.603.44-.59.102-3.65.481-5.382-.144-.265-.096-.528-.09-.61-.457-.544-2.415-1.456-4.723-2.13-7.1-.053-.187-.073-.383-.122-.571-.121-.465-.196-.778.238-.717Zm-6.863-.967c2.25.335 4 .736 5.758.92.366.038.375.174.499.613.7 2.49 1.428 4.97 2.148 7.453.094.327.192.591-.245.828-.44.238-.318.753-.232 1.148.11.547.28 1.08.506 1.59.736 1.586.94 3.284 1.021 4.975.127 2.645.347 5.273.581 7.908.195 2.193.288 4.396.397 6.596.044.89.097 1.769.135 2.67.032.763-.09.695-.697.83-1.537.345-2.294.678-2.294.678-.022-.418-.079-2.553-.083-2.971-.005-.419-.292-5.84-.292-6.259-.133-1.376.047-1.991-1.117-5.311a324.69 324.69 0 0 1-3.8-11.585c-.854-2.767-1.804-5.506-2.647-8.278-.418-1.377-.592-2.051.362-1.804Zm-1.195.225c.198.001.297 1.199.294 1.194-.473 0-1.352-1.199-.294-1.194Z"/>
    </g>
  </g>
  <defs>
    <clipPath id="a">
      <path fill="#fff" d="M0 0h110v159H0z"/>
    </clipPath>
  </defs>
</svg>
