<svg xmlns="http://www.w3.org/2000/svg" width="164" height="137" fill="none" viewBox="0 0 164 137">
  <path fill="#0D0D0D" d="M39.464 89.563c-1.337 1.416-2.473 2.946-2.831 4.912 1.592-1.27 2.142-3.13 2.831-4.912Zm-2.844 4.971c.004-.02.01-.039.013-.059l-.041.035.029.024Z"/>
  <path fill="#FF5970" d="M111.046 132.006c.749-.244 1.633-.329 2.06-1.007 3.994-6.008 5.452-15.438 5.455-21.419.001-1.694-.036-1.784-1.651-1.513-2.31.387-4.583 1.052-6.904 1.309-9.185 1.021-18.384 1.462-27.64.971A311.754 311.754 0 0 1 62 108.585c-1.898-.227-11.78-1.36-14.517-2.39-1.238-.466-1.495-.232-1.454 1.158.049 1.635.265 3.265.34 4.901.273 6.055 2.436 10.65 5.032 16.125.796 1.678 1.402 2.779 3.253 3.167 9.738 3.342 21.743 3.962 27.295 4.005 10.686-.353 21.384-1.036 29.097-3.545Zm-4.164-8.076c.391-3.17.579-6.354.723-9.543.01-.212-.023-.426-.01-.637.029-.469.214-.875.74-.833.395.032.551.391.539.782-.008.284-.03.567-.053.849l-.422 5.301c-.453 2.228-.844 4.457-.49 6.747.072.465-.154.876-.682.867-.441-.008-.537-.416-.523-.775.037-.92.065-1.845.178-2.758Zm-.19 5.969c.091-.498.496-.653.966-.597.333.04.458.283.474.604-.16.452-.455.709-.962.6-.315-.068-.53-.327-.478-.607Zm-18.94-16.383c.81-.138 1.07.444 1.391 1.04 2.537 4.718 5.848 8.913 8.95 13.248.163.228.35.455.69.479.62-.337.505-.972.496-1.501-.065-3.917.46-7.839-.108-11.75a2.374 2.374 0 0 1-.044-.424c.014-.39.17-.705.596-.731.334-.02.507.248.559.535.113.631.274 1.271.258 1.903-.109 4.347-.258 8.693-.398 13.039-.019.596-.126 1.183-.818 1.323-.72.146-.937-.477-1.255-.941-2.82-4.107-5.648-8.21-8.483-12.308-.276-.399-.673-.714-1.286-1.35-.587 2.72-.258 5.055-.138 7.371.103 1.991.4 3.973.605 5.959.047.351.062.705.043 1.059-.025.29-.2.552-.517.598-.49.071-.59-.299-.62-.662-.244-2.842-.55-5.681-.691-8.527-.114-2.278-.032-4.566-.021-6.85.004-.626-.108-1.356.791-1.51Zm-14.265 1.165c-.233 2.275-.892 4.463-1.375 6.685-.635 2.917-1.41 5.805-1.704 8.785-.054.546-.127 1.013-.736 1.106-.55.083-.669-.406-.86-.778-.946-1.846-2.252-3.453-3.446-5.129-1.045-1.467-1.397-1.405-2.404.161-.73 1.135-1.447 2.279-2.19 3.404-.235.355-.557.726-1.022.628-.542-.114-.432-.657-.486-1.054-.682-5.079-1.25-10.175-2.453-15.17a2.376 2.376 0 0 1-.078-.634c.017-.452-.275-1.117.446-1.196.506-.055.602.525.673.93.377 2.171.708 4.349 1.097 6.518.488 2.716.587 5.497 1.385 8.542 1.5-1.477 2.27-2.992 3.17-4.412.67-1.06.894-1.099 1.64-.084.671.913 1.206 1.926 1.827 2.878.644.987 1.135 2.108 2.209 2.813.619-.648.596-1.39.743-2.052.9-4.027 2.02-8.006 2.574-12.106.05-.365.109-.815.517-.803.604.017.517.548.474.968h-.001Zm6.947 16.069c-.422.28-1.368.296-1.846-.001-.426-.265.162-.752.308-1.17.192-5.051.399-10.102.558-15.155.02-.61.106-.979.778-.951.687.029.788.504.726 1.047-.138 1.201-.499 2.357-.603 3.577-.287 3.347-.296 6.695-.285 10.047.002.488-.133 1.01.353 1.375 1.254.533.006 1.235.012 1.232l-.001-.001Z"/>
  <path fill="#FF5970" d="M124.388 122.281c2.594-5.693 4.336-11.595 4.717-17.867.03-.497.043-.997.031-1.494-.004-.202-.098-.403-.218-.86-2.077.95-3.532 2.462-5.315 3.455-.181.102-2.747 1.181-2.929 1.281a5.11 5.11 0 0 0-.545.403 2.08 2.08 0 0 1-.011.108c-.51 3.667-.419 7.408-1.329 11.024-.695 2.762-1.379 5.527-2.117 8.277-.472 1.762-1.488 3.249-2.475 4.741 1.675-.807 3.705-1.667 4.076-1.883 2.886-1.681 4.748-4.182 6.115-7.185Z"/>
  <path fill="#fff" d="M120.086 105.896c1.857-1.061 5.272-2.926 7.569-4.369-.2-.006-.399-.012-.596-.014-12.44-.121-24.881.45-37.32.288-7.952-.104-15.9-.966-23.85-1.128-.89-.019-1.778-.133-2.655-.24-.032-.003-.064-.01-.096-.015a.678.678 0 0 1-.408.274c-3.036.432-5.981 1.296-8.94 2.082-1.453.386-2.895.812-4.349 1.199-.89.237-1.792.447-2.668.734 5.178 2.456 17.246 2.953 20.797 3.339 5.933.646 11.868 1.281 17.829 1.629 3.487.203 6.965-.119 10.448-.139 6.63-.037 13.198-.674 19.686-2.06 1.173-.251 2.374-.35 3.478-.954.037-.021.074-.038.11-.055.239-.246.68-.408.965-.571Z"/>
  <path fill="#FF5970" d="M118.402 108.162c-.418 4.598-1.087 9.125-3.789 13.036-2.118 3.066-5.074 5.679-8.529 7.125a32.093 32.093 0 0 1-6.087 1.839.874.874 0 0 1-.672.515.766.766 0 0 1-.787-.252c-3.313.534-6.696.65-10.084.591a.567.567 0 0 1-.16.049.51.51 0 0 1-.364-.06 125.52 125.52 0 0 1-2.125-.066 298.693 298.693 0 0 0-5.439-.153c-.447.242-1.322.246-1.777-.037l-.002-.002c-2.742-.059-5.483-.133-8.214-.306-.064.414-.203.74-.7.816-.55.083-.669-.406-.86-.778-.026-.053-.056-.104-.084-.156-2.74-.219-5.47-.559-8.182-1.112-.206.232-.464.402-.797.332-.353-.074-.43-.33-.454-.609-3.47-.839-6.726-2.222-9.617-4.266.54 1.209 1.119 2.436 1.723 3.711.796 1.678 1.402 2.779 3.253 3.167 9.737 3.342 21.743 3.962 27.295 4.005 10.686-.353 21.384-1.036 29.097-3.545.748-.244 1.633-.329 2.059-1.007 3.994-6.008 5.452-15.438 5.455-21.419.001-.755-.008-1.19-.159-1.418Zm-11.232 22.344c-.315-.067-.529-.327-.478-.607.091-.498.497-.653.966-.597.334.04.459.283.474.603-.16.453-.454.71-.962.601Zm21.948-27.734c-.095 1.917-.621 3.872-1.149 5.68-.762 2.607-1.845 5.112-3.117 7.508-1.669 3.144-4.254 6.143-7.406 7.688-.253.988-.511 1.975-.774 2.96-.472 1.762-1.488 3.249-2.475 4.741 1.675-.807 3.705-1.667 4.076-1.883 2.886-1.68 4.748-4.182 6.116-7.184 2.593-5.694 4.335-11.596 4.716-17.867.03-.498.043-.997.031-1.495a.74.74 0 0 0-.018-.148Z"/>
  <path fill="#fff" d="M127.059 101.513c-.922-.009-1.844-.014-2.767-.015a7.214 7.214 0 0 1-3.898 2.393c-.039.009-.077.02-.115.03-.679.298-1.353.608-2.048.868-3.343 1.255-6.697 2.256-10.237 2.754-3.63.502-7.29.755-10.955.756-6.274.014-12.517-.609-18.756-1.207-6.779-.65-13.36-2.353-20.202-2.432-2.982-.034-6.168-.063-9.244-.53-.692.178-1.386.355-2.064.577 5.178 2.456 17.246 2.953 20.797 3.339 5.933.645 11.868 1.281 17.829 1.629 3.487.203 6.965-.12 10.448-.139 6.63-.037 13.198-.674 19.687-2.06 1.172-.251 2.373-.35 3.477-.954.037-.021.074-.038.11-.056.239-.244.68-.407.965-.57 1.856-1.061 5.272-2.926 7.569-4.369-.2-.006-.399-.012-.596-.014Z"/>
  <path fill="#0D0D0D" d="M112.963 132.636c-.531.137-.93.185-1.062.074.164-.278 1.146-.808 2.296-1.361.988-1.492 2.003-2.979 2.475-4.741.738-2.75 1.422-5.515 2.117-8.277.91-3.617.819-7.357 1.329-11.024a2.33 2.33 0 0 0 .011-.108c-.361.278-.73.487-1.046.008-.211-.32-.145-.554.038-.74-.036.017-.073.034-.11.055-1.104.604-2.305.703-3.478.954-6.488 1.386-13.056 2.023-19.686 2.06-3.483.02-6.96.343-10.448.139-5.961-.347-11.896-.983-17.83-1.629-3.55-.386-15.619-.883-20.796-3.339.876-.287 1.778-.497 2.668-.734 1.453-.387 2.896-.813 4.35-1.199 2.958-.786 5.903-1.65 8.94-2.082a.678.678 0 0 0 .407-.274c-.407-.067-.77-.24-.727-.543.04-.276.277-.417.59-.489-3.135.475-6.816 1.81-9.852 2.617-2.62.696-5.444 1.237-7.93 2.332a.356.356 0 0 0-.23.41c-.087.218-.138.53-.178.95-.034.354-.005.713-.005 1.07l-.086.005c.145 1.417.385 2.831.42 4.251.178 7.041 2.884 12.449 5.68 18.84.697 1.591 1.695 2.319 3.244 2.658 5.295 1.784 18.658 3.948 24.525 4.122 21.35.341 31.749-2.753 34.374-4.005Zm-61.561-4.257c-2.597-5.475-4.76-10.07-5.033-16.125-.074-1.636-.291-3.266-.34-4.901-.041-1.39.216-1.624 1.454-1.158 2.738 1.03 12.62 2.163 14.517 2.39a311.742 311.742 0 0 0 20.367 1.762c9.255.491 18.455.051 27.639-.97 2.321-.258 4.594-.923 6.904-1.31 1.615-.271 1.652-.18 1.651 1.513-.003 5.981-1.461 15.411-5.455 21.419-.426.678-1.311.763-2.06 1.007-7.713 2.509-18.411 3.192-29.097 3.545-5.552-.042-17.557-.663-27.295-4.005-1.85-.388-2.456-1.489-3.252-3.167Z"/>
  <path fill="#0D0D0D" d="M130.461 101.187c-.859.401-1.844.369-2.805.34-2.298 1.443-5.713 3.308-7.57 4.368-.285.163-.726.326-.965.571-.182.187-.248.421-.038.741.316.479.686.27 1.047-.009.172-.146.354-.281.545-.402.181-.101 2.747-1.18 2.929-1.281 1.782-.994 3.237-2.505 5.315-3.455.12.456.213.656.218.859.012.498-.002.997-.032 1.495-.381 6.272-2.122 12.173-4.716 17.867-1.368 3.002-3.23 5.504-6.116 7.184-.371.216-2.401 1.076-4.076 1.883-1.15.554-2.132 1.083-2.296 1.362.132.111.531.063 1.062-.075 1.643-.424 4.561-1.709 4.834-1.848 3.063-1.55 5.405-3.795 7.001-6.892 3.28-6.367 4.783-13.204 5.565-20.25.079-.708.128-1.42.152-2.132.014-.418.064-.924-.33-1.176-.456-.292-.796-.002-1.154.271.545-.005 1.122.01 1.43.579Z"/>
  <path fill="#0D0D0D" d="M62.412 99.874c-.044.303.319.477.726.544.032.005.064.011.097.015.876.107 1.764.221 2.654.239 7.95.163 15.898 1.024 23.851 1.128 12.438.163 24.879-.408 37.319-.287.197.002.396.008.597.014.962.029 1.946.061 2.805-.34-.308-.569-.885-.584-1.43-.578-.103.001-.205.002-.303.001-2.8-.033-5.601-.08-8.401-.058-15.71.118-29.518.611-47.057-.541-2.903-.04-5.84-.003-8.647-.6a4.407 4.407 0 0 0-.987-.09 3.24 3.24 0 0 0-.634.065c-.313.071-.551.213-.59.488Zm14.946-2.063c.079.102.151.287.239.294 2.788.226 5.59.053 8.375.387-2.738-.712-7.232-1.025-8.614-.68Zm50.897 32.637c-3.655-.603-4.779-.521-6.358.534 2.347.048 4.349-.109 6.358-.534Zm-41.272-8.572c.142 2.846.447 5.685.69 8.527.032.363.13.733.62.662.318-.046.493-.308.518-.598a5.654 5.654 0 0 0-.043-1.059c-.204-1.987-.502-3.968-.605-5.959-.12-2.316-.45-4.651.138-7.372.613.637 1.01.952 1.287 1.351 2.84 4.094 5.667 8.197 8.482 12.308.319.464.534 1.087 1.255.941.693-.141.799-.728.818-1.323.14-4.346.289-8.692.399-13.039.015-.632-.146-1.273-.259-1.903-.051-.287-.225-.556-.56-.535-.426.026-.58.341-.595.73.002.143.017.285.044.425.568 3.911.043 7.833.108 11.75.008.529.124 1.164-.497 1.5-.339-.023-.525-.25-.689-.478-3.102-4.335-6.413-8.531-8.95-13.249-.32-.596-.58-1.177-1.391-1.039-.9.154-.787.884-.79 1.51-.012 2.283-.093 4.572.02 6.85Zm-13.968-8.164c-.409-.012-.468.439-.517.803-.554 4.1-1.675 8.08-2.574 12.106-.148.663-.125 1.405-.744 2.053-1.073-.705-1.565-1.827-2.208-2.813-.621-.952-1.156-1.965-1.827-2.879-.746-1.015-.97-.976-1.641.084-.9 1.421-1.67 2.935-3.17 4.413-.798-3.045-.897-5.827-1.384-8.543-.39-2.168-.721-4.347-1.098-6.518-.07-.405-.166-.984-.672-.929-.722.079-.43.744-.447 1.195-.002.214.024.428.079.635 1.202 4.994 1.77 10.091 2.453 15.17.053.397-.057.939.485 1.054.466.098.788-.273 1.022-.628.744-1.126 1.46-2.27 2.19-3.404 1.008-1.567 1.36-1.628 2.404-.162 1.195 1.677 2.501 3.284 3.448 5.13.19.371.309.861.859.777.608-.092.682-.559.736-1.105.294-2.98 1.069-5.869 1.703-8.785.484-2.223 1.143-4.411 1.376-6.685.043-.42.13-.951-.473-.969Zm7.409 15.807c-.486-.365-.351-.886-.353-1.375-.011-3.352-.002-6.7.285-10.046.104-1.221.465-2.376.603-3.578.062-.543-.04-1.018-.727-1.047-.671-.028-.758.341-.777.951-.16 5.053-.366 10.104-.558 15.156-.146.417-.734.904-.309 1.169.479.297 1.425.282 1.847.002-.006.003 1.242-.699-.01-1.232Zm26.803-2.056c.528.008.754-.402.682-.867-.354-2.29.037-4.519.49-6.747l.422-5.301c.023-.282.046-.565.054-.849.011-.391-.145-.75-.539-.782-.526-.042-.712.364-.741.833-.012.211.02.425.011.637-.145 3.189-.332 6.373-.724 9.543-.113.913-.141 1.838-.178 2.758-.014.359.082.767.523.775Zm-.057 3.043c.508.109.802-.148.962-.6-.015-.32-.14-.564-.474-.604-.47-.056-.875.099-.966.597-.051.28.163.539.478.607Z"/>
  <path fill="#fff" d="M51.203 104.289c.841-.081 1.69-.557 1.985-1.224.464-1.055 1.548-10.084 1.934-14.87.463-5.757-.386-10.545-.643-16.237-.439-9.706-2.053-19.266-3.191-28.886-.075-.636-.253-1.26-.321-1.896-.017-.154.18-.402.342-.488.275-.146.569-.04.727.234.387.67.272 1.542.885 2.293 1.653-1.103 2.856-2.59 4.041-4.074 2.599-3.252 3.414-7.146 3.898-11.155.044-.363-.051-.903.02-1.287-.448-.84-2.19-.847-3.008-.914-1.092-.09-2.212-.082-2.968.78-.895 1.02-2 2.021-3.193 2.706-1.828 1.786-4.19 2.49-6.462 3.147-2.459.712-4.851 1.62-7.317 2.287-4 1.08-7.728 2.844-11.537 4.414-1.663.685-2.907 1.692-3.616 3.392-1.397 3.353-3.18 6.522-4.755 9.786-2.008 4.164-5.259 7.028-8.834 9.657-.923.679-1.833 1.35-2.54 2.26-1.062 1.369-1.195 2.766-.403 4.173.692 1.228 2.01 1.877 3.928 1.478 3.06-.638 5.295-2.494 7.69-4.416 2.783-2.233 7.126-7.538 9.174-10.489.383-.55.709-1.237 1.354-1.594l-.055-.748c-.057-.766-.616-1.548-.796-2.31-.067-.282-.036-.593.276-.734.392-.177.694-.002.878.347.44.834.564 1.752.699 2.673 1.347 14.792-.51 23.47-1.663 27.099-1.096 3.968-1.18 5.36-2.649 7.718-1.435 2.306-2.574 4.761-3.798 7.176-1.471 2.901.653 5.808 2.868 6.154 1.115.175 2.125-.033 2.915-.92.285-.319.612-.607.855-.955 2.854-4.091 5.779-8.157 7.757-12.765 1.797-4.187 3.95-8.225 5.335-12.59.173-.544.657-1.082 1.346-1.09.906-.009 1.505.305 1.924 1.117.354.683.534 1.473.703 2.234 1.081 4.896 1.368 9.866 1.285 14.864-.051 3.064-.237 6.13-.19 9.192.052 3.25 1.91 4.768 5.12 4.461Z"/>
  <path fill="#fff" d="M44.437 24.864c1.135-5.92-3.592-11.376-9.12-12.248-6.004-.948-11.187 3.466-12.273 8.79-1.172 6.493 3.052 11.194 9.22 12.288 6.06 1.075 10.964-2.53 12.173-8.83Z"/>
  <path fill="#fff" d="M51.203 104.289c.841-.081 1.69-.557 1.985-1.224.464-1.055 1.548-10.084 1.934-14.87.463-5.757-.386-10.545-.643-16.237-.439-9.706-2.053-19.266-3.191-28.886-.075-.636-.253-1.26-.321-1.896-.017-.154.18-.402.342-.488.275-.146.569-.04.727.234.387.67.272 1.542.885 2.293 1.653-1.103 2.856-2.59 4.041-4.074 2.599-3.252 3.414-7.146 3.898-11.155.044-.363-.051-.903.02-1.287-.448-.84-2.19-.847-3.008-.914-1.092-.09-2.212-.082-2.968.78-.895 1.02-2 2.021-3.193 2.706-1.828 1.786-4.19 2.49-6.462 3.147-2.459.712-4.851 1.62-7.317 2.287-4 1.08-7.728 2.844-11.537 4.414-1.663.685-2.907 1.692-3.616 3.392-1.397 3.353-3.18 6.522-4.755 9.786-2.008 4.164-5.259 7.028-8.834 9.657-.923.679-1.833 1.35-2.54 2.26-1.062 1.369-1.195 2.766-.403 4.173.692 1.228 2.01 1.877 3.928 1.478 3.06-.638 5.295-2.494 7.69-4.416 2.783-2.233 7.126-7.538 9.174-10.489.383-.55.709-1.237 1.354-1.594l-.055-.748c-.057-.766-.616-1.548-.796-2.31-.067-.282-.036-.593.276-.734.392-.177.694-.002.878.347.44.834.564 1.752.699 2.673 1.347 14.792-.51 23.47-1.663 27.099-1.096 3.968-1.18 5.36-2.649 7.718-1.435 2.306-2.574 4.761-3.798 7.176-1.471 2.901.653 5.808 2.868 6.154 1.115.175 2.125-.033 2.915-.92.285-.319.612-.607.855-.955 2.854-4.091 5.779-8.157 7.757-12.765 1.797-4.187 3.95-8.225 5.335-12.59.173-.544.657-1.082 1.346-1.09.906-.009 1.505.305 1.924 1.117.354.683.534 1.473.703 2.234 1.081 4.896 1.368 9.866 1.285 14.864-.051 3.064-.237 6.13-.19 9.192.052 3.25 1.91 4.768 5.12 4.461Z"/>
  <path fill="#fff" d="M44.437 24.864c1.135-5.92-3.592-11.376-9.12-12.248-6.004-.948-11.187 3.466-12.273 8.79-1.172 6.493 3.052 11.194 9.22 12.288 6.06 1.075 10.964-2.53 12.173-8.83Z"/>
  <path fill="#0D0D0D" d="M48.49 104.92c.7.12 1.412.176 2.12.239 1.953.174 3.49-.551 3.893-2.522.285-1.396 1.029-11.299 1.75-15.238.243-1.32.044-3.674-.034-5.013-.486-8.394-1.009-16.786-1.913-25.149-.383-3.54-1.255-7.52-1.53-11.082-.117-1.51.363-1.99 1.58-2.932 4.872-3.774 7.02-9.01 7.607-14.992.06-.607.325-1.624-.237-1.912-.243-.673-.653-.92-1.426-1.104-1.143-.272-2.413-.424-3.586-.342-.956.067-1.622.172-2.3.866-1.006 1.028-2.03 2.176-3.328 2.852a.488.488 0 0 0-.152.122c-1.063.521-2.089 1.145-3.197 1.532-2.085.726-4.174 1.44-6.268 2.142-2.35 2.11-5.43 3.26-8.535 2.793-2.793.975-5.518 2.108-8.087 3.604-1.075.626-2.226 1.268-2.71 2.604-1.712 4.717-4.456 8.906-6.802 13.3-.408.765-.985 1.394-1.581 2.008-1.693 1.741-3.519 3.324-5.559 4.646a11.962 11.962 0 0 0-2.947 2.761c-1.296 1.674-.8 3.404.01 5.04.775 1.56 2.625 2.117 4.235 1.923 3.152-.38 5.412-2.27 7.87-4.04 3.534-2.546 8.375-8.493 10.89-12.074.07-.1.152-.2.235-.299.517 7.189.916 14.962-1 22.024-1.24 4.568-1.977 8.205-4.567 12.238-1.11 1.728-1.982 3.635-2.765 5.541-.788 1.92-.964 3.781.504 5.303 1.494 1.549 3.27 2.56 5.553 1.677 1.478-.572 2.42-1.8 3.218-3.024 2.8-4.288 5.809-8.455 7.782-13.243 1.383-3.358 3.044-6.598 4.272-10.025.186-.52.51-1.178 1.227-1.175.792.003.738.694.97 1.286.073.202.129.409.168.619 1.18 5.325 1.474 10.721 1.338 16.159-.075 2.993-.43 5.98-.19 8.98.185 2.307 1.259 3.525 3.492 3.907Zm-2.217-14.285c.084-4.998-.203-9.967-1.285-14.863-.168-.762-.349-1.552-.702-2.235-.42-.811-1.019-1.125-1.924-1.116-.69.007-1.174.545-1.346 1.09-1.385 4.364-3.539 8.402-5.336 12.59-1.978 4.608-4.902 8.673-7.756 12.764-.243.348-.571.636-.855.955-.79.887-1.8 1.095-2.916.921-2.214-.347-4.339-3.253-2.867-6.155 1.224-2.414 2.362-4.87 3.798-7.175 1.468-2.36 1.552-3.75 2.649-7.719 1.153-3.629 3.01-12.307 1.662-27.098-.134-.922-.258-1.84-.698-2.674-.184-.349-.487-.524-.878-.347-.313.141-.343.452-.276.735.18.76.739 1.543.795 2.31l.055.747c-.645.357-.97 1.043-1.353 1.595-2.048 2.95-6.391 8.255-9.175 10.488-2.394 1.922-4.63 3.778-7.69 4.416-1.917.4-3.236-.25-3.927-1.478-.793-1.407-.66-2.804.403-4.172.707-.911 1.617-1.582 2.54-2.261 3.575-2.629 6.826-5.493 8.834-9.657 1.574-3.264 3.357-6.433 4.755-9.786.708-1.7 1.952-2.706 3.616-3.392 3.809-1.57 7.537-3.334 11.536-4.414 2.466-.666 4.859-1.575 7.318-2.287 2.272-.658 4.633-1.36 6.461-3.147 1.193-.684 2.299-1.686 3.193-2.705.757-.863 1.876-.87 2.969-.78.817.067 2.56.073 3.008.913-.072.384.023.924-.02 1.287-.485 4.01-1.3 7.903-3.898 11.155-1.185 1.484-2.389 2.972-4.041 4.074-.613-.75-.498-1.622-.886-2.292-.158-.274-.451-.381-.727-.234-.161.085-.358.333-.342.487.068.636.246 1.26.322 1.896 1.137 9.62 2.752 19.18 3.19 28.886.258 5.692 1.106 10.48.643 16.236-.385 4.788-1.47 13.817-1.934 14.871-.294.668-1.144 1.144-1.985 1.224-3.21.307-5.067-1.211-5.118-4.462-.049-3.061.137-6.127.188-9.191Z"/>
  <path fill="#0D0D0D" d="M41.47 32.387a12.598 12.598 0 0 0 3.973-7.063c1.241-6.824-3.563-12.84-9.61-13.785-6.692-1.045-12.867 3.093-14 9.67-1.292 8.258 3.85 12.423 10.517 13.865.195.042.389.077.583.106 3.106.467 6.186-.683 8.536-2.793Zm-9.207 1.307c-6.167-1.094-10.392-5.795-9.219-12.288 1.085-5.324 6.269-9.738 12.273-8.79 5.527.872 10.255 6.327 9.12 12.247-1.21 6.302-6.114 9.906-12.174 8.831Z"/>
  <path fill="#fff" d="M151.891 14.025c-6.078.077-10.449 5.3-10.629 10.732-.07 6.598 4.881 10.522 11.144 10.562 6.154.04 10.386-4.339 10.524-10.754.129-6.028-5.444-10.61-11.039-10.54Zm-12.019 21.568c-3.763.662-7.474 1.691-11.146 2.77-1.936.569-3.892.796-5.857 1.074-1.461.207-2.574-.192-3.382-1.605-1.378-2.408-2.968-4.692-4.389-7.076-.61-1.02-1.329-1.63-2.558-1.52-1.242.11-2.103.682-2.641 1.847-.607 1.311-.617 2.593-.194 3.946 1.044 3.34 2.379 6.562 3.894 9.707.76 1.58 1.913 2.726 3.675 3.344 2.813.986 5.72 1.01 8.619 1.207 1.68.114 3.369.197 4.433-1.526.015-.025.134.013.222.024.369.392.139.788-.033 1.168-1.937 4.287-3.275 8.817-5.315 13.063-2.285 4.758-3.885 9.8-5.981 14.639a27.527 27.527 0 0 0-2.172 8.66c-.243 2.84-.255 5.692-.591 8.53a16.963 16.963 0 0 0 .224 5.537c.461 2.152 1.808 3.297 4.023 3.4 2.05.095 3.112-.746 3.772-3.007.147-.477.261-.964.34-1.457.464-3.245 1.126-6.464 1.364-9.74.248-3.414 1.271-6.541 3.213-9.38 1.771-2.588 3.596-5.133 5.715-7.443.521-.568.738-1.913 1.763-1.481.917.386.694 1.6.752 2.51.013.284.011.57-.006.855-.105 2.564-.216 5.127-.319 7.692-.067 1.652.056 3.303.66 4.841a172.6 172.6 0 0 0 3.314 7.873c.701 1.555 1.472 3.099 2.4 4.524 1.09 1.673 3.246 2.319 4.871 1.684a4.368 4.368 0 0 0 2.211-1.926c.494-.878.67-1.9.5-2.894-.218-1.255-.439-2.516-.897-3.732-1.081-2.868-2.175-5.728-3.455-8.513-.296-.644-.586-1.257-.446-2.035.756-4.207 1.357-8.445 2.215-12.63 1.16-5.65 2.595-11.243 3.737-16.896.688-3.411 1.275-6.85 1.446-10.356.103-2.094-.945-3.107-2.585-3.952-3.617-1.861-7.48-2.416-11.396-1.726ZM69.9 7.3c.337.262.703.483 1.091.658 2.955 1.431 11.734 2.9 12.919 3.1a111.563 111.563 0 0 0 20.793 1.511c3.917-.08 7.799-.426 11.59-1.465.515-.14 1.275-.173 1.386-.83.125-.745-.562-1.083-1.109-1.406-.489-.288-.985-.606-1.521-.766-2.789-.832-5.527-1.894-8.425-2.28-7.114-.95-23.617-3.066-32.949-1.846-1.345.072-2.696.317-3.882 1.02-.913.542-.71 1.624.108 2.304Z"/>
  <path fill="#fff" d="M109.394 38.312c.04-.03.081-.059.123-.084a38.783 38.783 0 0 1-1.04-2.855c-.858-2.724-.14-5.408 1.877-6.674 1.294-.813 2.735-.86 4.112-.446.892.268 1.116-.066 1.377-.744 2.572-4.618 2.487-8.328 2.829-12.69.055-.702-.093-1.42-.143-2.13-.06-.852-.469-1.072-1.285-.838-5.466 1.565-11.081 1.61-16.706 1.733-5.366.118-10.632-.652-15.917-1.347-1.07-.113-11.504-1.554-15.355-3.736-1.255-.71-1.301-.646-1.646.743-.518 2.092-.593 4.236-.655 6.374-.165 5.7.422 11.28 3.159 16.4 2.378 4.45 5.506 8.303 9.646 11.246 1.817 1.292 1.884 1.99 3.95 2.76 1.357 1.432 1.546.385 1.479 2.111 1.89 7.966-.829 12.733-5.504 17.405-.82.82-1.584 1.822-2.294 2.708-.579.724-.967 1.216-.286 1.86 3.284 3.246 9.94 3.993 13.894 4.146 2.643.103 5.24-.409 7.79-1.06 1.34-.342 1.529-1.058.693-2.463-1.384-2.325-2.792-4.64-4.287-6.893-1.201-1.812-2.001-3.778-2.571-5.847-1.057-3.837.278-7.31 1.725-10.752.226-.536.75-.55 1.249-.658 4.489-.975 10.093-4.554 13.326-7.827a5.05 5.05 0 0 1 .46-.442Z"/>
  <path fill="#fff" d="M84.265 74.453c-3.636-.898-5.568-1.078-8.286-3.951-.458.138-.65.203-.779.544-1.081 2.852-.157 5.209 2.568 6.592 5.34 2.71 11.034 3.035 16.832 2.42 1.39-.146 2.772-.535 4.126-1.01 1.649-.58 2.347-1.684 2.489-3.333.161-1.884-.318-2.31-2.124-1.812-4.282 1.184-10.407 1.64-14.826.55Zm67.626-60.428c-6.078.077-10.449 5.3-10.629 10.732-.07 6.598 4.881 10.522 11.144 10.562 6.154.04 10.386-4.339 10.524-10.754.129-6.028-5.444-10.61-11.039-10.54Zm-12.019 21.568c-3.763.662-7.474 1.691-11.146 2.77-1.936.569-3.892.796-5.857 1.074-1.461.207-2.574-.192-3.382-1.605-1.378-2.408-2.968-4.692-4.389-7.076-.61-1.02-1.329-1.63-2.558-1.52-1.242.11-2.103.682-2.641 1.847-.607 1.311-.617 2.593-.194 3.946 1.044 3.34 2.379 6.562 3.894 9.707.76 1.58 1.913 2.726 3.675 3.344 2.813.986 5.72 1.01 8.619 1.207 1.68.114 3.369.197 4.433-1.526.015-.025.134.013.222.024.369.392.139.788-.033 1.168-1.937 4.287-3.275 8.817-5.315 13.063-2.285 4.758-3.885 9.8-5.981 14.639a27.527 27.527 0 0 0-2.172 8.66c-.243 2.84-.255 5.692-.591 8.53a16.963 16.963 0 0 0 .224 5.537c.461 2.152 1.808 3.297 4.023 3.4 2.05.095 3.112-.746 3.772-3.007.147-.477.261-.964.34-1.457.464-3.245 1.126-6.464 1.364-9.74.248-3.414 1.271-6.541 3.213-9.38 1.771-2.588 3.596-5.133 5.715-7.443.521-.568.738-1.913 1.763-1.481.917.386.694 1.6.752 2.51.013.284.011.57-.006.855-.105 2.564-.216 5.127-.319 7.692-.067 1.652.056 3.303.66 4.841a172.6 172.6 0 0 0 3.314 7.873c.701 1.555 1.472 3.099 2.4 4.524 1.09 1.673 3.246 2.319 4.871 1.684a4.368 4.368 0 0 0 2.211-1.926c.494-.878.67-1.9.5-2.894-.218-1.255-.439-2.516-.897-3.732-1.081-2.868-2.175-5.728-3.455-8.513-.296-.644-.586-1.257-.446-2.035.756-4.207 1.357-8.445 2.215-12.63 1.16-5.65 2.595-11.243 3.737-16.896.688-3.411 1.275-6.85 1.446-10.356.103-2.094-.945-3.107-2.585-3.952-3.617-1.861-7.48-2.416-11.396-1.726Zm-29.638-24.398c-2.516-1.155-15.957-3.11-20.001-2.905-2.25.114-4.515.327-6.768.328-1.743.002-3.485.023-5.224.121-1.095.099-2.182.27-3.254.514 3.647.92 8.103 1.666 8.922 1.804a111.576 111.576 0 0 0 20.793 1.512c2.391-.048 4.768-.197 7.119-.541a69.083 69.083 0 0 0-1.587-.833Z"/>
  <path fill="#fff" d="M95.205 63.838a18.25 18.25 0 0 1-1.706-3.275c-.357 2.474-1.278 4.958-3.215 6.496-3.367 2.675-7.383 3.027-11.427 1.832a18.532 18.532 0 0 1-1.545-.531c-.527.664-.843 1.138-.197 1.748 3.284 3.246 9.94 3.993 13.894 4.147 2.643.103 5.24-.409 7.79-1.06 1.34-.342 1.529-1.058.693-2.464-1.384-2.325-2.792-4.639-4.287-6.893Zm23.324-51.149c-.06-.852-.469-1.071-1.285-.838-.687.197-1.377.371-2.068.522-.82 5.521-1.984 10.952-4.327 16.055 1.161-.546 2.413-.537 3.617-.175.892.268 1.116-.066 1.377-.743 2.572-4.619 2.487-8.328 2.829-12.69.055-.703-.093-1.42-.143-2.131ZM108.126 33.01c-3.002 3.968-7.066 7.128-10.385 10.823a28.246 28.246 0 0 0-1.873 2.688c4.444-1.054 9.895-4.556 13.066-7.766a4.99 4.99 0 0 1 .46-.443c.039-.03.08-.059.123-.084a38.783 38.783 0 0 1-1.04-2.855 7.42 7.42 0 0 1-.351-2.362Z"/>
  <path fill="#fff" d="M100.004 75.407c-4.722 1.722-9.943 2.822-14.971 1.873-3.028-.572-6.027-1.318-8.566-3.195a21.687 21.687 0 0 1-1.674-1.37c-.221 2.098.803 3.82 2.975 4.923 5.339 2.71 11.033 3.035 16.832 2.42 1.389-.146 2.772-.535 4.126-1.01 1.648-.58 2.347-1.684 2.488-3.333.036-.343.038-.688.005-1.03a4.167 4.167 0 0 1-1.215.722ZM69.928 11.586c-.585 0-5.032 19.001 10.354 29.576.235.161-5.011-6.81-7.504-14.024-2.64-7.64-2.55-15.552-2.85-15.552Z"/>
  <path fill="#0D0D0D" d="M139.891 34.586c-2.84.35-13.3 3.53-15.924 3.86-1.009.127-1.862.025-2.581-.38 2.096-1.273 3.231-3.418 4.095-5.652 1.028-2.66 1.975-5.556 2.123-8.419.124-2.42-.547-4.835-2.142-6.674-1.481-1.708-3.552-2.178-5.693-2.24.079-.977.087-1.959.025-2.938-.172-2.227-1.183-3.759-3.262-4.566-2.993-1.163-6.068-2.077-9.238-2.545-10.367-1.53-21.021-2.604-31.496-2.185a27.822 27.822 0 0 0-5.057.658c-2.328.527-3.36 2.318-3.916 4.504-2.136 8.384-1.601 16.576 2.145 24.4a30.054 30.054 0 0 0 6.36 8.781c2.461 2.355 8.584 6.384 8.584 6.384 2.873 8.3-2.54 15.244-7.315 19.937-1.076 1.057-2.55 1.912-2.683 3.676-.103 1.35-.152 2.705-.216 4.058-.034.714.366 1.158.896 1.593a17.413 17.413 0 0 0 5.576 3.067c3.782 1.273 7.678 1.36 11.6 1.27 2.505-.056 4.957-.372 7.287-1.369 1.104-.472 2.34-.762 2.717-2.148.475-1.748.912-3.581-.163-5.185-2.18-3.252-3.85-6.793-5.928-10.106-2.594-4.133-2.742-8.596-.864-13.119.379-.913.956-1.627 1.884-1.91 2.96-.903 5.538-2.56 8.212-4.04.033-.018.07-.042.105-.063a.472.472 0 0 0 .091.034c.551.143 1.049.43 1.583.626.625.229 1.343.275 2.002.3 1.126.043 2.183-.05 3.219-.45.16.37.32.739.475 1.11 1.195 2.88 3.418 4.29 6.366 4.682 2.674.355 5.343.853 8.066.635.559-.045 1.138-.158 1.671.206.175.748-.264 1.362-.479 2.026-1.583 4.894-3.904 9.487-5.788 14.26-.942 2.386-1.769 4.823-2.818 7.16-1.995 4.448-3.696 8.92-3.718 13.924-.017 3.701-.586 7.393-.384 11.111.072 1.326.372 2.521 1.406 3.459 1.628 1.477 3.54 1.856 5.564 1.265 2.095-.613 2.954-2.42 3.301-4.372.524-2.946 1.08-5.89 1.385-8.876.379-3.71 1.071-7.343 3.203-10.527 1.773-2.648 3.635-5.223 6.089-7.906.49 2.122.467 3.752.315 5.388-.442 4.734-.413 9.374 1.964 13.732 1.398 2.561 2.464 5.304 3.846 7.875 1.462 2.719 4.479 3.435 7.135 1.878 2.319-1.36 3.242-3.84 2.596-6.876-.508-2.388-1.408-4.649-2.383-6.857-1.441-3.26-2.721-4.839-1.748-8.452.496-5.805 3.423-17.766 4.544-22.54a128.12 128.12 0 0 0 2.415-13.227c.389-3.079-.286-4.95-2.529-6.176-2.775-.16-5.361-.818-7.445-2.123a22.73 22.73 0 0 0-5.075.062Zm-15.07-16.622c1.725 1.789 2.019 4.502 1.819 6.86-.192 2.263-1.057 4.534-1.787 6.668-.782 2.28-1.887 4.612-4.048 5.864a.45.45 0 0 0-.15.137 4.431 4.431 0 0 1-.639-.849c-1.264-2.149-2.607-4.252-3.901-6.383-.212-.348-.61-.809-.192-1.15 1.994-3.236 3.345-8.794 3.77-13.12 1.995.05 3.67.463 5.128 1.973ZM69.793 4.997c1.186-.704 2.537-.949 3.882-1.021 9.332-1.22 25.835.896 32.949 1.845 2.898.388 5.636 1.45 8.425 2.28.536.16 1.032.48 1.521.767.546.323 1.234.661 1.109 1.405-.111.658-.871.69-1.386.832-3.791 1.038-7.673 1.384-11.59 1.465-6.963.146-13.924-.36-20.793-1.513-1.185-.199-9.964-1.668-12.919-3.099a5.322 5.322 0 0 1-1.09-.658c-.819-.68-1.02-1.762-.108-2.303Zm31.421 70.718c-.142 1.649-.84 2.754-2.488 3.333-1.354.475-2.737.864-4.126 1.011-5.799.615-11.493.29-16.832-2.42-2.725-1.384-3.65-3.74-2.568-6.593.13-.34.32-.406.78-.544 2.717 2.873 4.649 3.053 8.285 3.951 4.418 1.091 10.544.635 14.825-.55 1.807-.499 2.286-.072 2.124 1.812Zm-5.606-29.133c-.498.108-1.023.121-1.25.658-1.446 3.442-2.78 6.915-1.724 10.752.57 2.069 1.37 4.035 2.571 5.847 1.495 2.254 2.903 4.567 4.287 6.892.836 1.406.647 2.122-.693 2.464-2.55.651-5.147 1.163-7.79 1.06-3.953-.153-10.61-.9-13.894-4.147-.681-.643-.293-1.136.286-1.86.71-.886 1.474-1.888 2.294-2.707 4.675-4.672 7.394-9.44 5.504-17.405.067-1.726-.122-.68-1.478-2.111-2.067-.77-2.134-1.468-3.952-2.76-4.14-2.943-7.267-6.795-9.645-11.245-2.737-5.121-3.324-10.701-3.159-16.402.062-2.138.137-4.28.655-6.373.344-1.389.391-1.454 1.646-.743 3.851 2.182 14.286 3.622 15.355 3.736 5.285.695 10.55 1.464 15.917 1.347 5.625-.123 11.24-.168 16.706-1.733.816-.234 1.225-.014 1.285.837.05.711.198 1.429.143 2.131-.342 4.362-.257 8.072-2.829 12.69-.262.678-.485 1.012-1.377.743-1.377-.413-2.818-.367-4.112.447-2.017 1.266-2.735 3.95-1.877 6.674a38.68 38.68 0 0 0 1.04 2.854 1.273 1.273 0 0 0-.123.084 5.12 5.12 0 0 0-.46.444c-3.233 3.272-8.837 6.85-13.326 7.826Zm13.09-3.297c-1.026-.01-1.828-.396-2.721-.703 1.32-.993 3.027-2.544 3.932-3.404.531 1.255 1.096 2.495 1.647 3.74-.925.356-1.864.377-2.858.367Zm45.154-2.013c-.172 3.506-.758 6.944-1.447 10.356-1.141 5.653-2.576 11.247-3.736 16.897-.858 4.184-1.46 8.422-2.215 12.629-.14.778.15 1.39.446 2.035 1.279 2.786 2.374 5.645 3.454 8.513.459 1.216.68 2.477.898 3.731a4.394 4.394 0 0 1-.501 2.895 4.368 4.368 0 0 1-2.211 1.926c-1.625.635-3.781-.011-4.87-1.684-.928-1.425-1.699-2.97-2.4-4.524a172.068 172.068 0 0 1-3.315-7.873c-.603-1.538-.726-3.189-.66-4.841.103-2.564.214-5.128.319-7.692.017-.285.02-.57.007-.856-.058-.909.164-2.123-.752-2.51-1.026-.431-1.242.914-1.763 1.482-2.119 2.31-3.944 4.855-5.715 7.443-1.942 2.839-2.966 5.966-3.213 9.38-.238 3.276-.9 6.495-1.365 9.74-.078.493-.192.98-.34 1.457-.659 2.261-1.721 3.102-3.771 3.007-2.215-.103-3.562-1.248-4.024-3.4a16.99 16.99 0 0 1-.223-5.536c.336-2.84.347-5.691.591-8.532a27.526 27.526 0 0 1 2.172-8.66c2.096-4.838 3.696-9.88 5.981-14.638 2.039-4.246 3.378-8.776 5.315-13.063.172-.38.402-.776.033-1.168-.089-.011-.207-.05-.223-.024-1.063 1.723-2.752 1.64-4.432 1.526-2.899-.197-5.806-.221-8.619-1.207-1.762-.618-2.915-1.764-3.676-3.344-1.513-3.145-2.849-6.367-3.894-9.707-.423-1.353-.412-2.635.194-3.946.539-1.165 1.4-1.737 2.642-1.847 1.229-.11 1.948.5 2.557 1.52 1.423 2.384 3.012 4.668 4.389 7.076.809 1.413 1.921 1.812 3.383 1.605 1.965-.278 3.921-.505 5.856-1.074 3.672-1.079 7.384-2.107 11.146-2.77 3.917-.69 7.779-.135 11.395 1.727 1.642.844 2.69 1.857 2.587 3.95Z"/>
  <path fill="#0D0D0D" d="M153.693 58.99c2.026-4.641 3.183-9.47 3.049-14.565-1.299 2.295-.984 4.893-1.441 7.343-.453 2.428-1.486 4.728-1.608 7.222ZM98.528 83.868c-2.75 1.21-5.576 1.493-8.5.776a4.433 4.433 0 0 0-1.047-.093.396.396 0 0 0-.415.385c-.023.228.048.436.254.532.253.121.52.21.793.266 3.39.62 6.602.241 9.504-1.937-.198.021-.416-.006-.589.07Zm8.291-82.003c-.822-.841-1.906-1.108-3.008-1.238a104.565 104.565 0 0 0-5.92-.545c-.854-.051-1.767-.22-2.531.16-.062.348.006.484.179.493 3.778.196 7.551.45 11.28 1.13Zm.091.015-.09-.015c.018.02.037.037.055.056l.035-.04Zm6.049 49.206c-.976-.762-1.579-1.78-2.233-2.781-.168-.258-.428-.376-.703-.173-.263.193-.237.501-.162.774.629 2.309 3.787 4.105 6.511 3.535-1.192-.633-2.454-.606-3.413-1.355ZM164 24.85c.081-6.937-5.661-12.06-11.781-11.973-6.771.096-12.166 5.215-12.184 11.89.062 4.81 2 7.922 4.931 9.757 2.084 1.304 4.67 1.963 7.445 2.122.104.006.208.014.312.018 6.071.267 11.202-5.453 11.277-11.814Zm-11.593 10.469c-6.264-.04-11.214-3.964-11.144-10.562.179-5.432 4.551-10.655 10.628-10.732 5.595-.07 11.169 4.512 11.039 10.54-.137 6.415-4.37 10.794-10.523 10.754Zm-95.568-3.404c.787 1.736 1.82 3.483 3.386 4.761C61.844 38 63.874 38.496 66 38.61c1.179.063 2.15-.34 3.247-.638.938-.254 1.46-.774 2.198-1.31.503-.366-.15-1.07-.653-.706-.503.365-.917.803-1.51 1.051-.94.393-2.167.721-3.2.697-2.04-.05-3.978-.616-5.46-1.928-1.236-1.093-2.043-2.513-2.726-3.923-.746-1.537-1.463-3.155-1.937-4.774-.93-3.176-1.017-7.187.465-10.198.794-1.614 2.366-2.687 4.142-3.316 1.593-.564 3.71-1.044 4.938.402.4.47 1.167-.108.769-.577-2.344-2.759-7.411-.64-9.436 1.317-2.952 2.851-2.83 7.813-2.128 11.452.382 1.985 1.284 3.895 2.129 5.757Z"/>
  <path fill="#fff" d="M57.872 29.29c1.28-.34 1.864-1.448 2.268-2.624.235-.682.247-1.396.17-2.108-.154-1.43-.508-2.795-1.284-4.032-.282-.407-.513-.864-.856-1.21-.852-.855-2.075-.866-2.806-.035-2.376 2.7-2.456 6.087-.297 8.474.758.84 1.48 1.888 2.805 1.535Z"/>
  <path fill="#fff" d="M57.872 29.29c1.28-.34 1.864-1.448 2.268-2.624.235-.682.247-1.396.17-2.108-.154-1.43-.508-2.795-1.284-4.032-.282-.407-.513-.864-.856-1.21-.852-.855-2.075-.866-2.806-.035-2.376 2.7-2.456 6.087-.297 8.474.758.84 1.48 1.888 2.805 1.535Z"/>
  <path fill="#0D0D0D" d="M59.285 29.596a5.541 5.541 0 0 0 1.464-2.06c1.129-2.687.163-7.125-1.985-9.097-1.23-1.13-2.429-1.197-3.8-.21-2.605 1.875-3.3 6.02-1.283 9.378.313.552.988 1.366 1.818 2.048 1.34 1.1 2.477 1.086 3.786-.06ZM55.363 19.28c.731-.83 1.954-.82 2.806.036.344.345.575.802.856 1.209.776 1.237 1.13 2.602 1.284 4.032.077.712.065 1.425-.17 2.108-.404 1.175-.989 2.283-2.268 2.624-1.325.353-2.047-.696-2.806-1.535-2.158-2.387-2.078-5.775.298-8.474ZM1.184 70.332c-.859-4.76-.543-5.545 1.676-9.41-3.059 1.926-3.74 5.595-1.676 9.41Z"/>
</svg>
