<svg viewBox="0 0 383 250" fill="none" xmlns="http://www.w3.org/2000/svg">
<path d="M287.904 171.601H262.668V157.869H287.904V171.601ZM263.323 170.947H287.25V158.523H263.323V170.947Z" fill="#DDDDDD"/>
<path d="M263.319 171.601H238.083V157.869H263.319V171.601ZM238.737 170.946H262.664V158.523H238.737V170.946Z" fill="#DDDDDD"/>
<path d="M54.1759 182.395H28.9407V168.663H54.1759V182.395ZM29.5947 181.741H53.5212V169.317H29.5954L29.5947 181.741Z" fill="#DDDDDD"/>
<path d="M29.5906 182.395H4.35474V168.663H29.5906V182.395ZM5.0093 181.74H28.9359V169.317H5.00947L5.0093 181.74Z" fill="#DDDDDD"/>
<path d="M376.784 110.522C376.784 77.3413 349.865 50.4431 316.658 50.4431C283.452 50.4431 256.532 77.3413 256.532 110.522C256.532 130.299 266.097 147.843 280.856 158.79V197.932H352.46V158.79C367.219 147.843 376.784 130.299 376.784 110.522Z" fill="#F9D056"/>
<path d="M352.46 217.316H280.856V248.962H352.46V217.316Z" fill="#0D0D0D"/>
<path d="M315.688 197.886C315.474 190.848 315.36 184.882 315.25 179.113C315.141 173.354 315.028 167.4 314.815 160.379C314.782 159.3 317.427 158.077 322.322 156.199C323.178 155.872 323.854 155.612 324.169 155.459C330.856 152.224 335.027 146.901 337.435 138.405C335.004 140.668 331.697 142.097 328.218 142.454C328.021 142.82 327.803 143.175 327.567 143.517C325.278 146.835 321.362 148.924 317.584 148.854C311.718 148.734 305.737 144.781 301.175 138.009C300.221 136.617 299.393 135.142 298.702 133.602C298.285 133.482 297.868 133.349 297.452 133.203C290.433 130.742 284.995 125.131 283.259 118.559C281.895 113.396 283.018 107.838 285.952 103.75C280.452 103.794 275.058 103.01 270.145 100.029C257.724 92.4921 249.687 78.6571 242.595 66.4514L241.758 65.01C238.351 59.1562 235.444 52.6223 232.368 45.7048C225.639 30.5773 218.68 14.9347 205.967 6.09525C199.895 1.87276 192.378 0.361512 184.8 1.84054C176.58 3.44501 169.278 8.33955 164.764 15.2695C161.479 20.3139 159.428 26.22 157.446 31.932C152.884 45.0746 148.584 57.4832 130.171 57.0089C125.48 56.8859 119.679 55.4826 113.538 53.9968C101.82 51.1618 88.5375 47.9486 80.6139 53.5111L80.3127 53.0829C88.4295 47.3838 101.835 50.6271 113.662 53.488C119.775 54.9674 125.549 56.3643 130.185 56.4856C148.198 56.9599 152.454 44.718 156.951 31.7598C158.944 26.019 161.005 20.082 164.325 14.9833C168.916 7.9354 176.342 2.95762 184.699 1.32648C192.416 -0.179691 200.076 1.36067 206.267 5.66559C219.099 14.5885 226.088 30.2987 232.846 45.4912C235.918 52.3953 238.818 58.9167 242.211 64.746L243.049 66.1879C250.108 78.34 258.11 92.1139 270.418 99.5818C275.34 102.569 280.776 103.322 286.35 103.22C287.38 101.891 288.628 100.746 290.04 99.8332C291.185 99.102 292.432 98.5453 293.741 98.1813C293.835 97.7816 293.944 97.3855 294.066 96.9929C293.029 95.4594 292.257 93.763 291.782 91.9742C290.773 88.1261 291.318 84.4035 293.316 81.4917C296.371 77.0389 302.551 74.5913 310.195 74.7859C323.929 75.1278 337.28 82.3791 345.035 93.711C349.614 100.402 351.451 107.501 350.207 113.701C349.239 118.524 346.232 123.039 342.008 126.345C342.269 130.463 340.839 134.744 338.183 137.651C335.777 146.825 331.464 152.513 324.396 155.931C324.062 156.093 323.377 156.356 322.51 156.688C320.355 157.515 315.31 159.45 315.338 160.364C315.55 167.388 315.665 173.344 315.774 179.103C315.884 184.872 315.997 190.836 316.21 197.872L315.688 197.886ZM299.357 133.779C300.001 135.149 300.755 136.466 301.61 137.716C306.074 144.346 311.901 148.214 317.594 148.329C321.159 148.407 324.976 146.348 327.135 143.219C327.298 142.984 327.449 142.746 327.588 142.506C326.6 142.571 325.607 142.547 324.624 142.434C324.169 142.382 323.725 142.312 323.291 142.223C322.768 142.583 322.214 142.895 321.636 143.156C317.26 145.12 311.665 144.64 306.287 141.84C303.106 140.185 300.359 137.223 300.976 134.145C300.97 134.14 300.965 134.134 300.961 134.128C300.426 134.033 299.892 133.916 299.357 133.779ZM301.438 134.626C301.187 137.305 303.758 139.936 306.528 141.377C311.764 144.101 317.192 144.576 321.421 142.678C321.821 142.498 322.209 142.292 322.581 142.061C320.941 141.658 319.398 140.929 318.044 139.919C317.563 140.031 317.079 140.121 316.591 140.191C311.217 140.95 305.486 138.698 301.438 134.626H301.438ZM323.868 141.798C324.136 141.844 324.407 141.882 324.683 141.914C325.746 142.036 326.818 142.051 327.883 141.96C328.948 139.834 329.092 137.612 328.271 135.58C328.204 135.413 328.13 135.249 328.052 135.087C327.943 135.65 327.786 136.203 327.584 136.74C326.828 138.732 325.543 140.481 323.868 141.798H323.868ZM328.179 134.209C328.399 134.587 328.592 134.98 328.757 135.384C329.597 137.465 329.498 139.726 328.496 141.896C331.977 141.469 335.253 139.933 337.56 137.548C337.609 137.496 337.66 137.444 337.709 137.392C337.888 136.705 338.055 135.998 338.213 135.271C338.746 132.804 339.149 130.421 339.42 128.124C338.064 128.939 336.636 129.627 335.153 130.178C333.396 130.825 331.565 131.249 329.702 131.44C329.255 132.161 328.76 132.852 328.221 133.508C328.216 133.741 328.202 133.975 328.179 134.21L328.179 134.209ZM318.705 139.752C320.055 140.677 321.574 141.327 323.176 141.664C324.954 140.381 326.316 138.605 327.094 136.557C327.365 135.838 327.549 135.089 327.64 134.326C327.623 134.297 327.606 134.268 327.588 134.239C325.206 136.877 322.127 138.788 318.706 139.753L318.705 139.752ZM301.813 134.266C305.747 138.221 311.302 140.412 316.517 139.672C316.854 139.625 317.188 139.567 317.519 139.498C316.612 138.724 315.837 137.807 315.225 136.783C314.375 135.393 313.896 133.809 313.834 132.181C310.422 134.147 306.164 134.874 301.814 134.266L301.813 134.266ZM314.354 131.867C314.357 133.508 314.814 135.116 315.674 136.515C316.326 137.603 317.171 138.564 318.166 139.352C321.697 138.447 324.876 136.509 327.295 133.785C326.729 132.974 326.116 132.196 325.458 131.457C322.717 131.18 320.068 130.314 317.896 128.675C317.267 129.492 316.543 130.232 315.74 130.879C315.297 131.235 314.835 131.565 314.355 131.868L314.354 131.867ZM339.986 127.773C339.695 130.329 339.273 132.869 338.723 135.382C338.642 135.757 338.558 136.126 338.472 136.491C340.529 133.822 341.641 130.233 341.503 126.729C341.013 127.094 340.508 127.442 339.988 127.774L339.986 127.773ZM301.635 133.71C306.071 134.383 310.422 133.636 313.842 131.568C313.881 130.684 314.095 129.817 314.473 129.016C314.853 128.23 315.416 127.547 316.116 127.025C315.965 126.854 315.818 126.678 315.676 126.495C314.022 124.387 313.179 121.882 312.639 119.266C311.429 119.481 310.203 119.595 308.974 119.608C309.479 120.03 309.922 120.522 310.287 121.07C311.405 122.748 311.573 124.664 310.736 126.195C309.78 127.942 307.927 128.896 306.134 129.82C304.172 130.831 302.318 131.786 301.646 133.68C301.643 133.691 301.64 133.701 301.636 133.711L301.635 133.71ZM297.845 128.383C297.908 128.532 297.972 128.679 298.039 128.827C298.825 130.55 299.869 132.142 301.137 133.549L301.153 133.505C301.894 131.415 303.928 130.368 305.894 129.354C307.617 128.468 309.397 127.55 310.277 125.944C311.03 124.567 310.875 122.896 309.851 121.36C309.383 120.658 308.78 120.056 308.077 119.588C306.652 119.527 305.244 119.248 303.902 118.761C300.318 119.553 298.017 123.348 297.826 126.812C297.797 127.336 297.804 127.861 297.845 128.384L297.845 128.383ZM299.084 133.164C299.518 133.284 299.952 133.39 300.387 133.482C299.512 132.454 298.748 131.337 298.109 130.149C298.339 131.182 298.666 132.192 299.085 133.165L299.084 133.164ZM326.199 131.516C326.715 132.111 327.199 132.731 327.651 133.376C327.668 133.357 327.683 133.338 327.698 133.32C327.698 132.726 327.632 132.134 327.499 131.555C327.07 131.549 326.632 131.544 326.2 131.518L326.199 131.516ZM286.608 103.739C283.59 107.726 282.406 113.277 283.766 118.424C285.458 124.831 290.769 130.304 297.626 132.708C297.897 132.803 298.168 132.893 298.441 132.977C297.852 131.55 297.478 130.044 297.33 128.508C295.393 123.822 295.856 119.096 298.521 115.223C298.094 114.797 297.669 114.333 297.248 113.831C294.774 110.878 293.436 107.112 293.264 103.292C291.044 103.513 288.817 103.69 286.608 103.739ZM328.035 131.549C328.116 131.928 328.172 132.311 328.2 132.698C328.498 132.309 328.78 131.909 329.047 131.498C328.711 131.523 328.373 131.54 328.034 131.549H328.035ZM316.473 127.415C315.821 127.89 315.297 128.519 314.945 129.245C314.65 129.866 314.464 130.533 314.395 131.217C314.745 130.983 315.084 130.735 315.412 130.472C316.185 129.849 316.881 129.138 317.487 128.352C317.132 128.059 316.793 127.746 316.473 127.415ZM325.722 130.96C326.266 131.009 326.812 131.034 327.36 131.036C327.264 130.726 327.148 130.422 327.012 130.127C326.244 128.464 324.626 127.188 322.682 126.605C323.321 128.177 324.457 129.494 325.65 130.877C325.674 130.904 325.698 130.932 325.722 130.96ZM322.466 126.004C324.713 126.573 326.609 128.006 327.488 129.907C327.655 130.271 327.795 130.647 327.905 131.032C328.402 131.021 328.897 130.993 329.391 130.948C330.271 129.486 330.931 127.903 331.351 126.249C332.213 122.818 331.955 119.125 330.772 115.746C329.792 115.676 328.809 115.685 327.83 115.773C323.326 118.043 321.494 122.6 322.42 125.848C322.435 125.9 322.45 125.952 322.466 126.004ZM331.342 115.8C332.491 119.214 332.727 122.924 331.858 126.377C331.459 127.954 330.846 129.468 330.037 130.879C331.722 130.675 333.378 130.276 334.97 129.689C336.549 129.102 338.065 128.357 339.495 127.466C339.519 127.241 339.542 127.018 339.563 126.796C338.468 127.706 337.145 128.126 335.8 127.948L335.598 127.921L334.255 116.452C333.311 116.129 332.334 115.911 331.342 115.8ZM318.209 128.255C320.155 129.727 322.505 130.553 324.958 130.876C323.802 129.529 322.657 128.125 322.061 126.445C321.507 126.325 320.943 126.262 320.376 126.258C320.038 126.252 319.699 126.271 319.363 126.314C319.032 126.991 318.646 127.641 318.209 128.255ZM316.918 127.121C317.197 127.406 317.491 127.677 317.799 127.931C318.141 127.449 318.451 126.945 318.727 126.422C318.09 126.557 317.48 126.793 316.918 127.121ZM336.07 127.45C337.376 127.561 338.629 127.056 339.633 126.026C339.785 124.233 339.853 122.489 339.838 120.794C338.954 119.297 337.673 118.074 336.135 117.262C335.704 117.035 335.261 116.832 334.807 116.654L336.07 127.45ZM340.14 126.247C340.115 126.532 340.088 126.817 340.059 127.104C340.541 126.786 341.01 126.452 341.466 126.104C341.436 125.744 341.392 125.386 341.335 125.029C341.313 124.89 341.289 124.752 341.263 124.615C341.138 124.86 341.001 125.097 340.852 125.327C340.641 125.654 340.403 125.961 340.14 126.247ZM298.892 115.581C296.6 118.909 296.034 122.835 297.298 126.888C297.3 126.853 297.301 126.819 297.303 126.784C297.493 123.341 299.67 119.586 303.107 118.44C301.548 117.735 300.122 116.768 298.891 115.581H298.892ZM313.156 119.175C313.684 121.722 314.503 124.152 316.089 126.174C316.239 126.365 316.394 126.55 316.553 126.729C317.308 126.271 318.146 125.967 319.019 125.834C320.265 123.16 320.613 120.134 319.943 117.442L319.183 117.658C317.185 118.226 315.169 118.799 313.155 119.175H313.156ZM320.307 125.734C320.332 125.734 320.356 125.734 320.382 125.734C320.887 125.738 321.39 125.786 321.886 125.876C320.835 121.957 323.261 118.081 326.575 115.914C324.529 116.199 322.478 116.732 320.444 117.301C321.119 120.013 320.808 123.048 319.621 125.761C319.845 125.743 320.074 125.735 320.307 125.735L320.307 125.734ZM341.62 123.798C341.713 124.171 341.791 124.554 341.853 124.946C341.895 125.203 341.929 125.461 341.956 125.72C345.942 122.511 348.772 118.196 349.694 113.597C350.91 107.537 349.102 100.578 344.604 94.0053C336.941 82.8101 323.752 75.6459 310.183 75.3083C306.639 75.2218 297.942 75.6744 293.749 81.7863C291.839 84.5713 291.32 88.1417 292.29 91.8401C292.714 93.4405 293.385 94.9652 294.278 96.3596C294.79 94.9045 295.502 93.5276 296.394 92.2685C299.222 88.2902 303.59 85.9605 307.786 86.1831C310.02 86.3173 312.142 87.2067 313.803 88.7051C315.663 88.3239 317.577 88.2952 319.447 88.6207C322.772 89.19 326.111 90.8336 329.104 93.3738C333.557 97.1519 336.871 102.491 338.69 108.813C339.425 111.383 339.916 114.015 340.158 116.676C340.564 117.077 340.922 117.524 341.224 118.009C342.229 119.644 342.349 121.82 341.62 123.798ZM340.362 121.782C340.351 122.945 340.301 124.129 340.213 125.335C340.282 125.24 340.349 125.143 340.414 125.042C340.675 124.64 340.896 124.213 341.072 123.767C340.895 123.085 340.657 122.421 340.362 121.782H340.362ZM340.361 120.647C340.771 121.355 341.105 122.104 341.357 122.882C341.763 121.265 341.578 119.584 340.777 118.283C340.611 118.014 340.427 117.757 340.227 117.513C340.304 118.541 340.348 119.585 340.36 120.647H340.361ZM334.74 116.066C335.302 116.275 335.85 116.52 336.38 116.799C337.748 117.518 338.926 118.55 339.82 119.809C339.793 118.822 339.736 117.85 339.65 116.893C338.301 115.606 336.481 114.875 334.571 114.629L334.74 116.066ZM308.283 119.1C309.71 119.136 311.136 119.024 312.54 118.765C312.278 117.399 312.09 116.008 311.904 114.631C311.692 113.068 311.478 111.483 311.155 109.94C311.058 109.927 310.959 109.915 310.86 109.904C307.472 109.528 304.007 110.538 301.6 112.602C300.707 113.361 299.902 114.217 299.197 115.153C300.546 116.48 302.145 117.525 303.902 118.227C304.115 118.184 304.332 118.15 304.553 118.127C305.81 117.996 307.136 118.363 308.282 119.1H308.283ZM305.103 118.625C305.703 118.791 306.315 118.913 306.933 118.991C306.35 118.759 305.73 118.635 305.102 118.625L305.103 118.625ZM311.708 110.027C312.011 111.524 312.218 113.053 312.423 114.562C312.608 115.931 312.796 117.315 313.056 118.672C315.019 118.298 317.014 117.731 319.039 117.155L319.805 116.938C319.482 115.852 318.973 114.831 318.299 113.921C316.777 111.881 314.459 110.519 311.707 110.027L311.708 110.027ZM311.592 109.477C314.566 109.959 317.078 111.41 318.718 113.608C319.43 114.569 319.968 115.649 320.305 116.797C322.761 116.11 325.244 115.475 327.718 115.254C328.073 115.074 328.437 114.913 328.809 114.772C329.268 114.598 329.737 114.45 330.214 114.329C329.02 111.569 327.17 109.142 324.826 107.258C324.782 107.223 324.737 107.188 324.692 107.154C323.535 107.375 322.325 107.661 321.098 107.949C317.791 108.726 314.412 109.521 311.539 109.241C311.557 109.319 311.574 109.397 311.591 109.476L311.592 109.477ZM334.503 114.043C336.359 114.257 338.118 114.989 339.577 116.155C339.324 113.721 338.858 111.313 338.185 108.959C336.394 102.736 333.136 97.4854 328.764 93.7738C325.842 91.2945 322.59 89.6913 319.358 89.1377C317.672 88.8444 315.948 88.8483 314.263 89.1492C315.753 90.6748 316.693 92.6464 316.725 94.7221C316.768 97.4729 315.271 100.164 312.898 101.886C317.098 102.426 321.133 103.778 324.826 106.597C328.52 105.912 331.697 105.895 333.314 108.423C333.963 109.437 334.107 110.665 334.234 111.749L334.503 114.043ZM331.148 115.25C332.181 115.348 333.201 115.558 334.189 115.876L334.037 114.573C333.004 114.49 331.965 114.541 330.945 114.725C331.015 114.899 331.082 115.074 331.148 115.25V115.25ZM329.506 115.172C329.862 115.172 330.218 115.183 330.573 115.205C330.526 115.08 330.476 114.955 330.426 114.832C330.023 114.924 329.626 115.038 329.236 115.174C329.326 115.172 329.416 115.171 329.506 115.171V115.172ZM293.782 103.241C293.944 106.957 295.243 110.622 297.649 113.496C298.041 113.963 298.434 114.395 298.83 114.794C299.541 113.844 300.355 112.976 301.259 112.206C303.773 110.048 307.38 108.992 310.919 109.385C310.958 109.389 310.997 109.394 311.037 109.399C311.02 109.323 311.002 109.248 310.984 109.172C309.807 109.018 308.686 108.581 307.716 107.898C306.453 106.981 305.545 105.617 304.975 103.767C303.435 103.583 301.932 103.165 300.519 102.526C299.254 102.648 297.99 102.787 296.731 102.925C295.751 103.032 294.768 103.14 293.782 103.24V103.241ZM325.376 107.03C327.706 108.965 329.541 111.426 330.73 114.21C331.794 113.984 332.884 113.91 333.968 113.99L333.713 111.809C333.593 110.781 333.457 109.616 332.873 108.704C331.483 106.532 328.685 106.462 325.376 107.029V107.03ZM311.409 108.699C314.232 109.026 317.644 108.225 320.977 107.44C322.048 107.188 323.107 106.939 324.132 106.731C320.453 104.041 316.418 102.796 312.22 102.336C311.707 102.647 311.167 102.91 310.607 103.124C310.176 103.287 309.734 103.423 309.285 103.531C310.303 105.113 310.951 106.869 311.409 108.698V108.699ZM305.541 103.818C306.08 105.451 306.902 106.66 308.024 107.474C308.865 108.066 309.831 108.457 310.847 108.617C310.387 106.845 309.74 105.155 308.737 103.647C307.683 103.841 306.609 103.898 305.541 103.818ZM305.379 103.281C306.388 103.373 307.405 103.337 308.405 103.174C308.129 102.802 307.83 102.447 307.51 102.112C306.717 102.118 305.922 102.14 305.123 102.179C305.196 102.564 305.282 102.931 305.379 103.281ZM301.644 102.422C302.669 102.808 303.735 103.075 304.821 103.22C304.736 102.895 304.661 102.558 304.596 102.207C303.613 102.261 302.629 102.335 301.644 102.422ZM293.613 98.7603C292.452 99.1108 291.345 99.6198 290.323 100.273C289.082 101.075 287.972 102.063 287.033 103.203C289.095 103.142 291.174 102.974 293.248 102.768C293.223 101.423 293.346 100.079 293.613 98.7603ZM308.22 102.113C308.487 102.417 308.738 102.735 308.973 103.066C309.465 102.957 309.949 102.813 310.42 102.634C310.719 102.521 311.011 102.391 311.295 102.247C310.278 102.162 309.252 102.12 308.22 102.113V102.113ZM294.179 98.6025C293.884 99.9533 293.745 101.334 293.767 102.716C294.738 102.617 295.707 102.511 296.674 102.405C297.653 102.298 298.636 102.191 299.62 102.091C297.896 101.159 296.369 99.904 295.121 98.3944C294.805 98.4523 294.491 98.5214 294.179 98.6018V98.6025ZM295.724 98.2961C296.972 99.7495 298.496 100.941 300.207 101.803C300.34 101.868 300.474 101.932 300.608 101.993C301.908 101.868 303.21 101.76 304.507 101.687C304.434 101.223 304.377 100.736 304.335 100.227C304.321 100.061 304.312 99.8951 304.308 99.7285C301.663 98.3768 298.664 97.8762 295.723 98.2955L295.724 98.2961ZM307.871 101.586C309.28 101.581 310.689 101.649 312.092 101.79C314.589 100.19 316.244 97.4466 316.201 94.7288C316.17 92.6777 315.189 90.7345 313.654 89.2728C312.087 89.6221 310.604 90.2742 309.288 91.1923C306.544 93.1332 304.85 96.2952 304.829 99.4173C305.894 99.9979 306.87 100.728 307.727 101.585C307.775 101.585 307.823 101.585 307.871 101.585V101.586ZM304.846 100.024C304.849 100.078 304.853 100.131 304.857 100.184C304.9 100.701 304.958 101.192 305.032 101.659C305.683 101.627 306.333 101.605 306.981 101.594C306.328 100.995 305.612 100.468 304.846 100.024V100.024ZM297.737 97.6363C300.016 97.6307 302.264 98.1477 304.311 99.1476C304.426 95.9476 306.183 92.7469 308.984 90.7654C310.254 89.8784 311.675 89.2299 313.177 88.8518C311.646 87.5763 309.747 86.8245 307.757 86.7066C303.734 86.485 299.545 88.739 296.819 92.5724C295.88 93.9004 295.146 95.362 294.642 96.9082C294.862 97.2244 295.092 97.5317 295.333 97.83C296.128 97.7009 296.932 97.6359 297.737 97.6358V97.6363ZM294.449 97.5356C294.401 97.7005 294.356 97.8659 294.314 98.032C294.459 97.998 294.605 97.9656 294.751 97.936C294.649 97.8041 294.548 97.6702 294.449 97.5354V97.5356Z" fill="#0D0D0D"/>
<path d="M44.4532 235.012L42.8242 248.985H59.9486L63.2994 232.12L44.4532 235.012Z" fill="#0D0D0D"/>
<path d="M54.9289 238.767H48.3816V239.421H54.9289V238.767Z" fill="white"/>
<path d="M65.4046 147.347L65.0314 153.621L60.3107 232.578L60.1667 235.012H44.4531L44.1716 157.984L44.1257 145.711L61.3976 147.039L65.4046 147.347Z" fill="#FF5970"/>
<path d="M44.197 196.251L44.0549 196.89L49.9464 198.198L50.0885 197.56L44.197 196.251Z" fill="#0D0D0D"/>
<path d="M60.1669 235.013L59.9487 249.078H89.6299L78.936 240.355L79.4815 235.013L70.2061 230.324L60.1669 235.013Z" fill="#0D0D0D"/>
<path d="M59.8417 234.837L59.6191 249.073L60.2738 249.083L60.4964 234.847L59.8417 234.837Z" fill="white"/>
<path d="M78.788 240.064L72.2395 243.38L72.5356 243.964L79.0841 240.648L78.788 240.064Z" fill="white"/>
<path d="M87.0108 145.057L79.4814 235.012H60.1667V234.842L60.1995 232.598L61.2929 154.406L61.3976 147.039L61.4762 141.459L81.0527 144.22L87.0108 145.057Z" fill="#FF5970"/>
<path d="M60.4942 235.017L59.8395 235.008L60.8185 166.365L53.1663 163.18L53.4182 162.575L61.4796 165.931L60.4942 235.017Z" fill="#0D0D0D"/>
<path d="M82.7253 196.57L75.5234 197.226L75.5829 197.878L82.7847 197.222L82.7253 196.57Z" fill="#0D0D0D"/>
<path opacity="0.2" d="M85.9173 149.25L65.0314 153.621L61.2928 154.406L44.1716 157.984L44.1257 145.711L61.3976 147.039L61.4762 141.459L81.0527 144.22L85.9173 149.25Z" fill="#0D0D0D"/>
<path d="M69.3243 90.9176L69.3381 91.3818L69.5456 97.4958L69.6579 100.776L60.6347 101.476L60.6434 93.9223L59.6467 90.9104L62.4652 88.3809L69.3243 90.9176Z" fill="#FFCEB7"/>
<path d="M69.3382 91.3818L69.5456 97.4958C67.6878 96.9839 65.7041 95.8492 63.5559 93.9344L67.5553 90.7639L69.3382 91.3818Z" fill="#0D0D0D"/>
<path d="M71.4447 81.9938C71.4447 81.9938 74.6856 91.5115 72.9399 93.1103C71.1942 94.709 63.5553 93.9354 63.5553 93.9354L60.9509 89.3896L62.6354 81.9509L71.4447 81.9938Z" fill="#FFCEB7"/>
<path d="M64.9964 86.8173C65.118 84.9674 65.757 83.4972 67.643 82.9411C67.643 82.9411 72.1382 84.9379 73.6858 82.6189C76.4385 78.4944 70.6403 75.1798 68.082 78.3416C63.3216 76.8101 58.7388 78.8401 58.2056 82.4233C54.0419 85.1524 55.0138 89.717 60.6445 93.9236C61.3747 91.2286 62.7688 89.4712 64.8054 88.8415L64.9964 86.8173Z" fill="#0D0D0D"/>
<path d="M72.0993 85.3655C72.0993 85.3655 75.0129 86.9471 74.3447 88.0492C73.8493 88.867 71.5867 88.7587 71.5867 88.7587L72.0993 85.3655Z" fill="#FFCEB7"/>
<path d="M66.2252 86.6166C66.8765 87.453 66.7737 88.6218 65.9961 89.2269C65.2184 89.8321 64.0585 89.6448 63.4071 88.8084C62.7556 87.972 62.8586 86.8032 63.6362 86.198C64.4139 85.5929 65.5736 85.7802 66.2252 86.6166Z" fill="#FFCEB7"/>
<path d="M65.4239 88.1553C64.9553 87.2721 64.4847 87.223 64.1697 87.2595L64.1301 86.935C64.7724 86.8549 65.2906 87.2052 65.7129 88.0019L65.4239 88.1553Z" fill="#0D0D0D"/>
<path opacity="0.4" d="M69.4967 90.9136C70.5137 90.9136 71.3381 90.0898 71.3381 89.0736C71.3381 88.0574 70.5137 87.2336 69.4967 87.2336C68.4797 87.2336 67.6553 88.0574 67.6553 89.0736C67.6553 90.0898 68.4797 90.9136 69.4967 90.9136Z" fill="#FF5970"/>
<path d="M84.2282 100.734C72.1325 98.0845 59.6293 97.8732 47.4509 100.113C46.5427 100.279 45.7141 100.738 45.0927 101.42C44.4712 102.103 44.0913 102.97 44.0113 103.889L40.3523 145.28C40.2913 145.97 40.3754 146.664 40.599 147.32C40.8227 147.975 41.181 148.576 41.651 149.085C42.1209 149.593 42.6922 149.998 43.328 150.273C43.9638 150.548 44.6501 150.686 45.3428 150.681L85.304 150.339C86.009 150.333 86.7046 150.177 87.3446 149.882C87.9847 149.586 88.5545 149.158 89.0161 148.626C89.4777 148.093 89.8206 147.469 90.022 146.794C90.2234 146.119 90.2787 145.408 90.1842 144.71L84.2282 100.734Z" fill="#3976EE"/>
<path d="M47.451 100.114L46.2561 100.39C44.5281 100.79 42.943 101.655 41.673 102.892C40.4029 104.129 39.4967 105.691 39.0529 107.406L32.5895 132.387C32.3568 133.286 32.3166 134.224 32.4716 135.14C32.6266 136.055 32.9732 136.928 33.4888 137.701C34.3236 138.952 35.5608 139.881 36.9959 140.334C38.4309 140.787 39.9777 140.736 41.3803 140.191L45.2717 138.679L47.451 100.114Z" fill="#3976EE"/>
<path d="M118.082 52.4335C117.142 48.6763 111.345 49.3024 111.345 49.3024C111.345 49.3024 111.031 48.2066 109.308 47.5803C107.584 46.9541 106.967 58.8255 106.967 58.8255L105.851 63.6461L116.351 68.3846C117.564 60.6907 118.451 53.9083 118.082 52.4335Z" fill="#FFCEB7"/>
<path d="M105.851 63.6462L100.105 84.6988L74.2434 100.4L81.4188 117.561L109.198 96.3848C110.886 95.1 112.033 93.2328 112.417 91.148C113.311 86.2889 115.026 76.7923 116.351 68.3847L105.851 63.6462Z" fill="#3976EE"/>
<path d="M105.851 63.6462L116.801 64.7452L116.351 68.3847L105.851 63.6462Z" fill="#FFCEB7"/>
<path d="M83.3421 98.4892C81.8198 98.4892 80.3504 98.0283 79.2349 97.123C78.6657 96.6414 78.1977 96.0518 77.8582 95.3883C77.5186 94.7247 77.3141 94.0005 77.2567 93.2574C77.1445 91.8863 77.5349 90.6214 78.3568 89.6953L78.7244 90.0211C77.9922 90.8456 77.6441 91.9809 77.7461 93.2175C77.7976 93.8947 77.9831 94.5549 78.2918 95.1599C78.6005 95.7649 79.0263 96.3028 79.5445 96.7423C81.4201 98.2646 84.3932 98.4225 86.7737 97.1265C88.8654 95.9871 90.522 93.8554 91.4387 91.1258C92.2944 88.5773 92.4325 85.8776 92.4546 83.3396L92.9457 83.3442C92.9233 85.9223 92.782 88.6685 91.9042 91.2817C90.9483 94.1298 89.2098 96.3582 87.0092 97.5571C85.8835 98.1679 84.623 98.4882 83.3421 98.4892Z" fill="white"/>
<path d="M106.533 102.315C104.704 99.3983 104.946 95.3369 107.108 92.6574C109.271 89.9779 113.191 88.8803 116.432 90.0489L116.265 90.5101C113.217 89.4119 109.525 90.4437 107.491 92.9654C105.456 95.4871 105.228 99.3095 106.95 102.054L106.533 102.315Z" fill="white"/>
<path d="M40.4384 139.013C40.1595 137.29 39.4062 135.678 38.2627 134.358C37.1193 133.039 35.6308 132.063 33.964 131.541C32.2972 131.018 30.5178 130.97 28.8249 131.401C27.1321 131.831 25.5926 132.724 24.3788 133.98L24.0259 133.638C26.5677 131.01 30.6208 129.979 34.1112 131.073C37.6016 132.166 40.3392 135.325 40.9231 138.935L40.4384 139.013Z" fill="white"/>
<path d="M31.8014 160.797L31.3525 160.597C32.2652 158.547 33.0286 156.264 33.8366 153.848C36.1735 146.857 38.5901 139.629 44.9057 137.555C50.4218 135.746 56.4444 137.044 62.132 138.717C62.6734 138.876 63.216 139.037 63.7599 139.2C68.7421 140.69 73.8932 142.23 79.0495 141.675C84.5519 141.084 90.491 137.075 90.9067 131.39L91.3965 131.426C91.0601 136.026 86.6369 141.353 79.1021 142.164C73.8495 142.727 68.6483 141.175 63.6189 139.671C63.0759 139.508 62.534 139.347 61.9932 139.187C56.382 137.537 50.4472 136.252 45.059 138.022C38.9776 140.018 36.6009 147.128 34.3023 154.003C33.4902 156.431 32.7237 158.725 31.8014 160.797Z" fill="white"/>
<path d="M40.3574 108.622C38.0226 108.622 35.6865 107.891 33.8567 106.44L34.1616 106.056C37.5252 108.723 42.6853 108.838 46.1642 106.323C49.6431 103.807 51.1485 98.875 49.6655 94.8484L50.1265 94.679C51.6824 98.9046 50.1029 104.081 46.4519 106.72C44.6697 107.976 42.538 108.641 40.3574 108.622Z" fill="white"/>
<path d="M41.9489 123.703L40.4426 140.359L41.0949 140.418L42.6011 123.762L41.9489 123.703Z" fill="#0D0D0D"/>
<path d="M86.4737 112.907L81.2087 117.31L81.6289 117.811L86.8938 113.408L86.4737 112.907Z" fill="#0D0D0D"/>
<path d="M100.28 84.4224L99.9307 84.9753L103.039 86.938L103.389 86.3851L100.28 84.4224Z" fill="#0D0D0D"/>
<path d="M209.273 32.7047C209.074 28.9988 207.779 25.4351 205.554 22.4638L209.526 17.6816L202.875 12.1655L198.904 16.9444C195.669 15.3382 192.038 14.7037 188.449 15.118L186.33 9.28223L178.204 12.2288L180.324 18.0645C177.305 20.0463 174.926 22.8606 173.475 26.1661L167.362 25.0435L165.799 33.5382L171.916 34.6617C172.116 38.3676 173.41 41.9313 175.636 44.9026L171.664 49.6848L178.315 55.2009L182.284 50.422C185.519 52.0281 189.151 52.6626 192.74 52.2484L194.859 58.084L202.984 55.1376L200.865 49.3019C203.884 47.32 206.263 44.5057 207.714 41.2001L213.827 42.3227L215.39 33.8282L209.273 32.7047ZM193.998 43.0537C192.144 43.7263 190.131 43.8342 188.215 43.3638C186.299 42.8934 184.565 41.8658 183.233 40.411C181.902 38.9561 181.032 37.1394 180.733 35.1905C180.435 33.2416 180.722 31.248 181.557 29.4619C182.393 27.6758 183.74 26.1774 185.427 25.1562C187.115 24.135 189.068 23.6368 191.039 23.7246C193.011 23.8124 194.911 24.4823 196.502 25.6496C198.092 26.8169 199.3 28.4292 199.973 30.2825C200.875 32.7677 200.753 35.5094 199.633 37.9044C198.512 40.2995 196.486 42.1517 193.998 43.0537Z" fill="#DDDDDD"/>
<path d="M194.664 58.5032L192.521 52.6015C189.039 52.9584 185.527 52.3447 182.373 50.8286L178.358 55.6614L171.203 49.7275L175.221 44.8907C173.101 41.9795 171.847 38.529 171.605 34.9369L165.418 33.8007L167.099 24.6627L173.281 25.798C174.728 22.6141 177.029 19.8926 179.928 17.9346L177.784 12.0329L186.525 8.86304L188.668 14.7651C192.15 14.4083 195.662 15.0219 198.817 16.5377L202.831 11.7048L209.985 17.6387L205.968 22.4752C208.088 25.3867 209.341 28.8372 209.583 32.4293L215.771 33.5655L214.09 42.7035L207.908 41.5686C206.461 44.7524 204.161 47.4739 201.262 49.432L203.406 55.3334L194.664 58.5032ZM192.96 51.8936L195.056 57.665L202.566 54.9418L200.47 49.1703L200.686 49.0285C203.654 47.0831 205.992 44.3176 207.415 41.0686L207.519 40.8316L213.565 41.942L215.009 34.0914L208.96 32.9803L208.946 32.7226C208.751 29.0812 207.479 25.5796 205.292 22.6605L205.137 22.4541L209.065 17.7251L202.918 12.6268L198.993 17.3535L198.761 17.239C195.583 15.6589 192.014 15.0356 188.488 15.4448L188.231 15.4747L186.135 9.70305L178.624 12.424L180.721 18.1956L180.504 18.3374C177.536 20.2829 175.198 23.0484 173.775 26.2973L173.671 26.5343L167.625 25.4236L166.181 33.2742L172.23 34.3853L172.244 34.643C172.44 38.2843 173.712 41.7857 175.898 44.7052L176.053 44.9115L172.125 49.6405L178.272 54.7388L182.198 50.0121L182.43 50.1266C185.608 51.706 189.177 52.3294 192.702 51.9211L192.96 51.8936ZM190.606 43.9794C188.028 43.9822 185.542 43.0191 183.64 41.2803C181.737 39.5415 180.556 37.1532 180.33 34.587C180.104 32.0207 180.849 29.463 182.417 27.4185C183.986 25.3741 186.265 23.9916 188.804 23.5439C191.343 23.0962 193.958 23.6158 196.132 25.0002C198.306 26.3846 199.882 28.5331 200.549 31.0218C201.215 33.5104 200.924 36.1583 199.732 38.4427C198.54 40.7272 196.534 42.4822 194.111 43.3613C192.988 43.7697 191.801 43.9788 190.606 43.9794ZM190.601 24.0367C189.192 24.0361 187.8 24.3438 186.523 24.9381C185.246 25.5324 184.114 26.399 183.208 27.4769C182.301 28.5549 181.642 29.818 181.277 31.1777C180.911 32.5373 180.848 33.9605 181.091 35.3472C181.335 36.7338 181.879 38.0504 182.686 39.2044C183.494 40.3584 184.544 41.3218 185.763 42.0269C186.983 42.7321 188.342 43.1618 189.746 43.2861C191.149 43.4103 192.563 43.226 193.887 42.746C196.018 41.9706 197.808 40.4702 198.943 38.5079C200.077 36.5456 200.484 34.2469 200.092 32.0148C199.7 29.7826 198.534 27.7597 196.799 26.3009C195.063 24.842 192.869 24.0403 190.601 24.0363L190.601 24.0367Z" fill="#0D0D0D"/>
<path d="M158.485 171.913H157.83V244.328H158.485V171.913Z" fill="#0D0D0D"/>
<path d="M171.034 248.908H145.282C145.282 247.52 145.834 246.188 146.816 245.207C147.798 244.225 149.131 243.674 150.52 243.674H165.797C167.186 243.674 168.519 244.225 169.501 245.207C170.483 246.188 171.035 247.52 171.035 248.908H171.034Z" fill="#0D0D0D"/>
<path d="M191.904 171.913H124.412V174.53H191.904V171.913Z" fill="#0D0D0D"/>
<path d="M163.947 151.54H152.009V172.007H163.947V151.54Z" fill="white"/>
<path d="M164.274 172.334H151.682V151.213H164.275L164.274 172.334ZM152.336 171.68H163.62V151.867H152.337L152.336 171.68Z" fill="#0D0D0D"/>
<path d="M181.69 121.341H134.266C132.301 121.341 130.709 122.932 130.709 124.895V156.21C130.709 158.173 132.301 159.764 134.266 159.764H181.69C183.655 159.764 185.247 158.173 185.247 156.21V124.895C185.247 122.932 183.655 121.341 181.69 121.341Z" fill="white"/>
<path d="M181.69 160.091H134.266C133.236 160.09 132.249 159.681 131.521 158.953C130.793 158.225 130.383 157.239 130.382 156.21V124.895C130.383 123.866 130.793 122.88 131.521 122.152C132.249 121.424 133.236 121.015 134.266 121.014H181.69C182.72 121.015 183.707 121.424 184.436 122.152C185.164 122.88 185.573 123.866 185.574 124.895V156.21C185.573 157.239 185.164 158.225 184.436 158.953C183.707 159.681 182.72 160.09 181.69 160.091ZM134.266 121.668C133.41 121.669 132.589 122.009 131.984 122.614C131.378 123.219 131.038 124.04 131.037 124.895V156.21C131.038 157.065 131.378 157.886 131.984 158.491C132.589 159.096 133.41 159.436 134.266 159.437H181.69C182.546 159.436 183.367 159.096 183.973 158.491C184.578 157.886 184.919 157.065 184.92 156.21V124.895C184.919 124.04 184.578 123.219 183.973 122.614C183.367 122.009 182.546 121.669 181.69 121.668H134.266Z" fill="#0D0D0D"/>
<path d="M169.79 172.007H146.166C146.166 170.941 146.59 169.919 147.344 169.166C148.098 168.412 149.121 167.989 150.187 167.989H165.77C166.298 167.989 166.821 168.093 167.309 168.295C167.797 168.497 168.24 168.793 168.613 169.166C168.987 169.539 169.283 169.982 169.485 170.469C169.687 170.957 169.791 171.479 169.791 172.007H169.79Z" fill="white"/>
<path d="M170.118 172.334H145.839V172.007C145.84 170.855 146.299 169.75 147.114 168.936C147.929 168.121 149.035 167.663 150.188 167.662H165.77C166.923 167.663 168.028 168.121 168.844 168.936C169.659 169.75 170.117 170.855 170.119 172.007L170.118 172.334ZM146.507 171.68H169.449C169.366 170.761 168.942 169.907 168.261 169.285C167.581 168.663 166.692 168.317 165.769 168.316H150.186C149.264 168.317 148.375 168.663 147.694 169.285C147.014 169.907 146.59 170.761 146.507 171.68Z" fill="#0D0D0D"/>
<path d="M148.525 127.877H135.922V138.508H148.525V127.877Z" fill="#DDDDDD"/>
<path d="M180.034 127.877H155.564V138.508H180.034V127.877Z" fill="#DDDDDD"/>
<path d="M180.009 142.597H135.922V153.228H180.009V142.597Z" fill="#DDDDDD"/>
<path d="M383 248.58H0V249.235H383V248.58Z" fill="#0D0D0D"/>
</svg>
