<svg viewBox="0 0 400 306" fill="none" xmlns="http://www.w3.org/2000/svg">
<path d="M123.555 46.1004C123.551 46.1312 123.546 46.1618 123.541 46.1924H49.5569C49.5556 44.0409 50.1048 41.9249 51.152 40.0464C52.1992 38.168 53.7096 36.5897 55.5389 35.4623C57.3682 34.3349 59.4554 33.6959 61.6013 33.6063C63.7473 33.5167 65.8803 33.9796 67.7969 34.9507C68.7342 31.976 70.7391 29.455 73.424 27.875C76.1088 26.2949 79.2831 25.7679 82.3333 26.3958C88.2043 27.5491 92.3607 32.8356 92.3607 38.8288V38.8889C92.5639 38.92 92.9045 39.1915 92.9655 38.9965C95.1611 31.9739 104.125 31.0864 110.301 31.6912C117.767 32.4227 124.744 37.9327 123.555 46.1004Z" fill="white" stroke="#0CC8BC" stroke-width="3.75" stroke-miterlimit="10"/>
<path d="M350.52 290.803C344.75 290.803 340.07 294.48 340.07 299.022C340.07 300.936 340.905 302.699 342.305 304.096H312.94C305.331 282.416 305.333 258.784 312.945 237.105H342.32C340.91 235.708 340.07 233.94 340.07 232.016C340.07 227.473 344.75 223.792 350.52 223.792C356.295 223.792 360.975 227.473 360.975 232.016C360.975 233.94 360.135 235.708 358.725 237.105H374.11V262.234C372.74 260.911 371.03 260.13 369.18 260.13C364.65 260.13 360.975 264.818 360.975 270.598C360.975 276.383 364.65 281.071 369.18 281.071C371.03 281.071 372.74 280.29 374.11 278.968V304.096H358.74C360.14 302.699 360.975 300.936 360.975 299.022C360.975 294.48 356.295 290.803 350.52 290.803Z" fill="#F9D056"/>
<path d="M77.9653 126.588C77.9653 56.6755 134.543 0 204.334 0C274.125 0 330.703 56.6755 330.703 126.588H77.9653Z" fill="white"/>
<path opacity="0.1" d="M77.9653 126.588C77.9653 56.6755 134.543 0 204.334 0C274.125 0 330.703 56.6755 330.703 126.588H77.9653Z" fill="#F9D056"/>
<path d="M188.895 304.597C185.869 304.594 182.964 303.408 180.796 301.293C178.629 299.178 177.37 296.3 177.287 293.27L158.274 283.304H250.394L231.381 293.271C231.298 296.301 230.039 299.179 227.871 301.294C225.704 303.409 222.798 304.594 219.772 304.598L188.895 304.597Z" fill="#001B4F"/>
<path d="M248.36 283.805L230.885 292.965C230.885 295.917 229.714 298.749 227.63 300.836C225.546 302.924 222.72 304.097 219.772 304.097H188.895C185.948 304.097 183.121 302.924 181.037 300.836C178.953 298.749 177.783 295.917 177.783 292.965L160.307 283.805H248.36ZM252.428 282.803H156.24L159.844 284.692L176.798 293.58C176.959 296.686 178.303 299.612 180.554 301.755C182.805 303.898 185.79 305.095 188.895 305.099H219.772C222.877 305.095 225.863 303.898 228.113 301.755C230.364 299.612 231.708 296.686 231.869 293.58L248.823 284.692L252.428 282.803H252.428Z" fill="white"/>
<path d="M204.174 227.072C259.573 227.072 304.483 182.084 304.483 126.588C304.483 71.0927 259.573 26.1046 204.174 26.1046C148.774 26.1046 103.864 71.0927 103.864 126.588C103.864 182.084 148.774 227.072 204.174 227.072Z" fill="white"/>
<path d="M204.174 227.072C259.573 227.072 304.483 182.084 304.483 126.588C304.483 71.0927 259.573 26.1046 204.174 26.1046C148.774 26.1046 103.864 71.0927 103.864 126.588C103.864 182.084 148.774 227.072 204.174 227.072Z" fill="white"/>
<path d="M248.36 196.551H160.308V244.591H248.36V196.551Z" fill="#F9D056"/>
<path d="M248.36 244.591H160.308V270.703H248.36V244.591Z" fill="#699BFF"/>
<path d="M269.67 79.6156C263.895 79.6156 259.215 83.297 259.215 87.8399C259.215 89.7632 260.055 91.5312 261.465 92.9287H237.77V70.1542C236.385 71.5215 234.65 72.3379 232.76 72.3379C228.225 72.3379 224.555 67.6498 224.555 61.8648C224.555 56.0847 228.225 51.3966 232.76 51.3966C234.65 51.3966 236.385 52.213 237.77 53.5804V31.6573C251.873 36.6706 264.681 44.7721 275.262 55.3716C285.843 65.9712 293.931 78.8018 298.935 92.9287H277.87C279.28 91.5312 280.12 89.7632 280.12 87.8399C280.12 83.297 275.44 79.6156 269.67 79.6156Z" fill="#F9D056"/>
<path d="M237.77 201.622C236.385 202.99 234.65 203.806 232.76 203.806C228.225 203.806 224.555 199.118 224.555 193.338C224.555 187.553 228.225 182.865 232.76 182.865C234.65 182.865 236.385 183.681 237.77 185.049V159.92H261.45C260.05 158.522 259.215 156.759 259.215 154.846C259.215 150.303 263.895 146.627 269.67 146.627C275.44 146.627 280.12 150.303 280.12 154.846C280.12 156.759 279.285 158.522 277.885 159.92H298.94C293.937 174.049 285.849 186.881 275.267 197.481C264.684 208.082 251.875 216.184 237.77 221.196V201.622Z" fill="#F9D056"/>
<path d="M269.67 146.627C263.895 146.627 259.215 150.303 259.215 154.846C259.215 156.759 260.05 158.523 261.45 159.92H237.77V134.21C239.225 135.878 241.145 136.895 243.26 136.895C247.79 136.895 251.465 132.207 251.465 126.427C251.465 120.642 247.79 115.954 243.26 115.954C241.145 115.954 239.225 116.97 237.77 118.638V92.9287H261.465C260.055 91.5313 259.215 89.7632 259.215 87.8399C259.215 83.297 263.895 79.6156 269.67 79.6156C275.44 79.6156 280.12 83.297 280.12 87.8399C280.12 89.7632 279.28 91.5313 277.87 92.9287H298.935C306.547 114.608 306.548 138.24 298.94 159.92H277.885C279.285 158.523 280.12 156.759 280.12 154.846C280.12 150.303 275.44 146.627 269.67 146.627Z" fill="#F9D056"/>
<path d="M170.9 221.196V201.702C169.53 203.025 167.82 203.806 165.97 203.806C161.44 203.806 157.765 199.118 157.765 193.338C157.765 187.553 161.44 182.865 165.97 182.865C167.82 182.865 169.53 183.646 170.9 184.968V159.92H196.115C194.715 158.522 193.88 156.759 193.88 154.846C193.88 150.303 198.56 146.627 204.335 146.627C210.105 146.627 214.785 150.303 214.785 154.846C214.785 156.759 213.95 158.522 212.55 159.92H237.77V185.049C236.385 183.681 234.65 182.865 232.76 182.865C228.225 182.865 224.555 187.553 224.555 193.338C224.555 199.118 228.225 203.806 232.76 203.806C234.65 203.806 236.385 202.99 237.77 201.622V221.196C216.129 228.816 192.541 228.816 170.9 221.196Z" fill="#F9D056"/>
<path d="M204.335 106.462C198.56 106.462 193.88 102.781 193.88 98.2429C193.88 96.2144 194.815 94.3562 196.365 92.9287H170.9V70.2343C169.53 71.5566 167.82 72.338 165.97 72.338C161.44 72.338 157.765 67.6498 157.765 61.8648C157.765 56.0848 161.44 51.3966 165.97 51.3966C167.82 51.3966 169.53 52.178 170.9 53.5003V31.6574C192.541 24.0375 216.129 24.0375 237.77 31.6574V53.5804C236.385 52.213 234.65 51.3966 232.76 51.3966C228.225 51.3966 224.555 56.0848 224.555 61.8648C224.555 67.6498 228.225 72.338 232.76 72.338C234.65 72.338 236.385 71.5215 237.77 70.1542V92.9287H212.3C213.85 94.3562 214.785 96.2144 214.785 98.2429C214.785 102.781 210.105 106.462 204.335 106.462Z" fill="#F9D056"/>
<path d="M147.31 79.6156C141.54 79.6156 136.86 83.297 136.86 87.8399C136.86 89.7632 137.7 91.5312 139.11 92.9287H109.735C114.74 78.8018 122.827 65.9712 133.408 55.3716C143.989 44.7721 156.798 36.6706 170.9 31.6573V53.5003C169.53 52.178 167.82 51.3966 165.97 51.3966C161.44 51.3966 157.765 56.0847 157.765 61.8648C157.765 67.6498 161.44 72.3379 165.97 72.3379C167.82 72.3379 169.53 71.5566 170.9 70.2343V92.9287H155.515C156.925 91.5312 157.765 89.7632 157.765 87.8399C157.765 83.297 153.085 79.6156 147.31 79.6156Z" fill="#F9D056"/>
<path d="M269.67 79.6156C263.895 79.6156 259.215 83.297 259.215 87.8399C259.215 89.7632 260.055 91.5312 261.465 92.9287H237.77V70.1542C236.385 71.5215 234.65 72.3379 232.76 72.3379C228.225 72.3379 224.555 67.6498 224.555 61.8648C224.555 56.0847 228.225 51.3966 232.76 51.3966C234.65 51.3966 236.385 52.213 237.77 53.5804V31.6573C251.873 36.6706 264.681 44.7721 275.262 55.3716C285.843 65.9712 293.931 78.8018 298.935 92.9287H277.87C279.28 91.5312 280.12 89.7632 280.12 87.8399C280.12 83.297 275.44 79.6156 269.67 79.6156Z" fill="#F9D056"/>
<path d="M269.67 146.627C263.895 146.627 259.215 150.303 259.215 154.846C259.215 156.759 260.05 158.523 261.45 159.92H237.77V134.21C239.225 135.878 241.145 136.895 243.26 136.895C247.79 136.895 251.465 132.207 251.465 126.427C251.465 120.642 247.79 115.954 243.26 115.954C241.145 115.954 239.225 116.97 237.77 118.638V92.9287H261.465C260.055 91.5313 259.215 89.7632 259.215 87.8399C259.215 83.297 263.895 79.6156 269.67 79.6156C275.44 79.6156 280.12 83.297 280.12 87.8399C280.12 89.7632 279.28 91.5313 277.87 92.9287H298.935C306.547 114.608 306.548 138.24 298.94 159.92H277.885C279.285 158.523 280.12 156.759 280.12 154.846C280.12 150.303 275.44 146.627 269.67 146.627Z" fill="#F9D056"/>
<path d="M204.335 106.462C198.56 106.462 193.88 102.781 193.88 98.2429C193.88 96.2144 194.815 94.3562 196.365 92.9287H170.9V70.2343C169.53 71.5566 167.82 72.338 165.97 72.338C161.44 72.338 157.765 67.6498 157.765 61.8648C157.765 56.0848 161.44 51.3966 165.97 51.3966C167.82 51.3966 169.53 52.178 170.9 53.5003V31.6574C192.541 24.0375 216.129 24.0375 237.77 31.6574V53.5804C236.385 52.213 234.65 51.3966 232.76 51.3966C228.225 51.3966 224.555 56.0848 224.555 61.8648C224.555 67.6498 228.225 72.338 232.76 72.338C234.65 72.338 236.385 71.5215 237.77 70.1542V92.9287H212.3C213.85 94.3562 214.785 96.2144 214.785 98.2429C214.785 102.781 210.105 106.462 204.335 106.462Z" fill="#F9D056"/>
<path d="M147.31 79.6156C141.54 79.6156 136.86 83.297 136.86 87.8399C136.86 89.7632 137.7 91.5312 139.11 92.9287H109.735C114.74 78.8018 122.827 65.9712 133.408 55.3716C143.989 44.7721 156.798 36.6706 170.9 31.6573V53.5003C169.53 52.178 167.82 51.3966 165.97 51.3966C161.44 51.3966 157.765 56.0847 157.765 61.8648C157.765 67.6498 161.44 72.3379 165.97 72.3379C167.82 72.3379 169.53 71.5566 170.9 70.2343V92.9287H155.515C156.925 91.5312 157.765 89.7632 157.765 87.8399C157.765 83.297 153.085 79.6156 147.31 79.6156Z" fill="#F9D056"/>
<path d="M298.935 93.4295H276.654L277.518 92.5727C278.893 91.2103 279.62 89.5731 279.62 87.8398C279.62 83.5813 275.156 80.1164 269.67 80.1164C264.18 80.1164 259.715 83.5813 259.715 87.8398C259.715 89.5731 260.441 91.2097 261.816 92.5727L262.681 93.4295H237.27V71.2545C235.985 72.2717 234.397 72.8294 232.76 72.8388C227.96 72.8388 224.055 67.9161 224.055 61.865C224.055 55.8139 227.96 50.8961 232.76 50.8961C234.397 50.9055 235.985 51.4631 237.27 52.4803V31.6573H238.27V54.7775L237.419 53.9376C236.067 52.6033 234.456 51.8981 232.759 51.8981C228.51 51.8981 225.054 56.3694 225.054 61.8652C225.054 67.3609 228.51 71.8373 232.759 71.8373C234.455 71.8373 236.067 71.132 237.419 69.7977L238.27 68.9579V92.4278H260.353C259.31 91.1249 258.733 89.5096 258.715 87.8398C258.715 83.0287 263.629 79.1147 269.67 79.1147C275.711 79.1147 280.62 83.0287 280.62 87.8398C280.602 89.5096 280.025 91.125 278.982 92.4278H298.935L298.935 93.4295Z" fill="#F5F5F5"/>
<path d="M238.269 221.196H237.269V202.722C235.985 203.74 234.397 204.297 232.759 204.307C227.959 204.307 224.055 199.386 224.055 193.338C224.055 187.287 227.959 182.364 232.759 182.364C234.397 182.373 235.985 182.931 237.269 183.948V159.419H260.342C259.306 158.119 258.733 156.509 258.714 154.846C258.714 150.038 263.629 146.126 269.669 146.126C275.71 146.126 280.62 150.038 280.62 154.846C280.601 156.509 280.028 158.119 278.992 159.419H298.939V160.421H276.674L277.531 159.565C278.898 158.201 279.62 156.57 279.62 154.846C279.62 150.59 275.156 147.128 269.669 147.128C264.18 147.128 259.714 150.59 259.714 154.846C259.714 156.57 260.436 158.201 261.803 159.565L262.66 160.421H238.269V186.245L237.418 185.406C236.067 184.072 234.455 183.366 232.758 183.366C228.51 183.366 225.054 187.84 225.054 193.339C225.054 198.837 228.51 203.306 232.758 203.306C234.455 203.306 236.066 202.6 237.418 201.266L238.269 200.427V221.196Z" fill="#F5F5F5"/>
<path d="M171.4 92.9287H170.4V71.318C169.129 72.2969 167.573 72.831 165.97 72.8386C161.17 72.8386 157.265 67.9159 157.265 61.8648C157.265 55.8137 161.17 50.8959 165.97 50.8959C167.573 50.9035 169.129 51.4377 170.4 52.4166V31.6573H171.4V54.6785L170.553 53.8609C169.222 52.5765 167.638 51.8975 165.97 51.8975C161.721 51.8975 158.265 56.3688 158.265 61.8646C158.265 67.3603 161.721 71.8371 165.97 71.8371C167.637 71.8371 169.222 71.1583 170.553 69.8737L171.4 69.056V92.9287Z" fill="#F5F5F5"/>
<path d="M248.86 270.202H159.808V284.305H248.86V270.202Z" fill="#001B4F"/>
<path d="M248.36 270.703V283.805H160.307V270.704H248.36M249.36 269.702H159.307V284.807H249.36V269.702Z" fill="white"/>
<path d="M186.462 173.164H166.208V171.661H184.962V151.085H186.462V173.164Z" fill="#F5F5F5"/>
<path d="M83.958 302.556C70.1136 296.863 57.7115 288.148 47.6557 277.045C37.6 265.942 30.1439 252.732 25.8311 238.376L55.1613 239.805C53.8307 238.341 53.0813 236.539 53.1751 234.628C53.3951 230.091 58.2479 226.647 64.0111 226.927C69.7793 227.208 74.2755 231.108 74.0553 235.645C73.9625 237.556 73.0431 239.277 71.5769 240.605L86.9288 241.352L85.7145 266.371C84.41 264.984 82.7401 264.12 80.8923 264.03C76.3675 263.81 72.4697 268.314 72.1891 274.092C71.9091 279.865 75.3523 284.726 79.8769 284.947C81.7247 285.037 83.4706 284.339 84.903 283.085L83.958 302.556Z" fill="#F9D056"/>
<path d="M29.5 260.785V304.068H118.857V260.785H29.5ZM84.315 273.636C84.3123 274.504 83.9669 275.336 83.3543 275.949C82.7418 276.563 81.9117 276.909 81.0454 276.912H67.3118C66.4455 276.909 65.6155 276.563 65.0029 275.949C64.3903 275.336 64.0449 274.504 64.0422 273.636C64.0449 272.768 64.3903 271.937 65.0029 271.323C65.6155 270.71 66.4455 270.364 67.3118 270.361H81.0454C81.9117 270.364 82.7418 270.71 83.3543 271.323C83.9669 271.937 84.3123 272.768 84.315 273.636Z" fill="#E7EFFF" stroke="#699BFF" stroke-width="3.75" stroke-miterlimit="10"/>
<path opacity="0.2" d="M118.857 304.068C118.857 304.068 55.6428 299.612 29.5 260.785V304.068H118.857Z" fill="#002878"/>
<path d="M345.687 31.4364C345.688 32.0601 345.641 32.683 345.547 33.2996H271.563C271.561 31.1481 272.11 29.0321 273.158 27.1537C274.205 25.2752 275.715 23.6969 277.544 22.5695C279.374 21.4421 281.461 20.8031 283.607 20.7135C285.753 20.624 287.886 21.0868 289.802 22.0579C290.606 19.5039 292.202 17.2732 294.358 15.6897C296.514 14.1063 299.118 13.2526 301.791 13.2526C308.735 13.2526 313.176 16.3201 313.176 23.2762V23.4231C315.559 23.7862 317.785 24.8317 319.587 26.4337C320.72 20.6392 327.029 18.2607 333.112 18.8405C341.167 19.6064 345.687 24.4803 345.687 31.4364Z" fill="white" stroke="#0CC8BC" stroke-width="3.75" stroke-miterlimit="10"/>
<path d="M274.766 177.975C275.484 176.003 274.448 174.822 274.418 173.751C274.387 172.681 274.713 171.73 274.136 171.59C273.559 171.45 272.876 172.331 272.501 176.983L274.766 177.975Z" fill="#FFCEB7"/>
<path d="M275.396 179.853L274.646 182.883H269.94L267.062 176.441C266.647 175.665 265.524 172.544 265.625 171.886C265.812 170.66 267.305 173.699 267.375 173.75C267.11 172.828 266.207 169.927 266.625 169.273C267.125 168.49 268.641 171.881 269.031 172.903C268.836 171.956 267.739 168.382 268.275 167.862C268.916 167.238 270.405 171.187 270.635 172.424C270.575 171.498 270.13 168.331 270.749 168.407C271.603 168.511 273.095 174.064 273.095 174.064C274.177 175.853 274.954 177.809 275.396 179.853Z" fill="#FFCEB7"/>
<path d="M268.032 175.62C268.566 175.11 269.172 174.683 269.831 174.352C270.169 174.19 270.526 174.074 270.894 174.008C271.264 173.944 271.643 173.956 272.008 174.045L271.992 174.142C271.281 174.103 270.572 174.253 269.937 174.576C269.294 174.901 268.678 175.276 268.093 175.697L268.032 175.62Z" fill="#FFCEB7"/>
<path d="M272.499 175.253C272.35 175.245 272.203 175.279 272.073 175.351C271.943 175.422 271.836 175.529 271.764 175.659C271.645 175.939 271.602 176.245 271.64 176.547C271.664 176.862 271.721 177.174 271.813 177.477C271.895 177.784 272.012 178.08 272.162 178.36L272.084 178.419C271.874 178.158 271.712 177.862 271.605 177.544C271.491 177.228 271.42 176.899 271.393 176.564C271.355 176.216 271.421 175.865 271.582 175.554C271.632 175.477 271.69 175.407 271.756 175.344C271.829 175.289 271.907 175.242 271.989 175.203C272.074 175.179 272.161 175.161 272.248 175.15L272.504 175.155L272.499 175.253Z" fill="#FFCEB7"/>
<path d="M292.213 298.505L292.666 292.684H284.843L283.759 295.139C283.304 296.163 282.687 297.106 281.932 297.934C284.251 299.155 287.862 300.49 292.213 298.505Z" fill="#FFCEB7"/>
<path d="M281.932 297.934C280.836 299.146 279.472 300.083 277.949 300.67L274.451 302.011C274.247 302.141 274.091 302.333 274.006 302.559C273.921 302.785 273.911 303.033 273.979 303.265C274.046 303.496 274.187 303.7 274.379 303.845C274.572 303.99 274.807 304.069 275.048 304.068H289.208C289.908 304.068 290.583 303.804 291.097 303.328C291.611 302.851 291.927 302.198 291.981 301.499L292.214 298.505C287.862 300.49 284.251 299.155 281.932 297.934Z" fill="#001B4F"/>
<path d="M311.372 298.505L310.919 292.685H318.74L319.824 295.139C320.28 296.163 320.897 297.107 321.652 297.934C319.334 299.155 315.723 300.49 311.372 298.505Z" fill="#FFCEB7"/>
<path d="M321.653 297.934C322.748 299.146 324.113 300.083 325.636 300.67L329.134 302.011C329.337 302.141 329.493 302.333 329.578 302.559C329.664 302.785 329.673 303.033 329.606 303.265C329.539 303.496 329.398 303.7 329.205 303.845C329.012 303.99 328.778 304.069 328.537 304.068H314.377C313.676 304.068 313.002 303.804 312.488 303.328C311.974 302.851 311.658 302.198 311.604 301.499L311.371 298.505C315.723 300.49 319.334 299.155 321.653 297.934Z" fill="#001B4F"/>
<path d="M320.705 293.802H307.245L299.934 237.093L296.134 262.862L295.344 293.802H282.704C281.713 269.788 282.968 243.98 287.104 215.872L287.384 211.404L287.704 206.31L313.129 208.179L313.434 211.65L314.024 218.271L320.705 293.802Z" fill="#002878"/>
<path opacity="0.6" d="M314.025 218.271C311.631 221.895 294.938 221.77 287.013 217.333L287.385 211.404L313.435 211.65L314.025 218.271Z" fill="#001B4F"/>
<path d="M286.398 207.804C286.398 207.804 283.883 214.328 286.041 215.581C288.2 216.833 313.114 217.083 315.085 215.581C317.057 214.078 312.285 210.321 312.74 207.817C313.195 205.313 286.398 207.804 286.398 207.804Z" fill="#699BFF"/>
<path d="M284.268 180.98C283.393 182.921 280.143 188.805 280.143 188.805L275.393 179.853C274.329 180.716 273.077 181.522 269.356 181.574C269.356 181.574 274.705 201.39 279.518 203.428C287.41 206.77 289.268 191.811 289.268 191.811L284.268 180.98Z" fill="#699BFF"/>
<path d="M284.268 180.98L285.553 177.956C286.045 176.744 286.968 175.758 288.143 175.187C288.257 175.134 288.372 175.086 288.489 175.041C290.724 174.194 294.865 172.861 298.705 172.903C300.08 172.903 305.197 172.842 313.509 174.97L315.83 204.709L288.33 204.145L284.268 180.98Z" fill="#699BFF"/>
<path opacity="0.3" d="M308.813 180.98C309.458 192.156 308.558 204.167 302.062 204.942L309.566 207.057L317.626 202.737L314.439 185.144L308.813 180.98Z" fill="#002878"/>
<path d="M310.03 174.162C311.687 174.526 314.455 174.907 315.83 175.846C317.204 176.785 321.08 196.882 322.08 201.516C323.08 206.149 323.33 210.907 302.83 211.658L300.83 206.023L312.83 201.39L308.228 180.98L310.03 174.162Z" fill="#699BFF"/>
<path d="M287.932 182.512C288.076 184.524 288.142 186.537 288.209 188.551L288.269 191.572C288.277 192.58 288.283 193.587 288.261 194.596L288.114 194.6C288.037 193.594 287.989 192.588 287.942 191.581L287.837 188.561C287.795 186.547 287.751 184.532 287.786 182.516L287.932 182.512Z" fill="#002878"/>
<path d="M310.798 203.269V204.427L305.076 209.608L304.627 207.472L310.798 203.269Z" fill="#001B4F"/>
<path d="M304.242 208.857L310.798 203.269L298.456 201.724L304.242 208.857Z" fill="white"/>
<path d="M305.075 209.608H281.342L277.368 190.684H301.101L305.075 209.608Z" fill="#001B4F"/>
<path d="M292.548 201.475H289.895L289.395 198.818H292.048L292.548 201.475Z" fill="white"/>
<path d="M290.412 153.595C287.75 146.827 298.875 144.323 299.96 149.987C299.96 149.987 303.139 148.333 306.295 150.087C312.375 153.465 308.448 162.977 306.295 162.977L295.311 161.542L290.412 153.595Z" fill="#6D7280"/>
<path d="M304.32 166.421V173.349C304.32 175.253 302.5 176.796 300.245 176.796C297.995 176.796 296.175 175.253 296.175 173.349V166.421H304.32Z" fill="#FFCEB7"/>
<path d="M302.565 169.021C301.52 170.408 299.275 172.006 296.175 172.041V168.39L302.565 169.021Z" fill="#0D0D0D"/>
<path d="M304.32 155.222V167.082C304.32 167.082 301.995 171.039 297.24 170.714C294.88 170.548 293.69 169.071 293.07 166.702C292.815 165.698 292.645 164.674 292.56 163.641C292.38 161.743 292.33 159.544 292.265 157.17V155.222H304.32Z" fill="#FFCEB7"/>
<path d="M292.363 152.345C290.894 151.063 287.921 152.038 287.047 153.841C285.813 156.389 287.421 158.959 289.507 159.663C292.533 160.685 293.76 157.497 293.76 157.497C293.76 157.497 294.738 158.881 296.914 158.58C298.482 158.364 299.023 156.82 299.023 156.82C299.023 156.82 299.507 160.761 304.673 160.665C305.781 160.286 306.295 155.981 306.295 155.981L302.889 152.433L292.363 152.345Z" fill="#6D7280"/>
<path d="M302.831 211.658C300.293 212.178 297.633 212.487 295.055 212.091C293.45 211.845 291.877 211.293 290.581 210.294C289.49 209.43 288.608 208.33 288.004 207.075C287.864 206.782 287.764 206.346 288.008 206.079C288.275 205.787 288.76 206.288 289.018 206.483C289.857 207.151 290.594 207.938 291.206 208.82C291.206 208.82 289.26 205.62 289.747 205.105C290.122 204.709 290.691 204.805 292.649 208.06C292.649 208.06 293.018 208.862 293.372 208.444C293.563 208.219 292.255 205.699 293.206 205.481C293.935 205.314 294.622 207.695 295.122 208.633C295.747 209.363 296.831 208.633 296.831 208.633L302.111 209.629L302.831 211.658Z" fill="#FFCEB7"/>
<path d="M296.693 208.782C296.609 208.241 296.465 207.711 296.262 207.202C296.21 207.088 296.17 206.969 296.144 206.846C296.066 206.382 296.478 206.242 296.754 206.338C297.36 206.548 297.901 207.356 298.257 207.985C298.593 208.564 298.735 209.235 298.662 209.901C298.633 210.106 296.929 210.109 296.818 209.861C296.795 209.799 296.784 209.732 296.785 209.666C296.77 209.37 296.74 209.075 296.693 208.782Z" fill="#FFCEB7"/>
<path d="M298.782 227.621C299.102 229.681 299.409 231.742 299.702 233.806L300.544 240L301.322 246.202L301.682 249.308L302.009 252.417L301.815 252.442L301.335 249.353L300.889 246.259L300.053 240.064L299.283 233.861C299.033 231.792 298.805 229.72 298.589 227.647L298.782 227.621Z" fill="#699BFF"/>
<path d="M295.552 178.339C296.199 178.938 296.96 179.402 297.788 179.703C298.617 180.003 299.497 180.135 300.377 180.09C301.253 180.038 302.108 179.802 302.887 179.398C303.672 178.985 304.392 178.457 305.021 177.832L305.13 177.93C304.546 178.639 303.838 179.235 303.04 179.688C302.23 180.143 301.327 180.407 300.4 180.462C299.472 180.516 298.545 180.359 297.687 180.003C296.832 179.658 296.066 179.124 295.447 178.441L295.552 178.339Z" fill="#002878"/>
<path d="M303.745 161.255C304.285 159.918 305.325 159.547 306.338 160.021C307.944 160.774 307.413 164.944 303.745 165.036V161.255Z" fill="#FFCEB7"/>
<path d="M304.552 162.01C304.516 161.809 304.528 161.602 304.584 161.406C304.641 161.21 304.742 161.029 304.88 160.878C304.958 160.794 305.054 160.727 305.16 160.683C305.267 160.639 305.382 160.618 305.497 160.622C305.711 160.645 305.907 160.751 306.044 160.918L305.956 161.036C305.812 160.972 305.654 160.943 305.497 160.95C305.361 160.967 305.236 161.034 305.146 161.138C305.036 161.252 304.945 161.385 304.879 161.53C304.804 161.684 304.743 161.845 304.699 162.011L304.552 162.01Z" fill="#6D7280"/>
<path d="M295.104 161.949C295.104 162.418 294.844 162.797 294.526 162.797C294.207 162.797 293.947 162.418 293.947 161.949C293.947 161.481 294.206 161.102 294.526 161.102C294.845 161.102 295.104 161.481 295.104 161.949Z" fill="#0D0D0D"/>
<path d="M300.003 161.949C300.003 162.418 299.744 162.797 299.425 162.797C299.105 162.797 298.846 162.418 298.846 161.949C298.846 161.481 299.106 161.102 299.425 161.102C299.743 161.102 300.003 161.481 300.003 161.949Z" fill="#0D0D0D"/>
<path d="M296.755 162.278C296.812 162.453 296.853 162.632 296.878 162.815C296.891 162.906 296.897 162.998 296.901 163.091C296.913 163.205 296.895 163.321 296.848 163.426C296.705 163.675 296.474 163.713 296.35 163.791C296.227 163.858 296.128 163.963 296.07 164.091C296.01 164.216 295.992 164.357 296.019 164.493C296.047 164.628 296.119 164.751 296.223 164.842C296.434 165.032 296.791 165.06 297.131 165.03L297.164 165.173C296.982 165.254 296.784 165.29 296.585 165.277C296.387 165.265 296.194 165.205 296.024 165.102C295.847 164.97 295.722 164.781 295.669 164.567C295.617 164.352 295.641 164.126 295.737 163.928C295.835 163.733 295.994 163.575 296.19 163.478C296.266 163.476 296.341 163.456 296.408 163.419C296.475 163.383 296.532 163.33 296.575 163.267C296.617 163.203 296.644 163.131 296.653 163.055C296.662 162.979 296.652 162.902 296.625 162.83C296.63 162.656 296.625 162.483 296.611 162.309L296.755 162.278Z" fill="#FFCEB7"/>
<path d="M295.43 166.964C295.725 167.055 296.029 167.111 296.337 167.129C296.642 167.153 296.949 167.147 297.253 167.11C297.555 167.08 297.852 167.009 298.135 166.9C298.422 166.792 298.696 166.649 298.95 166.475L299.05 166.581C298.835 166.842 298.567 167.053 298.264 167.202C297.959 167.349 297.632 167.443 297.295 167.48C296.962 167.514 296.625 167.502 296.295 167.444C295.963 167.394 295.644 167.274 295.36 167.094L295.43 166.964Z" fill="#0D0D0D"/>
<path d="M293.148 160.713C293.279 160.477 293.459 160.271 293.674 160.108C293.903 159.937 294.183 159.849 294.469 159.858C294.745 159.88 295.013 159.968 295.249 160.116C295.473 160.258 295.677 160.432 295.854 160.631L295.789 160.704C295.582 160.558 295.366 160.426 295.143 160.307C294.931 160.193 294.697 160.125 294.457 160.107C293.983 160.069 293.567 160.397 293.226 160.771L293.148 160.713Z" fill="#0D0D0D"/>
<path d="M298.056 160.713C298.21 160.455 298.43 160.243 298.693 160.099C298.963 159.952 299.268 159.884 299.574 159.902C300.172 159.962 300.724 160.249 301.116 160.706L301.051 160.779C300.588 160.462 300.097 160.175 299.56 160.15C299.291 160.137 299.022 160.186 298.775 160.294C298.528 160.401 298.309 160.565 298.135 160.771L298.056 160.713Z" fill="#0D0D0D"/>
<path opacity="0.4" d="M301.148 166.478C302.008 166.478 302.706 165.779 302.706 164.917C302.706 164.055 302.008 163.356 301.148 163.356C300.287 163.356 299.59 164.055 299.59 164.917C299.59 165.779 300.287 166.478 301.148 166.478Z" fill="#FF5970"/>
<path opacity="0.4" d="M294.505 165.154C294.505 165.546 294.357 165.923 294.091 166.21C293.825 166.497 293.46 166.673 293.07 166.702C292.815 165.698 292.645 164.674 292.56 163.641C292.685 163.607 292.815 163.59 292.945 163.591C293.359 163.592 293.755 163.757 294.048 164.05C294.34 164.343 294.505 164.74 294.505 165.154Z" fill="#FF5970"/>
<path d="M351.259 137.049H331.26C326.228 137.049 322.149 141.136 322.149 146.177V149.059C322.149 154.1 326.228 158.186 331.26 158.186H351.259C356.291 158.186 360.37 154.1 360.37 149.059V146.177C360.37 141.136 356.291 137.049 351.259 137.049Z" fill="#BBFFFB"/>
<path d="M327.96 150.359L318.74 158.187H337.182L327.96 150.359Z" fill="#BBFFFB"/>
<path d="M334.385 149.588C335.471 149.588 336.352 148.706 336.352 147.618C336.352 146.53 335.471 145.648 334.385 145.648C333.299 145.648 332.418 146.53 332.418 147.618C332.418 148.706 333.299 149.588 334.385 149.588Z" fill="white"/>
<path d="M341.259 149.588C342.346 149.588 343.226 148.706 343.226 147.618C343.226 146.53 342.346 145.648 341.259 145.648C340.173 145.648 339.292 146.53 339.292 147.618C339.292 148.706 340.173 149.588 341.259 149.588Z" fill="white"/>
<path d="M348.134 149.588C349.22 149.588 350.101 148.706 350.101 147.618C350.101 146.53 349.22 145.648 348.134 145.648C347.048 145.648 346.167 146.53 346.167 147.618C346.167 148.706 347.048 149.588 348.134 149.588Z" fill="white"/>
<path d="M92.2352 185.996C91.2372 187.251 88.052 197.909 88.052 197.909C88.052 197.909 91.3858 200 96.5246 199.445C96.3336 199.44 92.2352 185.996 92.2352 185.996Z" fill="#FF5970"/>
<path d="M102.4 299.294L102.79 294.269H96.0385L95.1027 296.387C94.7095 297.271 94.1767 298.085 93.5249 298.799C95.5267 299.855 98.6441 301.007 102.4 299.294Z" fill="#FFCEB7"/>
<path d="M93.5247 298.8C92.5789 299.846 91.4011 300.656 90.0861 301.163L87.0661 302.32C86.8903 302.432 86.7555 302.598 86.6819 302.793C86.6083 302.988 86.6 303.202 86.6581 303.402C86.7162 303.602 86.8376 303.778 87.0041 303.903C87.1706 304.029 87.3731 304.096 87.5813 304.096H99.8045C100.409 304.096 100.992 303.868 101.436 303.457C101.88 303.046 102.152 302.482 102.199 301.878L102.4 299.293C98.6439 301.007 95.5265 299.855 93.5247 298.8Z" fill="#001B4F"/>
<path d="M122.433 299.294L122.042 294.269H128.795L129.731 296.387C130.124 297.271 130.657 298.085 131.308 298.799C129.307 299.855 126.189 301.007 122.433 299.294Z" fill="#FFCEB7"/>
<path d="M131.309 298.8C132.254 299.846 133.432 300.656 134.747 301.163L137.767 302.32C137.943 302.432 138.078 302.598 138.151 302.793C138.225 302.988 138.233 303.202 138.175 303.402C138.117 303.602 137.996 303.778 137.829 303.903C137.663 304.029 137.46 304.096 137.252 304.096H125.028C124.423 304.096 123.841 303.868 123.397 303.456C122.954 303.045 122.681 302.481 122.634 301.878L122.433 299.293C126.189 301.007 129.307 299.855 131.309 298.8Z" fill="#001B4F"/>
<path d="M131.72 296.231H118.04L108.095 236.398L104.985 296.231H92.4799L93.2199 234.805C91.9449 229.09 92.3599 224.677 94.1349 220.049C94.6068 218.822 95.1426 217.62 95.7399 216.448C96.1549 215.627 96.6065 214.782 97.0949 213.914H118.975L119.365 216.448L119.585 217.845L131.72 296.231Z" fill="#699BFF"/>
<path d="M118.905 175.148L112.432 183.273L119.585 186.39L124.302 176.793L122.197 174.872L118.905 175.148Z" fill="#FFCEB7"/>
<path d="M108.629 184.554H101.202L101.702 174.433H109.129L108.629 184.554Z" fill="#FFCEB7"/>
<path d="M112.277 166.464C113.887 168.542 114.761 169.608 114.679 170.073C114.597 170.538 114.024 171.522 112.031 171.195C112.113 170.839 112.277 166.464 112.277 166.464Z" fill="#FFCEB7"/>
<path d="M112.7 172.41C112.423 174.155 111.658 175.416 109.947 175.587C105.581 176.026 101.432 174.201 101.432 174.201L100.629 164.65L104.488 161.879L112.276 163.048C112.359 164.771 112.667 166.9 112.787 168.913C112.881 170.079 112.852 171.25 112.7 172.41Z" fill="#FFCEB7"/>
<path d="M109.111 164.322C111.004 166.109 113.277 166.257 114.684 165.051C117.663 162.5 115.714 156.339 109.111 158.635C109.111 158.635 101.833 155.318 97.6111 159.693C93.3895 164.067 96.5943 168.764 91.3823 175.655C91.3823 175.655 101.348 182.247 113.066 176.007C111.193 172.646 107.506 175.303 107.401 169.655C107.364 169.572 106.819 164.869 109.111 164.322Z" fill="#001B4F"/>
<path opacity="0.3" d="M120.5 216.448C120.42 216.899 120.105 217.369 119.585 217.845C116.265 220.876 104.665 223.841 94.1345 220.049C94.6064 218.821 95.1421 217.619 95.7395 216.448H120.5Z" fill="#002878"/>
<path d="M119.6 217.951C118.07 218.627 101.98 222.043 94.3349 217.615C93.7549 217.109 92.2499 216.633 94.3749 213.914C96.4999 211.189 93.1499 196.694 92.2349 185.995C95.0678 183.291 98.5991 181.435 102.43 180.636C105.465 180.04 108.735 180.295 111.4 180.636C114.065 180.976 118.48 182.764 118.48 182.764L118.14 194.931C118.14 194.931 118.035 195.507 117.905 196.463C117.905 196.458 117.905 196.458 117.9 196.463C117.56 198.89 117.374 201.336 117.345 203.786C117.32 207.272 117.745 210.888 119.31 212.752C122.04 216.012 121.125 217.269 119.6 217.951Z" fill="#FF5970"/>
<path d="M126.49 190.343L124.645 200.727C124.632 200.723 124.62 200.716 124.61 200.707L122.291 199.241L122.225 199.195C122.19 199.17 122.155 199.146 122.118 199.124L113.148 193.457L109.367 180.413C113.061 180.965 117.103 181.24 119.631 183.533C121.455 185.192 124.436 188.239 126.49 190.343Z" fill="#FF5970"/>
<path d="M138.186 177.247C138.186 177.247 135.255 197.014 134.745 198.993C134.675 199.263 134.595 199.534 134.495 199.809C133.88 201.547 132.65 203.245 130.225 203.075C129.573 203.003 128.935 202.838 128.33 202.584C127.054 202.063 125.822 201.442 124.645 200.726L126.49 190.343C127.28 191.149 127.935 191.815 128.335 192.206L131.532 176.29L138.186 177.247Z" fill="#FFCEB7"/>
<path d="M151.486 158.367C145.711 158.367 141.031 162.044 141.031 166.586C141.031 168.5 141.866 170.263 143.266 171.66H118.051V146.532C116.681 147.854 114.971 148.636 113.121 148.636C108.591 148.636 104.916 143.948 104.916 138.163C104.916 132.383 108.591 127.695 113.121 127.695C114.971 127.695 116.681 128.476 118.051 129.798V104.67H143.516C141.966 106.097 141.031 107.955 141.031 109.984C141.031 114.522 145.711 118.203 151.486 118.203C157.256 118.203 161.936 114.522 161.936 109.984C161.936 107.955 161.001 106.097 159.451 104.67H184.921V130.379C186.376 128.711 188.296 127.694 190.411 127.694C194.941 127.694 198.616 132.382 198.616 138.167C198.616 143.947 194.941 148.635 190.411 148.635C188.296 148.635 186.376 147.618 184.921 145.951V171.66H159.701C161.101 170.263 161.936 168.5 161.936 166.586C161.936 162.044 157.256 158.367 151.486 158.367Z" fill="#F9D056"/>
<path d="M131.541 177.795C131.238 175.824 131.625 173.707 132.062 171.31L138.877 171.375C137.991 173.438 139.625 175.502 138.186 177.247L135.036 180.631L131.541 177.795Z" fill="#FFCEB7"/>
<path d="M124.302 176.793C125.984 175.655 127.859 171.405 127.859 171.405C126.555 171.339 121.828 171.229 119.999 171.406C119.999 171.406 120.011 173.957 118.907 175.148C118.247 175.858 124.302 176.793 124.302 176.793Z" fill="#FFCEB7"/>
<path d="M108.493 169.396C108.319 168.379 107.723 167.788 106.735 167.498C106.086 167.307 105.193 167.612 104.962 168.35C104.553 169.663 105.181 172.971 108.182 171.495C108.52 171.347 108.71 170.664 108.493 169.396Z" fill="#FFCEB7"/>
<path d="M94.496 203.948C94.2894 202.722 94.091 201.495 93.909 200.265L93.379 196.575L92.899 192.879C92.7478 191.646 92.6101 190.41 92.4858 189.173L92.631 189.153C92.8428 190.378 93.0402 191.605 93.2234 192.834L93.7482 196.525L94.2238 200.223C94.377 201.456 94.5136 202.691 94.6422 203.928L94.496 203.948Z" fill="#6D7280"/>
<path opacity="0.3" d="M117.9 196.463C117.56 198.89 117.375 201.336 117.345 203.786C115.155 199.819 114.185 194.114 114.185 194.114C114.185 194.114 116.045 195.286 117.9 196.463Z" fill="#6D7280"/>
<path d="M118.476 182.836C118.052 182.855 117.634 182.94 117.237 183.089C116.849 183.247 116.485 183.462 116.16 183.727C115.831 183.997 115.53 184.299 115.262 184.629C114.986 184.96 114.732 185.309 114.504 185.675L114.37 185.615C114.526 185.192 114.738 184.793 115.002 184.428C115.267 184.06 115.578 183.727 115.928 183.437C116.288 183.152 116.697 182.933 117.133 182.79C117.571 182.658 118.033 182.623 118.486 182.69L118.476 182.836Z" fill="#6D7280"/>
<path d="M104.27 235.995C105.556 236.265 106.872 236.356 108.183 236.268C108.838 236.231 109.491 236.16 110.139 236.055C110.788 235.953 111.436 235.821 112.074 235.662L112.123 235.801C111.5 236.05 110.856 236.243 110.198 236.377C109.541 236.511 108.874 236.599 108.204 236.64C107.533 236.678 106.859 236.659 106.19 236.582C105.522 236.505 104.865 236.356 104.229 236.136L104.27 235.995Z" fill="#002878"/>
<path opacity="0.4" d="M112.7 172.41C112.591 172.432 112.479 172.443 112.368 172.442C111.894 172.442 111.439 172.253 111.103 171.917C110.768 171.581 110.579 171.125 110.579 170.65C110.579 170.175 110.768 169.719 111.103 169.383C111.439 169.047 111.894 168.858 112.368 168.858C112.51 168.857 112.651 168.876 112.788 168.913C112.881 170.079 112.852 171.25 112.7 172.41Z" fill="#FF5970"/>
<path d="M106.883 169.157C106.717 168.897 106.528 168.63 106.318 168.573C106.264 168.561 106.207 168.56 106.152 168.571C106.097 168.581 106.045 168.603 105.998 168.635C105.87 168.713 105.748 168.8 105.634 168.897L105.524 168.818C105.587 168.652 105.691 168.504 105.825 168.387C105.905 168.318 106 168.269 106.102 168.244C106.205 168.219 106.311 168.219 106.414 168.244C106.601 168.312 106.758 168.445 106.855 168.62C106.946 168.771 106.999 168.942 107.012 169.118L106.883 169.157Z" fill="#6D7280"/>
<path d="M99.0446 160.48C99.3217 158.77 98.1621 157.158 96.4545 156.881C94.747 156.603 93.1382 157.765 92.8611 159.475C92.584 161.186 93.7436 162.797 95.4511 163.075C97.1587 163.353 98.7675 162.191 99.0446 160.48Z" fill="#001B4F"/>
<path opacity="0.4" d="M134.495 199.809C133.88 201.547 132.65 203.245 130.225 203.075C129.573 203.004 128.935 202.838 128.33 202.584C129.325 199.884 131.415 199.143 134.495 199.809Z" fill="#FF5970"/>
<path d="M139.23 170.263C139.18 170.518 139.031 170.792 138.965 171.134C138.469 173.707 138.305 174.094 138.305 174.094L136.345 173.093C136.73 171.745 137.705 169.835 138.225 169.189C138.505 168.838 138.689 168.615 138.994 168.9C139.23 169.111 139.365 169.552 139.23 170.263Z" fill="#FFCEB7"/>
<path d="M139.23 170.263C138.415 170.037 138.83 169.657 138.995 168.9C139.23 169.111 139.365 169.552 139.23 170.263Z" fill="#FFCEB7"/>
<path d="M121.254 168.928C121.214 169.186 121.262 169.494 121.208 169.839C120.803 172.427 120.825 172.847 120.825 172.847L123.008 172.572C123.103 171.174 122.832 169.046 122.562 168.26C122.418 167.835 122.32 167.563 121.937 167.727C121.644 167.845 121.368 168.214 121.254 168.928Z" fill="#FFCEB7"/>
<path d="M121.253 168.928C122.096 168.994 121.835 168.495 121.936 167.726C121.644 167.845 121.367 168.214 121.253 168.928Z" fill="#FFCEB7"/>
<path d="M123.036 170.96C123.036 171.173 123.114 171.379 123.256 171.539C123.39 171.688 123.621 171.812 123.744 172.077C123.829 172.325 123.825 172.594 123.732 172.839C123.657 173.069 123.541 173.284 123.388 173.471L123.306 173.419C123.399 173.214 123.471 173 123.521 172.78C123.582 172.583 123.581 172.371 123.516 172.174C123.456 171.999 123.25 171.881 123.093 171.673C123.016 171.571 122.962 171.453 122.936 171.328C122.909 171.202 122.91 171.073 122.939 170.948L123.036 170.96Z" fill="#FFCEB7"/>
<path d="M137.111 171.261C137.052 171.589 136.88 171.887 136.626 172.102C136.363 172.334 136.036 172.393 135.892 172.621C135.729 172.86 135.639 173.142 135.632 173.431C135.611 173.732 135.645 174.035 135.733 174.324L135.643 174.361C135.49 174.072 135.412 173.75 135.413 173.423C135.404 173.083 135.503 172.749 135.695 172.469C135.928 172.169 136.28 172.109 136.494 171.937C136.733 171.76 136.915 171.516 137.016 171.236L137.111 171.261Z" fill="#FFCEB7"/>
<g opacity="0.3">
<path d="M94.4598 213.863C94.8834 214.388 95.5052 214.725 96.1298 215.01C96.7668 215.288 97.424 215.519 98.0956 215.698C98.7665 215.891 99.4482 216.044 100.137 216.156C100.824 216.279 101.52 216.344 102.217 216.351L102.239 216.545C101.524 216.662 100.797 216.676 100.079 216.589C99.3631 216.509 98.6551 216.371 97.9618 216.176C97.2655 215.981 96.5901 215.717 95.945 215.39C95.3134 215.049 94.665 214.63 94.292 213.964L94.4598 213.863Z" fill="#6D7280"/>
</g>
<path d="M48.3805 175.72H68.3791C73.4112 175.72 77.4905 171.634 77.4905 166.593V163.711C77.4905 158.67 73.4112 154.584 68.3791 154.584H48.3805C43.3484 154.584 39.2691 158.67 39.2691 163.711V166.593C39.2691 171.634 43.3484 175.72 48.3805 175.72Z" fill="#BDD3FF"/>
<path d="M71.6785 167.893L80.8995 175.721H62.4575L71.6785 167.893Z" fill="#BDD3FF"/>
<path d="M65.7064 167.068C66.7633 166.818 67.4175 165.757 67.1677 164.698C66.9179 163.639 65.8585 162.984 64.8016 163.234C63.7447 163.484 63.0905 164.546 63.3403 165.604C63.5901 166.663 64.6495 167.318 65.7064 167.068Z" fill="white"/>
<path d="M58.8321 167.068C59.889 166.818 60.5433 165.757 60.2934 164.698C60.0436 163.639 58.9843 162.984 57.9274 163.234C56.8705 163.484 56.2162 164.546 56.466 165.604C56.7159 166.663 57.7752 167.318 58.8321 167.068Z" fill="white"/>
<path d="M51.9576 167.068C53.0145 166.818 53.6688 165.757 53.4189 164.698C53.1691 163.639 52.1098 162.984 51.0529 163.234C49.996 163.484 49.3417 164.546 49.5915 165.604C49.8414 166.663 50.9007 167.318 51.9576 167.068Z" fill="white"/>
<path d="M0 304.068H400" stroke="#001B4F" stroke-width="3.75" stroke-miterlimit="10"/>
</svg>
