<svg viewBox="0 0 382 212" fill="none" xmlns="http://www.w3.org/2000/svg">
<path d="M346.241 113.536C322.626 90.5338 281.934 91.7939 253.986 107.484C217.515 127.959 173.238 123.113 134.479 107.278C107.38 96.2067 75.8321 93.1956 51.4831 123.665C33.6567 145.972 24.061 175.826 35.3231 201.681C35.9846 203.186 36.7525 204.643 37.6208 206.039H353.903C369.346 174.278 368.721 135.432 346.241 113.536Z" fill="#F5F5F5"/>
<path d="M34.9811 201.815C27.6272 183.096 24.645 166.102 26.1177 151.306C27.4179 138.243 32.1219 127.134 40.0993 118.285C47.7124 109.841 58.077 103.818 70.0728 100.866C81.1112 98.1499 92.9259 98.2471 103.34 101.14C119.047 105.502 129.497 115.429 132.011 128.375L131.289 128.515C128.83 115.853 118.571 106.133 103.143 101.848C92.8485 98.9893 81.1663 98.894 70.2484 101.58C58.3961 104.496 48.1596 110.443 40.6454 118.778C32.7753 127.507 28.1336 138.475 26.8494 151.379C25.3885 166.058 28.3546 182.936 35.6652 201.546L34.9811 201.815Z" fill="#DDDDDD"/>
<path d="M361.242 195.78L360.511 195.703C361.655 184.876 361.241 174.401 359.279 164.57C357.429 155.296 354.2 146.567 349.682 138.623C341.162 123.642 328.303 111.78 312.495 104.319C304.759 100.668 296.525 98.1831 288.061 96.9446C279.534 95.688 270.866 95.7274 262.35 97.0615C244.283 99.9022 227.747 108.512 214.533 121.961L214.008 121.445C227.334 107.883 244.012 99.2002 262.236 96.335C270.825 94.9893 279.567 94.9495 288.167 96.217C296.703 97.4659 305.007 99.9722 312.809 103.654C328.755 111.18 341.726 123.146 350.321 138.259C354.877 146.271 358.134 155.075 360 164.426C361.977 174.33 362.394 184.879 361.242 195.78Z" fill="#DDDDDD"/>
<path d="M241.606 38.6588H236.55V33.6036H234.403V38.6588H229.348V40.8062H234.403V45.8613H236.55V40.8062H241.606V38.6588Z" fill="#699BFF"/>
<path d="M179.749 48.1989H175.579V44.0281H173.807V48.1989H169.636V49.9702H173.807V54.1413H175.579V49.9707H179.75L179.749 48.1989Z" fill="#699BFF"/>
<path d="M196.105 3.63983H192.465V0H190.919V3.63969H187.28V5.18553H190.919V8.82549H192.465V5.18553H196.105V3.63983Z" fill="#699BFF"/>
<path d="M207.082 73.1626C215.411 73.1626 222.163 66.4105 222.163 58.0813C222.163 49.7521 215.411 43 207.082 43C198.752 43 192 49.7521 192 58.0813C192 66.4105 198.752 73.1626 207.082 73.1626Z" fill="#699BFF"/>
<path d="M207 70C203.795 70 200.781 68.7518 198.515 66.4853C196.248 64.2188 195 61.2053 195 58C195 54.7947 196.248 51.7812 198.515 49.5147C200.781 47.2482 203.795 46 207 46C210.206 46 213.219 47.2482 215.486 49.5147C217.752 51.7812 219 54.7947 219 58C219 61.2053 217.752 64.2188 215.486 66.4853C213.219 68.7518 210.206 70 207 70ZM207 46.7031C200.771 46.7031 195.703 51.7709 195.703 58C195.703 64.2291 200.771 69.2969 207 69.2969C213.229 69.2969 218.297 64.2291 218.297 58C218.297 51.7709 213.229 46.7031 207 46.7031Z" fill="white"/>
<path d="M207 66.8935C204.925 66.8935 202.903 66.1596 201.307 64.8271C201.158 64.7027 201.138 64.481 201.263 64.3319C201.387 64.1829 201.609 64.1631 201.758 64.2875C203.227 65.5146 205.089 66.1903 207 66.1903C211.517 66.1903 215.191 62.5162 215.191 58C215.191 53.4838 211.517 49.8097 207 49.8097C202.484 49.8097 198.81 53.4838 198.81 58C198.81 59.8556 199.451 61.6749 200.615 63.1228C200.737 63.2742 200.713 63.4955 200.561 63.6171C200.41 63.7388 200.189 63.7147 200.067 63.5634C198.803 61.9911 198.107 60.0153 198.107 58C198.107 53.0961 202.097 49.1066 207 49.1066C211.904 49.1066 215.894 53.0961 215.894 58C215.894 62.9039 211.904 66.8935 207 66.8935Z" fill="white"/>
<path d="M207 68.5341C204.187 68.5341 201.541 67.4384 199.552 65.4487C197.562 63.4591 196.466 60.8138 196.466 58C196.466 55.3375 197.462 52.7961 199.27 50.844C201.068 48.9028 203.506 47.7158 206.134 47.5017C206.327 47.486 206.497 47.63 206.512 47.8235C206.528 48.017 206.384 48.1867 206.191 48.2024C201.132 48.6148 197.169 52.9183 197.169 58C197.169 63.4208 201.58 67.831 207 67.831C212.421 67.831 216.831 63.4208 216.831 58C216.831 52.9307 212.879 48.628 207.834 48.2046C207.64 48.1883 207.497 48.0183 207.513 47.8248C207.529 47.6314 207.699 47.4876 207.893 47.5039C210.515 47.7239 212.946 48.9133 214.739 50.8529C216.542 52.8037 217.535 55.3419 217.535 58C217.535 60.8138 216.439 63.4591 214.449 65.4487C212.459 67.4384 209.814 68.5341 207 68.5341Z" fill="white"/>
<path d="M208.297 64.6321H207.42C207.116 64.6321 206.868 64.3845 206.868 64.0802V63.5562L206.331 63.5558V64.0802C206.331 64.3845 206.084 64.6321 205.779 64.6321H204.902C204.598 64.6321 204.35 64.3845 204.35 64.0802V63.5544L202.979 63.553C202.675 63.5528 202.427 63.3052 202.427 63.0012V62.3961C202.427 62.1393 202.602 61.9185 202.852 61.8592L203.805 61.6331V58.623C203.805 58.4289 203.962 58.2715 204.156 58.2715C204.35 58.2715 204.508 58.4289 204.508 58.623V61.911C204.508 62.0739 204.396 62.2155 204.237 62.253L203.13 62.5156V62.85L204.702 62.8516C204.896 62.8518 205.054 63.0091 205.054 63.2032V63.9289H205.628V63.204C205.628 63.1107 205.665 63.0213 205.731 62.9553C205.797 62.8895 205.886 62.8524 205.98 62.8524H205.98L207.22 62.8533C207.414 62.8534 207.571 63.0108 207.571 63.2048V63.929H208.146V63.1816C208.146 63.0039 208.279 62.8542 208.455 62.8326C209.832 62.6645 210.87 61.491 210.87 60.103C210.87 59.1675 210.399 58.3039 209.609 57.7927C209.522 57.7364 209.465 57.6445 209.452 57.5417C209.439 57.4389 209.472 57.3355 209.542 57.2593C209.961 56.8047 210.192 56.215 210.192 55.5987C210.192 54.5051 209.456 53.5343 208.402 53.2379C208.251 53.1952 208.146 53.057 208.146 52.8995V52.071H207.571V52.7945C207.571 52.9887 207.414 53.1461 207.22 53.1461H205.98C205.786 53.1461 205.628 52.9887 205.628 52.7945V52.071H205.054V52.7945C205.054 52.9887 204.896 53.1461 204.702 53.1461H203.13V53.48L204.237 53.7427C204.396 53.7802 204.508 53.9218 204.508 54.0847V56.9221C204.508 57.1162 204.35 57.2737 204.156 57.2737C203.962 57.2737 203.805 57.1162 203.805 56.9221V54.3626L202.852 54.1366C202.602 54.0772 202.427 53.8564 202.427 53.5996V52.9949C202.427 52.6906 202.675 52.443 202.979 52.443H204.35V51.9198C204.35 51.6155 204.598 51.3679 204.902 51.3679H205.779C206.084 51.3679 206.331 51.6155 206.331 51.9198V52.443H206.868V51.9198C206.868 51.6155 207.116 51.3679 207.42 51.3679H208.297C208.601 51.3679 208.849 51.6155 208.849 51.9198V52.6453C210.066 53.1038 210.895 54.2821 210.895 55.5988C210.895 56.2609 210.688 56.8991 210.306 57.4321C211.106 58.0858 211.573 59.0587 211.573 60.1032C211.573 61.7407 210.422 63.1403 208.849 63.4787V64.0803C208.849 64.3845 208.601 64.6321 208.297 64.6321ZM207.719 62.1547H205.558C205.364 62.1547 205.207 61.9973 205.207 61.8031V58.4029C205.207 58.2088 205.364 58.0514 205.558 58.0514H207.719C208.85 58.0514 209.771 58.9717 209.771 60.1031C209.771 61.2343 208.85 62.1547 207.719 62.1547ZM205.91 61.4516H207.719C208.462 61.4516 209.067 60.8467 209.067 60.103C209.067 59.3594 208.462 58.7544 207.719 58.7544H205.91V61.4516ZM207.539 57.3522H205.559C205.364 57.3522 205.207 57.1948 205.207 57.0006V54.1967C205.207 54.0026 205.364 53.8452 205.559 53.8452H207.539C208.506 53.8452 209.293 54.6318 209.293 55.5987C209.293 56.5656 208.506 57.3522 207.539 57.3522ZM205.91 56.649H207.539C208.118 56.649 208.589 56.1779 208.589 55.5987C208.589 55.0195 208.118 54.5482 207.539 54.5482H205.91V56.649Z" fill="white"/>
<path d="M214.025 32.7646C219.35 32.7646 223.667 28.4478 223.667 23.1227C223.667 17.7976 219.35 13.4807 214.025 13.4807C208.7 13.4807 204.383 17.7976 204.383 23.1227C204.383 28.4478 208.7 32.7646 214.025 32.7646Z" fill="#699BFF"/>
<path d="M192 36C195.314 36 198 33.3137 198 30C198 26.6863 195.314 24 192 24C188.686 24 186 26.6863 186 30C186 33.3137 188.686 36 192 36Z" fill="#699BFF"/>
<path d="M195.182 26.818C194.332 25.9681 193.202 25.5 192 25.5C190.798 25.5 189.668 25.9681 188.818 26.818C187.968 27.668 187.5 28.798 187.5 30C187.5 31.202 187.968 32.332 188.818 33.182C189.668 34.0319 190.798 34.5 192 34.5C193.202 34.5 194.332 34.0319 195.182 33.182C196.032 32.332 196.5 31.202 196.5 30C196.5 28.798 196.032 27.668 195.182 26.818ZM192 34.2363C189.664 34.2363 187.764 32.3359 187.764 30C187.764 27.6641 189.664 25.7637 192 25.7637C194.336 25.7637 196.236 27.6641 196.236 30C196.236 32.3359 194.336 34.2363 192 34.2363Z" fill="white"/>
<path d="M191.661 26.682C190.845 26.7647 190.089 27.1469 189.533 27.758C188.973 28.3734 188.665 29.1696 188.665 29.9999C188.665 31.8389 190.161 33.335 192 33.335C193.839 33.335 195.335 31.8389 195.335 29.9999C195.335 29.1673 195.025 28.3695 194.463 27.7534C193.904 27.1415 193.145 26.7606 192.325 26.6808C192.253 26.6738 192.189 26.7268 192.181 26.7992C192.174 26.8717 192.227 26.9362 192.3 26.9432C193.88 27.097 195.071 28.4111 195.071 29.9999C195.071 31.6935 193.694 33.0713 192 33.0713C190.307 33.0713 188.929 31.6935 188.929 29.9999C188.929 28.4173 190.115 27.1037 191.688 26.9443C191.761 26.937 191.813 26.8723 191.806 26.7998C191.799 26.7274 191.734 26.6746 191.661 26.682Z" fill="white"/>
<path d="M194.793 27.2067C194.047 26.4606 193.055 26.0497 192 26.0497C191.006 26.0497 190.057 26.42 189.326 27.0925C188.6 27.7609 188.152 28.6684 188.065 29.6478C188.059 29.7203 188.113 29.7843 188.185 29.7907C188.257 29.7972 188.322 29.7436 188.328 29.671C188.497 27.7569 190.076 26.3134 192 26.3134C194.033 26.3134 195.686 27.9672 195.686 30C195.686 32.0328 194.033 33.6866 192 33.6866C190.086 33.6866 188.471 32.1934 188.324 30.2872C188.319 30.2146 188.255 30.1602 188.183 30.1659C188.11 30.1715 188.056 30.2349 188.061 30.3075C188.138 31.2967 188.581 32.215 189.31 32.8931C190.043 33.5748 190.998 33.9502 192 33.9502C193.055 33.9502 194.047 33.5394 194.793 32.7932C195.539 32.0471 195.95 31.0551 195.95 30C195.95 28.9448 195.539 27.9528 194.793 27.2067Z" fill="white"/>
<path d="M192.906 28.9468L191.096 29.9882C191.062 30.0072 191.025 30.0172 190.986 30.0172C190.948 30.0172 190.91 30.0072 190.877 29.9882L190.297 29.6559C190.264 29.6365 190.237 29.6089 190.218 29.5758C190.199 29.5427 190.189 29.5053 190.19 29.4673V28.8026C190.19 28.7644 190.2 28.7269 190.219 28.6938C190.238 28.6607 190.266 28.6332 190.299 28.6141L190.877 28.2817C190.91 28.2628 190.948 28.2528 190.987 28.2528C191.025 28.2528 191.063 28.2628 191.096 28.2817L191.674 28.6141C191.707 28.6332 191.735 28.6607 191.754 28.6938C191.773 28.7269 191.784 28.7644 191.784 28.8026V29.1216C191.784 29.1311 191.786 29.1404 191.791 29.1487C191.796 29.1569 191.803 29.1638 191.811 29.1686C191.819 29.1734 191.828 29.1759 191.838 29.176C191.848 29.176 191.857 29.1736 191.865 29.1689L192.166 28.9958C192.183 28.9863 192.197 28.9725 192.206 28.956C192.216 28.9394 192.221 28.9206 192.221 28.9015V28.5512C192.221 28.513 192.211 28.4755 192.191 28.4424C192.172 28.4093 192.145 28.3818 192.112 28.3626L191.094 27.7793C191.061 27.7601 191.023 27.75 190.984 27.75C190.946 27.75 190.908 27.7601 190.875 27.7793L189.859 28.3626C189.826 28.3817 189.799 28.4092 189.779 28.4423C189.76 28.4754 189.75 28.513 189.75 28.5512V29.7188C189.75 29.757 189.76 29.7945 189.779 29.8276C189.799 29.8607 189.826 29.8882 189.859 29.9073L190.875 30.4907C190.908 30.5099 190.946 30.52 190.984 30.52C191.023 30.52 191.061 30.5099 191.094 30.4907L192.904 29.4493C192.938 29.4303 192.975 29.4203 193.014 29.4203C193.052 29.4203 193.09 29.4303 193.123 29.4493L193.701 29.7816C193.735 29.8007 193.762 29.8282 193.781 29.8613C193.801 29.8944 193.811 29.932 193.811 29.9702V30.6349C193.811 30.6731 193.801 30.7106 193.781 30.7437C193.762 30.7768 193.735 30.8043 193.701 30.8234L193.125 31.1558C193.092 31.1747 193.054 31.1847 193.016 31.1847C192.977 31.1847 192.939 31.1747 192.906 31.1558L192.328 30.8234C192.295 30.8043 192.267 30.7768 192.248 30.7437C192.229 30.7106 192.219 30.6731 192.219 30.6349V30.3155C192.219 30.306 192.216 30.2966 192.211 30.2883C192.207 30.2801 192.2 30.2732 192.191 30.2685C192.183 30.2637 192.174 30.2612 192.164 30.2612C192.155 30.2612 192.145 30.2638 192.137 30.2686L191.836 30.4412C191.819 30.4508 191.806 30.4646 191.796 30.4812C191.786 30.4977 191.781 30.5165 191.781 30.5355V30.8863C191.782 30.9245 191.792 30.962 191.811 30.9951C191.83 31.0282 191.857 31.0557 191.891 31.0749L192.906 31.6582C192.939 31.6774 192.977 31.6875 193.016 31.6875C193.054 31.6875 193.092 31.6774 193.125 31.6582L194.141 31.0749C194.174 31.0558 194.201 31.0283 194.221 30.9952C194.24 30.9621 194.25 30.9245 194.25 30.8863V29.7188C194.25 29.6805 194.24 29.643 194.221 29.6099C194.201 29.5768 194.174 29.5493 194.141 29.5302L193.125 28.9468C193.092 28.9276 193.054 28.9175 193.016 28.9175C192.977 28.9175 192.939 28.9276 192.906 28.9468Z" fill="white"/>
<g clip-path="url(#clip0_766_38509)">
<path d="M219.657 17.3431C218.146 15.8322 216.137 15 214 15C211.863 15 209.854 15.8322 208.343 17.3431C206.832 18.8542 206 20.8631 206 23C206 25.1369 206.832 27.1458 208.343 28.6569C209.854 30.1678 211.863 31 214 31C216.137 31 218.146 30.1678 219.657 28.6569C221.168 27.1458 222 25.1369 222 23C222 20.8631 221.168 18.8542 219.657 17.3431ZM214 30.5312C209.847 30.5312 206.469 27.1528 206.469 23C206.469 18.8472 209.847 15.4688 214 15.4688C218.153 15.4688 221.531 18.8472 221.531 23C221.531 27.1528 218.153 30.5312 214 30.5312Z" fill="white"/>
<path d="M213.398 17.1014C211.946 17.2485 210.602 17.9278 209.614 19.0143C208.619 20.1083 208.071 21.5238 208.071 23C208.071 26.2692 210.731 28.9289 214 28.9289C217.269 28.9289 219.929 26.2692 219.929 23C219.929 21.5197 219.378 20.1013 218.378 19.0061C217.385 17.9182 216.036 17.2411 214.578 17.0992C214.45 17.0868 214.335 17.181 214.323 17.3098C214.31 17.4386 214.404 17.5532 214.533 17.5658C217.342 17.8391 219.46 20.1753 219.46 23C219.46 26.0107 217.011 28.4602 214 28.4602C210.989 28.4602 208.54 26.0107 208.54 23C208.54 20.1864 210.649 17.8511 213.445 17.5677C213.574 17.5547 213.668 17.4397 213.655 17.3109C213.642 17.1821 213.527 17.0883 213.398 17.1014Z" fill="white"/>
<path d="M218.966 18.0342C217.639 16.7078 215.876 15.9773 214 15.9773C212.233 15.9773 210.545 16.6357 209.246 17.8312C207.955 19.0194 207.159 20.6327 207.005 22.374C206.994 22.5029 207.089 22.6167 207.218 22.6281C207.347 22.6396 207.461 22.5442 207.472 22.4153C207.773 19.0123 210.579 16.446 214 16.446C217.614 16.446 220.554 19.3861 220.554 23C220.554 26.6139 217.614 29.554 214 29.554C210.597 29.554 207.727 26.8995 207.466 23.5107C207.456 23.3816 207.343 23.2849 207.214 23.295C207.085 23.3049 206.988 23.4176 206.998 23.5467C207.134 25.3054 207.922 26.9379 209.218 28.1434C210.521 29.3553 212.219 30.0227 214 30.0227C215.876 30.0227 217.639 29.2923 218.966 27.9658C220.292 26.6394 221.023 24.8759 221.023 23C221.023 21.1242 220.292 19.3606 218.966 18.0342Z" fill="white"/>
<path d="M214.756 19.7413C214.823 19.852 214.967 19.8873 215.078 19.8202C215.188 19.7531 215.224 19.609 215.157 19.4983L214.2 17.9216C214.158 17.8515 214.082 17.8087 214 17.8087C213.918 17.8087 213.842 17.8515 213.8 17.9216L211.061 22.4368C211.029 22.4904 211.019 22.5547 211.034 22.6154C211.05 22.6762 211.089 22.7283 211.143 22.7602C211.145 22.7619 211.148 22.7634 211.151 22.7649L213.884 24.3225C213.92 24.343 213.96 24.3533 214 24.3533C214.04 24.3533 214.08 24.343 214.116 24.3225L216.85 22.7647C216.852 22.7632 216.855 22.7615 216.858 22.7602C216.912 22.7283 216.95 22.6762 216.966 22.6154C216.981 22.5547 216.971 22.4904 216.939 22.4368L215.744 20.4674C215.677 20.3567 215.533 20.3215 215.423 20.3886C215.312 20.4557 215.277 20.5998 215.344 20.7105L216.12 21.9906L214.234 21.0489V18.8816L214.756 19.7413ZM213.766 23.7156L211.759 22.5722L213.766 21.5725V23.7156ZM213.766 21.0488L211.882 21.9873L213.766 18.8816V21.0488ZM216.238 22.5736L214.234 23.7156V21.5729L216.238 22.5736Z" fill="white"/>
<path d="M216.607 23.3652L214 24.8698L211.386 23.3586C211.293 23.3048 211.175 23.3213 211.1 23.3985C211.025 23.4757 211.013 23.5939 211.07 23.6852L213.801 28.0806C213.844 28.1494 213.919 28.1913 214 28.1913H214C214.081 28.1913 214.156 28.1494 214.199 28.0806L216.924 23.6919C216.98 23.6006 216.968 23.4824 216.893 23.4052C216.818 23.328 216.701 23.3115 216.607 23.3652ZM213.766 25.2757V27.1357L211.962 24.2329L213.766 25.2757ZM214.234 27.135V25.2758L216.033 24.2379L214.234 27.135Z" fill="white"/>
</g>
<path d="M29.1043 204.913C27.9239 206.31 11.041 162.752 18.5703 161.625C26.0376 160.508 31.7454 201.786 29.1043 204.913Z" fill="#699BFF"/>
<path d="M29.809 204.472C29.809 204.472 16.2066 170.356 10.613 177.378C6.04883 183.108 24.5863 204.646 29.809 204.472Z" fill="#3976EE"/>
<path d="M28.9411 204.619C28.9411 204.619 27.2752 171.73 31.8047 171.684C41.101 171.589 33.2923 203.137 28.9411 204.619Z" fill="#3976EE"/>
<path d="M32.2782 203.854C32.2782 203.854 28.2134 203.561 26.8432 202.29C23.3578 199.058 15.5846 193.376 13.7642 196.737C11.2282 201.419 18.4124 210.212 32.2782 203.854Z" fill="#002878"/>
<path d="M25.6597 205.752C25.6597 205.752 28.8753 204.298 29.4187 203.144C31.4013 198.936 36.5868 191.187 39.9983 192.182C45.4165 193.761 41.2588 207.84 25.6597 205.752Z" fill="#002878"/>
<path d="M360.265 205.328C361.703 206.439 370.715 166.04 362.759 165.833C354.868 165.628 357.048 202.842 360.265 205.328Z" fill="#699BFF"/>
<path d="M360.147 205.937C360.147 205.937 366.566 173.299 373.443 178.918C379.055 183.501 365.571 205.544 360.147 205.937Z" fill="#3976EE"/>
<path d="M360.621 206.039C360.621 206.039 355.342 175.672 350.654 176.105C341.033 176.994 353.507 206.242 360.621 206.039Z" fill="#002878"/>
<path d="M80.8793 135.8H66.5227V206.039H80.8793V135.8Z" fill="#699BFF"/>
<path d="M130.471 135.8H80.8804V206.039H130.471V135.8Z" fill="#BDD3FF"/>
<path d="M81.2085 135.8H80.5527V206.039H81.2085V135.8Z" fill="#3976EE"/>
<path d="M181.242 82.589H166.885V205.812H181.242V82.589Z" fill="#699BFF"/>
<path d="M230.833 82.5867H181.242V205.811H230.833V82.5867Z" fill="#BDD3FF"/>
<path d="M181.57 82.59H180.914V205.813H181.57V82.59Z" fill="#3976EE"/>
<path d="M275.717 161.587H261.36V206.181H275.717V161.587Z" fill="#699BFF"/>
<path d="M325.308 161.587H275.718V206.181H325.308V161.587Z" fill="#BDD3FF"/>
<path d="M274.714 190.272L276.917 206.038H257.325L266.367 198.619L266.251 190.736L274.714 190.272Z" fill="#001B4F"/>
<path d="M261.529 145.658C261.529 145.658 240.713 145.658 264.731 194.894H273.938L261.529 145.658Z" fill="#002878"/>
<path d="M281.428 190.272L283.63 206.038H264.039L273.081 198.619L272.965 190.736L281.428 190.272Z" fill="#002878"/>
<path d="M305.695 141.654C305.695 141.654 316.045 169.548 277.35 161.542L284.336 195.007L269.995 194.884C269.995 194.884 246.985 154.597 261.529 145.657L305.695 141.654Z" fill="#3976EE"/>
<path d="M272.3 190.731C269.393 190.731 267.514 190.686 267.477 190.685C267.403 190.684 267.334 190.653 267.284 190.6C267.233 190.547 267.206 190.476 267.208 190.403C267.21 190.33 267.241 190.261 267.294 190.211C267.347 190.161 267.417 190.133 267.49 190.134C267.565 190.136 275.117 190.313 283.468 189.95C283.504 189.948 283.541 189.954 283.575 189.966C283.61 189.978 283.641 189.997 283.668 190.022C283.695 190.046 283.717 190.076 283.732 190.109C283.748 190.142 283.757 190.177 283.758 190.214C283.76 190.25 283.754 190.286 283.742 190.321C283.729 190.355 283.71 190.386 283.685 190.413C283.66 190.44 283.631 190.461 283.597 190.476C283.564 190.492 283.528 190.5 283.492 190.501C279.272 190.685 275.255 190.731 272.3 190.731Z" fill="white"/>
<path d="M275.082 186.145C270.718 186.145 266.15 185.921 265.813 185.904C265.741 185.901 265.672 185.868 265.624 185.814C265.575 185.76 265.549 185.688 265.553 185.615C265.557 185.543 265.589 185.474 265.643 185.425C265.697 185.376 265.768 185.35 265.841 185.354C265.877 185.355 269.559 185.538 273.462 185.583C279.941 185.659 282.018 185.316 282.62 185.015C282.652 184.997 282.688 184.987 282.724 184.984C282.761 184.981 282.798 184.985 282.833 184.996C282.868 185.007 282.9 185.025 282.928 185.049C282.956 185.073 282.979 185.103 282.995 185.135C283.012 185.168 283.021 185.204 283.024 185.241C283.026 185.277 283.021 185.314 283.009 185.349C282.997 185.384 282.978 185.416 282.954 185.443C282.929 185.47 282.9 185.492 282.866 185.508C281.874 186.004 278.542 186.145 275.082 186.145Z" fill="white"/>
<path d="M276.247 201.779C276.179 201.78 276.112 201.754 276.062 201.708L272.894 198.823C272.867 198.799 272.845 198.77 272.829 198.737C272.813 198.704 272.804 198.668 272.802 198.632C272.8 198.595 272.805 198.559 272.818 198.524C272.83 198.49 272.849 198.458 272.873 198.431C272.898 198.404 272.928 198.382 272.961 198.367C272.994 198.351 273.03 198.343 273.066 198.341C273.103 198.34 273.139 198.346 273.174 198.358C273.208 198.371 273.239 198.391 273.266 198.416L276.433 201.3C276.474 201.337 276.503 201.386 276.516 201.441C276.529 201.495 276.525 201.552 276.505 201.603C276.484 201.655 276.449 201.7 276.403 201.731C276.357 201.763 276.303 201.78 276.247 201.779Z" fill="white"/>
<path d="M286.214 109.23C286.214 109.23 269.117 106.187 265.888 143.789L307.429 141.787C307.429 141.787 313.834 116.035 293.819 109.497L286.214 109.23Z" fill="#F9D056"/>
<path d="M280.482 144.48H261.135V147.594H280.482V144.48Z" fill="#E7EFFF"/>
<path d="M281.943 139.653C281.943 139.653 272.203 137.852 268.867 139.553C265.962 141.034 266.632 142.522 267.733 142.255L267.65 142.647C267.612 142.828 267.615 143.015 267.659 143.195C267.703 143.375 267.787 143.542 267.905 143.685C268.023 143.828 268.171 143.943 268.339 144.021C268.507 144.099 268.69 144.138 268.875 144.135C269.461 144.127 270.044 144.199 270.61 144.349C273.328 145.069 281.802 147.227 283.811 146.725L285.312 144.59L281.943 139.653Z" fill="#FFCEB7"/>
<path d="M283.812 146.725C283.812 146.725 302.225 151.662 307.429 141.788L298.756 135.65C298.756 135.65 292.485 140.053 281.944 139.653L283.812 146.725Z" fill="#F9D056"/>
<path d="M272.951 147.594H250.609L244.004 125.477H266.346L272.951 147.594Z" fill="#001B4F"/>
<path d="M281.944 140.02C281.851 140.02 281.762 139.984 281.695 139.921C281.627 139.858 281.586 139.772 281.579 139.679C281.572 139.587 281.601 139.496 281.658 139.423C281.716 139.351 281.799 139.303 281.89 139.289C282.05 139.265 297.897 136.897 301.62 135.576C301.666 135.557 301.716 135.548 301.765 135.549C301.815 135.55 301.864 135.561 301.909 135.582C301.954 135.602 301.995 135.632 302.029 135.668C302.062 135.705 302.088 135.748 302.105 135.794C302.121 135.841 302.128 135.891 302.125 135.94C302.122 135.99 302.109 136.038 302.086 136.083C302.064 136.127 302.033 136.166 301.995 136.198C301.957 136.23 301.913 136.254 301.866 136.269C298.075 137.614 282.652 139.919 281.998 140.016C281.98 140.019 281.962 140.02 281.944 140.02Z" fill="#FFCEB7"/>
<path d="M274.285 138.926C274.192 138.926 274.103 138.891 274.036 138.828C273.968 138.766 273.926 138.68 273.919 138.588C273.915 138.55 273.605 134.676 273.678 129.718C273.747 125.132 274.165 118.648 275.775 113.803C275.808 113.713 275.875 113.64 275.961 113.599C276.047 113.558 276.145 113.552 276.236 113.582C276.326 113.612 276.401 113.676 276.446 113.76C276.49 113.845 276.5 113.943 276.473 114.034C273.443 123.15 274.639 138.375 274.652 138.527C274.659 138.625 274.628 138.721 274.565 138.795C274.502 138.87 274.412 138.916 274.315 138.924C274.305 138.925 274.295 138.926 274.285 138.926Z" fill="#FFCEB7"/>
<path d="M286.448 115.601C285.662 115.607 284.883 115.462 284.153 115.173C284.067 115.131 284.001 115.057 283.968 114.967C283.936 114.876 283.94 114.777 283.98 114.69C284.02 114.603 284.092 114.534 284.181 114.5C284.271 114.465 284.37 114.466 284.458 114.504C284.586 114.561 287.497 115.831 290.123 113.375C290.157 113.34 290.199 113.312 290.245 113.294C290.29 113.275 290.339 113.266 290.389 113.267C290.438 113.268 290.487 113.278 290.532 113.298C290.577 113.318 290.618 113.347 290.652 113.383C290.685 113.419 290.711 113.462 290.728 113.508C290.745 113.555 290.753 113.604 290.75 113.653C290.748 113.703 290.735 113.751 290.714 113.795C290.692 113.84 290.662 113.879 290.625 113.912C289.506 114.998 288.007 115.605 286.448 115.601Z" fill="#FFCEB7"/>
<path d="M297.944 137.148C297.928 137.148 297.912 137.147 297.896 137.145C297.799 137.132 297.712 137.082 297.652 137.005C297.593 136.927 297.566 136.83 297.579 136.733C298.653 128.496 294.355 120.488 294.311 120.408C294.268 120.323 294.259 120.224 294.288 120.133C294.316 120.041 294.379 119.964 294.463 119.919C294.547 119.873 294.646 119.861 294.738 119.887C294.83 119.913 294.909 119.973 294.957 120.056C295.001 120.138 299.414 128.349 298.309 136.828C298.297 136.917 298.254 136.998 298.187 137.057C298.12 137.116 298.033 137.148 297.944 137.148Z" fill="#FFCEB7"/>
<path d="M290.41 108.615C290.408 109.422 290.115 110.202 289.585 110.811C289.055 111.419 288.323 111.816 287.523 111.929C286.724 112.041 285.911 111.862 285.233 111.422C284.555 110.983 284.059 110.315 283.835 109.539C283.813 109.479 283.796 109.418 283.784 109.356L282.844 105.239L282.793 105.012L286.645 101.203L289.125 102.443L290.329 107.88C290.381 108.121 290.408 108.367 290.41 108.615Z" fill="#FFCEB7"/>
<path d="M286.192 105.239C286.192 105.239 285.913 107.11 283.836 109.539C283.814 109.479 283.797 109.418 283.784 109.356L282.845 105.239H286.192Z" fill="#001B4F"/>
<path d="M276.603 95.7918C276.603 95.7918 275.961 112.394 286.188 105.239L288.619 100.745L284.858 94.5997L276.603 95.7918Z" fill="#FFCEB7"/>
<path d="M276.768 96.2369C276.768 96.2369 277.764 98.1049 284.185 97.5546C284.185 97.5546 284.829 104.199 288.804 105.484L291.861 104.872C293.267 90.9301 287.642 87.3834 280.793 90.3185C273.272 87.3834 270.151 95.4193 276.738 99.0563C276.717 98.0055 276.664 97.2855 276.768 96.2369Z" fill="#001B4F"/>
<path d="M288.802 105.484C288.802 105.484 287.029 118.081 291.798 117.225C296.568 116.369 297.608 109.398 291.86 104.873L288.802 105.484Z" fill="#001B4F"/>
<path d="M290.457 106.017C291.874 105.609 292.933 104.965 292.822 104.58C292.711 104.195 291.472 104.213 290.054 104.622C288.637 105.03 287.578 105.674 287.689 106.059C287.8 106.445 289.039 106.426 290.457 106.017Z" fill="#F9D056"/>
<path d="M277.528 100.215C277.528 100.295 277.552 100.373 277.596 100.44C277.64 100.506 277.704 100.558 277.778 100.589C277.852 100.619 277.933 100.627 278.011 100.612C278.09 100.596 278.162 100.557 278.219 100.501C278.275 100.444 278.314 100.372 278.329 100.294C278.345 100.215 278.337 100.134 278.306 100.06C278.276 99.986 278.224 99.9228 278.157 99.8784C278.091 99.8339 278.012 99.8102 277.932 99.8102C277.825 99.8102 277.722 99.8528 277.646 99.9287C277.57 100.005 277.528 100.107 277.528 100.215Z" fill="#001B4F"/>
<path d="M280.476 100.237C280.732 100.237 280.939 100.029 280.939 99.773C280.939 99.517 280.732 99.3094 280.476 99.3094C280.22 99.3094 280.012 99.517 280.012 99.773C280.012 100.029 280.22 100.237 280.476 100.237Z" fill="#001B4F"/>
<path d="M278.958 102.692C278.882 102.692 278.806 102.686 278.73 102.675C278.63 102.664 278.534 102.633 278.447 102.582C278.36 102.532 278.284 102.464 278.225 102.383C278.18 102.318 278.149 102.244 278.134 102.165C278.119 102.087 278.121 102.007 278.139 101.929C278.239 101.461 278.859 101.061 278.982 100.985C279.002 100.972 279.025 100.964 279.049 100.96C279.073 100.956 279.098 100.956 279.122 100.962C279.145 100.967 279.168 100.978 279.187 100.992C279.207 101.006 279.224 101.024 279.236 101.045C279.249 101.066 279.258 101.089 279.261 101.113C279.265 101.137 279.264 101.161 279.258 101.185C279.252 101.208 279.242 101.231 279.228 101.25C279.213 101.27 279.195 101.286 279.174 101.299C278.884 101.477 278.548 101.774 278.498 102.006C278.491 102.035 278.49 102.066 278.495 102.095C278.5 102.124 278.512 102.152 278.529 102.177C278.561 102.215 278.599 102.247 278.643 102.27C278.687 102.293 278.735 102.307 278.784 102.311C278.925 102.338 279.072 102.328 279.208 102.282C279.23 102.272 279.254 102.267 279.279 102.266C279.303 102.266 279.327 102.27 279.35 102.279C279.373 102.288 279.393 102.301 279.411 102.318C279.428 102.335 279.442 102.355 279.452 102.377C279.461 102.4 279.467 102.424 279.467 102.448C279.467 102.472 279.463 102.496 279.453 102.519C279.444 102.542 279.431 102.562 279.414 102.579C279.397 102.597 279.376 102.61 279.354 102.62C279.228 102.67 279.093 102.695 278.958 102.692Z" fill="#001B4F"/>
<path d="M279.507 104.239C279.299 104.238 279.093 104.202 278.898 104.133C278.852 104.117 278.814 104.083 278.793 104.039C278.772 103.995 278.769 103.945 278.785 103.899C278.801 103.853 278.835 103.815 278.879 103.794C278.922 103.772 278.973 103.769 279.019 103.786C280.06 104.148 280.79 103.251 280.82 103.213C280.851 103.176 280.895 103.152 280.943 103.147C280.991 103.142 281.039 103.156 281.076 103.186C281.114 103.216 281.139 103.259 281.145 103.307C281.151 103.355 281.138 103.403 281.109 103.441C281.101 103.451 280.466 104.239 279.507 104.239Z" fill="#001B4F"/>
<path d="M279.708 98.6905C279.95 99.0053 280.219 98.855 280.965 98.8301C281.135 98.8243 282.062 98.8596 282.019 98.6383C281.989 98.4809 281.434 98.187 280.813 98.1574C280.499 98.1392 280.184 98.1839 279.888 98.289C279.817 98.3094 279.752 98.3454 279.697 98.3944C279.678 98.4144 279.663 98.438 279.653 98.4638C279.644 98.4897 279.639 98.5171 279.64 98.5447C279.641 98.5723 279.648 98.5994 279.659 98.6244C279.671 98.6494 279.687 98.6719 279.708 98.6905Z" fill="#001B4F"/>
<path d="M278.562 98.7451C278.47 99.0754 278.214 99.0097 277.623 99.1667C277.488 99.2027 276.774 99.4552 276.739 99.2535C276.713 99.1103 277.056 98.723 277.532 98.5487C277.776 98.4573 278.037 98.4205 278.296 98.4409C278.359 98.4423 278.421 98.4579 278.477 98.4866C278.52 98.5123 278.552 98.5527 278.568 98.6001C278.583 98.6476 278.581 98.6991 278.562 98.7451Z" fill="#001B4F"/>
<path opacity="0.4" d="M283.148 102.655C283.763 102.655 284.261 102.156 284.261 101.542C284.261 100.927 283.763 100.429 283.148 100.429C282.534 100.429 282.035 100.927 282.035 101.542C282.035 102.156 282.534 102.655 283.148 102.655Z" fill="#FF5970"/>
<path d="M321.575 57.1554C318.625 57.1542 315.727 57.9233 313.167 59.3865C310.606 60.8498 308.472 62.9565 306.976 65.498C305.48 68.0395 304.673 70.9277 304.637 73.8766C304.6 76.8256 305.334 79.733 306.766 82.311L303.216 90.9497L311.541 87.7195C313.696 89.307 316.197 90.3609 318.839 90.7947C321.48 91.2284 324.187 91.0296 326.737 90.2145C329.287 89.3995 331.607 87.9915 333.507 86.106C335.407 84.2205 336.834 81.9113 337.669 79.3679C338.504 76.8245 338.724 74.1194 338.31 71.4745C337.897 68.8296 336.863 66.3203 335.292 64.1526C333.722 61.9849 331.659 60.2204 329.275 59.0041C326.89 57.7878 324.251 57.1543 321.574 57.1555L321.575 57.1554Z" fill="white"/>
<path d="M302.55 91.6025L306.359 82.3339C304.31 78.5784 303.716 74.1998 304.69 70.0342C305.665 65.8686 308.14 62.208 311.642 59.7515C315.145 57.2949 319.43 56.2147 323.678 56.717C327.927 57.2193 331.841 59.2689 334.674 62.4745C337.507 65.6801 339.061 69.8169 339.037 74.095C339.013 78.373 337.415 82.4924 334.546 85.6665C331.678 88.8406 327.741 90.8468 323.487 91.3021C319.233 91.7574 314.961 90.6299 311.486 88.1348L302.55 91.6025ZM311.595 87.3033L311.758 87.4234C315.044 89.8303 319.103 90.9383 323.156 90.5345C327.209 90.1306 330.97 88.2434 333.716 85.2354C336.462 82.2274 338 78.3108 338.034 74.2379C338.068 70.1651 336.595 66.2233 333.9 63.1699C331.204 60.1164 327.476 58.1667 323.43 57.6952C319.384 57.2238 315.307 58.2638 311.982 60.6156C308.656 62.9674 306.317 66.465 305.414 70.4365C304.51 74.4081 305.106 78.5734 307.087 82.1322L307.173 82.2869L303.881 90.2967L311.595 87.3033Z" fill="#699BFF"/>
<path d="M313.763 71.0725C313.763 68.6801 315.223 67.1594 317.291 67.1594C319.36 67.1594 320.798 68.6593 320.798 71.0725C320.798 73.4856 319.359 74.9863 317.291 74.9863C315.224 74.9863 313.763 73.4657 313.763 71.0725ZM318.771 71.0725C318.771 69.5518 318.183 68.822 317.291 68.822C316.418 68.822 315.81 69.5724 315.81 71.0725C315.81 72.5725 316.418 73.3237 317.291 73.3237C318.183 73.3237 318.771 72.5939 318.771 71.0725ZM325.747 67.3212H328.159L318.467 81.5154H316.053L325.747 67.3212ZM323.414 77.7643C323.414 75.3718 324.875 73.8503 326.923 73.8503C328.992 73.8503 330.452 75.3718 330.452 77.7643C330.452 80.1568 328.992 81.6781 326.923 81.6781C324.875 81.6781 323.414 80.1567 323.414 77.7643H323.414ZM328.404 77.7643C328.404 76.2634 327.814 75.5131 326.923 75.5131C326.051 75.5131 325.443 76.2435 325.443 77.7643C325.443 79.2851 326.051 80.0147 326.923 80.0147C327.814 80.0147 328.403 79.265 328.403 77.7643H328.404Z" fill="#699BFF"/>
<path d="M122.632 185.616L124.67 206.139L144.674 205.921L135.582 196.589L133.506 185.221L122.632 185.616Z" fill="#001B4F"/>
<path d="M139.348 201.675C137.69 201.675 136.495 201.22 135.793 200.316C134.608 198.793 135.291 196.597 135.321 196.505C135.343 196.436 135.393 196.379 135.457 196.346C135.522 196.313 135.597 196.307 135.666 196.329C135.735 196.351 135.793 196.399 135.827 196.464C135.86 196.528 135.867 196.603 135.846 196.672C135.84 196.693 135.223 198.689 136.23 199.98C136.898 200.836 138.14 201.214 139.923 201.106C139.96 201.103 139.996 201.108 140.03 201.12C140.064 201.132 140.096 201.15 140.123 201.174C140.15 201.198 140.172 201.227 140.188 201.26C140.204 201.293 140.213 201.328 140.216 201.364C140.218 201.4 140.213 201.436 140.201 201.471C140.189 201.505 140.171 201.537 140.147 201.564C140.123 201.591 140.094 201.613 140.061 201.629C140.029 201.645 139.993 201.654 139.957 201.656C139.748 201.669 139.545 201.675 139.348 201.675Z" fill="white"/>
<path d="M89.8761 185.276L86.7126 195.821L78.0132 211.507L96.0713 205.443L100.026 185.54L89.8761 185.276Z" fill="#001B4F"/>
<path d="M82.9381 203.25C82.8692 203.249 82.8028 203.223 82.7521 203.176C82.7014 203.13 82.6701 203.066 82.6643 202.997C82.6585 202.928 82.6787 202.86 82.7208 202.805C82.7629 202.751 82.824 202.714 82.8919 202.702C85.5514 202.246 87.1432 201.346 87.6241 200.028C88.3045 198.161 86.5205 196.021 86.5023 195.999C86.4783 195.972 86.4599 195.94 86.4484 195.905C86.4368 195.87 86.4323 195.833 86.4351 195.797C86.4378 195.761 86.4478 195.725 86.4645 195.692C86.4811 195.66 86.5041 195.631 86.532 195.607C86.56 195.584 86.5923 195.566 86.6272 195.555C86.6621 195.544 86.6989 195.54 86.7353 195.543C86.7717 195.547 86.8071 195.557 86.8395 195.574C86.8718 195.591 86.9003 195.615 86.9235 195.643C87.0053 195.74 88.9311 198.052 88.1423 200.216C87.5891 201.735 85.8532 202.754 82.9851 203.246C82.9696 203.248 82.9539 203.25 82.9381 203.25Z" fill="white"/>
<path d="M134.508 113.398L137.168 187.113C137.211 188.307 136.78 189.469 135.97 190.347C135.159 191.224 134.034 191.746 132.841 191.798L123.627 192.199C122.434 192.251 121.268 191.829 120.385 191.025C119.501 190.222 118.971 189.101 118.91 187.908L114.856 108.891L134.508 113.398Z" fill="#3976EE"/>
<path d="M126.131 109.272L125.462 111.603L124.174 116.06L102.846 190.013C102.607 190.838 102.095 191.557 101.393 192.052C100.691 192.546 99.8415 192.787 98.9844 192.734L87.5697 192.021C87.016 191.985 86.4768 191.828 85.9906 191.561C85.5044 191.294 85.0831 190.922 84.7566 190.474C84.4301 190.025 84.2065 189.51 84.1016 188.965C83.9967 188.42 84.0131 187.859 84.1497 187.321L100.838 122.069L103.03 113.486L119.651 110.456L126.131 109.272Z" fill="#3976EE"/>
<g opacity="0.8">
<path d="M129.259 113.192C129.305 113.762 133.818 170.468 131.227 191.513L131.775 191.581C134.372 170.481 129.854 113.72 129.808 113.148L129.259 113.192Z" fill="white"/>
<path d="M108.939 112.759C108.041 115.627 86.9605 183.091 87.9401 191.577L88.4882 191.515C87.5222 183.143 109.245 113.625 109.465 112.924L108.939 112.759Z" fill="white"/>
</g>
<path opacity="0.6" d="M134.508 113.398L124.174 116.06L100.837 122.069L103.029 113.486L119.651 110.456L125.461 111.602L134.508 113.398Z" fill="#002878"/>
<path d="M115.239 147.2C115.183 147.2 115.127 147.187 115.076 147.162C115.025 147.137 114.981 147.1 114.947 147.056C114.912 147.011 114.889 146.958 114.878 146.903C114.867 146.847 114.869 146.79 114.884 146.736L118.964 131.715L124.771 127.594C124.81 127.563 124.855 127.541 124.903 127.529C124.951 127.516 125.001 127.514 125.05 127.521C125.099 127.528 125.146 127.545 125.188 127.571C125.231 127.597 125.267 127.631 125.296 127.672C125.325 127.712 125.345 127.758 125.355 127.806C125.366 127.855 125.367 127.905 125.357 127.954C125.348 128.002 125.329 128.049 125.301 128.09C125.274 128.131 125.238 128.166 125.197 128.193L119.604 132.162L115.594 146.928C115.573 147.006 115.527 147.075 115.462 147.124C115.398 147.173 115.32 147.2 115.239 147.2Z" fill="#002878"/>
<path d="M117.672 74.2656L126.964 92.7545C130.037 90.3586 133.304 88.5355 135.339 87.4974C128.662 74.2946 117.672 74.2656 117.672 74.2656Z" fill="#002878"/>
<path d="M151.038 81.3108C151.038 81.3108 151.927 78.2462 151.136 77.4547C150.345 76.6632 147.775 81.5079 147.775 81.5079L138.186 92.0857C137.234 90.4016 136.283 88.8784 135.339 87.4973C133.304 88.5354 130.038 90.3587 126.965 92.7543L132.148 103.068C132.641 104.046 133.384 104.876 134.303 105.473C135.222 106.069 136.284 106.41 137.378 106.46C138.472 106.511 139.56 106.269 140.53 105.761C141.501 105.252 142.318 104.494 142.898 103.564L153.213 87.0441C153.972 84.6752 152.983 82.8455 151.038 81.3108Z" fill="#FFCEB7"/>
<path d="M103.178 104.91C102.707 106.69 102.464 107.771 102.464 107.771L102.7 113.64C102.7 113.64 92.7155 113.828 89.7736 110.197C87.795 107.754 88.0243 103.73 91.4284 96.3143C92.3125 94.3886 92.9032 93.047 93.7342 91.5834C97.1914 91.819 100.62 92.3655 103.979 93.2161L98.7527 103.868L103.178 104.91Z" fill="#FFCEB7"/>
<path d="M117.67 74.2659C117.67 74.2659 103.103 73.4678 93.7341 91.5791C97.0442 91.8204 101.823 92.4309 106.477 93.9522C109.171 86.1492 113.062 77.3583 117.67 74.2659Z" fill="#002878"/>
<path d="M134.508 113.397L102.699 113.64C102.485 110.139 102.941 103.961 103.537 98.0329C103.574 97.6947 103.603 97.3637 103.64 97.0254C103.905 94.4511 104.192 91.9505 104.457 89.7882C104.537 89.0895 104.618 88.4276 104.692 87.8098C105.082 84.7354 105.361 82.6981 105.361 82.6981L117.673 74.2695C123.461 76.1008 131.787 86.9786 131.787 86.9786L134.508 113.397Z" fill="#002878"/>
<path d="M152.389 77.835L148.252 86.9459L149.297 87.4709L154.138 78.7138L152.389 77.835Z" fill="#002878"/>
<path d="M155.241 76.7191L153.332 75.7596C153.31 76.1946 153.202 76.6209 153.013 77.0134L154.444 77.7323C154.647 77.3498 154.917 77.0067 155.241 76.7191Z" fill="#001B4F"/>
<path d="M153.013 77.0127C152.86 77.3246 152.648 77.604 152.389 77.8355L154.138 78.7145C154.179 78.371 154.283 78.0379 154.444 77.7317L153.013 77.0127Z" fill="#002878"/>
<path d="M159.072 76.8876C162.387 75.7295 164.135 72.1039 162.977 68.7896C161.819 65.4752 158.193 63.7272 154.879 64.8853C151.564 66.0434 149.816 69.669 150.974 72.9833C152.132 76.2977 155.758 78.0457 159.072 76.8876Z" fill="#002878"/>
<path d="M160.713 74.1529C162.517 72.0889 162.307 68.9533 160.243 67.1494C158.179 65.3454 155.043 65.5561 153.239 67.6201C151.435 69.684 151.646 72.8196 153.71 74.6236C155.774 76.4276 158.909 76.2169 160.713 74.1529Z" fill="#E7EFFF"/>
<path d="M159.797 72.9777C159.737 72.9777 159.678 72.9631 159.625 72.9351C159.573 72.9072 159.527 72.8669 159.494 72.8175C159.46 72.7682 159.439 72.7114 159.432 72.652C159.425 72.5927 159.433 72.5325 159.454 72.4768C160.125 70.7487 159.704 69.072 158.43 68.3992C158.346 68.3523 158.284 68.2745 158.257 68.1825C158.23 68.0904 158.24 67.9914 158.284 67.9065C158.329 67.8216 158.405 67.7576 158.497 67.7281C158.588 67.6986 158.687 67.706 158.773 67.7486C160.389 68.6017 160.951 70.6555 160.14 72.7431C160.113 72.8122 160.066 72.8715 160.005 72.9134C159.943 72.9553 159.871 72.9777 159.797 72.9777Z" fill="white"/>
<path d="M153.523 83.0984C152.807 83.6465 151.954 83.92 151.579 83.5123C151.217 83.119 151.895 81.9997 152.124 81.6768C152.446 81.2206 153.854 79.9076 154.444 80.6446C155.04 81.3907 154.38 82.4416 153.523 83.0984Z" fill="#FFCEB7"/>
<path d="M154.099 84.9271C153.384 85.4752 152.531 85.7487 152.156 85.3411C151.794 84.9477 152.472 83.8285 152.701 83.5055C153.023 83.0493 154.431 81.7363 155.021 82.4734C155.617 83.2195 154.957 84.2704 154.099 84.9271Z" fill="#FFCEB7"/>
<path d="M154.27 86.8455C153.631 87.3353 152.868 87.5796 152.533 87.2154C152.21 86.8641 152.816 85.8637 153.02 85.5756C153.308 85.168 154.566 83.9948 155.092 84.6534C155.625 85.3199 155.036 86.2589 154.27 86.8455Z" fill="#FFCEB7"/>
<path d="M99.6567 113.551C99.6567 113.551 107.66 114.356 107.804 113.505C107.948 112.654 106.056 112.225 106.056 112.225C106.056 112.225 110.01 112.396 109.888 111.676C109.767 110.955 108.06 110.46 108.06 110.46C108.06 110.46 110.832 110.536 110.543 109.737C110.255 108.937 107.925 108.354 107.925 108.354C107.925 108.354 111.609 107.684 110.206 106.975C108.803 106.265 101.152 104.511 101.152 104.511L99.6567 113.551Z" fill="#FFCEB7"/>
<path d="M102.982 105.247C102.952 105.247 102.922 105.244 102.893 105.236L95.5689 103.428C95.5207 103.418 95.4751 103.398 95.4347 103.37C95.3944 103.342 95.3602 103.305 95.334 103.264C95.3079 103.222 95.2904 103.175 95.2827 103.127C95.2749 103.078 95.277 103.028 95.2888 102.98C95.3006 102.933 95.3219 102.888 95.3514 102.848C95.381 102.809 95.4181 102.776 95.4607 102.751C95.5032 102.726 95.5504 102.71 95.5992 102.704C95.6481 102.697 95.6977 102.701 95.7452 102.714L103.069 104.522C103.156 104.544 103.233 104.597 103.284 104.671C103.334 104.745 103.357 104.835 103.346 104.924C103.335 105.013 103.292 105.095 103.225 105.154C103.158 105.214 103.071 105.247 102.982 105.247Z" fill="#FFCEB7"/>
<path d="M135.832 94.8888C135.761 94.8888 135.691 94.8679 135.631 94.8288C135.572 94.7897 135.524 94.7341 135.496 94.6687C135.467 94.6033 135.458 94.531 135.47 94.4605C135.482 94.3901 135.514 94.3246 135.562 94.272L141.997 87.2849C142.03 87.2475 142.069 87.2169 142.113 87.1951C142.158 87.1732 142.206 87.1604 142.255 87.1576C142.304 87.1547 142.354 87.1618 142.4 87.1785C142.447 87.1951 142.489 87.2209 142.526 87.2543C142.562 87.2878 142.591 87.3282 142.611 87.3731C142.632 87.4181 142.643 87.4667 142.644 87.5161C142.645 87.5654 142.636 87.6145 142.618 87.6604C142.6 87.7063 142.573 87.748 142.538 87.7832L136.103 94.7703C136.068 94.8077 136.027 94.8376 135.98 94.858C135.933 94.8784 135.883 94.8889 135.832 94.8888Z" fill="#FFCEB7"/>
<path d="M116.704 82.8122C114.47 82.8122 112.899 81.392 112.874 81.3679C112.806 81.3008 112.766 81.2097 112.764 81.114C112.762 81.0184 112.797 80.9256 112.862 80.8554C112.927 80.7852 113.017 80.7431 113.112 80.738C113.208 80.733 113.302 80.7654 113.374 80.8284C113.521 80.9647 117.027 84.1025 120.946 79.9274C120.979 79.8906 121.019 79.8607 121.063 79.8396C121.107 79.8184 121.156 79.8063 121.205 79.8041C121.254 79.8019 121.303 79.8095 121.349 79.8266C121.395 79.8436 121.437 79.8698 121.473 79.9034C121.509 79.9371 121.538 79.9776 121.558 80.0225C121.578 80.0675 121.588 80.116 121.589 80.1652C121.59 80.2143 121.581 80.2632 121.563 80.3088C121.545 80.3544 121.517 80.3959 121.483 80.4308C119.774 82.2514 118.108 82.8122 116.704 82.8122Z" fill="#3976EE"/>
<path d="M104.074 93.034C103.927 94.3189 103.781 95.6593 103.64 97.0251C103.603 97.3635 103.574 97.6944 103.537 98.0326C106.126 94.5427 106.049 90.1094 106.045 89.9366C105.32 90.9241 104.661 91.9589 104.074 93.034Z" fill="#001B4F"/>
<path d="M121.103 66.063V75.3184C121.103 76.3695 120.686 77.3777 119.943 78.1209C119.199 78.8642 118.191 79.2818 117.14 79.2818C116.089 79.2818 115.081 78.8642 114.337 78.1209C113.594 77.3777 113.177 76.3695 113.177 75.3184V66.063H121.103Z" fill="#FFCEB7"/>
<path d="M121.104 68.5573V74.8659C118.916 73.7317 117.139 71.9391 116.025 69.741L121.104 68.5573Z" fill="#001B4F"/>
<path d="M123.423 59.9664C123.423 59.9664 126.643 74.88 116.023 69.7393L112.351 64.7114L114.78 57.3678L120.317 57.0288L123.423 59.9664Z" fill="#FFCEB7"/>
<path d="M123.423 59.9663C123.423 59.9663 115.91 53.9218 113.198 64.4855L110.826 64.0337C110.826 64.0337 108.819 55.9362 116.023 54.4301C122.237 53.1308 123.423 59.9663 123.423 59.9663Z" fill="#FF5970"/>
<path d="M114.04 66.599C114.787 65.8522 114.668 64.5226 113.775 63.6293C112.881 62.736 111.552 62.6173 110.805 63.3641C110.058 64.111 110.177 65.4406 111.07 66.3339C111.963 67.2272 113.293 67.3459 114.04 66.599Z" fill="#FFCEB7"/>
<path d="M113.264 65.745C113.23 65.745 113.197 65.7356 113.168 65.7179C113.139 65.7003 113.116 65.6751 113.101 65.645C113.095 65.6334 112.499 64.4944 111.56 64.5947C111.512 64.5987 111.464 64.5837 111.428 64.5531C111.391 64.5225 111.367 64.4786 111.362 64.4309C111.357 64.3831 111.371 64.3353 111.4 64.2976C111.43 64.2598 111.473 64.2352 111.521 64.229C112.713 64.1027 113.4 65.4216 113.429 65.4778C113.451 65.5212 113.455 65.5716 113.44 65.618C113.425 65.6643 113.392 65.7028 113.348 65.725C113.322 65.7382 113.293 65.7451 113.264 65.745Z" fill="#001B4F"/>
<path d="M122.642 64.0055C122.906 63.8962 123.032 63.5937 122.922 63.3298C122.813 63.0659 122.51 62.9406 122.247 63.0499C121.983 63.1592 121.857 63.4617 121.967 63.7256C122.076 63.9895 122.379 64.1148 122.642 64.0055Z" fill="#001B4F"/>
<path d="M119.181 64.0899C119.467 64.0899 119.698 63.8583 119.698 63.5727C119.698 63.2871 119.467 63.0555 119.181 63.0555C118.895 63.0555 118.664 63.2871 118.664 63.5727C118.664 63.8583 118.895 64.0899 119.181 64.0899Z" fill="#001B4F"/>
<path d="M121.525 66.5431C121.376 66.5462 121.229 66.5196 121.091 66.4647C121.046 66.4454 121.011 66.409 120.993 66.3637C120.975 66.3184 120.976 66.2677 120.995 66.223C121.014 66.1782 121.051 66.143 121.096 66.125C121.141 66.107 121.192 66.1078 121.237 66.1272C121.393 66.1801 121.56 66.1917 121.722 66.1606C121.78 66.1555 121.836 66.1389 121.887 66.1116C121.938 66.0843 121.983 66.047 122.02 66.0018C122.041 65.9722 122.055 65.9384 122.061 65.9028C122.068 65.8672 122.067 65.8306 122.058 65.7955C122.001 65.5302 121.622 65.1933 121.295 64.9926C121.254 64.9668 121.225 64.9259 121.214 64.8788C121.203 64.8317 121.211 64.7822 121.236 64.741C121.261 64.6997 121.302 64.6701 121.349 64.6585C121.396 64.647 121.445 64.6544 121.487 64.6791C121.623 64.7624 122.307 65.2042 122.418 65.7182C122.437 65.802 122.439 65.8889 122.423 65.9734C122.406 66.0578 122.373 66.138 122.324 66.2088C122.26 66.2967 122.178 66.3702 122.083 66.4246C121.989 66.4789 121.884 66.513 121.776 66.5245C121.692 66.5368 121.609 66.543 121.525 66.5431Z" fill="#001B4F"/>
<path d="M120.604 68.0895C119.544 68.0895 118.842 67.2186 118.834 67.2081C118.804 67.1699 118.79 67.1211 118.795 67.0727C118.801 67.0243 118.826 66.9801 118.864 66.9498C118.902 66.9196 118.951 66.9057 118.999 66.9114C119.048 66.9171 119.092 66.9417 119.122 66.98C119.158 67.0243 119.981 68.0345 121.155 67.6255C121.178 67.6176 121.202 67.6142 121.226 67.6156C121.25 67.6169 121.274 67.623 121.295 67.6335C121.317 67.644 121.337 67.6587 121.353 67.6767C121.369 67.6947 121.381 67.7158 121.389 67.7386C121.397 67.7614 121.401 67.7855 121.399 67.8096C121.398 67.8337 121.392 67.8573 121.381 67.8791C121.371 67.9008 121.356 67.9203 121.338 67.9363C121.32 67.9524 121.299 67.9648 121.276 67.9727C121.06 68.0493 120.833 68.0888 120.604 68.0895Z" fill="#001B4F"/>
<path d="M120.171 62.0315C120.053 62.3434 119.717 62.2753 118.945 62.4111C118.768 62.4422 117.837 62.6661 117.789 62.4736C117.755 62.3373 118.201 61.9764 118.823 61.8215C119.149 61.7393 119.486 61.7106 119.822 61.7363C119.903 61.7387 119.983 61.7547 120.059 61.7837C120.084 61.7909 120.107 61.8034 120.127 61.8203C120.146 61.8372 120.162 61.8582 120.172 61.8818C120.183 61.9053 120.188 61.9309 120.188 61.9568C120.188 61.9826 120.182 62.0081 120.171 62.0315Z" fill="#001B4F"/>
<path d="M121.606 62.0119C121.706 62.3236 122.01 62.2553 122.702 62.3906C122.86 62.4217 123.695 62.6449 123.741 62.4525C123.775 62.3162 123.38 61.9561 122.823 61.8015C122.532 61.7196 122.228 61.691 121.926 61.7169C121.852 61.7195 121.779 61.7356 121.711 61.7645C121.688 61.7734 121.667 61.787 121.649 61.8044C121.63 61.8219 121.616 61.8427 121.606 61.8658C121.596 61.8889 121.591 61.9138 121.591 61.9389C121.591 61.964 121.596 61.9888 121.606 62.0119Z" fill="#001B4F"/>
<path opacity="0.4" d="M117.749 65.388C117.907 64.7209 117.494 64.0524 116.827 63.8947C116.16 63.737 115.492 64.1499 115.334 64.817C115.176 65.484 115.589 66.1526 116.256 66.3103C116.923 66.468 117.592 66.055 117.749 65.388Z" fill="#FF5970"/>
<path d="M61.1286 45.5791C64.2553 45.5779 67.3281 46.3933 70.0427 47.9447C72.7574 49.496 75.0197 51.7295 76.6059 54.424C78.192 57.1185 79.0468 60.1805 79.0858 63.307C79.1247 66.4334 78.3464 69.5158 76.8279 72.2489L80.5916 81.408L71.7662 77.9829C69.4811 79.666 66.8294 80.7834 64.0288 81.2432C61.2283 81.703 58.3585 81.4922 55.6552 80.6281C52.9519 79.764 50.4919 78.2712 48.4773 76.2723C46.4626 74.2733 44.9506 71.8251 44.0654 69.1286C43.1802 66.4321 42.947 63.5641 43.3849 60.76C43.8228 57.9559 44.9193 55.2956 46.5846 52.9974C48.2498 50.6992 50.4362 48.8286 52.9644 47.539C55.4926 46.2495 58.2906 45.5778 61.1286 45.5791Z" fill="white"/>
<path d="M81.2585 82.0605L71.8215 78.3984C68.7136 80.655 64.9703 81.8683 61.1295 81.8639C51.0243 81.8639 42.803 73.6428 42.803 63.5374C42.803 53.4319 51.024 45.2108 61.1295 45.2108C71.235 45.2108 79.4561 53.4319 79.4561 63.5374C79.4541 66.5881 78.691 69.5901 77.236 72.2714L81.2585 82.0605ZM61.1295 45.9469C58.3463 45.9418 55.6016 46.5972 53.121 47.8593C50.6404 49.1213 48.4946 50.9539 46.86 53.2066C45.2254 55.4592 44.1487 58.0676 43.7183 60.8173C43.2879 63.5671 43.5161 66.3797 44.3842 69.0241C45.2522 71.6684 46.7354 74.0691 48.7118 76.0288C50.6881 77.9884 53.1013 79.4512 55.7529 80.2968C58.4045 81.1424 61.219 81.3468 63.965 80.8931C66.711 80.4394 69.3101 79.3406 71.5488 77.687L71.7115 77.5668L79.9267 80.7552L76.4212 72.2255L76.5073 72.0709C77.9949 69.3937 78.7574 66.3743 78.7193 63.3119C78.6812 60.2494 77.8439 57.25 76.2902 54.6106C74.7365 51.9713 72.5204 49.7835 69.8613 48.2639C67.2022 46.7443 64.1922 45.9456 61.1295 45.9469Z" fill="#699BFF"/>
<path d="M58.7517 70.1488C58.7517 68.8878 59.7406 67.9473 61.1264 67.9473C62.5122 67.9473 63.501 68.8875 63.501 70.1488C63.501 71.3854 62.5111 72.4005 61.1264 72.4005C59.7417 72.4005 58.7517 71.3854 58.7517 70.1488Z" fill="#699BFF"/>
<path d="M58.8252 54.8884H63.4259L62.6586 66.1915H59.5929L58.8252 54.8884Z" fill="#699BFF"/>
<path d="M274.056 45.52C272.107 44.6875 269.977 44.3684 267.87 44.5931C265.762 44.8178 263.747 45.5788 262.018 46.8035C260.288 48.0282 258.901 49.6757 257.989 51.5888C257.076 53.502 256.67 55.617 256.807 57.732C256.945 59.847 257.622 61.8914 258.775 63.6702C259.927 65.4491 261.516 66.9029 263.39 67.8931C265.264 68.8833 267.36 69.3767 269.479 69.3264C271.598 69.276 273.669 68.6835 275.494 67.6055L269.185 56.9273L274.056 45.52Z" fill="#699BFF"/>
<path d="M273.903 58.3987L280.212 69.0769C282.909 67.4826 284.904 64.9264 285.794 61.922C286.684 58.9175 286.404 55.6875 285.01 52.881L273.903 58.3987Z" fill="#BDD3FF"/>
<path d="M284.583 49.8161C283.269 47.1748 281.059 45.0871 278.347 43.9265L273.475 55.3338L284.583 49.8161Z" fill="#E7EFFF"/>
<path d="M142.386 38.4593H110.198V21.677H110.934V37.7246H142.386V38.4593Z" fill="#699BFF"/>
<path d="M113.719 35.7923L113.095 35.4038L116.062 30.636L118.1 33.9708L122.384 24.8308L126.763 33.103L138.629 21.7894L139.136 22.3215L126.568 34.3052L122.424 26.4776L118.185 35.5206L116.056 32.0368L113.719 35.7923Z" fill="#699BFF"/>
<path d="M381.715 205.671H0V206.406H381.715V205.671Z" fill="#001B4F"/>
<defs>
<clipPath id="clip0_766_38509">
<rect width="16" height="16" fill="white" transform="translate(206 15)"/>
</clipPath>
</defs>
</svg>
