<?xml version="1.0" encoding="utf-8"?>
<!-- Generator: Adobe Illustrator 27.7.0, SVG Export Plug-In . SVG Version: 6.00 Build 0)  -->
<svg version="1.1" id="Layer_1" xmlns="http://www.w3.org/2000/svg" xmlns:xlink="http://www.w3.org/1999/xlink" x="0px" y="0px"
	 viewBox="0 0 808.3 210.6" style="enable-background:new 0 0 808.3 210.6;" xml:space="preserve" width="120" height="60">
<g>
	<path d="M114.2,114.1c0,0.5,0,0.9,0,1.3c0,12.3,0,24.7,0,37c0,1.6,0.2,1.8,1.8,1.8c10.4,0,20.7,0,31.1,0c4.2,0,8.2-0.6,11.7-3.1
		c4.3-3,6.4-7.2,6.6-12.5c0.2-3.8-0.6-7.4-2.9-10.5c-1.5-2-3.3-3.7-5.6-4.7c-0.4-0.2-1-0.7-1-1c0-0.4,0.5-0.9,0.9-1.1
		c5.5-3.2,7.7-8,7.2-14.1c-0.4-5.8-3.3-10.1-8.6-12.7c-3.3-1.6-6.8-1.9-10.4-1.8c-0.4,0-0.9,0-1.6-0.1c3-2.2,5.7-4.2,8.4-6.2
		c34.6-25.3,69.2-50.6,103.9-75.9c0.3-0.2,0.6-0.4,0.9-0.6c1.3-0.8,2.9,0,3.1,1.5c0,0.4,0,0.9,0,1.3c0,29.6,0,59.3,0,88.9
		c0,0.4,0,0.7,0,1.3c-0.6-0.7-1-1.2-1.5-1.7c-5.1-5.7-11.6-9-19.3-9.5c-8.9-0.7-17.2,1.3-24.3,6.8c-6.4,4.9-10,11.6-11.1,19.5
		c-0.4,2.7-0.7,5.5-0.4,8.1c1.3,12.2,7.2,21.2,18.6,26.2c3.2,1.4,6.6,2.3,10.2,2.6c10.3,1,19.5-1.6,27.3-8.5
		c0.1-0.1,0.2-0.2,0.3-0.2c0,0,0.1,0,0.2,0c0,0.3,0,0.6,0,0.9c0,9.7,0,19.5,0,29.2c0,2.1-0.6,2.7-2.7,2.7c-74.9,0-149.8,0-224.7,0
		c-0.3,0-0.6,0-0.9,0c-1.1,0-1.8-0.5-2.1-1.4c-0.3-1,0.1-1.8,0.9-2.4c2.1-1.5,4.2-3.1,6.3-4.6c25.5-18.7,51-37.3,76.6-56
		C113.6,114.6,113.8,114.4,114.2,114.1z M191.3,123.4C191.3,123.4,191.3,123.4,191.3,123.4c0-9.7,0-19.4,0-29.1
		c0-1.7-0.1-1.8-1.8-1.8c-3.3,0-6.6,0-9.9,0c-1.3,0-1.5,0.2-1.5,1.5c0,19.6,0,39.1,0,58.7c0,1.2,0.2,1.4,1.4,1.4c3.4,0,6.7,0,10.1,0
		c1.5,0,1.6-0.2,1.6-1.6C191.3,142.8,191.3,133.1,191.3,123.4z"/>
	<path d="M456.6,107.3c-6.1,15.3-12.1,30.5-18.2,45.8c-0.3,0.8-0.8,1.2-1.7,1.1c-0.2,0-0.5,0-0.7,0c-3.1-0.1-2.4,0.6-3.6-2.5
		c-5.8-14.6-11.6-29.1-17.4-43.7c-0.1-0.3-0.3-0.7-0.6-1c0,0.3,0,0.7,0,1c0,14.8,0,29.6,0,44.4c0,1.5-0.1,1.6-1.6,1.6
		c-2.6,0-5.3,0-7.9,0c-1.1,0-1.3-0.2-1.3-1.3c0-19.7,0-39.3,0-59c0-1.2,0.2-1.3,1.4-1.3c4,0,8.1,0,12.1,0c1.5,0,1.8,0.2,2.3,1.6
		c5.2,13.4,10.5,26.9,15.7,40.3c0.1,0.4,0.3,0.7,0.5,1.3c0.5-1.2,0.9-2.2,1.3-3.3c4.9-12.8,9.9-25.5,14.8-38.3
		c0.6-1.6,0.8-1.7,2.5-1.7c4.1,0,8.2,0,12.2,0c1.2,0,1.3,0.1,1.3,1.3c0,19.7,0,39.3,0,59c0,1.1-0.2,1.3-1.3,1.3c-2.8,0-5.5,0-8.3,0
		c-1.2,0-1.3-0.1-1.3-1.4c0-14.8,0-29.5,0-44.3c0-0.4,0-0.8,0-1.2c0-0.1,0-0.3,0-0.4c0,0-0.1,0-0.1,0
		C456.7,107,456.7,107.1,456.6,107.3z"/>
	<path d="M494.4,107c0,10.1,0,20.2,0,30.3c0,5.1,0,10.3,0,15.4c0,1.2-0.2,1.4-1.4,1.4c-2.7,0-5.4,0-8.1,0c-1.2,0-1.3-0.2-1.3-1.3
		c0-19.7,0-39.3,0-59c0-1.2,0.1-1.3,1.3-1.3c4.1,0,8.2,0,12.3,0c1.4,0,1.7,0.2,2.2,1.5c5.3,13.5,10.5,27,15.8,40.5
		c0.1,0.3,0.3,0.7,0.5,1.1c1.4-3.6,2.7-7,4.1-10.5c4-10.4,8-20.7,12-31.1c0.6-1.5,0.8-1.6,2.3-1.6c4,0,8,0,12,0
		c1.3,0,1.4,0.1,1.4,1.4c0,19.6,0,39.3,0,58.9c0,1.2-0.2,1.3-1.4,1.4c-2.7,0-5.3,0-8,0c-1.3,0-1.4-0.1-1.4-1.5c0-14.8,0-29.7,0-44.5
		c0-0.4,0-0.7,0-1.1c-0.1,0-0.1,0-0.2,0c-0.4,1-0.8,2.1-1.3,3.1c-5.7,14.3-11.3,28.6-17,42.9c-0.3,0.9-0.8,1.2-1.7,1.2
		c-0.7-0.1-1.4-0.1-2.1,0c-0.9,0.1-1.3-0.3-1.6-1.1c-2.3-5.9-4.7-11.8-7-17.8c-3.7-9.3-7.4-18.6-11.1-27.9c0-0.1-0.1-0.2-0.1-0.4
		C494.5,107.1,494.5,107,494.4,107z"/>
	<path d="M621.7,123.3c0-9.7,0-19.4,0-29.1c0-1.4,0.3-1.7,1.7-1.7c8.6,0,17.3-0.1,25.9,0c5.8,0.1,11.1,1.9,15.1,6.4
		c3,3.4,4.4,7.4,4.5,11.9c0.1,3.8-0.4,7.5-2.4,10.8c-2.2,3.9-5.6,6.4-9.8,7.8c-0.2,0.1-0.4,0.1-0.7,0.2c-1.1,0.4-1.4,1-0.7,2
		c2.3,3.7,4.6,7.4,6.9,11.1c1.9,3.1,3.9,6.2,5.8,9.3c0.3,0.4,0.5,1.2,0.3,1.5c-0.2,0.4-1,0.6-1.5,0.6c-3,0.1-5.9,0-8.9,0
		c-0.8,0-1.3-0.3-1.7-1c-4.1-6.9-8.2-13.9-12.2-20.8c-0.5-0.9-1.1-1.2-2.1-1.2c-2.6,0.1-5.1,0-7.7,0c-1.4,0-1.7,0.2-1.7,1.6
		c0,6.5,0,13,0,19.4c0,1.7-0.2,1.9-1.9,1.9c-2.4,0-4.7,0-7.1,0c-1.6,0-1.8-0.2-1.8-1.7C621.7,142.7,621.7,133,621.7,123.3z
		 M641.3,101.9c0,0,0,0.1,0,0.1c-2.4,0-4.9,0-7.3,0c-0.8,0-1.4,0.2-1.4,1.2c0,5.7,0,11.4,0,17.2c0,0.8,0.4,1.2,1.2,1.2
		c5,0,10.1,0.2,15.1-0.2c6.9-0.5,9.9-5.6,8.8-11.9c-0.6-3.8-3.7-6.6-7.5-7.1C647.2,102,644.2,102,641.3,101.9z"/>
	<path d="M564.1,123.3c0-9.7,0-19.3,0-29c0-1.5,0.3-1.8,1.8-1.8c12.8,0,25.6,0,38.4,0c1.8,0,2.1,0.3,2.1,2.1c0,2,0,3.9,0,5.9
		c0,1.3-0.3,1.6-1.6,1.6c-9.3,0-18.7,0-28,0c-1.7,0-1.8,0.2-1.8,1.8c0,4.2,0,8.4,0,12.5c0,1.3,0.2,1.5,1.6,1.5c9.1,0,18.3,0,27.4,0
		c1.5,0,1.8,0.3,1.8,1.8c0,2.1,0,4.1,0,6.2c0,1.3-0.3,1.6-1.6,1.6c-9.1,0-18.2,0-27.3,0c-1.7,0-1.9,0.2-1.9,1.9c0,4.5,0,9,0,13.5
		c0,1.6,0.2,1.9,1.9,1.9c9.2,0,18.5,0,27.7,0c1.5,0,1.8,0.2,1.8,1.8c0,2,0,4.1,0,6.1c0,1.3-0.3,1.6-1.5,1.6c-13.1,0-26.1,0-39.2,0
		c-1.2,0-1.5-0.3-1.5-1.6C564.1,142.8,564.1,133,564.1,123.3z"/>
	<path d="M742.1,123.3c0-9.7,0-19.3,0-29c0-1.5,0.2-1.7,1.7-1.7c13,0,26,0,39,0c1.3,0,1.6,0.3,1.6,1.6c0,2,0,4,0,6
		c0,1.5-0.3,1.8-1.9,1.8c-9.1,0-18.1,0-27.2,0c-0.2,0-0.5,0-0.7,0c-1.4,0-1.6,0.3-1.6,1.6c0,2.7,0,5.3,0,8c0,1.4,0,2.8,0,4.2
		c0,1.9,0.1,2,2,2c9.1,0,18.1,0,27.2,0c1.3,0,1.6,0.3,1.6,1.6c0,2.1,0,4.2,0,6.3c0,1.4-0.3,1.7-1.7,1.7c-9.1,0-18.1,0-27.2,0
		c-1.7,0-1.9,0.1-1.9,1.9c0,4.5,0,8.9,0,13.4c0,1.7,0.2,1.9,1.9,1.9c9.1,0,18.2,0,27.3,0c2,0,2.2,0.2,2.2,2.2c0,1.9,0,3.7,0,5.6
		c0,1.4-0.3,1.7-1.7,1.7c-13,0-26,0-39,0c-1.3,0-1.6-0.3-1.6-1.6C742.1,142.8,742.1,133.1,742.1,123.3z"/>
	<path d="M707.2,91.2c10.7,0.1,18.4,4.3,23.9,12.6c0.6,0.9,0.5,1.4-0.5,1.9c-2.1,1.2-4.3,2.4-6.5,3.6c-0.9,0.5-1.4,0-1.8-0.7
		c-3-4.2-6.9-7-12.1-7.6c-7.3-0.8-13.6,1.6-18.1,7.6c-3.8,5-5,10.8-4.4,17c0.4,4.5,1.9,8.6,4.7,12.2c5.4,6.9,14.9,9.3,22.6,5.8
		c2.9-1.3,5.3-3.4,7.2-6c0.8-1.2,1-1.2,2.2-0.6c2,1,4,2.1,6,3.1c1.2,0.6,1.3,1.1,0.6,2.1c-3.6,5.4-8.4,9.4-14.7,11.3
		c-4.5,1.4-9.1,1.6-13.8,0.8c-14.3-2.4-24.1-13.4-25.4-27.7c-0.8-8.3,0.8-16.1,5.6-23c4.8-6.8,11.5-10.7,19.6-12.1
		C704.2,91.4,706.1,91.3,707.2,91.2z"/>
	<path d="M303,155.3c-11.7-0.6-20.7-4.9-26.7-14.6c-2.3-3.8-3.7-7.9-4.2-12.3c-0.3-2.2-0.6-4.4-0.4-6.6c0.8-11.4,5.3-20.7,15.7-26.5
		c4-2.2,8.3-3.3,13-3.7c4.6-0.4,8.9,0.2,13.1,1.8c5.4,2.1,9.4,5.9,12.5,10.7c0.5,0.7,0.3,1.3-0.4,1.7c-2.3,1.3-4.5,2.5-6.8,3.8
		c-0.8,0.5-1.3-0.1-1.7-0.7c-1.7-2.4-3.8-4.4-6.4-5.8c-8.2-4.3-18.7-1.5-24.2,6.2c-2.2,3.1-3.5,6.5-4,10.3
		c-0.9,6.2,0.2,12.1,3.8,17.4c3.4,5.1,8.4,7.9,14.5,8.5c6.7,0.6,11.9-2.1,16-7.4c1-1.3,1.1-1.4,2.6-0.6c2,1,4,2.1,6,3.1
		c0.9,0.5,1.1,1,0.5,1.8c-4.1,6.1-9.5,10.4-16.8,12.1C307,155,304.7,155.1,303,155.3z"/>
	<path d="M260,106.2c0,4.6,0,9.2,0,13.8c-0.3,0-0.7,0-1,0c-8.1,0-16.1,0-24.2,0c-1.6,0-1.8,0.2-1.8,1.8c0,2.7,0,5.3,0,8
		c0,1.4,0.3,1.6,1.6,1.6c4.4,0,8.9,0,13.3,0c1.2,0,1.4,0.1,1.4,1.4c0,1.7,0.1,3.4,0,5.1c0,0.5-0.3,1.2-0.7,1.5
		c-6.1,4.5-12.8,5.4-19.9,2.7c-6.7-2.7-10.4-8-11.6-15c-1.1-6.3,0.2-12.1,4.2-17.1c3.6-4.4,8.4-6.6,14.1-6.7
		c6.1-0.2,10.9,2.3,14.6,6.9c0.6,0.7,1.1,0.8,1.9,0.4c2.3-1.3,4.7-2.6,7-3.8C259.3,106.6,259.6,106.4,260,106.2z"/>
	<path d="M136.9,142.6c-2.7,0-5.4,0-8.1,0c-1.2,0-1.5-0.2-1.5-1.4c0-3.7,0-7.5,0-11.2c0-1.1,0.3-1.4,1.4-1.4c5.2,0,10.3,0,15.5,0
		c2,0,3.9,0.3,5.4,1.7c1.6,1.3,2.3,3,2.4,5.1c0,2.2-0.4,4-2.1,5.5c-1.4,1.2-3.2,1.7-5,1.8C142.3,142.6,139.6,142.6,136.9,142.6
		C136.9,142.6,136.9,142.6,136.9,142.6z"/>
	<path d="M136.8,117c-2.7,0-5.3,0-8,0c-1.3,0-1.5-0.2-1.5-1.5c0-3.3,0-6.6,0-10c0-1.2,0.2-1.5,1.4-1.5c5,0,10,0,15,0
		c1.6,0,3.2,0.3,4.6,1.2c2.3,1.5,3.2,4.3,2.5,7.1c-0.7,2.5-3,4.4-5.7,4.5C142.3,117,139.6,116.9,136.8,117
		C136.8,117,136.8,117,136.8,117z"/>
	<path d="M456.6,107.3c0.1-0.2,0.1-0.3,0.2-0.5c0,0,0.1,0,0.1,0c0,0.1,0,0.3,0,0.4C456.8,107.3,456.7,107.3,456.6,107.3z"/>
	<path d="M494.4,107c0.1,0,0.1,0,0.2,0.1C494.5,107.1,494.5,107,494.4,107z"/>
	<path d="M362.2,90.3c-17,0-30.8,14.5-30.8,32.5s13.8,32.5,30.8,32.5s30.8-14.5,30.8-32.5S379.2,90.3,362.2,90.3z M362.2,145.6
		c-10.9,0-19.8-10.2-19.8-22.8c0-12.6,8.9-22.8,19.8-22.8s19.8,10.2,19.8,22.8C382,135.4,373.1,145.6,362.2,145.6z"/>
</g>
</svg>
