<?xml version="1.0" encoding="UTF-8"?> <svg xmlns="http://www.w3.org/2000/svg" id="Layer_1" data-name="Layer 1" viewBox="0 0 213.29 158.4" width="70" height="70"><defs><style> .cls-1 { fill: #f47e2f; } .cls-2 { fill: #6b6b6a; } </style></defs><g id="Layer_2" data-name="Layer 2"><g id="Layer_1-2" data-name="Layer 1-2"><path class="cls-1" d="m106.96,49.07c0,46.53-49.65,47.07-53.4,47.07h-23.5v61.88c-.02,1-.84,1.8-1.84,1.78-.05,0-.09,0-.14,0H2.34c-1-.05-1.82-.79-1.98-1.77v-91.15h53.2c3.96,0,23.33-.4,23.33-17.82s-19.8-18.38-23.33-18.38H.36V3.39c.16-.99.98-1.73,1.98-1.78h51.22c6.33,0,53.4.99,53.4,47.46Z"></path><path class="cls-1" d="m139.72,1.8c22.58,0,40.89,18.29,40.89,40.88v114.55c0,1.24-.99,2.79-2.38,2.79h-25.51c-1.39,0-2.18-1.55-2.18-2.79V58.73c0-16.47-13.35-29.83-29.83-29.83h-3.75c-1.09.11-2.06-.67-2.18-1.76,0,0,0-.01,0-.02V3.59c.19-1.05,1.11-1.8,2.18-1.78h22.75Z"></path><g><path class="cls-2" d="m211.31,154.37l-3.41-.34c3.29-4.99,4.78-9.22,4.78-12.55,0-5.08-2.99-8.49-7.13-7.43-7.13,1.88-8.58,20.23-15.75,20.61-5.08.3-7.55-5.68-7.55-12.72,0-3.37.56-7.13,1.71-10.97l3.41.38c-2.77,4.35-4.31,8.75-4.31,11.82,0,4.48,1.45,7.77,4.48,7.6,5.8-.38,8.24-20.91,17.07-21.38,5.76-.34,8.92,5.25,8.92,12.89,0,3.67-.73,7.81-2.22,12.08Z"></path><path class="cls-2" d="m212.93,117.93h-29.32c0,5.08.85,7.08,2.77,10.24h-3.42v-25.61h3.42c-1.92,3.12-2.77,5.21-2.77,10.24h29.32v5.12Z"></path><path class="cls-2" d="m202.47,99.54h-19.5v-5.16h22.28c5.42,0,7.68-3.41,7.68-7.17s-2.26-7.04-7.68-7.04h-22.28v-5.12h19.5c7.38,0,11.1,5.21,11.1,12.16s-3.71,12.33-11.1,12.33Z"></path><path class="cls-2" d="m212.93,70.05h-29.96v-11.18c0-8.66,4.65-13.91,14.43-13.91,11.1,0,15.54,7.17,15.54,14.51v10.58Zm-.68-5.12v-3.33c0-6.91-3.12-11.52-14.85-11.52-9.86,0-13.74,3.67-13.74,10.67v4.18h28.59Z"></path><path class="cls-2" d="m212.93,40.95h-29.96v-5.12h29.96v5.12Z"></path><path class="cls-2" d="m198.04,32.25c-9.26,0-15.79-4.74-15.79-14.38s6.53-14.38,15.79-14.38c8.49,0,15.62,4.69,15.62,14.38s-7.13,14.38-15.62,14.38Zm0-23.64c-7.55,0-15.15,2.3-15.15,9.26s7.6,9.26,15.15,9.26,14.98-2.52,14.98-9.26-7.34-9.26-14.98-9.26Z"></path></g></g></g></svg> 