<svg xmlns="http://www.w3.org/2000/svg" width="100" height="41" fill="none"><path fill="url(#a)" fill-rule="evenodd" d="M67.32-.003V4.1h-5.256l-.344.006c-5.95.18-10.734 5.034-10.734 10.974v25.451h-4.142V15.081l.005-.395c.212-8.136 6.956-14.69 15.215-14.69h5.256Zm5.929.049v40.216h-3.99V.046h3.99ZM56.087 22.109l.14.009c.548.068.972.531.972 1.093v.875l-.009.138a1.109 1.109 0 0 1-1.103.964h-1.919l-.14-.009a1.106 1.106 0 0 1-.971-1.093v-.875l.008-.138a1.109 1.109 0 0 1 1.103-.964h1.92Z" clip-rule="evenodd"/><path fill="#000" fill-rule="evenodd" d="M9.781 16.718c5.495 0 8.62 3.497 8.62 3.497l-2.772 2.848s-2.319-2.548-5.848-2.548c-2.974 0-4.436 1.449-4.436 2.947 0 1.749 1.815 2.698 5.646 3.497 4.436.95 8.217 2.598 8.217 7.295 0 4.446-4.738 6.744-9.225 6.744-6.553 0-9.981-4.846-9.981-4.846l2.924-2.698s2.47 3.747 7.057 3.747c2.37 0 5.04-.999 5.04-2.848 0-1.998-1.713-2.997-5.292-3.696-4.99-1-8.52-2.948-8.52-7.295 0-3.347 3.378-6.644 8.57-6.644Zm23.377 0c6.856 0 10.133 4.196 10.133 8.493v15.188h-3.882V37.05s-2.622 3.947-7.915 3.947c-4.183 0-8.67-2.898-8.67-7.894 0-4.496 3.982-7.693 9.225-7.693 4.285 0 7.007 1.898 7.007 1.898V26.06c0-4.796-4.032-5.445-5.898-5.445-3.529 0-6.956 1.948-6.956 1.948l-1.765-3.497.033-.021c.375-.233 3.88-2.327 8.688-2.327Zm55.501 0c6.504 0 11.343 4.846 11.343 12.29 0 .45 0 .8-.05 1.349H81.147c.253 3.497 3.63 6.745 8.016 6.745 4.587 0 7.007-3.398 7.007-3.398l2.671 2.748s-3.528 4.546-9.678 4.546c-7.058 0-12.15-5.296-12.15-12.14 0-6.744 4.638-12.14 11.645-12.14Zm-55.702 12.19c-3.63 0-5.898 1.799-5.898 4.196 0 2.998 2.722 4.197 5.343 4.197 4.134 0 6.654-3.497 6.654-3.497v-3.248l-.033-.022c-.294-.197-2.546-1.626-6.066-1.626Zm55.702-8.293c-5.04 0-7.107 3.847-7.41 6.244h14.619c-.151-2.597-2.52-6.244-7.209-6.244Z" clip-rule="evenodd"/><defs><linearGradient id="a" x1="65.328" x2="40.62" y1="-2.233" y2="28.12" gradientUnits="userSpaceOnUse"><stop stop-color="#11BCE2"/><stop offset="1" stop-color="#0569F7"/></linearGradient></defs></svg>