<?xml version="1.0" encoding="UTF-8"?> <svg xmlns="http://www.w3.org/2000/svg" xmlns:xlink="http://www.w3.org/1999/xlink" width="140" zoomAndPan="magnify" viewBox="0 0 562.5 141.000003" height="60" preserveAspectRatio="xMidYMid meet" version="1.0"><defs><g></g></defs><g fill="#000000" fill-opacity="1"><g transform="translate(1.732388, 69.60517)"><g><path d="M 24.75 0.71875 C 20.289062 0.71875 16.429688 -0.15625 13.171875 -1.90625 C 9.910156 -3.65625 7.441406 -5.945312 5.765625 -8.78125 C 4.097656 -11.625 3.265625 -14.585938 3.265625 -17.671875 L 3.265625 -18.3125 L 16.875 -18.3125 L 16.875 -17.75 C 16.875 -15.84375 17.5625 -14.09375 18.9375 -12.5 C 20.320312 -10.90625 22.34375 -10.109375 25 -10.109375 C 27.28125 -10.109375 29.109375 -10.691406 30.484375 -11.859375 C 31.859375 -13.023438 32.546875 -14.5625 32.546875 -16.46875 C 32.546875 -18.164062 31.9375 -19.53125 30.71875 -20.5625 C 29.5 -21.601562 28.015625 -22.3125 26.265625 -22.6875 L 19.890625 -23.953125 C 16.179688 -24.804688 12.707031 -26.398438 9.46875 -28.734375 C 6.226562 -31.066406 4.609375 -34.882812 4.609375 -40.1875 C 4.609375 -43.644531 5.441406 -46.617188 7.109375 -49.109375 C 8.785156 -51.597656 11.109375 -53.503906 14.078125 -54.828125 C 17.054688 -56.160156 20.429688 -56.828125 24.203125 -56.828125 C 28.492188 -56.828125 32.203125 -56.003906 35.328125 -54.359375 C 38.460938 -52.710938 40.828125 -50.578125 42.421875 -47.953125 C 44.015625 -45.328125 44.8125 -42.582031 44.8125 -39.71875 L 44.8125 -39.3125 L 31.203125 -39.3125 L 31.203125 -39.5625 C 31.203125 -41.257812 30.601562 -42.835938 29.40625 -44.296875 C 28.21875 -45.753906 26.320312 -46.484375 23.71875 -46.484375 C 21.695312 -46.484375 20.085938 -45.925781 18.890625 -44.8125 C 17.703125 -43.695312 17.109375 -42.238281 17.109375 -40.4375 C 17.109375 -38.6875 17.769531 -37.304688 19.09375 -36.296875 C 20.425781 -35.285156 22.019531 -34.59375 23.875 -34.21875 L 30.328125 -32.796875 C 34.515625 -31.890625 38.09375 -30.1875 41.0625 -27.6875 C 44.039062 -25.195312 45.53125 -21.566406 45.53125 -16.796875 C 45.53125 -13.296875 44.625 -10.21875 42.8125 -7.5625 C 41.007812 -4.90625 38.53125 -2.859375 35.375 -1.421875 C 32.21875 0.00390625 28.675781 0.71875 24.75 0.71875 Z M 24.75 0.71875 "></path></g></g></g><g fill="#000000" fill-opacity="1"><g transform="translate(49.878841, 69.60517)"><g><path d="M 16.640625 -44.890625 L 16.640625 -33.03125 L 37.8125 -33.03125 L 37.8125 -23.40625 L 16.640625 -23.40625 L 16.640625 -10.828125 L 41.78125 -10.828125 L 41.78125 0 L 4.140625 0 L 4.140625 -55.71875 L 41.78125 -55.71875 L 41.78125 -44.890625 Z M 16.640625 -44.890625 "></path></g></g></g><g fill="#000000" fill-opacity="1"><g transform="translate(94.921631, 69.60517)"><g><path d="M 35.8125 -12.890625 L 17.984375 -12.890625 L 14.015625 0 L 1.4375 0 L 21.25 -55.71875 L 32.796875 -55.71875 L 52.453125 0 L 39.875 0 Z M 32.796875 -22.359375 L 27.0625 -40.359375 L 26.578125 -40.359375 L 21.015625 -22.359375 Z M 32.796875 -22.359375 "></path></g></g></g><g fill="#000000" fill-opacity="1"><g transform="translate(148.479574, 69.60517)"><g><path d="M 27.375 0.71875 C 22.175781 0.71875 17.757812 -0.632812 14.125 -3.34375 C 10.488281 -6.050781 7.769531 -9.578125 5.96875 -13.921875 C 4.164062 -18.273438 3.265625 -22.921875 3.265625 -27.859375 C 3.265625 -32.953125 4.207031 -37.703125 6.09375 -42.109375 C 7.976562 -46.515625 10.828125 -50.066406 14.640625 -52.765625 C 18.460938 -55.472656 23.132812 -56.828125 28.65625 -56.828125 C 34.96875 -56.828125 40.148438 -55.0625 44.203125 -51.53125 C 48.265625 -48.007812 51.117188 -43.410156 52.765625 -37.734375 L 39.71875 -37.734375 C 39.03125 -40.222656 37.753906 -42.207031 35.890625 -43.6875 C 34.035156 -45.175781 31.648438 -45.921875 28.734375 -45.921875 C 24.546875 -45.921875 21.335938 -44.25 19.109375 -40.90625 C 16.878906 -37.5625 15.765625 -33.109375 15.765625 -27.546875 C 15.765625 -21.703125 16.957031 -17.175781 19.34375 -13.96875 C 21.726562 -10.757812 25.070312 -9.15625 29.375 -9.15625 C 33.082031 -9.15625 35.90625 -10.296875 37.84375 -12.578125 C 39.78125 -14.859375 40.773438 -17.535156 40.828125 -20.609375 L 40.828125 -21.65625 L 30.40625 -21.65625 L 30.40625 -30.484375 L 53.015625 -30.484375 L 53.015625 0 L 43.859375 0 L 43.859375 -7.875 L 43.21875 -7.875 C 40.082031 -2.144531 34.800781 0.71875 27.375 0.71875 Z M 27.375 0.71875 "></path></g></g></g><g fill="#000000" fill-opacity="1"><g transform="translate(205.539073, 69.60517)"><g><path d="M 27.296875 0.796875 C 20.503906 0.796875 14.945312 -1.203125 10.625 -5.203125 C 6.300781 -9.210938 4.140625 -15.597656 4.140625 -24.359375 L 4.140625 -55.71875 L 16.46875 -55.71875 L 16.46875 -25.234375 C 16.46875 -15.785156 20.078125 -11.0625 27.296875 -11.0625 C 31.171875 -11.0625 33.929688 -12.359375 35.578125 -14.953125 C 37.222656 -17.554688 38.046875 -20.984375 38.046875 -25.234375 L 38.046875 -55.71875 L 50.375 -55.71875 L 50.375 -24.359375 C 50.375 -15.597656 48.210938 -9.210938 43.890625 -5.203125 C 39.566406 -1.203125 34.035156 0.796875 27.296875 0.796875 Z M 27.296875 0.796875 "></path></g></g></g><g fill="#000000" fill-opacity="1"><g transform="translate(260.051989, 69.60517)"><g><path d="M 40.03125 -10.828125 L 40.03125 0 L 4.140625 0 L 4.140625 -55.71875 L 16.640625 -55.71875 L 16.5625 -10.828125 Z M 40.03125 -10.828125 "></path></g></g></g><g fill="#000000" fill-opacity="1"><g transform="translate(302.627765, 69.60517)"><g><path d="M 40.03125 -10.828125 L 40.03125 0 L 4.140625 0 L 4.140625 -55.71875 L 16.640625 -55.71875 L 16.5625 -10.828125 Z M 40.03125 -10.828125 "></path></g></g></g><g fill="#000000" fill-opacity="1"><g transform="translate(345.203564, 69.60517)"><g></g></g></g><g fill="#000000" fill-opacity="1"><g transform="translate(363.507167, 69.60517)"><g><path d="M 40.515625 -10.75 L 40.515625 0 L 5.484375 0 L 5.484375 -10.75 L 17.75 -10.75 L 17.75 -40.984375 L 17.4375 -40.984375 L 5.40625 -30.25 L 5.40625 -44.96875 L 17.4375 -55.71875 L 29.609375 -55.71875 L 29.609375 -10.75 Z M 40.515625 -10.75 "></path></g></g></g><g fill="#000000" fill-opacity="1"><g transform="translate(406.003374, 69.60517)"><g><path d="M 30.484375 -23.71875 L 30.25 -24.03125 L 29.046875 -22.921875 C 27.828125 -21.804688 26.5 -20.929688 25.0625 -20.296875 C 23.632812 -19.660156 21.804688 -19.34375 19.578125 -19.34375 C 16.128906 -19.34375 13.15625 -20.148438 10.65625 -21.765625 C 8.164062 -23.390625 6.269531 -25.578125 4.96875 -28.328125 C 3.675781 -31.085938 3.03125 -34.164062 3.03125 -37.5625 C 3.03125 -41.707031 3.941406 -45.222656 5.765625 -48.109375 C 7.597656 -51.003906 10.078125 -53.164062 13.203125 -54.59375 C 16.335938 -56.03125 19.816406 -56.75 23.640625 -56.75 C 27.242188 -56.75 30.609375 -56.003906 33.734375 -54.515625 C 36.867188 -53.035156 39.390625 -50.78125 41.296875 -47.75 C 43.210938 -44.726562 44.171875 -41.066406 44.171875 -36.765625 C 44.171875 -33.742188 43.757812 -30.878906 42.9375 -28.171875 C 42.113281 -25.460938 41.128906 -23.085938 39.984375 -21.046875 C 38.847656 -19.003906 37.40625 -16.601562 35.65625 -13.84375 L 26.75 0 L 13.453125 0 Z M 23.796875 -28.09375 C 26.609375 -28.09375 28.742188 -29.046875 30.203125 -30.953125 C 31.660156 -32.867188 32.390625 -35.046875 32.390625 -37.484375 C 32.390625 -39.929688 31.660156 -42.117188 30.203125 -44.046875 C 28.742188 -45.984375 26.609375 -46.953125 23.796875 -46.953125 C 20.878906 -46.953125 18.691406 -46 17.234375 -44.09375 C 15.773438 -42.1875 15.046875 -40.007812 15.046875 -37.5625 C 15.046875 -35.070312 15.773438 -32.867188 17.234375 -30.953125 C 18.691406 -29.046875 20.878906 -28.09375 23.796875 -28.09375 Z M 23.796875 -28.09375 "></path></g></g></g><g fill="#000000" fill-opacity="1"><g transform="translate(453.115283, 69.60517)"><g><path d="M 23.875 0.71875 C 20.113281 0.71875 16.648438 -0.0351562 13.484375 -1.546875 C 10.328125 -3.066406 7.796875 -5.335938 5.890625 -8.359375 C 3.984375 -11.378906 3.03125 -15.09375 3.03125 -19.5 C 3.03125 -23.6875 3.785156 -27.519531 5.296875 -31 C 6.804688 -34.476562 8.863281 -38.234375 11.46875 -42.265625 L 20.140625 -55.71875 L 32.15625 -55.71875 L 16.640625 -32.3125 L 16.875 -32.078125 L 18.0625 -33.109375 C 19.28125 -34.273438 20.609375 -35.191406 22.046875 -35.859375 C 23.484375 -36.523438 25.34375 -36.859375 27.625 -36.859375 C 31.070312 -36.859375 34.039062 -36.046875 36.53125 -34.421875 C 39.03125 -32.804688 40.925781 -30.601562 42.21875 -27.8125 C 43.519531 -25.03125 44.171875 -21.941406 44.171875 -18.546875 C 44.171875 -14.410156 43.253906 -10.878906 41.421875 -7.953125 C 39.597656 -5.035156 37.144531 -2.859375 34.0625 -1.421875 C 30.988281 0.00390625 27.59375 0.71875 23.875 0.71875 Z M 23.40625 -9.078125 C 26.320312 -9.078125 28.507812 -10.03125 29.96875 -11.9375 C 31.425781 -13.84375 32.15625 -16.046875 32.15625 -18.546875 C 32.15625 -21.035156 31.425781 -23.234375 29.96875 -25.140625 C 28.507812 -27.054688 26.320312 -28.015625 23.40625 -28.015625 C 20.59375 -28.015625 18.453125 -27.070312 16.984375 -25.1875 C 15.523438 -23.300781 14.796875 -21.085938 14.796875 -18.546875 C 14.796875 -16.109375 15.523438 -13.921875 16.984375 -11.984375 C 18.453125 -10.046875 20.59375 -9.078125 23.40625 -9.078125 Z M 23.40625 -9.078125 "></path></g></g></g><g fill="#000000" fill-opacity="1"><g transform="translate(500.227192, 69.60517)"><g><path d="M 23.71875 0.71875 C 17.1875 0.71875 12.15625 -0.910156 8.625 -4.171875 C 5.101562 -7.441406 3.023438 -11.625 2.390625 -16.71875 L 14.96875 -16.71875 C 15.5 -14.644531 16.519531 -13.035156 18.03125 -11.890625 C 19.539062 -10.753906 21.4375 -10.1875 23.71875 -10.1875 C 26.320312 -10.1875 28.363281 -10.863281 29.84375 -12.21875 C 31.332031 -13.570312 32.078125 -15.3125 32.078125 -17.4375 C 32.078125 -19.601562 31.304688 -21.335938 29.765625 -22.640625 C 28.222656 -23.941406 26.234375 -24.59375 23.796875 -24.59375 L 18.9375 -24.59375 L 18.9375 -33.984375 L 24.03125 -33.984375 C 26.207031 -33.984375 27.945312 -34.550781 29.25 -35.6875 C 30.550781 -36.832031 31.203125 -38.390625 31.203125 -40.359375 C 31.203125 -42.367188 30.507812 -43.984375 29.125 -45.203125 C 27.75 -46.429688 25.921875 -47.046875 23.640625 -47.046875 C 21.410156 -47.046875 19.628906 -46.472656 18.296875 -45.328125 C 16.972656 -44.191406 16.070312 -42.613281 15.59375 -40.59375 L 3.5 -40.59375 C 4.238281 -45.363281 6.210938 -49.3125 9.421875 -52.4375 C 12.640625 -55.570312 17.40625 -57.140625 23.71875 -57.140625 C 28.332031 -57.140625 32.113281 -56.304688 35.0625 -54.640625 C 38.007812 -52.972656 40.144531 -50.890625 41.46875 -48.390625 C 42.789062 -45.898438 43.453125 -43.378906 43.453125 -40.828125 C 43.453125 -38.179688 42.84375 -35.992188 41.625 -34.265625 C 40.40625 -32.535156 39.09375 -31.257812 37.6875 -30.4375 C 36.28125 -29.613281 35.414062 -29.203125 35.09375 -29.203125 L 35.09375 -28.734375 C 41.832031 -25.335938 44.351562 -24.085938 42.65625 -24.984375 C 40.957031 -25.890625 40.769531 -25.414062 42.09375 -23.5625 C 43.425781 -21.707031 44.09375 -19.238281 44.09375 -16.15625 C 44.09375 -13.132812 43.347656 -10.347656 41.859375 -7.796875 C 40.378906 -5.253906 38.113281 -3.195312 35.0625 -1.625 C 32.007812 -0.0625 28.226562 0.71875 23.71875 0.71875 Z M 23.71875 0.71875 "></path></g></g></g><g fill="#000000" fill-opacity="1"><g transform="translate(1.732388, 134.168371)"><g><path d="M 16.140625 0.40625 C 13.015625 0.40625 10.363281 -0.316406 8.1875 -1.765625 C 6.007812 -3.210938 4.375 -5.148438 3.28125 -7.578125 C 2.195312 -10.003906 1.65625 -12.695312 1.65625 -15.65625 C 1.65625 -18.601562 2.207031 -21.3125 3.3125 -23.78125 C 4.414062 -26.257812 6.054688 -28.234375 8.234375 -29.703125 C 10.410156 -31.179688 13.046875 -31.921875 16.140625 -31.921875 C 19.179688 -31.921875 21.78125 -31.191406 23.9375 -29.734375 C 26.101562 -28.273438 27.726562 -26.300781 28.8125 -23.8125 C 29.90625 -21.320312 30.453125 -18.585938 30.453125 -15.609375 C 30.453125 -12.628906 29.90625 -9.921875 28.8125 -7.484375 C 27.726562 -5.054688 26.101562 -3.132812 23.9375 -1.71875 C 21.78125 -0.300781 19.179688 0.40625 16.140625 0.40625 Z M 16.09375 -5.8125 C 18.300781 -5.8125 20.007812 -6.75 21.21875 -8.625 C 22.425781 -10.507812 23.03125 -12.867188 23.03125 -15.703125 C 23.03125 -18.503906 22.429688 -20.875 21.234375 -22.8125 C 20.046875 -24.75 18.332031 -25.71875 16.09375 -25.71875 C 14.570312 -25.71875 13.28125 -25.253906 12.21875 -24.328125 C 11.164062 -23.398438 10.378906 -22.175781 9.859375 -20.65625 C 9.335938 -19.132812 9.078125 -17.484375 9.078125 -15.703125 C 9.078125 -12.921875 9.679688 -10.578125 10.890625 -8.671875 C 12.097656 -6.765625 13.832031 -5.8125 16.09375 -5.8125 Z M 16.09375 -5.8125 "></path></g></g></g><g fill="#000000" fill-opacity="1"><g transform="translate(34.013896, 134.168371)"><g><path d="M 14.3125 -28.21875 C 13.414062 -28.21875 12.75 -28.03125 12.3125 -27.65625 C 11.882812 -27.28125 11.625 -26.832031 11.53125 -26.3125 C 11.445312 -25.789062 11.40625 -25.113281 11.40625 -24.28125 L 11.40625 -23.65625 L 16.59375 -23.65625 L 16.59375 -18.25 L 11.40625 -18.25 L 11.40625 0 L 4.46875 0 L 4.46875 -18.25 L 1.609375 -18.25 L 1.609375 -23.65625 L 4.46875 -23.65625 L 4.46875 -25.765625 C 4.46875 -27.609375 4.984375 -29.28125 6.015625 -30.78125 C 7.046875 -32.289062 9.140625 -33.046875 12.296875 -33.046875 C 13.066406 -33.046875 13.898438 -32.992188 14.796875 -32.890625 C 15.691406 -32.785156 16.289062 -32.6875 16.59375 -32.59375 L 16.59375 -28.03125 C 15.875 -28.15625 15.113281 -28.21875 14.3125 -28.21875 Z M 14.3125 -28.21875 "></path></g></g></g><g fill="#000000" fill-opacity="1"><g transform="translate(51.674834, 134.168371)"><g><path d="M 14.3125 -28.21875 C 13.414062 -28.21875 12.75 -28.03125 12.3125 -27.65625 C 11.882812 -27.28125 11.625 -26.832031 11.53125 -26.3125 C 11.445312 -25.789062 11.40625 -25.113281 11.40625 -24.28125 L 11.40625 -23.65625 L 16.59375 -23.65625 L 16.59375 -18.25 L 11.40625 -18.25 L 11.40625 0 L 4.46875 0 L 4.46875 -18.25 L 1.609375 -18.25 L 1.609375 -23.65625 L 4.46875 -23.65625 L 4.46875 -25.765625 C 4.46875 -27.609375 4.984375 -29.28125 6.015625 -30.78125 C 7.046875 -32.289062 9.140625 -33.046875 12.296875 -33.046875 C 13.066406 -33.046875 13.898438 -32.992188 14.796875 -32.890625 C 15.691406 -32.785156 16.289062 -32.6875 16.59375 -32.59375 L 16.59375 -28.03125 C 15.875 -28.15625 15.113281 -28.21875 14.3125 -28.21875 Z M 14.3125 -28.21875 "></path></g></g></g><g fill="#000000" fill-opacity="1"><g transform="translate(69.335772, 134.168371)"><g><path d="M 3.125 -23.65625 L 10.0625 -23.65625 L 10.0625 0 L 3.125 0 Z M 6.5625 -27.59375 C 5.488281 -27.59375 4.59375 -27.957031 3.875 -28.6875 C 3.164062 -29.414062 2.8125 -30.300781 2.8125 -31.34375 C 2.8125 -32.414062 3.164062 -33.316406 3.875 -34.046875 C 4.59375 -34.785156 5.488281 -35.15625 6.5625 -35.15625 C 7.632812 -35.15625 8.535156 -34.785156 9.265625 -34.046875 C 10.003906 -33.316406 10.375 -32.414062 10.375 -31.34375 C 10.375 -30.300781 10.003906 -29.414062 9.265625 -28.6875 C 8.535156 -27.957031 7.632812 -27.59375 6.5625 -27.59375 Z M 6.5625 -27.59375 "></path></g></g></g><g fill="#000000" fill-opacity="1"><g transform="translate(82.525578, 134.168371)"><g><path d="M 13.0625 0.40625 C 10.519531 0.40625 8.390625 -0.171875 6.671875 -1.328125 C 4.960938 -2.492188 3.695312 -4.007812 2.875 -5.875 C 2.0625 -7.738281 1.65625 -9.742188 1.65625 -11.890625 C 1.65625 -14.035156 2.0625 -16.039062 2.875 -17.90625 C 3.695312 -19.769531 4.960938 -21.273438 6.671875 -22.421875 C 8.390625 -23.566406 10.519531 -24.140625 13.0625 -24.140625 C 16.21875 -24.140625 18.726562 -23.226562 20.59375 -21.40625 C 22.457031 -19.59375 23.597656 -17.285156 24.015625 -14.484375 L 17.21875 -14.484375 C 17.039062 -15.710938 16.609375 -16.695312 15.921875 -17.4375 C 15.234375 -18.1875 14.304688 -18.5625 13.140625 -18.5625 C 11.472656 -18.5625 10.28125 -17.910156 9.5625 -16.609375 C 8.851562 -15.316406 8.5 -13.742188 8.5 -11.890625 C 8.5 -10.015625 8.851562 -8.425781 9.5625 -7.125 C 10.28125 -5.832031 11.472656 -5.1875 13.140625 -5.1875 C 14.304688 -5.1875 15.234375 -5.566406 15.921875 -6.328125 C 16.609375 -7.085938 17.039062 -8.0625 17.21875 -9.25 L 24.015625 -9.25 C 23.597656 -6.445312 22.460938 -4.132812 20.609375 -2.3125 C 18.765625 -0.5 16.25 0.40625 13.0625 0.40625 Z M 13.0625 0.40625 "></path></g></g></g><g fill="#000000" fill-opacity="1"><g transform="translate(108.100392, 134.168371)"><g><path d="M 3.125 -23.65625 L 10.0625 -23.65625 L 10.0625 0 L 3.125 0 Z M 6.5625 -27.59375 C 5.488281 -27.59375 4.59375 -27.957031 3.875 -28.6875 C 3.164062 -29.414062 2.8125 -30.300781 2.8125 -31.34375 C 2.8125 -32.414062 3.164062 -33.316406 3.875 -34.046875 C 4.59375 -34.785156 5.488281 -35.15625 6.5625 -35.15625 C 7.632812 -35.15625 8.535156 -34.785156 9.265625 -34.046875 C 10.003906 -33.316406 10.375 -32.414062 10.375 -31.34375 C 10.375 -30.300781 10.003906 -29.414062 9.265625 -28.6875 C 8.535156 -27.957031 7.632812 -27.59375 6.5625 -27.59375 Z M 6.5625 -27.59375 "></path></g></g></g><g fill="#000000" fill-opacity="1"><g transform="translate(121.290197, 134.168371)"><g><path d="M 10.59375 0.40625 C 7.675781 0.40625 5.421875 -0.703125 3.828125 -2.921875 C 2.234375 -5.148438 1.4375 -8.125 1.4375 -11.84375 C 1.4375 -15.601562 2.253906 -18.59375 3.890625 -20.8125 C 5.523438 -23.03125 7.789062 -24.140625 10.6875 -24.140625 C 12.6875 -24.140625 14.222656 -23.703125 15.296875 -22.828125 C 16.367188 -21.953125 17.113281 -21.066406 17.53125 -20.171875 L 17.890625 -20.171875 L 17.890625 -23.65625 L 24.90625 -23.65625 L 24.90625 0 L 17.890625 0 L 17.890625 -3.796875 L 17.53125 -3.796875 C 17.082031 -2.847656 16.3125 -1.910156 15.21875 -0.984375 C 14.132812 -0.0546875 12.59375 0.40625 10.59375 0.40625 Z M 13.234375 -5.1875 C 14.816406 -5.1875 15.992188 -5.847656 16.765625 -7.171875 C 17.546875 -8.503906 17.9375 -10.078125 17.9375 -11.890625 C 17.9375 -13.679688 17.546875 -15.238281 16.765625 -16.5625 C 15.992188 -17.894531 14.816406 -18.5625 13.234375 -18.5625 C 11.597656 -18.5625 10.398438 -17.910156 9.640625 -16.609375 C 8.878906 -15.316406 8.5 -13.757812 8.5 -11.9375 C 8.5 -10.09375 8.878906 -8.503906 9.640625 -7.171875 C 10.398438 -5.847656 11.597656 -5.1875 13.234375 -5.1875 Z M 13.234375 -5.1875 "></path></g></g></g><g fill="#000000" fill-opacity="1"><g transform="translate(148.832314, 134.168371)"><g><path d="M 10.328125 0.140625 C 7.972656 0.140625 6.234375 -0.21875 5.109375 -0.9375 C 3.992188 -1.65625 3.300781 -2.519531 3.03125 -3.53125 C 2.769531 -4.539062 2.640625 -5.835938 2.640625 -7.421875 L 2.6875 -33.53125 L 9.609375 -33.53125 L 9.609375 -8.859375 C 9.609375 -7.816406 9.660156 -7.03125 9.765625 -6.5 C 9.867188 -5.976562 10.164062 -5.566406 10.65625 -5.265625 C 11.15625 -4.972656 11.941406 -4.828125 13.015625 -4.828125 C 13.578125 -4.828125 13.960938 -4.859375 14.171875 -4.921875 L 14.171875 -0.09375 C 12.828125 0.0625 11.546875 0.140625 10.328125 0.140625 Z M 10.328125 0.140625 "></path></g></g></g><g fill="#000000" fill-opacity="1"><g transform="translate(164.525949, 134.168371)"><g></g></g></g><g fill="#000000" fill-opacity="1"><g transform="translate(174.809526, 134.168371)"><g><path d="M 13.90625 0.40625 C 11.40625 0.40625 9.238281 -0.0820312 7.40625 -1.0625 C 5.570312 -2.050781 4.179688 -3.34375 3.234375 -4.9375 C 2.296875 -6.53125 1.828125 -8.191406 1.828125 -9.921875 L 1.828125 -10.28125 L 9.484375 -10.28125 L 9.484375 -9.96875 C 9.484375 -8.894531 9.867188 -7.910156 10.640625 -7.015625 C 11.421875 -6.117188 12.554688 -5.671875 14.046875 -5.671875 C 15.328125 -5.671875 16.351562 -6 17.125 -6.65625 C 17.90625 -7.3125 18.296875 -8.175781 18.296875 -9.25 C 18.296875 -10.207031 17.953125 -10.976562 17.265625 -11.5625 C 16.578125 -12.144531 15.738281 -12.539062 14.75 -12.75 L 11.171875 -13.453125 C 9.085938 -13.929688 7.132812 -14.828125 5.3125 -16.140625 C 3.5 -17.453125 2.59375 -19.597656 2.59375 -22.578125 C 2.59375 -24.515625 3.0625 -26.179688 4 -27.578125 C 4.9375 -28.984375 6.238281 -30.054688 7.90625 -30.796875 C 9.582031 -31.546875 11.476562 -31.921875 13.59375 -31.921875 C 16.007812 -31.921875 18.097656 -31.457031 19.859375 -30.53125 C 21.617188 -29.613281 22.941406 -28.414062 23.828125 -26.9375 C 24.722656 -25.46875 25.171875 -23.925781 25.171875 -22.3125 L 25.171875 -22.09375 L 17.53125 -22.09375 L 17.53125 -22.21875 C 17.53125 -23.175781 17.191406 -24.0625 16.515625 -24.875 C 15.847656 -25.695312 14.785156 -26.109375 13.328125 -26.109375 C 12.191406 -26.109375 11.285156 -25.796875 10.609375 -25.171875 C 9.941406 -24.546875 9.609375 -23.726562 9.609375 -22.71875 C 9.609375 -21.726562 9.976562 -20.953125 10.71875 -20.390625 C 11.46875 -19.828125 12.367188 -19.441406 13.421875 -19.234375 L 17.03125 -18.421875 C 19.394531 -17.910156 21.410156 -16.953125 23.078125 -15.546875 C 24.742188 -14.148438 25.578125 -12.113281 25.578125 -9.4375 C 25.578125 -7.46875 25.066406 -5.738281 24.046875 -4.25 C 23.035156 -2.757812 21.644531 -1.609375 19.875 -0.796875 C 18.101562 0.00390625 16.113281 0.40625 13.90625 0.40625 Z M 13.90625 0.40625 "></path></g></g></g><g fill="#000000" fill-opacity="1"><g transform="translate(201.859803, 134.168371)"><g><path d="M 11.9375 -18.25 L 11.9375 -8.765625 C 11.9375 -7.722656 11.988281 -6.953125 12.09375 -6.453125 C 12.195312 -5.960938 12.492188 -5.566406 12.984375 -5.265625 C 13.484375 -4.972656 14.285156 -4.828125 15.390625 -4.828125 C 15.953125 -4.828125 16.53125 -4.890625 17.125 -5.015625 L 17.125 -0.171875 C 16.832031 -0.117188 16.238281 -0.0546875 15.34375 0.015625 C 14.445312 0.0976562 13.550781 0.140625 12.65625 0.140625 C 10.332031 0.140625 8.609375 -0.203125 7.484375 -0.890625 C 6.367188 -1.578125 5.675781 -2.410156 5.40625 -3.390625 C 5.144531 -4.378906 5.015625 -5.664062 5.015625 -7.25 L 5.015625 -18.25 L 1.203125 -18.25 L 1.203125 -23.65625 L 5.015625 -23.65625 L 5.015625 -31.296875 L 11.9375 -31.296875 L 11.9375 -23.65625 L 17.125 -23.65625 L 17.125 -18.25 Z M 11.9375 -18.25 "></path></g></g></g><g fill="#000000" fill-opacity="1"><g transform="translate(221.085623, 134.168371)"><g><path d="M 13.0625 0.40625 C 10.550781 0.40625 8.4375 -0.144531 6.71875 -1.25 C 5.007812 -2.351562 3.738281 -3.828125 2.90625 -5.671875 C 2.070312 -7.523438 1.65625 -9.582031 1.65625 -11.84375 C 1.65625 -14.082031 2.070312 -16.132812 2.90625 -18 C 3.738281 -19.863281 5.007812 -21.351562 6.71875 -22.46875 C 8.4375 -23.582031 10.550781 -24.140625 13.0625 -24.140625 C 15.5625 -24.140625 17.664062 -23.585938 19.375 -22.484375 C 21.09375 -21.390625 22.367188 -19.910156 23.203125 -18.046875 C 24.046875 -16.179688 24.46875 -14.128906 24.46875 -11.890625 C 24.46875 -9.660156 24.046875 -7.613281 23.203125 -5.75 C 22.367188 -3.882812 21.09375 -2.390625 19.375 -1.265625 C 17.664062 -0.148438 15.5625 0.40625 13.0625 0.40625 Z M 13.0625 -5.1875 C 14.613281 -5.1875 15.757812 -5.828125 16.5 -7.109375 C 17.25 -8.390625 17.625 -10 17.625 -11.9375 C 17.625 -13.875 17.25 -15.460938 16.5 -16.703125 C 15.757812 -17.941406 14.613281 -18.5625 13.0625 -18.5625 C 11.507812 -18.5625 10.359375 -17.929688 9.609375 -16.671875 C 8.867188 -15.421875 8.5 -13.84375 8.5 -11.9375 C 8.5 -10 8.878906 -8.390625 9.640625 -7.109375 C 10.398438 -5.828125 11.539062 -5.1875 13.0625 -5.1875 Z M 13.0625 -5.1875 "></path></g></g></g><g fill="#000000" fill-opacity="1"><g transform="translate(247.196975, 134.168371)"><g><path d="M 2.546875 -23.65625 L 9.484375 -23.65625 L 9.484375 -19.90625 L 9.84375 -19.90625 C 10.195312 -20.945312 10.898438 -21.832031 11.953125 -22.5625 C 13.015625 -23.289062 14.394531 -23.65625 16.09375 -23.65625 C 16.601562 -23.65625 17.082031 -23.609375 17.53125 -23.515625 L 17.21875 -17.125 C 16.53125 -17.363281 15.738281 -17.484375 14.84375 -17.484375 C 12.96875 -17.484375 11.601562 -17.003906 10.75 -16.046875 C 9.90625 -15.097656 9.484375 -13.519531 9.484375 -11.3125 L 9.484375 0 L 2.546875 0 Z M 2.546875 -23.65625 "></path></g></g></g><g fill="#000000" fill-opacity="1"><g transform="translate(265.03674, 134.168371)"><g><path d="M 13.015625 0.40625 C 10.503906 0.40625 8.390625 -0.164062 6.671875 -1.3125 C 4.960938 -2.46875 3.695312 -3.972656 2.875 -5.828125 C 2.0625 -7.691406 1.65625 -9.695312 1.65625 -11.84375 C 1.65625 -13.988281 2.0625 -15.992188 2.875 -17.859375 C 3.695312 -19.722656 4.960938 -21.234375 6.671875 -22.390625 C 8.390625 -23.554688 10.535156 -24.140625 13.109375 -24.140625 C 16.441406 -24.140625 19.09375 -23.085938 21.0625 -20.984375 C 23.03125 -18.890625 24.015625 -15.84375 24.015625 -11.84375 L 24.015625 -9.921875 L 8.359375 -9.921875 L 8.359375 -9.5625 C 8.359375 -8.34375 8.78125 -7.289062 9.625 -6.40625 C 10.476562 -5.53125 11.5625 -5.09375 12.875 -5.09375 C 13.894531 -5.09375 14.757812 -5.320312 15.46875 -5.78125 C 16.1875 -6.25 16.695312 -6.867188 17 -7.640625 L 23.828125 -7.640625 C 23.234375 -5.285156 22.003906 -3.351562 20.140625 -1.84375 C 18.273438 -0.34375 15.898438 0.40625 13.015625 0.40625 Z M 17.34375 -14.40625 C 17.320312 -16.007812 16.914062 -17.195312 16.125 -17.96875 C 15.332031 -18.75 14.28125 -19.140625 12.96875 -19.140625 C 11.625 -19.140625 10.554688 -18.722656 9.765625 -17.890625 C 8.984375 -17.054688 8.578125 -15.894531 8.546875 -14.40625 Z M 17.34375 -14.40625 "></path></g></g></g></svg> 