<?xml version="1.0" encoding="UTF-8"?> <svg xmlns="http://www.w3.org/2000/svg" id="Layer_2" data-name="Layer 2" viewBox="0 0 2593.33 882.68" width="160" height="60"><defs><style> .cls-1, .cls-2, .cls-3 { fill-rule: evenodd; } .cls-1, .cls-4 { fill: #368385; } .cls-5, .cls-3 { fill: #949280; } .cls-2, .cls-6 { fill: #231f20; } </style></defs><g id="Layer_1-2" data-name="Layer 1"><path class="cls-4" d="m1291.4,388.8c0-6.52-1.37-12.14-4.1-16.75-2.74-4.65-6.59-8.11-11.57-10.34-4.97-2.27-10.63-3.39-17.04-3.39h-39.27v61.18h39.27c6.49,0,12.18-1.15,17.08-3.49,4.94-2.31,8.79-5.8,11.53-10.41,2.74-4.65,4.1-10.23,4.1-16.79m16.43,0c0,6.95-1.12,13.19-3.39,18.7-2.23,5.47-5.51,10.23-9.76,14.3-4.25,4.03-9.37,7.13-15.31,9.22-5.94,2.13-12.32,3.17-19.06,3.17h-40.89v63.33h-16.43v-153.9h57.32c6.99,0,13.36,1.04,19.24,3.1,5.84,2.09,10.88,5.15,15.13,9.19,4.25,4.07,7.53,8.83,9.76,14.27,2.27,5.44,3.39,11.67,3.39,18.63Zm-138.39,31.77c0-9.87-.1-17.19-.32-21.98-.22-4.76-.65-9.04-1.37-12.82-.68-3.75-1.77-7.03-3.21-9.84-1.44-2.84-3.39-5.48-5.87-7.92-3.42-3.53-7.49-6.23-12.1-8.14-4.65-1.91-9.48-2.85-14.45-2.85s-9.91.94-14.52,2.81c-4.61,1.84-8.65,4.57-12.07,8.18-4.72,4.87-7.71,10.63-8.97,17.36-1.26,6.7-1.91,18.45-1.91,35.2s.65,28.39,1.91,35.09c1.26,6.74,4.25,12.54,8.97,17.47,3.42,3.46,7.46,6.16,12.07,8.07,4.61,1.94,9.44,2.91,14.52,2.91s9.8-.97,14.45-2.91c4.61-1.91,8.68-4.62,12.1-8.07,2.48-2.59,4.43-5.3,5.87-8.1,1.44-2.85,2.52-6.13,3.21-9.87.72-3.78,1.15-8.03,1.37-12.79.22-4.76.32-12,.32-21.79Zm16.43,0c0,13.15-.22,23.02-.68,29.5-.47,6.52-1.73,12.5-3.85,17.98-2.13,5.44-5.44,10.37-10.02,14.81-10.63,10.62-23.7,15.96-39.27,15.96s-28.75-5.33-39.38-15.96c-3.71-3.78-6.52-7.53-8.39-11.24-1.84-3.67-3.24-8-4.14-12.93-.94-4.94-1.48-9.98-1.66-15.17-.18-5.15-.25-12.82-.25-22.95,0-13.15.22-23.02.69-29.51.47-6.52,1.69-12.46,3.75-17.8,2.05-5.37,5.37-10.34,10.01-14.99,10.62-10.63,23.74-15.96,39.38-15.96s28.64,5.33,39.27,15.96c4.58,4.43,7.89,9.37,10.02,14.81,2.12,5.48,3.38,11.46,3.85,17.97.47,6.48.68,16.36.68,29.51Zm-108.96-62.26h-44.56v139.2h-16.43v-139.2h-44.56v-14.7h105.55v14.7Z"></path><path class="cls-6" d="m1768.93,497.52h-16.43v-116.93l-42.22,92.76h-14.01l-42.77-92.76v116.93h-16.43v-153.9h16.43l50.15,109.16,48.85-109.16h16.43v153.9Zm-169.77-49.07l-28.5-81.27-29.04,81.27h57.53Zm34.62,49.07h-17.51l-12.36-34.8h-67.26l-12.35,34.8h-17.4l56.59-153.9h13.8l56.49,153.9Zm-119.91,0h-95.5v-153.9h95.5v14.7h-79.08v54.26h67.48v14.7h-67.48v55.55h79.08v14.7Zm-102.65-139.2h-44.56v139.2h-16.43v-139.2h-44.56v-14.7h105.56v14.7Z"></path><path class="cls-5" d="m2593.33,441.39c0,8.79-1.04,16.36-3.1,22.7-2.09,6.34-5.44,12-10.09,17-5.22,5.62-11.31,9.98-18.26,13.08-6.96,3.1-14.41,4.65-22.37,4.65-15.64,0-28.75-5.33-39.38-15.96-3.71-3.78-6.52-7.53-8.39-11.24-1.84-3.67-3.24-8-4.14-12.93-.94-4.94-1.48-9.98-1.66-15.17-.18-5.15-.25-12.82-.25-22.95,0-13.15.22-23.02.69-29.51.47-6.52,1.69-12.46,3.75-17.8,2.05-5.37,5.4-10.34,10.01-14.99,10.63-10.63,23.77-15.96,39.38-15.96,6.34,0,12.14.76,17.44,2.27,5.26,1.52,10.12,3.78,14.63,6.81,4.47,3.03,9.11,6.99,13.98,11.85l-11.06,11.06c-4.29-4.29-8-7.57-11.13-9.91-3.14-2.31-6.66-4.14-10.59-5.44-3.96-1.3-8.36-1.95-13.18-1.95-5.08,0-9.91.94-14.52,2.81-4.61,1.84-8.65,4.57-12.07,8.18-4.72,4.87-7.71,10.63-8.97,17.36-1.26,6.7-1.91,18.45-1.91,35.2s.65,28.5,1.91,35.27c1.26,6.74,4.25,12.57,8.97,17.51,6.95,7.17,15.82,10.77,26.59,10.77,5.69,0,11.02-1.15,16.06-3.42,5.04-2.3,9.29-5.55,12.83-9.76,5.62-6.66,8.43-16.03,8.43-28.06v-11.49h-37.32v-14.48h53.75v24.49Zm-124.81,56.13h-15.56l-81.71-123.39v123.39h-16.43v-153.9h15.49l81.78,122.99v-122.99h16.43v153.9Zm-136.73,0h-16.43v-153.9h16.43v153.9Zm-49.98-78.64c0-8.36-.18-15.31-.54-20.78-.33-5.48-1.23-10.74-2.67-15.78-1.44-5.01-3.75-9.26-6.92-12.72-7.35-7.53-17.43-11.28-30.33-11.28h-33.47v124.51h33.47c12.9,0,22.98-3.75,30.33-11.28,4.5-4.87,7.31-11.57,8.43-20.07,1.12-8.5,1.69-19.38,1.69-32.6Zm16.43,0v6.45c0,8.36-.29,15.89-.9,22.52-.57,6.67-2.01,13.15-4.21,19.45-2.23,6.27-5.58,11.6-10.09,15.96-4.65,4.65-10.3,8.18-16.97,10.63-6.7,2.41-13.98,3.64-21.87,3.64h-52.74v-153.9h52.74c16.39,0,29.36,4.76,38.84,14.27,4.5,4.43,7.85,9.55,10.09,15.35,2.2,5.8,3.64,11.78,4.21,17.94.61,6.16.9,13.29.9,21.36v6.34Zm-114.11,78.64h-95.03v-153.9h16.43v139.2h78.61v14.7Zm-118.07,0h-16.43v-153.9h16.43v153.9Zm-37.3-50.76c0,7.67-1.33,14.66-3.96,20.97-2.63,6.3-6.34,11.78-11.13,16.43-4.79,4.65-10.52,8.25-17.18,10.81-6.7,2.56-13.87,3.85-21.54,3.85s-14.7-1.26-21.25-3.82c-6.59-2.53-12.32-6.13-17.26-10.81-4.93-4.68-8.68-10.16-11.24-16.46-2.56-6.3-3.85-13.29-3.85-20.97v-103.14h16.43v101.77c0,7.78,1.51,14.59,4.57,20.43,3.06,5.8,7.42,10.3,13.08,13.51,5.69,3.2,12.18,4.79,19.49,4.79s13.91-1.58,19.6-4.79c5.69-3.21,10.09-7.78,13.18-13.69,3.1-5.91,4.65-12.64,4.65-20.25v-101.77h16.43v103.14Zm-138.86,7.71c0-5.76-1.26-10.73-3.75-14.95-2.48-4.18-6.09-7.38-10.77-9.69-4.68-2.27-10.16-3.42-16.43-3.42h-41.9v56.42h41.9c9.51,0,17.04-2.56,22.59-7.71,5.58-5.11,8.36-12,8.36-20.64Zm-2.38-69.57c0-8.86-2.77-15.53-8.28-19.96-5.55-4.43-12.83-6.63-21.94-6.63h-40.24v53.39h40.24c9.05,0,16.32-2.27,21.87-6.81,5.58-4.54,8.36-11.2,8.36-19.99Zm18.8,70.07c0,9.22-1.91,17-5.69,23.34-3.82,6.34-9.15,11.1-16.07,14.34-6.88,3.24-14.91,4.86-24.06,4.86h-59.87v-153.9h57.93c6.63,0,12.79.94,18.52,2.85,5.77,1.91,10.56,4.61,14.41,8.07,3.89,3.5,6.92,7.82,9.15,12.94,2.2,5.15,3.31,10.88,3.31,17.22,0,5.33-.97,10.3-2.95,14.84-1.95,4.54-4.68,8.43-8.1,11.67-3.46,3.21-7.31,5.62-11.6,7.17,5.01,1.84,9.36,4.47,13.11,7.92,3.71,3.42,6.63,7.6,8.76,12.54,2.13,4.94,3.17,10.3,3.17,16.14Z"></path><path class="cls-1" d="m252.79,250.72l115.08-69.8c15.21-9.22,37.23-16.09,52.82-7.54l137.71,75.46-116.96,71.69c-19.84,12.16-49.87,13.91-69.8,1.89l-118.85-71.69Z"></path><path class="cls-2" d="m120.74,229.97l254.68-154.69c16.69-10.14,41.59-6.03,58.48,3.77l247.13,143.37c15.57,9.04,26.81,43.65,11.32,52.82l-245.24,145.26c-23.27,13.78-57.76,15.52-81.12,1.89l-249.02-145.26c-13.62-7.95-9.71-38.97,3.77-47.16M0,292.23s8.53-88.33,88.67-133.94L333.91,18.69c38.82-22.09,95.28-26.14,133.94-3.78l264.11,152.81c61.11,35.36,64.82,79.32,66.02,160.35l3.77,254.68c.74,50.11-17.52,111.72-60.37,137.71l-167.9,101.87v-94.32l115.08-73.57c26.09-16.68,37.73-53.93,37.73-84.89v-166.01c0-42.37-3.93-58.41-45.27-33.96l-216.95,128.28c-30.48,18.02-75.35,29.66-105.65,11.32L0,292.23Z"></path><path class="cls-3" d="m573.49,622.36v-77.35l56.6-39.62c4.27-2.99,9.05,7.54,9.05,12.75v48.22c0,8.2-4.83,17.23-11.75,21.63l-53.9,34.36Z"></path><path class="cls-2" d="m.26,488.06v-89.19l112.04,67.82c30.86,18.68,44.8,42.6,44.97,89.19l.74,213.08-74.12-42.1v-168.77c0-18.68-1.08-28.29-18.02-36.85L.26,488.06Z"></path><path class="cls-2" d="m321.65,862.52l-76.66-43.9v-242.84c0-11.23,21.4-19.15,30.96-13.27l86.25,53.08c20.34,12.51,50.15,15.1,71.5,4.42l17.69-8.84c11.09-5.54,28.75,11.19,28.75,23.59v237.36c-6.14,12.53-39.83,13.84-56.02,4.42-14.17-8.24-16.22-30.04-16.22-46.44v-117.94c-27.46-2.53-56.83-12.96-86.25-39.07v189.45Z"></path></g></svg> 