<svg width="80" height="55" viewBox="0 0 80 55" fill="none" xmlns="http://www.w3.org/2000/svg">
<g clip-path="url(#clip0_766_39317)">
<path d="M51.3546 40.3862C53.9911 37.2751 55.318 33.2706 55.0582 29.209C54.7984 25.1474 52.9722 21.3427 49.9606 18.5893C46.9491 15.836 42.9852 14.347 38.8968 14.4332C34.8083 14.5195 30.9114 16.1743 28.0198 19.0521C25.1282 21.9299 23.4654 25.8082 23.3788 29.8771C23.2922 33.9461 24.7883 37.891 27.5549 40.8882C30.3214 43.8853 34.1444 45.7029 38.2255 45.9614C42.3066 46.2199 46.3303 44.8994 49.4563 42.2755L54.515 47.3107C54.7668 47.5613 55.1083 47.7021 55.4645 47.7021C55.8206 47.7021 56.1621 47.5613 56.4139 47.3107C56.6657 47.06 56.8072 46.7201 56.8072 46.3657C56.8072 46.0113 56.6657 45.6714 56.4139 45.4207L51.3546 40.3862ZM26.1102 30.2362C26.1062 28.0948 26.6303 25.9851 27.6367 24.0923C28.643 22.1995 30.1008 20.5814 31.882 19.38C33.6633 18.1787 35.7135 17.4308 37.8529 17.2021C39.9923 16.9733 42.1554 17.2705 44.1524 18.0678C46.1495 18.8651 47.9194 20.138 49.3068 21.7749C50.6942 23.4117 51.6567 25.3624 52.1099 27.4558C52.5631 29.5492 52.4931 31.7213 51.9061 33.7815C51.319 35.8417 50.2329 37.727 48.743 39.272C48.5785 39.3749 48.4395 39.5133 48.3361 39.6769C46.4786 41.4531 44.1371 42.6462 41.6032 43.1076C39.0694 43.5691 36.455 43.2786 34.0858 42.2723C31.7166 41.2659 29.6973 39.5882 28.2791 37.4481C26.8609 35.3079 26.1067 32.7999 26.1102 30.2362Z" fill="#6D7280"/>
<path d="M39.2525 21.4408C39.0762 21.4407 38.9015 21.4752 38.7385 21.5423C38.5756 21.6095 38.4275 21.7079 38.3028 21.832C38.1781 21.9561 38.0793 22.1035 38.0118 22.2656C37.9444 22.4278 37.9097 22.6016 37.9098 22.7771V35.4655C37.9098 35.82 38.0512 36.1598 38.303 36.4104C38.5548 36.661 38.8964 36.8018 39.2525 36.8018C39.6086 36.8018 39.9501 36.661 40.2019 36.4104C40.4537 36.1598 40.5952 35.82 40.5952 35.4655V22.7771C40.5952 22.4227 40.4537 22.0828 40.2019 21.8322C39.9501 21.5816 39.6086 21.4408 39.2525 21.4408Z" fill="#6D7280"/>
<path d="M44.8528 24.9302C44.6765 24.9301 44.5018 24.9646 44.3389 25.0317C44.176 25.0988 44.0278 25.1973 43.9031 25.3214C43.7784 25.4455 43.6796 25.5928 43.6121 25.755C43.5447 25.9172 43.51 26.091 43.5101 26.2665V35.4655C43.5101 35.8199 43.6516 36.1598 43.9034 36.4104C44.1552 36.661 44.4967 36.8018 44.8528 36.8018C45.2089 36.8018 45.5504 36.661 45.8022 36.4104C46.0541 36.1598 46.1955 35.8199 46.1955 35.4655V26.2665C46.1955 25.9121 46.0541 25.5722 45.8022 25.3216C45.5504 25.071 45.2089 24.9302 44.8528 24.9302Z" fill="#6D7280"/>
<path d="M33.909 28.7373C33.553 28.7375 33.2115 28.8783 32.9597 29.1289C32.708 29.3795 32.5665 29.7192 32.5663 30.0736V35.4662C32.5663 35.8206 32.7078 36.1605 32.9596 36.4111C33.2114 36.6617 33.5529 36.8025 33.909 36.8025C34.2651 36.8025 34.6067 36.6617 34.8585 36.4111C35.1103 36.1605 35.2517 35.8206 35.2517 35.4662V30.0736C35.2517 29.7192 35.1103 29.3793 34.8585 29.1287C34.6067 28.8781 34.2651 28.7373 33.909 28.7373Z" fill="#6D7280"/>
<path d="M77.7198 0H1.34274C0.986635 0 0.645114 0.140788 0.393308 0.391392C0.141502 0.641996 0 0.981886 0 1.33629V53.6618C0 54.0162 0.141502 54.3561 0.393308 54.6067C0.645114 54.8573 0.986635 54.9981 1.34274 54.9981H77.7198C78.0759 54.9981 78.4174 54.8573 78.6692 54.6067C78.9211 54.3561 79.0625 54.0162 79.0625 53.6618V1.33629C79.0625 0.981886 78.9211 0.641996 78.6692 0.391392C78.4174 0.140788 78.0759 0 77.7198 0ZM76.3771 2.67322V8.41068H2.68541V2.67322H76.3771ZM2.68541 52.3274V11.0845H76.3771V52.3287L2.68541 52.3274Z" fill="#6D7280"/>
</g>
<defs>
<clipPath id="clip0_766_39317">
<rect width="79.0625" height="55" fill="white"/>
</clipPath>
</defs>
</svg>
