<svg width="65" height="60" viewBox="0 0 65 60" fill="none" xmlns="http://www.w3.org/2000/svg">
<g clip-path="url(#clip0_1007_58089)">
<path d="M13.5293 25.0974C16.0066 25.0974 18.4283 24.3614 20.4881 22.9824C22.5479 21.6034 24.1533 19.6434 25.1014 17.3502C26.0494 15.057 26.2974 12.5337 25.8141 10.0992C25.3308 7.66479 24.1378 5.4286 22.3861 3.67347C20.6344 1.91834 18.4027 0.723067 15.973 0.238827C13.5433 -0.245412 11.0248 0.00312199 8.73604 0.952993C6.44732 1.90286 4.4912 3.51141 3.11489 5.57523C1.73858 7.63905 1.00391 10.0655 1.00391 12.5476C1.00727 15.875 2.32804 19.0651 4.67628 21.418C7.02452 23.7708 10.2084 25.0941 13.5293 25.0974ZM13.5293 2.44288C15.5242 2.44288 17.4743 3.03562 19.133 4.14609C20.7916 5.25656 22.0844 6.83489 22.8478 8.68153C23.6111 10.5282 23.8108 12.5602 23.4216 14.5205C23.0324 16.4809 22.0717 18.2816 20.6611 19.6949C19.2505 21.1082 17.4532 22.0706 15.4967 22.4604C13.5401 22.8503 11.5121 22.6501 9.66908 21.8851C7.82609 21.1202 6.25094 19.8248 5.14273 18.1628C4.03452 16.5008 3.44312 14.5469 3.44323 12.5482C3.44629 9.86891 4.50985 7.30029 6.40072 5.40583C8.29159 3.51137 10.8553 2.44579 13.5293 2.44288Z" fill="#6D7280"/>
<path d="M51.4982 42.0231C49.8068 42.0231 48.1534 42.5256 46.7471 43.4671C45.3407 44.4087 44.2445 45.7469 43.5972 47.3126C42.95 48.8783 42.7807 50.6012 43.1106 52.2633C43.4406 53.9255 44.255 55.4523 45.451 56.6506C46.647 57.849 48.1709 58.665 49.8298 58.9957C51.4887 59.3263 53.2083 59.1566 54.7709 58.508C56.3336 57.8595 57.6692 56.7612 58.6089 55.3521C59.5486 53.943 60.0501 52.2864 60.0501 50.5917C60.0475 48.3199 59.1458 46.142 57.5425 44.5356C55.9393 42.9292 53.7655 42.0257 51.4982 42.0231ZM51.4982 56.7174C50.289 56.7174 49.107 56.3582 48.1016 55.685C47.0962 55.0119 46.3126 54.0552 45.8498 52.9359C45.3871 51.8166 45.266 50.5849 45.5019 49.3966C45.7378 48.2083 46.32 47.1168 47.175 46.2601C48.0301 45.4034 49.1195 44.82 50.3054 44.5836C51.4914 44.3473 52.7207 44.4686 53.8379 44.9323C54.955 45.3959 55.9098 46.181 56.5816 47.1884C57.2534 48.1958 57.612 49.3801 57.612 50.5917C57.6108 52.2159 56.9662 53.7733 55.8199 54.9219C54.6736 56.0704 53.1193 56.7162 51.4982 56.7174Z" fill="#6D7280"/>
<path d="M35.8902 57.2772C34.6374 57.4635 33.3727 57.557 32.1061 57.5571C25.6571 57.5485 19.4503 55.0953 14.7322 50.6902C10.0142 46.2851 7.13445 40.2544 6.67146 33.8095L8.96296 35.7701C9.08473 35.8742 9.22582 35.9533 9.37811 36.0029C9.5304 36.0524 9.69086 36.0715 9.85047 36.0588C10.0101 36.0462 10.1657 36.0022 10.3083 35.9294C10.451 35.8565 10.5779 35.7562 10.6819 35.6342C10.7859 35.5122 10.8648 35.3708 10.9143 35.2183C10.9637 35.0657 10.9827 34.9048 10.9701 34.7449C10.9575 34.5849 10.9136 34.4291 10.8409 34.2862C10.7681 34.1432 10.668 34.016 10.5462 33.9119L6.17331 30.1706C5.93723 29.969 5.63329 29.865 5.32342 29.8798C5.01355 29.8946 4.72093 30.0272 4.5051 30.2504L0.342885 34.5625C0.231572 34.6778 0.144089 34.8139 0.0852828 34.9631C0.0264768 35.1123 -0.00248602 35.2716 0.000167115 35.432C0.00552537 35.7559 0.139108 36.0645 0.371491 36.2897C0.603875 36.515 0.915995 36.6385 1.23928 36.6331C1.56256 36.6277 1.87056 36.4939 2.09537 36.2611L4.24425 34.0362C4.76333 41.0876 7.92298 47.6819 13.0899 52.4975C18.2569 57.3131 25.0494 59.9942 32.1061 60.0035C33.4926 60.0031 34.8772 59.9008 36.2487 59.6976C36.5686 59.6499 36.8564 59.4769 37.049 59.2166C37.2416 58.9563 37.3232 58.63 37.2756 58.3095C37.2281 57.989 37.0554 57.7006 36.7956 57.5077C36.5359 57.3147 36.2101 57.2331 35.8902 57.2807V57.2772Z" fill="#6D7280"/>
<path d="M64.8346 32.4551C64.7542 32.3164 64.6472 32.1949 64.5198 32.0977C64.3925 32.0004 64.2472 31.9293 64.0924 31.8883C63.9376 31.8473 63.7763 31.8373 63.6176 31.8588C63.459 31.8804 63.306 31.9331 63.1677 32.0138L59.9826 33.8714C60.0236 33.248 60.0495 32.6234 60.0495 32.0017C60.0413 24.5786 57.0946 17.4619 51.8559 12.213C46.6172 6.96406 39.5144 4.01156 32.1058 4.0033C31.7825 4.0033 31.4724 4.13198 31.2438 4.36105C31.0152 4.59011 30.8867 4.90079 30.8867 5.22474C30.8867 5.54869 31.0152 5.85937 31.2438 6.08843C31.4724 6.3175 31.7825 6.44618 32.1058 6.44618C38.868 6.45369 45.3511 9.14856 50.1327 13.9395C54.9143 18.7305 57.604 25.2263 57.6115 32.0017C57.6115 32.613 57.5826 33.2266 57.5388 33.8379L54.4218 30.7727C54.1909 30.5459 53.8797 30.4202 53.5564 30.4234C53.233 30.4265 52.9242 30.5582 52.6978 30.7895C52.4713 31.0208 52.3458 31.3328 52.349 31.6567C52.3521 31.9807 52.4837 32.2901 52.7145 32.517L57.4273 37.1489C57.6178 37.3364 57.8646 37.456 58.1297 37.4893C58.3947 37.5225 58.6632 37.4675 58.894 37.3328L64.3943 34.1248C64.6736 33.9618 64.8769 33.6944 64.9595 33.3813C65.0421 33.0682 64.9971 32.7351 64.8346 32.4551Z" fill="#6D7280"/>
</g>
<defs>
<clipPath id="clip0_1007_58089">
<rect width="65" height="60" fill="white"/>
</clipPath>
</defs>
</svg>
