<svg width="99" height="99" viewBox="0 0 99 99" fill="none" xmlns="http://www.w3.org/2000/svg">
<g clip-path="url(#clip0_766_39324)">
<path d="M38.5882 82.4653C38.4617 82.3386 38.3627 82.1874 38.2971 82.0208L33.9437 70.9653L32.3421 71.196L32.2726 71.2114L30.6495 71.4397L28.6002 71.7371C28.4002 71.7665 28.1961 71.7486 28.0043 71.6851C27.8124 71.6216 27.6382 71.5141 27.4953 71.3712C27.3524 71.2283 27.2448 71.054 27.1813 70.8621C27.1178 70.6703 27.0999 70.4662 27.1293 70.2662L27.4421 68.114L27.4556 68.0372L27.9092 64.9326L16.8397 60.567C16.6069 60.4751 16.4056 60.3179 16.2601 60.1142C16.1145 59.9106 16.0309 59.6693 16.0193 59.4193C16.0077 59.1693 16.0686 58.9213 16.1946 58.705C16.3206 58.4888 16.5064 58.3135 16.7297 58.2003C21.0176 56.0236 27.0146 53.4818 29.8038 53.4809C30.3631 53.4896 30.9216 53.5297 31.4764 53.601L31.9805 53.6601L32.2017 53.2025C33.9438 49.5865 40.3732 36.9632 49.966 26.3153C62.1781 12.7591 74.4146 7.83923 86.3352 11.6921C86.5305 11.7556 86.708 11.8644 86.8531 12.0096C86.9983 12.1548 87.1071 12.3323 87.1706 12.5275C91.0271 24.4509 86.111 36.6884 72.5607 48.901C61.9128 58.4964 49.2885 64.9267 45.6748 66.6702L45.2172 66.8913L45.2767 67.3959C45.3466 67.9513 45.3853 68.5101 45.3927 69.0698C45.3927 71.7777 43.0228 77.4503 40.8051 81.8552L40.7789 81.9075L40.7618 81.9617C40.6993 82.159 40.5899 82.3383 40.4428 82.4839C40.199 82.7269 39.8689 82.8633 39.5247 82.8633C39.1806 82.8633 38.8504 82.7268 38.6067 82.4838L38.5882 82.4653ZM32.4584 59.8607L32.0604 61.0567L31.6109 62.463L31.3329 63.3728L31.0608 64.2994L30.7962 65.2381C30.7362 65.4588 30.5516 66.1669 30.5516 66.1669C30.4943 66.393 30.3255 67.08 30.3255 67.08C30.2709 67.3088 30.2212 67.5317 30.1716 67.7529L29.9122 68.9259L31.8031 68.6595L31.8483 68.6496C34.6471 67.9259 37.4048 67.052 40.1096 66.0315L41.4099 65.5627L40.2743 64.7738C37.8515 63.1145 35.7573 61.0203 34.098 58.5975L33.297 57.4434L32.4584 59.8607ZM30.0412 56.0823L29.8191 56.0786C28.0603 56.0782 24.236 57.6263 22.1143 58.5484L20.5347 59.2344L28.8778 62.5226L29.1706 61.5753C29.2704 61.258 29.5492 60.3914 29.5492 60.3914C29.8137 59.5854 30.071 58.82 30.3156 58.116L30.9881 56.215L30.0412 56.0823ZM40.2554 68.7336C39.8119 68.8918 39.3621 69.0498 38.906 69.2075L38.1906 69.4552L37.093 69.8245L36.3755 70.0609L39.6362 78.3376L40.3236 76.7639C41.451 74.1851 42.7949 70.7568 42.7967 69.0707L42.7634 67.8279L40.2554 68.7336ZM46.2981 35.0704C41.9104 41.0376 38.0366 47.3662 34.7186 53.9882L34.558 54.3113L34.7236 54.6322C36.8219 58.7256 40.153 62.0567 44.2464 64.155L44.5678 64.3202L44.8909 64.1604C51.5125 60.8427 57.8403 56.9683 63.806 52.5792L64.6775 51.9316L63.7383 51.3886C56.9615 47.5273 51.3482 41.914 47.4868 35.1371L46.943 34.197L46.2981 35.0704ZM50.7787 29.4578C50.1731 30.1597 49.5811 30.8678 49.0028 31.5821L48.7077 31.9459L48.9248 32.3607C52.8295 39.903 58.976 46.0496 66.5184 49.9543L66.9336 50.1709L67.2974 49.8758C68.0108 49.2979 68.7191 48.7054 69.4222 48.0986L70.1881 47.4383L69.308 46.9382C62.0298 42.8583 56.0195 36.848 51.9396 29.5698L51.4391 28.6892L50.7787 29.4578ZM84.5097 13.859C74.5695 11.1398 64.1927 15.3171 53.6685 26.2773L53.3147 26.6457L53.5539 27.1006C57.6128 34.9018 63.9751 41.2641 71.7763 45.3229L72.2321 45.5613L72.6008 45.2078C83.5569 34.6813 87.733 24.2988 85.0111 14.3567L84.9042 13.9646L84.5097 13.859Z" fill="#6D7280"/>
<path d="M72.5737 26.2959C70.2133 23.9355 69.2913 22.3284 69.5856 21.0837C69.6647 20.7521 69.8302 20.4474 70.0651 20.2004C70.3 19.9535 70.5961 19.773 70.9233 19.6774C73.6701 19.0135 76.4514 18.5019 79.2546 18.1447L79.2501 18.1493C79.2704 18.1507 79.2908 18.1499 79.311 18.147C79.3558 18.1426 79.4009 18.1409 79.446 18.142C79.4883 18.1414 79.5306 18.143 79.5728 18.147L79.6337 18.1511L79.6874 18.1659C79.7338 18.1736 79.7797 18.1845 79.8246 18.1984C79.8642 18.2107 79.9033 18.225 79.9415 18.2413C79.983 18.2593 80.0204 18.2769 80.057 18.2972C80.0936 18.3175 80.132 18.3397 80.1667 18.3627C80.2015 18.3857 80.2321 18.4101 80.2651 18.4367C80.298 18.4633 80.3269 18.4905 80.3558 18.5193C80.3847 18.5482 80.4145 18.578 80.442 18.6136C80.4695 18.6493 80.4934 18.6804 80.5196 18.7165C80.5458 18.7526 80.5629 18.7851 80.5832 18.8235C80.6022 18.8579 80.6191 18.8935 80.6338 18.93C80.6511 18.9683 80.666 19.0076 80.6785 19.0478C80.6917 19.0914 80.7026 19.1357 80.711 19.1805L80.7268 19.2478L80.7313 19.3037C80.7362 19.3493 80.7367 19.3939 80.7372 19.4395C80.7376 19.4851 80.7344 19.527 80.7312 19.5708L80.7263 19.6742C80.5724 20.7308 79.7406 26.3338 79.1991 27.955C79.101 28.2807 78.9197 28.5752 78.6731 28.8095C78.4265 29.0437 78.1231 29.2097 77.7928 29.2909C76.544 29.5811 74.9368 28.659 72.5737 26.2959ZM76.9236 21.1338C75.9487 21.2909 74.5465 21.5251 73.4024 21.7512L72.2479 21.9795L72.9849 22.897C73.8889 23.984 74.8907 24.9858 75.9776 25.8898L76.8956 26.6272L77.1234 25.4714C77.3473 24.3322 77.5829 22.9277 77.7408 21.951L77.8988 20.9753L76.9236 21.1338Z" fill="#6D7280"/>
<path d="M12.013 86.8567C11.77 86.6132 11.6334 86.2832 11.6334 85.9392C11.6334 85.5951 11.77 85.2652 12.013 85.0217L21.6464 75.3883C21.8898 75.1449 22.22 75.0081 22.5643 75.0081C22.9086 75.0081 23.2388 75.1448 23.4823 75.3883C23.7257 75.6317 23.8625 75.962 23.8625 76.3063C23.8625 76.6506 23.7257 76.9807 23.4823 77.2242L13.8489 86.8575C13.6052 87.1006 13.275 87.237 12.9308 87.2369C12.5866 87.2367 12.2565 87.1 12.013 86.8567Z" fill="#6D7280"/>
<path d="M20.8023 89.0073C20.5594 88.7636 20.4228 88.4334 20.4228 88.0892C20.4228 87.7451 20.5593 87.415 20.8023 87.1712L30.4356 77.5379C30.6808 77.3033 31.0081 77.1741 31.3474 77.1779C31.6867 77.1816 32.011 77.318 32.251 77.558C32.4909 77.7979 32.6274 78.1223 32.6312 78.4616C32.635 78.8009 32.5058 79.1282 32.2712 79.3734L22.6378 89.0068C22.3943 89.2499 22.0643 89.3864 21.7202 89.3865C21.3761 89.3866 21.046 89.2502 20.8023 89.0073Z" fill="#6D7280"/>
<path d="M9.86694 78.0719C9.62394 77.8282 9.48754 77.4981 9.48754 77.1539C9.48754 76.8098 9.62397 76.4797 9.86696 76.2359L19.5003 66.6026C19.7455 66.368 20.0728 66.2388 20.4121 66.2426C20.7514 66.2463 21.0757 66.3827 21.3157 66.6227C21.5556 66.8626 21.6921 67.187 21.6959 67.5263C21.6997 67.8656 21.5705 68.1929 21.3359 68.4381L11.7025 78.0715C11.459 78.3146 11.1289 78.451 10.7848 78.4511C10.4407 78.4512 10.1106 78.3148 9.86694 78.0719Z" fill="#6D7280"/>
</g>
<defs>
<clipPath id="clip0_766_39324">
<rect width="34" height="105.845" fill="white" transform="translate(74.8435) rotate(45)"/>
</clipPath>
</defs>
</svg>
