<svg width="45" height="76" viewBox="0 0 45 76" fill="none" xmlns="http://www.w3.org/2000/svg">
<path d="M28.6417 14.2172C27.6986 11.7313 25.4635 10.3621 22.3475 10.3621H22.2657C19.1902 10.3621 16.9708 11.697 16.0162 14.1202C14.7821 17.2526 15.9799 21.2072 17.3139 22.4492C18.8258 23.857 18.8974 24.5858 18.8941 24.7149C18.8886 24.7261 18.8867 24.7382 18.8811 24.7493C18.8585 24.7962 18.8397 24.8448 18.8249 24.8947C18.8179 24.9175 18.8096 24.9411 18.804 24.962C18.7915 25.0197 18.7837 25.0782 18.7807 25.1372C18.7807 25.1543 18.7756 25.1711 18.7756 25.1882V25.1966V28.2821C18.7756 28.4231 18.8045 28.5625 18.8607 28.6918C19.1902 29.3199 19.6854 29.8459 20.2927 30.213C20.8999 30.58 21.596 30.774 22.3057 30.774C23.0154 30.774 23.7115 30.58 24.3187 30.213C24.926 29.8459 25.4212 29.3199 25.7507 28.6918C25.807 28.5621 25.8362 28.4222 25.8363 28.2808V25.1971C25.8363 25.1701 25.8306 25.1451 25.8283 25.1186C25.826 25.0921 25.8246 25.0638 25.82 25.0359C25.8105 24.9786 25.7962 24.9222 25.7772 24.8673C25.7712 24.8496 25.7674 24.8311 25.7605 24.8134C25.7319 24.742 25.6952 24.674 25.6512 24.6109C25.6489 24.6076 25.648 24.6035 25.6457 24.6007C25.6582 24.4465 25.8037 23.7711 27.2776 22.4669C28.8021 21.1185 29.7497 17.1379 28.6417 14.2172ZM23.7781 28.0123C23.6013 28.2323 23.3773 28.4099 23.1227 28.5319C22.8681 28.6539 22.5893 28.7172 22.3069 28.7172C22.0245 28.7172 21.7456 28.6539 21.491 28.5319C21.2364 28.4099 21.0124 28.2323 20.8356 28.0123V26.2259H23.7781V28.0123ZM25.9129 20.9266C24.5585 22.1264 23.806 23.1915 23.6275 24.1687H20.8974C20.7291 23.3684 20.1626 22.2899 18.7171 20.9443C18.0273 20.3019 16.9908 17.2647 17.9325 14.8749C18.5735 13.2465 20.0315 12.4206 22.2657 12.4206H22.3475C24.6101 12.4206 26.0802 13.2706 26.7165 14.9474C27.5657 17.1862 26.6803 20.2476 25.9129 20.9262V20.9266Z" fill="#6D7280"/>
<path d="M22.3248 8.71457C22.0517 8.71457 21.7899 8.60617 21.5968 8.41323C21.4037 8.22029 21.2953 7.9586 21.2953 7.68574V1.02882C21.2953 0.755962 21.4037 0.494276 21.5968 0.301335C21.7899 0.108393 22.0517 0 22.3248 0C22.5978 0 22.8597 0.108393 23.0528 0.301335C23.2458 0.494276 23.3543 0.755962 23.3543 1.02882V7.68574C23.3543 7.9586 23.2458 8.22029 23.0528 8.41323C22.8597 8.60617 22.5978 8.71457 22.3248 8.71457Z" fill="#6D7280"/>
<path d="M37.937 17.9173H31.2757C31.1405 17.9173 31.0066 17.8907 30.8817 17.8389C30.7568 17.7872 30.6433 17.7115 30.5477 17.6159C30.4521 17.5204 30.3762 17.407 30.3245 17.2822C30.2728 17.1573 30.2462 17.0235 30.2462 16.8884C30.2462 16.7533 30.2728 16.6196 30.3245 16.4947C30.3762 16.3699 30.4521 16.2565 30.5477 16.161C30.6433 16.0654 30.7568 15.9896 30.8817 15.9379C31.0066 15.8862 31.1405 15.8596 31.2757 15.8596H37.937C38.0722 15.8596 38.2061 15.8862 38.331 15.9379C38.4559 15.9896 38.5694 16.0654 38.665 16.161C38.7606 16.2565 38.8364 16.3699 38.8882 16.4947C38.9399 16.6196 38.9666 16.7533 38.9666 16.8884C38.9666 17.0235 38.9399 17.1573 38.8882 17.2822C38.8364 17.407 38.7606 17.5204 38.665 17.6159C38.5694 17.7115 38.4559 17.7872 38.331 17.8389C38.2061 17.8907 38.0722 17.9173 37.937 17.9173Z" fill="#6D7280"/>
<path d="M13.3752 17.9173H6.71431C6.44126 17.9173 6.17944 17.8089 5.98637 17.6159C5.7933 17.423 5.68481 17.1613 5.68481 16.8884C5.68481 16.6156 5.7933 16.3539 5.98637 16.161C6.17944 15.968 6.44126 15.8596 6.71431 15.8596H13.3752C13.6483 15.8596 13.9102 15.968 14.1032 16.161C14.2963 16.3539 14.4047 16.6156 14.4047 16.8884C14.4047 17.1613 14.2963 17.423 14.1032 17.6159C13.9102 17.8089 13.6483 17.9173 13.3752 17.9173Z" fill="#6D7280"/>
<path d="M15.3125 11.945C15.1773 11.9451 15.0433 11.9186 14.9184 11.867C14.7934 11.8153 14.6798 11.7396 14.5842 11.644L9.87405 6.93694C9.77569 6.84204 9.69722 6.72852 9.64324 6.60299C9.58926 6.47746 9.56081 6.34245 9.55961 6.20583C9.55841 6.0692 9.5845 5.93371 9.63626 5.80726C9.68803 5.6808 9.76444 5.56591 9.86111 5.4693C9.95778 5.37269 10.0728 5.29629 10.1993 5.24456C10.3259 5.19283 10.4614 5.16681 10.5981 5.16801C10.7348 5.16921 10.87 5.19761 10.9956 5.25155C11.1212 5.3055 11.2348 5.3839 11.3297 5.48219L16.0404 10.1888C16.1846 10.3326 16.2828 10.5159 16.3226 10.7155C16.3624 10.9151 16.3421 11.1221 16.2642 11.3101C16.1862 11.4982 16.0542 11.6589 15.8848 11.7719C15.7154 11.8849 15.5162 11.9451 15.3125 11.945Z" fill="#6D7280"/>
<path d="M29.3394 11.945C29.1357 11.9453 28.9365 11.8851 28.767 11.7722C28.5975 11.6592 28.4654 11.4985 28.3874 11.3104C28.3094 11.1223 28.289 10.9153 28.3288 10.7157C28.3686 10.516 28.4669 10.3327 28.6111 10.1888L33.3213 5.48228C33.5154 5.29493 33.7754 5.19127 34.0453 5.19364C34.3152 5.19601 34.5735 5.30421 34.7643 5.49494C34.9552 5.68567 35.0634 5.94367 35.0658 6.21339C35.0681 6.48311 34.9644 6.74298 34.777 6.93703L30.0672 11.6441C29.9717 11.7396 29.8582 11.8154 29.7333 11.867C29.6084 11.9187 29.4746 11.9452 29.3394 11.945Z" fill="#6D7280"/>
<path d="M8.48898 38.2865C9.56941 38.2866 10.6256 37.9665 11.524 37.3667C12.4223 36.7669 13.1226 35.9143 13.5361 34.9168C13.9497 33.9193 14.0579 32.8217 13.8472 31.7627C13.6364 30.7037 13.1162 29.731 12.3523 28.9675C11.5883 28.204 10.615 27.684 9.55529 27.4733C8.49562 27.2627 7.39727 27.3707 6.39907 27.7839C5.40087 28.1971 4.54767 28.8968 3.9474 29.7945C3.34714 30.6923 3.02673 31.7477 3.02673 32.8274C3.02833 34.2747 3.6043 35.6622 4.62831 36.6856C5.65231 37.709 7.04076 38.2847 8.48898 38.2865ZM8.48898 29.4256C9.16216 29.4255 9.82024 29.6249 10.38 29.9986C10.9398 30.3722 11.3761 30.9034 11.6338 31.5249C11.8915 32.1464 11.959 32.8303 11.8278 33.4901C11.6965 34.1499 11.3724 34.756 10.8965 35.2318C10.4206 35.7075 9.8141 36.0316 9.15388 36.1629C8.49365 36.2942 7.80929 36.227 7.18731 35.9696C6.56534 35.7123 6.03369 35.2764 5.65961 34.7171C5.28554 34.1578 5.08587 33.5002 5.08578 32.8274C5.08676 31.9257 5.44557 31.0611 6.08355 30.4234C6.72154 29.7857 7.58661 29.4268 8.48898 29.4256Z" fill="#6D7280"/>
<path d="M36.5148 38.2865C37.5952 38.2865 38.6514 37.9663 39.5497 37.3665C40.448 36.7666 41.1482 35.914 41.5616 34.9165C41.9751 33.919 42.0833 32.8214 41.8725 31.7624C41.6617 30.7035 41.1414 29.7308 40.3775 28.9673C39.6135 28.2039 38.6402 27.6839 37.5805 27.4733C36.5209 27.2627 35.4225 27.3708 34.4243 27.784C33.4262 28.1971 32.573 28.8968 31.9727 29.7946C31.3725 30.6923 31.0521 31.7477 31.0521 32.8274C31.0537 34.2748 31.6298 35.6624 32.6539 36.6858C33.678 37.7092 35.0665 38.2849 36.5148 38.2865ZM36.5148 29.4256C37.188 29.4256 37.846 29.6251 38.4058 29.9988C38.9655 30.3725 39.4017 30.9037 39.6594 31.5252C39.917 32.1467 39.9844 32.8306 39.8531 33.4904C39.7218 34.1502 39.3977 34.7562 38.9217 35.232C38.4458 35.7077 37.8393 36.0316 37.1791 36.1629C36.5189 36.2942 35.8345 36.2269 35.2126 35.9696C34.5906 35.7122 34.0591 35.2763 33.685 34.717C33.311 34.1577 33.1113 33.5001 33.1112 32.8274C33.1123 31.9256 33.4712 31.0611 34.1092 30.4234C34.7473 29.7856 35.6124 29.4268 36.5148 29.4256Z" fill="#6D7280"/>
<path d="M44.9321 72.147L41.0177 56.0184C41.094 55.3643 41.1367 54.7066 41.1455 54.0481V42.6893C41.1385 41.6742 40.7747 40.6938 40.1175 39.9197C39.4604 39.1456 38.5519 38.6271 37.5508 38.4547C36.5498 38.2823 35.52 38.4672 34.6415 38.9768C33.763 39.4865 33.0919 40.2887 32.7454 41.2429L28.8155 45.1701H16.1932L12.2639 41.2429C11.9172 40.2889 11.2459 39.487 10.3674 38.9775C9.48899 38.468 8.45929 38.2832 7.45835 38.4556C6.45742 38.6279 5.54897 39.1463 4.8918 39.9203C4.23463 40.6942 3.8706 41.6743 3.86333 42.6893V54.0537C3.87165 54.7057 3.91355 55.3568 3.98883 56.0045L0.0659738 72.1707C-0.0837595 72.9229 0.0405602 73.7038 0.416438 74.3724C0.792316 75.0411 1.395 75.5534 2.11571 75.8169C2.37514 75.8966 2.64514 75.9367 2.91655 75.9358C3.59334 75.917 4.24624 75.6819 4.77957 75.2651C5.31291 74.8483 5.6986 74.2717 5.88004 73.6199L7.52723 68.0605C7.84761 69.9236 8.3056 71.7603 8.89743 73.5558C9.18885 74.318 9.83076 75.9994 11.491 75.9985C11.6966 75.9974 11.9016 75.9741 12.1022 75.9288L12.1984 75.9116C13.0758 75.7194 13.8428 75.1911 14.3349 74.4402C14.827 73.6892 15.0049 72.7754 14.8305 71.8948L12.52 56.8248V49.6815L13.4961 50.657C13.5916 50.7526 13.7051 50.8284 13.83 50.8801C13.9549 50.9318 14.0888 50.9584 14.224 50.9584H30.7839C30.9191 50.9585 31.053 50.9319 31.1779 50.8802C31.3028 50.8285 31.4163 50.7526 31.5118 50.657L32.4878 49.6815V56.8262L30.1895 71.8349C30.0958 72.2782 30.0904 72.7355 30.1736 73.1809C30.2569 73.6262 30.4271 74.0508 30.6746 74.4304C30.9221 74.81 31.242 75.1371 31.6161 75.3931C31.9901 75.6491 32.411 75.8289 32.8546 75.9223C33.0619 75.9689 33.2737 75.993 33.4862 75.9943C35.1646 75.9943 35.8139 74.3222 36.109 73.5637C36.7009 71.7684 37.1582 69.9316 37.4773 68.0684L39.119 73.6074C39.2986 74.2625 39.6839 74.8426 40.2182 75.2624C40.7526 75.6822 41.4077 75.9194 42.0872 75.939C42.3631 75.9395 42.6375 75.8981 42.901 75.8164C43.6225 75.5483 44.224 75.0308 44.5966 74.3577C44.9692 73.6845 45.0883 72.9003 44.9321 72.147ZM3.90094 73.0537C3.84038 73.2751 3.71372 73.4727 3.53783 73.6203C3.36193 73.7678 3.14522 73.8583 2.91655 73.8795C2.85367 73.8806 2.79098 73.8722 2.73063 73.8545C2.50184 73.7512 2.31341 73.5755 2.19446 73.3545C2.07552 73.1336 2.03266 72.8797 2.07248 72.6319L5.11823 60.0817C5.27736 60.37 5.46971 60.6388 5.69134 60.8825C5.9809 61.1914 6.32063 62.3939 6.64412 63.7948L3.90094 73.0537ZM12.2207 46.4701C12.0767 46.3263 11.8932 46.2283 11.6935 46.1886C11.4938 46.149 11.2868 46.1694 11.0987 46.2473C10.9105 46.3252 10.7498 46.4571 10.6367 46.6263C10.5236 46.7956 10.4633 46.9945 10.4633 47.198V56.9056C10.4635 56.958 10.4673 57.0103 10.4749 57.0621L12.8082 72.2706C12.8847 72.6183 12.8231 72.9822 12.6364 73.2854C12.4497 73.5887 12.1525 73.8077 11.8075 73.8963C11.7903 73.899 11.7299 73.9097 11.7145 73.9134C11.4603 73.9706 11.2762 74.0096 10.8235 72.821C10.3123 71.4968 9.8382 69.1168 9.3827 66.8162C9.13776 65.5811 8.91788 64.5091 8.7064 63.5648C8.70175 63.5472 8.69989 63.5291 8.69431 63.5119C8.23278 61.4784 7.7987 60.1184 7.20145 59.4807C6.61302 58.8467 6.25744 57.4221 6.07664 56.0677C6.08062 55.9578 6.06695 55.8481 6.03618 55.7425C5.96981 55.1797 5.93321 54.6138 5.92651 54.0472V42.6893C5.92872 42.3904 5.99037 42.0948 6.10784 41.8199C6.22532 41.545 6.39627 41.2962 6.61082 41.0879C6.82536 40.8796 7.07922 40.716 7.35759 40.6065C7.63595 40.4971 7.9333 40.4441 8.23236 40.4505C8.71636 40.4511 9.18694 40.6094 9.57277 40.9015C9.9586 41.1935 10.2386 41.6033 10.3704 42.0687C10.4176 42.2399 10.5085 42.3958 10.6344 42.5211L15.0429 46.9267C15.2359 47.1197 15.4978 47.2281 15.7708 47.2282H21.3017V48.9003H14.6553L12.2207 46.4701ZM35.6303 66.8088C35.1757 69.1121 34.7049 71.4935 34.1918 72.8177C33.7298 74.0068 33.548 73.9678 33.2571 73.9037C33.0767 73.8618 32.9065 73.7845 32.7563 73.6763C32.6061 73.5681 32.4789 73.4311 32.3821 73.2734C32.2853 73.1157 32.2208 72.9403 32.1923 72.7575C32.1639 72.5747 32.1721 72.388 32.2164 72.2083L34.538 57.0607C34.546 57.0089 34.55 56.9566 34.5501 56.9042V47.1966C34.5502 46.993 34.4899 46.7939 34.3768 46.6246C34.2637 46.4553 34.1029 46.3233 33.9146 46.2454C33.7264 46.1675 33.5194 46.1471 33.3196 46.1869C33.1198 46.2266 32.9363 46.3247 32.7923 46.4687L30.361 48.8984H23.3575V47.2263H29.2441C29.5172 47.2262 29.7791 47.1178 29.9724 46.9249L34.3809 42.5193C34.5065 42.3938 34.5975 42.2379 34.6449 42.0669C34.8003 41.5474 35.1367 41.1008 35.5933 40.8079C36.0498 40.515 36.5962 40.3953 37.1335 40.4703C37.6708 40.5453 38.1634 40.8102 38.5221 41.2169C38.8808 41.6236 39.0818 42.1453 39.0888 42.6874V54.0435C39.0825 54.5995 39.0474 55.1548 38.9838 55.7072C38.9444 55.83 38.9286 55.959 38.9372 56.0876C38.7555 57.4346 38.3995 58.8443 37.8102 59.4783C37.2106 60.1184 36.7774 61.4798 36.3168 63.5133C36.3121 63.5286 36.3103 63.5444 36.3066 63.5597C36.0904 64.5008 35.8724 65.5732 35.6279 66.8088H35.6303ZM42.2889 73.8507C42.0254 73.8848 41.7587 73.8207 41.5395 73.6707C41.3204 73.5206 41.1642 73.2952 41.1008 73.0374L38.3619 63.7943C38.6844 62.3934 39.0237 61.1904 39.3137 60.8811C39.5359 60.6382 39.7287 60.3701 39.8882 60.0822L42.9279 72.6073C42.9729 72.8562 42.9345 73.113 42.8185 73.3379C42.7025 73.5627 42.5155 73.743 42.2865 73.8507H42.2889Z" fill="#6D7280"/>
</svg>
