<svg width="45" height="76" viewBox="0 0 45 76" fill="none" xmlns="http://www.w3.org/2000/svg">
<g clip-path="url(#clip0_994_75902)">
<path d="M28.6417 14.2172C27.6986 11.7313 25.4635 10.3621 22.3475 10.3621H22.2657C19.1902 10.3621 16.9708 11.697 16.0162 14.1202C14.7821 17.2526 15.9799 21.2072 17.3139 22.4492C18.8258 23.857 18.8974 24.5858 18.8941 24.7149C18.8886 24.7261 18.8867 24.7382 18.8811 24.7493C18.8585 24.7962 18.8397 24.8448 18.8249 24.8947C18.8179 24.9175 18.8096 24.9411 18.804 24.962C18.7915 25.0197 18.7837 25.0782 18.7807 25.1372C18.7807 25.1543 18.7756 25.1711 18.7756 25.1882V25.1966V28.2821C18.7756 28.4231 18.8045 28.5625 18.8607 28.6918C19.1902 29.3199 19.6854 29.8459 20.2927 30.213C20.8999 30.58 21.596 30.774 22.3057 30.774C23.0154 30.774 23.7115 30.58 24.3187 30.213C24.926 29.8459 25.4212 29.3199 25.7507 28.6918C25.807 28.5621 25.8362 28.4222 25.8363 28.2808V25.1971C25.8363 25.1701 25.8306 25.1451 25.8283 25.1186C25.826 25.0921 25.8246 25.0638 25.82 25.0359C25.8105 24.9786 25.7962 24.9222 25.7772 24.8673C25.7712 24.8496 25.7674 24.8311 25.7605 24.8134C25.7319 24.742 25.6952 24.674 25.6512 24.6109C25.6489 24.6076 25.648 24.6035 25.6457 24.6007C25.6582 24.4465 25.8037 23.7711 27.2776 22.4669C28.8021 21.1185 29.7497 17.1379 28.6417 14.2172ZM23.7781 28.0123C23.6013 28.2323 23.3773 28.4099 23.1227 28.5319C22.8681 28.6539 22.5893 28.7172 22.3069 28.7172C22.0245 28.7172 21.7456 28.6539 21.491 28.5319C21.2364 28.4099 21.0124 28.2323 20.8356 28.0123V26.2259H23.7781V28.0123ZM25.9129 20.9266C24.5585 22.1264 23.806 23.1915 23.6275 24.1687H20.8974C20.7291 23.3684 20.1626 22.2899 18.7171 20.9443C18.0273 20.3019 16.9908 17.2647 17.9325 14.8749C18.5735 13.2465 20.0315 12.4206 22.2657 12.4206H22.3475C24.6101 12.4206 26.0802 13.2706 26.7165 14.9474C27.5657 17.1862 26.6803 20.2476 25.9129 20.9262V20.9266Z" fill="#6D7280"/>
<path d="M22.3244 8.71457C22.0514 8.71457 21.7895 8.60617 21.5964 8.41323C21.4034 8.22029 21.2949 7.9586 21.2949 7.68574V1.02882C21.2949 0.755962 21.4034 0.494276 21.5964 0.301335C21.7895 0.108393 22.0514 0 22.3244 0C22.5975 0 22.8593 0.108393 23.0524 0.301335C23.2455 0.494276 23.3539 0.755962 23.3539 1.02882V7.68574C23.3539 7.9586 23.2455 8.22029 23.0524 8.41323C22.8593 8.60617 22.5975 8.71457 22.3244 8.71457Z" fill="#6D7280"/>
<path d="M37.937 17.9173H31.2756C31.1404 17.9173 31.0066 17.8907 30.8817 17.8389C30.7568 17.7872 30.6432 17.7115 30.5477 17.6159C30.4521 17.5204 30.3762 17.407 30.3244 17.2822C30.2727 17.1573 30.2461 17.0235 30.2461 16.8884C30.2461 16.7533 30.2727 16.6196 30.3244 16.4947C30.3762 16.3699 30.4521 16.2565 30.5477 16.161C30.6432 16.0654 30.7568 15.9896 30.8817 15.9379C31.0066 15.8862 31.1404 15.8596 31.2756 15.8596H37.937C38.0722 15.8596 38.206 15.8862 38.3309 15.9379C38.4559 15.9896 38.5694 16.0654 38.665 16.161C38.7606 16.2565 38.8364 16.3699 38.8881 16.4947C38.9398 16.6196 38.9665 16.7533 38.9665 16.8884C38.9665 17.0235 38.9398 17.1573 38.8881 17.2822C38.8364 17.407 38.7606 17.5204 38.665 17.6159C38.5694 17.7115 38.4559 17.7872 38.3309 17.8389C38.206 17.8907 38.0722 17.9173 37.937 17.9173Z" fill="#6D7280"/>
<path d="M13.375 17.9173H6.71406C6.44102 17.9173 6.1792 17.8089 5.98613 17.6159C5.79306 17.423 5.68457 17.1613 5.68457 16.8884C5.68457 16.6156 5.79306 16.3539 5.98613 16.161C6.1792 15.968 6.44102 15.8596 6.71406 15.8596H13.375C13.648 15.8596 13.9099 15.968 14.103 16.161C14.2961 16.3539 14.4045 16.6156 14.4045 16.8884C14.4045 17.1613 14.2961 17.423 14.103 17.6159C13.9099 17.8089 13.648 17.9173 13.375 17.9173Z" fill="#6D7280"/>
<path d="M15.3125 11.945C15.1773 11.9451 15.0433 11.9186 14.9184 11.867C14.7934 11.8153 14.6798 11.7396 14.5842 11.644L9.87405 6.93694C9.77569 6.84204 9.69722 6.72852 9.64324 6.60299C9.58926 6.47746 9.56081 6.34245 9.55961 6.20583C9.55841 6.0692 9.5845 5.93371 9.63626 5.80726C9.68803 5.6808 9.76444 5.56591 9.86111 5.4693C9.95778 5.37269 10.0728 5.29629 10.1993 5.24456C10.3259 5.19283 10.4614 5.16681 10.5981 5.16801C10.7348 5.16921 10.87 5.19761 10.9956 5.25155C11.1212 5.3055 11.2348 5.3839 11.3297 5.48219L16.0404 10.1888C16.1846 10.3326 16.2828 10.5159 16.3226 10.7155C16.3624 10.9151 16.3421 11.1221 16.2642 11.3101C16.1862 11.4982 16.0542 11.6589 15.8848 11.7719C15.7154 11.8849 15.5162 11.9451 15.3125 11.945Z" fill="#6D7280"/>
<path d="M29.339 11.945C29.1353 11.9453 28.9361 11.8851 28.7666 11.7722C28.5971 11.6592 28.465 11.4985 28.387 11.3104C28.309 11.1223 28.2886 10.9153 28.3284 10.7157C28.3683 10.516 28.4665 10.3327 28.6107 10.1888L33.3209 5.48228C33.5151 5.29493 33.7751 5.19127 34.045 5.19364C34.3149 5.19601 34.5731 5.30421 34.764 5.49494C34.9548 5.68567 35.063 5.94367 35.0654 6.21339C35.0678 6.48311 34.9641 6.74298 34.7766 6.93703L30.0669 11.6441C29.9713 11.7396 29.8579 11.8154 29.733 11.867C29.6081 11.9187 29.4742 11.9452 29.339 11.945Z" fill="#6D7280"/>
<path d="M8.48861 38.2865C9.56904 38.2866 10.6252 37.9665 11.5236 37.3667C12.422 36.7669 13.1222 35.9143 13.5358 34.9168C13.9493 33.9193 14.0575 32.8217 13.8468 31.7627C13.6361 30.7037 13.1158 29.731 12.3519 28.9675C11.5879 28.204 10.6146 27.684 9.55492 27.4733C8.49526 27.2627 7.3969 27.3707 6.3987 27.7839C5.4005 28.1971 4.54731 28.8968 3.94704 29.7945C3.34677 30.6923 3.02637 31.7477 3.02637 32.8274C3.02797 34.2747 3.60394 35.6622 4.62794 36.6856C5.65194 37.709 7.04039 38.2847 8.48861 38.2865ZM8.48861 29.4256C9.16179 29.4255 9.81987 29.6249 10.3797 29.9986C10.9394 30.3722 11.3757 30.9034 11.6334 31.5249C11.8911 32.1464 11.9587 32.8303 11.8274 33.4901C11.6962 34.1499 11.3721 34.756 10.8961 35.2318C10.4202 35.7075 9.81374 36.0316 9.15351 36.1629C8.49328 36.2942 7.80892 36.227 7.18695 35.9696C6.56498 35.7123 6.03332 35.2764 5.65925 34.7171C5.28517 34.1578 5.0855 33.5002 5.08541 32.8274C5.08639 31.9257 5.44521 31.0611 6.08319 30.4234C6.72117 29.7857 7.58624 29.4268 8.48861 29.4256Z" fill="#6D7280"/>
<path d="M36.5145 38.2865C37.5949 38.2865 38.651 37.9663 39.5493 37.3665C40.4476 36.7666 41.1478 35.914 41.5613 34.9165C41.9747 33.919 42.0829 32.8214 41.8721 31.7624C41.6614 30.7035 41.1411 29.7308 40.3771 28.9673C39.6131 28.2039 38.6398 27.6839 37.5801 27.4733C36.5205 27.2627 35.4222 27.3708 34.424 27.784C33.4258 28.1971 32.5726 28.8968 31.9724 29.7946C31.3721 30.6923 31.0518 31.7477 31.0518 32.8274C31.0534 34.2748 31.6294 35.6624 32.6535 36.6858C33.6776 37.7092 35.0662 38.2849 36.5145 38.2865ZM36.5145 29.4256C37.1876 29.4256 37.8457 29.6251 38.4054 29.9988C38.9651 30.3725 39.4014 30.9037 39.659 31.5252C39.9166 32.1467 39.984 32.8306 39.8527 33.4904C39.7215 34.1502 39.3973 34.7562 38.9214 35.232C38.4454 35.7077 37.8389 36.0316 37.1787 36.1629C36.5185 36.2942 35.8342 36.2269 35.2122 35.9696C34.5903 35.7122 34.0587 35.2763 33.6846 34.717C33.3106 34.1577 33.1109 33.5001 33.1108 32.8274C33.1119 31.9256 33.4708 31.0611 34.1089 30.4234C34.7469 29.7856 35.612 29.4268 36.5145 29.4256Z" fill="#6D7280"/>
<path d="M44.9319 72.147L41.0174 56.0184C41.0938 55.3643 41.1365 54.7066 41.1453 54.0481V42.6893C41.1383 41.6742 40.7744 40.6938 40.1173 39.9197C39.4602 39.1456 38.5516 38.6271 37.5506 38.4547C36.5495 38.2823 35.5197 38.4672 34.6413 38.9768C33.7628 39.4865 33.0916 40.2887 32.7451 41.2429L28.8153 45.1701H16.193L12.2637 41.2429C11.9169 40.2889 11.2456 39.487 10.3672 38.9775C9.48875 38.468 8.45904 38.2832 7.45811 38.4556C6.45718 38.6279 5.54872 39.1463 4.89155 39.9203C4.23438 40.6942 3.87036 41.6743 3.86308 42.6893V54.0537C3.87141 54.7057 3.91331 55.3568 3.98858 56.0045L0.0657297 72.1707C-0.0840037 72.9229 0.0403161 73.7038 0.416194 74.3724C0.792072 75.0411 1.39476 75.5534 2.11547 75.8169C2.3749 75.8966 2.6449 75.9367 2.91631 75.9358C3.59309 75.917 4.24599 75.6819 4.77933 75.2651C5.31266 74.8483 5.69836 74.2717 5.8798 73.6199L7.52699 68.0605C7.84737 69.9236 8.30535 71.7603 8.89719 73.5558C9.18861 74.318 9.83052 75.9994 11.4907 75.9985C11.6964 75.9974 11.9013 75.9741 12.1019 75.9288L12.1981 75.9116C13.0756 75.7194 13.8426 75.1911 14.3347 74.4402C14.8268 73.6892 15.0047 72.7754 14.8302 71.8948L12.5198 56.8248V49.6815L13.4958 50.657C13.5914 50.7526 13.7048 50.8284 13.8297 50.8801C13.9546 50.9318 14.0885 50.9584 14.2237 50.9584H30.7837C30.9189 50.9585 31.0528 50.9319 31.1777 50.8802C31.3026 50.8285 31.416 50.7526 31.5115 50.657L32.4876 49.6815V56.8262L30.1892 71.8349C30.0955 72.2782 30.0902 72.7355 30.1734 73.1809C30.2566 73.6262 30.4269 74.0508 30.6744 74.4304C30.9219 74.81 31.2418 75.1371 31.6158 75.3931C31.9899 75.6491 32.4107 75.8289 32.8543 75.9223C33.0617 75.9689 33.2735 75.993 33.486 75.9943C35.1643 75.9943 35.8136 74.3222 36.1088 73.5637C36.7006 71.7684 37.158 69.9316 37.4771 68.0684L39.1188 73.6074C39.2983 74.2625 39.6836 74.8426 40.218 75.2624C40.7524 75.6822 41.4075 75.9194 42.0869 75.939C42.3628 75.9395 42.6372 75.8981 42.9008 75.8164C43.6223 75.5483 44.2238 75.0308 44.5964 74.3577C44.969 73.6845 45.088 72.9003 44.9319 72.147ZM3.9007 73.0537C3.84014 73.2751 3.71347 73.4727 3.53758 73.6203C3.36169 73.7678 3.14497 73.8583 2.91631 73.8795C2.85343 73.8806 2.79073 73.8722 2.73038 73.8545C2.50159 73.7512 2.31316 73.5755 2.19422 73.3545C2.07527 73.1336 2.03241 72.8797 2.07223 72.6319L5.11799 60.0817C5.27712 60.37 5.46947 60.6388 5.69109 60.8825C5.98065 61.1914 6.32038 62.3939 6.64388 63.7948L3.9007 73.0537ZM12.2204 46.4701C12.0764 46.3263 11.893 46.2283 11.6932 46.1886C11.4935 46.149 11.2865 46.1694 11.0984 46.2473C10.9103 46.3252 10.7496 46.4571 10.6365 46.6263C10.5234 46.7956 10.463 46.9945 10.4631 47.198V56.9056C10.4632 56.958 10.4671 57.0103 10.4747 57.0621L12.808 72.2706C12.8844 72.6183 12.8228 72.9822 12.6362 73.2854C12.4495 73.5887 12.1523 73.8077 11.8072 73.8963C11.79 73.899 11.7296 73.9097 11.7143 73.9134C11.4601 73.9706 11.276 74.0096 10.8233 72.821C10.312 71.4968 9.83795 69.1168 9.38246 66.8162C9.13751 65.5811 8.91763 64.5091 8.70615 63.5648C8.7015 63.5472 8.69965 63.5291 8.69407 63.5119C8.23253 61.4784 7.79846 60.1184 7.2012 59.4807C6.61278 58.8467 6.25719 57.4221 6.07639 56.0677C6.08038 55.9578 6.06671 55.8481 6.03594 55.7425C5.96956 55.1797 5.93296 54.6138 5.92627 54.0472V42.6893C5.92848 42.3904 5.99012 42.0948 6.1076 41.8199C6.22507 41.545 6.39603 41.2962 6.61057 41.0879C6.82511 40.8796 7.07898 40.716 7.35734 40.6065C7.63571 40.4971 7.93306 40.4441 8.23211 40.4505C8.71612 40.4511 9.1867 40.6094 9.57253 40.9015C9.95836 41.1935 10.2384 41.6033 10.3701 42.0687C10.4173 42.2399 10.5083 42.3958 10.6341 42.5211L15.0427 46.9267C15.2357 47.1197 15.4975 47.2281 15.7705 47.2282H21.3015V48.9003H14.655L12.2204 46.4701ZM35.63 66.8088C35.1755 69.1121 34.7046 71.4935 34.1915 72.8177C33.7295 74.0068 33.5478 73.9678 33.2568 73.9037C33.0765 73.8618 32.9063 73.7845 32.7561 73.6763C32.6059 73.5681 32.4786 73.4311 32.3818 73.2734C32.285 73.1157 32.2205 72.9403 32.1921 72.7575C32.1637 72.5747 32.1718 72.388 32.2162 72.2083L34.5378 57.0607C34.5458 57.0089 34.5498 56.9566 34.5499 56.9042V47.1966C34.55 46.993 34.4897 46.7939 34.3766 46.6246C34.2635 46.4553 34.1026 46.3233 33.9144 46.2454C33.7262 46.1675 33.5191 46.1471 33.3193 46.1869C33.1195 46.2266 32.936 46.3247 32.792 46.4687L30.3607 48.8984H23.3573V47.2263H29.2438C29.517 47.2262 29.7789 47.1178 29.9721 46.9249L34.3807 42.5193C34.5063 42.3938 34.5972 42.2379 34.6447 42.0669C34.8001 41.5474 35.1365 41.1008 35.593 40.8079C36.0495 40.515 36.596 40.3953 37.1333 40.4703C37.6706 40.5453 38.1632 40.8102 38.5218 41.2169C38.8805 41.6236 39.0816 42.1453 39.0885 42.6874V54.0435C39.0822 54.5995 39.0472 55.1548 38.9835 55.7072C38.9442 55.83 38.9283 55.959 38.937 56.0876C38.7553 57.4346 38.3993 58.8443 37.8099 59.4783C37.2103 60.1184 36.7771 61.4798 36.3165 63.5133C36.3119 63.5286 36.31 63.5444 36.3063 63.5597C36.0902 64.5008 35.8722 65.5732 35.6277 66.8088H35.63ZM42.2886 73.8507C42.0252 73.8848 41.7584 73.8207 41.5393 73.6707C41.3202 73.5206 41.164 73.2952 41.1006 73.0374L38.3616 63.7943C38.6842 62.3934 39.0235 61.1904 39.3135 60.8811C39.5357 60.6382 39.7285 60.3701 39.888 60.0822L42.9277 72.6073C42.9727 72.8562 42.9342 73.113 42.8183 73.3379C42.7023 73.5627 42.5153 73.743 42.2863 73.8507H42.2886Z" fill="#6D7280"/>
</g>
<defs>
<clipPath id="clip0_994_75902">
<rect width="45" height="76" fill="white"/>
</clipPath>
</defs>
</svg>
