<svg width="72" height="128" viewBox="0 0 72 128" fill="none" xmlns="http://www.w3.org/2000/svg">
<path d="M63.686 69.3645C62.2596 69.779 60.7485 71.1567 59.5513 71.986C55.9287 74.4946 53.6343 74.2149 49.9946 71.4883C46.1924 68.64 40.3904 67.4059 40.3904 67.4059C37.1538 68.5274 32.968 68.2135 31.2226 67.3818C26.9663 65.3529 26.0838 65.5596 21.4536 62.0184C20.3227 61.2074 18.814 58.9547 18.7359 56.2266C18.5834 53.4051 18.0821 50.5769 17.5775 47.7737C17.1798 45.5637 15.6477 45.2774 13.8906 45.3108C12.1485 45.3426 10.9387 46.2719 10.9078 48.0284C10.7522 56.8345 11.5643 65.2184 18.8522 71.6895C23.5762 75.8837 26.7603 78.8485 26.2082 83.6993C25.5775 88.9807 25.4681 98.5293 25.2086 103.828C24.9194 109.737 24.9839 115.647 25.1518 121.557C25.2137 123.732 26.1565 124.948 28.344 125.036C30.5994 125.126 31.5999 123.526 31.9414 121.718C32.3114 119.76 32.5391 117.769 32.7136 115.782C33.1437 110.889 33.4885 105.989 33.9114 101.095C34.0229 99.8035 34.7948 98.5314 36.5347 98.6291C38.1137 98.7177 39.1022 99.0691 39.3854 100.97C39.6179 102.532 39.7759 104.105 39.9375 105.676C40.5193 111.305 41.0347 116.941 41.6882 122.562C41.9658 124.951 43.4132 126.101 45.7548 125.561C48.458 124.938 48.2459 122.476 48.1192 120.51C47.6104 112.617 46.9991 104.73 46.3444 95.7189C46.3444 93.8351 46.3429 90.8351 46.3444 87.8352C46.3483 81.4727 44.7789 78.8335 53.4078 81.7346C54.4381 82.081 56.9301 82.4831 57.9288 81.8274C61.7577 79.3141 64.4829 77.7564 67.0896 73.8884C67.3859 73.4757 67.5456 72.9807 67.5464 72.4727C67.5472 71.9647 67.3891 71.4691 67.0942 71.0555C66.4223 70.0472 64.6324 69.0894 63.686 69.3645Z" fill="white"/>
<path d="M36.4057 67.0502C41.0059 67.076 44.524 63.0702 44.6279 58.5967C44.6543 57.3631 44.4369 56.1365 43.9884 54.987C43.5399 53.8376 42.869 52.7879 42.0142 51.8982C41.1594 51.0084 40.1374 50.2961 39.0068 49.802C37.8762 49.3079 36.6593 49.0417 35.4256 49.0186C31.0705 48.9585 27.201 53.3032 27.1577 58.3396C27.1187 62.8981 30.1063 66.9937 36.4057 67.0502Z" fill="white"/>
<path d="M68.1467 70.3343C66.8224 68.5811 64.8304 67.6695 62.9316 68.4388C61.0093 69.217 59.0963 70.9918 57.2783 71.983C55.748 72.8173 54.0203 72.8867 52.6729 71.8929C49.7958 69.7708 47.0169 68.1045 43.6178 66.907C42.6266 66.5576 42.484 66.2161 43.3129 65.1769C46.2886 61.4447 46.3706 56.9471 44.4243 52.9572C42.6035 49.2226 39.1182 47.8902 35.3373 47.9019C32.0634 47.9118 28.8379 49.4767 27.1283 52.5743C25.5901 55.3613 25.2862 60.9163 27.4586 64.2551C22.2454 61.5047 20.3612 59.9132 19.7731 55.2249C19.6749 52.7355 19.0096 49.538 18.7084 47.6472C18.2819 44.9696 16.8714 43.9589 13.9255 44.0613C11.4755 44.1466 9.72203 45.6132 9.55713 47.9713C9.45343 49.801 9.475 51.6357 9.6217 53.4624C10.0918 60.4045 11.3193 67.0418 17.0285 71.9142C18.2867 72.9879 25.269 78.6497 25.0315 82.0788C24.638 87.764 24.4082 93.3284 24.1454 97.8812C23.6853 105.86 23.7249 113.841 23.7081 121.823C23.7021 124.713 25.0369 126.092 27.5983 126.566C30.503 127.102 32.4124 124.894 32.8311 123.447C33.8893 120.869 33.7406 118.098 33.9493 115.357C34.2897 110.877 34.6546 106.399 35.0438 101.922C35.1264 100.988 35.4508 100.003 36.6024 99.9776C37.8855 99.9494 38.1865 101.011 38.3679 102.022C38.47 102.591 38.409 103.188 38.4637 103.768C39.0662 110.155 39.6023 116.551 40.3193 122.926C40.6518 125.882 42.7522 127.003 45.4767 127.014C47.9856 127.023 49.3681 125.114 49.6685 122.662C49.8186 121.434 49.5078 120.159 49.3795 118.921C48.3217 108.728 47.9633 98.4945 47.575 88.2632C47.3548 82.4612 47.3689 81.3006 50.9813 82.2966C52.3182 82.7898 56.8398 84.309 58.1667 83.3737C61.9098 80.7341 64.9704 79.0266 67.6637 75.2229C68.7143 73.7404 69.3574 71.9358 68.1467 70.3343ZM27.1574 58.3396C27.2006 53.3032 31.0698 48.9577 35.4253 49.0187C36.6589 49.0417 37.8759 49.3079 39.0065 49.802C40.137 50.2961 41.159 51.0085 42.0139 51.8982C42.8687 52.788 43.5396 53.8376 43.9881 54.9871C44.4366 56.1365 44.6539 57.3631 44.6276 58.5967C44.5237 63.0702 41.0056 67.076 36.4053 67.0502C30.1063 66.9938 27.1186 62.8981 27.1574 58.3396ZM67.0891 73.8875C64.4829 77.7555 61.7578 79.3131 57.9283 81.8265C56.9296 82.4822 54.4375 82.08 53.4073 81.7337C44.7784 78.8326 46.3489 81.4718 46.3438 87.8343C46.342 90.8342 46.3438 93.8342 46.3438 95.718C46.9986 104.729 47.6098 112.616 48.1186 120.509C48.2454 122.476 48.4574 124.937 45.7542 125.56C43.4114 126.101 41.9652 124.95 41.6877 122.561C41.0341 116.941 40.5187 111.304 39.9369 105.675C39.7747 104.104 39.6174 102.53 39.3849 100.969C39.1016 99.0682 38.1132 98.7164 36.5342 98.6281C34.7942 98.5305 34.0223 99.8025 33.9109 101.094C33.488 105.988 33.1432 110.888 32.7131 115.781C32.5386 117.768 32.3109 119.759 31.9409 121.717C31.5994 123.525 30.5989 125.127 28.3435 125.035C26.156 124.945 25.2132 123.731 25.1513 121.556C24.9834 115.646 24.9188 109.736 25.2081 103.827C25.4676 98.5284 25.5775 88.9798 26.2077 83.6983C26.7597 78.8476 23.5756 75.8828 18.8516 71.6886C11.5638 65.2174 10.7516 56.8336 10.9072 48.0275C10.9373 46.2719 12.1489 45.3417 13.8901 45.3098C15.6471 45.2774 17.1793 45.5637 17.5769 47.7728C18.0815 50.576 18.5828 53.4041 18.7354 56.2257C18.8135 58.9538 20.3222 61.208 21.453 62.0175C26.0833 65.5587 26.9658 65.3514 31.2221 67.3809C32.9675 68.2126 37.1532 68.5265 40.3899 67.4049C40.3899 67.4049 46.1918 68.6391 49.994 71.4874C53.6341 74.214 55.9282 74.4936 59.5508 71.9851C60.748 71.1558 62.2591 69.7781 63.6855 69.3636C64.6319 69.0884 66.4217 70.0463 67.0933 71.0537C67.3885 71.4673 67.5468 71.963 67.5461 72.4712C67.5454 72.9794 67.3857 73.4747 67.0894 73.8875H67.0891Z" fill="#0D0D0D"/>
<path d="M66.3403 80.1595C66.7149 80.7104 67.275 80.4482 67.6511 80.1532C69.6445 78.5914 71.125 76.6904 71.3737 74.0356C69.9058 75.8377 68.7492 77.8477 66.7762 79.1588C66.4196 79.3966 66.0412 79.7204 66.3403 80.1595Z" fill="#0D0D0D"/>
<path d="M7.12034 45.3074C6.32259 47.4051 6.92962 49.4698 7.60482 51.5362C7.65528 49.4668 7.70534 47.3973 7.755 45.3279L7.12034 45.3074Z" fill="#0D0D0D"/>
<path d="M49.5655 125.808C49.2714 125.936 49.4399 126.472 49.7559 126.595C51.0072 127.081 52.2561 127.193 53.7113 126.068C52.0936 125.994 50.8594 125.245 49.5655 125.808Z" fill="#0D0D0D"/>
<path d="M28.6418 5.39612C28.8221 5.51926 29.0023 5.64391 29.1807 5.77246C29.0017 5.64491 28.8221 5.51946 28.6418 5.39612Z" fill="#3976EE"/>
<path d="M3.54951 31.1646C3.54741 31.1372 3.54471 31.1099 3.5426 31.0826C3.54531 31.1114 3.54951 31.1372 3.54951 31.1646Z" fill="#3976EE"/>
<path d="M11.4612 32.0758C19.4951 31.8701 27.3245 27.6276 29.9268 19.669C31.0248 16.0591 31.0127 12.2025 29.8923 8.59943C29.5487 7.50417 29.1307 6.43368 28.641 5.39552C23.7728 2.07178 18.4541 0.679945 12.3235 2.18172C3.79792 4.2686 0.542364 11.5228 1.52633 18.7292C2.04955 22.5594 3.04223 26.3126 3.45582 30.1602C5.91828 31.4683 8.67336 32.1275 11.4612 32.0758Z" fill="#3976EE"/>
<path d="M29.1807 5.77246C29.0005 5.64391 28.8221 5.51926 28.6419 5.39612C29.1316 6.43428 29.5496 7.50475 29.8931 8.60001C31.0136 12.2031 31.0257 16.0597 29.9277 19.6696C27.3254 27.6291 19.496 31.8707 11.4621 32.0764C8.67406 32.1279 5.91888 31.4683 3.45641 30.1599C3.48925 30.4668 3.51839 30.7743 3.54382 31.0823C3.54592 31.1096 3.54861 31.1369 3.55071 31.1643C3.57624 31.4874 3.59848 31.8109 3.61379 32.1356C3.68077 33.5407 2.64545 36.3691 2.64545 36.3691C4.94948 36.4998 6.25152 36.1261 7.67491 36.1436C13.3516 36.2129 18.9289 36.6746 23.9521 33.6449C34.6964 28.003 38.2773 14.1656 29.1807 5.77246Z" fill="#3976EE"/>
<path d="M31.761 6.34105C25.0484 0.0119503 18.5529 -1.54268 10.0633 1.51314C4.63411 3.46755 0.679317 7.7248 0.132069 13.6712C-0.235711 17.7937 0.166278 21.9485 1.31756 25.924C2.49736 30.0388 2.92987 34.1135 0.0230283 38.4074C4.52506 36.9825 8.67749 38.1584 12.7215 37.4081C14.2326 37.1278 14.6945 37.8547 14.7834 39.1441C14.9459 41.4992 12.3791 78.801 12.0502 84.3432C12.0108 85.0004 11.3894 86.3412 12.7236 86.3003C13.7688 86.2682 13.5258 85.0334 13.5505 84.2125C13.6165 82.0247 15.6653 47.0928 16.2236 38.2644C16.1167 36.9299 17.1661 37.4 18.0825 37.1729C25.8521 35.2479 30.79 31.8533 34.3273 24.7937C36.9353 18.4577 35.8056 10.1544 31.761 6.34105ZM23.9518 33.6452C18.9286 36.6749 13.3492 36.2133 7.67461 36.1439C6.25122 36.1265 4.94918 36.5001 2.64515 36.3694C2.64515 36.3694 3.68047 33.541 3.6135 32.1359C3.59818 31.8112 3.57594 31.4878 3.55041 31.1646C3.54831 31.1372 3.54561 31.1099 3.5435 31.0826C3.51827 30.7746 3.48913 30.4672 3.45609 30.1602C3.0425 26.3126 2.04984 22.5594 1.52662 18.7292C0.542657 11.5207 3.79821 4.26861 12.3238 2.18173C18.4544 0.679954 23.7731 2.07179 28.6412 5.39553C28.8215 5.51827 29.0011 5.64374 29.1801 5.77189C38.2773 14.1656 34.6964 28.003 23.9515 33.6452H23.9518Z" fill="#0D0D0D"/>
<path d="M37.8609 11.1918C37.0896 11.3975 37.1338 12.0929 37.3152 12.6464C38.9864 17.7419 38.2108 22.599 35.729 27.4483C36.2261 27.4483 36.3321 27.4822 36.3799 27.4434C36.5802 27.3016 36.7596 27.1325 36.913 26.9409C40.0592 22.3674 40.2106 17.3596 39.0389 12.1634C38.8971 11.533 38.6175 10.9896 37.8609 11.1918Z" fill="#0D0D0D"/>
</svg>
