<svg width="66" height="60" viewBox="0 0 66 60" fill="none" xmlns="http://www.w3.org/2000/svg">
<g clip-path="url(#clip0_994_75967)">
<path d="M60.3899 5.13672C60.2226 5.0438 60.036 4.98993 59.8444 4.97922V1.25837C59.8444 0.924817 59.7104 0.604929 59.4717 0.369074C59.233 0.13322 58.9094 0.000732422 58.5718 0.000732422H52.771C52.4335 0.000732422 52.1099 0.13322 51.8712 0.369074C51.6325 0.604929 51.4983 0.924817 51.4983 1.25837V4.97922C51.1746 4.99737 50.8701 5.13695 50.647 5.36945C50.4239 5.60196 50.299 5.90985 50.2979 6.23027V50.2731C50.2976 50.5784 50.4097 50.8735 50.6133 51.1031C50.8169 51.3328 51.0981 51.4814 51.4044 51.5212C52.5128 53.5784 53.9758 56.3009 54.3988 57.1063V58.7419C54.3988 58.907 54.4318 59.0706 54.4957 59.2232C54.5597 59.3757 54.6533 59.5144 54.7715 59.6312C54.8897 59.7479 55.03 59.8406 55.1844 59.9038C55.3389 59.967 55.5042 59.9995 55.6714 59.9995C55.8385 59.9995 56.004 59.967 56.1584 59.9038C56.3128 59.8406 56.4532 59.7479 56.5714 59.6312C56.6895 59.5144 56.7832 59.3757 56.8471 59.2232C56.9111 59.0706 56.9441 58.907 56.9441 58.7419V57.1016C57.3616 56.3021 58.8335 53.5736 59.9456 51.52C60.2503 51.4785 60.5295 51.3293 60.7315 51.1C60.9335 50.8708 61.0447 50.5771 61.0444 50.2731V7.92811C61.7682 8.18427 62.3912 8.66053 62.8239 9.28849C63.2566 9.91646 63.4767 10.6638 63.4527 11.4232V25.0561C63.4527 25.3896 63.5867 25.7095 63.8254 25.9454C64.064 26.1812 64.3878 26.3137 64.7254 26.3137C65.0629 26.3137 65.3865 26.1812 65.6252 25.9454C65.8639 25.7095 65.9979 25.3896 65.9979 25.0561V11.4238C65.9997 8.16765 63.7654 5.75776 60.3899 5.13672ZM52.8444 7.4909H58.4979V32.6618H52.8444V7.4909ZM57.2986 2.51662V4.97201H54.0443V2.51662H57.2986ZM58.0549 49.679C56.9695 51.6805 56.2065 53.089 55.6696 54.0892C55.1351 53.0884 54.3751 51.6799 53.2976 49.682C53.192 49.4855 53.0357 49.3202 52.8444 49.2029V35.1807H58.4979V49.2089C58.3114 49.325 58.1587 49.487 58.0549 49.679Z" fill="#6D7280"/>
<path d="M29.9161 20.4872H12.8186C12.4811 20.4872 12.1574 20.6197 11.9187 20.8555C11.6801 21.0914 11.5459 21.4113 11.5459 21.7448C11.5459 22.0784 11.6801 22.3983 11.9187 22.6341C12.1574 22.87 12.4811 23.0024 12.8186 23.0024H29.9161C30.2536 23.0024 30.5774 22.87 30.8161 22.6341C31.0547 22.3983 31.1888 22.0784 31.1888 21.7448C31.1888 21.4113 31.0547 21.0914 30.8161 20.8555C30.5774 20.6197 30.2536 20.4872 29.9161 20.4872Z" fill="#6D7280"/>
<path d="M12.8186 17.2707H19.0097C19.3472 17.2707 19.6709 17.1382 19.9095 16.9023C20.1482 16.6665 20.2822 16.3466 20.2822 16.013C20.2822 15.6795 20.1482 15.3596 19.9095 15.1237C19.6709 14.8879 19.3472 14.7554 19.0097 14.7554H12.8186C12.4811 14.7554 12.1574 14.8879 11.9187 15.1237C11.6801 15.3596 11.5459 15.6795 11.5459 16.013C11.5459 16.3466 11.6801 16.6665 11.9187 16.9023C12.1574 17.1382 12.4811 17.2707 12.8186 17.2707Z" fill="#6D7280"/>
<path d="M19.0097 42.4386H12.8186C12.4811 42.4386 12.1574 42.5711 11.9187 42.8069C11.6801 43.0428 11.5459 43.3627 11.5459 43.6962C11.5459 44.0298 11.6801 44.3497 11.9187 44.5855C12.1574 44.8214 12.4811 44.9539 12.8186 44.9539H19.0097C19.3472 44.9539 19.6709 44.8214 19.9095 44.5855C20.1482 44.3497 20.2822 44.0298 20.2822 43.6962C20.2822 43.3627 20.1482 43.0428 19.9095 42.8069C19.6709 42.5711 19.3472 42.4386 19.0097 42.4386Z" fill="#6D7280"/>
<path d="M12.8186 28.5295H27.4454C27.7829 28.5295 28.1066 28.3971 28.3452 28.1612C28.5839 27.9254 28.7181 27.6055 28.7181 27.2719C28.7181 26.9384 28.5839 26.6185 28.3452 26.3826C28.1066 26.1468 27.7829 26.0143 27.4454 26.0143H12.8186C12.4811 26.0143 12.1574 26.1468 11.9187 26.3826C11.6801 26.6185 11.5459 26.9384 11.5459 27.2719C11.5459 27.6055 11.6801 27.9254 11.9187 28.1612C12.1574 28.3971 12.4811 28.5295 12.8186 28.5295Z" fill="#6D7280"/>
<path d="M29.9161 31.4683H12.8186C12.4811 31.4683 12.1574 31.6007 11.9187 31.8366C11.6801 32.0725 11.5459 32.3923 11.5459 32.7259C11.5459 33.0594 11.6801 33.3793 11.9187 33.6152C12.1574 33.851 12.4811 33.9835 12.8186 33.9835H29.9161C30.2536 33.9835 30.5774 33.851 30.8161 33.6152C31.0547 33.3793 31.1888 33.0594 31.1888 32.7259C31.1888 32.3923 31.0547 32.0725 30.8161 31.8366C30.5774 31.6007 30.2536 31.4683 29.9161 31.4683Z" fill="#6D7280"/>
<path d="M46.9621 16.2897C46.9621 16.0954 46.9166 15.9038 46.8291 15.7299C46.7416 15.556 46.6146 15.4044 46.4579 15.2871L31.4893 0.494821C31.4091 0.41782 31.3187 0.351757 31.2208 0.298387C31.1959 0.284014 31.1711 0.270828 31.1456 0.258252C31.0496 0.210245 30.9478 0.17444 30.8426 0.151664H30.8281C30.7483 0.136037 30.667 0.127992 30.5856 0.127686H1.27269C0.93517 0.127686 0.611507 0.260209 0.372842 0.496064C0.134177 0.731919 0 1.05181 0 1.38536V58.6161C0 58.9497 0.134177 59.2696 0.372842 59.5054C0.611507 59.7413 0.93517 59.8738 1.27269 59.8738H45.6712C46.0087 59.8738 46.3324 59.7413 46.5711 59.5054C46.8097 59.2696 46.9439 58.9497 46.9439 58.6161V16.4562C46.9536 16.4011 46.9597 16.3455 46.9621 16.2897ZM42.5987 15.032H31.8607V4.41985L37.23 9.72596L42.5987 15.032ZM2.54835 57.3555V2.64058H29.3143V16.2897C29.3143 16.6232 29.4483 16.9431 29.687 17.179C29.9256 17.4148 30.2494 17.5473 30.587 17.5473H44.3987V57.3537L2.54835 57.3555Z" fill="#6D7280"/>
</g>
<defs>
<clipPath id="clip0_994_75967">
<rect width="66" height="60" fill="white"/>
</clipPath>
</defs>
</svg>
