<svg width="66" height="60" viewBox="0 0 66 60" fill="none" xmlns="http://www.w3.org/2000/svg">
<g clip-path="url(#clip0_766_39301)">
<path d="M60.3902 5.13672C60.2229 5.0438 60.0363 4.98993 59.8447 4.97922V1.25837C59.8447 0.924817 59.7107 0.604929 59.472 0.369074C59.2333 0.13322 58.9097 0.000732422 58.5721 0.000732422H52.7713C52.4338 0.000732422 52.1102 0.13322 51.8715 0.369074C51.6328 0.604929 51.4986 0.924817 51.4986 1.25837V4.97922C51.1749 4.99737 50.8704 5.13695 50.6473 5.36945C50.4242 5.60196 50.2993 5.90985 50.2982 6.23027V50.2731C50.2979 50.5784 50.41 50.8735 50.6136 51.1031C50.8172 51.3328 51.0984 51.4814 51.4047 51.5212C52.5131 53.5784 53.9761 56.3009 54.3991 57.1063V58.7419C54.3991 58.907 54.4321 59.0706 54.496 59.2232C54.56 59.3757 54.6536 59.5144 54.7718 59.6312C54.89 59.7479 55.0304 59.8406 55.1848 59.9038C55.3392 59.967 55.5045 59.9995 55.6717 59.9995C55.8388 59.9995 56.0043 59.967 56.1587 59.9038C56.3131 59.8406 56.4535 59.7479 56.5717 59.6312C56.6898 59.5144 56.7835 59.3757 56.8475 59.2232C56.9114 59.0706 56.9444 58.907 56.9444 58.7419V57.1016C57.3619 56.3021 58.8338 53.5736 59.9459 51.52C60.2506 51.4785 60.5298 51.3293 60.7318 51.1C60.9338 50.8708 61.045 50.5771 61.0447 50.2731V7.92811C61.7685 8.18427 62.3915 8.66053 62.8242 9.28849C63.2569 9.91646 63.477 10.6638 63.453 11.4232V25.0561C63.453 25.3896 63.587 25.7095 63.8257 25.9454C64.0643 26.1812 64.3881 26.3137 64.7257 26.3137C65.0632 26.3137 65.3868 26.1812 65.6255 25.9454C65.8642 25.7095 65.9982 25.3896 65.9982 25.0561V11.4238C66 8.16765 63.7657 5.75776 60.3902 5.13672ZM52.8447 7.4909H58.4982V32.6618H52.8447V7.4909ZM57.2989 2.51662V4.97201H54.0446V2.51662H57.2989ZM58.0552 49.679C56.9698 51.6805 56.2068 53.089 55.6699 54.0892C55.1354 53.0884 54.3754 51.6799 53.2979 49.682C53.1923 49.4855 53.036 49.3202 52.8447 49.2029V35.1807H58.4982V49.2089C58.3117 49.325 58.159 49.487 58.0552 49.679Z" fill="#6D7280"/>
<path d="M29.916 20.4872H12.8185C12.481 20.4872 12.1573 20.6197 11.9187 20.8555C11.68 21.0914 11.5458 21.4113 11.5458 21.7448C11.5458 22.0784 11.68 22.3983 11.9187 22.6341C12.1573 22.87 12.481 23.0024 12.8185 23.0024H29.916C30.2535 23.0024 30.5773 22.87 30.816 22.6341C31.0547 22.3983 31.1887 22.0784 31.1887 21.7448C31.1887 21.4113 31.0547 21.0914 30.816 20.8555C30.5773 20.6197 30.2535 20.4872 29.916 20.4872Z" fill="#6D7280"/>
<path d="M12.8185 17.2707H19.0096C19.3472 17.2707 19.6708 17.1382 19.9095 16.9023C20.1481 16.6665 20.2822 16.3466 20.2822 16.013C20.2822 15.6795 20.1481 15.3596 19.9095 15.1237C19.6708 14.8879 19.3472 14.7554 19.0096 14.7554H12.8185C12.481 14.7554 12.1573 14.8879 11.9187 15.1237C11.68 15.3596 11.5458 15.6795 11.5458 16.013C11.5458 16.3466 11.68 16.6665 11.9187 16.9023C12.1573 17.1382 12.481 17.2707 12.8185 17.2707Z" fill="#6D7280"/>
<path d="M19.0096 42.4386H12.8185C12.481 42.4386 12.1573 42.5711 11.9187 42.8069C11.68 43.0428 11.5458 43.3627 11.5458 43.6962C11.5458 44.0298 11.68 44.3497 11.9187 44.5855C12.1573 44.8214 12.481 44.9539 12.8185 44.9539H19.0096C19.3472 44.9539 19.6708 44.8214 19.9095 44.5855C20.1481 44.3497 20.2822 44.0298 20.2822 43.6962C20.2822 43.3627 20.1481 43.0428 19.9095 42.8069C19.6708 42.5711 19.3472 42.4386 19.0096 42.4386Z" fill="#6D7280"/>
<path d="M12.8185 28.5295H27.4453C27.7829 28.5295 28.1065 28.3971 28.3452 28.1612C28.5838 27.9254 28.718 27.6055 28.718 27.2719C28.718 26.9384 28.5838 26.6185 28.3452 26.3826C28.1065 26.1468 27.7829 26.0143 27.4453 26.0143H12.8185C12.481 26.0143 12.1573 26.1468 11.9187 26.3826C11.68 26.6185 11.5458 26.9384 11.5458 27.2719C11.5458 27.6055 11.68 27.9254 11.9187 28.1612C12.1573 28.3971 12.481 28.5295 12.8185 28.5295Z" fill="#6D7280"/>
<path d="M29.916 31.4683H12.8185C12.481 31.4683 12.1573 31.6007 11.9187 31.8366C11.68 32.0725 11.5458 32.3923 11.5458 32.7259C11.5458 33.0594 11.68 33.3793 11.9187 33.6152C12.1573 33.851 12.481 33.9835 12.8185 33.9835H29.916C30.2535 33.9835 30.5773 33.851 30.816 33.6152C31.0547 33.3793 31.1887 33.0594 31.1887 32.7259C31.1887 32.3923 31.0547 32.0725 30.816 31.8366C30.5773 31.6007 30.2535 31.4683 29.916 31.4683Z" fill="#6D7280"/>
<path d="M46.9621 16.2897C46.9621 16.0954 46.9166 15.9038 46.8291 15.7299C46.7416 15.556 46.6146 15.4044 46.4579 15.2871L31.4893 0.494821C31.4091 0.41782 31.3187 0.351757 31.2208 0.298387C31.1959 0.284014 31.1711 0.270828 31.1456 0.258252C31.0496 0.210245 30.9478 0.17444 30.8426 0.151664H30.8281C30.7483 0.136037 30.667 0.127992 30.5856 0.127686H1.27269C0.93517 0.127686 0.611507 0.260209 0.372842 0.496064C0.134177 0.731919 0 1.05181 0 1.38536V58.6161C0 58.9497 0.134177 59.2696 0.372842 59.5054C0.611507 59.7413 0.93517 59.8738 1.27269 59.8738H45.6712C46.0087 59.8738 46.3324 59.7413 46.5711 59.5054C46.8097 59.2696 46.9439 58.9497 46.9439 58.6161V16.4562C46.9536 16.4011 46.9597 16.3455 46.9621 16.2897ZM42.5987 15.032H31.8607V4.41985L37.23 9.72596L42.5987 15.032ZM2.54835 57.3555V2.64058H29.3143V16.2897C29.3143 16.6232 29.4483 16.9431 29.687 17.179C29.9256 17.4148 30.2494 17.5473 30.587 17.5473H44.3987V57.3537L2.54835 57.3555Z" fill="#6D7280"/>
</g>
<defs>
<clipPath id="clip0_766_39301">
<rect width="66" height="60" fill="white"/>
</clipPath>
</defs>
</svg>
