<svg width="56" height="133" viewBox="0 0 56 133" fill="none" xmlns="http://www.w3.org/2000/svg">
<path d="M52.6884 98.8217C51.9483 98.1366 46.9096 94.575 46.1464 91.433C45.5997 89.1824 43.5516 85.674 42.5321 83.5802C40.8766 80.1792 38.4443 77.2427 34.6694 76.3888C29.5721 75.2375 25.4527 72.3363 21.0723 69.8479C19.9634 69.2171 19.591 68.3957 19.9036 67.1297C20.5575 64.4811 21.115 61.8089 21.7175 59.1474C21.9983 57.9072 21.8322 56.8046 20.7239 56.0207C20.1467 55.6211 19.4756 55.3782 18.7763 55.316C18.077 55.2538 17.3736 55.3743 16.7349 55.6657C15.0397 56.5313 14.4222 58.1824 13.9812 60.0115C13.4893 62.0564 13.2303 64.1667 12.7582 66.1989C11.652 70.9631 12.5158 74.5614 16.986 77.3196C19.5525 78.903 20.7236 81.5999 20.3055 85.0159C19.7547 89.5212 19.0668 93.9992 17.9327 98.3637C15.3776 108.199 15.2487 113.81 20.1082 126.995C20.7711 128.688 21.8836 129.794 23.8362 129.465C25.9324 129.112 26.3246 127.499 26.1844 125.749C25.8966 122.168 25.4834 120.6 24.2955 117.219C23.085 113.77 23.7148 108.625 24.8799 105.451C25.3157 104.264 26.3952 103.42 27.5744 103.541C28.7702 103.663 29.1615 104.987 29.2976 106.062C29.5027 107.682 29.4985 111.31 29.5832 112.944C29.248 118.898 32.737 129.012 33.1136 129.497C33.9528 130.581 35.563 130.759 36.7509 130.503C38.1283 130.207 39.2201 128.834 39.0871 127.866C38.7903 125.708 35.2485 114.553 35.603 110.869C36.1003 105.68 36.3619 100.53 37.16 95.3706C37.2453 94.8189 36.9591 91.0975 37.7196 90.8758C38.4617 90.6593 40.4933 95.8476 40.8685 96.3159C43.2341 99.269 44.3265 100.125 47.4949 102.167C48.7901 103.002 50.1281 103.456 51.6867 102.959C53.955 102.235 54.4236 100.428 52.6884 98.8217Z" fill="white"/>
<path d="M35.6673 75.0381C39.2157 75.0426 43.0212 70.6111 42.9245 66.3073C42.8133 61.3644 39.3247 58.8669 34.7448 58.4785C30.6201 58.1289 26.9449 61.9762 26.9212 66.3917C26.8927 71.7822 30.5747 75.0314 35.6673 75.0381Z" fill="white"/>
<path d="M52.8082 96.9713C52.1264 96.4528 51.3857 96.0101 50.7057 95.4905C48.9565 94.1491 47.1345 91.3414 46.4542 89.1554C44.8672 84.0557 43.3104 80.3886 38.8183 76.9964C37.8067 76.2326 38.1983 76.0605 39.0285 75.5547C41.2887 74.1784 43.0978 72.2135 43.9904 69.8206C46.3077 63.6065 40.9616 56.458 33.3278 57.1047C28.4749 57.5156 22.4954 63.8156 26.9665 71.4143C25.8252 70.6998 24.6266 70.0812 23.383 69.565C21.1702 68.736 20.9979 67.2922 21.6175 65.2789C22.3507 62.8965 23.1091 60.4411 23.0862 57.9268C23.0628 55.3347 20.605 53.9062 18.0249 53.9969C15.4908 54.087 13.9101 55.9598 13.0369 58.8008C12.0704 61.9477 11.8139 65.2383 11.1546 68.4422C10.3818 72.1967 11.3862 74.8699 14.5901 77.0303C18.3475 79.5659 19.6832 82.401 18.5986 87.0941C17.3014 92.7074 16.5072 98.4352 15.316 104.076C13.5262 112.55 16.7484 120.875 19.3576 128.604C19.9583 130.382 22.3311 131.005 24.2534 130.636C27.0338 130.102 27.9523 127.564 27.351 124.398C26.7253 121.106 26.1826 119.335 25.1998 116.116C24.3916 113.468 24.9295 109.311 25.9066 106.773C26.1988 106.014 26.246 104.872 27.3116 105.08C28.2746 105.268 28.1301 106.38 28.1466 107.217C28.1728 108.539 28.3082 109.869 28.1914 111.189C28.1038 113.489 28.2631 115.791 28.6665 118.057C29.6634 122.388 30.2806 124.505 31.328 128.824C31.7067 130.386 32.6451 131.45 34.2213 131.888C37.7851 132.879 40.6955 130.397 39.8641 126.336C38.4326 119.348 36.4037 114.347 36.9384 109.169C37.5325 105.289 38.2359 97.9357 38.3371 94.3876C38.9525 94.3753 39.7355 97.0854 39.9209 97.3404C42.2814 100.592 44.9912 102.365 48.4248 104.196C50.5327 105.32 53.3831 104.388 54.3968 102.57C55.652 100.32 55.2315 98.8112 52.8082 96.9713ZM26.9212 66.3929C26.9449 61.9777 30.62 58.1301 34.7448 58.4797C39.3247 58.8681 42.8133 61.3656 42.9244 66.3085C43.0211 70.6123 39.2156 75.0438 35.6672 75.0393C30.5747 75.0315 26.8926 71.7822 26.9212 66.3917V66.3929ZM51.6858 102.96C50.1273 103.457 48.7892 103.003 47.494 102.169C44.3256 100.126 43.2332 99.2702 40.8676 96.3171C40.4924 95.8488 38.4608 90.6605 37.7187 90.877C36.9581 91.0987 37.2444 94.8201 37.1591 95.3719C36.3611 100.53 36.0994 105.679 35.602 110.87C35.2488 114.554 38.7907 125.71 39.0862 127.867C39.2193 128.835 38.1274 130.208 36.75 130.504C35.5621 130.76 33.9519 130.582 33.1127 129.498C32.737 129.013 29.2471 118.9 29.5823 112.946C29.4976 111.311 29.5018 107.683 29.2967 106.064C29.1606 104.988 28.7693 103.665 27.5735 103.542C26.3943 103.422 25.3149 104.265 24.8791 105.453C23.714 108.626 23.0841 113.773 24.2946 117.22C25.4825 120.603 25.8958 122.17 26.1835 125.75C26.3238 127.5 25.9315 129.114 23.8353 129.466C21.883 129.795 20.7717 128.689 20.1073 126.996C15.2479 113.81 15.3767 108.2 17.9318 98.3649C19.0657 94.0004 19.7535 89.5218 20.3046 85.0171C20.7227 81.6011 19.5516 78.9042 16.9851 77.3208C12.5149 74.5626 11.6511 70.9643 12.7573 66.2001C13.2291 64.1682 13.4884 62.0579 13.9803 60.0128C14.4207 58.1836 15.0388 56.5325 16.734 55.6669C17.3727 55.3755 18.0762 55.255 18.7754 55.3172C19.4747 55.3795 20.1458 55.6223 20.723 56.0219C21.8313 56.8071 21.9974 57.9085 21.7166 59.1486C21.1141 61.8101 20.5566 64.4824 19.9028 67.1309C19.5901 68.3969 19.9628 69.2193 21.0714 69.8491C25.4518 72.3376 29.5715 75.2387 34.6686 76.39C38.4434 77.2427 40.8757 80.1805 42.5313 83.5814C43.5507 85.6752 45.5988 89.1836 46.1454 91.4342C46.9086 94.5762 51.9474 98.1379 52.6875 98.823C54.4236 100.428 53.955 102.235 51.6873 102.959L51.6858 102.96Z" fill="#0D0D0D"/>
<path d="M8.21711 71.0506C8.2961 70.6021 8.35796 70.041 7.65933 70.0474C7.05231 70.0528 6.95351 70.5682 6.93579 71.044C6.8634 72.9864 7.33736 74.6867 9.23231 75.7295C8.65503 74.1899 7.91825 72.7449 8.21711 71.0506Z" fill="#0D0D0D"/>
<path d="M45.6165 106.454C45.4315 106.978 45.9364 107.316 46.3416 107.504C47.0902 107.879 47.9234 108.052 48.7593 108.007C49.5952 107.962 50.4049 107.7 51.1088 107.247C49.5941 107.042 48.1017 107.106 46.7693 106.293C46.3548 106.04 45.8274 105.858 45.6165 106.454Z" fill="#0D0D0D"/>
<path d="M42.0654 131.717C41.9982 131.795 41.9493 131.887 41.9221 131.986C41.895 132.086 41.8904 132.19 41.9086 132.291C43.0052 133.105 44.2244 132.723 45.4153 132.595C45.4546 132.59 45.4829 132.485 45.6931 132.116C44.4007 131.808 43.3338 130.958 42.0654 131.717Z" fill="#0D0D0D"/>
<path d="M16.2453 131.348C15.7771 131.34 15.2157 131.368 15.2358 131.973C15.2565 132.594 15.8161 132.554 16.2841 132.5C17.3398 132.38 18.3953 132.254 19.8998 132.078C18.5172 131.066 17.3524 131.366 16.2453 131.348Z" fill="#0D0D0D"/>
<path d="M17.286 31.4579C16.8285 30.9632 16.376 30.4647 15.9287 29.9625C16.3764 30.4647 16.8289 30.9632 17.286 31.4579Z" fill="#F9D056"/>
<path d="M18.9479 33.2147C18.4579 32.7089 17.974 32.1983 17.4963 31.6829C17.9744 32.1975 18.4583 32.7081 18.9479 33.2147Z" fill="#F9D056"/>
<path d="M21.2973 27.5725C24.3521 27.1902 27.2699 26.0775 29.8037 24.3287C31.7458 22.9576 33.5478 21.3982 35.1836 19.6732C37.7634 17 39.956 13.9745 42.169 11.0001C43.1509 9.68034 44.1298 8.33204 45.1576 7.02339C45.2128 7.13753 45.2664 7.25338 45.3182 7.37092C43.3359 2.81151 38.5942 1.38092 35.9111 1.81673C35.5065 1.89479 35.1413 2.11016 34.8773 2.42645C30.9375 7.52769 27.035 12.6599 23.7205 18.1999C23.1556 19.1437 22.8621 20.2913 21.5279 20.3274C20.2935 20.3604 19.9186 19.2524 19.3984 18.4378C17.6281 15.6646 15.4337 13.2293 13.367 10.6886C12.098 9.12919 10.5998 9.3854 9.37675 10.3934C7.57191 11.8811 3.3324 15.2369 5.71092 16.7444C8.32953 20.6439 11.1638 24.3942 14.2004 27.9777C13.7385 27.4343 13.2812 26.887 12.8284 26.336C15.4944 27.4825 18.4148 27.9089 21.2973 27.5725Z" fill="#FF5970"/>
<path d="M15.6953 29.6999C15.2446 29.1907 14.7984 28.6781 14.3566 28.1621C14.7978 28.6787 15.244 29.1913 15.6953 29.6999Z" fill="#F9D056"/>
<path d="M43.5798 11.1209C44.2529 10.2618 44.8987 9.38149 45.5661 8.49904C45.5661 8.24714 45.5358 7.99613 45.4759 7.75145C45.4258 7.6223 45.3726 7.49675 45.3185 7.3721C45.2667 7.25476 45.2131 7.13893 45.1579 7.0246C44.1301 8.33325 43.1512 9.68154 42.1693 11.0013C39.9563 13.9748 37.7637 17.0015 35.184 19.6744C33.5481 21.3994 31.7461 22.9588 29.804 24.3299C27.2702 26.0787 24.3524 27.1914 21.2976 27.5738C18.4155 27.9104 15.4955 27.4845 12.8297 26.3387C13.2818 26.8903 13.7391 27.4376 14.2017 27.9804C14.2536 28.0405 14.305 28.1027 14.3569 28.1633C14.7975 28.68 15.2437 29.1926 15.6956 29.7012C15.7734 29.7889 15.8509 29.8763 15.929 29.9637C16.3767 30.4659 16.8292 30.9644 17.2863 31.4592C17.3557 31.5342 17.426 31.6093 17.4966 31.6835C17.9753 32.1983 18.4592 32.7089 18.9482 33.2153C21.7676 36.1288 22.2128 36.2162 24.9643 33.3322C31.6433 26.33 37.6192 18.7286 43.5798 11.1209Z" fill="#FF5970"/>
<path d="M46.17 10.1197C47.7319 8.52545 46.8858 4.96473 43.596 2.89077C37.7745 -0.705991 34.9388 -0.274085 34.3234 0.635993C30.5089 6.27397 26.1837 11.5578 22.662 17.401C21.9712 18.5468 21.4249 18.4807 20.6632 17.4064C19.1059 15.2087 17.4566 13.0752 15.8208 10.934C14.9045 9.73468 13.895 8.62456 12.5584 8.02535C12.1061 8.04247 11.7652 8.02535 11.4336 8.0722C8.82768 8.44134 3.72913 13.2065 3.17708 15.7082C3.03261 16.3626 5.3883 19.2394 6.15571 20.315C10.2141 26.004 14.6774 31.3558 19.7618 36.1396C20.7939 37.1106 21.0461 37.7993 20.8014 39.0611C19.4546 46.0033 10.7851 91.1498 9.47583 98.0994C9.35178 98.7569 9.01238 99.6694 9.77618 99.8805C10.5844 100.104 10.7914 99.1897 10.8455 98.5064C11.2467 93.4496 19.9907 50.3713 20.8972 45.4053C21.6324 41.3772 22.7464 37.3929 22.7464 37.3929C28.8491 32.3067 39.9058 18.0308 46.17 10.1197ZM18.9479 33.2147C18.4579 32.7089 17.974 32.1983 17.4962 31.6829C17.4266 31.6081 17.3563 31.5327 17.286 31.4585C16.8285 30.9637 16.376 30.4652 15.9287 29.963C15.8506 29.8756 15.7731 29.7882 15.6953 29.7005C15.2446 29.1913 14.7983 28.6787 14.3566 28.1627C14.3047 28.1027 14.2533 28.0405 14.2013 27.9798C11.1646 24.3963 8.33038 20.646 5.71177 16.7465C3.33325 15.239 7.574 11.8831 9.37764 10.3955C10.6007 9.38748 12.0988 9.13126 13.3678 10.6907C15.4349 13.2302 17.629 15.6655 19.3993 18.4399C19.9195 19.2545 20.2944 20.3622 21.5288 20.3294C22.8621 20.2934 23.1556 19.1457 23.7214 18.202C27.0359 12.6619 30.9384 7.52977 34.8781 2.42852C35.1422 2.11224 35.5074 1.89685 35.912 1.81879C38.595 1.38298 43.3353 2.81357 45.3191 7.37297C45.3732 7.49762 45.4263 7.62317 45.4765 7.75232C45.5364 7.99701 45.5667 8.24801 45.5666 8.49992C44.8992 9.38236 44.2534 10.2627 43.5803 11.1217C37.6198 18.7306 31.6439 26.3308 24.9637 33.3324C22.2115 36.2156 21.7664 36.1279 18.9479 33.2147Z" fill="#0D0D0D"/>
<path d="M7.98489 5.39846C8.48138 5.22575 9.65007 5.23146 9.11243 4.22437C8.69854 3.44915 7.90259 4.06518 7.31239 4.28835C3.06746 5.89465 1.065 9.31689 -6.10352e-05 13.4537C2.38236 10.4637 3.97634 6.79211 7.98489 5.39846Z" fill="#0D0D0D"/>
</svg>
