<svg width="99" height="99" viewBox="0 0 99 99" fill="none" xmlns="http://www.w3.org/2000/svg">
<g clip-path="url(#clip0_1007_58138)">
<path d="M38.5888 82.4653C38.4624 82.3386 38.3633 82.1874 38.2977 82.0208L33.9443 70.9653L32.3427 71.196L32.2732 71.2114L30.6501 71.4397L28.6008 71.7371C28.4008 71.7665 28.1967 71.7486 28.0049 71.6851C27.813 71.6216 27.6388 71.5141 27.4959 71.3712C27.353 71.2283 27.2455 71.054 27.1819 70.8621C27.1184 70.6703 27.1006 70.4662 27.1299 70.2662L27.4427 68.114L27.4563 68.0372L27.9098 64.9326L16.8403 60.567C16.6075 60.4751 16.4062 60.3179 16.2607 60.1142C16.1151 59.9106 16.0315 59.6693 16.0199 59.4193C16.0083 59.1693 16.0692 58.9213 16.1952 58.705C16.3212 58.4888 16.507 58.3135 16.7303 58.2003C21.0182 56.0236 27.0152 53.4818 29.8044 53.4809C30.3637 53.4896 30.9222 53.5297 31.477 53.601L31.9811 53.6601L32.2023 53.2025C33.9444 49.5865 40.3739 36.9632 49.9666 26.3153C62.1788 12.7591 74.4152 7.83923 86.3358 11.6921C86.5311 11.7556 86.7086 11.8644 86.8537 12.0096C86.9989 12.1548 87.1077 12.3323 87.1713 12.5275C91.0278 24.4509 86.1116 36.6884 72.5613 48.901C61.9134 58.4964 49.2891 64.9267 45.6754 66.6702L45.2178 66.8913L45.2774 67.3959C45.3472 67.9513 45.3859 68.5101 45.3933 69.0698C45.3933 71.7777 43.0234 77.4503 40.8057 81.8552L40.7795 81.9075L40.7624 81.9617C40.7 82.159 40.5905 82.3383 40.4434 82.4839C40.1997 82.7269 39.8695 82.8633 39.5254 82.8633C39.1812 82.8633 38.851 82.7268 38.6073 82.4838L38.5888 82.4653ZM32.4591 59.8607L32.061 61.0567L31.6115 62.463L31.3335 63.3728L31.0614 64.2994L30.7968 65.2381C30.7368 65.4588 30.5522 66.1669 30.5522 66.1669C30.4949 66.393 30.3261 67.08 30.3261 67.08C30.2715 67.3088 30.2218 67.5317 30.1722 67.7529L29.9128 68.9259L31.8037 68.6595L31.8489 68.6496C34.6477 67.9259 37.4054 67.052 40.1102 66.0315L41.4105 65.5627L40.2749 64.7738C37.8521 63.1145 35.7579 61.0203 34.0987 58.5975L33.2976 57.4434L32.4591 59.8607ZM30.0418 56.0823L29.8197 56.0786C28.061 56.0782 24.2366 57.6263 22.1149 58.5484L20.5353 59.2344L28.8784 62.5226L29.1712 61.5753C29.271 61.258 29.5498 60.3914 29.5498 60.3914C29.8143 59.5854 30.0716 58.82 30.3162 58.116L30.9887 56.215L30.0418 56.0823ZM40.256 68.7336C39.8125 68.8918 39.3627 69.0498 38.9066 69.2075L38.1912 69.4552L37.0936 69.8245L36.3761 70.0609L39.6368 78.3376L40.3242 76.7639C41.4516 74.1851 42.7955 70.7568 42.7973 69.0707L42.764 67.8279L40.256 68.7336ZM46.2987 35.0704C41.911 41.0376 38.0372 47.3662 34.7192 53.9882L34.5586 54.3113L34.7242 54.6322C36.8225 58.7256 40.1536 62.0567 44.247 64.155L44.5684 64.3202L44.8915 64.1604C51.5131 60.8427 57.841 56.9683 63.8066 52.5792L64.6781 51.9316L63.7389 51.3886C56.9621 47.5273 51.3488 41.914 47.4874 35.1371L46.9436 34.197L46.2987 35.0704ZM50.7793 29.4578C50.1737 30.1597 49.5817 30.8678 49.0034 31.5821L48.7083 31.9459L48.9254 32.3607C52.8301 39.903 58.9766 46.0496 66.519 49.9543L66.9342 50.1709L67.298 49.8758C68.0114 49.2979 68.7197 48.7054 69.4228 48.0986L70.1887 47.4383L69.3086 46.9382C62.0304 42.8583 56.0201 36.848 51.9402 29.5698L51.4397 28.6892L50.7793 29.4578ZM84.5103 13.859C74.5701 11.1398 64.1934 15.3171 53.6691 26.2773L53.3153 26.6457L53.5545 27.1006C57.6134 34.9018 63.9757 41.2641 71.7769 45.3229L72.2327 45.5613L72.6014 45.2078C83.5575 34.6813 87.7336 24.2988 85.0117 14.3567L84.9048 13.9646L84.5103 13.859Z" fill="#6D7280"/>
<path d="M72.5739 26.2959C70.2135 23.9355 69.2915 22.3284 69.5858 21.0837C69.6649 20.7521 69.8304 20.4474 70.0653 20.2004C70.3002 19.9535 70.5963 19.773 70.9235 19.6774C73.6703 19.0135 76.4516 18.5019 79.2548 18.1447L79.2503 18.1493C79.2706 18.1507 79.291 18.1499 79.3112 18.147C79.356 18.1426 79.4011 18.1409 79.4462 18.142C79.4885 18.1414 79.5308 18.143 79.573 18.147L79.6339 18.1511L79.6876 18.1659C79.734 18.1736 79.7798 18.1845 79.8248 18.1984C79.8644 18.2107 79.9034 18.225 79.9417 18.2413C79.9832 18.2593 80.0206 18.2769 80.0572 18.2972C80.0937 18.3175 80.1321 18.3397 80.1669 18.3627C80.2016 18.3857 80.2323 18.4101 80.2652 18.4367C80.2982 18.4633 80.3271 18.4905 80.356 18.5193C80.3849 18.5482 80.4147 18.578 80.4422 18.6136C80.4697 18.6493 80.4936 18.6804 80.5198 18.7165C80.546 18.7526 80.5631 18.7851 80.5834 18.8235C80.6023 18.8579 80.6193 18.8935 80.634 18.93C80.6513 18.9683 80.6662 19.0076 80.6786 19.0478C80.6919 19.0914 80.7028 19.1357 80.7112 19.1805L80.727 19.2478L80.7315 19.3037C80.7364 19.3493 80.7369 19.3939 80.7373 19.4395C80.7378 19.4851 80.7346 19.527 80.7314 19.5708L80.7265 19.6742C80.5726 20.7308 79.7408 26.3338 79.1992 27.955C79.1012 28.2807 78.9199 28.5752 78.6733 28.8095C78.4267 29.0437 78.1233 29.2097 77.793 29.2909C76.5442 29.5811 74.937 28.659 72.5739 26.2959ZM76.9238 21.1338C75.9489 21.2909 74.5466 21.5251 73.4026 21.7512L72.248 21.9795L72.985 22.897C73.889 23.984 74.8908 24.9858 75.9778 25.8898L76.8957 26.6272L77.1236 25.4714C77.3475 24.3322 77.583 22.9277 77.741 21.951L77.899 20.9753L76.9238 21.1338Z" fill="#6D7280"/>
<path d="M12.0131 86.8568C11.7701 86.6132 11.6336 86.2833 11.6336 85.9392C11.6336 85.5952 11.7701 85.2652 12.0131 85.0217L21.6465 75.3884C21.8899 75.1449 22.2201 75.0081 22.5644 75.0081C22.9087 75.0081 23.2389 75.1449 23.4824 75.3883C23.7259 75.6318 23.8626 75.962 23.8626 76.3063C23.8626 76.6506 23.7258 76.9808 23.4824 77.2243L13.849 86.8576C13.6053 87.1006 13.2751 87.2371 12.9309 87.2369C12.5867 87.2368 12.2566 87.1 12.0131 86.8568Z" fill="#6D7280"/>
<path d="M20.8031 89.0073C20.5601 88.7636 20.4236 88.4334 20.4236 88.0892C20.4236 87.7451 20.56 87.415 20.803 87.1712L30.4364 77.5379C30.6816 77.3033 31.0089 77.1741 31.3482 77.1779C31.6875 77.1816 32.0118 77.318 32.2517 77.558C32.4917 77.7979 32.6282 78.1223 32.6319 78.4616C32.6357 78.8009 32.5065 79.1282 32.2719 79.3734L22.6386 89.0068C22.395 89.2499 22.065 89.3864 21.7209 89.3865C21.3768 89.3866 21.0468 89.2502 20.8031 89.0073Z" fill="#6D7280"/>
<path d="M9.86742 78.0718C9.62443 77.8281 9.48803 77.498 9.48803 77.1539C9.48803 76.8097 9.62446 76.4796 9.86745 76.2359L19.5008 66.6025C19.746 66.368 20.0733 66.2388 20.4126 66.2425C20.7519 66.2463 21.0762 66.3827 21.3162 66.6226C21.5561 66.8626 21.6926 67.187 21.6964 67.5263C21.7001 67.8656 21.5709 68.1929 21.3364 68.4381L11.703 78.0714C11.4595 78.3145 11.1294 78.451 10.7853 78.4511C10.4412 78.4511 10.1111 78.3148 9.86742 78.0718Z" fill="#6D7280"/>
</g>
<defs>
<clipPath id="clip0_1007_58138">
<rect width="34" height="105.845" fill="white" transform="translate(74.8438) rotate(45)"/>
</clipPath>
</defs>
</svg>
