<svg width="80" height="55" viewBox="0 0 80 55" fill="none" xmlns="http://www.w3.org/2000/svg">
<g clip-path="url(#clip0_1007_58112)">
<path d="M51.3544 40.3862C53.9908 37.2751 55.3177 33.2706 55.058 29.209C54.7982 25.1474 52.9719 21.3427 49.9604 18.5893C46.9489 15.836 42.985 14.347 38.8965 14.4332C34.8081 14.5195 30.9112 16.1743 28.0196 19.0521C25.1279 21.9299 23.4652 25.8082 23.3786 29.8771C23.2919 33.9461 24.7881 37.891 27.5546 40.8882C30.3212 43.8853 34.1441 45.7029 38.2252 45.9614C42.3064 46.2199 46.33 44.8994 49.456 42.2755L54.5147 47.3107C54.7665 47.5613 55.1081 47.7021 55.4642 47.7021C55.8204 47.7021 56.1618 47.5613 56.4137 47.3107C56.6655 47.06 56.807 46.7201 56.807 46.3657C56.807 46.0113 56.6655 45.6714 56.4137 45.4207L51.3544 40.3862ZM26.11 30.2362C26.106 28.0948 26.6301 25.9851 27.6364 24.0923C28.6427 22.1995 30.1006 20.5814 31.8818 19.38C33.663 18.1787 35.7133 17.4308 37.8527 17.2021C39.9921 16.9733 42.1552 17.2705 44.1522 18.0678C46.1492 18.8651 47.9191 20.138 49.3066 21.7749C50.694 23.4117 51.6565 25.3624 52.1097 27.4558C52.5629 29.5492 52.4929 31.7213 51.9058 33.7815C51.3188 35.8417 50.2327 37.727 48.7428 39.272C48.5783 39.3749 48.4392 39.5133 48.3359 39.6769C46.4783 41.4531 44.1368 42.6462 41.603 43.1076C39.0691 43.5691 36.4548 43.2786 34.0856 42.2723C31.7164 41.2659 29.697 39.5882 28.2789 37.4481C26.8607 35.3079 26.1064 32.7999 26.11 30.2362Z" fill="#6D7280"/>
<path d="M39.2529 21.4408C39.0765 21.4407 38.9019 21.4752 38.7389 21.5423C38.576 21.6095 38.4279 21.7079 38.3032 21.832C38.1785 21.9561 38.0797 22.1035 38.0122 22.2656C37.9448 22.4278 37.9101 22.6016 37.9102 22.7771V35.4655C37.9102 35.82 38.0516 36.1598 38.3034 36.4104C38.5552 36.661 38.8968 36.8018 39.2529 36.8018C39.609 36.8018 39.9505 36.661 40.2023 36.4104C40.4541 36.1598 40.5956 35.82 40.5956 35.4655V22.7771C40.5956 22.4227 40.4541 22.0828 40.2023 21.8322C39.9505 21.5816 39.609 21.4408 39.2529 21.4408Z" fill="#6D7280"/>
<path d="M44.8525 24.9302C44.6762 24.9301 44.5015 24.9646 44.3386 25.0317C44.1757 25.0988 44.0275 25.1973 43.9028 25.3214C43.7781 25.4455 43.6793 25.5928 43.6118 25.755C43.5444 25.9172 43.5097 26.091 43.5098 26.2665V35.4655C43.5098 35.8199 43.6513 36.1598 43.9031 36.4104C44.1549 36.661 44.4964 36.8018 44.8525 36.8018C45.2086 36.8018 45.5501 36.661 45.8019 36.4104C46.0537 36.1598 46.1952 35.8199 46.1952 35.4655V26.2665C46.1952 25.9121 46.0537 25.5722 45.8019 25.3216C45.5501 25.071 45.2086 24.9302 44.8525 24.9302Z" fill="#6D7280"/>
<path d="M33.9091 28.7373C33.5531 28.7375 33.2116 28.8783 32.9599 29.1289C32.7081 29.3795 32.5666 29.7192 32.5664 30.0736V35.4662C32.5664 35.8206 32.7079 36.1605 32.9597 36.4111C33.2115 36.6617 33.553 36.8025 33.9091 36.8025C34.2653 36.8025 34.6068 36.6617 34.8586 36.4111C35.1104 36.1605 35.2518 35.8206 35.2518 35.4662V30.0736C35.2518 29.7192 35.1104 29.3793 34.8586 29.1287C34.6068 28.8781 34.2653 28.7373 33.9091 28.7373Z" fill="#6D7280"/>
<path d="M77.7198 0H1.34274C0.986635 0 0.645114 0.140788 0.393308 0.391392C0.141502 0.641996 0 0.981886 0 1.33629V53.6618C0 54.0162 0.141502 54.3561 0.393308 54.6067C0.645114 54.8573 0.986635 54.9981 1.34274 54.9981H77.7198C78.0759 54.9981 78.4174 54.8573 78.6692 54.6067C78.9211 54.3561 79.0625 54.0162 79.0625 53.6618V1.33629C79.0625 0.981886 78.9211 0.641996 78.6692 0.391392C78.4174 0.140788 78.0759 0 77.7198 0ZM76.3771 2.67322V8.41068H2.68541V2.67322H76.3771ZM2.68541 52.3274V11.0845H76.3771V52.3287L2.68541 52.3274Z" fill="#6D7280"/>
</g>
<defs>
<clipPath id="clip0_1007_58112">
<rect width="79.0625" height="55" fill="white"/>
</clipPath>
</defs>
</svg>
