<svg width="64" height="135" viewBox="0 0 64 135" fill="none" xmlns="http://www.w3.org/2000/svg">
<path d="M21.785 65.9501C22.404 60.966 19.3037 57.2329 13.7399 56.9034C9.28444 56.6397 5.54471 59.8298 5.24285 64.0663C4.91786 68.6338 8.05538 73.0521 12.3343 73.4515C18.9136 74.0643 21.2194 70.502 21.785 65.9501Z" fill="white"/>
<path d="M37.1641 15.8468C41.9886 14.0933 46.6083 11.821 50.9421 9.0699C51.6095 8.63769 52.2702 8.19197 52.9274 7.74054C53.4312 7.97682 53.9337 8.21709 54.4349 8.46138C49.7516 6.16848 44.8977 4.24214 39.9166 2.69966C37.7069 2.01365 37.2164 2.75283 37.3068 4.68532C37.3305 5.18962 37.3032 5.69632 37.3284 6.20032C37.3885 7.38432 36.8034 7.6288 35.66 7.86278C28.1093 9.40871 21.9232 10.402 15.0693 12.0467C14.5846 12.1903 14.17 12.5079 13.9052 12.9385C13.6404 13.3692 13.5441 13.8826 13.6348 14.3799C13.8064 15.311 14.0208 16.2358 14.1863 17.1663C16.7414 17.4919 19.2924 17.8505 21.8634 18.0151C27.0591 18.3679 32.2711 17.6293 37.1641 15.8468ZM25.823 14.6556C25.9049 14.1464 26.1706 13.6849 26.5699 13.3584C26.9691 13.0318 27.4741 12.8629 27.9895 12.8835C28.9978 12.864 29.2468 13.5272 29.3357 14.2453C29.1693 15.5143 28.5409 16.2818 27.362 16.2478C26.4676 16.2223 25.6242 15.6723 25.823 14.6556Z" fill="#F9D056"/>
<path d="M14.3086 17.9361L14.2897 17.8076L14.3086 17.9361Z" fill="#F9D056"/>
<path d="M36.3255 81.1527C37.2467 78.0203 38.7998 74.8936 39.6868 71.7515C39.9132 70.9493 40.1556 70.0779 40.0664 69.2742C39.8261 67.1239 38.4898 67.3603 37.1343 66.9795C36.139 66.6995 34.8252 67.5832 34.9375 68.4512C35.4815 72.6628 35.6467 76.119 36.3255 81.1527Z" fill="white"/>
<path d="M29.4189 74.856C26.4691 74.4436 23.5461 73.6801 20.5884 73.5975C18.4845 73.5374 16.3621 74.0258 14.1996 74.3202C9.89067 74.9071 7.06913 76.3076 5.74486 80.5498C3.23749 88.5799 4.05957 96.9433 3.38977 105.156C3.25972 106.75 4.39837 107.357 5.84037 107.428C7.49474 107.509 7.4686 106.329 7.48062 105.19C7.53438 100.134 7.57764 95.0778 7.64942 90.0225C7.66654 88.8171 7.5497 87.5115 9.1548 86.7186C9.1548 87.3325 9.17252 87.7371 9.1521 88.1398C8.46909 101.7 8.61927 116.085 8.68084 129.654C8.68775 131.149 9.48399 132.398 11.275 132.605C13.0375 132.809 14.2155 132.446 14.7429 130.419C15.3815 127.965 16.2195 112.209 16.4985 107.236C16.5625 106.092 17.0358 105.224 18.2156 105.112C19.3621 105.003 20.1511 105.706 20.4533 106.785C20.8423 108.16 21.162 109.554 21.4111 110.962C22.496 117.195 23.5097 123.44 24.9724 129.602C25.4491 131.611 26.8563 132.749 28.68 132.352C32.2287 131.578 30.9216 126.957 30.7453 125.624C29.4958 116.17 27.9703 106.761 26.2448 97.3809C25.5572 93.5606 25.2123 89.6865 25.2142 85.8049C25.2049 83.3804 26.2306 82.461 28.5863 82.5887C30.1889 82.6381 31.7929 82.5867 33.389 82.4346C34.4703 82.3565 35.0019 81.7927 34.8707 80.5844C34.491 77.0954 33.9918 72.7814 33.6371 69.0054C32.7961 71.7467 32.4261 72.1891 31.8302 73.25C31.2868 74.2144 30.8357 75.0554 29.4189 74.856Z" fill="white"/>
<path d="M56.9371 7.87602C51.0084 4.88357 44.5445 3.18837 38.6049 0.219652C37.6378 -0.26362 36.549 0.0147979 36.3423 1.41295C36.1952 2.40894 35.9852 3.41994 36.0291 4.41382C36.0891 5.79546 35.441 6.43551 34.1942 6.65087C27.1391 7.86971 20.968 9.77877 13.2369 11.2463C12.2607 11.4313 11.9087 11.8308 12.0102 12.7445C12.2976 15.3393 12.4379 17.9521 13.2278 20.4747C13.7568 22.1645 14.6557 22.8968 16.5618 22.6586C19.5684 22.2835 22.6179 22.2649 25.6355 21.9621C26.8892 21.8363 27.6206 21.4341 27.808 22.8193C28.4274 27.4046 32.9994 61.5911 33.4073 66.5211C33.4073 66.5211 33.0955 67.9499 31.624 70.7501C30.635 72.6322 29.6864 73.7975 27.3617 73.0791C26.2549 72.7367 25.0303 72.7856 23.8631 72.6255C20.5292 72.1681 21.5642 72.4369 22.5464 69.3475C25.2388 60.8798 19.9816 55.3833 13.4756 55.3614C8.00135 55.3428 4.32799 59.039 3.75942 63.2118C3.13648 67.7841 5.0903 71.1901 8.86968 73.9717C4.44243 77.3658 3.41281 82.2144 3.01063 87.2538C2.54118 93.1362 2.26425 99.0334 1.89752 104.924C1.72721 107.664 3.37827 109.119 7.32014 108.855C7.32014 108.855 7.32014 109.263 7.2901 110.948C7.18558 117.107 7.15675 123.473 7.16095 129.632C7.16336 132.759 8.8952 134.198 12.0267 134.168C14.4142 134.145 15.6499 132.957 16.0752 129.843C17.0063 123.036 17.6899 109.249 17.8819 107.913C17.9091 107.758 17.9702 107.611 18.061 107.482C18.1518 107.353 18.2699 107.245 18.4069 107.167C18.8754 106.987 19.2314 107.37 19.3725 107.756C19.5481 108.315 19.6757 108.888 19.754 109.468C20.9959 116.36 22.2142 123.257 23.482 130.144C23.922 132.533 25.4553 133.502 27.8648 133.764C30.4004 134.039 31.5592 132.694 32.4155 130.748C32.9453 129.542 29.5465 107.47 27.7128 97.7686C27.0406 94.2124 26.4147 90.6361 26.5177 86.9814C26.5702 85.1071 27.1028 83.533 29.3344 83.7279C31.0822 83.8808 33.7683 83.323 35.1613 84.0283C35.1613 84.0283 35.3884 87.5995 35.5773 89.3476C36.8088 100.747 37.9661 112.155 38.9578 123.577C39.1894 126.245 39.8679 128.941 39.3297 131.63C39.1762 132.398 38.8942 132.983 39.8751 133.102C40.8759 133.222 41.5352 132.747 41.3667 131.624C41.1796 130.376 40.7921 129.144 40.72 127.893C40.0995 117.104 38.6034 106.397 37.7165 95.6343C37.2416 89.8771 36.7043 83.5972 36.7043 83.5972C37.7624 81.8609 40.4887 73.9111 41.0141 71.8692C42.3071 66.8563 39.1191 64.4243 34.9325 65.8396C34.9272 65.3758 34.8702 64.914 34.7625 64.4628C34.0359 60.5735 29.8303 28.3546 29.1987 22.8256C29.1182 22.1198 29.0941 21.5858 29.9982 21.5593C32.0187 21.4993 34.1044 21.2136 36.042 21.6113C37.3801 21.8858 37.3536 23.7997 37.8405 24.9753C38.7533 27.1829 39.7547 26.8603 41.1931 25.5613C43.4436 23.5288 45.7456 21.5515 48.0643 19.5962C51.2229 16.9323 54.4859 14.388 57.573 11.6446C59.5797 9.86227 59.2823 9.05942 56.9371 7.87602ZM5.24288 64.0663C5.54324 59.8313 9.28447 56.6397 13.7399 56.9034C19.3037 57.2338 22.404 60.966 21.785 65.9501C21.2194 70.502 18.9136 74.0655 12.3343 73.4515C8.05541 73.052 4.91789 68.6338 5.24288 64.0663ZM37.1344 66.9798C38.4899 67.3606 39.8277 67.1242 40.0664 69.2745C40.1566 70.0782 39.9133 70.9496 39.6868 71.7518C38.7998 74.8938 37.2467 78.0205 36.3255 81.1529C35.6467 76.1193 35.4815 72.6631 34.9376 68.453C34.8252 67.5832 36.139 66.6995 37.1344 66.9795V66.9798ZM34.8706 80.582C35.0018 81.7903 34.4705 82.3541 33.3889 82.4322C31.7929 82.5842 30.1888 82.6357 28.5862 82.5863C26.2306 82.4586 25.2048 83.378 25.2141 85.8025C25.2122 89.6841 25.5571 93.5582 26.2447 97.3785C27.9702 106.757 29.4957 116.168 30.7452 125.621C30.9215 126.954 32.2287 131.575 28.68 132.349C26.8562 132.747 25.449 131.608 24.9724 129.599C23.5096 123.438 22.4959 117.193 21.411 110.959C21.1619 109.552 20.8422 108.158 20.4532 106.783C20.151 105.703 19.362 105.001 18.2156 105.11C17.0358 105.222 16.5636 106.09 16.4984 107.234C16.2194 112.206 15.3814 127.962 14.7428 130.417C14.2154 132.444 13.0374 132.807 11.2749 132.603C9.4839 132.395 8.68766 131.146 8.68075 129.652C8.61918 116.083 8.469 101.698 9.15201 88.1374C9.17244 87.7346 9.15472 87.3301 9.15472 86.7161C7.54961 87.5097 7.66645 88.8153 7.64933 90.0201C7.57755 95.0763 7.53429 100.133 7.48053 105.188C7.46852 106.327 7.49465 107.507 5.84029 107.425C4.39858 107.354 3.25963 106.747 3.38968 105.154C4.05948 96.9409 3.2374 88.5774 5.74478 80.5474C7.06905 76.3052 9.88968 74.9047 14.1995 74.3178C16.3621 74.0234 18.4844 73.5368 20.5884 73.5951C23.5472 73.6777 26.4702 74.4412 29.4188 74.8536C30.8356 75.0518 31.2867 74.2114 31.8289 73.2467C32.4248 72.1864 32.7954 71.7449 33.6358 69.0021C33.9905 72.7805 34.4897 77.0945 34.8706 80.582ZM56.3731 11.0835C51.2172 15.4291 46.0634 19.7773 40.8696 24.0769C39.2354 25.4285 38.6103 23.8772 38.5518 22.813C38.3806 19.7152 36.6796 19.6824 34.2107 19.9239C28.6754 20.4645 23.1032 20.6186 17.5608 21.101C15.5121 21.2794 14.584 20.6363 14.3902 18.6119C14.3689 18.3861 14.3404 18.1614 14.3085 17.9361L14.2896 17.8076C14.2578 17.5941 14.223 17.3809 14.1854 17.1678C14.0199 16.2367 13.8054 15.3113 13.6339 14.3814C13.5432 13.8841 13.6395 13.3707 13.9043 12.9401C14.169 12.5094 14.5837 12.1918 15.0684 12.0483C21.9222 10.4035 28.1084 9.41023 35.659 7.8643C36.8025 7.63032 37.3873 7.38584 37.3275 6.20184C37.3023 5.69784 37.3296 5.19114 37.3059 4.68684C37.2158 2.75435 37.7059 2.01367 39.9157 2.70118C44.897 4.24294 49.7513 6.16859 54.4349 8.46081C54.9727 8.72272 55.5086 8.98994 56.0427 9.26247C57.148 9.82894 57.2573 10.338 56.3731 11.0835Z" fill="#0D0D0D"/>
<path d="M63.1671 7.78232C63.0308 7.52612 62.698 7.21165 62.4541 7.20865C61.9306 7.20415 61.835 7.66219 61.8684 8.10972C62.0931 11.1082 61.2809 13.6477 58.3903 15.2726C62.057 14.9945 64.6683 10.6039 63.1671 7.78232Z" fill="#0D0D0D"/>
<path d="M44.8724 67.2161C44.6685 66.8557 44.5537 66.3604 44.0314 66.4653C43.9042 66.4853 43.7843 66.5375 43.6829 66.6169C43.5816 66.6964 43.5023 66.8004 43.4526 66.9192C43.4028 67.0379 43.3843 67.1675 43.3987 67.2954C43.4131 67.4233 43.46 67.5455 43.5349 67.6502C45.1055 70.2933 44.2858 72.9626 43.7208 75.6631C45.5356 73.0019 46.607 70.2726 44.8724 67.2161Z" fill="#0D0D0D"/>
<path d="M27.3617 16.2479C28.5405 16.2818 29.1689 15.5144 29.3353 14.2454C29.2452 13.5273 28.9974 12.8638 27.9891 12.8836C27.4738 12.8629 26.9687 13.0319 26.5695 13.3584C26.1703 13.685 25.9046 14.1465 25.8226 14.6557C25.6241 15.6724 26.4675 16.2223 27.3617 16.2479Z" fill="#0D0D0D"/>
<path d="M47.8253 131.838C46.5127 131.838 37.3477 133.37 47.8253 133.469C51.1016 133.5 49.1396 131.838 47.8253 131.838Z" fill="#0D0D0D"/>
<path d="M4.96236 132.227C3.64981 132.227 -5.51526 133.759 4.96236 133.859C8.23864 133.89 6.27672 132.227 4.96236 132.227Z" fill="#0D0D0D"/>
<path d="M56.0427 9.26244C55.5089 8.98912 54.973 8.7219 54.4349 8.46079C53.9343 8.2169 53.4318 7.97661 52.9274 7.73993C52.2703 8.19046 51.6095 8.6371 50.9421 9.06931C46.6083 11.8204 41.9886 14.0927 37.1642 15.8462C32.2709 17.6293 27.0586 18.3685 21.8625 18.016C19.2918 17.8514 16.7406 17.4928 14.1854 17.1672C14.2233 17.3803 14.258 17.5935 14.2897 17.807L14.3086 17.9355C14.3404 18.1605 14.3686 18.386 14.3903 18.6113C14.584 20.6357 15.5121 21.2788 17.5608 21.1004C23.1033 20.618 28.6755 20.4645 34.2108 19.9233C36.6797 19.683 38.3806 19.713 38.5518 22.8124C38.6119 23.8766 39.2354 25.4291 40.8696 24.0763C46.0634 19.7767 51.2172 15.4284 56.3731 11.0829C57.2574 10.338 57.148 9.82891 56.0427 9.26244Z" fill="#F9D056"/>
</svg>
